<svg xmlns="http://www.w3.org/2000/svg" xmlns:xlink="http://www.w3.org/1999/xlink" width="70" height="82" viewBox="0 0 70 82"><defs><style>.a{fill:none;}.b{clip-path:url(#a);}.c{fill:#370c60;}</style><clipPath id="a"><rect class="a" width="70" height="82" transform="translate(0 -0.474)"/></clipPath></defs><g transform="translate(-0.325 0.473)"><g class="b" transform="translate(0.325 0)"><path class="c" d="M102.856,49.592a6.532,6.532,0,0,0-4.243,6.1,6.459,6.459,0,0,0,.749,2.975,5.206,5.206,0,0,0,0,9.739,6.458,6.458,0,0,0-.749,2.974,6.53,6.53,0,0,0,4.243,6.1,5.158,5.158,0,0,0-.322,1.744,5.193,5.193,0,0,0,7.073,4.877,5.216,5.216,0,0,0,9.922-2.263v-36.6a5.216,5.216,0,0,0-9.922-2.263,5.181,5.181,0,0,0-6.751,6.621m4.907-4.358a2.617,2.617,0,0,1,2.615,2.615h2.615a5.179,5.179,0,0,0-1.205-3.3,2.608,2.608,0,0,1,5.127.684v36.6a2.608,2.608,0,0,1-5.127.684,5.177,5.177,0,0,0,1.205-3.3h-2.615a2.615,2.615,0,1,1-2.615-2.615V73.994a5.179,5.179,0,0,0-3.333,1.234,3.919,3.919,0,1,1,4.641-3.849h2.615a6.544,6.544,0,0,0-6.536-6.536,6.466,6.466,0,0,0-3.922,1.342V66.15a2.614,2.614,0,1,1,0-5.229v-.034a6.467,6.467,0,0,0,3.922,1.341,6.543,6.543,0,0,0,6.536-6.536h-2.615a3.922,3.922,0,1,1-4.641-3.848,5.179,5.179,0,0,0,3.333,1.234V50.463a2.615,2.615,0,0,1,0-5.229" transform="translate(-80.61 -33.468)"/><path class="c" d="M267.76,42.62a5.2,5.2,0,0,0-1.843.352,5.216,5.216,0,0,0-9.923,2.263v36.6a5.216,5.216,0,0,0,9.923,2.263,5.193,5.193,0,0,0,7.072-4.877,5.141,5.141,0,0,0-.322-1.744,6.53,6.53,0,0,0,4.244-6.1,6.458,6.458,0,0,0-.749-2.974,5.207,5.207,0,0,0,0-9.739,6.459,6.459,0,0,0,.749-2.975,6.531,6.531,0,0,0-4.244-6.1,5.138,5.138,0,0,0,.322-1.744,5.235,5.235,0,0,0-5.229-5.229M274.3,55.692a3.922,3.922,0,1,1-7.844,0h-2.615a6.544,6.544,0,0,0,6.536,6.536,6.466,6.466,0,0,0,3.922-1.341v.034a2.614,2.614,0,1,1,0,5.229v.034a6.467,6.467,0,0,0-3.922-1.342,6.544,6.544,0,0,0-6.536,6.536h2.615a3.922,3.922,0,1,1,4.641,3.849,5.182,5.182,0,0,0-3.334-1.234v2.615a2.614,2.614,0,1,1-2.615,2.615h-2.615a5.177,5.177,0,0,0,1.205,3.3,2.608,2.608,0,0,1-5.127-.684v-36.6a2.608,2.608,0,0,1,5.127-.684,5.179,5.179,0,0,0-1.205,3.3h2.615a2.615,2.615,0,1,1,2.615,2.614v2.615a5.181,5.181,0,0,0,3.334-1.234,3.922,3.922,0,0,1,3.2,3.848" transform="translate(-214.462 -33.468)"/><path class="c" d="M114.656,8.154A29.817,29.817,0,0,0,92.15.062l.162,2.609A27.45,27.45,0,0,1,109.22,52.956a16.162,16.162,0,0,0-5.907,7.179H84.773A16.427,16.427,0,0,0,78.837,52.9a27.33,27.33,0,0,1-12.2-23.709l-2.613-.081A29.925,29.925,0,0,0,77.385,55.074a13.776,13.776,0,0,1,4.522,5.061H78.383V62.75H82.95a15.082,15.082,0,0,1,.559,2.614H81v2.615h2.614V71.9a1.307,1.307,0,0,0,1.307,1.307h1.307a7.844,7.844,0,1,0,15.687,0h1.307a1.306,1.306,0,0,0,1.307-1.307V67.979h2.615V65.364H104.62a14.572,14.572,0,0,1,.525-2.614h4.612V60.135h-3.58a13.481,13.481,0,0,1,4.488-5,30.062,30.062,0,0,0,3.991-46.983M94.07,78.437a5.234,5.234,0,0,1-5.229-5.229H99.3a5.234,5.234,0,0,1-5.229,5.229m7.844-7.844H86.227V67.979h15.687Zm.093-5.229H86.122a17.805,17.805,0,0,0-.443-2.614h16.734a17.379,17.379,0,0,0-.407,2.614" transform="translate(-53.845 0)"/><path class="c" d="M49.305,9.158a5.235,5.235,0,0,1,5.229,5.229,1.307,1.307,0,0,0,2.615,0,5.235,5.235,0,0,1,5.229-5.229,1.307,1.307,0,1,0,0-2.615,5.234,5.234,0,0,1-5.229-5.229,1.307,1.307,0,0,0-2.615,0,5.234,5.234,0,0,1-5.229,5.229,1.307,1.307,0,0,0,0,2.615m6.536-3.513a7.912,7.912,0,0,0,2.205,2.205,7.916,7.916,0,0,0-2.205,2.205,7.91,7.91,0,0,0-2.205-2.205,7.905,7.905,0,0,0,2.205-2.205" transform="translate(-40.454 -0.006)"/><path class="c" d="M14.38,89.156a1.307,1.307,0,0,0,0-2.615,5.234,5.234,0,0,1-5.229-5.229,1.307,1.307,0,1,0-2.615,0,5.234,5.234,0,0,1-5.229,5.229,1.307,1.307,0,0,0,0,2.615,5.235,5.235,0,0,1,5.229,5.229,1.307,1.307,0,1,0,2.615,0,5.235,5.235,0,0,1,5.229-5.229m-6.536.9a7.91,7.91,0,0,0-2.205-2.205,7.918,7.918,0,0,0,2.205-2.205,7.929,7.929,0,0,0,2.205,2.205,7.92,7.92,0,0,0-2.205,2.205" transform="translate(-0.299 -66.932)"/></g></g></svg>