<svg xmlns="http://www.w3.org/2000/svg" xmlns:xlink="http://www.w3.org/1999/xlink" width="66.926" height="66.945" viewBox="0 0 66.926 66.945"><defs><style>.a{fill:none;}.b{clip-path:url(#a);}.c{fill:#370c60;}</style><clipPath id="a"><rect class="a" width="66.926" height="66.945"/></clipPath></defs><g class="b"><path class="c" d="M98.215,128.992a17.772,17.772,0,0,0-25.122-1.223,10.569,10.569,0,0,0-1.111,1.112l-.445.778.556.667.111.111a17.727,17.727,0,0,0,25.011,1.112,10.475,10.475,0,0,0,1.111-1.112l.556-.778Zm-15.34.667a2.223,2.223,0,1,1,2.223,2.223,2.23,2.23,0,0,1-2.223-2.223m.778-4.224a4.5,4.5,0,0,0-2.89,5.558,4.419,4.419,0,0,0,2.89,2.89,15.711,15.711,0,0,1-9.337-4.224,16.014,16.014,0,0,1,9.337-4.224m2.89,8.448a4.5,4.5,0,0,0,2.89-5.558,4.419,4.419,0,0,0-2.89-2.89,15.713,15.713,0,0,1,9.337,4.224,16.014,16.014,0,0,1-9.337,4.224" transform="translate(-61.58 -106.011)"/><path class="c" d="M52.1,34.133A18.9,18.9,0,1,0,71,53.03a18.881,18.881,0,0,0-18.9-18.9m0,35.571A16.674,16.674,0,1,1,68.772,53.03,16.652,16.652,0,0,1,52.1,69.7" transform="translate(-28.58 -29.382)"/><path class="c" d="M330.53,84.361V47.678a5.5,5.5,0,0,0-5.558-5.558H312.744v2.223h12.228a3.275,3.275,0,0,1,3.335,3.335V84.361Z" transform="translate(-269.217 -36.258)"/><path class="c" d="M41.188,321.662v11.116a5.5,5.5,0,0,0,5.558,5.558H85.652v-2.223H46.746a3.275,3.275,0,0,1-3.335-3.335V321.662Z" transform="translate(-35.456 -276.894)"/><rect class="c" width="10.004" height="2.223" transform="translate(46.862 11.42)"/><rect class="c" width="7.781" height="2.223" transform="translate(49.085 16.978)"/><rect class="c" width="7.781" height="2.223" transform="translate(49.085 22.536)"/><rect class="c" width="7.781" height="2.223" transform="translate(49.085 28.094)"/><rect class="c" width="7.781" height="2.223" transform="translate(49.085 33.652)"/><rect class="c" width="6.67" height="2.223" transform="translate(50.197 39.21)"/><rect class="c" width="30.013" height="2.223" transform="translate(10.179 49.215)"/><rect class="c" width="34.46" height="2.223" transform="translate(10.179 53.661)"/><rect class="c" width="15.562" height="2.223" transform="translate(15.737 32.541)"/><rect class="c" width="15.562" height="2.223" transform="translate(15.737 12.532)"/><path class="c" d="M53.865,46.88a3.2,3.2,0,0,0-2.334-1h-.778l-8-9a23.7,23.7,0,1,0-4.78,5l7.781,8.781v.89a3.027,3.027,0,0,0,1,2.334L58.311,65.444a5.031,5.031,0,0,0,7.114-7.115ZM2.4,23.647a21.121,21.121,0,1,1,21.121,21.12A21.111,21.111,0,0,1,2.4,23.647m37.239,16.9c.556-.556,1.222-1.222,1.667-1.778l7.336,8.226-1.778,1.667ZM61.869,64.777a3.2,3.2,0,0,1-2-.778L48.307,52.438a1.009,1.009,0,0,1-.333-.778v-.889L50.641,48.1h.889a1.011,1.011,0,0,1,.778.333L63.869,60a2.818,2.818,0,0,1,0,4,3.464,3.464,0,0,1-2,.778" transform="translate(0 0)"/></g></svg>