<svg xmlns="http://www.w3.org/2000/svg" xmlns:xlink="http://www.w3.org/1999/xlink" width="67.853" height="66.296" viewBox="0 0 67.853 66.296"><defs><style>.a{fill:none;}.b{clip-path:url(#a);}.c{fill:#370c60;}</style><clipPath id="a"><rect class="a" width="67.853" height="66.296"/></clipPath></defs><g class="b"><path class="c" d="M202.546,447.755l-.2.974.192-.975a.994.994,0,1,0-.384,1.95l.018,0a1.007,1.007,0,0,0,.188.018.994.994,0,0,0,.185-1.971" transform="translate(-174.668 -388.398)"/><path class="c" d="M261.843,450.261l.1.989-.1-.988a.994.994,0,0,0,.1,1.983c.034,0,.069,0,.1-.005l.027,0a.994.994,0,0,0-.228-1.975" transform="translate(-226.365 -390.585)"/><path class="c" d="M232.147,451.232h-.014a.989.989,0,0,0-1.03.949,1,1,0,0,0,.955,1.037h.046a.994.994,0,0,0,.044-1.987" transform="translate(-200.475 -391.43)"/><path class="c" d="M173.912,439.852l-.012,0a.988.988,0,0,0-1.265.6,1,1,0,1,0,1.278-.6" transform="translate(-149.705 -381.505)"/><path class="c" d="M291.1,444.835l.245.964-.248-.962a.994.994,0,1,0,.5,1.925l.026-.007a.994.994,0,0,0-.519-1.919" transform="translate(-251.873 -385.855)"/><path class="c" d="M319.19,435.036l.394.912-.4-.911a.994.994,0,1,0,.794,1.823l.024-.011a.994.994,0,0,0-.815-1.813" transform="translate(-276.368 -377.309)"/><path class="c" d="M147.476,80.678a.994.994,0,1,0-.464-1.872l-.012.006a.992.992,0,0,0,.476,1.866" transform="translate(-127.065 -68.26)"/><path class="c" d="M63.769,165.121a.994.994,0,0,0,1.342-.419l.018-.035a.994.994,0,1,0-1.36.453" transform="translate(-54.856 -141.601)"/><path class="c" d="M52.272,192.931a.993.993,0,0,0,1.26-.623l.013-.039a.994.994,0,1,0-1.273.662" transform="translate(-44.758 -165.672)"/><path class="c" d="M79.372,139.4a.993.993,0,0,0,1.388-.219l.013-.018a.994.994,0,0,0-1.617-1.156l.8.589-.8-.585a.994.994,0,0,0,.219,1.388" transform="translate(-68.498 -119.362)"/><path class="c" d="M122.039,96.819a1,1,0,1,0-.576-1.806l-.025.018a.995.995,0,0,0,.6,1.788" transform="translate(-105.003 -82.255)"/><path class="c" d="M49.684,310.919a.993.993,0,1,0-.013-.043l.013.043" transform="translate(-43.058 -268.587)"/><path class="c" d="M99.384,116.6a1,1,0,1,0-.694-1.7l-.017.017a.993.993,0,0,0,.711,1.688" transform="translate(-85.351 -99.419)"/><path class="c" d="M45.329,281.059a.994.994,0,0,0-1.973.246l.006.04a.992.992,0,0,0,.982.848,1.009,1.009,0,0,0,.145-.011,1,1,0,0,0,.84-1.123" transform="translate(-37.604 -243.06)"/><path class="c" d="M42.556,252.15h.03a.994.994,0,0,0,.993-.965v-.043a.994.994,0,1,0-1.024,1.007" transform="translate(-36.079 -216.998)"/><path class="c" d="M45.152,222.17a1.025,1.025,0,0,0,.177.016,1,1,0,0,0,.977-.819c0-.015,0-.029.007-.044a.994.994,0,1,0-1.161.847" transform="translate(-38.458 -191.004)"/><path class="c" d="M403.1,143.324a.994.994,0,0,0,1.636-1.129l-.826.553.823-.558a.994.994,0,0,0-1.646,1.116Z" transform="translate(-349.518 -122.968)"/><path class="c" d="M436.824,229.029a.993.993,0,0,0-.876,1.1l.005.043a1,1,0,0,0,.983.853,1.009,1.009,0,0,0,.142-.01,1,1,0,0,0-.254-1.985" transform="translate(-378.167 -198.671)"/><path class="c" d="M429.679,199.56l0,.013a.994.994,0,0,0,.953.714.98.98,0,0,0,.281-.041.994.994,0,0,0,.673-1.234l0-.013a.994.994,0,1,0-1.907.561" transform="translate(-372.7 -172.007)"/><path class="c" d="M418.641,170.4a1,1,0,0,0,.9.558.993.993,0,0,0,.89-1.429l-.9.42.9-.422a.994.994,0,0,0-1.8.844Z" transform="translate(-363.066 -146.566)"/><path class="c" d="M383.488,119.05a1,1,0,1,0-.03-.032Z" transform="translate(-332.411 -101.798)"/><path class="c" d="M438.34,260.384a1,1,0,0,0-.085,2l.056,0a.994.994,0,0,0,.991-.939V261.4a.992.992,0,0,0-.964-1.02" transform="translate(-379.36 -225.876)"/><path class="c" d="M334.069,81.136l.024.013a.99.99,0,0,0,1.339-.408,1,1,0,0,0-.4-1.346l-.481.87.478-.872a.994.994,0,1,0-.956,1.743" transform="translate(-289.348 -68.765)"/><path class="c" d="M360.271,98.128l.016.012a.994.994,0,0,0,1.2-1.584l-.007,0a.994.994,0,1,0-1.21,1.577" transform="translate(-312.188 -83.577)"/><path class="c" d="M67.24,49.555l-4.666-4.674a2.1,2.1,0,0,0-2.972,0l-.108.108-.307-.307a4.012,4.012,0,0,1-.87-1.3.98.98,0,0,0-.071-.184,4.017,4.017,0,0,1-.231-1.35V40.524a1,1,0,1,0-.006-1.767,5.6,5.6,0,0,0-1.643-3.738l-4.527-4.534a5.371,5.371,0,0,0-6.868-.617l-.48-.483V18.018a5.644,5.644,0,0,0-1.4-3.722,4.011,4.011,0,0,1-1-2.647v-.833h.068a2.1,2.1,0,0,0,2.1-2.1V2.1a2.1,2.1,0,0,0-2.1-2.1H23.6a2.1,2.1,0,0,0-2.1,2.1V8.714a2.1,2.1,0,0,0,2.1,2.1h.153v.436a3.987,3.987,0,0,1-1.173,2.836l-2,2.008a5.608,5.608,0,0,0-1.649,3.988V26.5a5.36,5.36,0,0,0,.577,2.423,5.337,5.337,0,0,0-3.488,1.568L11.487,35.02a5.608,5.608,0,0,0-1.649,3.988v2.839a3.987,3.987,0,0,1-1.172,2.836l-.3.3,0,0-.108-.108a2.1,2.1,0,0,0-2.972,0L.613,49.555a2.107,2.107,0,0,0,0,2.973l1.6,1.6a.994.994,0,1,0,1.407-1.4l-1.6-1.6a.115.115,0,0,1,0-.163l4.666-4.674a.112.112,0,0,1,.158,0l.811.813h0l11.077,11.1,1.241,1.243a.115.115,0,0,1,0,.163l-4.666,4.674a.112.112,0,0,1-.158,0L6.432,55.542a.994.994,0,1,0-1.407,1.4l8.718,8.733a2.1,2.1,0,0,0,2.972,0l4.666-4.674a2.106,2.106,0,0,0,0-2.972l-.051-.051.589-.59a3.993,3.993,0,0,1,2.571-1.166,5.625,5.625,0,0,0,3.619-1.641l4.286-4.3a3.4,3.4,0,0,0,2.46-2.593A3.389,3.389,0,0,0,39.7,44.631v-2.36a3.388,3.388,0,0,0,4.792-3.089V32.2l3.057,3.072a.994.994,0,0,0,1.409-1.4l-2.549-2.561a3.385,3.385,0,0,1,4.024.578l4.527,4.534a3.633,3.633,0,0,1,1.068,2.583v2.839a5.964,5.964,0,0,0,1.753,4.241l.309.309-1.442,1.444-8.72,8.735-.486-.487-.015-.015-.085-.086a5.985,5.985,0,0,0-3.849-1.745,3.645,3.645,0,0,1-2.344-1.064l-3.266-3.248a.994.994,0,1,0-1.4,1.409l3.264,3.246a5.624,5.624,0,0,0,3.62,1.641,4,4,0,0,1,2.571,1.165l.048.048a.935.935,0,0,0,.082.083l.458.459-.051.051a2.106,2.106,0,0,0,0,2.972l4.666,4.674a2.1,2.1,0,0,0,2.973,0L67.24,52.527a2.107,2.107,0,0,0,0-2.972m-8.559-9.884-.019,0-.181-.037ZM26.7,53.182a3.638,3.638,0,0,1-2.34,1.062,5.985,5.985,0,0,0-3.849,1.745l-.586.588-.528-.529-.02-.02L9.765,46.4l.309-.309a5.964,5.964,0,0,0,1.753-4.241V39.008a3.632,3.632,0,0,1,1.068-2.583l4.527-4.534a3.385,3.385,0,0,1,4.029-.575L18.9,33.873a.994.994,0,0,0,1.407,1.4l3.05-3.055V44.631a3.389,3.389,0,0,0,4.861,3.058A3.407,3.407,0,0,0,29.9,49.978Zm15.8-14a1.4,1.4,0,1,1-2.8,0V28.1a.994.994,0,1,0-1.988,0V44.632a1.4,1.4,0,0,1-2.784.232V28.084a1,1,0,0,0-2.009.011V44.631a3.394,3.394,0,0,0,.021.373v2a1.4,1.4,0,1,1-2.8,0V28.072a.994.994,0,0,0-1.988,0v16.56a1.4,1.4,0,1,1-2.8,0V26.142a.994.994,0,1,0-1.988,0v3.42a.974.974,0,0,0-.239.114,3.4,3.4,0,0,1-2.2-3.181V20.083A3.633,3.633,0,0,1,21.98,17.5l2-2.008a5.962,5.962,0,0,0,1.754-4.241v-.436h2a.994.994,0,1,0,0-1.988H23.6a.114.114,0,0,1-.113-.114V2.1a.114.114,0,0,1,.113-.114H42.163a.114.114,0,0,1,.114.114V8.714a.114.114,0,0,1-.114.114H32.4a.994.994,0,1,0,0,1.988h7.7v.833A6,6,0,0,0,41.6,15.607a3.655,3.655,0,0,1,.908,2.411ZM65.833,51.123,52.7,64.275a.106.106,0,0,1-.079.033.108.108,0,0,1-.079-.033L47.879,59.6a.116.116,0,0,1,0-.163l.751-.753h0l7.622-7.635,4.756-4.764a.111.111,0,0,1,.158,0l4.666,4.674a.115.115,0,0,1,0,.163" transform="translate(0)"/><path class="c" d="M194.875,32.805a1.06,1.06,0,1,0,1.059,1.06,1.06,1.06,0,0,0-1.059-1.06" transform="translate(-168.131 -28.457)"/><path class="c" d="M456.473,374.687a1.06,1.06,0,1,0,1.058,1.06,1.061,1.061,0,0,0-1.058-1.06" transform="translate(-395.06 -325.031)"/><path class="c" d="M111.128,444.263a1.058,1.058,0,1,0-1.058,1.06,1.06,1.06,0,0,0,1.058-1.06" transform="translate(-94.564 -384.467)"/></g></svg>