<svg xmlns="http://www.w3.org/2000/svg" width="65.447" height="65.448" viewBox="0 0 65.447 65.448"><defs><style>.a{fill:#370c60;}</style></defs><g transform="translate(-8 -7.999)"><path class="a" d="M68.222,81.5v2.111a6.326,6.326,0,0,0,2.921,5.327,2.732,2.732,0,0,1-2.114,1.007h-.154A4.88,4.88,0,0,0,64,94.82V100.5a1.055,1.055,0,0,0,1.056,1.056h19a1.055,1.055,0,0,0,1.056-1.056V97.334h8.445V100.5a1.055,1.055,0,0,0,1.056,1.056h19a1.055,1.055,0,0,0,1.056-1.056V94.82a4.88,4.88,0,0,0-4.875-4.875h-.154a2.73,2.73,0,0,1-2.113-1.007,6.328,6.328,0,0,0,2.92-5.327V81.5a6.334,6.334,0,1,0-12.667,0v2.111a6.326,6.326,0,0,0,2.921,5.327,2.708,2.708,0,0,1-1.19.83,4.883,4.883,0,0,0-4.495-2.989h-.154a2.73,2.73,0,0,1-2.113-1.007,6.328,6.328,0,0,0,2.92-5.327V78.334a6.334,6.334,0,0,0-12.667,0v2.111a6.326,6.326,0,0,0,2.921,5.327,2.732,2.732,0,0,1-2.114,1.007h-.154a4.881,4.881,0,0,0-4.495,2.991,2.708,2.708,0,0,1-1.19-.83,6.329,6.329,0,0,0,2.921-5.328V81.5a6.334,6.334,0,1,0-12.667,0ZM83,99.446H66.111V94.82a2.767,2.767,0,0,1,2.764-2.764h.154a4.972,4.972,0,0,0,.8-.071l.38.38a6.142,6.142,0,0,0,8.573.116v3.8a1.055,1.055,0,0,0,1.056,1.056H83Zm26.793-7.389a2.767,2.767,0,0,1,2.764,2.764v4.626H95.668V97.334h3.167a1.055,1.055,0,0,0,1.056-1.056v-3.8a6.142,6.142,0,0,0,8.573-.116l.38-.38a4.972,4.972,0,0,0,.8.071ZM99.891,81.5a4.222,4.222,0,1,1,8.445,0v2.111a4.222,4.222,0,1,1-8.445,0Zm4.222,8.445a6.317,6.317,0,0,0,1.415-.165,4.857,4.857,0,0,0,1.191,1.3,4.135,4.135,0,0,1-5.21,0,4.84,4.84,0,0,0,1.191-1.3,6.317,6.317,0,0,0,1.415.165Zm-19-11.612a4.222,4.222,0,0,1,8.445,0v2.111a4.222,4.222,0,1,1-8.445,0Zm4.222,8.445a6.317,6.317,0,0,0,1.415-.165,4.857,4.857,0,0,0,1.191,1.3,4.135,4.135,0,0,1-5.21,0,4.84,4.84,0,0,0,1.191-1.3,6.317,6.317,0,0,0,1.415.165ZM80.89,91.653a2.767,2.767,0,0,1,2.764-2.764h.154a4.972,4.972,0,0,0,.8-.071l.38.38a6.152,6.152,0,0,0,8.7,0l.38-.38a4.972,4.972,0,0,0,.8.071h.154a2.767,2.767,0,0,1,2.764,2.764v3.57H80.89Zm-3.728-.577a4.135,4.135,0,0,1-5.21,0,4.84,4.84,0,0,0,1.191-1.3,6.138,6.138,0,0,0,2.829,0,4.819,4.819,0,0,0,1.191,1.3ZM78.778,81.5v2.111a4.222,4.222,0,0,1-8.445,0V81.5a4.222,4.222,0,1,1,8.445,0Z" transform="translate(-48.611 -55.556)"/><path class="a" d="M66.791,316.559l-21.628,5.9a4.059,4.059,0,0,0-.526-.649l-7.389-7.389a1.056,1.056,0,0,0-.746-.308H24.89v-1.056A1.055,1.055,0,0,0,23.834,312H9.056A1.055,1.055,0,0,0,8,313.056v23.223a1.055,1.055,0,0,0,1.056,1.056H17.5a1.055,1.055,0,0,0,1.056-1.056v-1.056h5.278a1.055,1.055,0,0,0,1.056-1.056v-1.056h7.218l6.171,2.056a1.042,1.042,0,0,0,.677,0l33.779-11.612a1.054,1.054,0,0,0,.713-1V321.5a5.129,5.129,0,0,0-6.657-4.941ZM16.445,335.223H10.111V314.111h6.334Zm6.334-2.111H18.556v-19h4.222ZM71.336,321.8,38.607,333.053l-5.995-2a1.086,1.086,0,0,0-.334-.054H24.89V316.222H36.064l7.08,7.08a1.93,1.93,0,0,1-2.73,2.73l-5.278-5.278-1.493,1.493,5.278,5.278a4.027,4.027,0,0,0,6.878-3.052L67.346,318.6a3.021,3.021,0,0,1,3.99,2.9Z" transform="translate(0 -263.888)"/><path class="a" d="M312.4,15.279q-1.026-.315-2.078-.567l-.49,2.053q.986.234,1.945.532Z" transform="translate(-262.005 -5.827)"/><path class="a" d="M487.785,251.8c0,.475-.011.949-.033,1.419l2.109.1q.035-.754.035-1.516,0-.32-.006-.639l-2.111.041c0,.2.006.4.006.6Z" transform="translate(-416.449 -211.076)"/><path class="a" d="M282.086,9.568c-.7-.117-1.413-.214-2.135-.288l-.214,2.1q1.009.1,2,.27Z" transform="translate(-235.88 -1.112)"/><path class="a" d="M479.337,189.294l2.062-.454c-.154-.7-.332-1.4-.531-2.088l-2.028.588q.279.966.5,1.954Z" transform="translate(-408.712 -155.167)"/><path class="a" d="M341.784,25.2c-.654-.3-1.324-.584-1.989-.838l-.755,1.971q.945.363,1.859.784Z" transform="translate(-287.359 -14.202)"/><path class="a" d="M485.612,220.958l2.1-.179q-.092-1.08-.252-2.139l-2.088.316q.152.991.237,2Z" transform="translate(-414.386 -182.847)"/><path class="a" d="M437.934,103.431l1.727-1.214q-.619-.882-1.3-1.721l-1.646,1.324q.633.785,1.214,1.611Z" transform="translate(-372.15 -80.292)"/><path class="a" d="M469.165,158.807l1.985-.722c-.246-.676-.516-1.347-.8-2l-1.932.852q.4.918.749,1.867Z" transform="translate(-399.664 -128.549)"/><path class="a" d="M419.015,78.009c-.48-.523-.989-1.04-1.511-1.537L416.048,78q.728.7,1.412,1.438Z" transform="translate(-354.206 -59.438)"/><path class="a" d="M369.66,39.15c-.6-.381-1.228-.749-1.86-1.094l-1.008,1.856q.887.483,1.738,1.022Z" transform="translate(-311.449 -26.091)"/><path class="a" d="M477.016,314l2.011.643c.22-.686.417-1.385.588-2.075l-2.049-.507q-.244.983-.55,1.939Z" transform="translate(-407.129 -263.944)"/><path class="a" d="M486.756,282.233l-2.1-.233q-.112,1.007-.289,1.994l2.078.374c.126-.7.229-1.421.309-2.134Z" transform="translate(-413.511 -237.847)"/><path class="a" d="M395.551,56.863c-.551-.459-1.123-.907-1.7-1.327l-1.245,1.7q.815.6,1.589,1.242Z" transform="translate(-333.859 -41.265)"/><path class="a" d="M455.278,130.043l1.872-.977c-.33-.632-.686-1.262-1.059-1.874l-1.8,1.1Q454.812,129.147,455.278,130.043Z" transform="translate(-387.4 -103.466)"/><path class="a" d="M16.738,185.588l-2.024-.6c-.2.689-.39,1.39-.547,2.086l2.058.468Q16.451,186.549,16.738,185.588Z" transform="translate(-5.354 -153.632)"/><path class="a" d="M26.256,155.25l-1.924-.866c-.292.648-.568,1.321-.819,2l1.978.736q.352-.948.765-1.866Z" transform="translate(-13.465 -127.07)"/><path class="a" d="M39.789,126.626,38,125.512c-.377.608-.739,1.237-1.076,1.869l1.863.992Q39.258,127.482,39.789,126.626Z" transform="translate(-25.104 -102.007)"/><path class="a" d="M57.064,100.3,55.43,98.96q-.682.833-1.31,1.71l1.716,1.229Q56.425,101.079,57.064,100.3Z" transform="translate(-40.034 -78.959)"/><path class="a" d="M10.134,251.394c-.016-.4-.023-.795-.023-1.193,0-.277,0-.55.011-.823l-2.11-.058C8,249.611,8,249.907,8,250.2q0,.638.024,1.272Z" transform="translate(0 -209.479)"/><path class="a" d="M11.4,217.169l-2.086-.329c-.112.707-.2,1.426-.267,2.137l2.1.194Q11.243,218.159,11.4,217.169Z" transform="translate(-0.91 -181.285)"/><path class="a" d="M9.336,280.5q.112,1.08.293,2.134l2.082-.357q-.169-.988-.274-2Z" transform="translate(-1.16 -236.354)"/><path class="a" d="M101.548,56.1l-1.233-1.713q-.874.629-1.707,1.312l1.342,1.631Q100.727,56.687,101.548,56.1Z" transform="translate(-78.652 -40.265)"/><path class="a" d="M156.618,25.689l-.741-1.977c-.672.252-1.342.529-1.989.821l.87,1.923q.915-.413,1.86-.767Z" transform="translate(-126.638 -13.64)"/><path class="a" d="M186.988,16.353l-.471-2.057c-.7.159-1.4.345-2.085.552l.61,2.02C185.682,16.676,186.336,16.5,186.988,16.353Z" transform="translate(-153.152 -5.466)"/><path class="a" d="M218.583,11.207l-.2-2.1c-.707.065-1.427.157-2.139.273l.337,2.085c.66-.107,1.326-.194,2-.255Z" transform="translate(-180.77 -0.959)"/><path class="a" d="M127.98,39.006l-.994-1.862c-.633.338-1.26.7-1.865,1.078l1.118,1.791Q127.088,39.481,127.98,39.006Z" transform="translate(-101.666 -25.299)"/><path class="a" d="M249.6,10.11c.4,0,.811.006,1.213.02l.073-2.109c-.4-.015-.795-.022-1.192-.022-.323,0-.643,0-.963.013l.064,2.111c.266-.008.533-.013.8-.013Z" transform="translate(-208.964)"/><path class="a" d="M77.781,76.654l-1.442-1.542c-.516.482-1.028,1-1.523,1.525l1.543,1.441C76.821,77.582,77.3,77.1,77.781,76.654Z" transform="translate(-58 -58.258)"/></g></svg>