<svg xmlns="http://www.w3.org/2000/svg" xmlns:xlink="http://www.w3.org/1999/xlink" width="70" height="44" viewBox="0 0 70 44"><defs><style>.a{fill:rgba(0,0,0,0);}.a,.c{stroke:#370c60;}.b{clip-path:url(#a);}.c{fill:#370c60;}</style><clipPath id="a"><rect class="a" width="70" height="44" transform="translate(0.2 0)"/></clipPath></defs><g transform="translate(-0.179 0.01)"><g class="b" transform="translate(-0.021 -0.01)"><path class="c" d="M119.951,49.7c-1.381-2.88-6.322-6.876-11.1-10.738-2.663-2.152-5.178-4.187-6.782-5.791a1.466,1.466,0,0,0-1.534-.343c-.988.358-1.6.633-2.079.847a4.849,4.849,0,0,1-1.968.54,1.466,1.466,0,0,0-1.073.642c-2.073,3.1-4.22,2.836-5.654,2.355-.458-.152-.54-.349-.584-.537-.308-1.287,1.238-4.284,3.24-6.287,4.765-4.768,7.222-5.962,12.413-3.642,5.888,2.633,11.788,4.695,11.847,4.715a1.467,1.467,0,1,0,.965-2.771c-.059-.02-5.841-2.041-11.612-4.624-6.724-3.006-10.413-1.026-15.682,4.246-2.006,2.006-4.73,6.064-4.026,9.041a3.626,3.626,0,0,0,2.519,2.642c3.322,1.1,6.354.047,8.613-2.95a7.4,7.4,0,0,0,2.2-.7c.275-.123.6-.267,1.026-.44,1.677,1.575,3.941,3.407,6.325,5.334,4.311,3.486,9.2,7.439,10.3,9.727a1.718,1.718,0,0,1-.437,2.2,1.616,1.616,0,0,1-1.806.355,1.466,1.466,0,0,0-2.29,1.364,1.772,1.772,0,0,1-1.123,1.651,2.25,2.25,0,0,1-2.284.053,1.466,1.466,0,0,0-2.46.935,2.786,2.786,0,0,1-1.73,2.246,1.546,1.546,0,0,1-1.683-.261,1.483,1.483,0,0,0-1.34-.34,1.464,1.464,0,0,0-1.029.924c-.056.147-.182.5-1.554.5a8.442,8.442,0,0,1-3.592-1.229C94.95,58.686,88.5,53.871,82.921,49.2c-.783-.66-2.138-2.073-3.334-3.322-1.062-1.108-2.032-2.114-2.531-2.536a1.467,1.467,0,1,0-1.894,2.24c.455.384,1.334,1.314,2.3,2.325,1.308,1.367,2.66,2.78,3.569,3.542,5.46,4.572,12.023,9.507,13.33,10.366a11.249,11.249,0,0,0,5.2,1.707,5.046,5.046,0,0,0,3.328-.979,4.564,4.564,0,0,0,3.334-.035,5.775,5.775,0,0,0,3.053-2.818,5.671,5.671,0,0,0,3.68-.531,4.975,4.975,0,0,0,2.448-2.557,4.8,4.8,0,0,0,3.364-1.205,4.662,4.662,0,0,0,1.173-5.7" transform="translate(-64.371 -19.535)"/><path class="c" d="M121.328,42.659h-13.2a1.466,1.466,0,1,0,0,2.932h13.2a1.466,1.466,0,1,0,0-2.932" transform="translate(-91.993 -36.79)"/><path class="c" d="M391.781,192.624a1.463,1.463,0,0,0-2.035-.4l-4.287,2.88a1.466,1.466,0,0,0,1.636,2.434l4.287-2.88a1.468,1.468,0,0,0,.4-2.035" transform="translate(-331.905 -165.58)"/><path class="c" d="M299.189,190.426c-1.05-.827-5.745-5.633-8.648-8.659a1.466,1.466,0,1,0-2.117,2.029c.754.786,7.4,7.715,8.947,8.935a1.46,1.46,0,0,0,.906.314,1.482,1.482,0,0,0,1.155-.56,1.465,1.465,0,0,0-.243-2.059" transform="translate(-248.415 -156.385)"/><path class="c" d="M265.719,220.986c-1.756-1.4-6.17-6.094-7.167-7.178a1.467,1.467,0,0,0-2.161,1.985c.053.056,5.319,5.742,7.495,7.483a1.467,1.467,0,0,0,1.833-2.29" transform="translate(-220.805 -184.004)"/><path class="c" d="M223.086,242.316c-2.091-1.762-6.369-6.316-7.2-7.211a1.467,1.467,0,0,0-2.144,2c1.2,1.287,5.3,5.627,7.457,7.451a1.467,1.467,0,0,0,1.891-2.243" transform="translate(-184.007 -202.382)"/><path class="c" d="M17.137,3.333C14.624.952,4.574.18,1.554,0A1.465,1.465,0,0,0,0,1.465V27.856a1.467,1.467,0,0,0,1.466,1.466h8.8a1.465,1.465,0,0,0,1.393-1.012c.214-.657,5.267-16.163,5.932-23.787a1.459,1.459,0,0,0-.452-1.19M9.193,26.39H2.932V3.036c4.712.372,9.8,1.182,11.644,2.079C13.8,11.537,10.284,22.947,9.193,26.39" transform="translate(0.012 0.006)"/><path class="c" d="M382.055,21.326c-11.513,0-17.9,2.947-18.166,3.07a1.459,1.459,0,0,0-.783.912,1.479,1.479,0,0,0,.161,1.19c1.812,2.918,7.486,19.122,8.577,23.075a1.466,1.466,0,0,0,1.413,1.076h8.8a1.467,1.467,0,0,0,1.466-1.466V22.792a1.465,1.465,0,0,0-1.466-1.466m-1.466,26.391h-6.234c-1.39-4.528-5.5-16.333-7.785-21.213a47.755,47.755,0,0,1,14.02-2.229Z" transform="translate(-313.132 -18.389)"/></g></g></svg>