<?xml version="1.0" encoding="utf-8"?>
<!-- Generator: Adobe Illustrator 19.0.0, SVG Export Plug-In . SVG Version: 6.00 Build 0)  -->
<svg version="1.1" id="Layer_1" xmlns="http://www.w3.org/2000/svg" xmlns:xlink="http://www.w3.org/1999/xlink" x="0px" y="0px"
	 viewBox="0 0 921 603" style="enable-background:new 0 0 921 603;" xml:space="preserve">
<style type="text/css">
	.st0{fill:#FFFFFF;}
	.st1{fill:#0169B0;}
</style>
<rect x="340" y="536.1" class="st0" width="23.4" height="23.4"/>
<rect x="375.9" y="536.1" class="st0" width="23.4" height="23.4"/>
<rect x="415.9" y="536.1" class="st0" width="23.4" height="23.4"/>
<rect x="458.3" y="532.8" class="st0" width="23.4" height="23.4"/>
<rect x="506.5" y="541.4" class="st0" width="23.4" height="23.4"/>
<rect x="561.9" y="524.1" class="st0" width="23.4" height="23.4"/>
<rect x="617.4" y="543.8" class="st0" width="23.4" height="23.4"/>
<rect x="677.7" y="518.8" class="st0" width="23.4" height="23.4"/>
<rect x="755.2" y="552.9" class="st0" width="23.4" height="23.4"/>
<rect x="343.5" y="332.8" class="st0" width="9" height="64.2"/>
<path class="st0" d="M385,350.6c5.7,0,10,1.3,12.8,3.8c2.8,2.5,4.3,6.4,4.3,11.8V397h-6.3l-1.8-6.3h-0.3c-2,2.5-4,4.3-6.2,5.5
	c-2.2,1.2-5.2,1.7-9,1.7c-4.1,0-7.5-1.1-10.2-3.3c-2.7-2.2-4.1-5.7-4.1-10.4c0-4.7,1.8-8.2,5.3-10.6c3.5-2.4,8.9-3.7,16.1-3.9
	l7.8-0.3v-2.5c0-3.3-0.8-5.7-2.3-7.1c-1.5-1.4-3.7-2.1-6.4-2.1c-2.3,0-4.5,0.3-6.7,1c-2.1,0.7-4.2,1.5-6.2,2.5l-2.9-6.5
	c2.1-1.1,4.6-2.1,7.4-2.8C379,351,382,350.6,385,350.6 M393.2,375.1l-6.1,0.2c-5.2,0.2-8.8,1.1-10.8,2.6c-2,1.5-3,3.6-3,6.3
	c0,2.4,0.7,4.1,2.1,5.2c1.4,1.1,3.2,1.6,5.5,1.6c3.5,0,6.4-1,8.7-3c2.3-2,3.5-4.9,3.5-8.9V375.1z"/>
<path class="st0" d="M425.6,332.8v15.5c0,1.8,0,3.6-0.1,5.3c-0.1,1.7-0.2,3-0.3,3.9h0.4c1.3-1.9,3-3.5,5.2-4.8
	c2.2-1.3,5-1.9,8.5-1.9c5.5,0,9.9,2,13.2,5.9c3.4,3.9,5,9.8,5,17.6c0,7.8-1.7,13.7-5.1,17.7c-3.4,4-7.8,6-13.3,6
	c-3.5,0-6.3-0.6-8.5-1.9c-2.2-1.3-3.9-2.8-5.2-4.5H425l-1.7,5.6h-6.6v-64.2H425.6z M437.3,357.9c-4.3,0-7.4,1.3-9,3.8
	c-1.7,2.6-2.6,6.5-2.6,11.8v0.7c0,5.2,0.8,9.3,2.5,12c1.7,2.8,4.8,4.2,9.3,4.2c3.7,0,6.4-1.4,8.2-4.2c1.8-2.8,2.7-6.9,2.7-12.2
	C448.5,363.3,444.7,357.9,437.3,357.9"/>
<path class="st0" d="M510.1,374.2c0,7.6-1.9,13.4-5.8,17.5c-3.9,4.1-9.1,6.2-15.7,6.2c-4.1,0-7.8-0.9-10.9-2.7
	c-3.2-1.8-5.7-4.5-7.5-8c-1.8-3.5-2.7-7.8-2.7-12.9c0-7.5,1.9-13.4,5.7-17.4c3.8-4.1,9.1-6.1,15.7-6.1c4.2,0,7.8,0.9,11,2.7
	c3.2,1.8,5.7,4.5,7.5,8C509.1,364.8,510.1,369.1,510.1,374.2 M476.5,374.2c0,5.1,1,9.1,2.9,12c1.9,2.9,5,4.3,9.3,4.3
	s7.3-1.4,9.3-4.3c1.9-2.9,2.9-6.9,2.9-12c0-5.2-1-9.2-2.9-12c-1.9-2.8-5.1-4.2-9.3-4.2c-4.2,0-7.3,1.4-9.2,4.2
	C477.5,365,476.5,369,476.5,374.2"/>
<path class="st0" d="M544.7,350.6c1.8,0,3.5,0.1,5,0.4l-0.9,8.4c-1.5-0.4-3-0.6-4.6-0.6c-2.3,0-4.5,0.6-6.4,1.7
	c-2,1.1-3.6,2.7-4.8,4.9c-1.2,2.1-1.8,4.7-1.8,7.6v24h-9v-45.5h7.1l1.2,8.1h0.3c1.4-2.4,3.3-4.5,5.7-6.3
	C538.9,351.5,541.6,350.6,544.7,350.6"/>
<path class="st0" d="M575,350.6c5.7,0,10,1.3,12.8,3.8c2.8,2.5,4.3,6.4,4.3,11.8V397h-6.3l-1.8-6.3h-0.3c-2,2.5-4,4.3-6.2,5.5
	c-2.2,1.2-5.2,1.7-9,1.7c-4.1,0-7.5-1.1-10.2-3.3c-2.7-2.2-4.1-5.7-4.1-10.4c0-4.7,1.8-8.2,5.3-10.6c3.5-2.4,8.9-3.7,16.1-3.9
	l7.8-0.3v-2.5c0-3.3-0.8-5.7-2.3-7.1c-1.5-1.4-3.7-2.1-6.4-2.1c-2.3,0-4.5,0.3-6.7,1c-2.1,0.7-4.2,1.5-6.2,2.5l-2.9-6.5
	c2.1-1.1,4.6-2.1,7.4-2.8C569,351,571.9,350.6,575,350.6 M583.2,375.1l-6.1,0.2c-5.2,0.2-8.8,1.1-10.8,2.6c-2,1.5-3,3.6-3,6.3
	c0,2.4,0.7,4.1,2.1,5.2c1.4,1.1,3.2,1.6,5.5,1.6c3.5,0,6.4-1,8.7-3c2.3-2,3.5-4.9,3.5-8.9V375.1z"/>
<path class="st0" d="M623,390.6c2.5,0,4.8-0.4,6.8-1.1v6.8c-1,0.5-2.3,0.8-3.9,1.1c-1.6,0.3-3.3,0.5-4.9,0.5c-2.5,0-4.7-0.4-6.8-1.3
	c-2.1-0.8-3.7-2.3-4.9-4.4c-1.2-2.1-1.9-5-1.9-8.7v-25.2h-6.3v-4.1l6.7-3.4l3.1-9.6h5.5v10.2h13v6.8h-13v25c0,2.5,0.6,4.3,1.8,5.5
	C619.5,390,621.1,390.6,623,390.6"/>
<path class="st0" d="M680,374.2c0,7.6-1.9,13.4-5.8,17.5c-3.9,4.1-9.1,6.2-15.7,6.2c-4.1,0-7.8-0.9-10.9-2.7c-3.2-1.8-5.7-4.5-7.5-8
	c-1.8-3.5-2.7-7.8-2.7-12.9c0-7.5,1.9-13.4,5.7-17.4c3.8-4.1,9.1-6.1,15.7-6.1c4.2,0,7.8,0.9,11,2.7c3.2,1.8,5.7,4.5,7.5,8
	C679.1,364.8,680,369.1,680,374.2 M646.4,374.2c0,5.1,1,9.1,2.9,12c1.9,2.9,5,4.3,9.3,4.3s7.3-1.4,9.3-4.3c1.9-2.9,2.9-6.9,2.9-12
	c0-5.2-1-9.2-2.9-12c-1.9-2.8-5.1-4.2-9.3-4.2c-4.2,0-7.3,1.4-9.2,4.2C647.4,365,646.4,369,646.4,374.2"/>
<path class="st0" d="M714.6,350.6c1.8,0,3.5,0.1,5,0.4l-0.9,8.4c-1.5-0.4-3-0.6-4.6-0.6c-2.3,0-4.5,0.6-6.4,1.7
	c-2,1.1-3.6,2.7-4.8,4.9c-1.2,2.1-1.8,4.7-1.8,7.6v24h-9v-45.5h7.1l1.2,8.1h0.3c1.4-2.4,3.3-4.5,5.7-6.3
	C708.8,351.5,711.5,350.6,714.6,350.6"/>
<path class="st0" d="M733.5,334.1c1.4,0,2.5,0.4,3.5,1.2c1,0.8,1.5,2.1,1.5,4c0,1.8-0.5,3.1-1.5,3.9c-1,0.8-2.2,1.2-3.5,1.2
	c-1.4,0-2.6-0.4-3.6-1.2c-1-0.8-1.5-2.1-1.5-3.9c0-1.9,0.5-3.2,1.5-4C730.9,334.5,732.1,334.1,733.5,334.1 M737.9,397h-9v-45.5h9
	V397z"/>
<path class="st0" d="M792.9,374.2c0,7.6-1.9,13.4-5.8,17.5c-3.9,4.1-9.1,6.2-15.7,6.2c-4.1,0-7.8-0.9-10.9-2.7
	c-3.2-1.8-5.7-4.5-7.5-8c-1.8-3.5-2.7-7.8-2.7-12.9c0-7.5,1.9-13.4,5.7-17.4c3.8-4.1,9.1-6.1,15.7-6.1c4.2,0,7.8,0.9,11,2.7
	c3.2,1.8,5.7,4.5,7.5,8C792,364.8,792.9,369.1,792.9,374.2 M759.3,374.2c0,5.1,1,9.1,2.9,12c1.9,2.9,5,4.3,9.3,4.3s7.3-1.4,9.3-4.3
	c1.9-2.9,2.9-6.9,2.9-12c0-5.2-1-9.2-2.9-12c-1.9-2.8-5.1-4.2-9.3-4.2c-4.2,0-7.3,1.4-9.2,4.2C760.3,365,759.3,369,759.3,374.2"/>
<path class="st0" d="M835.3,384.1c0,4.5-1.6,7.9-4.9,10.2c-3.2,2.3-7.8,3.5-13.6,3.5c-3.2,0-6-0.2-8.2-0.7c-2.3-0.4-4.4-1.2-6.3-2.1
	v-7.9c2,1,4.3,1.8,7,2.6c2.7,0.8,5.3,1.1,7.8,1.1c3.4,0,5.8-0.5,7.3-1.6c1.5-1.1,2.2-2.5,2.2-4.3c0-1-0.3-1.9-0.8-2.7
	c-0.6-0.8-1.6-1.7-3.2-2.5c-1.6-0.9-3.8-1.9-6.8-3c-2.9-1.1-5.4-2.3-7.4-3.5c-2-1.2-3.5-2.6-4.6-4.2c-1.1-1.6-1.6-3.7-1.6-6.2
	c0-3.9,1.6-7,4.8-9.1c3.2-2.1,7.4-3.2,12.6-3.2c2.8,0,5.4,0.3,7.8,0.8c2.5,0.6,4.8,1.4,7.1,2.4l-3,6.8c-2-0.8-4-1.6-6.1-2.2
	c-2.1-0.6-4.2-0.9-6.3-0.9c-5.5,0-8.3,1.6-8.3,4.8c0,1.1,0.3,2,1,2.8c0.6,0.8,1.8,1.6,3.4,2.4c1.6,0.8,3.8,1.7,6.7,2.9
	c2.8,1.1,5.1,2.2,7.1,3.3c2,1.2,3.5,2.6,4.6,4.2C834.8,379.6,835.3,381.7,835.3,384.1"/>
<path class="st0" d="M359.1,493.8c-5.5,0-9.9-2-13.3-5.9c-3.3-3.9-5-9.8-5-17.6c0-7.8,1.7-13.7,5.1-17.7c3.4-4,7.8-6,13.4-6
	c3.4,0,6.3,0.6,8.5,1.9c2.2,1.3,4,2.9,5.3,4.7h0.5c-0.1-0.8-0.3-1.9-0.4-3.5c-0.2-1.5-0.3-2.8-0.3-4v-17.1h9V493h-7l-1.5-6.1h-0.4
	c-1.3,1.9-3,3.5-5.2,4.9C365.5,493.2,362.6,493.8,359.1,493.8 M361.3,486.5c4.4,0,7.5-1.2,9.3-3.6c1.8-2.4,2.7-6.1,2.7-11.1v-1.4
	c0-5.4-0.9-9.4-2.6-12.3c-1.7-2.8-4.9-4.2-9.5-4.2c-3.7,0-6.4,1.5-8.3,4.4c-1.9,2.9-2.8,7-2.8,12.2c0,5.1,0.9,9.1,2.8,11.8
	C354.8,485.1,357.5,486.5,361.3,486.5"/>
<path class="st0" d="M413.8,446.6c6,0,10.7,1.8,14.1,5.5c3.4,3.7,5.2,8.7,5.2,15.1v4.9h-30.6c0.1,4.7,1.3,8.3,3.7,10.7
	c2.3,2.5,5.6,3.7,9.8,3.7c2.9,0,5.5-0.3,7.8-0.8c2.3-0.5,4.6-1.3,7.1-2.4v7.4c-2.3,1.1-4.6,1.8-6.9,2.3c-2.3,0.5-5.1,0.7-8.3,0.7
	c-4.4,0-8.3-0.9-11.7-2.6c-3.4-1.7-6-4.3-7.9-7.8c-1.9-3.4-2.8-7.7-2.8-12.8c0-5.1,0.9-9.5,2.6-13c1.7-3.5,4.1-6.3,7.2-8.2
	C406.1,447.5,409.7,446.6,413.8,446.6 M413.8,453.5c-3.2,0-5.8,1-7.7,3.1c-1.9,2.1-3.1,5-3.4,8.9h21.5c-0.1-3.5-0.9-6.4-2.6-8.7
	C419.9,454.6,417.3,453.5,413.8,453.5"/>
<path class="st0" d="M483.9,446.6c5.7,0,10,1.3,12.8,3.8c2.8,2.5,4.3,6.4,4.3,11.8V493h-6.3l-1.8-6.3h-0.3c-2,2.5-4,4.3-6.2,5.5
	c-2.2,1.2-5.2,1.7-9,1.7c-4.1,0-7.5-1.1-10.2-3.3c-2.7-2.2-4.1-5.7-4.1-10.4c0-4.7,1.8-8.2,5.3-10.6c3.5-2.4,8.9-3.7,16.1-3.9
	l7.8-0.3v-2.5c0-3.3-0.8-5.7-2.3-7.1c-1.5-1.4-3.7-2.1-6.4-2.1c-2.3,0-4.5,0.3-6.7,1c-2.1,0.7-4.2,1.5-6.2,2.5l-2.9-6.5
	c2.1-1.1,4.6-2.1,7.4-2.8C477.9,447,480.8,446.6,483.9,446.6 M492.1,471.1l-6.1,0.2c-5.2,0.2-8.8,1.1-10.8,2.6c-2,1.5-3,3.6-3,6.3
	c0,2.4,0.7,4.1,2.1,5.2c1.4,1.1,3.2,1.6,5.5,1.6c3.5,0,6.4-1,8.7-3c2.3-2,3.5-4.9,3.5-8.9V471.1z"/>
<path class="st0" d="M533,493.8c-6.3,0-11.4-1.9-15.2-5.6c-3.8-3.7-5.7-9.6-5.7-17.7c0-5.6,0.9-10.2,2.8-13.7
	c1.9-3.5,4.4-6.1,7.7-7.7c3.3-1.7,7-2.5,11.2-2.5c2.5,0,4.9,0.3,7.1,0.8c2.2,0.5,4.1,1.1,5.5,1.9l-2.7,7.3c-1.6-0.6-3.2-1.1-5-1.6
	c-1.7-0.5-3.4-0.7-5.1-0.7c-8.2,0-12.3,5.4-12.3,16.2c0,5.2,1,9.1,3,11.8c2,2.7,5,4.1,9,4.1c2.5,0,4.7-0.3,6.7-0.8
	c2-0.6,3.8-1.3,5.4-2.2v7.8c-1.6,1-3.4,1.7-5.3,2.1C538.1,493.6,535.8,493.8,533,493.8"/>
<path class="st0" d="M574,446.6c6,0,10.7,1.8,14.1,5.5c3.4,3.7,5.2,8.7,5.2,15.1v4.9h-30.6c0.1,4.7,1.3,8.3,3.7,10.7
	c2.3,2.5,5.6,3.7,9.8,3.7c2.9,0,5.5-0.3,7.8-0.8c2.3-0.5,4.6-1.3,7.1-2.4v7.4c-2.3,1.1-4.6,1.8-6.9,2.3c-2.3,0.5-5.1,0.7-8.3,0.7
	c-4.4,0-8.3-0.9-11.7-2.6c-3.4-1.7-6-4.3-7.9-7.8c-1.9-3.4-2.8-7.7-2.8-12.8c0-5.1,0.9-9.5,2.6-13c1.7-3.5,4.1-6.3,7.2-8.2
	C566.3,447.5,569.9,446.6,574,446.6 M574,453.5c-3.2,0-5.8,1-7.7,3.1c-1.9,2.1-3.1,5-3.4,8.9h21.5c-0.1-3.5-0.9-6.4-2.6-8.7
	C580.1,454.6,577.5,453.5,574,453.5"/>
<rect x="604.4" y="428.8" class="st0" width="9" height="64.2"/>
<path class="st0" d="M645.3,446.6c6,0,10.7,1.8,14.1,5.5c3.4,3.7,5.2,8.7,5.2,15.1v4.9H634c0.1,4.7,1.3,8.3,3.7,10.7
	c2.3,2.5,5.6,3.7,9.8,3.7c2.9,0,5.5-0.3,7.8-0.8c2.3-0.5,4.6-1.3,7.1-2.4v7.4c-2.3,1.1-4.6,1.8-6.9,2.3c-2.3,0.5-5.1,0.7-8.3,0.7
	c-4.4,0-8.3-0.9-11.7-2.6c-3.4-1.7-6-4.3-7.9-7.8c-1.9-3.4-2.8-7.7-2.8-12.8c0-5.1,0.9-9.5,2.6-13c1.7-3.5,4.1-6.3,7.2-8.2
	C637.6,447.5,641.2,446.6,645.3,446.6 M645.3,453.5c-3.2,0-5.8,1-7.7,3.1c-1.9,2.1-3.1,5-3.4,8.9h21.5c-0.1-3.5-0.9-6.4-2.6-8.7
	C651.4,454.6,648.8,453.5,645.3,453.5"/>
<path class="st0" d="M698.2,446.6c1.8,0,3.5,0.1,5,0.4l-0.9,8.4c-1.5-0.4-3-0.6-4.6-0.6c-2.3,0-4.5,0.6-6.4,1.7
	c-2,1.1-3.6,2.7-4.8,4.9c-1.2,2.1-1.8,4.7-1.8,7.6v24h-9v-45.5h7.1l1.2,8.1h0.3c1.4-2.4,3.3-4.5,5.7-6.3
	C692.4,447.5,695.1,446.6,698.2,446.6"/>
<path class="st0" d="M727.6,446.6c5.7,0,10,1.3,12.8,3.8c2.8,2.5,4.3,6.4,4.3,11.8V493h-6.3l-1.8-6.3h-0.3c-2,2.5-4,4.3-6.2,5.5
	c-2.2,1.2-5.2,1.7-9,1.7c-4.1,0-7.5-1.1-10.2-3.3c-2.7-2.2-4.1-5.7-4.1-10.4c0-4.7,1.8-8.2,5.3-10.6c3.5-2.4,8.9-3.7,16.1-3.9
	l7.8-0.3v-2.5c0-3.3-0.8-5.7-2.3-7.1c-1.5-1.4-3.7-2.1-6.4-2.1c-2.3,0-4.5,0.3-6.7,1c-2.1,0.7-4.2,1.5-6.2,2.5l-2.9-6.5
	c2.1-1.1,4.6-2.1,7.4-2.8C721.7,447,724.6,446.6,727.6,446.6 M735.8,471.1l-6.1,0.2c-5.2,0.2-8.8,1.1-10.8,2.6c-2,1.5-3,3.6-3,6.3
	c0,2.4,0.7,4.1,2.1,5.2c1.4,1.1,3.2,1.6,5.5,1.6c3.5,0,6.4-1,8.7-3c2.3-2,3.5-4.9,3.5-8.9V471.1z"/>
<path class="st0" d="M776.8,493.8c-6.3,0-11.4-1.9-15.2-5.6c-3.8-3.7-5.7-9.6-5.7-17.7c0-5.6,0.9-10.2,2.8-13.7
	c1.9-3.5,4.4-6.1,7.7-7.7c3.3-1.7,7-2.5,11.2-2.5c2.5,0,4.9,0.3,7.1,0.8c2.2,0.5,4.1,1.1,5.5,1.9l-2.7,7.3c-1.6-0.6-3.2-1.1-5-1.6
	c-1.7-0.5-3.4-0.7-5.1-0.7c-8.2,0-12.3,5.4-12.3,16.2c0,5.2,1,9.1,3,11.8c2,2.7,5,4.1,9,4.1c2.5,0,4.7-0.3,6.7-0.8
	c2-0.6,3.8-1.3,5.4-2.2v7.8c-1.6,1-3.4,1.7-5.3,2.1C781.9,493.6,779.6,493.8,776.8,493.8"/>
<path class="st0" d="M804.5,430.1c1.4,0,2.5,0.4,3.5,1.2c1,0.8,1.5,2.1,1.5,4c0,1.8-0.5,3.1-1.5,3.9c-1,0.8-2.2,1.2-3.5,1.2
	c-1.4,0-2.6-0.4-3.6-1.2c-1-0.8-1.5-2.1-1.5-3.9c0-1.9,0.5-3.2,1.5-4C801.8,430.5,803,430.1,804.5,430.1 M808.8,493h-9v-45.5h9V493z
	"/>
<path class="st0" d="M863,470.2c0,7.5-1.9,13.4-5.8,17.5c-3.9,4.1-9.1,6.2-15.7,6.2c-4.1,0-7.8-0.9-10.9-2.7c-3.2-1.8-5.7-4.5-7.5-8
	c-1.8-3.5-2.7-7.8-2.7-12.9c0-7.5,1.9-13.4,5.7-17.4c3.8-4.1,9.1-6.1,15.7-6.1c4.2,0,7.8,0.9,11,2.7c3.2,1.8,5.7,4.5,7.5,8
	C862.1,460.8,863,465.1,863,470.2 M829.5,470.2c0,5.1,1,9.1,2.9,12c1.9,2.9,5,4.3,9.3,4.3c4.2,0,7.3-1.4,9.3-4.3
	c1.9-2.9,2.9-6.9,2.9-12c0-5.2-1-9.2-2.9-12c-1.9-2.8-5.1-4.2-9.3-4.2c-4.2,0-7.3,1.4-9.2,4.2C830.4,461,829.5,465,829.5,470.2
	 M854.8,428.3v0.8c-0.8,1-2,2.3-3.6,3.9c-1.6,1.6-3.2,3.2-4.9,4.8c-1.7,1.6-3.3,2.9-4.6,3.9h-5.9v-1c0.8-1,1.8-2.3,2.9-3.8
	c1.1-1.5,2.1-3,3.1-4.6c1-1.5,1.8-2.9,2.6-4.2H854.8z"/>
<path class="st0" d="M897.4,446.6c5.3,0,9.4,1.3,12.2,4c2.8,2.6,4.2,6.9,4.2,12.8V493h-8.9v-28.4c0-7.1-3.1-10.6-9.4-10.6
	c-4.6,0-7.8,1.4-9.6,4.1c-1.8,2.8-2.7,6.7-2.7,11.9v23h-9v-45.5h7.1l1.3,6.1h0.5c1.5-2.4,3.5-4.1,6-5.2
	C891.8,447.2,894.5,446.6,897.4,446.6"/>
<rect x="10" y="308.3" class="st0" width="139.6" height="139.6"/>
<path class="st1" d="M111.7,357.8c0,8.4-2.6,15.2-7.4,20.1c-6.5,6.8-16.8,10.4-28.5,10.4c-3.6,0-6.8,0-9.7-1v37.2h-12v-92
	c5.8-1,13.3-1.9,23-1.9c12,0,20.7,2.9,26.2,7.8C108.5,342.6,111.7,349.4,111.7,357.8z M99.7,359.1c0-12.3-8.7-18.5-22-18.5
	c-5.2,0-9.4,0.6-11.3,1v36.3c2.6,0.6,6.2,1,10,1C91,378.9,99.7,371.8,99.7,359.1z"/>
<rect x="158.4" y="308.3" class="st0" width="139.6" height="139.6"/>
<path class="st1" d="M204.7,424.9V385c0-15.5,0-26.6-1-38.5h0.3c4.5,10,10.7,20.7,17.2,31.1l29.5,47.3H263v-93.3h-11.3v39.2
	c0,14.3,0.3,25.6,1.3,38.2h-0.3c-4.2-9.7-9.7-19.4-16.5-30.1l-29.8-47.3H193v93.3H204.7z"/>
<rect x="10" y="456" class="st0" width="139.6" height="139.6"/>
<path class="st1" d="M45.3,479V534c0,29.2,14.3,39.8,33.4,39.8c20.1,0,35.3-11.7,35.3-40.2v-54.4h-12.3v55.4
	c0,20.4-9.1,29.5-22.7,29.5c-12.3,0-21.7-8.7-21.7-29.5v-55.4h-12V479z"/>
<rect x="158.4" y="456" class="st0" width="139.6" height="139.6"/>
<path class="st1" d="M269.8,523c0,15.2-4.9,27.5-13.3,36.3c-8.7,8.7-23.3,13.3-41.5,13.3c-8.7,0-15.9-0.3-22-1v-92
	c7.4-1,16.2-1.9,25.6-1.9c17.2,0,29.5,3.9,37.9,11.3C264.9,496.8,269.8,507.8,269.8,523z M257.1,523.3c0-22.3-12.3-36-37.9-36
	c-6.2,0-11,0.6-14.3,1.3v73.9c2.9,0.6,7.4,0.6,12.3,0.6C243.2,563.2,257.1,548.6,257.1,523.3z"/>
<rect x="10" y="11.6" class="st0" width="288" height="288"/>
<g>
	<g>
		<path class="st1" d="M227.3,216.9c-6.5,1.6-13.6,2.3-20.1,4.5c11-9.4,10.4-23.6,17.5-34.7c2.3-3.2,4.2-6.5,6.8-9.4
			c-4.5,8.7-2.6,20.4-7.4,28.8c-1.9,3.6-4.9,6.8-7.8,9.4c1,0,1.9-1,2.9-1.6c8.1-8.1,19.1-10.4,27.9-17.2c3.6-2.9,6.8-6.5,8.4-10.7
			C253.9,200.1,240.3,212.7,227.3,216.9z"/>
		<g>
			<path class="st1" d="M257.1,161.5c-3.9,5.8-9.1,11-12.6,16.8c0.3-4.5,1-10.4-1-14.6c-3.2-9.4-5.8-19.1-6.8-29.2v-3.9
				c2.3,10.7,12.6,17.8,12,29.8c0.3,2.9-0.6,5.2-1.3,7.8l0.3,0.3l0.3-0.6c1.6-5.8,2.3-12,4.5-17.2c3.6-7.8,7.8-15.5,5.8-24.9
				C264.3,136.3,262.7,151.2,257.1,161.5z"/>
			<path class="st1" d="M250.7,101.9c6.8,9.1,8.4,24,3.2,34.3c-1.9,4.5-3.2,9.4-3.9,14.3c-0.3-1-0.3-1.9-0.6-2.9
				c-2.6-10.4-12.6-17.8-16.5-27.5c-1.3-3.2-2.3-6.5-2.9-10c4.2,8.1,14.9,12,17.8,20.7c1.3,2.3,1,4.9,1.9,7.4c0,0,0.3,0,0.3-0.3
				c-1.3-9.1-1-18.5,0.3-27.5c0-4.9-0.6-9.4-3.2-13.3C248.7,98.4,249.7,100.3,250.7,101.9z"/>
			<path class="st1" d="M245.8,100c1.9,8.1-1,15.9,1,24l0,0c-4.5-8.7-13.6-12.6-20.1-19.8c-3.6-4.2-5.2-9.1-6.2-14.3
				c3.6,8.7,13.6,10.7,19.4,18.1c1.9,1.6,2.6,4.2,3.9,6.2l0.3-0.3c-3.2-7.1-4.2-14.9-6.5-22.3c-1.3-3.2-3.6-6.5-6.5-8.4
				C238,85.1,244.5,92.9,245.8,100z"/>
			<path class="st1" d="M226,81.5c5.5,5.2,8.1,11.7,9.7,18.5l1,2.3c-8.1-5.8-15.5-13.9-20.7-22l-6.5-6.5
				C215,75.7,221.2,77.3,226,81.5z"/>
			<path class="st1" d="M96.8,74.4c-5.5,4.9-9.7,11.3-13.6,17.2c-3.9,4.5-8.4,7.8-13,11.7c2.3-4.9,2.3-10.4,5.5-14.9
				C80.6,80.2,89.4,77.6,96.8,74.4z"/>
			<path class="st1" d="M66,91.9c2.6-3.6,6.2-5.8,10-6.8c-7.4,5.2-7.1,14.6-9.4,22.3c-0.6,2.9-2.3,5.5-2.9,8.4h0.3
				c1.3-3.2,3.6-6.5,6.2-9.1c5.5-4.9,13.3-8.1,16.2-15.5c0,10.4-8.7,18.5-16.8,24c-3.2,2.9-6.5,6.5-8.4,10c-0.3-2.6,0.3-5.2,0.3-8.1
				C60.2,108.7,59.6,98.4,66,91.9z"/>
			<path class="st1" d="M50.8,122.3c-0.3-9.1,3.6-16.5,8.7-23.3l0.3-0.3c-5.8,8.7-1,20.1-1.3,30.1l-0.6,10.7c0,0,0,0.3,0.3,0.3
				c0.3-1.3,0.3-2.3,0.6-3.6c1.3-8.4,8.7-14.3,14.9-20.1c1.3-1.6,2.6-2.9,3.2-4.9c-0.6,4.2-1.9,8.4-3.6,12.3
				c-4.9,9.7-13.9,17.5-15.5,28.5C57,141.5,49.8,133.7,50.8,122.3z"/>
			<path class="st1" d="M46.3,135.3c0.6-2.9,1.3-5.8,2.3-8.4c-2.3,12,5.8,20.7,8.4,31.1c1,3.9,1.3,8.1,2.9,11.7c0,0,0.3,0,0.3-0.3
				c-3.9-11,1.6-21.4,7.4-29.8c1.3-2.3,2.3-4.9,2.9-7.8c0.6,4.9-0.6,10.7-1.3,15.9c-1.3,6.5-3.6,13-5.2,19.1
				c-1.3,3.9-1,8.4-0.3,12.6l-0.6-0.3c-4.2-7.8-12.6-13.6-14.9-22.3C46.3,150.5,45,142.8,46.3,135.3z"/>
			<path class="st1" d="M46,158.6c1,12.6,14.6,19.4,21.1,29.8c1.6,2.3,2.9,4.5,4.9,6.5c-0.3-1.3-1.6-2.6-1.9-3.9
				c-2.3-4.5-2.9-9.7-2.6-14.9c0.6-6.5,3.2-12.6,2.3-19.4c5.5,12,3.9,26.9,7.1,39.8c0.6,2.9,2.6,5.5,3.6,8.1
				c-11.3-7.8-26.9-15.2-32.1-29.5C45.6,170.3,45.3,164.5,46,158.6z"/>
			<path class="st1" d="M52.8,187.8c6.5,14.6,22.3,15.5,33,24.3c1.9,1.6,3.9,3.2,6.2,4.2l0,0c-2.6-2.3-5.2-4.9-7.1-7.8
				c-6.2-8.7-4.2-21.1-8.7-30.4c4.2,5.2,8.1,10.4,10.7,16.2c3.9,9.4,5.2,20.1,14.3,27.2c-9.7-3.2-20.7-2.3-29.2-8.1
				C62.8,208.2,54.4,198.5,52.8,187.8z"/>
			<path class="st1" d="M69,214.7c10.4,11.7,26.9,7.8,40.5,10.7c1.9,0.3,3.6,1,5.8,0.6c-1.6-1-3.9-1-5.5-1.9
				c-10.7-3.9-12.3-15.2-18.1-23c7.4,4.9,13.6,11.7,20.4,17.8c4.9,4.2,10.7,6.2,17.2,7.4c-1.6,0.6-3.6,0.3-5.2,0.6
				c-11,2.9-23.6,7.1-35.6,3.2C80.9,228.6,72.8,222.4,69,214.7z"/>
			<path class="st1" d="M207.9,241.9c-11.7,4.2-23.6-0.3-32.7-7.1c-3.6-2.3-6.8-5.5-11.7-5.2c-1.6,0-3.2,0-4.9,0.3
				c8.7,4.2,16.8,9.7,24.3,16.8c-1.3,1.3-2.9,2.9-4.5,3.9c-7.1-7.8-15.2-15.2-24-19.4c-1.6,0.3-3.2,1.3-4.9,2.3
				c-7.1,4.5-14.3,10.4-19.8,17.5l-4.5-3.9c7.4-7.4,15.5-13.3,24.3-17.5c-8.7-2.9-14.6,4.5-21.1,8.4c-7.8,5.5-18.8,8.1-28.2,4.2
				c-5.2-1.9-10-4.9-13.6-9.4c7.4,5.2,18.5,5.5,26.9,2.3c11.3-4.9,23-11,36.6-8.1c2.3,0,4.2,2.3,6.2,0.3c10-2.6,21.4-0.6,30.1,3.9
				l9.1,3.6c8.4,2.9,19.1,2.3,26.2-2.9C218,236.7,213.1,239.9,207.9,241.9z"/>
			<path class="st1" d="M220.2,229.9c-13,4.9-25.9-1-38.2-3.2h-2.6l0,0c5.8-1.3,11.7-3.2,16.5-7.4c6.8-6.8,13.3-13.6,20.7-18.8
				c-5.8,7.4-6.5,17.8-15.9,22.3c-2.3,1.6-5.2,1.9-7.8,2.9c3.6,0,6.5-1.3,10-1.6c12.6-1.9,27.2,0,36-10.7
				C236.1,221.1,227.7,227.3,220.2,229.9z"/>
			<path class="st1" d="M243.9,193.6c-5.2,3.2-10.4,6.5-15.2,10.4v-0.3c7.4-12.6,3.9-29.8,8.4-43.4l1.6-4.5
				c-1,8.4,2.9,15.9,2.6,24.3c-0.3,5.2-1.9,9.7-4.5,13.9h0.3c3.6-4.9,6.5-10,11-14.6c6.8-6.5,13.6-13,14.3-22
				C264.6,171.9,256.2,185.2,243.9,193.6z"/>
		</g>
		<path class="st1" d="M223.1,110.7C210.5,83.8,183,67,153.8,67c-12.6,0.3-24.3,2.9-35,8.4c-18.8,9.1-34,28.5-39.2,47.9
			c-8.4,32.7,2.9,65.8,31.1,85.2c20.1,14.6,52.5,17.2,75.1,6.2c20.1-8.4,37.2-29.2,42.8-49.9C233.5,147.3,231.2,126.2,223.1,110.7z
			 M227,137.9c0.3,1.3,0,2.9,0.6,3.9l-11,0.3c-0.3,0.3-0.6,0.3-1,0.3l0.3-0.3c-0.3-8.7-2.6-16.5-5.8-24c0-3.2-3.2-5.5-4.5-8.4
			c-2.6-1.6-3.2-4.5-5.8-6.2c-0.6-0.6-0.6-1.6-1.6-1.6l1.3-0.3c2.6-2.6,5.5-5.5,7.8-8.1C218.3,106.1,225.4,120.7,227,137.9z
			 M195.6,179.4c-1-1-1-2.6-2.6-2.6c-0.6,0-1,0.3-1,1c0,0.3,0,0.6,0,0.6l-3.6-2.9c1.6-1,2.9-2.9,4.2-4.5c3.2-4.5,5.2-9.4,6.8-14.6
			c0.6,0.3,1.3,0.3,1.6,0c0.6-0.3,0.6-1.3,0.3-1.6l-1.3-1.3c0-2.3,0.6-4.5,0.6-6.8l1,0.3c3.6,0,7.1,0.3,10.7,0l-0.6,0
			c-1,13.9-5.8,26.2-15.5,36.6C196.6,181.9,195.6,181,195.6,179.4z M186.5,190.7c-1.9-1.9,1.3-3.2,1.9-5.2c-0.3-1.9-2.3-2.9-3.9-3.2
			c-0.6-0.3-0.6-1.3-0.6-1.9c0.6-0.6,1.3-1.3,1.6-2.3l0.3,0.6l4.9,4.9c0,1,0.3,1.9,1.3,2.6c0.6,0.3,1-0.3,1.6,0h-0.3
			c-1.9,2.3-4.5,3.9-6.8,5.8l-0.6,0.6C185.6,191.7,187.2,191.3,186.5,190.7z M165.2,131.1c-0.6,0.3-1.3,0.6-1.9,0.3
			c-0.6-0.6-1.6-1.6-2.6-1.6c-0.6,0.3-1.3,1-2.3,0.6c1.3-1.6,3.9-1.6,4.9-3.9c0.3-1,0.6-1.9,0.3-2.9c-0.3-0.3-1-1-1.6-0.3
			c-0.6,1.3-2.6,1.6-3.2,2.9l-2.9-1c-0.3-2.6,0.3-5.8-0.6-8.1c1.6,0.6,2.9,0.6,4.5,1c3.9,1,7.4,2.9,11,4.9c-0.6,0.3-1.6,1.3-2.3,1.9
			c0,0.6,0.6,0.6,1,1l0.6-0.3C169.7,128.2,165.5,127.9,165.2,131.1z M168.4,162.8c0,1.3-1.9,1.3-2.9,2.3c-0.6-0.3,0-0.6,0-1
			C166.4,163.5,167.1,162.5,168.4,162.8z M190.1,125.9c1.3,0.3,1.9,1.6,3.2,1.9c1.3,1.6,1.6,3.9,2.3,5.8c-1,1.3-1,3.9-3.2,3.2
			c-0.6-1.3,1-1.9,0.6-3.2c0.3-0.3,1-0.3,1-1c0-1.3-1.6-1-1.6-2.3c-0.3-0.6-1.3-0.6-1.9-0.6c-1.6-0.6-2.9,2.9-3.2,0
			c0.3-0.3,0.6-1,0.3-1.6c-1.3-0.6-1.3-2.6-2.9-3.2c-1.9,0-3.6-0.6-5.5-0.3c-1.3-0.3-2.6-1-3.6,0.3c0,1-0.6,1.6-0.6,2.6
			c-0.3-0.3-1-0.6-1-1c3.2-3.9,7.1-7.4,10.7-11.3l0.3-0.3c1.6,2.3,3.9,4.5,5.2,6.8C190.4,123.6,187.5,124.9,190.1,125.9z
			 M196.9,146.3c-0.6,1.9-0.6,4.5-1,6.5c0,0.3,0,0.6-0.3,1c-0.6-1.3-1.3-2.9-2.6-3.9c-1.3-0.6-0.3-2.3-1.6-3.2l-1.6-0.6
			C191.7,146.6,194.6,146.6,196.9,146.3z M180.7,113.9c-1.9,2.3-4.5,4.5-6.5,6.8l-0.3-0.6c-4.9-4.5-10.7-6.5-17.2-7.4l-1,0.3v-10.4
			l-0.3-1c4.2,0.6,8.4,1.3,12.3,2.6c4.9,1.6,9.7,4.5,13.9,8.1l1,0.3L180.7,113.9z M170.3,170.6c3.2,0.3,6.5,1,9.7,2.3
			c0.6,0,1.6,0,2.3-0.6c-0.3-1.3,1.3-1.9,1.3-3.2c0.6-1,0.3-2.6,1-3.6c0-1.3,0-2.9-1-3.9c-1-0.6-1.6,0-2.3,0.3
			c-1,0.6-0.6,2.6-2.3,2.3c-0.3,0.6-1,0.6-1.6,0.3c0-0.3-0.3-0.3-0.3-0.3c1.3-0.6,3.2-0.3,3.2-1.9c1-0.6,2.3-0.3,2.9-1.3
			c0.6-1,1-1.6,1.6-2.6c0-0.3,0.3-0.6,0.3-1.3c0.3,0.6,0.3,1.3,1,1.6c1,0.3,1.3-0.3,1.6-1c0-0.3,0.3-0.6,0.6-0.3
			c1,0.6,2.3,0,3.6,0.3c1-0.3,1.9-0.6,2.9-0.6c-1,4.2-3.2,8.1-5.5,12c-1,1.3-1.9,2.6-2.9,3.6c-0.3-1-0.3-1.9-1-2.9h-0.3
			c-1.3,1.3-2.6,2.3-2.6,3.6c-1,1.3-3.2,0.3-4.5,1c-1.6,0.6-2.6-1-3.9-1.6c-1.6-0.6-3.2-0.6-4.5-1.3
			C169.7,170.9,170,170.9,170.3,170.6z M163.2,71.8c15.2,2.3,29.2,8.1,40.8,19.1l-1.3,0.6c-2.3,2.3-4.5,4.2-5.8,6.8
			c0-0.6-1.3-1.3-1.6-1.9c-0.3-2.3-2.3-4.2-4.2-5.2c-1.6-0.3-1.9-2.6-3.6-1.9c-1.6-1.3-3.6-0.3-4.9,0.3V90
			c-7.4-4.2-15.5-6.8-24.3-7.4c-0.3,0-0.6,0.3-1,0.3c0.3-0.3,0.3-1.3,0.3-1.6c-0.3-0.3-0.6-1-1.3-0.6c-0.3,0.3-0.3,0.6-0.3,1
			c0.3-3.6,0.3-7.4,0-10.7C158,71.5,160.6,71.2,163.2,71.8z M160,87c6.8,0.6,12.6,2.6,18.8,5.2c1,1.3,2.6,1.9,2.9,3.6
			c-1,2.3,3.2,2.3,1.3,4.5c0,0.6,0.6,1.3,0.6,1.6c0.3,0.6,0,1.6,0.6,1.9c1.3,0.3,1.9-1.6,3.2-1c1.9,1.3,2.3,3.6,2.3,5.5
			c0.3,1.3,1.3,2.3,2.3,2.6c2.3-0.6,1.3,1.9,2.9,2.6c1.6,0.3,2.6,2.6,4.5,2.3c1.6,1.3,2.6,3.2,4.2,4.5c0,0.3,0,0.6,0.3,0.6
			c1,0.3,1.6-0.3,2.3-0.3c2.9,6.2,4.5,12.6,4.9,19.8l0.3,0.6c-3.6,0-7.4,0-11.3,0.3c0-2.3,0-4.5-1.3-6.2c0.6-1.3,0.6-2.6,0.6-3.9
			c-0.3-0.6-0.6,0-1,0c-1.3,1.3-1.3,2.9-1.9,4.2c-1,1.6-1.3,3.9-0.6,5.5l0.3,0.3H192c1-0.6-1-1.9,0-2.9l1.9-0.3
			c0.6-1.3,2.3-2.6,2.3-4.2c1-1,1.6-2.3,1-3.9c-1-2.3,1.6-4.2-0.3-6.2c0.3-0.6-0.3-1.3-1-1.3c-0.6-0.3-1.3,0-1.3-1
			c0.3-0.6,1.3-1,1-1.9c-0.3-0.6-1.3,0-1.6,0c0-1,1.6-1.9,0-2.9c-1-0.3-1.6,1-2.6,0.6c-0.3-0.3-0.6-1-0.3-1.6l-2.3-2.9
			c-0.3-0.3-1,0-1-0.3c0-2.3-2.6-3.6-2.9-5.8c-1-0.6,0-2.3-1.3-2.9c-0.6-0.3-1.3-1-2.3-0.6c-1-1.3-1.9-2.6-3.2-3.9
			c-0.3,0-0.6,0-1,0.3c0.3,1,1.6,1.6,1.3,2.9c-0.3,0-0.3,0-0.3,0c0,1,1,1.9,1.6,2.9c-6.2-4.5-13.3-7.1-20.7-8.4
			c-1.6,0-2.9-0.6-4.5,0c0.3-3.2,0-7.1,0.3-10.7l-0.3-0.6C157.1,87,158.4,86.7,160,87z M153.5,131.4l0.6,0.3c-0.6,0-1.6-0.3-2.3,0
			c-0.3,0.3,0,1,0,1.3c1.3,0.6,1.6,2.9,3.6,1.9c0.6,0,1.6,0.3,1.9,1.3c1,0.3,1.3,2.3,2.9,1.9c0,0.6-0.3,1.9,0.6,2.6
			c-0.3,0.6-1,1-1,1.6c-0.3,0.3-0.3,0.6,0,1c1.3,0,1.3,1.6,1.9,2.6c-0.3,1,0,2.3,1,2.9c0,1.3-0.6,2.3-1.3,3.6
			c-1.6,0.6-3.9-1-4.5,1.6c-1,1,0,2.9-1.6,2.9c-3.2,0.3-6.2-0.3-8.4-2.3c1.6-0.6,4.2,0.3,4.9-1.9c0.3-0.3,0.6-1,0.3-1.6
			c0.6-0.6,1-1.6,1.3-2.6c-0.6-0.6-0.3-1-0.3-1.6c-1.6-1.6-3.6-0.6-5.8-0.6c-1.3,0.6,0,1.9-1,2.9c-1.6,0.3-1.6,1.6-2.6,2.6
			c-0.6-0.3-1-1-1-1.6h0.3c0,0.3,0,0.6,0.3,0.6c1.6,0.3,1-1.3,1.6-2.3c0.3-1,2.3-2.3,0.6-2.9c0-0.3,0.3-1-0.3-1
			c-0.6,0.3-1.3,0.3-1.6,1c0.3,0.6,0,1.3-0.6,1.9h-0.3c0-0.3-0.3-0.6-0.6-1c-1,0-1.6,0.6-2.6,0.3c-1.3,0.3-2.6,0.6-3.9,0.6
			c0-0.6,1-0.6,1.3-1.3c-0.3-1.3,0.6-1.9,1-2.6c0.3-0.3,1-0.3,1.3,0c0.3,0.3,0.6,0.6,1,0.3l0.3-0.6c1.3,0.6,0.6,3.9,2.9,2.6
			c0.3-1.3,0-3.2,0.6-4.5c-0.6-1.3,0.6-1.6,1.3-2.6c1.3,0,1-1.3,1.6-1.9c1.9-0.6,3.9-1,4.9-2.9c-0.3-1,0-2.3-1-3.2
			C151.5,131.1,153.2,130.8,153.5,131.4z M151.9,202.7l-1-0.6c-14.3-0.6-26.6-6.5-37.2-15.9c1.6-0.3,2.3,2.3,4.2,1.6
			c1.9-0.3,3.6-1.9,5.8-1.6c1,0,2.3,0,3.2-1c0.3-1.3-1-1.6-1-2.6c7.1,5.5,15.5,8.7,24.6,9.4l1-0.3v9.4L151.9,202.7z M111.7,147.3
			l-0.6-1c1.3,1,2.3,0.6,3.6,0.3c-1.9,0.6-1.3,2.9-1.9,4.2c0,0.6,1,1,0.6,1.6c-1,0.3-1,1.6-1.6,2.3
			C112.7,152.1,111.7,149.6,111.7,147.3z M100,160.6c-1,0-0.6,1.3-1.3,1.9c0-2.6-1-5.2-1.6-8.1l-1-7.1l-0.3-0.6
			c3.2,0.6,7.1,0.3,10.7,0.3l1-0.3c-0.3,1.6-0.3,4.2,1,5.5c-0.3-0.3-1-1.9-1.9-1.6c-1.9,0-2.3,2.6-4.2,2.9c-1.6,1.3-1.9,3.2-2.3,5.2
			C100.7,158.9,99.7,159.6,100,160.6z M107.8,142.8l-1-0.3l-10.4,0.3c1-11.7,4.2-22.7,11-31.7l4.2-5.2v-0.6c2.6,2.9,5.2,5.5,8.1,8.1
			c-7.4,8.1-11.3,17.8-12.3,28.8C107.5,141.8,107.5,142.4,107.8,142.8z M151.5,97.7c-1.9-0.3-3.9,0.3-6.2,0.3
			c-8.4,1.6-16.5,5.5-23,11.7l-0.3-0.6c-2.6-2.3-4.9-5.5-7.8-7.1c2.6-1.6,4.5-3.6,7.1-5.2c8.7-5.8,18.8-9.4,30.1-10
			C150.9,90.3,151.2,94.2,151.5,97.7z M134.4,155.7c0,0.3,0.6,0.6,1,0.3c0.3-0.6-1-1.6,0-1.9c0.6,0.6,0.3,1.9,0.6,2.6
			c0.3,0.3,0.3,1,0.3,1.6c-1,1.3-2.6,2.3-3.2,3.9c-0.6-1.6-2.3-3.2-2.9-4.9c-1-1.9-1.6-4.2-2.9-6.2c1,1.3,3.2,0,3.2,1.9
			c0,0,0.3,0,0.6,0c0.3-0.3,0.3-0.3,0.6-0.3c0.3,0.3,1,0.6,0.3,1C132.8,154.7,133.4,155.7,134.4,155.7z M145.7,185.8l1.9,1
			c-6.8-1.6-13.9-3.9-19.8-8.7c-1-0.6-1.6-1.9-2.9-1.9c2.6-2.3,5.5-5.2,7.8-7.8c1,1.9,3.2,2.9,4.9,4.2c2.9,1.3,5.8,3.9,9.4,3.2
			c-1,0.3-1.9,1-2.9,1.9c-0.3,1-0.3,2.6-1.6,2.9C142.2,182.3,144.1,184.2,145.7,185.8z M121.1,172.2l-0.3-2.3
			c-2.3-1.9-1.6-5.2-1.9-7.8c-1.6-1.3-0.3-3.2-1.3-4.5c0-2.3-3.6-2.9-2.3-5.5c-0.3-0.6-1-1.3-0.3-2.3c0.6-1,2.3,0,2.6-1l0.3-1.9
			c1-0.3,1.9,0.6,2.3-0.6c0.6-1.9-2.9-4.2,0.3-5.2c1,0,2.6-0.3,2.9,1c0.3,1.6,0.6,2.9,0,4.5c1,0.3,0,1.3,0,1.9
			c-0.6,0.3-1.3,1-1.9,0.6c-0.3-0.6-1-1.3-1.6-1.3c-0.6,0.6,0.3,1.6,0,2.6c-0.3,0.6,0,1.3-0.3,1.6c-0.3-0.3-0.6-0.3-1-0.3
			c-0.6,0.3-0.3,1,0,1.6c0.6,0.3,1.3,1,1.9,1l0.3-0.3c0-1.3,0.6-2.3,0.6-3.6l1,0.6c1,4.9,3.2,9.1,5.8,13.3l1.6,1.3
			c-3.6,2.9-6.8,6.8-9.7,10l0,0c0,0,0-0.6-0.6-0.6C119.2,173.5,121.7,173.8,121.1,172.2z M126.6,126.9c-1,0.6-1.9,1.6-2.6,2.6
			c-1,0.6-2.3,0.6-2.9,1.6c0,0.3,0.6,1,0,1.3c-1,1-2.6-0.3-3.2,1.3c-0.3,1.3-1.9,2.3-1.6,3.9c-1,0.6-0.6,1.9-0.6,2.9
			c0.6,0.6-0.3,1.6,0.6,2.3c-1.6-0.6-3.6-0.6-4.9,0c0.6-1.6,0.6-3.9,1-5.8c1.3-8.1,5.2-14.9,10.4-21.4c2.6,2.6,5.5,5.5,8.4,7.8
			C128.9,123.6,128.9,126.9,126.6,126.9z M150.3,168c-0.6,1,0,2.3-0.3,3.2c-5.2-1-9.7-2.9-13.9-6.5c2.3-2.6,5.5-4.9,7.1-7.8
			c0.3,1.3,1.6,1.9,2.6,2.3c1.9,1,4.5,2.3,6.8,1.3c-0.3,0-0.3,0.3-0.6,0.3c0.6,0.6-0.6,1.3,0.3,1.9c0,0.6-0.6,0.3-0.6,0.6
			c0.3,0.6,0,1.9,1,2.3c0.3,0.3,0,1-0.3,1C151.5,167.4,150.6,167.4,150.3,168z M137.9,156.7c0.6-0.6,1.3-1.6,1.6-2.6l1.3,0.6
			C139.6,154.7,138.9,156,137.9,156.7L137.9,156.7z M148.6,125.3c-0.3-0.6,0.3-1-0.3-1.6c-1.6,0.6-1,2.9-2.3,3.9
			c-0.3,1-1.6,0.6-2.3,1c-0.3-0.6-1.3-0.6-1.9-0.3c-1,0-1-1.9-1.9-1c-0.3,0.3,0,1-1,0.6c0-0.3-0.3-0.3-0.6-0.3c0-0.6,1-0.6,0.6-1.3
			c-0.6-1.3-2.3-1-3.2-1.9h-1c4.5-4.9,10.4-6.8,16.5-7.8c0,2.9-0.3,5.8,0.6,8.4C150.9,124.3,149.6,125.9,148.6,125.3z M151.5,113
			c-1.9-0.3-3.9,0.3-5.8,0.6c-4.2,1-8.1,3.6-11.7,6.2c-0.3,0.3-0.3,0.6-0.6,1c-2.6-2.3-5.2-5.5-8.1-7.8c7.4-6.2,15.9-10,25.6-11
			l0.6-0.3C151.2,105.5,151.2,109.4,151.5,113z M110.1,85.7c12.3-8.7,25.9-13.9,41.5-14.6l-0.3,1v9.1l0.3,1
			c-14.9,0.6-28.2,6.2-39.2,16.5l-0.3,0.6c-2.6-2.9-5.5-5.8-8.4-8.1h-0.3C105.6,90,107.5,87.4,110.1,85.7z M81.3,135.6
			c1.9-15.9,8.7-29.8,19.8-41.8l0.3,1c2.6,2.6,5.2,5.2,7.8,7.8c-2.3,1.6-3.6,3.9-5.2,5.8c-6.8,9.7-10.7,20.7-11.7,33l0.3,1.6
			c-3.9-0.3-8.1-0.3-12,0C81.3,140.2,80.9,137.9,81.3,135.6z M90.3,180.3c-5.5-10.4-8.7-21.4-9.4-33.7h10.7l1-0.3c0,0.6,0,1.3,0,2.3
			l0,0c-0.3,0.3,0.3,0.3,0.3,0.6c0.3,4.2,1,7.8,1.9,11.7l0.6,1c-0.6-0.6-1-1.6-1.6-2.3c-1,0-1.9,0.3-2.6,1c0.3,1-0.6,0.6-1.3,1
			c0-0.3-0.3-0.6-0.6-0.6c-0.6,0-1.6,0-1.9,1c0,0.6-0.6,1-0.6,1.3c-0.3,1.6-0.6,3.9,0.3,5.5c0,1.3,0.6,2.3,1.6,3.2
			c0.3,0,0.6-0.3,1-0.3c1,0.6,1.6,2.6,3.2,2.3c0.3-0.3,0.3-0.6,0.3-1c0.6,0.6,1.3,2.6,2.6,2.3c0.3,0.3,0.6,1,1.3,1
			c1.6-0.3,1,1.9,2.3,2.6c1,0.6,1.3,1.9,2.9,1.3l0.3-0.6c0.3,0.3,0,1,0.3,1.6c0.6,1.3,1.9,2.3,3.2,2.6c1,1.3,2.3,2.9,3.6,3.6
			l-1.6-0.3l-7.8,7.8C97.1,190,92.9,185.5,90.3,180.3z M144.4,216.9c-15.5-2.3-28.8-8.7-40.8-19.1l7.8-8.1v-0.3
			c11,10.7,24.3,15.9,39.2,16.8l1.3-0.3l-0.3,0.6v10.4l0.6,1C149.6,216.9,146.7,217.3,144.4,216.9z M153.5,173.2c-1,0-1.6,0-2.3-0.3
			c-0.3,0-0.3-0.3-0.3-0.6c1,0,1.6-1.3,2.9-1c0.6-0.6,1-1.6,1.6-1.9c-0.3-1,1-0.3,1.3-1c0.3-0.3,0.6-0.6,1.3-0.3
			c0.6,1,2.3,0.6,3.2,1.9c0.3,0,0.6-0.3,0.3-0.6V169c1.3,0,1.9,1.6,3.2,0.3c0.3-0.3,0.3-1,0-1c0,0-0.3,0-0.3-0.3
			c1-0.3,1.3,1.3,2.6,0.6c1-0.6,1.6-1.6,2.6-1.6l0.3,0.3c0.3,2.3-1.6,3.6-3.6,4.9c-1,0.3-3.2,0.3-3.2,2.3c-1.3,1.3-2.6-0.6-3.9-0.3
			c-0.6-0.3,0-1.3-1-1.6C156.7,172.9,154.8,171.6,153.5,173.2z M156.4,192.6c1.3,0.6,3.9-0.6,4.5,1c-0.3,1-1,1.6-1,2.9
			c0.6,1.3,1.3,3.2,3.2,3.6c0.3,0.6,1,0.6,1.6,1c-3.2,0.6-6.5,0.3-9.1,1.3c0.3-3.2,0-6.5,0-9.4l-0.6-1
			C155.8,192,156.1,192.3,156.4,192.6z M156.7,217.3l-0.6,0.3c0.3-3.9,0.3-8.1,0-12c1.9,0.6,3.9,0,5.8,0l5.8-1
			c2.9,0.6,4.9,5.2,8.1,2.3c1-1.3,3.2-1.3,3.9-2.9c1.9-0.6,2.3-2.6,3.6-3.9c1.3-3.6,5.5-4.2,7.8-6.8c1.9-1.6,4.2-2.9,5.2-5.2l0.3,1
			l8.1,7.8C191.1,209.5,175.2,216.6,156.7,217.3z M227,147c-0.6,17.8-7.4,33.4-19.1,47l-0.3,0.6c-2.3-2.6-5.5-6.2-8.4-8.4
			c1.6-1.3,3.2-3.2,4.5-4.9c7.4-10,11.7-21.4,12.3-34l-0.6-1.3l0.6,0.3h11l0.6-0.3L227,147z"/>
		<path class="st1" d="M188.2,86.7c0,0.3,0,0.6,0.3,1c1.6,0.6,1.9,2.9,3.9,2.3c0.6-0.6-0.3-1.3-0.3-2.3c-0.3-0.6-1-1.3-1.6-1.3
			C189.4,87.4,188.8,85.7,188.2,86.7z"/>
		<path class="st1" d="M157.4,80.2c1.9,2.6,5.5,1.3,8.1,0.6c1.9,0.6,3.6,0,4.9-1.3v-0.3c-1.3-1.9-3.9-2.3-6.2-2.3l-5.5,2.3
			c-0.3-0.3-1.3-0.3-1.6,0.3C157.1,79.6,157.4,79.9,157.4,80.2z"/>
	</g>
</g>
</svg>
