<?xml version="1.0" encoding="utf-8"?>
<!-- Generator: Adobe Illustrator 19.0.0, SVG Export Plug-In . SVG Version: 6.00 Build 0)  -->
<svg version="1.1" id="Layer_1" xmlns="http://www.w3.org/2000/svg" xmlns:xlink="http://www.w3.org/1999/xlink" x="0px" y="0px"
	 viewBox="0 0 116.7 114.9" style="enable-background:new 0 0 116.7 114.9;" xml:space="preserve">
<style type="text/css">
	.st0{fill:#FFFFFF;}
</style>
<g id="XMLID_262_">
	<polygon id="XMLID_1016_" class="st0" points="58.5,81 58.7,81.4 57.7,82.1 57.6,81.8 57.9,81.2 57.6,81 58.3,80.6 	"/>
	<polygon id="XMLID_1015_" class="st0" points="57.9,81.2 57.6,81.8 57.3,81.2 57.6,81 	"/>
	<polygon id="XMLID_1014_" class="st0" points="57.9,10.4 57.6,10.7 57.3,10.4 57.1,10 57.6,9.3 58.2,10 	"/>
	<polygon id="XMLID_1013_" class="st0" points="57.6,82 57.7,82.1 57.6,82.2 57.6,82.1 	"/>
	<polygon id="XMLID_1012_" class="st0" points="57.6,81.8 57.5,82.1 56.5,81.4 56.7,81 56.9,80.6 57.6,81 57.3,81.2 	"/>
	<path id="XMLID_1011_" class="st0" d="M25.5,20.7c0.2,0,0.3,0,0.5,0h0l0,0c5.3-0.3,11-0.6,16.4-1.9c5.5-1.3,10.8-3.6,15.3-7.9
		l-0.9-1c-4.3,4.1-9.4,6.3-14.7,7.6c-5.3,1.3-10.9,1.6-16.2,1.9h0h0c-0.2,0-0.3,0-0.5,0L25.5,20.7z"/>
	<path id="XMLID_1010_" class="st0" d="M25.3,19.4c0,0.2,0,0.5,0,0.7l0.7,0l-0.7,0c1,21.3,10.8,41.2,24.8,55.6l0.5-0.5l-0.5,0.4
		c0.7,0.7,1.4,1.5,2.1,2.2c0.7,0.7,1.4,1.4,2.1,2.1l0,0l0,0c0.6,0.6,1.3,1.1,2,1.6l0.8-1.1c-0.6-0.5-1.3-1-1.9-1.5l-0.4,0.5l0.5-0.5
		c-0.7-0.7-1.4-1.4-2.1-2.1c-0.7-0.7-1.4-1.4-2.1-2.1l0,0l0,0C37.2,60.5,27.6,40.9,26.6,20v0v0c0-0.2,0-0.4,0-0.6L25.3,19.4z"/>
	<path id="XMLID_1009_" class="st0" d="M89.7,19.4c-0.1,0-0.3,0-0.5,0h0l0,0c-5.3-0.3-10.9-0.6-16.2-1.9C67.7,16.2,62.7,14,58.4,10
		l-0.9,1c4.5,4.2,9.8,6.6,15.3,7.9c5.5,1.3,11.1,1.6,16.4,1.9h0h0c0.1,0,0.3,0,0.5,0L89.7,19.4z"/>
	<path id="XMLID_1008_" class="st0" d="M88.6,19.3c0,0.2,0,0.4,0,0.6l0,0v0c-1,20.9-10.6,40.5-24.4,54.7l0,0l0,0
		c-0.7,0.7-1.4,1.4-2.1,2.1c-0.7,0.7-1.4,1.4-2.1,2.1l0.5,0.5L60,78.9c-0.6,0.5-1.2,1-1.9,1.5l0.8,1.1c0.7-0.5,1.3-1,2-1.6l0,0l0,0
		c0.7-0.7,1.4-1.4,2.1-2.1c0.7-0.7,1.4-1.4,2.1-2.2l-0.5-0.4l0.5,0.5c14.1-14.4,23.8-34.3,24.8-55.6l-0.7,0l0.7,0c0-0.2,0-0.5,0-0.7
		L88.6,19.3z"/>
	<polygon id="XMLID_1007_" class="st0" points="57.3,10.4 57.5,10.3 57.3,10 57.6,9.6 57.9,10 57.7,10.3 57.6,10.5 57.5,10.3 
		57.5,10.3 57.5,10.3 57.3,10.4 57.2,10.5 57.6,11 58,10.5 58.4,10 57.6,9.1 56.8,10 57.2,10.5 57.2,10.5 	"/>
	<polygon id="XMLID_1006_" class="st0" points="57.7,81.2 58.2,80.8 58.3,81.1 58.3,81.1 58.5,81.4 57.8,81.8 57.8,81.7 57.5,81.9 
		57.6,82.1 57.7,82.3 58.9,81.5 58.6,80.9 58.3,80.3 57.5,80.9 	"/>
	<polygon id="XMLID_1005_" class="st0" points="57.6,81 57.7,80.9 56.9,80.3 56.6,80.9 56.3,81.5 57.5,82.3 57.8,81.9 58.1,81.2 
		57.7,80.9 57.7,80.9 57.6,81 57.5,81.2 57.7,81.3 57.5,81.7 57.4,81.8 56.8,81.4 56.9,81 57,80.8 57.5,81.2 57.5,81.2 	"/>
	<polygon id="XMLID_1004_" class="st0" points="57.7,82.1 57.5,82 57.5,82.1 57.6,82.2 57.7,82.1 57.7,82 57.6,82.1 57.7,82.2 
		57.7,82.2 57.6,82 57.5,82.2 57.5,82.2 57.7,82.1 57.5,82 57.7,82.1 57.8,82 57.7,81.9 57.6,81.8 57.4,82 57.3,82.1 57.5,82.3 
		57.6,82.5 57.8,82.2 57.9,82.1 57.8,82 	"/>
	<g id="XMLID_950_">
		<path id="XMLID_1001_" class="st0" d="M65.6,49.2h10.1V34.2H65.6V49.2z M71.5,40.2v2.9h-2.9v-2.9H71.5z"/>
		<path id="XMLID_998_" class="st0" d="M39.6,34.2v15.1h10.3V34.2H39.6z M45.2,43.2c-0.8,0-1.5-0.7-1.5-1.6c0-0.9,0.7-1.6,1.5-1.6
			c0.8,0,1.5,0.7,1.5,1.6C46.7,42.5,46,43.2,45.2,43.2z"/>
		<polygon id="XMLID_997_" class="st0" points="39.4,49.4 39.4,34 49.9,34 49.9,33.8 39.3,33.8 39.3,49.6 49.9,49.6 49.9,49.4 		"/>
		<polygon id="XMLID_996_" class="st0" points="75.6,34 75.8,34 75.8,33.8 65.6,33.8 65.6,34 		"/>
		<polygon id="XMLID_995_" class="st0" points="76,33.8 75.8,33.8 75.8,34 75.8,34.2 75.8,49.4 65.6,49.4 65.6,49.6 76,49.6 		"/>
		<polygon id="XMLID_994_" class="st0" points="39.6,49.2 39.6,34.2 49.9,34.2 49.9,34 39.4,34 39.4,49.4 49.9,49.4 49.9,49.2 		"/>
		<rect id="XMLID_993_" x="75.6" y="34" class="st0" width="0.2" height="0.2"/>
		<polygon id="XMLID_992_" class="st0" points="75.6,49.2 65.6,49.2 65.6,49.4 75.8,49.4 75.8,34.2 75.6,34.2 		"/>
		<rect id="XMLID_991_" x="65.6" y="34" class="st0" width="10.1" height="0.2"/>
		<path id="XMLID_988_" class="st0" d="M65.3,23.8H50.2v10.1h15.1V23.8z M55.6,28.9l2-2l2,2l-2,2L55.6,28.9z"/>
		<rect id="XMLID_987_" x="50.2" y="49.6" class="st0" width="15.1" height="10.6"/>
		<rect id="XMLID_986_" x="50.2" y="34.2" class="st0" width="15.1" height="15.1"/>
		<rect id="XMLID_985_" x="50.2" y="33.8" class="st0" width="15.1" height="0.2"/>
		<rect id="XMLID_984_" x="50.2" y="49.4" class="st0" width="15.1" height="0.2"/>
		<rect id="XMLID_983_" x="50.2" y="34" class="st0" width="15.1" height="0.2"/>
		<rect id="XMLID_982_" x="50.2" y="49.2" class="st0" width="15.1" height="0.2"/>
		<polygon id="XMLID_981_" class="st0" points="65.4,60.2 65.4,60.3 65.6,60.3 65.6,49.6 65.4,49.6 		"/>
		<polygon id="XMLID_980_" class="st0" points="65.3,60.3 50,60.3 50,49.6 49.9,49.6 49.9,60.5 65.6,60.5 65.6,60.3 65.4,60.3 		"/>
		<polygon id="XMLID_979_" class="st0" points="50,23.6 65.4,23.6 65.4,33.8 65.6,33.8 65.6,23.4 49.9,23.4 49.9,33.8 50,33.8 		"/>
		<rect id="XMLID_978_" x="49.9" y="34.2" class="st0" width="0.2" height="15.1"/>
		<rect id="XMLID_977_" x="65.4" y="34.2" class="st0" width="0.2" height="15.1"/>
		<rect id="XMLID_976_" x="49.9" y="49.4" class="st0" width="0.2" height="0.2"/>
		<rect id="XMLID_975_" x="49.9" y="33.8" class="st0" width="0.2" height="0.2"/>
		<rect id="XMLID_974_" x="65.4" y="33.8" class="st0" width="0.2" height="0.2"/>
		<rect id="XMLID_973_" x="65.4" y="49.4" class="st0" width="0.2" height="0.2"/>
		<rect id="XMLID_972_" x="65.4" y="34" class="st0" width="0.2" height="0.2"/>
		<rect id="XMLID_971_" x="65.4" y="49.2" class="st0" width="0.2" height="0.2"/>
		<rect id="XMLID_970_" x="49.9" y="34" class="st0" width="0.2" height="0.2"/>
		<rect id="XMLID_969_" x="49.9" y="49.2" class="st0" width="0.2" height="0.2"/>
		<rect id="XMLID_968_" x="65.3" y="60.2" class="st0" width="0.2" height="0.2"/>
		<polygon id="XMLID_967_" class="st0" points="50.2,60.2 50.2,49.6 50,49.6 50,60.3 65.3,60.3 65.3,60.2 		"/>
		<rect id="XMLID_966_" x="65.3" y="49.6" class="st0" width="0.2" height="10.6"/>
		<polygon id="XMLID_965_" class="st0" points="50.2,23.8 65.3,23.8 65.3,33.8 65.4,33.8 65.4,23.6 50,23.6 50,33.8 50.2,33.8 		"/>
		<rect id="XMLID_964_" x="65.3" y="34.2" class="st0" width="0.2" height="15.1"/>
		<rect id="XMLID_963_" x="50" y="34.2" class="st0" width="0.2" height="15.1"/>
		<rect id="XMLID_962_" x="65.3" y="49.4" class="st0" width="0.2" height="0.2"/>
		<rect id="XMLID_961_" x="50" y="33.8" class="st0" width="0.2" height="0.2"/>
		<rect id="XMLID_960_" x="65.3" y="33.8" class="st0" width="0.2" height="0.2"/>
		<rect id="XMLID_959_" x="50" y="49.4" class="st0" width="0.2" height="0.2"/>
		<rect id="XMLID_958_" x="50" y="34" class="st0" width="0.2" height="0.2"/>
		<rect id="XMLID_957_" x="65.3" y="49.2" class="st0" width="0.2" height="0.2"/>
		<rect id="XMLID_956_" x="50" y="49.2" class="st0" width="0.2" height="0.2"/>
		<rect id="XMLID_955_" x="65.3" y="34" class="st0" width="0.2" height="0.2"/>
	</g>
	<path id="XMLID_933_" class="st0" d="M98.4,89.6c0-2.2,1.2-3.3,3-3.3c1.6,0,3.1,1.3,3.1,3.7c0,2.9-1.9,3.4-2.8,3.4
		C99.8,93.3,98.4,91.9,98.4,89.6z M97.3,89.8c0,1.8,1.2,3.9,4,3.9c2.5,0,4.2-1.8,4.2-4.1c0-2.3-1.8-3.8-4.1-3.8
		C98.5,85.9,97.3,88.2,97.3,89.8z M93.7,93.8c0.7,0,1.4-0.1,1.9-0.2c0.2-0.1,0.2-0.1,0.3-0.3c0.1-0.3,0.2-1.2,0.2-1.3
		c0-0.1,0-0.1-0.1-0.1c-0.1,0-0.1,0-0.1,0.1c0,0.2-0.2,0.6-0.4,0.8c-0.4,0.4-0.9,0.5-1.7,0.5c-2.2,0-3.7-1.7-3.7-3.6
		c0-1,0.2-1.9,0.9-2.6c0.4-0.3,1-0.7,2.3-0.7c0.9,0,1.7,0.2,2,0.6c0.3,0.2,0.4,0.6,0.4,1c0,0.1,0,0.2,0.1,0.2c0.1,0,0.1-0.1,0.1-0.2
		c0-0.1,0-0.7,0-1c0-0.4,0-0.5,0-0.6c0-0.1,0-0.1-0.1-0.1c-0.3,0-0.7-0.1-1.1-0.2c-0.5-0.1-1.1-0.1-1.5-0.1c-1.6,0-2.5,0.5-3.2,1.1
		c-0.9,0.9-1.2,2.1-1.2,2.7c0,1,0.2,2.1,1.3,3C91.1,93.4,92.2,93.8,93.7,93.8z M84.7,93.8c0.6,0,1.2-0.1,1.6-0.4
		c0.7-0.5,1-1.1,1-1.7c0-0.9-0.4-1.6-1.7-2.4l-0.3-0.2c-1-0.7-1.3-1.1-1.3-1.7c0-0.7,0.6-1.1,1.4-1.1c0.9,0,1.3,0.4,1.3,0.5
		c0.1,0.1,0.1,0.4,0.2,0.5c0,0.1,0,0.1,0.1,0.1c0.1,0,0.1-0.1,0.1-0.2c0-0.7,0-1,0-1.1c0-0.1,0-0.1-0.1-0.1c-0.1,0-0.2,0-0.4,0
		c-0.2-0.1-0.7-0.1-1.1-0.1c-1.4,0-2.3,0.7-2.3,1.9c0,0.7,0.4,1.3,1.5,2.1l0.5,0.4c0.9,0.7,1.3,1,1.3,1.7c0,0.8-0.5,1.3-1.6,1.3
		c-0.7,0-1.5-0.3-1.6-1c0-0.1,0-0.3,0-0.4c0-0.1,0-0.1-0.1-0.1c-0.1,0-0.1,0.1-0.1,0.2c0,0.2-0.1,0.6-0.1,1.1c0,0.3,0,0.3,0.2,0.4
		C83.6,93.7,84.2,93.8,84.7,93.8z M80.4,89c0-1.6,0-1.8,0-2.2c0-0.4,0.1-0.5,0.4-0.6c0.1,0,0.2,0,0.3,0c0,0,0.1,0,0.1-0.1
		c0-0.1,0-0.1-0.2-0.1c-0.3,0-1,0-1,0c-0.1,0-0.7,0-1,0c-0.1,0-0.2,0-0.2,0.1c0,0,0,0.1,0.1,0.1c0.1,0,0.2,0,0.3,0
		c0.2,0,0.3,0.2,0.3,0.5c0,0.3,0,0.6,0,2.2v1.8c0,1,0,1.8-0.1,2.2c0,0.3-0.1,0.5-0.3,0.5c-0.1,0-0.2,0-0.3,0c-0.1,0-0.1,0-0.1,0.1
		c0,0.1,0.1,0.1,0.2,0.1c0.3,0,1,0,1,0c0,0,0.7,0,1.3,0c0.1,0,0.2,0,0.2-0.1c0,0,0-0.1-0.1-0.1c-0.1,0-0.3,0-0.5,0
		c-0.3,0-0.3-0.2-0.4-0.5c0-0.4,0-1.2,0-2.2V89z M74.6,93.8c0.7,0,1.4-0.1,1.9-0.2c0.2-0.1,0.2-0.1,0.3-0.3C76.9,92.9,77,92,77,92
		c0-0.1,0-0.1-0.1-0.1c-0.1,0-0.1,0-0.1,0.1c0,0.2-0.2,0.6-0.4,0.8c-0.4,0.4-0.9,0.5-1.7,0.5c-2.2,0-3.7-1.7-3.7-3.6
		c0-1,0.2-1.9,0.9-2.6c0.4-0.3,1-0.7,2.3-0.7c0.9,0,1.7,0.2,2,0.6c0.3,0.2,0.4,0.6,0.4,1c0,0.1,0,0.2,0.1,0.2c0.1,0,0.1-0.1,0.1-0.2
		c0-0.1,0-0.7,0-1c0-0.4,0-0.5,0-0.6c0-0.1,0-0.1-0.1-0.1c-0.3,0-0.7-0.1-1.1-0.2c-0.5-0.1-1.1-0.1-1.5-0.1c-1.6,0-2.5,0.5-3.2,1.1
		C70.2,87.9,70,89,70,89.7c0,1,0.2,2.1,1.3,3C72,93.4,73.1,93.8,74.6,93.8z M61.8,87.5c0.3,0.4,1.5,1.6,2.7,2.8
		c1.1,1.1,2.6,2.6,2.7,2.7c0.6,0.5,0.7,0.6,0.8,0.6c0.1,0,0.1-0.1,0.1-0.7l0-5.9c0-0.6,0-0.8,0.4-0.9c0.1,0,0.2,0,0.2,0
		c0.1,0,0.1-0.1,0.1-0.1c0-0.1-0.1-0.1-0.2-0.1c-0.4,0-0.8,0-0.9,0c-0.1,0-0.6,0-1.1,0c-0.1,0-0.2,0-0.2,0.1c0,0,0,0.1,0.1,0.1
		c0.1,0,0.3,0,0.5,0c0.3,0.1,0.4,0.3,0.4,0.9l0.1,5c-0.3-0.3-1.4-1.5-2.4-2.6c-1.6-1.6-3.1-3.2-3.3-3.4c-0.1-0.1-0.3-0.3-0.4-0.3
		c-0.1,0-0.1,0.1-0.1,0.5v5.7c0,0.9,0,1.2-0.3,1.2c-0.2,0-0.3,0.1-0.4,0.1c0,0-0.1,0-0.1,0.1c0,0.1,0.1,0.1,0.2,0.1c0.5,0,0.9,0,1,0
		c0.1,0,0.5,0,1.1,0c0.1,0,0.2,0,0.2-0.1c0,0,0-0.1-0.1-0.1c-0.1,0-0.3,0-0.5-0.1c-0.3-0.1-0.4-0.3-0.4-1.1L61.8,87.5z M54.8,90.4
		C54.8,90.4,54.7,90.4,54.8,90.4l0.9-2.8c0.1-0.2,0.1-0.2,0.2,0l1,2.7c0,0,0,0.1,0,0.1H54.8z M53.3,92.5c-0.2,0.5-0.4,0.9-0.9,0.9
		c-0.1,0-0.2,0-0.3,0c0,0-0.1,0-0.1,0.1c0,0.1,0.1,0.1,0.2,0.1c0.4,0,0.9,0,1,0c0.1,0,0.7,0,0.9,0c0.1,0,0.2,0,0.2-0.1
		c0,0,0-0.1-0.1-0.1h-0.1c-0.2,0-0.4-0.1-0.4-0.3c0-0.2,0.1-0.4,0.2-0.7l0.6-1.6c0-0.1,0.1-0.1,0.1-0.1H57c0.1,0,0.1,0,0.1,0.1
		l0.9,2.3c0.1,0.2,0,0.2-0.1,0.3c0,0-0.1,0-0.1,0.1c0,0.1,0.2,0.1,0.4,0.1c0.7,0,1.5,0,1.6,0c0.1,0,0.2,0,0.2-0.1
		c0-0.1-0.1-0.1-0.1-0.1c-0.1,0-0.3,0-0.4-0.1c-0.2-0.1-0.5-0.2-0.9-1.1c-0.6-1.5-2.3-5.7-2.5-6.1c-0.1-0.2-0.1-0.4-0.2-0.4
		c-0.1,0-0.1,0.1-0.2,0.4L53.3,92.5z M47.1,86.6c0-0.1,0-0.1,0.1-0.1c0.1,0,0.4-0.1,0.7-0.1c1.1,0,1.8,0.7,1.8,2
		c0,0.8-0.3,1.3-0.6,1.5c-0.2,0.2-0.5,0.2-0.8,0.2c-0.5,0-1-0.1-1.1-0.2c0,0-0.1-0.1-0.1-0.1V86.6z M46.2,90.7c0,1,0,1.8-0.1,2.2
		c0,0.3-0.1,0.5-0.3,0.5c-0.1,0-0.2,0-0.3,0c-0.1,0-0.1,0-0.1,0.1c0,0.1,0.1,0.1,0.2,0.1c0.3,0,1,0,1,0c0,0,0.7,0,1.3,0
		c0.1,0,0.2,0,0.2-0.1c0,0,0-0.1-0.1-0.1c-0.1,0-0.3,0-0.5,0c-0.3,0-0.4-0.2-0.4-0.5c0-0.4,0-1.2,0-2.2v-0.2c0-0.1,0-0.1,0.1-0.1
		l1.3,0c0.1,0,0.1,0,0.1,0.1c0.2,0.3,0.7,0.9,1.1,1.5c0.6,0.8,1,1.2,1.4,1.5c0.3,0.1,0.5,0.2,1.1,0.2h0.6c0.2,0,0.2,0,0.2-0.1
		c0,0,0-0.1-0.1-0.1s-0.2,0-0.4,0c-0.3,0-0.6-0.1-1.2-0.7c-0.6-0.6-1.3-1.5-2.2-2.6c1-0.8,1.3-1.5,1.3-2.3c0-0.7-0.5-1.2-0.7-1.4
		c-0.5-0.4-1.3-0.4-1.9-0.4c-0.3,0-1.2,0-1.3,0c-0.1,0-0.8,0-1.2,0c-0.1,0-0.2,0-0.2,0.1c0,0,0,0.1,0.1,0.1c0.1,0,0.3,0,0.4,0
		c0.3,0,0.4,0.2,0.4,0.6c0,0.3,0,0.6,0,2.2V90.7z M39.5,90.2c0,1.1,0,2.1-0.1,2.6c0,0.3-0.1,0.6-0.3,0.6c-0.1,0-0.2,0-0.4,0
		c-0.1,0-0.1,0-0.1,0.1c0,0.1,0.1,0.1,0.2,0.1c0.4,0,1.1,0,1.2,0c0.1,0,0.8,0,1.4,0c0.1,0,0.2,0,0.2-0.1c0,0,0-0.1-0.1-0.1
		c-0.1,0-0.4,0-0.5,0c-0.4,0-0.4-0.3-0.5-0.6c-0.1-0.5-0.1-1.4-0.1-2.6v-1c0-0.1,0-0.1,0.1-0.1c0.2,0,1.5,0,1.8,0
		c0.4,0,0.6,0.3,0.6,0.4c0,0.1,0.1,0.3,0.1,0.4c0,0.1,0,0.1,0.1,0.1c0.1,0,0.1-0.1,0.1-0.2c0-0.1,0-0.6,0-0.8c0-0.4,0.1-0.6,0.1-0.7
		c0-0.1,0-0.1-0.1-0.1c0,0-0.1,0.1-0.1,0.1c-0.1,0.2-0.3,0.2-0.5,0.2c-0.2,0-0.3,0-0.5,0l-1.5,0c-0.1,0-0.1,0-0.1-0.1v-3.3
		c0-0.1,0-0.1,0.1-0.1l1.8,0c0.5,0,0.7,0.2,0.8,0.4c0.1,0.2,0.1,0.4,0.1,0.4c0,0.1,0,0.1,0.1,0.1c0.1,0,0.1-0.1,0.1-0.1
		c0-0.1,0-0.7,0.1-0.8c0-0.3,0.1-0.5,0.1-0.6c0-0.1,0-0.1-0.1-0.1c0,0-0.1,0-0.2,0.1c-0.1,0-0.3,0-0.5,0c-0.3,0-2.7,0-2.9,0l-0.5,0
		c-0.3,0-0.6,0-0.8,0c-0.1,0-0.2,0-0.2,0.1c0,0,0,0.1,0.1,0.1c0.1,0,0.3,0,0.4,0c0.4,0.1,0.5,0.3,0.5,0.7c0,0.4,0,0.7,0,2.5V90.2z
		 M25.9,87.5c0.3,0.4,1.5,1.6,2.7,2.8c1.1,1.1,2.6,2.6,2.7,2.7c0.6,0.5,0.7,0.6,0.8,0.6c0.1,0,0.1-0.1,0.1-0.7l0-5.9
		c0-0.6,0-0.8,0.4-0.9c0.1,0,0.2,0,0.2,0c0.1,0,0.1-0.1,0.1-0.1c0-0.1-0.1-0.1-0.2-0.1c-0.4,0-0.8,0-0.9,0c-0.1,0-0.6,0-1.1,0
		c-0.1,0-0.2,0-0.2,0.1c0,0,0,0.1,0.1,0.1c0.1,0,0.3,0,0.5,0c0.3,0.1,0.4,0.3,0.4,0.9l0.1,5c-0.3-0.3-1.4-1.5-2.4-2.6
		c-1.6-1.6-3.1-3.2-3.3-3.4c-0.1-0.1-0.3-0.3-0.4-0.3c-0.1,0-0.1,0.1-0.1,0.5v5.7c0,0.9,0,1.2-0.3,1.2c-0.2,0-0.3,0.1-0.4,0.1
		c0,0-0.1,0-0.1,0.1c0,0.1,0.1,0.1,0.2,0.1c0.5,0,0.9,0,1,0c0.1,0,0.5,0,1.1,0c0.1,0,0.2,0,0.2-0.1c0,0,0-0.1-0.1-0.1
		c-0.1,0-0.3,0-0.5-0.1c-0.3-0.1-0.4-0.3-0.4-1.1L25.9,87.5z M18.9,90.4C18.8,90.4,18.8,90.4,18.9,90.4l0.9-2.8
		c0.1-0.2,0.1-0.2,0.2,0l1,2.7c0,0,0,0.1,0,0.1H18.9z M17.4,92.5c-0.2,0.5-0.4,0.9-0.9,0.9c-0.1,0-0.2,0-0.3,0c0,0-0.1,0-0.1,0.1
		c0,0.1,0.1,0.1,0.2,0.1c0.4,0,0.9,0,1,0c0.1,0,0.7,0,0.9,0c0.1,0,0.2,0,0.2-0.1c0,0,0-0.1-0.1-0.1h-0.1c-0.2,0-0.4-0.1-0.4-0.3
		c0-0.2,0.1-0.4,0.2-0.7l0.6-1.6c0-0.1,0.1-0.1,0.1-0.1h2.4c0.1,0,0.1,0,0.1,0.1l0.9,2.3c0.1,0.2,0,0.2-0.1,0.3c0,0-0.1,0-0.1,0.1
		c0,0.1,0.2,0.1,0.4,0.1c0.7,0,1.5,0,1.6,0c0.1,0,0.2,0,0.2-0.1c0-0.1-0.1-0.1-0.1-0.1c-0.1,0-0.3,0-0.4-0.1
		c-0.2-0.1-0.5-0.2-0.9-1.1c-0.6-1.5-2.3-5.7-2.5-6.1c-0.1-0.2-0.1-0.4-0.2-0.4c-0.1,0-0.1,0.1-0.2,0.4L17.4,92.5z M12.6,93.8
		c0.6,0,1.3-0.1,1.8-0.5c0.8-0.6,1-1.5,1-2c0-0.9-0.3-1.7-1.7-2.8l-0.3-0.3c-1.1-0.9-1.4-1.3-1.4-2c0-0.9,0.6-1.4,1.4-1.4
		c1.1,0,1.4,0.5,1.5,0.6c0.1,0.1,0.1,0.4,0.2,0.6c0,0.1,0,0.2,0.1,0.2c0.1,0,0.1-0.1,0.1-0.3c0-0.8,0-1.2,0-1.2c0-0.1,0-0.1-0.1-0.1
		c-0.1,0-0.2,0-0.4-0.1c-0.3-0.1-0.6-0.1-1.1-0.1c-1.5,0-2.4,0.9-2.4,2.1c0,0.8,0.3,1.5,1.5,2.6l0.5,0.4c1,0.8,1.4,1.3,1.4,2.1
		c0,0.8-0.6,1.6-1.7,1.6c-0.8,0-1.6-0.3-1.7-1.2c0-0.2,0-0.3,0-0.4c0-0.1,0-0.1-0.1-0.1c-0.1,0-0.1,0.1-0.1,0.2
		c0,0.2-0.1,0.7-0.1,1.2c0,0.3,0,0.4,0.2,0.4C11.5,93.7,12.1,93.8,12.6,93.8z"/>
	<path id="XMLID_916_" class="st0" d="M98.4,89.6L98.4,89.6c0.1-2.1,1.3-3.2,3-3.2c1.6,0,3,1.2,3,3.6c0,2.9-1.8,3.3-2.7,3.3
		C99.8,93.3,98.4,91.9,98.4,89.6L98.4,89.6L98.4,89.6c-0.1,2.4,1.4,3.9,3.3,3.9c0.5,0,1.2-0.1,1.8-0.6c0.6-0.5,1.1-1.4,1.1-2.8
		c0-2.4-1.5-3.7-3.2-3.7c-0.9,0-1.7,0.3-2.2,0.8C98.6,87.6,98.3,88.4,98.4,89.6L98.4,89.6z M97.3,89.8L97.3,89.8c-0.1,1.8,1.2,4,4,4
		c2.5,0,4.2-1.9,4.2-4.2c0-2.4-1.8-3.8-4.2-3.8C98.5,85.8,97.2,88.2,97.3,89.8L97.3,89.8L97.3,89.8c0.1-1.6,1.3-3.8,4.1-3.8
		c2.3,0,4,1.4,4,3.7c0,2.2-1.6,4-4.1,4C98.5,93.7,97.4,91.6,97.3,89.8L97.3,89.8z M93.7,93.8L93.7,93.8c0.7,0.1,1.5,0,1.9-0.1
		c0.2-0.1,0.3-0.2,0.3-0.3c0.1-0.4,0.2-1.2,0.3-1.3c0-0.1,0-0.2-0.2-0.2c-0.1,0-0.2,0.1-0.2,0.2c0,0.2-0.2,0.6-0.4,0.8
		c-0.4,0.4-0.9,0.4-1.6,0.4c-2.2,0-3.7-1.7-3.7-3.5c0-1,0.2-1.9,0.9-2.6c0.4-0.3,1-0.7,2.3-0.7c0.9,0,1.6,0.2,2,0.5
		c0.2,0.2,0.4,0.6,0.4,0.9c0,0.1,0,0.1,0,0.2c0,0.1,0.1,0.1,0.1,0.1c0.1,0,0.2-0.1,0.2-0.3c0-0.2,0-0.7,0-1c0-0.4,0-0.5,0-0.6
		c0,0,0-0.1,0-0.1c0,0-0.1-0.1-0.2-0.1c-0.3,0-0.7-0.1-1-0.2c-0.5-0.1-1.1-0.1-1.5-0.1c-1.6,0-2.6,0.5-3.2,1.1
		C89.2,87.8,89,89,89,89.7c0,1,0.3,2.1,1.3,3C91.1,93.5,92.2,93.8,93.7,93.8L93.7,93.8L93.7,93.8c-1.5-0.1-2.6-0.4-3.4-1.1
		c-1-0.9-1.2-2-1.2-2.9c0-0.7,0.2-1.8,1.1-2.7c0.6-0.6,1.5-1,3.1-1c0.4,0,1,0,1.5,0.1c0.4,0.1,0.7,0.1,1.1,0.2c0,0,0,0,0,0l0,0
		c0,0.1,0,0.2,0,0.6c0,0.3,0,0.9,0,1c0,0.1,0,0.1,0,0.1l0,0v0l0,0l0,0v0l0,0l0,0l0,0l0,0l0,0l0,0c0,0,0-0.1,0-0.1
		c0-0.4-0.2-0.8-0.5-1.1c-0.4-0.3-1.2-0.6-2.1-0.6c-1.3,0-2,0.4-2.4,0.7c-0.8,0.7-1,1.7-1,2.7c0,2,1.6,3.7,3.8,3.7
		c0.8,0,1.3-0.1,1.8-0.5c0.2-0.2,0.4-0.7,0.4-0.9c0,0,0-0.1,0-0.1l0,0l0,0l0,0l0,0l0,0h0v0l0,0l0,0v0l0,0l0,0.1c0,0-0.1,0.9-0.2,1.3
		c-0.1,0.2,0,0.2-0.2,0.2C95.2,93.6,94.4,93.7,93.7,93.8L93.7,93.8z M84.7,93.8L84.7,93.8c0.6,0.1,1.2,0,1.7-0.3
		c0.8-0.5,1-1.2,1-1.8c0-0.9-0.5-1.6-1.7-2.5L85.4,89c-1-0.7-1.3-1-1.3-1.6c0-0.6,0.6-1,1.3-1c0.9,0,1.2,0.4,1.3,0.5
		c0,0.1,0.1,0.4,0.1,0.5c0,0.1,0,0.2,0.2,0.2c0.1,0,0.1-0.1,0.1-0.1c0-0.1,0-0.1,0-0.2c0-0.7,0-1,0-1.1c0,0,0-0.1-0.1-0.1
		c0,0-0.1,0-0.1,0c-0.1,0-0.1,0-0.3,0c-0.3-0.1-0.7-0.1-1.1-0.1c-1.4,0-2.4,0.7-2.4,2c0,0.7,0.4,1.4,1.5,2.2l0.5,0.4
		c0.9,0.7,1.3,1,1.3,1.7c0,0.7-0.5,1.2-1.5,1.2c-0.7,0-1.4-0.3-1.6-0.9c0-0.1,0-0.3,0-0.3c0-0.1,0-0.1,0-0.1c0,0-0.1-0.1-0.1-0.1
		C83,91.8,83,91.9,83,92c0,0.2-0.1,0.6-0.1,1.1c0,0.3,0,0.4,0.2,0.4C83.6,93.8,84.2,93.8,84.7,93.8L84.7,93.8L84.7,93.8
		c-0.5-0.1-1.1-0.2-1.5-0.3c-0.1-0.1-0.1,0-0.1-0.3c0-0.5,0-0.9,0.1-1.1c0-0.1,0-0.1,0-0.1l0,0v0l0,0l0,0v0l0,0c0,0,0,0,0,0
		c0,0.1,0,0.2,0,0.4c0.2,0.8,1,1.1,1.7,1.1c1.1,0,1.6-0.6,1.6-1.4c0-0.8-0.4-1.1-1.3-1.8l-0.5-0.4c-1.1-0.8-1.4-1.4-1.5-2.1
		c0-1.1,0.9-1.8,2.2-1.8c0.4,0,0.8,0.1,1.1,0.1c0.2,0,0.3,0,0.4,0l0,0l0,0l0,0l0,0l0,0l0,0l0,0l0,0c0,0,0,0.4,0,1.1
		c0,0.1,0,0.1,0,0.1l0,0l0,0v0l0,0l0,0v0v0h0l0,0v0h0c0,0,0,0,0-0.1c0-0.1-0.1-0.4-0.2-0.5c-0.1-0.1-0.5-0.5-1.4-0.5
		c-0.8,0-1.5,0.4-1.5,1.2c0,0.7,0.4,1.1,1.4,1.8l0.3,0.2c1.3,0.9,1.7,1.5,1.7,2.3c0,0.6-0.2,1.2-0.9,1.6
		C85.9,93.6,85.3,93.7,84.7,93.8L84.7,93.8z M80.4,89L80.4,89c0.1-1.6,0.1-1.8,0.1-2.2c0-0.4,0.1-0.4,0.3-0.5c0.1,0,0.2,0,0.2,0
		c0.1,0,0.1-0.1,0.2-0.2c0-0.1,0-0.1-0.1-0.1c0,0-0.1,0-0.2,0c-0.3,0-1,0-1,0c-0.1,0-0.7,0-1,0c-0.1,0-0.1,0-0.2,0
		c-0.1,0-0.1,0.1-0.1,0.1c0,0.1,0.1,0.2,0.2,0.2c0.1,0,0.2,0,0.3,0c0.2,0,0.2,0.1,0.3,0.5c0,0.3,0,0.6,0,2.1v1.8c0,1,0,1.8-0.1,2.2
		c0,0.3-0.1,0.4-0.2,0.5c-0.1,0-0.2,0-0.3,0c-0.1,0-0.2,0.1-0.2,0.2c0,0.1,0.1,0.2,0.2,0.2c0.3,0,1,0,1,0c0,0,0.7,0,1.3,0
		c0.1,0,0.2,0,0.2-0.2c0-0.1-0.1-0.2-0.2-0.2c-0.1,0-0.3,0-0.5,0c-0.3,0-0.3-0.2-0.3-0.5c0-0.4,0-1.2,0-2.2L80.4,89L80.4,89L80.4,89
		l-0.1,1.8c0,1,0,1.8,0,2.2c0,0.3,0.1,0.6,0.4,0.6c0.2,0,0.4,0,0.5,0v0h0l0,0l0,0h0l0,0c0,0,0,0-0.1,0c-0.6,0-1.2,0-1.3,0
		c-0.1,0-0.7,0-1,0c0,0-0.1,0-0.1,0l0,0h0l0,0l0,0h0l0,0c0.1,0,0.2,0,0.3,0c0.3-0.1,0.3-0.3,0.3-0.6c0-0.4,0.1-1.2,0.1-2.2l0-1.8
		c0-1.6,0-1.8,0-2.2c0-0.3-0.1-0.6-0.4-0.6c-0.1,0-0.3,0-0.3,0l0,0h0l0,0l0,0h0l0,0c0,0,0,0,0.1,0c0.3,0,1,0,1,0c0.1,0,0.7,0,1,0
		c0.1,0,0.1,0,0.1,0l0,0h0l0,0l0,0h0l0,0c-0.1,0-0.2,0-0.3,0c-0.3,0.1-0.4,0.3-0.4,0.6C80.3,87.1,80.3,87.4,80.4,89L80.4,89z
		 M74.6,93.8L74.6,93.8c0.7,0.1,1.5,0,1.9-0.1c0.2-0.1,0.3-0.2,0.3-0.3c0.1-0.4,0.2-1.2,0.3-1.3c0-0.1,0-0.2-0.2-0.2
		c-0.1,0-0.2,0.1-0.2,0.2c0,0.2-0.2,0.6-0.4,0.8c-0.4,0.4-0.9,0.4-1.6,0.4c-2.2,0-3.7-1.7-3.7-3.5c0-1,0.2-1.9,0.9-2.6
		c0.4-0.3,1-0.7,2.3-0.7c0.9,0,1.6,0.2,2,0.5c0.2,0.2,0.4,0.6,0.4,0.9c0,0.1,0,0.1,0,0.2c0,0.1,0.1,0.1,0.1,0.1
		c0.1,0,0.2-0.1,0.2-0.3c0-0.2,0-0.7,0-1c0-0.4,0-0.5,0-0.6c0,0,0-0.1,0-0.1c0,0-0.1-0.1-0.2-0.1c-0.3,0-0.7-0.1-1-0.2
		c-0.5-0.1-1.1-0.1-1.5-0.1c-1.6,0-2.6,0.5-3.2,1.1c-0.9,0.9-1.2,2.1-1.2,2.8c0,1,0.3,2.1,1.3,3C72,93.5,73.1,93.8,74.6,93.8
		L74.6,93.8L74.6,93.8c-1.5-0.1-2.6-0.4-3.4-1.1c-1-0.9-1.2-2-1.2-2.9c0-0.7,0.2-1.8,1.1-2.7c0.6-0.6,1.5-1,3.1-1c0.4,0,1,0,1.5,0.1
		c0.4,0.1,0.7,0.1,1.1,0.2c0,0,0,0,0,0l0,0c0,0.1,0,0.2,0,0.6c0,0.3,0,0.9,0,1c0,0.1,0,0.1,0,0.1l0,0v0l0,0l0,0v0l0,0l0,0l0,0l0,0
		l0,0l0,0c0,0,0-0.1,0-0.1c0-0.4-0.2-0.8-0.5-1.1c-0.4-0.3-1.2-0.6-2.1-0.6c-1.3,0-2,0.4-2.4,0.7c-0.8,0.7-1,1.7-1,2.7
		c0,2,1.6,3.7,3.8,3.7c0.8,0,1.3-0.1,1.8-0.5c0.2-0.2,0.4-0.7,0.4-0.9c0,0,0-0.1,0-0.1l0,0l0,0l0,0l0,0l0,0h0v0l0,0l0,0v0l0,0l0,0.1
		c0,0-0.1,0.9-0.2,1.3c-0.1,0.2,0,0.2-0.2,0.2C76.1,93.6,75.3,93.7,74.6,93.8L74.6,93.8z M61.8,87.5L61.8,87.5
		c0.3,0.4,1.4,1.6,2.6,2.9c1.1,1.1,2.6,2.6,2.7,2.7c0.6,0.5,0.7,0.6,0.8,0.6c0.1,0,0.1-0.1,0.1-0.2c0-0.1,0-0.3,0-0.6l0-5.9
		c0-0.6,0-0.7,0.3-0.8c0.1,0,0.2,0,0.2,0c0.1,0,0.2-0.1,0.2-0.2c0-0.2-0.2-0.1-0.3-0.2c-0.4,0-0.8,0-0.9,0c-0.1,0-0.6,0-1.1,0
		c-0.1,0-0.1,0-0.2,0c0,0-0.1,0.1-0.1,0.1c0,0,0,0.2,0.2,0.2c0.1,0,0.3,0,0.5,0c0.3,0,0.3,0.2,0.3,0.9l0.1,5l0.1,0l0.1-0.1
		c-0.3-0.3-1.4-1.5-2.4-2.6c-1.6-1.6-3.1-3.2-3.3-3.4c-0.1-0.1-0.3-0.3-0.5-0.3c-0.1,0-0.2,0.1-0.2,0.2c0,0.1,0,0.2,0,0.4l0,5.7
		c0,0.5,0,0.7,0,0.9c0,0.2-0.1,0.2-0.2,0.2c-0.1,0-0.3,0.1-0.4,0.1c-0.1,0-0.2,0.1-0.2,0.2c0,0.1,0,0.1,0.1,0.1c0.1,0,0.1,0,0.2,0
		c0.5,0,0.9,0,1,0c0.1,0,0.5,0,1.1,0c0.1,0,0.3,0,0.3-0.2c0-0.1-0.1-0.2-0.2-0.2c-0.1,0-0.3,0-0.5-0.1c-0.2-0.1-0.3-0.2-0.3-1.1
		L61.8,87.5L61.8,87.5L61.8,87.5L61.8,87.5L61.8,87.5l0,4.7c0,0.8,0.1,1.1,0.5,1.2c0.2,0.1,0.4,0.1,0.5,0.1l0,0h0l0,0l0,0h0l0,0l0,0
		c0,0-0.1,0-0.1,0c-0.6,0-1,0-1.1,0c-0.1,0-0.5,0-1,0c0,0-0.1,0-0.1,0l0,0l0,0l0,0l0,0l0,0l0,0h0l0,0l0,0h0l0,0c0.1,0,0.3,0,0.4-0.1
		c0.2,0,0.3-0.2,0.3-0.4c0-0.2,0.1-0.5,0.1-1v-5.7c0-0.2,0-0.3,0-0.4c0,0,0,0,0,0l0,0c0,0,0.2,0.2,0.3,0.3c0.2,0.2,1.7,1.8,3.3,3.4
		c1,1.1,2.1,2.2,2.4,2.6l0.1,0.2l-0.1-5.2c0-0.6-0.1-0.9-0.5-1c-0.2,0-0.4,0-0.5,0v0l0,0l0,0v0l0,0l0,0h0l0,0l0,0h0l0,0l0,0
		c0,0,0.1,0,0.1,0c0.5,0,1,0,1.1,0c0.1,0,0.5,0,0.9,0c0,0,0.1,0,0.1,0l0,0l0,0l0,0l0,0l0,0l0,0h0l0,0c0,0-0.1,0-0.3,0
		c-0.4,0.1-0.4,0.4-0.4,1l0,5.9c0,0.3,0,0.5,0,0.6c0,0,0,0.1,0,0.1l0,0v0l0,0l0,0v0c0,0-0.2-0.1-0.7-0.6c-0.1-0.1-1.6-1.6-2.7-2.7
		C63.4,89.1,62.2,87.8,61.8,87.5l-0.1-0.2L61.8,87.5L61.8,87.5z M54.8,90.4L54.8,90.4L54.8,90.4L54.8,90.4L54.8,90.4L54.8,90.4
		L54.8,90.4L54.8,90.4L54.8,90.4L54.8,90.4L54.8,90.4L54.8,90.4L54.8,90.4l1-2.8c0,0,0-0.1,0-0.1l0,0l0,0v0l0,0l0,0v0v0l0,0l0,0v0
		l0,0c0,0,0,0,0,0.1l1,2.7l0,0h0.1l0,0l0,0h0.1l0,0l0,0v0l0,0l0,0v0L54.8,90.4L54.8,90.4L54.8,90.4l2.1,0.1c0,0,0.1,0,0.1,0
		c0,0,0-0.1,0-0.1l0-0.1l-1-2.8c0-0.1-0.1-0.2-0.2-0.2c-0.1,0-0.1,0.1-0.2,0.2l-1,2.7l0,0.1L54.8,90.4L54.8,90.4L54.8,90.4z
		 M53.3,92.5L53.3,92.5c-0.3,0.5-0.5,0.8-0.9,0.8c-0.1,0-0.2,0-0.3,0c-0.1,0-0.2,0.1-0.2,0.2c0,0.2,0.2,0.2,0.3,0.2c0.4,0,0.9,0,1,0
		c0.1,0,0.7,0,0.9,0c0.1,0,0.2,0,0.2-0.2c0,0,0-0.1,0-0.1c0,0-0.1,0-0.1,0h-0.1c-0.2,0-0.3-0.1-0.3-0.2c0-0.2,0.1-0.4,0.1-0.6
		l0.6-1.6c0,0,0,0,0,0H57l0,0l0,0l0,0l0,0l0,0l0,0l0,0l0.9,2.3c0,0,0,0.1,0,0.1c0,0.1,0,0.1-0.1,0.1c0,0-0.1,0.1-0.1,0.1
		c0,0.1,0.1,0.1,0.2,0.1c0.1,0,0.2,0,0.3,0c0.7,0,1.5,0,1.6,0c0.1,0,0.3,0,0.3-0.2c0-0.1-0.1-0.2-0.2-0.2c-0.1,0-0.2,0-0.4-0.1
		c-0.2-0.1-0.5-0.2-0.8-1c-0.6-1.5-2.3-5.6-2.5-6.1c-0.1-0.2-0.1-0.4-0.3-0.4c-0.1,0-0.2,0.1-0.3,0.4L53.3,92.5L53.3,92.5L53.3,92.5
		l2.5-6.2c0.1-0.2,0.1-0.3,0.1-0.3c0,0,0,0,0,0c0,0,0,0,0.1,0.1c0,0.1,0.1,0.1,0.1,0.3c0.2,0.4,1.8,4.6,2.5,6.1
		c0.4,0.9,0.7,1.1,0.9,1.1c0.2,0.1,0.3,0.1,0.4,0.1l0,0l0,0l0,0h0l0,0l0,0h0h0l0,0l0,0h0l0,0c0,0-0.1,0-0.2,0c-0.2,0-0.9,0-1.6,0
		c-0.1,0-0.2,0-0.2,0l-0.1,0l0,0h0c0,0,0,0,0,0l0,0h0h0l0,0l0,0h0l0,0l0,0l0,0l0,0l0,0l0,0l0,0c0.1,0,0.2-0.1,0.2-0.2
		c0,0,0-0.1,0-0.1l-0.9-2.3c0-0.1-0.1-0.1-0.2-0.1h-2.4c-0.1,0-0.2,0.1-0.2,0.1l-0.6,1.6c-0.1,0.3-0.2,0.5-0.2,0.7
		c0,0.3,0.2,0.4,0.4,0.4h0.1l0,0l0,0h0l0,0l0,0h0h0l0,0l0,0h0l0,0c0,0,0,0-0.1,0c-0.2,0-0.8,0-0.9,0c-0.1,0-0.6,0-1,0
		c-0.1,0-0.1,0-0.1,0l0,0l0,0h0l0,0l0,0h0h0l0,0v0h0l0,0l0,0c0.1,0,0.2,0,0.3,0C53,93.5,53.2,93.1,53.3,92.5L53.3,92.5z M47.1,86.6
		L47.1,86.6c0.1,0,0.1,0,0.1,0c0.1,0,0.4,0,0.7,0c1.1,0,1.7,0.7,1.7,1.9c0,0.7-0.3,1.2-0.6,1.5C48.8,90,48.5,90,48.3,90
		c-0.4,0-1-0.1-1.1-0.1c0,0,0,0,0-0.1L47.1,86.6L47.1,86.6L47.1,86.6L47,89.8c0,0.1,0,0.2,0.1,0.2c0.2,0.1,0.7,0.2,1.2,0.2
		c0.2,0,0.6,0,0.8-0.2c0.4-0.3,0.7-0.8,0.7-1.6c0-0.6-0.2-1.2-0.5-1.5c-0.3-0.4-0.8-0.5-1.4-0.5c-0.3,0-0.6,0-0.8,0.1
		C47.1,86.4,47,86.5,47.1,86.6L47.1,86.6z M46.2,90.7L46.2,90.7c-0.1,1-0.1,1.8-0.1,2.2c0,0.3-0.1,0.4-0.2,0.5c-0.1,0-0.2,0-0.3,0
		c-0.1,0-0.2,0.1-0.2,0.2c0,0.1,0.1,0.2,0.2,0.2c0.3,0,1,0,1,0c0,0,0.7,0,1.3,0c0.1,0,0.2,0,0.2-0.2c0,0,0-0.1,0-0.1
		c0,0-0.1-0.1-0.1-0.1c-0.1,0-0.3,0-0.4,0c-0.3,0-0.3-0.2-0.3-0.5c0-0.4,0-1.2,0-2.1v-0.2l0,0l0,0l0,0l0,0l0,0l0,0l0,0v0l0,0l0,0v0
		l1.3,0c0.1,0,0,0,0.1,0c0.2,0.3,0.7,0.9,1.1,1.5c0.6,0.8,1,1.2,1.4,1.5c0.3,0.1,0.6,0.2,1.1,0.2h0.6c0.1,0,0.2,0,0.2,0
		c0.1,0,0.1-0.1,0.1-0.1c0-0.1-0.1-0.2-0.2-0.2c-0.1,0-0.2,0-0.4,0c-0.2,0-0.6-0.1-1.1-0.7c-0.6-0.6-1.3-1.5-2.2-2.6l-0.1,0.1
		l0.1,0.1c1-0.8,1.3-1.6,1.3-2.3c0-0.7-0.5-1.2-0.8-1.4C49.4,86,48.7,86,48,86c-0.3,0-1.2,0-1.3,0c-0.1,0-0.8,0-1.2,0
		c-0.1,0-0.1,0-0.2,0c-0.1,0-0.1,0.1-0.1,0.1c0,0.1,0.1,0.1,0.2,0.2c0.1,0,0.3,0,0.3,0c0.3,0.1,0.3,0.1,0.4,0.5c0,0.3,0,0.6,0,2.1
		L46.2,90.7L46.2,90.7L46.2,90.7l0.1-1.8c0-1.6,0-1.8,0-2.2c0-0.3-0.1-0.6-0.5-0.6c-0.1,0-0.3,0-0.4,0l0,0h0l0,0l0,0h0l0,0
		c0,0,0,0,0.1,0c0.5,0,1.2,0,1.2,0c0.1,0,1,0,1.3,0c0.7,0,1.4,0.1,1.9,0.4c0.2,0.2,0.7,0.6,0.7,1.3c0,0.7-0.3,1.4-1.2,2.2l-0.1,0.1
		l0,0.1c0.8,1.1,1.6,2,2.2,2.6c0.6,0.6,0.9,0.7,1.2,0.7c0.2,0,0.3,0,0.4,0l0,0h0l0,0l0,0h0l0,0l0,0l0,0l0,0l0,0l0,0c0,0-0.1,0-0.2,0
		h-0.6c-0.6,0-0.8-0.1-1.1-0.2c-0.4-0.2-0.8-0.7-1.4-1.4c-0.4-0.5-0.9-1.2-1.1-1.5c-0.1-0.1-0.1-0.1-0.2-0.1l-1.3,0c0,0-0.1,0-0.1,0
		c0,0,0,0.1,0,0.1v0.2c0,1,0,1.7,0,2.2c0,0.3,0.1,0.6,0.5,0.6c0.1,0,0.4,0,0.5,0l0,0h0l0,0l0,0h0l0,0c0,0,0,0-0.1,0
		c-0.6,0-1.2,0-1.3,0c0,0-0.7,0-1,0c0,0-0.1,0-0.1,0l0,0h0l0,0l0,0h0l0,0c0.1,0,0.2,0,0.3,0c0.3-0.1,0.3-0.3,0.3-0.6
		C46.3,92.5,46.3,91.7,46.2,90.7L46.2,90.7z M39.5,90.2L39.5,90.2c-0.1,1.1-0.1,2.1-0.1,2.5c0,0.3-0.1,0.6-0.3,0.6
		c-0.1,0-0.2,0-0.3,0c0,0-0.1,0-0.1,0c0,0,0,0.1,0,0.1c0,0.1,0,0.1,0.1,0.1c0.1,0,0.1,0,0.2,0c0.4,0,1.1,0,1.2,0c0.1,0,0.8,0,1.4,0
		c0.1,0,0.3,0,0.3-0.2c0,0,0-0.1,0-0.1c0,0-0.1,0-0.1,0c-0.1,0-0.4,0-0.5,0c-0.3,0-0.3-0.2-0.4-0.6c-0.1-0.5-0.1-1.4-0.1-2.5v-1l0,0
		l0,0l0,0l0,0l0,0l0,0l0,0l0,0l0,0l0,0l0,0l0,0c0.2,0,1.5,0,1.8,0c0.3,0,0.5,0.2,0.5,0.4c0,0.1,0.1,0.3,0.1,0.4c0,0.1,0,0.2,0.2,0.2
		c0.1,0,0.1-0.1,0.2-0.1c0-0.1,0-0.1,0-0.2c0-0.1,0-0.6,0-0.8c0-0.4,0.1-0.6,0.1-0.7c0,0,0-0.1,0-0.1c0,0-0.1-0.1-0.1-0.1
		c-0.1,0-0.1,0.1-0.2,0.1c-0.1,0.1-0.2,0.2-0.5,0.2c-0.2,0-0.3,0-0.5,0l-1.5,0l0,0l0,0l0,0l0,0l0,0l0,0l0,0v-3.3c0,0,0,0,0,0l0,0
		l1.8,0c0.4,0,0.7,0.2,0.7,0.3c0.1,0.1,0.1,0.3,0.1,0.4c0,0.1,0,0.2,0.2,0.2c0.1,0,0.2-0.1,0.2-0.2c0-0.2,0-0.7,0.1-0.8
		c0-0.3,0.1-0.4,0.1-0.6c0-0.1,0-0.2-0.2-0.2c-0.1,0-0.1,0.1-0.2,0.1c-0.1,0-0.3,0-0.5,0c-0.2,0-1.4,0-2.2,0c-0.3,0-0.6,0-0.7,0
		l-0.5,0c-0.3,0-0.6,0-0.9,0c-0.1,0-0.1,0-0.2,0c-0.1,0-0.1,0.1-0.1,0.1c0,0.1,0.1,0.2,0.2,0.2c0.1,0,0.3,0,0.4,0
		c0.4,0.1,0.4,0.2,0.4,0.6c0,0.4,0,0.7,0,2.5L39.5,90.2L39.5,90.2L39.5,90.2l0.1-2.1c0-1.8,0-2.2,0-2.5c0-0.4-0.2-0.7-0.6-0.7
		c-0.1,0-0.3,0-0.4,0l0,0l0,0h0l0,0l0,0h0h0h0h0c0,0,0,0,0.1,0c0.3,0,0.6,0,0.8,0l0.5,0c0.1,0,0.3,0,0.7,0c0.8,0,2,0,2.2,0
		c0.2,0,0.4,0,0.5-0.1c0.1,0,0.1-0.1,0.1-0.1v0l0,0l0,0v0l0,0l0,0c0,0-0.1,0.2-0.1,0.5c0,0.1,0,0.6-0.1,0.8l0,0.1l0,0l0,0v0l0,0l0,0
		v0v0l0,0l0,0v0l0,0c0,0,0,0,0-0.1c0-0.1,0-0.3-0.1-0.5c-0.1-0.2-0.4-0.4-0.9-0.4l-1.8,0c0,0-0.1,0-0.1,0.1c0,0,0,0.1,0,0.2v3.3
		c0,0,0,0.1,0,0.1c0,0,0.1,0.1,0.1,0.1l1.5,0c0.2,0,0.4,0,0.5,0c0.3,0,0.5-0.1,0.6-0.2l0.1-0.1l0,0l0,0v0l0,0l0,0v0v0l0,0l0,0v0l0,0
		l0,0c0,0-0.1,0.3-0.1,0.7c0,0.2,0,0.7,0,0.8c0,0.1,0,0.1,0,0.1l0,0l0,0v0l0,0l0,0v0v0l0,0l0,0v0l0,0l0,0c0-0.1,0-0.3-0.1-0.5
		c-0.1-0.2-0.3-0.4-0.7-0.5c-0.3,0-1.6,0-1.8,0c0,0-0.1,0-0.1,0.1c0,0,0,0.1,0,0.1v1c0,1.1,0,2.1,0.1,2.6c0,0.3,0.1,0.7,0.5,0.7
		c0.2,0,0.4,0,0.5,0l0,0l0,0h0l0,0l0,0h0l0,0c0,0,0,0-0.1,0c-0.6,0-1.4,0-1.4,0c-0.1,0-0.8,0-1.2,0c-0.1,0-0.1,0-0.1,0l0,0h0h0l0,0
		h0h0l0,0l0,0h0l0,0l0,0c0.1,0,0.3,0,0.4,0c0.3-0.1,0.4-0.4,0.4-0.7C39.6,92.3,39.6,91.3,39.5,90.2L39.5,90.2z M25.9,87.5L25.9,87.5
		c0.3,0.4,1.4,1.6,2.6,2.9c1.1,1.1,2.6,2.6,2.7,2.7c0.6,0.5,0.7,0.6,0.8,0.6c0.1,0,0.1-0.1,0.1-0.2c0-0.1,0-0.3,0-0.6l0-5.9
		c0-0.6,0-0.7,0.3-0.8c0.1,0,0.2,0,0.2,0c0.1,0,0.2-0.1,0.2-0.2c0-0.2-0.2-0.1-0.3-0.2c-0.4,0-0.8,0-0.9,0c-0.1,0-0.6,0-1.1,0
		c-0.1,0-0.1,0-0.2,0c0,0-0.1,0.1-0.1,0.1c0,0,0,0.2,0.2,0.2c0.1,0,0.3,0,0.5,0c0.3,0,0.3,0.2,0.3,0.9l0.1,5l0.1,0l0.1-0.1
		c-0.3-0.3-1.4-1.5-2.4-2.6c-1.6-1.6-3.1-3.2-3.3-3.4c-0.1-0.1-0.3-0.3-0.5-0.3c-0.1,0-0.2,0.1-0.2,0.2c0,0.1,0,0.2,0,0.4v5.7
		c0,0.5,0,0.7,0,0.9c0,0.2-0.1,0.2-0.2,0.2c-0.1,0-0.3,0.1-0.4,0.1c-0.1,0-0.2,0.1-0.2,0.2c0,0.1,0,0.1,0.1,0.1c0.1,0,0.1,0,0.2,0
		c0.5,0,0.9,0,1,0c0.1,0,0.5,0,1.1,0c0.1,0,0.3,0,0.3-0.2c0-0.1-0.1-0.2-0.2-0.2c-0.1,0-0.3,0-0.5-0.1c-0.2-0.1-0.3-0.2-0.3-1.1
		L25.9,87.5L25.9,87.5L25.9,87.5L25.9,87.5L25.9,87.5l0,4.7c0,0.8,0.1,1.1,0.5,1.2c0.2,0.1,0.4,0.1,0.5,0.1l0,0h0l0,0l0,0h0l0,0l0,0
		c0,0-0.1,0-0.1,0c-0.6,0-1,0-1.1,0c-0.1,0-0.5,0-1,0c0,0-0.1,0-0.1,0l0,0l0,0l0,0l0,0l0,0l0,0h0l0,0l0,0h0l0,0c0.1,0,0.3,0,0.4-0.1
		c0.2,0,0.3-0.2,0.3-0.4c0-0.2,0.1-0.5,0.1-1v-5.7c0-0.2,0-0.3,0-0.4c0,0,0,0,0,0l0,0c0,0,0.2,0.2,0.3,0.3c0.2,0.2,1.7,1.8,3.3,3.4
		c1,1.1,2.1,2.2,2.4,2.6l0.1,0.2l-0.1-5.2c0-0.6-0.1-0.9-0.5-1c-0.2,0-0.4,0-0.5,0v0l0,0l0,0v0l0,0l0,0h0l0,0l0,0h0l0,0l0,0
		c0,0,0.1,0,0.1,0c0.5,0,1,0,1.1,0c0.1,0,0.5,0,0.9,0c0,0,0.1,0,0.1,0l0,0l0,0l0,0l0,0l0,0l0,0h0l0,0c0,0-0.1,0-0.3,0
		c-0.4,0.1-0.4,0.4-0.4,1l0,5.9c0,0.3,0,0.5,0,0.6c0,0,0,0.1,0,0.1l0,0v0l0,0l0,0v0c0,0-0.2-0.1-0.7-0.6c-0.1-0.1-1.6-1.6-2.7-2.7
		C27.4,89.1,26.3,87.8,25.9,87.5l-0.1-0.2L25.9,87.5L25.9,87.5z M18.9,90.4L18.9,90.4L18.9,90.4L18.9,90.4L18.9,90.4L18.9,90.4
		L18.9,90.4L18.9,90.4L18.9,90.4L18.9,90.4L18.9,90.4L18.9,90.4L18.9,90.4l1-2.8c0,0,0-0.1,0-0.1l0,0l0,0v0l0,0l0,0v0v0l0,0l0,0v0
		l0,0c0,0,0,0,0,0.1l1,2.7l0,0H21l0,0l0,0H21l0,0l0,0v0l0,0l0,0v0L18.9,90.4L18.9,90.4L18.9,90.4l2.1,0.1c0,0,0.1,0,0.1,0
		c0,0,0-0.1,0-0.1l0-0.1l-1-2.8c0-0.1-0.1-0.2-0.2-0.2c-0.1,0-0.1,0.1-0.2,0.2l-1,2.7l0,0.1L18.9,90.4L18.9,90.4L18.9,90.4z
		 M17.4,92.5L17.4,92.5c-0.3,0.5-0.5,0.8-0.9,0.8c-0.1,0-0.2,0-0.3,0c-0.1,0-0.2,0.1-0.2,0.2c0,0.2,0.2,0.2,0.3,0.2c0.4,0,0.9,0,1,0
		c0.1,0,0.7,0,0.9,0c0.1,0,0.2,0,0.2-0.2c0,0,0-0.1,0-0.1c0,0-0.1,0-0.1,0h-0.1c-0.2,0-0.3-0.1-0.3-0.2c0-0.2,0.1-0.4,0.1-0.6
		l0.6-1.6c0,0,0,0,0,0h2.4l0,0l0,0l0,0l0,0l0,0l0,0l0,0l0.9,2.3c0,0,0,0.1,0,0.1c0,0.1,0,0.1-0.1,0.1c0,0-0.1,0.1-0.1,0.1
		c0,0.1,0.1,0.1,0.2,0.1c0.1,0,0.2,0,0.3,0c0.7,0,1.5,0,1.6,0c0.1,0,0.3,0,0.3-0.2c0-0.1-0.1-0.2-0.2-0.2c-0.1,0-0.2,0-0.4-0.1
		c-0.2-0.1-0.5-0.2-0.8-1c-0.6-1.5-2.3-5.6-2.5-6.1c-0.1-0.2-0.1-0.4-0.3-0.4c-0.1,0-0.2,0.1-0.3,0.4L17.4,92.5L17.4,92.5L17.4,92.5
		l2.5-6.2C20,86.1,20,86,20,86c0,0,0,0,0,0c0,0,0,0,0.1,0.1c0,0.1,0.1,0.1,0.1,0.3c0.2,0.4,1.8,4.6,2.5,6.1c0.4,0.9,0.7,1.1,0.9,1.1
		c0.2,0.1,0.3,0.1,0.4,0.1l0,0l0,0l0,0h0l0,0l0,0h0h0l0,0l0,0h0l0,0c0,0-0.1,0-0.2,0c-0.2,0-0.9,0-1.6,0c-0.1,0-0.2,0-0.2,0l-0.1,0
		l0,0h0c0,0,0,0,0,0l0,0h0h0l0,0l0,0h0l0,0l0,0l0,0l0,0l0,0l0,0l0,0c0.1,0,0.2-0.1,0.2-0.2c0,0,0-0.1,0-0.1l-0.9-2.3
		c0-0.1-0.1-0.1-0.2-0.1h-2.4c-0.1,0-0.2,0.1-0.2,0.1L18,92.5c-0.1,0.3-0.2,0.5-0.2,0.7c0,0.3,0.2,0.4,0.4,0.4h0.1l0,0l0,0h0l0,0
		l0,0h0h0l0,0l0,0h0l0,0c0,0,0,0-0.1,0c-0.2,0-0.8,0-0.9,0c-0.1,0-0.6,0-1,0c-0.1,0-0.1,0-0.1,0l0,0l0,0h0l0,0l0,0h0h0l0,0v0h0l0,0
		l0,0c0.1,0,0.2,0,0.3,0C17,93.5,17.3,93.1,17.4,92.5L17.4,92.5z M12.6,93.8L12.6,93.8c0.6,0.1,1.3-0.1,1.8-0.4c0.8-0.6,1-1.5,1-2
		c0-1-0.4-1.7-1.8-2.8l-0.3-0.3C12.3,87.4,12,87,12,86.3c0-0.8,0.6-1.3,1.4-1.3c1.1,0,1.3,0.5,1.4,0.6c0.1,0.1,0.1,0.4,0.1,0.6
		c0,0.1,0,0.2,0.2,0.2c0.1,0,0.1-0.1,0.1-0.1c0-0.1,0-0.1,0-0.2c0-0.8,0-1.2,0-1.2c0,0,0-0.1-0.1-0.1c0,0-0.1,0-0.1,0
		c-0.1,0-0.2,0-0.4-0.1c-0.3-0.1-0.6-0.1-1.1-0.1c-1.5,0-2.5,0.9-2.5,2.2c0,0.8,0.3,1.6,1.6,2.6l0.5,0.4c1,0.8,1.3,1.3,1.3,2.1
		c0,0.7-0.5,1.5-1.6,1.5c-0.8,0-1.5-0.3-1.7-1.1c0-0.2,0-0.3,0-0.4c0-0.1,0-0.1,0-0.1c0-0.1-0.1-0.1-0.1-0.1c-0.1,0-0.2,0.1-0.2,0.3
		c0,0.2-0.1,0.7-0.1,1.3c0,0.3,0,0.4,0.2,0.5C11.5,93.8,12.1,93.9,12.6,93.8L12.6,93.8L12.6,93.8c-0.5-0.1-1.1-0.2-1.5-0.4
		c-0.1-0.1-0.1,0-0.1-0.4c0-0.6,0-1.1,0.1-1.2c0-0.1,0-0.1,0-0.1v0l0,0v0l0,0l0,0v0h0l0,0l0,0l0,0l0,0l0,0c0,0,0,0,0,0.1
		c0,0.1,0,0.3,0,0.5c0.2,0.9,1,1.3,1.8,1.3c1.2,0,1.8-0.9,1.8-1.6c0-0.8-0.4-1.3-1.4-2.2l-0.5-0.4c-1.2-1-1.5-1.7-1.5-2.5
		c0-1.2,0.9-2,2.4-2c0.5,0,0.8,0,1.1,0.1c0.2,0,0.3,0.1,0.4,0.1c0,0,0,0,0,0l0,0l0,0l0,0l0,0l0,0l0,0c0,0,0,0.4,0,1.2
		c0,0.1,0,0.2,0,0.2l0,0l0,0v0l0,0l0,0v0v0l0,0l0,0v0l0,0c0,0,0,0,0-0.1c0-0.2-0.1-0.5-0.2-0.6c-0.1-0.1-0.4-0.7-1.5-0.7
		c-0.8,0-1.5,0.5-1.5,1.4c0,0.7,0.3,1.2,1.5,2l0.3,0.3c1.4,1.1,1.7,1.8,1.7,2.7c0,0.5-0.2,1.3-1,1.9C13.9,93.6,13.2,93.7,12.6,93.8
		L12.6,93.8z"/>
	<path id="XMLID_263_" class="st0" d="M79.2,98.3c0-1.8,0-2.2,0-2.5c0-0.4,0.1-0.6,0.5-0.7c0.1,0,0.3,0,0.4,0c0,0,0.1,0,0.1-0.1
		c0-0.1-0.1-0.1-0.2-0.1c-0.4,0-1.2,0-1.3,0c-0.1,0-0.8,0-1.3,0c-0.1,0-0.2,0-0.2,0.1c0,0,0,0.1,0.1,0.1c0.1,0,0.3,0,0.4,0
		c0.4,0.1,0.5,0.3,0.5,0.7c0,0.4,0,0.7,0,2.5v2.1c0,1.1,0,2.1-0.1,2.6c0,0.3-0.1,0.6-0.3,0.6c-0.1,0-0.2,0-0.4,0
		c-0.1,0-0.1,0-0.1,0.1c0,0.1,0.1,0.1,0.2,0.1c0.2,0,0.4,0,0.7,0c0.2,0,0.4,0,0.5,0c0.3,0,0.7,0,1.2,0c0.5,0,1.1,0,2,0
		c0.6,0,0.7,0,0.7-0.3c0.1-0.3,0.2-1,0.2-1.2c0-0.1,0-0.2-0.1-0.2c-0.1,0-0.1,0.1-0.1,0.2c0,0.2-0.2,0.5-0.3,0.7
		c-0.3,0.3-0.8,0.4-1.4,0.4c-0.9,0-1.2-0.1-1.4-0.3c-0.2-0.2-0.3-1-0.3-2.7V98.3z M70.6,99.9C70.6,99.9,70.6,99.8,70.6,99.9l1-3.3
		c0.1-0.2,0.1-0.2,0.2,0l1.1,3.2c0,0,0,0.1,0,0.1H70.6z M69,102.5c-0.2,0.6-0.4,1-1,1.1c-0.1,0-0.3,0-0.3,0c-0.1,0-0.1,0-0.1,0.1
		c0,0.1,0.1,0.1,0.2,0.1c0.6,0,1.2,0,1.3,0c0.1,0,0.6,0,0.9,0c0.1,0,0.2,0,0.2-0.1c0,0,0-0.1-0.1-0.1H70c-0.2,0-0.4-0.1-0.4-0.3
		c0-0.2,0.1-0.5,0.2-0.8l0.7-2.1c0-0.1,0.1-0.1,0.1-0.1H73c0.1,0,0.1,0,0.1,0.1l1.1,2.9c0.1,0.2,0,0.3-0.1,0.3c0,0-0.1,0-0.1,0.1
		c0,0.1,0.1,0.1,0.4,0.1c0.8,0,1.7,0,1.8,0c0.1,0,0.2,0,0.2-0.1c0-0.1,0-0.1-0.1-0.1c-0.1,0-0.3,0-0.5-0.1c-0.2-0.1-0.6-0.3-1-1.3
		c-0.7-1.8-2.6-6.7-2.7-7.1c-0.1-0.4-0.2-0.4-0.3-0.4c-0.1,0-0.1,0.1-0.3,0.5L69,102.5z M62.9,99.1C62.9,99.1,62.9,99,62.9,99.1
		c0.2-0.1,0.8-0.1,1-0.1c0.3,0,0.6,0.1,1,0.3c0.9,0.6,1.1,1.6,1.1,2.4c0,1.3-1,1.7-1.7,1.7c-0.2,0-0.7,0-1-0.2
		c-0.4-0.2-0.4-0.3-0.4-0.9c0-0.2,0-1.6,0-2.5V99.1z M62.9,95.4c0-0.1,0-0.1,0.1-0.1c0.2,0,0.4-0.1,0.6-0.1c1.2,0,1.6,1,1.6,2
		c0,0.5-0.2,0.9-0.4,1.2c-0.2,0.3-0.4,0.3-1.1,0.3c-0.4,0-0.6,0-0.7,0c-0.1,0-0.1,0-0.1-0.1V95.4z M61.9,100.4c0,1.1,0,2.1-0.1,2.6
		c0,0.3-0.1,0.6-0.3,0.6c-0.1,0-0.2,0-0.4,0c-0.1,0-0.1,0-0.1,0.1c0,0.1,0.1,0.1,0.2,0.1c0.2,0,0.4,0,0.7,0c0.2,0,0.4,0,0.5,0
		c0,0,0.4,0,0.7,0c0.3,0,0.7,0,0.8,0c2,0,3-1.3,3-2.6c0-1.4-1.2-2.2-2-2.5c0.6-0.6,1.1-1.2,1.1-2.1c0-0.6-0.4-1.8-2.4-1.8
		c-0.5,0-1,0-1.3,0c-0.1,0-0.8,0-1.3,0c-0.1,0-0.2,0-0.2,0.1c0,0,0,0.1,0.1,0.1c0.1,0,0.3,0,0.4,0c0.4,0.1,0.5,0.3,0.5,0.7
		c0,0.4,0,0.7,0,2.5V100.4z M51.3,99c0-2.6,1.5-3.9,3.4-3.9c1.9,0,3.6,1.5,3.6,4.3c0,3.4-2.2,4-3.2,4C53,103.5,51.3,101.7,51.3,99z
		 M50.2,99.3c0,2.1,1.3,4.6,4.6,4.6c2.8,0,4.7-2.2,4.7-4.8c0-2.7-2-4.4-4.6-4.4C51.6,94.7,50.2,97.4,50.2,99.3z M45.8,98.3
		c0-1.8,0-2.2,0-2.5c0-0.4,0.1-0.6,0.5-0.7c0.1,0,0.3,0,0.4,0c0,0,0.1,0,0.1-0.1c0-0.1-0.1-0.1-0.2-0.1c-0.4,0-1.2,0-1.3,0
		c-0.1,0-0.8,0-1.3,0c-0.1,0-0.2,0-0.2,0.1c0,0,0,0.1,0.1,0.1c0.1,0,0.3,0,0.4,0c0.4,0.1,0.5,0.3,0.5,0.7c0,0.4,0,0.7,0,2.5v2.1
		c0,1.1,0,2.1-0.1,2.6c0,0.3-0.1,0.6-0.3,0.6c-0.1,0-0.2,0-0.4,0c-0.1,0-0.1,0-0.1,0.1c0,0.1,0.1,0.1,0.2,0.1c0.2,0,0.4,0,0.7,0
		c0.2,0,0.4,0,0.5,0c0.3,0,0.7,0,1.2,0c0.5,0,1.1,0,2,0c0.6,0,0.7,0,0.7-0.3c0.1-0.3,0.2-1,0.2-1.2c0-0.1,0-0.2-0.1-0.2
		c-0.1,0-0.1,0.1-0.1,0.2c0,0.2-0.2,0.5-0.3,0.7c-0.3,0.3-0.8,0.4-1.4,0.4c-0.9,0-1.2-0.1-1.4-0.3c-0.2-0.2-0.3-1-0.3-2.7V98.3z
		 M40.3,102.8c0,0.2-0.1,0.3-0.2,0.4c-0.3,0.2-0.9,0.2-1.3,0.2c-1.1,0-2.2-0.4-3.1-1.3c-0.4-0.4-1.2-1.6-1.2-3.3
		c0-1.4,0.5-2.4,1.2-3c0.9-0.7,1.8-0.8,2.5-0.8c1.5,0,2.5,0.5,2.8,1c0.2,0.3,0.2,0.6,0.2,0.8c0,0.1,0,0.2,0.1,0.2
		c0.1,0,0.1-0.1,0.1-0.2c0-1.2,0.1-1.5,0.1-1.7c0,0,0-0.1-0.1-0.1c-0.3,0-0.7-0.1-1-0.1c-0.2,0-1.1-0.2-1.8-0.2
		c-0.9,0-2.1,0.1-3.1,0.7c-1,0.7-2,2-2,3.9c0,1.5,0.7,2.7,1.4,3.4c1.3,1.1,3,1.3,3.9,1.3c0.7,0,1.7-0.1,2.5-0.5
		c0.1-0.1,0.2-0.1,0.2-0.6v-1.3c0-0.5,0-0.8,0-1.2c0-0.4,0.1-0.6,0.4-0.7c0.1,0,0.2,0,0.3,0c0,0,0.1,0,0.1-0.1
		c0-0.1-0.1-0.1-0.2-0.1c-0.4,0-1.1,0-1.2,0c-0.1,0-0.8,0-1.3,0c-0.1,0-0.2,0-0.2,0.1c0,0,0,0.1,0.1,0.1c0.1,0,0.3,0,0.4,0
		c0.5,0.1,0.5,0.3,0.5,1.2V102.8z"/>
</g>
</svg>
