<svg xmlns="http://www.w3.org/2000/svg" width="28.271" height="28.271" viewBox="0 0 28.271 28.271"><defs><style>.a{fill:#fff;}</style></defs><g transform="translate(9.89 5.58)"><path class="a" d="M191.33,93.3a4.2,4.2,0,0,0-2.4.751.466.466,0,0,0-.118.646.459.459,0,0,0,.641.119,3.287,3.287,0,0,1,1.882-.588,3.34,3.34,0,1,1-2.951,1.806.466.466,0,0,0-.2-.626.459.459,0,0,0-.621.2,4.315,4.315,0,0,0-.477,1.972A4.246,4.246,0,1,0,191.33,93.3Z" transform="translate(-187.084 -93.297)"/></g><g transform="translate(0)"><g transform="translate(0)"><path class="a" d="M28.239,27.695,24.164,17.83a.413.413,0,0,0-.381-.256H19.722a21.057,21.057,0,0,0,1.961-3.2,12.344,12.344,0,0,0,1.371-5.386,8.919,8.919,0,1,0-17.837,0,12.344,12.344,0,0,0,1.371,5.386,21.045,21.045,0,0,0,1.961,3.2H4.489a.413.413,0,0,0-.381.256L1.33,24.552a.417.417,0,0,0,.223.544.411.411,0,0,0,.54-.224l.4-.959H5.3L3.843,27.438H1.032l.422-1.022a.417.417,0,0,0-.223-.544.412.412,0,0,0-.54.224l-.66,1.6a.418.418,0,0,0,.038.391.412.412,0,0,0,.343.185H27.858a.412.412,0,0,0,.343-.185A.419.419,0,0,0,28.239,27.695ZM6.043,8.985a8.093,8.093,0,1,1,16.185,0c0,1.885-.65,4.9-3.658,8.737l-.009.011q-.23.294-.479.594a31.767,31.767,0,0,1-3.947,3.962A31.718,31.718,0,0,1,10.2,18.34q-.255-.307-.491-.608l-.008-.01C6.694,13.884,6.043,10.871,6.043,8.985Zm-1.279,9.42H7.575L6.55,20.887H3.739Zm2.414,9.033,2.581-6.248L17.1,27.439Zm11.205,0h0l-8.523-7.25a.411.411,0,0,0-.648.158l-2.93,7.092H4.738L6.3,23.656a.418.418,0,0,0-.038-.391.412.412,0,0,0-.343-.185H2.833L3.4,21.719h3.43a.413.413,0,0,0,.381-.256l1.263-3.058h.717q.187.234.381.469a31.152,31.152,0,0,0,4.317,4.278.411.411,0,0,0,.505,0c.049-.038.7-.553,1.638-1.433H20.7a.416.416,0,0,0,0-.832H16.878c.572-.58,1.2-1.256,1.827-2.013q.195-.234.381-.469h4.422l1.025,2.482H22.354a.416.416,0,0,0,0,.832h2.522l.562,1.361H16.932a.413.413,0,0,0-.387.27.418.418,0,0,0,.116.46l4.149,3.628Zm3.685,0-4.032-3.526h7.745l1.457,3.526Z" transform="translate(-0.001)"/></g></g></svg>