<svg xmlns="http://www.w3.org/2000/svg" width="94.732" height="94.737" viewBox="0 0 94.732 94.737"><defs><style>.a{fill:#cc3e39;}</style></defs><path class="a" d="M245.033,292.867a1.972,1.972,0,0,1-1.938-2.357l2.791-13.954a1.935,1.935,0,0,1,.541-1.011l30.7-30.7a5.932,5.932,0,0,1,8.372,0l5.581,5.581a5.925,5.925,0,0,1,0,8.372l-30.7,30.7a1.963,1.963,0,0,1-1.011.541l-13.954,2.791A2.09,2.09,0,0,1,245.033,292.867Zm4.611-14.957-2.092,10.465,10.465-2.092L288.3,256a1.975,1.975,0,0,0,0-2.791l-5.582-5.582a1.975,1.975,0,0,0-2.791,0Zm9.343,10.192h0Z" transform="translate(-198.083 -198.13)"/><path class="a" d="M37.5,135.053H9.868A9.877,9.877,0,0,1,0,125.184V73.868A9.877,9.877,0,0,1,9.868,64h7.895a1.974,1.974,0,1,1,0,3.947H9.868a5.928,5.928,0,0,0-5.921,5.921v51.316a5.928,5.928,0,0,0,5.921,5.921H37.5a1.974,1.974,0,0,1,0,3.947Z" transform="translate(0 -52.158)"/><path class="a" d="M273.763,99.526a1.975,1.975,0,0,1-1.974-1.974V73.868a5.928,5.928,0,0,0-5.921-5.921h-7.895a1.974,1.974,0,1,1,0-3.947h7.895a9.877,9.877,0,0,1,9.869,9.868V97.553A1.975,1.975,0,0,1,273.763,99.526Z" transform="translate(-208.632 -52.158)"/><path class="a" d="M114.938,23.684H91.254a5.928,5.928,0,0,1-5.921-5.921V9.868a1.974,1.974,0,0,1,1.974-1.974h6.118a9.871,9.871,0,0,1,19.342,0h6.119a1.974,1.974,0,0,1,1.974,1.974v7.895A5.928,5.928,0,0,1,114.938,23.684ZM89.281,11.842v5.921a1.979,1.979,0,0,0,1.974,1.974h23.684a1.98,1.98,0,0,0,1.974-1.974V11.842h-5.921a1.975,1.975,0,0,1-1.974-1.974,5.921,5.921,0,0,0-11.842,0A1.974,1.974,0,0,1,95.2,11.842Z" transform="translate(-69.544)"/><path class="a" d="M105.447,174.614H65.974a1.974,1.974,0,1,1,0-3.947h39.474a1.974,1.974,0,1,1,0,3.947Z" transform="translate(-52.158 -139.088)"/><path class="a" d="M105.447,238.614H65.974a1.974,1.974,0,1,1,0-3.947h39.474a1.974,1.974,0,1,1,0,3.947Z" transform="translate(-52.158 -191.246)"/><path class="a" d="M105.447,302.614H65.974a1.974,1.974,0,1,1,0-3.947h39.474a1.974,1.974,0,1,1,0,3.947Z" transform="translate(-52.158 -243.404)"/></svg>