<svg xmlns="http://www.w3.org/2000/svg" width="81.716" height="81.693" viewBox="0 0 81.716 81.693"><defs><style>.a{fill:#b5095b;}</style></defs><g transform="translate(0 0.337)"><g transform="translate(0)"><path class="a" d="M80.552,23.166h0l0,0-5.274-.753a1.356,1.356,0,0,1-.622-2.427l4.263-3.2a1.356,1.356,0,0,0,.271-1.9L74.305,8.38a1.356,1.356,0,0,0-1.9-.271l-4.262,3.2a1.356,1.356,0,0,1-2.161-1.276l.754-5.275a1.356,1.356,0,0,0-1.15-1.535h0l-8.049-1.15A1.356,1.356,0,0,0,56,3.22h0L55.249,8.5a1.356,1.356,0,0,1-2.427.622l-3.2-4.263a1.356,1.356,0,0,0-1.9-.271L43.654,7.641a26.235,26.235,0,0,0-5.546,0,25.762,25.762,0,0,0-22.716,23.1c-.037.384-.05.765-.069,1.146h-.407a1.356,1.356,0,0,0-1.326,1.085l-.937,4.456L8.9,34.839A1.356,1.356,0,0,0,7.171,35L3.1,39.064a1.356,1.356,0,0,0-.157,1.727l2.576,3.746-4.457.937A1.356,1.356,0,0,0,0,46.8v5.424a1.356,1.356,0,0,0,1.077,1.327l4.457.937L2.957,58.237a1.356,1.356,0,0,0,.157,1.727l4.068,4.068a1.356,1.356,0,0,0,1.729.157l3.746-2.583.937,4.457a1.356,1.356,0,0,0,1.326,1.085h5.424a1.356,1.356,0,0,0,1.327-1.077l.937-4.457,3.746,2.576a1.356,1.356,0,0,0,1.727-.157l2.106-2.113v3.864a5.406,5.406,0,0,0,2.712,4.67v7.533a5.424,5.424,0,0,0,5.424,5.424h5.424a5.424,5.424,0,0,0,5.424-5.424V70.455a5.406,5.406,0,0,0,2.712-4.67V60.418a6.644,6.644,0,0,1,3.136-5.535,26.021,26.021,0,0,0,3.192-2.441L56.4,50.423a23.083,23.083,0,0,1-2.857,2.184,9.339,9.339,0,0,0-4.374,7.811v5.367A2.712,2.712,0,0,1,46.459,68.5H35.612A2.712,2.712,0,0,1,32.9,65.785V60.306a9.123,9.123,0,0,0-4.3-7.653,22.981,22.981,0,0,1,12.145-42.44,1.475,1.475,0,0,0-.053.148,1.356,1.356,0,0,0,.259,1l3.2,4.262a1.327,1.327,0,0,1,.081,1.505,1.348,1.348,0,0,1-1.356.652L37.6,17.03a1.356,1.356,0,0,0-1.535,1.15v0l-1.151,8.053a1.356,1.356,0,0,0,1.15,1.535h0l5.275.754a1.356,1.356,0,0,1,.622,2.427l-4.262,3.2a1.356,1.356,0,0,0-.271,1.9l4.881,6.508a1.356,1.356,0,0,0,1.9.271l4.263-3.2A1.356,1.356,0,0,1,50.623,40.9l-.753,5.275a1.356,1.356,0,0,0,1.149,1.535h0l8.054,1.151a1.5,1.5,0,0,0,.191.012,1.356,1.356,0,0,0,1.344-1.163l.753-5.275a1.356,1.356,0,0,1,2.427-.622l3.2,4.262a1.356,1.356,0,0,0,1.9.271l6.508-4.881a1.356,1.356,0,0,0,.271-1.9l-3.2-4.262a1.333,1.333,0,0,1-.081-1.505,1.317,1.317,0,0,1,1.356-.651l5.275.753a1.356,1.356,0,0,0,1.535-1.149h0L81.7,24.7A1.356,1.356,0,0,0,80.552,23.166ZM35.612,71.209H46.459v2.712H35.612Zm0,5.424H46.459v1.356A2.712,2.712,0,0,1,43.747,80.7H38.324a2.712,2.712,0,0,1-2.712-2.712ZM24.817,53.25a25.627,25.627,0,0,0,2.317,1.688,6.619,6.619,0,0,1,2.732,3.47l-2.908,2.9-2.816-1.942a2.712,2.712,0,0,0-4.192,1.675l-.711,3.386H16.016l-.71-3.38a2.712,2.712,0,0,0-4.192-1.675L8.3,61.311l-2.47-2.465,1.94-2.815a2.712,2.712,0,0,0-1.673-4.194l-3.38-.712V47.9l3.38-.712a2.712,2.712,0,0,0,1.675-4.186L5.825,40.183,8.3,37.718l2.819,1.942a2.712,2.712,0,0,0,4.191-1.676l.237-1.128a25.821,25.821,0,0,0,1.075,4.6,8.135,8.135,0,1,0,8.2,11.8Zm-2.106-1.91a5.416,5.416,0,1,1-5.085-7.249h.052A25.68,25.68,0,0,0,22.712,51.339Zm55.34-20.314-3.932-.561a4.068,4.068,0,0,0-3.829,6.468l2.382,3.177-4.339,3.254L65.95,40.187a4.068,4.068,0,0,0-7.281,1.864l-.549,3.938-5.368-.767.561-3.932a4.068,4.068,0,0,0-6.468-3.83l-3.177,2.382L40.414,35.5l3.176-2.384a4.068,4.068,0,0,0-1.864-7.281l-3.932-.561.767-5.368,3.932.561A4.068,4.068,0,0,0,46.323,14l-2.39-3.18,4.339-3.254,2.384,3.177A4.068,4.068,0,0,0,57.937,8.88L58.5,4.948l5.368.766L63.3,9.646a4.068,4.068,0,0,0,6.468,3.829l3.177-2.382L76.2,15.432l-3.177,2.384A4.068,4.068,0,0,0,74.891,25.1l3.932.561Z" transform="translate(0 -2.057)"/></g></g><g transform="translate(47.457 12.899)"><path class="a" d="M290.847,76.171a10.847,10.847,0,1,0,10.847,10.847A10.847,10.847,0,0,0,290.847,76.171Zm0,18.983a8.135,8.135,0,1,1,8.135-8.135A8.135,8.135,0,0,1,290.847,95.154Z" transform="translate(-280 -76.171)"/></g><g transform="translate(39.679 59.998)"><rect class="a" width="2.712" height="4.068"/></g><g transform="translate(22.041 15.462)"><path class="a" d="M143.108,122.511a16.271,16.271,0,0,1-2.747-28.926l-1.449-2.294a18.983,18.983,0,0,0,3.212,33.743,8.656,8.656,0,0,1,5.559,8.081h2.712A11.345,11.345,0,0,0,143.108,122.511Z" transform="translate(-130.044 -91.291)"/></g><g transform="translate(66.798 50.506)"><rect class="a" width="9.491" height="2.712"/></g><g transform="translate(64.574 57.599)"><g transform="translate(0 0)"><rect class="a" width="2.712" height="10.59" transform="translate(0 2.083) rotate(-50.201)"/></g></g><g transform="translate(58.662 61.354)"><rect class="a" width="2.712" height="9.491"/></g><g transform="translate(1.385 20.716)"><g transform="translate(0 0)"><rect class="a" width="11.18" height="2.71" transform="translate(0 2.711) rotate(-14.035)"/></g></g><g transform="translate(3.637 7.372)"><g transform="translate(0 0)"><rect class="a" width="2.71" height="11.663" transform="matrix(0.581, -0.814, 0.814, 0.581, 0, 2.206)"/></g></g><g transform="translate(15.255 0)"><g transform="translate(0 0)"><rect class="a" width="2.712" height="11.195" transform="translate(0 0.672) rotate(-14.342)"/></g></g></svg>