<svg xmlns="http://www.w3.org/2000/svg" width="85.731" height="85.703" viewBox="0 0 85.731 85.703"><defs><style>.a{fill:#370c60;}</style></defs><g transform="translate(0 -0.08)"><g transform="translate(5.746 5.798)"><path class="a" d="M62.177,32.106A29.995,29.995,0,1,0,92.171,62.1,29.995,29.995,0,0,0,62.177,32.106Zm0,2.857A27.109,27.109,0,0,1,84.338,46.489L80.767,50.06a5.637,5.637,0,0,0-2.879-.814,5.713,5.713,0,0,0-5.713,5.713,5.637,5.637,0,0,0,.81,2.884L63.632,67.2a5.539,5.539,0,0,0-5.768,0l-6.5-6.5a5.637,5.637,0,0,0,.81-2.884,5.7,5.7,0,0,0-11.224-1.428h-5.3A27.176,27.176,0,0,1,62.177,34.963Zm18.568,20A2.857,2.857,0,1,1,77.888,52.1,2.857,2.857,0,0,1,80.745,54.959ZM63.6,72.1a2.857,2.857,0,1,1-2.857-2.857A2.857,2.857,0,0,1,63.6,72.1ZM49.322,57.816a2.857,2.857,0,1,1-2.857-2.857A2.857,2.857,0,0,1,49.322,57.816ZM75.362,85.829A27.132,27.132,0,0,1,35.191,59.244h5.763a5.714,5.714,0,0,0,5.51,4.285,5.637,5.637,0,0,0,2.884-.81l6.5,6.5a5.637,5.637,0,0,0-.81,2.884,5.713,5.713,0,1,0,11.426,0,5.637,5.637,0,0,0-.81-2.884L75,59.862a5.637,5.637,0,0,0,2.884.81A5.713,5.713,0,0,0,83.6,54.959a5.637,5.637,0,0,0-.81-2.884l3.114-3.112A27.114,27.114,0,0,1,75.362,85.829Z" transform="translate(-32.182 -32.106)"/></g><g transform="translate(0 0.08)"><path class="a" d="M71.448,14.368a5.713,5.713,0,0,0,5.51-4.285h8.773V7.226H76.959A5.7,5.7,0,0,0,65.735,8.655a5.637,5.637,0,0,0,.81,2.884l-2.51,2.51A35.708,35.708,0,1,0,55.12,65.762l4.311,4.311,2.02,2.02,11.5,11.5A7.488,7.488,0,0,0,83.538,73L72.04,61.5l-2.02-2.02-4.311-4.311a35.589,35.589,0,0,0,0-38.759l2.857-2.857A5.639,5.639,0,0,0,71.448,14.368Zm0-8.57a2.857,2.857,0,1,1-2.857,2.857A2.857,2.857,0,0,1,71.448,5.8ZM81.518,75.02a4.632,4.632,0,1,1-6.476,6.625l-.074-.074-11.5-11.5,6.55-6.55ZM68,61.5l-6.55,6.55L57.5,64.1c.2-.154.39-.324.588-.483s.428-.349.641-.527c.313-.263.621-.528.924-.8.156-.143.3-.286.457-.429q.878-.823,1.7-1.7c.143-.153.286-.3.428-.457.273-.3.538-.611.8-.924q.269-.317.527-.641c.157-.2.327-.386.481-.587Zm-5.539-6.635c-.45.628-.914,1.244-1.4,1.837-.143.173-.3.34-.443.51q-.656.763-1.354,1.48-.3.314-.618.618-.714.7-1.48,1.354c-.17.143-.337.3-.51.443-.593.49-1.208.954-1.837,1.4a32.9,32.9,0,1,1,7.646-7.646Z" transform="translate(0 -0.08)"/></g></g></svg>