<svg xmlns="http://www.w3.org/2000/svg" width="79.041" height="79.041" viewBox="0 0 79.041 79.041"><defs><style>.a{fill:#ec8b05;}</style></defs><g transform="translate(28.882 14.403)"><path class="a" d="M197.723,93.3A10.525,10.525,0,0,0,191.7,95.18a1.169,1.169,0,0,0-.3,1.618,1.149,1.149,0,0,0,1.606.3,8.238,8.238,0,0,1,4.716-1.473,8.369,8.369,0,1,1-7.4,4.525,1.167,1.167,0,0,0-.491-1.569,1.15,1.15,0,0,0-1.557.495,10.814,10.814,0,0,0-1.2,4.942A10.639,10.639,0,1,0,197.723,93.3Z" transform="translate(-187.084 -93.297)"/></g><g transform="translate(0)"><g transform="translate(0)"><path class="a" d="M78.953,77.431,67.559,49.849a1.154,1.154,0,0,0-1.066-.716H55.14a58.873,58.873,0,0,0,5.482-8.952,34.512,34.512,0,0,0,3.834-15.059,24.935,24.935,0,1,0-49.869,0A34.511,34.511,0,0,0,18.42,40.181,58.841,58.841,0,0,0,23.9,49.133H12.549a1.154,1.154,0,0,0-1.066.716L3.719,68.644a1.166,1.166,0,0,0,.622,1.521,1.149,1.149,0,0,0,1.509-.627l1.108-2.682h7.859l-4.072,9.859H2.886l1.181-2.858a1.166,1.166,0,0,0-.622-1.521,1.151,1.151,0,0,0-1.509.627L.089,77.431a1.17,1.17,0,0,0,.105,1.092,1.152,1.152,0,0,0,.96.518H77.887a1.152,1.152,0,0,0,.96-.518A1.17,1.17,0,0,0,78.953,77.431ZM16.9,25.122a22.626,22.626,0,1,1,45.251,0c0,5.271-1.818,13.694-10.227,24.427l-.024.031q-.644.821-1.34,1.661A88.818,88.818,0,0,1,39.521,62.318a88.681,88.681,0,0,1-11-11.041q-.714-.859-1.372-1.7l-.021-.027C18.714,38.817,16.9,30.395,16.9,25.122ZM13.318,51.459h7.859L18.311,58.4H10.452Zm6.751,25.256,7.216-17.468L47.819,76.715Zm31.329,0h0L27.57,56.445a1.15,1.15,0,0,0-1.81.442L17.568,76.715H13.245L17.614,66.14a1.17,1.17,0,0,0-.105-1.092,1.152,1.152,0,0,0-.96-.518H7.919l1.572-3.805h9.59a1.154,1.154,0,0,0,1.066-.716l3.532-8.549h2q.522.655,1.064,1.311A87.1,87.1,0,0,0,38.815,64.732a1.148,1.148,0,0,0,1.413,0c.136-.106,1.969-1.545,4.581-4.008H57.881a1.163,1.163,0,0,0,0-2.326H47.188c1.6-1.621,3.35-3.512,5.109-5.628q.544-.655,1.064-1.311H65.724L68.59,58.4H62.5a1.163,1.163,0,0,0,0,2.326h7.052l1.572,3.805H47.338a1.155,1.155,0,0,0-1.082.756,1.169,1.169,0,0,0,.325,1.285l11.6,10.144Zm10.3,0L50.429,66.856H72.084l4.073,9.859Z" transform="translate(-0.001)"/></g></g></svg>