<?xml version="1.0" encoding="utf-8"?>
<!-- Generator: Adobe Illustrator 19.0.0, SVG Export Plug-In . SVG Version: 6.00 Build 0)  -->
<svg version="1.1" id="Layer_1" xmlns="http://www.w3.org/2000/svg" xmlns:xlink="http://www.w3.org/1999/xlink" x="0px" y="0px"
	 viewBox="0 0 316 330.7" style="enable-background:new 0 0 316 330.7;" xml:space="preserve">
<style type="text/css">
	.st0{fill:#803580;}
</style>
<g id="XMLID_98_">
	<g id="XMLID_306_">
		<path id="XMLID_331_" class="st0" d="M81.6,102.4V55.8c0-2.7,0.3-5.3,1-7.8H53.1C43.2,48,35,56.2,35,66.2v46.6
			c0,9.9,8.2,18.1,18.1,18.1H57l13.3,17.6c1.5,1.9,3.6,3,5.9,3.1h0.3c2.3,0,4.4-0.9,5.8-2.7l15.5-17.7
			C88.2,125.2,81.6,114.5,81.6,102.4L81.6,102.4z M81.6,102.4"/>
		<path id="XMLID_328_" class="st0" d="M265.5,48H236c0.7,2.5,1,5.1,1,7.8v46.6c0,12.1-6.5,22.8-16.2,28.8l15.5,17.7
			c1.5,1.8,3.5,2.7,5.8,2.7h0.3c2.3-0.1,4.5-1.2,5.9-3.1l13.2-17.6h3.9c9.9,0,18.1-8.2,18.1-18.1V66.2C283.7,56.2,275.5,48,265.5,48
			L265.5,48z M265.5,48"/>
		<path id="XMLID_325_" class="st0" d="M159.3,141.3c-0.1,0-0.2,0-0.3,0c-2.3-0.1-4.5-1.2-5.9-3.1l-13.2-17.6h-24.6
			c-10,0-18.1-8.1-18.1-18.1V55.8c0-10,8.1-18.1,18.1-18.1h88.1c10,0,18.1,8.1,18.1,18.1v46.6c0,10-8.1,18.1-18.1,18.1H181
			l-15.8,18.1C163.7,140.3,161.6,141.3,159.3,141.3L159.3,141.3z M159.3,141.3"/>
		<path id="XMLID_322_" class="st0" d="M97.2,193.1c0,11.4-9.3,20.7-20.7,20.7c-11.4,0-20.7-9.3-20.7-20.7
			c0-11.4,9.3-20.7,20.7-20.7C87.9,172.4,97.2,181.6,97.2,193.1L97.2,193.1z M97.2,193.1"/>
		<path id="XMLID_319_" class="st0" d="M104.1,228.3c-10.5,7.9-17.3,20.5-17.3,34.7v2.6h-44c-4.2,0-7.8-3.5-7.8-7.8v-5.2
			c0-15.7,12.7-28.5,28.5-28.5h25.9C94.8,224.2,99.9,225.7,104.1,228.3L104.1,228.3z M104.1,228.3"/>
		<path id="XMLID_316_" class="st0" d="M262.9,193.1c0,11.4-9.3,20.7-20.7,20.7c-11.4,0-20.7-9.3-20.7-20.7
			c0-11.4,9.3-20.7,20.7-20.7C253.7,172.4,262.9,181.6,262.9,193.1L262.9,193.1z M262.9,193.1"/>
		<path id="XMLID_313_" class="st0" d="M283.7,252.7v5.2c0,4.2-3.5,7.8-7.8,7.8h-44V263c0-14.2-6.8-26.8-17.3-34.7
			c4.2-2.6,9.3-4.1,14.7-4.1h25.9C270.9,224.2,283.7,236.9,283.7,252.7L283.7,252.7z M283.7,252.7"/>
		<path id="XMLID_310_" class="st0" d="M190.4,187.9c0,17.2-13.9,31.1-31.1,31.1s-31.1-13.9-31.1-31.1s13.9-31.1,31.1-31.1
			S190.4,170.7,190.4,187.9L190.4,187.9z M190.4,187.9"/>
		<path id="XMLID_307_" class="st0" d="M187.8,234.5h-57c-15.7,0-28.5,12.8-28.5,28.5v15.5c0,4.3,3.5,7.8,7.8,7.8h98.4
			c4.3,0,7.8-3.5,7.8-7.8V263C216.3,247.3,203.5,234.5,187.8,234.5L187.8,234.5z M187.8,234.5"/>
	</g>
</g>
</svg>
