<?xml version="1.0" encoding="utf-8"?>
<!-- Generator: Adobe Illustrator 19.0.0, SVG Export Plug-In . SVG Version: 6.00 Build 0)  -->
<svg version="1.1" id="Layer_1" xmlns="http://www.w3.org/2000/svg" xmlns:xlink="http://www.w3.org/1999/xlink" x="0px" y="0px"
	 viewBox="0 0 316 330.7" style="enable-background:new 0 0 316 330.7;" xml:space="preserve">
<style type="text/css">
	.st0{fill:#BB2027;}
</style>
<g id="XMLID_13_">
	<g id="XMLID_108_">
		<path id="XMLID_109_" class="st0" d="M267,281.5h-11.5V144.7c0-5.7-5.1-10.9-10.9-10.9h-22.4c-5.1-23.7-25.6-41.5-51.8-46v-8.3
			h36.4c5.8,0,10.9-4.5,10.9-10.9V45c0-5.7-5.1-10.9-10.9-10.9h-37c-1.3-3.8-5.1-7-10.2-7c-5.7,0-10.9,5.1-10.9,10.9v49.9
			c-26.2,3.8-47.3,22.3-51.8,46H74.6c-5.7,0-10.9,5.1-10.9,10.9v136.8H53.5c-5.7,0-10.9,4.5-10.9,10.9c0,6.4,5.1,10.9,10.9,10.9
			h214.1c5.7,0,10.9-5.1,10.9-10.9C278.5,286.6,273.4,281.5,267,281.5L267,281.5z M143,155.6h34.5v24.3H143V155.6z M143,248.9h34.5
			v24.3H143V248.9z M198.6,248.9h35.2v24.3h-35.2V248.9z M234.4,227.2h-35.8V201h35.2v26.2H234.4z M177.5,201v26.2H143V201H177.5z
			 M121.9,227.2H86.8V201h35.2V227.2z M86.1,248.9h35.8v24.3H86.8v-24.3H86.1z M234.4,179.9h-35.8v-24.3h35.2v24.3H234.4z
			 M86.1,155.6h35.8v24.3H86.8v-24.3H86.1z M86.1,155.6"/>
	</g>
</g>
</svg>
