<?xml version="1.0" encoding="utf-8"?>
<!-- Generator: Adobe Illustrator 19.0.0, SVG Export Plug-In . SVG Version: 6.00 Build 0)  -->
<svg version="1.1" id="Layer_1" xmlns="http://www.w3.org/2000/svg" xmlns:xlink="http://www.w3.org/1999/xlink" x="0px" y="0px"
	 viewBox="0 0 96.1 185.8" style="enable-background:new 0 0 96.1 185.8;" xml:space="preserve">
<style type="text/css">
	.st0{fill:#0067B1;}
	.st1{fill:#FFFFFF;}
</style>
<g>
	<rect x="3.7" y="94.8" class="st0" width="43.1" height="43.1"/>
	<path class="st1" d="M35.1,110.1c0,2.6-0.8,4.7-2.3,6.2c-2,2.1-5.2,3.2-8.8,3.2c-1.1,0-2.1,0-3-0.3v11.5h-3.7v-28.4
		c1.8-0.3,4.1-0.6,7.1-0.6c3.7,0,6.4,0.9,8.1,2.4C34.2,105.4,35.1,107.5,35.1,110.1z M31.4,110.5c0-3.8-2.7-5.7-6.8-5.7
		c-1.6,0-2.9,0.2-3.5,0.3v11.2c0.8,0.2,1.9,0.3,3.1,0.3C28.7,116.6,31.4,114.4,31.4,110.5z"/>
	<rect x="49.5" y="94.8" class="st0" width="43.1" height="43.1"/>
	<path class="st1" d="M63.8,130.8v-12.3c0-4.8,0-8.2-0.3-11.9l0.1,0c1.4,3.1,3.3,6.4,5.3,9.6l9.1,14.6h3.8V102h-3.5v12.1
		c0,4.4,0.1,7.9,0.4,11.8l-0.1,0c-1.3-3-3-6-5.1-9.3L64.4,102h-4.1v28.8H63.8z"/>
	<rect x="3.7" y="140.3" class="st0" width="43.1" height="43.1"/>
	<path class="st1" d="M14.7,147.5v17c0,9,4.4,12.3,10.3,12.3c6.2,0,10.9-3.6,10.9-12.4v-16.8h-3.8v17.1c0,6.3-2.8,9.1-7,9.1
		c-3.8,0-6.7-2.7-6.7-9.1v-17.1H14.7z"/>
	<rect x="49.5" y="140.3" class="st0" width="43.1" height="43.1"/>
	<path class="st1" d="M83.9,161.1c0,4.7-1.5,8.5-4.1,11.2c-2.7,2.7-7.2,4.1-12.8,4.1c-2.7,0-4.9-0.1-6.8-0.3v-28.3
		c2.3-0.3,5-0.6,7.9-0.6c5.3,0,9.1,1.2,11.7,3.5C82.4,153,83.9,156.4,83.9,161.1z M80,161.2c0-6.9-3.8-11.1-11.7-11.1
		c-1.9,0-3.4,0.2-4.4,0.4v22.8c0.9,0.2,2.3,0.2,3.8,0.2C75.7,173.4,80,169,80,161.2z"/>
	<rect x="3.7" y="3.2" class="st0" width="88.9" height="88.9"/>
	<g>
		<path class="st1" d="M70.9,66.5c-2,0.5-4.2,0.7-6.2,1.4c3.4-2.9,3.2-7.3,5.4-10.7c0.7-1,1.3-2,2.1-2.9c-1.4,2.7-0.8,6.3-2.3,8.9
			c-0.6,1.1-1.5,2.1-2.4,2.9c0.3,0,0.6-0.3,0.9-0.5c2.5-2.5,5.9-3.2,8.6-5.3c1.1-0.9,2.1-2,2.6-3.3C79,61.3,74.8,65.3,70.9,66.5z"/>
		<g>
			<path class="st1" d="M80,49.5c-1.2,1.8-2.8,3.4-3.9,5.2c0.1-1.4,0.3-3.2-0.3-4.5c-1-2.9-1.8-5.9-2.1-9l0-1.2
				c0.7,3.3,3.9,5.5,3.7,9.2c0.1,0.9-0.2,1.6-0.4,2.4l0.1,0.1l0.1-0.2c0.5-1.8,0.7-3.7,1.4-5.3c1.1-2.4,2.4-4.8,1.8-7.7
				C82.2,41.7,81.8,46.3,80,49.5z"/>
			<path class="st1" d="M78.1,31c2.1,2.8,2.6,7.4,1,10.6c-0.6,1.4-1,2.9-1.2,4.4c-0.1-0.3-0.1-0.6-0.2-0.9c-0.8-3.2-3.9-5.5-5.1-8.5
				c-0.4-1-0.7-2-0.9-3.1c1.3,2.5,4.6,3.7,5.5,6.4c0.4,0.7,0.3,1.5,0.6,2.3c0,0,0.1,0,0.1-0.1c-0.4-2.8-0.3-5.7,0.1-8.5
				c0-1.5-0.2-2.9-1-4.1C77.5,30,77.7,30.6,78.1,31z"/>
			<path class="st1" d="M76.6,30.5c0.6,2.5-0.3,4.9,0.3,7.4l0,0c-1.4-2.7-4.2-3.9-6.2-6.1c-1.1-1.3-1.6-2.8-1.9-4.4
				c1.1,2.7,4.2,3.3,6,5.6c0.6,0.5,0.8,1.3,1.2,1.9l0.1-0.1c-1-2.2-1.3-4.6-2-6.9c-0.4-1-1.1-2-2-2.6C74.1,25.9,76.1,28.3,76.6,30.5
				z"/>
			<path class="st1" d="M70.4,24.8c1.7,1.6,2.5,3.6,3,5.7l0.3,0.7c-2.5-1.8-4.8-4.3-6.4-6.8l-2-2C67.1,23,68.9,23.5,70.4,24.8z"/>
			<path class="st1" d="M30.6,22.6c-1.7,1.5-3,3.5-4.2,5.3c-1.2,1.4-2.6,2.4-4,3.6c0.7-1.5,0.7-3.2,1.7-4.6
				C25.5,24.4,28.2,23.5,30.6,22.6z"/>
			<path class="st1" d="M21,27.9c0.8-1.1,1.9-1.8,3.1-2.1c-2.3,1.6-2.2,4.5-2.9,6.9c-0.2,0.9-0.7,1.7-0.9,2.6l0.1,0
				c0.4-1,1.1-2,1.9-2.8c1.7-1.5,4.1-2.5,5-4.8c0,3.2-2.7,5.7-5.2,7.4c-1,0.9-2,2-2.6,3.1c-0.1-0.8,0.1-1.6,0.1-2.5
				C19.3,33.1,19.1,30,21,27.9z"/>
			<path class="st1" d="M16.3,37.4c-0.1-2.8,1.1-5.1,2.7-7.2c0,0,0.1-0.1,0.1-0.1c-1.8,2.7-0.3,6.2-0.4,9.3l-0.2,3.2
				c0,0,0,0.1,0.1,0.1c0.1-0.4,0.1-0.7,0.2-1.1c0.4-2.6,2.7-4.4,4.6-6.2c0.4-0.5,0.8-0.9,1-1.5c-0.2,1.3-0.6,2.6-1.1,3.8
				c-1.5,3-4.3,5.4-4.8,8.8C18.3,43.3,16.1,40.8,16.3,37.4z"/>
			<path class="st1" d="M14.9,41.4c0.2-0.9,0.4-1.8,0.7-2.6c-0.7,3.7,1.8,6.4,2.6,9.6c0.3,1.2,0.4,2.5,0.9,3.6c0,0,0.1,0,0.1-0.1
				c-1.2-3.4,0.5-6.6,2.3-9.2c0.4-0.7,0.7-1.5,0.9-2.4c0.2,1.5-0.2,3.3-0.4,4.9c-0.4,2-1.1,4-1.6,5.9c-0.4,1.2-0.3,2.6-0.1,3.9
				L20.1,55c-1.3-2.4-3.9-4.2-4.6-6.9C14.9,46,14.5,43.6,14.9,41.4z"/>
			<path class="st1" d="M14.8,48.6c0.3,3.9,4.5,6,6.5,9.2c0.5,0.7,0.9,1.4,1.5,2c-0.1-0.4-0.5-0.8-0.6-1.2c-0.7-1.4-0.9-3-0.8-4.6
				c0.2-2,1-3.9,0.7-6c1.7,3.7,1.2,8.3,2.2,12.3c0.2,0.9,0.8,1.7,1.1,2.5c-3.5-2.4-8.3-4.7-9.9-9.1C14.7,52.2,14.7,50.3,14.8,48.6z"
				/>
			<path class="st1" d="M16.9,57.6c2,4.5,6.9,4.8,10.2,7.5c0.6,0.5,1.2,1,1.9,1.3l0,0c-0.8-0.7-1.6-1.5-2.2-2.4
				c-1.9-2.7-1.3-6.5-2.7-9.4c1.3,1.6,2.5,3.2,3.3,5c1.2,2.9,1.6,6.2,4.4,8.4c-3-1-6.4-0.7-9-2.5C20,63.9,17.4,60.9,16.9,57.6z"/>
			<path class="st1" d="M22,65.9c3.2,3.6,8.3,2.4,12.5,3.3c0.6,0.1,1.1,0.3,1.8,0.2c-0.5-0.3-1.2-0.3-1.7-0.6
				c-3.3-1.2-3.8-4.7-5.6-7.1c2.3,1.5,4.2,3.6,6.3,5.5c1.5,1.3,3.3,1.9,5.3,2.3c-0.5,0.2-1.1,0.1-1.6,0.2c-3.4,0.9-7.3,2.2-11,1
				C25.6,70.1,23.2,68.3,22,65.9z"/>
			<path class="st1" d="M64.8,74.3c-3.6,1.3-7.3-0.1-10.1-2.2c-1.1-0.7-2.1-1.7-3.6-1.6c-0.5,0-1,0-1.5,0.1c2.7,1.3,5.2,3,7.5,5.2
				c-0.4,0.4-0.9,0.9-1.4,1.2c-2.2-2.4-4.7-4.7-7.4-6c-0.5,0.1-1,0.4-1.5,0.7c-2.2,1.4-4.4,3.2-6.1,5.4L39.4,76
				c2.3-2.3,4.8-4.1,7.5-5.4c-2.7-0.9-4.5,1.4-6.5,2.6c-2.4,1.7-5.8,2.5-8.7,1.3c-1.6-0.6-3.1-1.5-4.2-2.9c2.3,1.6,5.7,1.7,8.3,0.7
				c3.5-1.5,7.1-3.4,11.3-2.5c0.7,0,1.3,0.7,1.9,0.1c3.1-0.8,6.6-0.2,9.3,1.2l2.8,1.1c2.6,0.9,5.9,0.7,8.1-0.9
				C68,72.7,66.4,73.7,64.8,74.3z"/>
			<path class="st1" d="M68.6,70.6c-4,1.5-8-0.3-11.8-1l-0.7-0.1v0c1.8-0.4,3.6-1,5.1-2.3c2.1-2.1,4.1-4.2,6.4-5.8
				c-1.8,2.3-2,5.5-4.9,6.9c-0.7,0.5-1.6,0.6-2.4,0.9c1.1,0,2-0.4,3.1-0.5c3.9-0.6,8.4,0,11.1-3.3C73.5,67.8,71,69.8,68.6,70.6z"/>
			<path class="st1" d="M75.9,59.4c-1.6,1-3.2,2-4.7,3.2v-0.1c2.3-3.9,1.2-9.2,2.6-13.4l0.5-1.4c-0.3,2.6,0.9,4.9,0.8,7.5
				c-0.1,1.6-0.6,3-1.4,4.3h0.1c1.1-1.5,2-3.1,3.4-4.5c2.1-2,4.2-4,4.4-6.8C82.3,52.7,79.7,56.8,75.9,59.4z"/>
		</g>
		<path class="st1" d="M69.6,33.8c-3.9-8.3-12.4-13.5-21.4-13.5c-3.9,0.1-7.5,0.9-10.8,2.6c-5.8,2.8-10.6,8.8-12.2,14.8
			C22.6,47.8,26.1,58,34.8,64C41,68.4,51,69.3,58,65.9c6.2-2.6,11.5-9,13.2-15.4C72.7,45.1,72,38.6,69.6,33.8z M70.7,42.2
			c0.1,0.4,0,0.9,0.2,1.2l-3.4,0.1c-0.1,0.1-0.2,0.1-0.3,0.1l0.1-0.1c-0.1-2.7-0.8-5.1-1.8-7.4c0-1-1-1.7-1.4-2.6
			c-0.8-0.5-1-1.4-1.8-1.9c-0.2-0.2-0.2-0.5-0.5-0.5l0.4-0.1c0.8-0.8,1.7-1.7,2.4-2.5C68,32.4,70.2,36.9,70.7,42.2z M61,55
			c-0.3-0.3-0.3-0.8-0.8-0.8c-0.2,0-0.3,0.1-0.3,0.3c0,0.1,0,0.2,0,0.2l-1.1-0.9c0.5-0.3,0.9-0.9,1.3-1.4c1-1.4,1.6-2.9,2.1-4.5
			c0.2,0.1,0.4,0.1,0.5,0c0.2-0.1,0.2-0.4,0.1-0.5l-0.4-0.4c0-0.7,0.2-1.4,0.2-2.1l0.3,0.1c1.1,0,2.2,0.1,3.3,0L66,44.9
			c-0.3,4.3-1.8,8.1-4.8,11.3C61.4,55.8,61,55.5,61,55z M58.3,58.4c-0.6-0.6,0.4-1,0.6-1.6c-0.1-0.6-0.7-0.9-1.2-1
			c-0.2-0.1-0.2-0.4-0.2-0.6c0.2-0.2,0.4-0.4,0.5-0.7l0.1,0.2l1.5,1.5c0,0.3,0.1,0.6,0.4,0.8c0.2,0.1,0.3-0.1,0.5,0h-0.1
			c-0.6,0.7-1.4,1.2-2.1,1.8l-0.2,0.2C58,58.8,58.5,58.7,58.3,58.4z M51.6,40.1c-0.2,0.1-0.4,0.2-0.6,0.1c-0.2-0.2-0.5-0.5-0.8-0.5
			c-0.2,0.1-0.4,0.3-0.7,0.2c0.4-0.5,1.2-0.5,1.5-1.2c0.1-0.3,0.2-0.6,0.1-0.9c-0.1-0.1-0.3-0.3-0.5-0.1c-0.2,0.4-0.8,0.5-1,0.9
			l-0.9-0.3c-0.1-0.8,0.1-1.8-0.2-2.5c0.5,0.2,0.9,0.2,1.4,0.3c1.2,0.3,2.3,0.9,3.4,1.5c-0.2,0.1-0.5,0.4-0.7,0.6
			c0,0.2,0.2,0.2,0.3,0.3l0.2-0.1C53,39.2,51.7,39.1,51.6,40.1z M52.6,49.9c0,0.4-0.6,0.4-0.9,0.7c-0.2-0.1,0-0.2,0-0.3
			C52,50,52.2,49.8,52.6,49.9z M59.3,38.5c0.4,0.1,0.6,0.5,1,0.6c0.4,0.5,0.5,1.2,0.7,1.8c-0.3,0.4-0.3,1.2-1,1
			c-0.2-0.4,0.3-0.6,0.2-1c0.1-0.1,0.3-0.1,0.3-0.3c0-0.4-0.5-0.3-0.5-0.7c-0.1-0.2-0.4-0.2-0.6-0.2c-0.5-0.2-0.9,0.9-1,0
			c0.1-0.1,0.2-0.3,0.1-0.5c-0.4-0.2-0.4-0.8-0.9-1c-0.6,0-1.1-0.2-1.7-0.1c-0.4-0.1-0.8-0.3-1.1,0.1c0,0.3-0.2,0.5-0.2,0.8
			c-0.1-0.1-0.3-0.2-0.3-0.3c1-1.2,2.2-2.3,3.3-3.5l0.1-0.1c0.5,0.7,1.2,1.4,1.6,2.1C59.5,37.8,58.6,38.2,59.3,38.5z M61.4,44.8
			c-0.2,0.6-0.2,1.4-0.3,2c0,0.1,0,0.2-0.1,0.3c-0.2-0.4-0.4-0.9-0.8-1.2c-0.4-0.2-0.1-0.7-0.5-1l-0.4-0.4
			C59.9,44.9,60.7,44.8,61.4,44.8z M56.5,34.7c-0.6,0.7-1.4,1.4-2,2.1l-0.1-0.2c-1.6-1.3-3.4-1.9-5.3-2.2l-0.3,0.1l0-3.2L48.7,31
			c1.3,0.2,2.6,0.4,3.8,0.8c1.5,0.5,3,1.4,4.3,2.5l0.3,0.1L56.5,34.7z M53.2,52.3c1,0.1,2,0.3,3,0.7c0.2,0,0.5,0,0.7-0.2
			c-0.1-0.4,0.4-0.6,0.4-1c0.2-0.3,0.1-0.8,0.3-1.1c0-0.4,0-0.9-0.3-1.2c-0.3-0.2-0.5,0-0.7,0.1c-0.3,0.2-0.2,0.8-0.7,0.7
			c-0.1,0.2-0.3,0.2-0.5,0.1c0-0.1-0.1-0.1-0.1-0.1c0.4-0.2,1-0.1,1-0.6c0.3-0.2,0.7-0.1,0.9-0.4c0.2-0.3,0.3-0.5,0.5-0.8
			c0-0.1,0.1-0.2,0.1-0.4c0.1,0.2,0.1,0.4,0.3,0.5c0.3,0.1,0.4-0.1,0.5-0.3c0-0.1,0.1-0.2,0.2-0.1c0.3,0.2,0.7,0,1.1,0.1
			c0.3-0.1,0.6-0.2,0.9-0.2c-0.3,1.3-1,2.5-1.7,3.7c-0.3,0.4-0.6,0.8-0.9,1.1c-0.1-0.3-0.1-0.6-0.3-0.9l-0.1,0
			c-0.2,0.4-0.6,0.7-0.5,1.1c-0.3,0.4-1,0.1-1.4,0.3c-0.5,0.2-0.8-0.3-1.2-0.5c-0.5-0.2-1-0.2-1.4-0.4
			C53.1,52.4,53.1,52.3,53.2,52.3z M51,21.7c4.7,0.7,9,2.5,12.6,5.9l-0.4,0.2c-0.7,0.7-1.4,1.3-1.8,2.1c0-0.2-0.4-0.4-0.5-0.6
			c-0.1-0.7-0.7-1.3-1.3-1.6c-0.5-0.1-0.6-0.8-1.1-0.6c-0.5-0.4-1.1-0.1-1.5,0.1v0.1c-2.3-1.3-4.8-2.1-7.5-2.3
			c-0.1,0-0.2,0.1-0.3,0.1c0.1-0.1,0.1-0.4,0.1-0.5c-0.1-0.1-0.2-0.3-0.4-0.2c-0.1,0.1-0.1,0.2-0.1,0.3c0.1-1.1,0.1-2.3,0-3.3
			C49.4,21.7,50.2,21.6,51,21.7z M50.1,26.5c2.1,0.2,3.9,0.8,5.8,1.6c0.3,0.4,0.8,0.6,0.9,1.1c-0.3,0.7,1,0.7,0.4,1.4
			c0,0.2,0.2,0.4,0.2,0.5c0.1,0.2,0,0.5,0.2,0.6c0.4,0.1,0.6-0.5,1-0.3c0.6,0.4,0.7,1.1,0.7,1.7c0.1,0.4,0.4,0.7,0.7,0.8
			c0.7-0.2,0.4,0.6,0.9,0.8c0.5,0.1,0.8,0.8,1.4,0.7c0.5,0.4,0.8,1,1.3,1.4c0,0.1,0,0.2,0.1,0.2c0.3,0.1,0.5-0.1,0.7-0.1
			c0.9,1.9,1.4,3.9,1.5,6.1l0.1,0.2c-1.1,0-2.3,0-3.5,0.1c0-0.7,0-1.4-0.4-1.9c0.2-0.4,0.2-0.8,0.2-1.2c-0.1-0.2-0.2,0-0.3,0
			c-0.4,0.4-0.4,0.9-0.6,1.3c-0.3,0.5-0.4,1.2-0.2,1.7l0.1,0.1l-1.3,0c0.3-0.2-0.3-0.6,0-0.9l0.6-0.1c0.2-0.4,0.7-0.8,0.7-1.3
			c0.3-0.3,0.5-0.7,0.3-1.2c-0.3-0.7,0.5-1.3-0.1-1.9c0.1-0.2-0.1-0.4-0.3-0.4c-0.2-0.1-0.4,0-0.4-0.3c0.1-0.2,0.4-0.3,0.3-0.6
			c-0.1-0.2-0.4,0-0.5,0c0-0.3,0.5-0.6,0-0.9c-0.3-0.1-0.5,0.3-0.8,0.2c-0.1-0.1-0.2-0.3-0.1-0.5l-0.7-0.9c-0.1-0.1-0.3,0-0.3-0.1
			c0-0.7-0.8-1.1-0.9-1.8c-0.3-0.2,0-0.7-0.4-0.9c-0.2-0.1-0.4-0.3-0.7-0.2c-0.3-0.4-0.6-0.8-1-1.2c-0.1,0-0.2,0-0.3,0.1
			c0.1,0.3,0.5,0.5,0.4,0.9c-0.1,0-0.1,0-0.1,0c0,0.3,0.3,0.6,0.5,0.9c-1.9-1.4-4.1-2.2-6.4-2.6c-0.5,0-0.9-0.2-1.4,0
			c0.1-1,0-2.2,0.1-3.3l-0.1-0.2C49.1,26.5,49.6,26.4,50.1,26.5z M48.1,40.1l0.2,0.1c-0.2,0-0.5-0.1-0.7,0c-0.1,0.1,0,0.3,0,0.4
			c0.4,0.2,0.5,0.9,1.1,0.6c0.2,0,0.5,0.1,0.6,0.4c0.3,0.1,0.4,0.7,0.9,0.6c0,0.2-0.1,0.6,0.2,0.8c-0.1,0.2-0.3,0.3-0.3,0.5
			c-0.1,0.1-0.1,0.2,0,0.3c0.4,0,0.4,0.5,0.6,0.8c-0.1,0.3,0,0.7,0.3,0.9c0,0.4-0.2,0.7-0.4,1.1c-0.5,0.2-1.2-0.3-1.4,0.5
			c-0.3,0.3,0,0.9-0.5,0.9c-1,0.1-1.9-0.1-2.6-0.7c0.5-0.2,1.3,0.1,1.5-0.6c0.1-0.1,0.2-0.3,0.1-0.5c0.2-0.2,0.3-0.5,0.4-0.8
			c-0.2-0.2-0.1-0.3-0.1-0.5c-0.5-0.5-1.1-0.2-1.8-0.2c-0.4,0.2,0,0.6-0.3,0.9c-0.5,0.1-0.5,0.5-0.8,0.8c-0.2-0.1-0.3-0.3-0.3-0.5
			h0.1c0,0.1,0,0.2,0.1,0.2c0.5,0.1,0.3-0.4,0.5-0.7c0.1-0.3,0.7-0.7,0.2-0.9c0-0.1,0.1-0.3-0.1-0.3c-0.2,0.1-0.4,0.1-0.5,0.3
			c0.1,0.2,0,0.4-0.2,0.6h-0.1c0-0.1-0.1-0.2-0.2-0.3c-0.3,0-0.5,0.2-0.8,0.1c-0.4,0.1-0.8,0.2-1.2,0.2c0-0.2,0.3-0.2,0.4-0.4
			c-0.1-0.4,0.2-0.6,0.3-0.8c0.1-0.1,0.3-0.1,0.4,0c0.1,0.1,0.2,0.2,0.3,0.1l0.1-0.2c0.4,0.2,0.2,1.2,0.9,0.8c0.1-0.4,0-1,0.2-1.4
			c-0.2-0.4,0.2-0.5,0.4-0.8c0.4,0,0.3-0.4,0.5-0.6c0.6-0.2,1.2-0.3,1.5-0.9c-0.1-0.3,0-0.7-0.3-1C47.5,40.1,47.9,39.9,48.1,40.1z
			 M47.5,62.1l-0.3-0.2c-4.4-0.2-8.2-2-11.5-4.9c0.5-0.1,0.7,0.7,1.3,0.5c0.6-0.1,1.1-0.6,1.8-0.5c0.3,0,0.7,0,1-0.3
			c0.1-0.4-0.3-0.5-0.3-0.8c2.2,1.7,4.8,2.7,7.6,2.9l0.3-0.1v3.1L47.5,62.1z M35.1,45l-0.2-0.3c0.4,0.3,0.7,0.2,1.1,0.1
			c-0.6,0.2-0.4,0.9-0.6,1.3c0,0.2,0.3,0.3,0.2,0.5c-0.3,0.1-0.3,0.5-0.5,0.7C35.4,46.6,35.1,45.8,35.1,45z M31.5,49.1
			c-0.3,0-0.2,0.4-0.4,0.6c0-0.8-0.3-1.6-0.5-2.5L30.4,45l-0.1-0.2c1,0.2,2.2,0.1,3.3,0.1l0.3-0.1c-0.1,0.5-0.1,1.3,0.3,1.7
			C34,46.4,33.8,46,33.5,46c-0.6,0-0.7,0.8-1.3,0.9c-0.5,0.4-0.6,1-0.7,1.6C31.8,48.6,31.4,48.9,31.5,49.1z M33.9,43.6l-0.3-0.1
			l-3.2,0.1c0.3-3.6,1.3-7,3.4-9.8l1.3-1.6l0-0.2c0.8,0.9,1.6,1.7,2.5,2.5c-2.3,2.5-3.5,5.5-3.8,8.9C33.8,43.4,33.8,43.6,33.9,43.6z
			 M47.4,29.8c-0.6-0.1-1.2,0.1-1.9,0.1c-2.6,0.5-5.1,1.7-7.1,3.6l-0.1-0.2c-0.8-0.7-1.5-1.7-2.4-2.2c0.8-0.5,1.4-1.1,2.2-1.6
			c2.7-1.8,5.8-2.9,9.3-3.1C47.3,27.5,47.3,28.7,47.4,29.8z M42.1,47.7c0,0.1,0.2,0.2,0.3,0.1c0.1-0.2-0.3-0.5,0-0.6
			c0.2,0.2,0.1,0.6,0.2,0.8c0.1,0.1,0.1,0.3,0.1,0.5c-0.3,0.4-0.8,0.7-1,1.2c-0.2-0.5-0.7-1-0.9-1.5c-0.3-0.6-0.5-1.3-0.9-1.9
			c0.3,0.4,1,0,1,0.6c0,0,0.1,0,0.2,0c0.1-0.1,0.1-0.1,0.2-0.1c0.1,0.1,0.3,0.2,0.1,0.3C41.6,47.4,41.8,47.7,42.1,47.7z M45.6,57
			l0.6,0.3c-2.1-0.5-4.3-1.2-6.1-2.7c-0.3-0.2-0.5-0.6-0.9-0.6c0.8-0.7,1.7-1.6,2.4-2.4c0.3,0.6,1,0.9,1.5,1.3
			c0.9,0.4,1.8,1.2,2.9,1c-0.3,0.1-0.6,0.3-0.9,0.6c-0.1,0.3-0.1,0.8-0.5,0.9C44.6,55.9,45.2,56.5,45.6,57z M38,52.8L37.9,52
			c-0.7-0.6-0.5-1.6-0.6-2.4c-0.5-0.4-0.1-1-0.4-1.4c0-0.7-1.1-0.9-0.7-1.7c-0.1-0.2-0.3-0.4-0.1-0.7c0.2-0.3,0.7,0,0.8-0.3l0.1-0.6
			c0.3-0.1,0.6,0.2,0.7-0.2c0.2-0.6-0.9-1.3,0.1-1.6c0.3,0,0.8-0.1,0.9,0.3c0.1,0.5,0.2,0.9,0,1.4c0.3,0.1,0,0.4,0,0.6
			c-0.2,0.1-0.4,0.3-0.6,0.2c-0.1-0.2-0.3-0.4-0.5-0.4c-0.2,0.2,0.1,0.5,0,0.8c-0.1,0.2,0,0.4-0.1,0.5c-0.1-0.1-0.2-0.1-0.3-0.1
			c-0.2,0.1-0.1,0.3,0,0.5c0.2,0.1,0.4,0.3,0.6,0.3L38,47c0-0.4,0.2-0.7,0.2-1.1l0.3,0.2c0.3,1.5,1,2.8,1.8,4.1l0.5,0.4
			c-1.1,0.9-2.1,2.1-3,3.1v0c0,0,0-0.2-0.2-0.2C37.4,53.1,38.2,53.3,38,52.8z M39.7,38.7c-0.3,0.2-0.6,0.5-0.8,0.8
			c-0.3,0.2-0.7,0.2-0.9,0.5c0,0.1,0.2,0.3,0,0.4c-0.3,0.3-0.8-0.1-1,0.4c-0.1,0.4-0.6,0.7-0.5,1.2c-0.3,0.2-0.2,0.6-0.2,0.9
			c0.2,0.2-0.1,0.5,0.2,0.7c-0.5-0.1-1.1-0.1-1.5,0.1c0.2-0.5,0.2-1.2,0.3-1.8c0.4-2.5,1.6-4.6,3.2-6.6c0.8,0.8,1.7,1.7,2.6,2.4
			C40.4,37.8,40.4,38.8,39.7,38.7z M47,51.5c-0.2,0.3,0,0.7-0.1,1c-1.6-0.3-3-0.9-4.3-2c0.7-0.8,1.7-1.5,2.2-2.4
			c0.1,0.4,0.5,0.6,0.8,0.7c0.6,0.3,1.4,0.7,2.1,0.4c-0.1,0-0.1,0.1-0.2,0.1c0.2,0.2-0.2,0.4,0.1,0.6c0,0.2-0.2,0.1-0.2,0.2
			c0.1,0.2,0,0.6,0.3,0.7c0.1,0.1,0,0.3-0.1,0.3C47.4,51.3,47.1,51.3,47,51.5z M43.2,48c0.2-0.2,0.4-0.5,0.5-0.8l0.4,0.2
			C43.7,47.4,43.5,47.8,43.2,48L43.2,48z M46.5,38.3c-0.1-0.2,0.1-0.3-0.1-0.5c-0.5,0.2-0.3,0.9-0.7,1.2c-0.1,0.3-0.5,0.2-0.7,0.3
			c-0.1-0.2-0.4-0.2-0.6-0.1c-0.3,0-0.3-0.6-0.6-0.3c-0.1,0.1,0,0.3-0.3,0.2c0-0.1-0.1-0.1-0.2-0.1c0-0.2,0.3-0.2,0.2-0.4
			c-0.2-0.4-0.7-0.3-1-0.6h-0.3c1.4-1.5,3.2-2.1,5.1-2.4c0,0.9-0.1,1.8,0.2,2.6C47.3,38,46.9,38.5,46.5,38.3z M47.4,34.5
			c-0.6-0.1-1.2,0.1-1.8,0.2c-1.3,0.3-2.5,1.1-3.6,1.9c-0.1,0.1-0.1,0.2-0.2,0.3c-0.8-0.7-1.6-1.7-2.5-2.4c2.3-1.9,4.9-3.1,7.9-3.4
			l0.2-0.1C47.3,32.1,47.3,33.4,47.4,34.5z M34.6,26.1c3.8-2.7,8-4.3,12.8-4.5l-0.1,0.3l0,2.8l0.1,0.3c-4.6,0.2-8.7,1.9-12.1,5.1
			l-0.1,0.2c-0.8-0.9-1.7-1.8-2.6-2.5h-0.1C33.2,27.3,33.9,26.6,34.6,26.1z M25.8,41.5c0.6-4.9,2.7-9.2,6.1-12.9l0.1,0.3
			c0.8,0.8,1.6,1.6,2.4,2.4c-0.7,0.5-1.1,1.2-1.6,1.8c-2.1,3-3.3,6.4-3.6,10.2l0.1,0.5c-1.2-0.1-2.5-0.1-3.7,0
			C25.7,42.9,25.6,42.2,25.8,41.5z M28.5,55.3c-1.7-3.2-2.7-6.6-2.9-10.4l3.3,0l0.3-0.1c0,0.2,0,0.4,0,0.7l0,0
			c-0.1,0.1,0.1,0.1,0.1,0.2c0.1,1.3,0.3,2.4,0.6,3.6l0.2,0.3c-0.2-0.2-0.3-0.5-0.5-0.7c-0.3,0-0.6,0.1-0.8,0.3
			c0.1,0.3-0.2,0.2-0.4,0.3c0-0.1-0.1-0.2-0.2-0.2c-0.2,0-0.5,0-0.6,0.3c0,0.2-0.2,0.3-0.2,0.4c-0.1,0.5-0.2,1.2,0.1,1.7
			c0,0.4,0.2,0.7,0.5,1c0.1,0,0.2-0.1,0.3-0.1c0.3,0.2,0.5,0.8,1,0.7c0.1-0.1,0.1-0.2,0.1-0.3c0.2,0.2,0.4,0.8,0.8,0.7
			c0.1,0.1,0.2,0.3,0.4,0.3c0.5-0.1,0.3,0.6,0.7,0.8c0.3,0.2,0.4,0.6,0.9,0.4l0.1-0.2c0.1,0.1,0,0.3,0.1,0.5c0.2,0.4,0.6,0.7,1,0.8
			c0.3,0.4,0.7,0.9,1.1,1.1L34,57.3l-2.4,2.4C30.6,58.3,29.4,56.9,28.5,55.3z M45.2,66.5c-4.8-0.7-8.9-2.7-12.6-5.9l2.4-2.5l0-0.1
			c3.4,3.3,7.5,4.9,12.1,5.2l0.4-0.1l-0.1,0.2v3.2l0.2,0.3C46.8,66.6,46,66.7,45.2,66.5z M48.1,53.1c-0.3,0-0.5,0-0.7-0.1
			c-0.1,0-0.1-0.1-0.1-0.2c0.3,0,0.5-0.4,0.9-0.3c0.2-0.2,0.3-0.5,0.5-0.6c-0.1-0.3,0.3-0.1,0.4-0.3c0.1-0.1,0.2-0.2,0.4-0.1
			c0.2,0.3,0.7,0.2,1,0.6c0.1,0,0.2-0.1,0.1-0.2v-0.1c0.4,0,0.6,0.5,1,0.1c0.1-0.1,0.1-0.3,0-0.3c0,0-0.1,0-0.1-0.1
			c0.3-0.1,0.4,0.4,0.8,0.2c0.3-0.2,0.5-0.5,0.8-0.5l0.1,0.1c0.1,0.7-0.5,1.1-1.1,1.5c-0.3,0.1-1,0.1-1,0.7
			c-0.4,0.4-0.8-0.2-1.2-0.1c-0.2-0.1,0-0.4-0.3-0.5C49,53,48.4,52.5,48.1,53.1z M49,59.1c0.4,0.2,1.2-0.2,1.4,0.3
			c-0.1,0.3-0.3,0.5-0.3,0.9c0.2,0.4,0.4,1,1,1.1c0.1,0.2,0.3,0.2,0.5,0.3c-1,0.2-2,0.1-2.8,0.4c0.1-1,0-2,0-2.9l-0.2-0.3
			C48.8,58.9,48.8,59,49,59.1z M49,66.7l-0.2,0.1c0.1-1.2,0.1-2.5,0-3.7c0.6,0.2,1.2,0,1.8,0l1.8-0.3c0.9,0.2,1.5,1.6,2.5,0.7
			c0.3-0.4,1-0.4,1.2-0.9c0.6-0.2,0.7-0.8,1.1-1.2c0.4-1.1,1.7-1.3,2.4-2.1c0.6-0.5,1.3-0.9,1.6-1.6l0.1,0.3l2.5,2.4
			C59.7,64.3,54.7,66.5,49,66.7z M70.8,45c-0.2,5.5-2.3,10.3-5.9,14.5l-0.1,0.2C64,58.8,63,57.7,62.1,57c0.5-0.4,1-1,1.4-1.5
			c2.3-3.1,3.6-6.6,3.8-10.5l-0.1-0.3l0.2,0.1l3.4,0l0.2-0.1L70.8,45z"/>
		<path class="st1" d="M58.7,26.4c0,0.1,0,0.2,0.1,0.3c0.5,0.2,0.6,0.9,1.2,0.7c0.2-0.2-0.1-0.4-0.1-0.7c-0.1-0.2-0.3-0.4-0.5-0.4
			C59.1,26.6,58.9,26.1,58.7,26.4z"/>
		<path class="st1" d="M49.2,24.4c0.6,0.8,1.7,0.4,2.5,0.2c0.6,0.2,1.1,0,1.5-0.4v-0.1c-0.4-0.6-1.2-0.7-1.9-0.7l-1.7,0.7
			c-0.1-0.1-0.4-0.1-0.5,0.1C49.1,24.2,49.2,24.3,49.2,24.4z"/>
	</g>
</g>
</svg>

