<?xml version="1.0" encoding="utf-8"?>
<!-- Generator: Adobe Illustrator 19.0.0, SVG Export Plug-In . SVG Version: 6.00 Build 0)  -->
<svg version="1.1" id="Layer_1" xmlns="http://www.w3.org/2000/svg" xmlns:xlink="http://www.w3.org/1999/xlink" x="0px" y="0px"
	 viewBox="0 0 316 330.7" style="enable-background:new 0 0 316 330.7;" xml:space="preserve">
<style type="text/css">
	.st0{fill:#EF9231;}
</style>
<g id="XMLID_93_">
	<g id="XMLID_227_">
		<path id="XMLID_242_" class="st0" d="M181.7,220.9c-0.7,4.5-1.9,8.8-3.4,12.9l14,12.7c-2,4.1-4.2,8.1-6.8,11.8l-18-5.8
			c-2.8,3.5-6,6.6-9.5,9.5l5.8,18c-3.7,2.6-7.7,4.8-11.8,6.8l-12.7-14c-4.1,1.6-8.4,2.7-12.9,3.4l-4,18.5c-2.3,0.2-4.5,0.3-6.8,0.3
			c-2.3,0-4.6-0.2-6.8-0.3l-4-18.5c-4.5-0.7-8.8-1.9-12.9-3.4l-12.7,14c-4.1-2-8.1-4.2-11.8-6.8l5.8-18c-3.5-2.8-6.6-6-9.5-9.5
			l-18,5.8c-2.6-3.7-4.8-7.7-6.8-11.8l14-12.7c-1.6-4.1-2.7-8.4-3.4-12.9l-18.5-4c-0.2-2.3-0.3-4.5-0.3-6.8s0.2-4.6,0.3-6.8l18.5-4
			c0.7-4.5,1.9-8.8,3.4-12.9l-14-12.7c2-4.1,4.2-8.1,6.8-11.8l18,5.8c2.8-3.5,6-6.6,9.5-9.5l-5.8-18c3.7-2.6,7.7-4.8,11.8-6.8
			l12.7,14c4.1-1.6,8.4-2.7,12.9-3.4l4-18.5c2.3-0.2,4.5-0.3,6.8-0.3c2.3,0,4.6,0.2,6.8,0.3l4,18.5c4.5,0.7,8.8,1.9,12.9,3.4
			l12.7-14c4.1,2,8.1,4.2,11.8,6.8l-5.8,18c3.5,2.8,6.6,6,9.5,9.5l18-5.8c2.6,3.7,4.8,7.7,6.8,11.8l-14,12.7
			c1.6,4.1,2.7,8.4,3.4,12.9l18.5,4c0.2,2.3,0.3,4.5,0.3,6.8s-0.2,4.6-0.3,6.8L181.7,220.9z M115.6,165.4c-24.7,0-44.7,20-44.7,44.7
			s20,44.7,44.7,44.7s44.7-20,44.7-44.7S140.3,165.4,115.6,165.4L115.6,165.4z M115.6,165.4"/>
		<path id="XMLID_238_" class="st0" d="M243.6,95.3c-0.7,2.3-1.6,4.5-2.7,6.6l7.1,13.5c-2.4,3-5.1,5.7-8.1,8.1l-13.5-7.1
			c-2.1,1.1-4.3,2-6.6,2.7l-4.6,14.6c-1.9,0.2-3.8,0.4-5.7,0.4c-1.9,0-3.8-0.1-5.7-0.4l-4.6-14.6c-2.3-0.7-4.5-1.6-6.6-2.7
			l-13.5,7.1c-3-2.4-5.7-5.1-8.1-8.1l7.1-13.5c-1.1-2.1-2-4.3-2.7-6.6l-14.6-4.6c-0.2-1.9-0.4-3.8-0.4-5.7s0.1-3.8,0.4-5.7l14.6-4.6
			c0.7-2.3,1.6-4.5,2.7-6.6l-7.1-13.5c2.4-3,5.1-5.7,8.1-8.1l13.5,7.1c2.1-1.1,4.3-2,6.6-2.7l4.6-14.6c1.9-0.2,3.8-0.4,5.7-0.4
			c1.9,0,3.8,0.1,5.7,0.4l4.6,14.6c2.3,0.7,4.5,1.6,6.6,2.7l13.5-7.1c3,2.4,5.7,5.1,8.1,8.1l-7.1,13.5c1.1,2.1,2,4.3,2.7,6.6
			l14.6,4.6c0.2,1.9,0.4,3.8,0.4,5.7s-0.1,3.8-0.4,5.7L243.6,95.3z M209.4,67.1c-9.9,0-17.9,8-17.9,17.9s8,17.9,17.9,17.9
			s17.9-8,17.9-17.9S219.3,67.1,209.4,67.1L209.4,67.1z M209.4,67.1"/>
		<path id="XMLID_234_" class="st0" d="M279.7,196.1c-0.7,2.5-1.7,4.8-2.9,7l4.4,9.4c-2,2.6-4.3,4.9-6.9,6.9L265,215
			c-2.2,1.2-4.5,2.2-7,2.9l-3.5,9.8c-1.6,0.2-3.2,0.3-4.9,0.3s-3.3-0.1-4.9-0.3l-3.5-9.8c-2.5-0.7-4.8-1.7-7-2.9l-9.4,4.4
			c-2.6-2-4.9-4.3-6.9-6.9l4.4-9.4c-1.2-2.2-2.2-4.5-2.9-7l-9.8-3.5c-0.2-1.6-0.3-3.2-0.3-4.9c0-1.7,0.1-3.3,0.3-4.9l9.8-3.5
			c0.7-2.5,1.7-4.8,2.9-7L218,163c2-2.6,4.3-4.9,6.9-6.9l9.4,4.4c2.2-1.2,4.5-2.2,7-2.9l3.5-9.8c1.6-0.2,3.2-0.3,4.9-0.3
			s3.3,0.1,4.9,0.3l3.5,9.8c2.5,0.7,4.8,1.7,7,2.9l9.4-4.4c2.6,2,4.9,4.3,6.9,6.9l-4.4,9.4c1.2,2.2,2.2,4.5,2.9,7l9.8,3.5
			c0.2,1.6,0.3,3.2,0.3,4.9c0,1.7-0.1,3.3-0.3,4.9L279.7,196.1z M249.6,174.4c-7.4,0-13.4,6-13.4,13.4c0,7.4,6,13.4,13.4,13.4
			c7.4,0,13.4-6,13.4-13.4C263,180.4,257,174.4,249.6,174.4L249.6,174.4z M249.6,174.4"/>
		<path id="XMLID_231_" class="st0" d="M290.7,44.9L264,39.6l-5.3,26.7l8.8,1.8l2.4-12c4.3,9,6.6,18.9,6.6,29
			c0,15.4-5.1,29.9-14.7,41.9l7,5.6c10.7-13.4,16.7-30.3,16.7-47.5c0-11.7-2.7-23.2-7.8-33.6l11.4,2.3L290.7,44.9z M290.7,44.9"/>
		<path id="XMLID_228_" class="st0" d="M123.2,81.9l-6.3,6.3l6.1,6.1c-2.5-0.2-4.9-0.3-7.4-0.3c-34.6,0-67.1,15.2-89.3,41.8l6.9,5.7
			c20.5-24.5,50.5-38.6,82.4-38.6c2.3,0,4.5,0.1,6.8,0.3l-5.5,5.5l6.3,6.3l16.6-16.6L123.2,81.9z M123.2,81.9"/>
	</g>
</g>
</svg>
