<?xml version="1.0" encoding="utf-8"?>
<!-- Generator: Adobe Illustrator 19.0.0, SVG Export Plug-In . SVG Version: 6.00 Build 0)  -->
<svg version="1.1" id="Layer_1" xmlns="http://www.w3.org/2000/svg" xmlns:xlink="http://www.w3.org/1999/xlink" x="0px" y="0px"
	 viewBox="0 0 398 379" style="enable-background:new 0 0 398 379;" xml:space="preserve">
<style type="text/css">
	.st0{fill:#F4CD00;}
	.st1{fill:#002D73;}
</style>
<g id="XMLID_44_">
	<polygon id="XMLID_836_" class="st0" points="203.1,274 203.8,275.6 200.5,278 200,277 201,274.9 200,274.2 202.4,272.5 203.1,274 
			"/>
	<polygon id="XMLID_835_" class="st0" points="201,274.9 200,277 199.1,274.9 200,274.2 201,274.9 	"/>
	<polygon id="XMLID_834_" class="st0" points="201,19.6 200,20.8 199,19.6 198,18.3 200,15.9 202,18.4 201,19.6 	"/>
	<polygon id="XMLID_833_" class="st0" points="200,277.9 200.2,278.1 200,278.4 199.8,278.1 200,277.9 	"/>
	<path id="XMLID_832_" class="st1" d="M210,268.4c-2.2,2-4.5,3.8-6.9,5.6l-0.7-1.5l-2.4,1.7l-2.4-1.8l-0.7,1.5
		c-2.4-1.8-4.7-3.6-6.9-5.6c-2.6-2.5-5.1-5-7.7-7.6c-2.5-2.6-5.1-5.2-7.6-7.8C124.5,201.6,89.6,130.4,86,54.3
		c38.3-1.9,81-4.6,112.9-34.6l0.1-0.2l1,1.2l1-1.2l0.1,0.1c32,29.9,74.7,32.6,112.9,34.6c-3.7,76.1-38.5,147.2-88.8,198.7
		c-2.5,2.6-5,5.2-7.6,7.8C215.1,263.4,212.6,265.9,210,268.4L210,268.4z"/>
	<polygon id="XMLID_831_" class="st0" points="200,277 199.5,278 196.2,275.6 196.9,274 197.6,272.5 200,274.2 199.1,274.9 200,277 
			"/>
	<path id="XMLID_830_" class="st0" d="M84.4,56.8c0.6,0,1.2-0.1,1.7-0.1h0l0,0c19.2-1,39.5-2.1,59.3-6.8
		c19.7-4.7,38.8-13.1,55.2-28.4l-3.2-3.4c-15.6,14.6-33.9,22.6-53,27.2C125.1,49.9,105,51,85.8,52h0h0c-0.6,0-1.2,0.1-1.7,0.1
		L84.4,56.8L84.4,56.8z"/>
	<path id="XMLID_829_" class="st0" d="M83.5,52c0,0.8,0.1,1.6,0.1,2.4l2.4-0.1l-2.4,0.1c3.7,76.7,38.8,148.4,89.4,200.2l1.7-1.6
		l-1.7,1.6c2.5,2.7,5,5.3,7.6,7.8c2.5,2.6,5.1,5.1,7.7,7.6l0,0l0,0c2.3,2,4.6,3.9,7.1,5.7l2.8-3.8c-2.3-1.7-4.6-3.6-6.8-5.5
		l-1.6,1.8l1.6-1.7c-2.6-2.5-5.1-5-7.6-7.5c-2.5-2.5-5-5.1-7.5-7.7l0,0l0,0c-49.9-51.1-84.5-121.8-88.1-197.2v0v0
		c0-0.8-0.1-1.5-0.1-2.3L83.5,52L83.5,52z"/>
	<path id="XMLID_828_" class="st0" d="M315.8,52.1c-0.5,0-1.1-0.1-1.7-0.1h0l0,0c-19.1-1-39.2-2.1-58.4-6.7
		c-19.2-4.6-37.4-12.6-53-27.2l-3.2,3.4c16.4,15.3,35.5,23.6,55.2,28.4c19.7,4.7,40.1,5.9,59.3,6.8h0h0c0.5,0,1.1,0.1,1.7,0.1
		L315.8,52.1L315.8,52.1z"/>
	<path id="XMLID_827_" class="st0" d="M311.8,51.9c0,0.8-0.1,1.6-0.1,2.3l0,0v0c-3.6,75.4-38.2,146.1-88.1,197.2l0,0l0,0
		c-2.5,2.6-5,5.2-7.5,7.7c-2.5,2.5-5.1,5.1-7.6,7.5l1.6,1.7l-1.6-1.8c-2.2,1.9-4.4,3.8-6.7,5.5l2.8,3.8c2.4-1.8,4.8-3.7,7.1-5.7l0,0
		l0,0c2.6-2.5,5.1-5,7.7-7.6c2.6-2.6,5.1-5.2,7.6-7.8l-1.7-1.6l1.7,1.6c50.7-51.9,85.7-123.5,89.4-200.2l-2.4-0.1l2.4,0.1
		c0-0.8,0.1-1.6,0.1-2.4L311.8,51.9L311.8,51.9z"/>
	<polygon id="XMLID_826_" class="st0" points="199,19.6 199.5,19.2 198.8,18.3 200,16.8 201.2,18.4 200.5,19.3 200,19.9 199.5,19.2 
		199.5,19.2 199.5,19.2 199,19.6 198.6,20 200,21.8 201.4,20 202.7,18.4 200,14.9 197.2,18.3 198.6,20 198.6,20 199,19.6 	"/>
	<polygon id="XMLID_825_" class="st0" points="200.4,274.7 202.2,273.4 202.6,274.3 202.6,274.3 203.1,275.4 200.7,277.1 
		200.5,276.7 199.5,277.2 199.9,278.2 200.2,278.9 204.6,275.8 203.6,273.8 202.7,271.6 199.7,273.7 200.4,274.7 	"/>
	<polygon id="XMLID_824_" class="st0" points="200,274.2 200.4,273.7 197.4,271.6 196.3,273.8 195.4,275.8 199.8,278.9 200.5,277.2 
		201.7,274.7 200.4,273.8 200.4,273.7 200,274.2 199.7,274.7 200.2,275.1 199.5,276.7 199.3,277.1 196.9,275.4 197.4,274.3 
		197.8,273.4 199.7,274.7 199.7,274.7 200,274.2 	"/>
	<polygon id="XMLID_823_" class="st0" points="200.2,278.1 199.7,277.8 199.5,278 200,278.4 200.5,278 200.3,277.7 199.8,278.1 
		200.3,278.5 200.5,278.2 200,277.9 199.5,278.2 199.7,278.5 200.2,278.1 199.7,277.8 200.2,278.1 200.7,277.8 200.5,277.5 
		200,276.9 199.3,277.7 199,278.1 199.5,278.7 200,279.3 200.7,278.5 201,278.1 200.7,277.8 200.2,278.1 	"/>
	<polygon id="XMLID_822_" class="st0" points="265.6,104.7 265.6,160.2 134.4,160.2 134.4,104.7 265.6,104.7 	"/>
	<polygon id="XMLID_821_" class="st0" points="265.6,104.7 265,104.7 265,159.6 135,159.6 135,105.3 265.6,105.3 265.6,104.7 
		265,104.7 265.6,104.7 265.6,104.1 133.8,104.1 133.8,160.8 266.2,160.8 266.2,104.1 265.6,104.1 265.6,104.7 	"/>
	<polygon id="XMLID_820_" class="st0" points="228.1,199.6 172.6,199.6 172.6,67.3 228.1,67.3 228.1,199.6 	"/>
	<polygon id="XMLID_819_" class="st0" points="228.1,199.6 228.1,199 173.2,199 173.2,67.9 227.6,67.9 227.6,199.6 228.1,199.6 
		228.1,199 228.1,199.6 228.7,199.6 228.7,66.7 172.1,66.7 172.1,200.2 228.7,200.2 228.7,199.6 228.1,199.6 	"/>
	<path id="XMLID_818_" class="st1" d="M160.7,132.3c0,3.2-2.5,5.7-5.5,5.7c-3,0-5.5-2.6-5.5-5.7c0-3.2,2.5-5.7,5.5-5.7
		C158.3,126.5,160.7,129.1,160.7,132.3L160.7,132.3z"/>
	<polygon id="XMLID_817_" class="st1" points="249.9,137.5 239.7,137.5 239.7,127 249.9,127 249.9,137.5 	"/>
	<polygon id="XMLID_816_" class="st1" points="200.1,79 207.3,86.2 200,93.6 192.7,86.3 200.1,79 	"/>
	<path id="XMLID_507_" class="st0" d="M37.9,320.2c2.3,0,4.6-0.5,6.4-1.8c2.9-2.1,3.6-5.3,3.6-7c0-3.4-1.2-6-6.2-10l-1.2-0.9
		c-4.1-3.2-5.2-4.7-5.2-7.1c0-3.1,2.3-4.9,5.2-4.9c3.9,0,5,1.8,5.3,2.2c0.3,0.5,0.5,1.6,0.5,2.1c0,0.3,0.1,0.6,0.3,0.6
		c0.2,0,0.3-0.3,0.3-1c0-2.9,0.2-4.3,0.2-4.5c0-0.2-0.1-0.3-0.4-0.3c-0.3,0-0.7,0-1.5-0.2c-1.1-0.3-2.3-0.4-3.9-0.4
		c-5.4,0-8.8,3.1-8.8,7.6c0,2.9,1,5.5,5.5,9.2l1.9,1.6c3.6,3,4.9,4.7,4.9,7.6c0,2.7-2,5.6-6.1,5.6c-2.8,0-5.6-1.2-6.3-4.3
		c-0.1-0.6-0.1-1.2-0.1-1.6c0-0.3,0-0.5-0.3-0.5c-0.2,0-0.3,0.2-0.3,0.7c0,0.7-0.2,2.4-0.2,4.5c0,1.1,0,1.3,0.6,1.6
		C33.9,319.9,35.9,320.2,37.9,320.2L37.9,320.2z M55,315.6c-0.7,1.8-1.4,3.1-3.1,3.3c-0.3,0-0.8,0.1-1.1,0.1c-0.2,0-0.3,0.1-0.3,0.3
		c0,0.2,0.3,0.3,0.7,0.3c1.5,0,3.4-0.1,3.8-0.1c0.4,0,2.5,0.1,3.4,0.1c0.3,0,0.6-0.1,0.6-0.3c0-0.2-0.1-0.3-0.4-0.3h-0.3
		c-0.6,0-1.3-0.3-1.3-1c0-0.6,0.2-1.5,0.6-2.4l2.1-5.8c0.1-0.2,0.2-0.3,0.4-0.3h8.6c0.2,0,0.3,0,0.3,0.2l3.4,8.3
		c0.3,0.6-0.1,0.9-0.3,1c-0.2,0.1-0.3,0.1-0.3,0.3c0,0.2,0.6,0.2,1.3,0.3c2.6,0.1,5.3,0.1,5.9,0.1c0.4,0,0.9-0.1,0.9-0.3
		c0-0.2-0.3-0.3-0.5-0.3c-0.4,0-0.9,0-1.5-0.2c-0.8-0.3-1.8-0.7-3.2-3.9c-2.3-5.5-8.3-20.4-9-21.9c-0.4-0.8-0.5-1.3-0.9-1.3
		c-0.3,0-0.4,0.2-0.9,1.4L55,315.6L55,315.6z M60.4,308.1c-0.1,0-0.2-0.1-0.1-0.3l3.5-9.9c0.2-0.6,0.4-0.6,0.6,0l3.7,9.9
		c0,0.2,0,0.3-0.1,0.3H60.4L60.4,308.1z M85.7,297.7c1.1,1.3,5.3,5.7,9.7,10.2c3.9,4.1,9.3,9.4,9.7,9.8c2.1,1.9,2.5,2.2,2.8,2.2
		c0.3,0,0.3-0.2,0.3-2.6l0.1-21.1c0-2.2,0.1-2.9,1.3-3.1c0.4-0.1,0.7-0.1,0.9-0.1c0.3,0,0.4-0.2,0.4-0.3c0-0.2-0.3-0.3-0.7-0.3
		c-1.5,0-2.8,0.1-3.2,0.1c-0.4,0-2.2-0.1-3.9-0.1c-0.4,0-0.7,0-0.7,0.3c0,0.1,0,0.3,0.3,0.3c0.3,0,1.1,0,1.8,0.2
		c1.1,0.2,1.4,1,1.4,3.4l0.4,18.1c-1.1-1.2-5.1-5.5-8.8-9.3c-5.8-5.9-11.2-11.7-11.8-12.3c-0.4-0.4-1-1.1-1.4-1.1
		c-0.3,0-0.5,0.4-0.5,1.8v20.7c0,3.3-0.1,4.2-1.1,4.5c-0.6,0.2-1.2,0.2-1.5,0.2c-0.2,0-0.3,0.1-0.3,0.3c0,0.3,0.2,0.3,0.6,0.3
		c1.7,0,3.3-0.1,3.6-0.1c0.3,0,1.8,0.1,3.9,0.1c0.4,0,0.7-0.1,0.7-0.3c0-0.2-0.1-0.3-0.3-0.3c-0.3,0-1.2,0-1.9-0.2
		c-1-0.3-1.4-1.1-1.4-4.1L85.7,297.7L85.7,297.7z M134.7,307.3c0,4.1,0,7.4-0.2,9.2c-0.2,1.2-0.4,2.2-1.2,2.3
		c-0.4,0.1-0.9,0.2-1.3,0.2c-0.3,0-0.3,0.1-0.3,0.3c0,0.3,0.2,0.3,0.7,0.3c1.3,0,3.9-0.1,4.2-0.1c0.2,0,2.9,0.1,5.2,0.1
		c0.5,0,0.7-0.1,0.7-0.3c0-0.1-0.1-0.3-0.3-0.3c-0.4,0-1.3-0.1-1.9-0.2c-1.3-0.2-1.5-1.1-1.7-2.3c-0.2-1.8-0.2-5.1-0.2-9.2v-3.6
		c0-0.3,0.1-0.4,0.3-0.4c0.7,0,5.3,0,6.4,0.1c1.3,0.2,2,0.9,2.2,1.5c0.2,0.5,0.2,1.1,0.3,1.5c0,0.2,0.1,0.4,0.3,0.4
		c0.3,0,0.3-0.4,0.3-0.8c0-0.3,0.1-2,0.2-2.8c0.1-1.4,0.3-2.1,0.3-2.4c0-0.2,0-0.3-0.2-0.3c-0.2,0-0.3,0.2-0.5,0.4
		c-0.4,0.6-0.9,0.7-2,0.8c-0.6,0-1.2,0-1.9,0l-5.4,0c-0.3,0-0.3-0.1-0.3-0.4v-11.7c0-0.3,0.1-0.5,0.4-0.5l6.5,0.1
		c1.7,0,2.6,0.8,2.9,1.4c0.3,0.6,0.4,1.3,0.4,1.6c0,0.3,0.1,0.5,0.3,0.5c0.2,0,0.3-0.3,0.3-0.5c0.1-0.5,0.2-2.4,0.2-2.8
		c0.1-1.2,0.3-1.7,0.3-2c0-0.2-0.1-0.4-0.3-0.4c-0.2,0-0.3,0.2-0.6,0.3c-0.4,0.1-1.1,0.1-1.9,0.2c-1,0-9.6,0.1-10.4,0l-1.7-0.1
		c-0.9,0-2.1,0-3.1,0c-0.5,0-0.7,0.1-0.7,0.3c0,0.2,0.2,0.3,0.3,0.3c0.4,0,1.1,0,1.4,0.1c1.4,0.3,1.7,1,1.8,2.4
		c0.1,1.4,0.1,2.5,0.1,9.2V307.3L134.7,307.3z M158.8,309.1c0,3.5,0,6.3-0.2,7.8c-0.2,1.1-0.3,1.7-1,1.9c-0.3,0.1-0.8,0.2-1.1,0.2
		c-0.2,0-0.3,0.2-0.3,0.3c0,0.2,0.2,0.3,0.6,0.3c1.1,0,3.6-0.1,3.7-0.1c0.2,0,2.5,0.1,4.6,0.1c0.4,0,0.6-0.1,0.6-0.3
		c0-0.1,0-0.3-0.3-0.3c-0.3,0-1.1-0.1-1.7-0.2c-1.1-0.2-1.4-0.8-1.5-1.9c-0.2-1.5-0.2-4.3-0.2-7.8v-0.8c0-0.2,0.1-0.3,0.3-0.3
		l4.8,0.1c0.3,0,0.3,0,0.5,0.2c0.8,1,2.5,3.3,4,5.3c2.1,2.7,3.5,4.5,5.1,5.3c0.9,0.5,1.9,0.7,4,0.7h2.3c0.7,0,0.9-0.1,0.9-0.3
		c0-0.1-0.1-0.3-0.3-0.3c-0.2,0-0.6,0-1.3-0.1c-0.9-0.1-2.2-0.5-4.2-2.5c-2.2-2.2-4.8-5.5-7.8-9.3c3.5-3,4.6-5.6,4.6-8.2
		c0-2.5-1.7-4.2-2.6-4.9c-2-1.4-4.6-1.6-7-1.6c-1.1,0-4.3,0.1-4.7,0.1c-0.2,0-2.7-0.1-4.4-0.1c-0.4,0-0.6,0.1-0.6,0.3
		c0,0.1,0.2,0.3,0.3,0.3c0.3,0,1,0,1.3,0.1c1.2,0.2,1.4,0.8,1.5,2c0.1,1.1,0.1,2.2,0.1,7.8V309.1L158.8,309.1z M162.1,294.2
		c0-0.2,0.1-0.3,0.3-0.4c0.4-0.1,1.6-0.2,2.7-0.2c4,0,6.4,2.6,6.4,7.1c0,2.8-1,4.7-2.2,5.5c-0.9,0.6-1.9,0.6-2.8,0.6
		c-1.7,0-3.6-0.3-4.1-0.6c-0.2-0.1-0.3-0.3-0.3-0.5V294.2L162.1,294.2z M184.5,315.6c-0.7,1.8-1.4,3.1-3.1,3.3
		c-0.3,0-0.8,0.1-1.1,0.1c-0.2,0-0.3,0.1-0.3,0.3c0,0.2,0.3,0.3,0.7,0.3c1.5,0,3.4-0.1,3.8-0.1c0.4,0,2.5,0.1,3.4,0.1
		c0.3,0,0.6-0.1,0.6-0.3c0-0.2-0.1-0.3-0.4-0.3h-0.3c-0.6,0-1.3-0.3-1.3-1c0-0.6,0.2-1.5,0.6-2.4l2.1-5.8c0.1-0.2,0.2-0.3,0.4-0.3
		h8.6c0.2,0,0.3,0,0.3,0.2l3.4,8.3c0.3,0.6-0.1,0.9-0.3,1c-0.2,0.1-0.3,0.1-0.3,0.3c0,0.2,0.6,0.2,1.3,0.3c2.6,0.1,5.3,0.1,5.9,0.1
		c0.4,0,0.8-0.1,0.8-0.3c0-0.2-0.3-0.3-0.5-0.3c-0.4,0-0.9,0-1.5-0.2c-0.8-0.3-1.8-0.7-3.2-3.9c-2.3-5.5-8.3-20.4-9-21.9
		c-0.4-0.8-0.5-1.3-0.9-1.3c-0.3,0-0.4,0.2-0.9,1.4L184.5,315.6L184.5,315.6z M189.9,308.1c-0.1,0-0.2-0.1-0.1-0.3l3.5-9.9
		c0.2-0.6,0.4-0.6,0.6,0l3.7,9.9c0,0.2,0,0.3-0.1,0.3H189.9L189.9,308.1z M215.2,297.7c1.1,1.3,5.3,5.7,9.7,10.2
		c4,4.1,9.3,9.4,9.7,9.8c2.1,1.9,2.5,2.2,2.8,2.2c0.3,0,0.3-0.2,0.3-2.6l0.1-21.1c0-2.2,0.1-2.9,1.3-3.1c0.4-0.1,0.7-0.1,0.9-0.1
		c0.3,0,0.4-0.2,0.4-0.3c0-0.2-0.3-0.3-0.7-0.3c-1.5,0-2.8,0.1-3.2,0.1c-0.4,0-2.2-0.1-3.9-0.1c-0.4,0-0.7,0-0.7,0.3
		c0,0.1,0,0.3,0.3,0.3c0.3,0,1.1,0,1.8,0.2c1.1,0.2,1.4,1,1.4,3.4l0.4,18.1c-1.1-1.2-5.1-5.5-8.8-9.3c-5.8-5.9-11.2-11.7-11.8-12.3
		c-0.4-0.4-1-1.1-1.4-1.1c-0.3,0-0.5,0.4-0.5,1.8v20.7c0,3.3-0.1,4.2-1.1,4.5c-0.6,0.2-1.2,0.2-1.5,0.2c-0.2,0-0.3,0.1-0.3,0.3
		c0,0.3,0.2,0.3,0.6,0.3c1.7,0,3.3-0.1,3.6-0.1c0.3,0,1.8,0.1,3.9,0.1c0.4,0,0.7-0.1,0.7-0.3c0-0.2-0.1-0.3-0.3-0.3
		c-0.3,0-1.2,0-1.9-0.2c-1-0.3-1.4-1.1-1.4-4.1L215.2,297.7L215.2,297.7z M261.4,320.1c2.4,0,5.2-0.2,6.7-0.8
		c0.6-0.3,0.7-0.4,0.9-1.1c0.4-1.2,0.9-4.4,0.9-4.6c0-0.3-0.2-0.5-0.3-0.5c-0.3,0-0.3,0.1-0.4,0.5c-0.1,0.7-0.6,2.2-1.4,3
		c-1.5,1.5-3.4,1.7-6.2,1.7c-8,0-13.4-6.2-13.4-13.1c0-3.6,0.6-6.9,3.4-9.4c1.3-1.2,3.6-2.5,8.4-2.5c3.3,0,6,0.9,7.3,2
		c1,0.8,1.6,2.2,1.6,3.6c0,0.5,0,0.8,0.3,0.8c0.2,0,0.4-0.2,0.4-0.8c0-0.5,0-2.5,0.1-3.7c0.1-1.3,0.2-1.7,0.2-2
		c0-0.2-0.1-0.4-0.5-0.4c-1.2,0-2.4-0.3-3.8-0.6c-1.8-0.3-3.9-0.4-5.4-0.4c-5.7,0-9.1,1.7-11.4,3.9c-3.3,3.2-4.2,7.4-4.2,9.8
		c0,3.4,0.9,7.6,4.5,10.7C252,318.7,255.8,320.1,261.4,320.1L261.4,320.1z M282.2,302.7c0-5.6,0-6.6,0-7.8c0.1-1.3,0.3-1.8,1.3-2
		c0.4-0.1,0.7-0.1,0.9-0.1c0.1,0,0.3-0.2,0.3-0.3c0-0.2-0.2-0.3-0.6-0.3c-1.2,0-3.6,0.1-3.7,0.1c-0.2,0-2.5-0.1-3.8-0.1
		c-0.4,0-0.6,0.1-0.6,0.3c0,0.1,0.1,0.3,0.3,0.3c0.3,0,0.7,0,1.1,0.1c0.8,0.2,1.1,0.7,1.2,1.9c0.1,1.1,0.1,2.2,0.1,7.8v6.4
		c0,3.5,0,6.3-0.2,7.8c-0.1,1.1-0.3,1.7-1,1.9c-0.3,0.1-0.8,0.2-1.1,0.2c-0.2,0-0.3,0.2-0.3,0.3c0,0.2,0.2,0.3,0.6,0.3
		c1.1,0,3.5-0.1,3.7-0.1c0.2,0,2.6,0.1,4.7,0.1c0.4,0,0.6-0.1,0.6-0.3c0-0.1-0.1-0.3-0.3-0.3c-0.3,0-1.1-0.1-1.7-0.2
		c-1.1-0.2-1.2-0.8-1.4-1.9c-0.2-1.5-0.2-4.3-0.2-7.8V302.7L282.2,302.7z M297.6,320.1c2,0,4.4-0.3,5.9-1.3c2.7-1.7,3.5-4,3.5-6.2
		c0-3.1-1.6-5.6-6.1-8.7l-1.1-0.7c-3.7-2.5-4.8-3.8-4.8-6.1c0-2.5,2.2-3.9,5-3.9c3.3,0,4.6,1.4,4.8,1.8c0.2,0.4,0.5,1.4,0.6,1.8
		c0,0.3,0.1,0.5,0.3,0.5c0.3,0,0.3-0.3,0.3-0.8c0-2.5,0.2-3.6,0.2-3.8c0-0.2-0.1-0.3-0.4-0.3c-0.3,0-0.6,0-1.3-0.2
		c-0.9-0.2-2.4-0.4-3.9-0.4c-4.9,0-8.3,2.5-8.3,6.8c0,2.5,1.3,4.7,5.3,7.7l1.7,1.3c3.3,2.5,4.7,3.7,4.7,6.3c0,2.7-1.9,4.8-5.6,4.8
		c-2.5,0-5.3-0.9-5.9-3.6c-0.1-0.5-0.1-1-0.1-1.3c0-0.3-0.1-0.4-0.3-0.4c-0.2,0-0.3,0.2-0.3,0.6c0,0.6-0.2,2-0.2,3.8
		c0,1,0,1.1,0.6,1.4C293.7,319.8,295.9,320.1,297.6,320.1L297.6,320.1z M330.2,320.1c2.4,0,5.2-0.2,6.7-0.8c0.6-0.3,0.7-0.4,0.9-1.1
		c0.4-1.2,0.9-4.4,0.9-4.6c0-0.3-0.2-0.5-0.3-0.5c-0.3,0-0.3,0.1-0.4,0.5c-0.1,0.7-0.6,2.2-1.4,3c-1.5,1.5-3.4,1.7-6.2,1.7
		c-8,0-13.5-6.2-13.5-13.1c0-3.6,0.6-6.9,3.4-9.4c1.3-1.2,3.6-2.5,8.4-2.5c3.3,0,6,0.9,7.3,2c1,0.8,1.6,2.2,1.6,3.6
		c0,0.5,0,0.8,0.3,0.8c0.2,0,0.4-0.2,0.4-0.8c0-0.5,0-2.5,0.1-3.7c0.1-1.3,0.2-1.7,0.2-2c0-0.2-0.1-0.4-0.5-0.4
		c-1.2,0-2.4-0.3-3.8-0.6c-1.8-0.3-3.9-0.4-5.4-0.4c-5.7,0-9.1,1.7-11.4,3.9c-3.3,3.2-4.2,7.4-4.2,9.8c0,3.4,0.9,7.6,4.5,10.7
		C320.8,318.7,324.6,320.1,330.2,320.1L330.2,320.1z M343,305.9c0,6.5,4.4,14.2,14.6,14.2c9,0,15-6.7,15-14.7
		c0-8.4-6.4-13.5-14.8-13.5C347.5,291.8,343,300.1,343,305.9L343,305.9z M346.9,304.9c0-7.9,4.5-11.8,10.7-11.8
		c5.9,0,11.2,4.5,11.2,13.2c0,10.4-6.7,12.2-10.1,12.2C351.9,318.6,346.9,313.3,346.9,304.9L346.9,304.9z"/>
	<path id="XMLID_462_" class="st1" d="M37.9,320.2v0.3c2.3,0,4.7-0.5,6.6-1.8c3-2.2,3.7-5.5,3.7-7.3c0-3.5-1.3-6.3-6.3-10.2
		l-1.2-0.9c-4.1-3.2-5.1-4.6-5.1-6.9c0-2.9,2.1-4.6,4.9-4.6c3.8,0,4.8,1.7,5,2.1c0.2,0.4,0.5,1.6,0.5,2c0,0.3,0.1,0.8,0.6,0.8
		c0.3,0,0.5-0.2,0.5-0.4c0.1-0.2,0.1-0.5,0.1-0.8c0-2.9,0.2-4.2,0.2-4.5c0-0.1,0-0.3-0.2-0.5c-0.2-0.1-0.3-0.1-0.5-0.1
		c-0.3,0-0.6,0-1.4-0.2c-1.1-0.3-2.3-0.4-4-0.4c-5.5,0-9.1,3.2-9.1,7.9c0,3,1.1,5.7,5.6,9.4l1.9,1.6c3.6,3,4.8,4.6,4.8,7.4
		c0,2.6-1.9,5.3-5.8,5.3c-2.8,0-5.4-1.1-6-4.1c-0.1-0.6-0.1-1.1-0.1-1.5c0-0.2,0-0.3-0.1-0.5c-0.1-0.2-0.3-0.3-0.5-0.3
		c-0.5,0-0.6,0.5-0.6,0.9c0,0.7-0.2,2.4-0.2,4.5c0,1.1,0.1,1.6,0.8,1.9c1.8,0.9,3.8,1.2,5.8,1.2V320.2v-0.3c-2,0-3.9-0.3-5.6-1.1
		c-0.5-0.3-0.4-0.1-0.5-1.3c0-2.1,0.2-3.8,0.2-4.5c0-0.2,0.1-0.4,0.1-0.4v0l0,0v0.1l0,0l0,0v0.1h0l0-0.1l-0.1,0l0,0l0-0.1l-0.1,0
		c0,0,0,0.1,0,0.2c0,0.4,0,1,0.1,1.6c0.7,3.3,3.7,4.6,6.6,4.6c4.2,0,6.4-3.1,6.4-5.9c0-3-1.3-4.9-5-7.9l-1.9-1.6
		c-4.5-3.7-5.4-6.2-5.4-9c0-4.4,3.2-7.3,8.5-7.3c1.6,0,2.8,0.2,3.9,0.4c0.8,0.2,1.2,0.2,1.6,0.2c0.1,0,0.2,0,0.2,0l0.1-0.1l-0.1,0
		l0,0l0.1-0.1l-0.1,0l0,0c0,0.2-0.2,1.6-0.2,4.5c0,0.3,0,0.6-0.1,0.7l0,0.1l0.1,0.1V293l-0.1,0l0.1,0.1V293v0l0,0l0,0v0l0,0
		c0,0,0-0.1-0.1-0.3c-0.1-0.6-0.3-1.7-0.6-2.2c-0.3-0.5-1.6-2.4-5.6-2.4c-3,0-5.5,2-5.5,5.2c0,2.5,1.2,4.2,5.3,7.4l1.2,0.9
		c5,3.9,6.1,6.4,6.1,9.7c0,1.7-0.7,4.8-3.5,6.8c-1.8,1.2-4,1.7-6.2,1.7V320.2L37.9,320.2z M55,315.6l-0.3-0.1
		c-0.7,1.8-1.4,2.9-2.9,3.1c-0.3,0-0.8,0.1-1.1,0.1c-0.3,0-0.6,0.2-0.6,0.6c0.1,0.5,0.6,0.6,1,0.6c1.5,0,3.4-0.1,3.8-0.1
		c0.4,0,2.4,0.1,3.4,0.1c0.3,0,0.8-0.1,0.8-0.6c0-0.1,0-0.3-0.2-0.4c-0.1-0.1-0.3-0.2-0.5-0.2h-0.3c-0.6,0-1-0.2-1-0.7
		c0-0.6,0.2-1.4,0.5-2.3l2.1-5.8c0.1-0.1,0-0.1,0.1-0.1h8.6l0.1,0l0-0.1l0,0.1l0,0l0-0.1l0,0.1l0,0.1l3.3,8.3c0,0.1,0.1,0.2,0.1,0.3
		c0,0.2-0.1,0.3-0.2,0.3c-0.1,0-0.5,0.2-0.4,0.5c0.1,0.5,0.4,0.4,0.6,0.5c0.3,0,0.6,0,0.9,0.1c2.6,0.1,5.4,0.1,5.9,0.1
		c0.4,0,1,0.1,1.1-0.6c0-0.5-0.5-0.6-0.8-0.6c-0.4,0-0.9,0-1.4-0.2c-0.7-0.2-1.6-0.6-3-3.8c-2.3-5.5-8.3-20.4-9-21.9
		c-0.4-0.7-0.4-1.4-1.2-1.5c-0.5,0-0.7,0.4-1.2,1.6l-8.8,22.6L55,315.6l0.3,0.1l8.8-22.6c0.2-0.6,0.4-0.9,0.5-1.1
		c0.1-0.2,0.1-0.1,0.1-0.1c0,0,0.1,0,0.2,0.2c0.1,0.2,0.2,0.5,0.4,0.9c0.7,1.5,6.7,16.4,8.9,21.9c1.3,3.2,2.5,3.8,3.4,4.1
		c0.6,0.2,1.2,0.2,1.6,0.2l0.2,0l0,0l0,0h-0.1l0,0l0,0h-0.1h0.1l-0.1-0.1l0,0.1h0.1l-0.1-0.1c0,0-0.3,0.1-0.6,0.1
		c-0.6,0-3.3,0-5.9-0.1c-0.4,0-0.7,0-0.9-0.1l-0.2,0l-0.1,0.1h0.1c0-0.1-0.1-0.1-0.1-0.1l-0.1,0.1h0.1h0l0,0l0,0h0l0,0l-0.1,0
		l0.1,0.1l0-0.1l-0.1,0l0.1,0.1l0.1-0.1c0.2-0.1,0.6-0.4,0.6-0.9c0-0.2,0-0.3-0.1-0.5l-3.4-8.3c-0.1-0.2-0.4-0.4-0.6-0.4h-8.6
		c-0.3,0-0.6,0.2-0.7,0.5l-2.1,5.8c-0.3,0.9-0.6,1.8-0.6,2.5c0,1,0.9,1.3,1.6,1.3h0.3l0.1,0l0,0h0l0,0l0,0h0h0l0,0l0,0h0l0,0
		c0,0-0.1,0-0.3,0c-0.9,0-2.9-0.1-3.4-0.1c-0.4,0-2.3,0.1-3.8,0.1c-0.2,0-0.4,0-0.4,0l0,0l-0.1,0h0.1l0,0l-0.1,0h0.1h0l0,0v0h0l0,0
		l0,0c0.3,0,0.8,0,1.1-0.1c1.9-0.2,2.7-1.7,3.4-3.5L55,315.6L55,315.6z M60.4,308.1v-0.3v0.1l0.1-0.1l-0.1,0v0.1l0.1-0.1l-0.1,0.1
		h0.2l0-0.1l-0.1,0.1h0.2l0,0L64,298c0-0.1,0.1-0.2,0.1-0.2l0,0l-0.1-0.1v0.1l0.1,0l-0.1-0.1v0.1v-0.1l-0.1,0.1l0.1,0v-0.1l-0.1,0.1
		c0,0,0.1,0.1,0.1,0.2l3.7,9.9l0,0H68l-0.1-0.1l-0.1,0.1H68l-0.1-0.1l0.1,0.1v-0.1l-0.1,0l0.1,0.1v-0.1h-7.6V308.1v0.3H68
		c0.1,0,0.2,0,0.3-0.1c0.1-0.1,0.1-0.2,0.1-0.3l0-0.2l-3.7-9.9c-0.1-0.3-0.2-0.6-0.6-0.6c-0.4,0.1-0.5,0.3-0.6,0.6l-3.5,9.9l0,0.2
		l0.1,0.3l0.3,0.1V308.1L60.4,308.1z M85.7,297.7l-0.2,0.2c1.2,1.3,5.3,5.7,9.7,10.2c4,4.1,9.3,9.4,9.7,9.8c2.1,1.9,2.4,2.2,3,2.3
		c0.3,0,0.5-0.3,0.5-0.7c0-0.4,0.1-1,0.1-2.2l0.1-21.1c0-2.2,0-2.6,1.1-2.9c0.4-0.1,0.7-0.1,0.8-0.1c0.4,0,0.7-0.3,0.7-0.6
		c-0.1-0.6-0.6-0.5-1-0.6c-1.5,0-2.8,0.1-3.2,0.1c-0.4,0-2.2-0.1-3.9-0.1c-0.2,0-0.4,0-0.6,0.1c-0.2,0-0.4,0.2-0.4,0.5
		c0,0.2,0.1,0.6,0.6,0.6c0.3,0,1.1,0,1.8,0.2c0.9,0.2,1.1,0.7,1.2,3.1l0.4,18.1l0.3,0l0.2-0.2c-1.1-1.2-5.1-5.5-8.8-9.3
		c-5.8-5.9-11.2-11.7-11.8-12.3c-0.4-0.4-1-1.1-1.7-1.2c-0.3,0-0.6,0.2-0.6,0.6c-0.1,0.3-0.2,0.8-0.2,1.5v20.7c0,1.6,0,2.7-0.2,3.3
		c-0.2,0.6-0.3,0.8-0.7,0.9c-0.5,0.2-1.2,0.2-1.5,0.2c-0.3,0-0.6,0.3-0.6,0.6c0,0.2,0.1,0.5,0.3,0.5c0.2,0.1,0.4,0.1,0.6,0.1
		c1.7,0,3.3-0.1,3.6-0.1c0.3,0,1.8,0.1,3.9,0.1c0.4,0,0.9,0,1-0.6c0-0.3-0.3-0.6-0.6-0.6c-0.3,0-1.2,0-1.8-0.2
		c-0.8-0.2-1.1-0.8-1.2-3.8l-0.4-17L85.7,297.7l-0.2,0.2L85.7,297.7l-0.3,0l0.4,17c0.1,2.9,0.4,4.1,1.7,4.4c0.7,0.2,1.6,0.2,1.9,0.2
		l0,0h0.1l-0.1,0l0,0h0.1l-0.1,0l-0.1,0c-0.1,0-0.2,0-0.3,0c-2.1,0-3.6-0.1-3.9-0.1c-0.4,0-1.9,0.1-3.6,0.1c-0.2,0-0.3,0-0.3,0l0,0
		l0,0l0,0l0,0l0,0l0,0h0l0,0l0,0h0l0,0c0.3,0,1,0,1.6-0.2c0.6-0.1,0.9-0.6,1.1-1.3c0.2-0.7,0.2-1.8,0.2-3.4v-20.7
		c0-0.7,0.1-1.1,0.1-1.4c0-0.1,0.1-0.2,0.1-0.2l0,0c0.1-0.1,0.9,0.6,1.2,1c0.6,0.6,6,6.4,11.8,12.3c3.7,3.8,7.7,8.1,8.8,9.3l0.5,0.5
		l-0.4-18.8c0-2.3-0.3-3.4-1.6-3.6c-0.7-0.1-1.6-0.2-1.9-0.2v0l0,0l0,0v0l0,0l0-0.1h-0.1l0.1,0.1l0-0.1h-0.1l0.1,0.1l0.1,0
		c0.1,0,0.2,0,0.4,0c1.7,0,3.5,0.1,3.9,0.1c0.4,0,1.7-0.1,3.2-0.1c0.2,0,0.3,0,0.4,0l0,0l0.1-0.1l-0.1,0l0,0.1l0.1-0.1l-0.1,0h0
		l-0.1,0c-0.2,0-0.5,0-1,0.1c-1.4,0.3-1.6,1.3-1.6,3.4l-0.1,21.1c0,1.2,0,1.8-0.1,2.2c0,0.2,0,0.2,0,0.2l0.1,0.1v-0.1l-0.1,0.1
		l0.1,0.1v-0.1c-0.2,0-0.6-0.2-2.6-2.1c-0.4-0.3-5.8-5.6-9.7-9.7c-4.3-4.5-8.5-9-9.7-10.2l-0.5-0.6l0,0.8L85.7,297.7L85.7,297.7z
		 M134.7,307.3h-0.3c0,4.1,0,7.4-0.2,9.2c-0.2,1.2-0.4,2-1,2.1c-0.4,0.1-0.9,0.2-1.2,0.2c-0.2,0-0.3,0-0.5,0.2
		c-0.1,0.1-0.2,0.3-0.2,0.4c0,0.2,0.1,0.5,0.3,0.5c0.2,0.1,0.4,0.1,0.6,0.1c1.3,0,4-0.1,4.2-0.1s2.9,0.1,5.2,0.1c0.5,0,1-0.2,1-0.6
		c0-0.1,0-0.3-0.2-0.4c-0.1-0.1-0.3-0.2-0.5-0.2c-0.4,0-1.3-0.1-1.9-0.2c-1.1-0.2-1.3-0.8-1.4-2.1c-0.2-1.8-0.2-5.1-0.2-9.2v-3.6
		l0-0.1l-0.1,0l0,0l0,0l-0.1,0l0,0l0,0l0,0.1l0,0l0,0l0,0.1l0,0c0.7,0,5.4,0,6.4,0.1c1.2,0.2,1.8,0.8,2,1.3c0.2,0.5,0.2,1,0.2,1.5
		c0,0.2,0.2,0.6,0.6,0.6c0.3,0,0.5-0.3,0.5-0.5c0-0.2,0-0.4,0-0.6c0-0.3,0.1-2,0.2-2.8c0.1-1.4,0.3-2,0.3-2.4c0-0.1,0-0.2-0.1-0.4
		c-0.1-0.1-0.3-0.3-0.4-0.2c-0.4,0-0.5,0.4-0.7,0.5c-0.3,0.5-0.7,0.6-1.7,0.7c-0.6,0-1.2,0-1.9,0l-5.4,0l0,0l0,0.1l0.1,0l-0.1,0
		l0,0.1l0.1,0l0-0.1v-11.7c0-0.1,0-0.2,0-0.2l0.1,0l6.5,0.1c1.6,0,2.4,0.8,2.6,1.2c0.2,0.5,0.4,1.2,0.4,1.5c0,0.3,0.1,0.8,0.6,0.8
		c0.5,0,0.6-0.5,0.6-0.7c0.1-0.6,0.2-2.4,0.2-2.8c0.1-1.2,0.3-1.6,0.3-2c0-0.3-0.1-0.7-0.5-0.7c-0.4,0-0.5,0.2-0.7,0.3
		c-0.3,0.1-1,0.1-1.8,0.2c-0.7,0-5.2,0.1-8.1,0.1c-1.2,0-2.1,0-2.3,0l-1.7-0.1c-0.9,0-2.1,0-3.1,0c-0.2,0-0.4,0-0.6,0.1
		c-0.2,0.1-0.3,0.3-0.3,0.5c0,0.4,0.4,0.5,0.6,0.5c0.4,0,1.1,0,1.4,0.1c1.3,0.3,1.5,0.7,1.6,2.1c0.1,1.3,0.1,2.5,0.1,9.2l0,7.5
		H134.7h0.3v-7.5c0-6.6,0-7.8-0.1-9.2c0-1.5-0.6-2.4-2.1-2.7c-0.4-0.1-1.1-0.1-1.5-0.1l-0.1,0l0,0.1h0.1l0-0.1l0,0.1h0.1h0h0h0
		c0,0,0.2,0,0.4,0c1,0,2.1,0,3,0l1.7,0.1c0.3,0,1.2,0,2.4,0c2.9,0,7.4,0,8.1-0.1c0.8,0,1.5,0,1.9-0.2c0.3-0.1,0.5-0.3,0.5-0.2v-0.1
		l-0.1,0l0.1,0v-0.1l-0.1,0l0,0.1c0,0.2-0.2,0.8-0.3,2c0,0.4-0.1,2.3-0.2,2.8l-0.1,0.2l0,0l0,0v-0.1l0,0l0,0v-0.1v0l0,0l0,0v0l0,0
		c0,0,0-0.1,0-0.2c0-0.4-0.1-1.1-0.4-1.7c-0.3-0.7-1.4-1.5-3.1-1.5l-6.5-0.1c-0.2,0-0.4,0-0.5,0.2c-0.1,0.2-0.2,0.3-0.2,0.6v11.7
		c0,0.1,0,0.3,0.1,0.4c0.1,0.2,0.3,0.2,0.5,0.2l5.4,0c0.7,0,1.3,0,1.9,0c1-0.1,1.7-0.2,2.2-0.9l0.2-0.3l0,0l0-0.1v0.1l0,0l0-0.1v0.1
		v-0.1l-0.1,0l0.1,0.1v-0.1l-0.1,0l0,0.1c0,0.1-0.2,0.9-0.3,2.3c-0.1,0.9-0.2,2.6-0.2,2.9c0,0.2,0,0.4,0,0.5l0,0.1l0,0v-0.1l0,0l0,0
		v-0.1v0l0,0l0,0v0l0,0l0-0.1c0-0.4-0.1-1.1-0.3-1.6c-0.2-0.7-1-1.5-2.4-1.7c-1.1-0.1-5.7-0.1-6.4-0.1c-0.1,0-0.3,0-0.5,0.2
		c-0.1,0.2-0.1,0.3-0.1,0.5v3.6c0,4.1,0,7.4,0.2,9.2c0.1,1.2,0.4,2.4,1.9,2.6c0.6,0.1,1.5,0.2,1.9,0.2l0.1,0l0,0h-0.1l0,0l0,0h-0.1
		l0,0c0,0-0.2,0.1-0.4,0.1c-2.3,0-5-0.1-5.2-0.1c-0.2,0-2.9,0.1-4.2,0.1c-0.2,0-0.4,0-0.4,0l0,0h0h0l0,0h0h-0.1l0,0l0,0h-0.1l0,0
		l0.1,0c0.4,0,0.9-0.1,1.3-0.2c1.1-0.2,1.3-1.4,1.5-2.6c0.2-1.8,0.2-5.2,0.2-9.2H134.7L134.7,307.3z M158.8,309.1h-0.3
		c0,3.5,0,6.3-0.2,7.8c-0.2,1.1-0.3,1.6-0.8,1.7c-0.3,0.1-0.8,0.2-1.1,0.2c-0.4,0-0.6,0.4-0.6,0.6c0,0.5,0.5,0.6,0.9,0.6
		c1.2,0,3.7-0.1,3.7-0.1c0.1,0,2.5,0.1,4.6,0.1c0.4,0,0.9-0.2,0.9-0.6c0-0.1,0-0.2-0.1-0.4c-0.1-0.1-0.3-0.2-0.5-0.2
		c-0.3,0-1.1-0.1-1.6-0.2c-1-0.2-1.1-0.6-1.2-1.7c-0.2-1.4-0.2-4.3-0.2-7.7v-0.8l0-0.1l-0.1,0l0,0.1l0,0l-0.1,0l0,0.1l0,0v0l0,0l0,0
		v0l4.7,0.1c0.2,0,0.1,0,0.3,0.1c0.8,0.9,2.4,3.3,4,5.2c2.1,2.7,3.5,4.5,5.2,5.4c1,0.5,2,0.8,4.1,0.8h2.3c0.4,0,0.6,0,0.8-0.1
		c0.2,0,0.4-0.3,0.4-0.5c0-0.3-0.3-0.6-0.6-0.6c-0.2,0-0.6,0-1.3-0.1c-0.9-0.1-2-0.4-4-2.4c-2.1-2.2-4.7-5.5-7.8-9.3l-0.2,0.2
		l0.2,0.2c3.5-3,4.7-5.7,4.7-8.5c0-2.6-1.7-4.4-2.7-5.2c-2-1.4-4.7-1.6-7.1-1.6c-1.2,0-4.3,0.1-4.7,0.1c-0.2,0-2.7-0.1-4.4-0.1
		c-0.2,0-0.4,0-0.6,0.1c-0.2,0.1-0.3,0.3-0.3,0.5c0.1,0.4,0.2,0.5,0.6,0.6c0.3,0,1,0,1.2,0.1c1.1,0.2,1.1,0.5,1.3,1.7
		c0.1,1.1,0.1,2.1,0.1,7.7v6.4H158.8h0.3v-6.4c0-5.6,0-6.6-0.1-7.8c0-1.2-0.4-2.1-1.8-2.3c-0.3,0-1-0.1-1.3-0.1v0h0l0,0l0,0h0l0,0
		c0,0,0.1,0,0.3,0c1.7,0,4.2,0.1,4.4,0.1c0.4,0,3.5-0.1,4.7-0.1c2.4,0,4.9,0.2,6.8,1.5c0.9,0.6,2.5,2.3,2.5,4.7c0,2.6-1,5.1-4.5,8
		l-0.2,0.2l0.2,0.2c3.1,3.8,5.6,7.1,7.8,9.4c2,2.1,3.3,2.5,4.3,2.6c0.7,0.1,1.1,0.1,1.4,0.1l0,0h0.1l-0.1,0l0,0h0.1l-0.1,0l0,0l0,0
		l0,0l0,0l0,0c0,0-0.3,0.1-0.6,0.1h-2.3c-2.1,0-3-0.2-3.8-0.7c-1.5-0.8-2.9-2.5-5-5.2c-1.6-2-3.2-4.3-4-5.3
		c-0.2-0.2-0.5-0.3-0.7-0.3l-4.7-0.1c-0.1,0-0.3,0-0.4,0.2c-0.1,0.1-0.1,0.3-0.1,0.4v0.8c0,3.5,0,6.3,0.2,7.8c0.1,1.1,0.4,2,1.7,2.2
		c0.5,0.1,1.3,0.2,1.7,0.2l0,0h0l0,0l0,0h0l0,0c0,0-0.1,0-0.3,0c-2,0-4.4-0.1-4.6-0.1c-0.1,0-2.6,0.1-3.7,0.1c-0.2,0-0.3,0-0.3,0
		l0,0h0l0,0l0,0h0v0c0.4,0,0.9-0.1,1.2-0.2c1-0.2,1-1.1,1.2-2.1c0.2-1.5,0.2-4.4,0.2-7.9H158.8L158.8,309.1z M162.1,294.2h0.3
		c0-0.1,0-0.1,0.1-0.2c0.3,0,1.5-0.2,2.5-0.2c3.8,0,6.1,2.4,6.2,6.8c0,2.7-1,4.5-2.1,5.3c-0.8,0.5-1.8,0.6-2.6,0.6
		c-1.6,0-3.6-0.3-4-0.5c-0.1-0.1-0.1-0.1-0.1-0.2v-11.6H162.1h-0.3v11.6c0,0.3,0.2,0.6,0.4,0.7c0.7,0.4,2.6,0.6,4.3,0.6
		c0.9,0,2,0,3-0.7c1.4-0.9,2.4-2.9,2.4-5.8c0-2.3-0.6-4.2-1.8-5.4c-1.2-1.3-2.9-2-4.9-2c-1.1,0-2.3,0.1-2.7,0.2
		c-0.3,0.1-0.5,0.4-0.5,0.7H162.1L162.1,294.2z M184.5,315.6l-0.3-0.1c-0.7,1.8-1.4,2.9-2.9,3.1c-0.3,0-0.8,0.1-1.1,0.1
		c-0.3,0-0.6,0.2-0.6,0.6c0.1,0.5,0.6,0.6,1,0.6c1.5,0,3.4-0.1,3.8-0.1c0.4,0,2.4,0.1,3.4,0.1c0.3,0,0.8-0.1,0.8-0.6
		c0-0.1,0-0.3-0.2-0.4c-0.1-0.1-0.3-0.2-0.5-0.2h-0.3c-0.6,0-1-0.2-1-0.7c0-0.6,0.2-1.4,0.5-2.3l2.1-5.8c0.1-0.1,0-0.1,0.1-0.1h8.6
		l0.1,0l0-0.1l0,0.1l0,0l0-0.1l0,0.1l0,0.1l3.3,8.3c0,0.1,0.1,0.2,0.1,0.3c0,0.2-0.1,0.3-0.2,0.3c-0.1,0-0.5,0.2-0.4,0.5
		c0.1,0.5,0.4,0.4,0.6,0.5c0.3,0,0.6,0,1,0.1c2.6,0.1,5.4,0.1,5.9,0.1c0.4,0,1,0.1,1.1-0.6c0-0.5-0.5-0.6-0.8-0.6
		c-0.4,0-0.9,0-1.4-0.2c-0.7-0.2-1.6-0.6-3-3.8c-2.3-5.5-8.3-20.4-9-21.9c-0.4-0.7-0.4-1.4-1.2-1.5c-0.5,0-0.7,0.4-1.2,1.6
		l-8.8,22.6L184.5,315.6l0.3,0.1l8.8-22.6c0.2-0.6,0.4-0.9,0.5-1.1c0.1-0.2,0.1-0.1,0.1-0.1c0,0,0.1,0,0.2,0.2
		c0.1,0.2,0.2,0.5,0.4,0.9c0.7,1.5,6.7,16.4,8.9,21.9c1.4,3.2,2.5,3.8,3.4,4.1c0.6,0.2,1.2,0.2,1.6,0.2l0.2,0l0,0l0,0h-0.1l0,0l0,0
		h-0.1h0.1l-0.1-0.1l0,0.1h0.1l-0.1-0.1c0,0-0.3,0.1-0.6,0.1c-0.6,0-3.3,0-5.9-0.1c-0.4,0-0.7,0-0.9-0.1l-0.2,0l-0.1,0.1h0.1
		c0-0.1-0.1-0.1-0.1-0.1l-0.1,0.1h0.1h0l0,0l0,0h0l0,0l-0.1,0l0.1,0.1l0-0.1l-0.1,0l0.1,0.1l0.1-0.1c0.2-0.1,0.6-0.4,0.6-0.9
		c0-0.2,0-0.3-0.1-0.5l-3.3-8.3c-0.1-0.2-0.4-0.4-0.6-0.4h-8.6c-0.3,0-0.6,0.2-0.7,0.5l-2.1,5.8c-0.3,0.9-0.6,1.8-0.6,2.5
		c0,1,0.9,1.3,1.6,1.3h0.3l0.1,0l0,0h0l0,0l0,0h0h0l0,0l0,0h0l0,0c0,0-0.1,0-0.3,0c-0.9,0-2.9-0.1-3.4-0.1c-0.4,0-2.3,0.1-3.8,0.1
		c-0.2,0-0.4,0-0.4,0l0,0l-0.1,0h0.1l0,0l-0.1,0h0.1h0l0,0v0h0l0,0l0,0c0.3,0,0.8,0,1.1-0.1c1.9-0.2,2.7-1.7,3.4-3.5L184.5,315.6
		L184.5,315.6z M189.9,308.1v-0.3v0.1l0.1-0.1l-0.1,0v0.1l0.1-0.1l-0.1,0.1h0.2l0-0.1l-0.1,0.1h0.2l0,0l3.5-9.9
		c0-0.1,0.1-0.2,0.1-0.2l0,0l-0.1-0.1v0.1l0.1,0l-0.1-0.1v0.1v-0.1l-0.1,0.1l0.1,0v-0.1l-0.1,0.1c0,0,0.1,0.1,0.1,0.2l3.7,9.9l0,0
		h0.2l-0.1-0.1l-0.1,0.1h0.2l-0.1-0.1l0.1,0.1v-0.1l-0.1,0l0.1,0.1v-0.1l-7.6,0V308.1v0.3h7.6c0.1,0,0.2,0,0.3-0.1
		c0.1-0.1,0.1-0.2,0.1-0.3l0-0.2l-3.7-9.9c-0.1-0.3-0.2-0.6-0.6-0.6c-0.4,0.1-0.5,0.3-0.6,0.6l-3.5,9.9l0,0.2l0.1,0.3l0.3,0.1V308.1
		L189.9,308.1z M215.2,297.7l-0.2,0.2c1.2,1.3,5.3,5.7,9.7,10.2c4,4.1,9.3,9.4,9.7,9.8c2.1,1.9,2.4,2.2,3,2.3c0.3,0,0.5-0.3,0.5-0.7
		c0-0.4,0.1-1,0.1-2.2l0.1-21.1c0-2.2,0-2.6,1.1-2.9c0.4-0.1,0.7-0.1,0.8-0.1c0.4,0,0.7-0.3,0.7-0.6c-0.1-0.6-0.6-0.5-1-0.6
		c-1.5,0-2.8,0.1-3.2,0.1c-0.4,0-2.2-0.1-3.9-0.1c-0.2,0-0.4,0-0.6,0.1c-0.2,0-0.4,0.2-0.4,0.5c0,0.2,0.1,0.6,0.6,0.6
		c0.3,0,1.1,0,1.8,0.2c0.9,0.2,1.1,0.7,1.2,3.1l0.4,18.1l0.3,0l0.2-0.2c-1.1-1.2-5.1-5.5-8.8-9.3c-5.8-5.9-11.2-11.7-11.8-12.3
		c-0.4-0.4-0.9-1.1-1.6-1.2c-0.3,0-0.6,0.2-0.6,0.6c-0.1,0.3-0.2,0.8-0.2,1.5l0,20.7c0,1.6,0,2.7-0.2,3.3c-0.2,0.6-0.3,0.8-0.7,0.9
		c-0.5,0.2-1.2,0.2-1.4,0.2c-0.3,0-0.6,0.3-0.6,0.6c0,0.2,0.1,0.5,0.3,0.5c0.2,0.1,0.4,0.1,0.6,0.1c1.7,0,3.3-0.1,3.6-0.1
		c0.3,0,1.8,0.1,3.9,0.1c0.4,0,0.9-0.1,1-0.6c0-0.3-0.3-0.6-0.6-0.6c-0.3,0-1.2,0-1.8-0.2c-0.8-0.2-1.1-0.8-1.2-3.8l-0.4-17
		L215.2,297.7l-0.2,0.2L215.2,297.7l-0.3,0l0.4,17c0.1,2.9,0.4,4.1,1.7,4.4c0.7,0.2,1.6,0.2,1.9,0.2l0,0h0.1l-0.1,0l0,0h0.1l-0.1,0
		l-0.1,0c-0.1,0-0.2,0-0.3,0c-2.1,0-3.6-0.1-3.9-0.1c-0.4,0-1.9,0.1-3.6,0.1c-0.2,0-0.3,0-0.3,0l0,0l0,0l0,0l0,0l0,0l0,0h0l0,0l0,0
		h0l0,0c0.3,0,1,0,1.6-0.2c0.6-0.1,0.9-0.6,1.1-1.3c0.2-0.7,0.2-1.8,0.2-3.4v-20.7c0-0.7,0.1-1.1,0.1-1.4c0-0.1,0.1-0.2,0.1-0.2l0,0
		c0.1-0.1,0.9,0.6,1.2,1c0.6,0.6,6,6.4,11.8,12.3c3.7,3.8,7.7,8.1,8.8,9.3l0.5,0.5l-0.4-18.8c0-2.3-0.3-3.4-1.6-3.6
		c-0.7-0.1-1.6-0.2-1.9-0.2v0l0,0l0,0v0l0,0l0-0.1h-0.1l0.1,0.1l0-0.1h-0.1l0.1,0.1l0.1,0c0.1,0,0.2,0,0.4,0c1.7,0,3.5,0.1,3.9,0.1
		c0.4,0,1.7-0.1,3.2-0.1c0.2,0,0.3,0,0.4,0l0,0l0.1-0.1l-0.1,0l0,0.1l0.1-0.1l-0.1,0h0l-0.1,0c-0.2,0-0.5,0-1,0.1
		c-1.4,0.3-1.6,1.3-1.6,3.4l-0.1,21.1c0,1.2,0,1.8,0,2.2c0,0.2,0,0.2,0,0.2l0.1,0.1v-0.1l-0.1,0.1l0.1,0.1v-0.1
		c-0.2,0-0.6-0.2-2.6-2.1c-0.4-0.3-5.8-5.6-9.7-9.7c-4.3-4.5-8.5-9-9.7-10.2l-0.5-0.6l0,0.8L215.2,297.7L215.2,297.7z M261.4,320.1
		v0.3c2.4,0,5.2-0.2,6.9-0.8c0.7-0.2,0.9-0.6,1.1-1.2c0.4-1.3,0.9-4.4,0.9-4.7c0-0.4-0.2-0.7-0.6-0.8c-0.4,0-0.6,0.4-0.7,0.7
		c-0.1,0.6-0.6,2.2-1.4,2.9c-1.4,1.4-3.1,1.6-5.9,1.6c-7.8,0-13.2-6-13.2-12.8c0-3.6,0.6-6.7,3.3-9.2c1.3-1.2,3.5-2.4,8.2-2.4
		c3.3,0,5.9,0.9,7.2,1.9c0.9,0.7,1.5,2.1,1.5,3.4c0,0.3,0,0.5,0.1,0.7c0,0.2,0.3,0.4,0.5,0.4c0.5,0,0.7-0.5,0.7-1
		c0-0.5,0-2.5,0.1-3.7c0.1-1.3,0.2-1.7,0.2-2c0-0.1,0-0.3-0.2-0.5c-0.1-0.1-0.4-0.2-0.6-0.2c-1.2,0-2.4-0.3-3.8-0.5
		c-1.9-0.3-4-0.4-5.5-0.4c-5.8,0-9.3,1.7-11.6,3.9c-3.4,3.3-4.3,7.6-4.3,10.1c0,3.5,0.9,7.7,4.6,10.9c3,2.6,6.9,3.9,12.5,3.9V320.1
		v-0.3c-5.6,0-9.2-1.3-12.1-3.8c-3.6-3.1-4.4-7.1-4.4-10.5c0-2.4,0.9-6.5,4.1-9.6c2.2-2.1,5.5-3.8,11.2-3.8c1.5,0,3.6,0.1,5.4,0.4
		c1.4,0.3,2.6,0.5,3.9,0.6c0.2,0,0.2,0,0.2,0l0,0.1c0,0.2-0.1,0.7-0.2,2c0,1.2,0,3.2-0.1,3.7c0,0.3-0.1,0.4-0.1,0.5l0,0v0.1l0,0l0,0
		v0.1l0,0l0,0l0,0l0,0l0,0l0,0c0,0,0-0.2,0-0.5c0-1.5-0.6-3-1.7-3.8c-1.4-1.2-4.2-2.1-7.5-2.1c-4.8,0-7.2,1.3-8.6,2.6
		c-2.8,2.6-3.4,6-3.4,9.6c0,7.1,5.6,13.4,13.7,13.4c2.8,0,4.8-0.2,6.4-1.8c0.9-0.9,1.4-2.4,1.5-3.2c0-0.2,0.1-0.3,0.1-0.3l-0.1,0
		l0,0.1l0,0l-0.1,0l0,0.1h0v-0.1l0,0.1l0,0v-0.1l0,0.1l0.1,0.2c0,0.2-0.5,3.4-0.9,4.5c-0.2,0.7-0.1,0.6-0.8,0.9
		c-1.4,0.6-4.2,0.8-6.6,0.8V320.1L261.4,320.1z M282.2,302.7h0.3c0-5.6,0-6.6,0-7.8c0.1-1.3,0.2-1.5,1.1-1.7
		c0.4-0.1,0.6-0.1,0.9-0.1c0.4-0.1,0.5-0.2,0.6-0.6c0-0.2-0.1-0.4-0.3-0.5c-0.2-0.1-0.4-0.1-0.6-0.1c-1.2,0-3.6,0.1-3.7,0.1
		c-0.2,0-2.5-0.1-3.8-0.1c-0.2,0-0.4,0-0.6,0.1c-0.2,0.1-0.3,0.3-0.3,0.5c0,0.3,0.2,0.6,0.6,0.6c0.2,0,0.7,0,1.1,0.1
		c0.6,0.2,0.8,0.5,1,1.7c0.1,1.1,0.1,2.1,0.1,7.7v6.4c0,3.5,0,6.3-0.2,7.8c-0.1,1.1-0.3,1.6-0.7,1.7c-0.3,0.1-0.8,0.2-1.1,0.2
		c-0.4,0-0.6,0.4-0.6,0.6c0,0.5,0.5,0.6,0.9,0.6c1.2,0,3.5-0.1,3.7-0.1c0.1,0,2.6,0.1,4.7,0.1c0.4,0,0.9-0.2,0.9-0.6
		c0-0.2-0.2-0.6-0.6-0.6c-0.3,0-1.1-0.1-1.7-0.2c-0.9-0.2-0.9-0.6-1.1-1.7c-0.2-1.4-0.2-4.3-0.2-7.8v-6.4H282.2h-0.3v6.4
		c0,3.5,0,6.3,0.2,7.8c0.1,1,0.3,2,1.6,2.2c0.6,0.1,1.4,0.2,1.7,0.2v0h0l0,0l0,0h0l0,0c0,0-0.1,0-0.3,0c-2.1,0-4.5-0.1-4.7-0.1
		c-0.2,0-2.6,0.1-3.7,0.1c-0.2,0-0.3,0-0.3,0l0,0h0l0,0l0,0h0l0,0c0.4,0,0.9-0.1,1.2-0.2c0.9-0.2,1.1-1.1,1.2-2.2
		c0.2-1.5,0.2-4.4,0.2-7.8l0-6.4c0-5.6,0-6.6-0.1-7.8c-0.1-1.2-0.5-2-1.4-2.2c-0.4-0.1-0.9-0.1-1.2-0.1l0,0h0l0,0l0,0h0l0,0
		c0,0,0.1,0,0.3,0c1.2,0,3.5,0.1,3.8,0.1c0.2,0,2.6-0.1,3.7-0.1c0.2,0,0.3,0,0.3,0l0,0h0l0,0l0,0h0l0,0c-0.3,0-0.5,0-1,0.1
		c-1.1,0.2-1.5,1-1.6,2.3c0,1.2,0,2.2,0,7.8H282.2L282.2,302.7z M297.6,320.1v0.3c2.1,0,4.4-0.2,6.1-1.3c2.8-1.8,3.6-4.2,3.6-6.4
		c0-3.2-1.7-5.8-6.2-8.9L300,303c-3.7-2.5-4.7-3.7-4.7-5.9c0-2.3,2-3.6,4.7-3.6c3.3,0,4.4,1.3,4.6,1.6c0.2,0.3,0.5,1.3,0.5,1.7
		c0,0.3,0.2,0.8,0.6,0.7c0.2,0,0.5-0.2,0.5-0.4c0.1-0.2,0.1-0.4,0.1-0.7c0-2.5,0.2-3.6,0.2-3.8c0-0.1,0-0.3-0.2-0.5
		c-0.2-0.1-0.3-0.1-0.5-0.1c-0.3,0-0.5,0-1.2-0.2c-0.9-0.2-2.4-0.4-3.9-0.4c-5,0-8.6,2.7-8.6,7.1c0,2.6,1.4,4.9,5.5,8l1.7,1.3
		c3.3,2.5,4.6,3.6,4.6,6c0,2.6-1.7,4.5-5.3,4.5c-2.5,0-5.1-0.9-5.6-3.3c-0.1-0.5-0.1-1-0.1-1.2c0-0.2,0-0.4-0.2-0.5
		c-0.1-0.1-0.3-0.2-0.5-0.2c-0.5,0-0.6,0.5-0.6,0.9c0,0.6-0.2,2-0.2,3.8c-0.1,0.9,0.1,1.4,0.7,1.6c1.6,0.8,3.8,1,5.6,1V320.1v-0.3
		c-1.7,0-3.9-0.3-5.3-0.9c-0.4-0.3-0.3-0.1-0.4-1.1c0-1.8,0.2-3.2,0.2-3.8c0-0.2,0-0.3,0-0.3l0,0v0l0,0l0,0v0l0,0c0,0,0,0,0,0.1
		c0,0.3,0,0.8,0.1,1.4c0.7,2.8,3.6,3.8,6.2,3.8c3.8,0,5.9-2.2,5.9-5.1c0-2.7-1.5-4.1-4.8-6.5l-1.7-1.3c-4-3-5.2-5.1-5.2-7.5
		c0-4.1,3.1-6.5,8-6.5c1.5,0,2.9,0.2,3.8,0.4c0.7,0.2,1.1,0.2,1.4,0.2l0.1,0l0,0l0.1-0.1l-0.1,0.1l0.1,0.1l0.1-0.1l-0.1,0.1l0,0
		c0,0.1-0.2,1.4-0.2,3.8c0,0.3,0,0.5,0,0.5l0,0l0,0v-0.1l0,0l0,0v-0.1v0h0l0,0v0h0c0,0,0-0.1,0-0.2c-0.1-0.5-0.3-1.4-0.6-1.9
		c-0.3-0.5-1.7-1.9-5.1-1.9c-2.8,0-5.3,1.4-5.3,4.2c0,2.4,1.3,3.9,5,6.4l1.1,0.7c4.5,3.1,6,5.5,6,8.5c0,2.1-0.8,4.2-3.3,5.9
		c-1.5,1-3.8,1.2-5.8,1.2V320.1L297.6,320.1z M330.2,320.1v0.3c2.4,0,5.2-0.2,6.9-0.8c0.7-0.2,0.9-0.6,1.1-1.2
		c0.4-1.3,0.9-4.4,0.9-4.7c0-0.4-0.2-0.7-0.6-0.8c-0.4,0-0.6,0.4-0.7,0.7c-0.1,0.6-0.6,2.2-1.4,2.9c-1.4,1.4-3.1,1.6-5.9,1.6
		c-7.8,0-13.2-6-13.2-12.8c0-3.6,0.6-6.7,3.3-9.2c1.3-1.2,3.5-2.4,8.2-2.4c3.3,0,5.9,0.9,7.2,1.9c0.9,0.7,1.5,2.1,1.5,3.4
		c0,0.3,0,0.5,0.1,0.7c0,0.2,0.3,0.4,0.5,0.4c0.5,0,0.7-0.5,0.7-1c0-0.5,0-2.5,0.1-3.7c0.1-1.3,0.2-1.7,0.2-2c0-0.1,0-0.3-0.2-0.5
		c-0.2-0.1-0.4-0.2-0.6-0.2c-1.2,0-2.4-0.3-3.8-0.5c-1.9-0.3-4-0.4-5.5-0.4c-5.8,0-9.3,1.7-11.6,3.9c-3.4,3.3-4.3,7.6-4.3,10.1
		c0,3.5,0.9,7.7,4.6,10.9c3,2.6,6.9,3.9,12.5,3.9V320.1v-0.3c-5.6,0-9.2-1.3-12.1-3.8c-3.6-3.1-4.4-7.1-4.4-10.5
		c0-2.4,0.9-6.5,4.1-9.6c2.2-2.1,5.5-3.8,11.2-3.8c1.5,0,3.6,0.1,5.4,0.4c1.4,0.3,2.6,0.5,3.9,0.6c0.2,0,0.2,0,0.2,0l0,0.1
		c0,0.2-0.1,0.7-0.2,2c0,1.2,0,3.2-0.1,3.7c0,0.3-0.1,0.4-0.1,0.5l0,0v0l0,0l0,0v0l0,0l0,0l0,0l0,0l0,0l0,0c0,0,0-0.2,0-0.5
		c0-1.5-0.6-3-1.7-3.8c-1.4-1.2-4.2-2.1-7.5-2.1c-4.8,0-7.2,1.3-8.6,2.6c-2.8,2.6-3.4,6-3.4,9.6c0,7.1,5.6,13.4,13.7,13.4
		c2.8,0,4.8-0.2,6.4-1.8c0.9-0.9,1.4-2.4,1.5-3.2c0-0.2,0.1-0.3,0.1-0.3l-0.1,0l0,0.1l0,0l-0.1,0l0,0.1h0v-0.1l0,0.1l0,0v-0.1l0,0.1
		l0.1,0.2c0,0.2-0.5,3.4-0.9,4.5c-0.2,0.7-0.2,0.6-0.8,0.9c-1.4,0.6-4.2,0.8-6.6,0.8V320.1L330.2,320.1z M343,305.9h-0.3
		c0,6.6,4.5,14.5,14.9,14.5c9.2,0,15.3-6.8,15.3-15c0-8.6-6.5-13.8-15.1-13.8c-10.5,0-15.1,8.4-15.1,14.4H343h0.3
		c0-5.7,4.4-13.8,14.5-13.8c8.3,0,14.5,5,14.5,13.2c0,7.9-5.8,14.4-14.7,14.4c-10.1,0-14.3-7.5-14.3-13.9H343L343,305.9z
		 M346.9,304.9h0.3c0-7.7,4.3-11.4,10.4-11.5c5.7,0,10.8,4.4,10.9,12.9c0,10.3-6.5,11.9-9.8,11.9c-6.6,0-11.5-5.1-11.5-13.4H346.9
		h-0.3c0,8.5,5.2,13.9,12.1,14c1.7,0,4.3-0.5,6.5-2.3c2.2-1.8,3.9-5,3.9-10.3c0-8.8-5.4-13.5-11.5-13.5c-3.2,0-6,1-7.9,3
		c-2,2-3.1,5-3.1,9H346.9L346.9,304.9z"/>
	<path id="XMLID_55_" class="st1" d="M137.6,352.5c0,0.7-0.3,1.2-0.9,1.5c-1.1,0.6-3.3,0.9-4.8,0.9c-3.9,0-7.8-1.3-11.1-4.5
		c-1.5-1.4-4.5-5.8-4.5-11.8c0-5,1.7-8.8,4.2-10.8c3.2-2.5,6.4-2.8,9.1-2.8c5.5,0,8.9,1.8,10,3.4c0.6,1,0.8,2.2,0.9,2.8
		c0,0.4,0.1,0.6,0.3,0.6c0.3,0,0.4-0.2,0.4-0.9c0-4.2,0.3-5.4,0.3-6c0-0.2-0.1-0.3-0.5-0.4c-1.1,0-2.5-0.2-3.4-0.4
		c-0.8-0.2-3.8-0.7-6.5-0.7c-3.3,0-7.5,0.3-11.3,2.7c-3.8,2.4-7.1,7.2-7.1,14c0,5.3,2.5,9.8,5,12.1c4.7,4.1,10.7,4.5,14,4.5
		c2.5,0,6.3-0.5,9-1.9c0.5-0.3,0.6-0.4,0.6-2.3v-4.8c0-1.8,0-3.1,0.1-4.4c0.1-1.5,0.4-2.2,1.6-2.4c0.5-0.1,0.8-0.1,1.1-0.1
		c0.2,0,0.3-0.1,0.3-0.3c0-0.3-0.2-0.3-0.7-0.3c-1.3,0-3.9,0.1-4.2,0.1c-0.2,0-2.9-0.1-4.8-0.1c-0.5,0-0.7,0.1-0.7,0.3
		c0,0.2,0.2,0.3,0.3,0.3c0.4,0,1.1,0,1.4,0.1c1.7,0.5,1.9,0.9,1.9,4.4V352.5L137.6,352.5z M157.5,336.4c0-6.6,0-7.8,0.1-9.2
		c0.1-1.5,0.4-2.2,1.7-2.4c0.5-0.1,1.1-0.1,1.4-0.1c0.2,0,0.3-0.1,0.3-0.3c0-0.3-0.2-0.3-0.7-0.3c-1.3,0-4.4,0.1-4.6,0.1
		c-0.2,0-2.9-0.1-4.8-0.1c-0.5,0-0.7,0.1-0.7,0.3c0,0.2,0.2,0.3,0.3,0.3c0.4,0,1.1,0,1.4,0.1c1.4,0.3,1.7,1,1.8,2.4
		c0.1,1.4,0.1,2.5,0.1,9.2v7.5c0,4.1,0,7.4-0.2,9.2c-0.2,1.2-0.4,2.2-1.2,2.3c-0.4,0.1-0.9,0.2-1.3,0.2c-0.3,0-0.3,0.1-0.3,0.3
		c0,0.3,0.2,0.3,0.7,0.3c0.6,0,1.6,0,2.4-0.1c0.9,0,1.6,0,1.7,0c1.2,0,2.5,0,4.3,0.1c1.8,0,4,0.1,7,0.1c2.2,0,2.4-0.2,2.7-1.1
		c0.3-1.2,0.6-3.8,0.6-4.2c0-0.5,0-0.6-0.3-0.6c-0.3,0-0.3,0.2-0.4,0.6c-0.1,0.8-0.6,1.9-1.1,2.5c-1,1.2-2.9,1.3-5.1,1.3
		c-3.3,0-4.4-0.3-5.1-1c-0.8-0.8-0.9-3.5-0.9-9.7V336.4L157.5,336.4z M173.2,340.1c0,7.6,4.8,16.7,16.5,16.7
		c10.2,0,16.9-7.8,16.9-17.4c0-9.9-7.1-15.9-16.7-15.9C178.3,323.5,173.2,333.2,173.2,340.1L173.2,340.1z M177.3,338.9
		c0-9.3,5.3-14,12.4-14c6.7,0,12.9,5.5,12.9,15.7c0,12.3-7.9,14.6-11.7,14.6C183.2,355.1,177.3,348.8,177.3,338.9L177.3,338.9z
		 M215.6,343.8c0,4.1,0,7.4-0.2,9.2c-0.2,1.2-0.4,2.2-1.2,2.3c-0.4,0.1-0.9,0.2-1.3,0.2c-0.3,0-0.3,0.1-0.3,0.3
		c0,0.3,0.2,0.3,0.7,0.3c0.6,0,1.6-0.1,2.5-0.1c0.9,0,1.6,0,1.7,0c0.2,0,1.4,0,2.6,0.1c1.2,0,2.6,0.1,3.1,0.1
		c7.3,0,10.8-4.7,10.8-9.2c0-5-4.2-8-7.3-9c2-2.1,4-4.2,4-7.6c0-2.1-1.5-6.4-8.5-6.4c-2,0-3.6,0.1-4.6,0.1c-0.2,0-2.9-0.1-4.8-0.1
		c-0.5,0-0.7,0.1-0.7,0.3c0,0.2,0.2,0.3,0.3,0.3c0.4,0,1.1,0,1.4,0.1c1.4,0.3,1.7,1,1.8,2.4c0.1,1.4,0.1,2.5,0.1,9.2V343.8
		L215.6,343.8z M219,325.9c0-0.3,0.1-0.4,0.5-0.5c0.7-0.2,1.6-0.2,2-0.2c4.2,0,5.7,3.8,5.7,7.3c0,1.7-0.6,3.3-1.5,4.3
		c-0.9,1-1.5,1.1-3.9,1.1c-1.6,0-2.3-0.1-2.6-0.2c-0.2-0.1-0.3-0.2-0.3-0.5V325.9L219,325.9z M219,339.4c0-0.2,0.1-0.3,0.3-0.3
		c0.6,0,2.8,0,3.3,0.1c1,0.1,2.1,0.3,3.5,1.2c3.3,2.2,4.1,5.9,4.1,8.5c0,4.8-3.7,6-6,6c-0.8,0-2.6-0.1-3.7-0.6
		c-1.3-0.6-1.3-1.2-1.4-3.3c0-0.6,0-5.9,0-9.2V339.4L219,339.4z M241,351.5c-0.8,2.1-1.6,3.7-3.6,4c-0.3,0-0.9,0.1-1.2,0.1
		c-0.2,0-0.4,0.1-0.4,0.3c0,0.3,0.3,0.3,0.8,0.3c2,0,4.3-0.1,4.8-0.1c0.5,0,2.3,0.1,3.3,0.1c0.4,0,0.6-0.1,0.6-0.3
		c0-0.2-0.1-0.3-0.4-0.3h-0.4c-0.7,0-1.6-0.4-1.6-1.2c0-0.8,0.2-1.8,0.6-2.8l2.5-7.5c0.1-0.2,0.2-0.3,0.4-0.3h9.1
		c0.2,0,0.3,0.1,0.4,0.3l3.9,10.4c0.3,0.7,0,1.1-0.3,1.1c-0.2,0-0.3,0.1-0.3,0.3c0,0.3,0.5,0.3,1.3,0.3c2.9,0.1,6,0.1,6.7,0.1
		c0.5,0,0.8-0.1,0.8-0.3c0-0.2-0.2-0.3-0.4-0.3c-0.4,0-1.1,0-1.7-0.3c-0.9-0.3-2.1-0.9-3.6-4.7c-2.6-6.4-9.2-24-9.9-25.6
		c-0.5-1.3-0.7-1.5-0.9-1.5c-0.3,0-0.4,0.3-0.9,1.7L241,351.5L241,351.5z M247,342.1c-0.1,0-0.2-0.1-0.1-0.3l3.7-11.5
		c0.2-0.6,0.4-0.6,0.6,0l4,11.5c0,0.2,0,0.3-0.2,0.3H247L247,342.1z M277.8,336.4c0-6.6,0-7.8,0.1-9.2c0.1-1.5,0.4-2.2,1.7-2.4
		c0.5-0.1,1.1-0.1,1.4-0.1c0.2,0,0.3-0.1,0.3-0.3c0-0.3-0.2-0.3-0.7-0.3c-1.3,0-4.4,0.1-4.6,0.1c-0.2,0-2.9-0.1-4.8-0.1
		c-0.5,0-0.7,0.1-0.7,0.3c0,0.2,0.2,0.3,0.3,0.3c0.4,0,1.1,0,1.4,0.1c1.4,0.3,1.7,1,1.8,2.4c0.1,1.4,0.1,2.5,0.1,9.2v7.5
		c0,4.1,0,7.4-0.2,9.2c-0.2,1.2-0.4,2.2-1.2,2.3c-0.4,0.1-0.9,0.2-1.3,0.2c-0.3,0-0.3,0.1-0.3,0.3c0,0.3,0.2,0.3,0.7,0.3
		c0.6,0,1.6,0,2.4-0.1c0.8,0,1.6,0,1.7,0c1.2,0,2.5,0,4.3,0.1c1.8,0,4,0.1,7,0.1c2.2,0,2.4-0.2,2.7-1.1c0.3-1.2,0.6-3.8,0.6-4.2
		c0-0.5,0-0.6-0.3-0.6c-0.3,0-0.3,0.2-0.4,0.6c-0.1,0.8-0.6,1.9-1.1,2.5c-1,1.2-2.9,1.3-5.1,1.3c-3.3,0-4.4-0.3-5.1-1
		c-0.8-0.8-0.9-3.5-0.9-9.7V336.4L277.8,336.4z"/>
</g>
</svg>

