<?xml version="1.0" encoding="utf-8"?>
<!-- Generator: Adobe Illustrator 22.0.0, SVG Export Plug-In . SVG Version: 6.00 Build 0)  -->
<svg version="1.1" id="Layer_1" xmlns="http://www.w3.org/2000/svg" xmlns:xlink="http://www.w3.org/1999/xlink" x="0px" y="0px"
	 viewBox="0 0 280.8 300.9" style="enable-background:new 0 0 280.8 300.9;" xml:space="preserve">
<style type="text/css">
	.st0{fill:#F4CD00;}
	.st1{fill:#002D73;}
</style>
<g id="XMLID_44_">
	<polygon id="XMLID_836_" class="st0" points="140.1,197.2 140.6,198.3 138.2,200.1 137.9,199.3 138.6,197.8 137.9,197.3 
		139.6,196.1 	"/>
	<polygon id="XMLID_835_" class="st0" points="138.6,197.8 137.9,199.3 137.2,197.8 137.9,197.3 	"/>
	<polygon id="XMLID_834_" class="st0" points="138.6,12.3 137.9,13.2 137.1,12.3 136.4,11.4 137.9,9.6 139.3,11.4 	"/>
	<polygon id="XMLID_833_" class="st0" points="137.9,200 138,200.1 137.9,200.4 137.7,200.1 	"/>
	<path id="XMLID_832_" class="st1" d="M145.1,193.1c-1.6,1.5-3.3,2.8-5,4.1l-0.5-1.1l-1.7,1.2l-1.7-1.3l-0.5,1.1
		c-1.7-1.3-3.4-2.6-5-4.1c-1.9-1.8-3.7-3.6-5.6-5.5c-1.8-1.9-3.7-3.8-5.5-5.7C83,144.6,57.6,92.8,55,37.5c27.8-1.4,58.9-3.3,82-25.1
		l0.1-0.1l0.7,0.9l0.7-0.9l0.1,0.1c23.3,21.7,54.3,23.7,82,25.1c-2.7,55.3-28,107-64.5,144.4c-1.8,1.9-3.6,3.8-5.5,5.7
		C148.8,189.5,147,191.3,145.1,193.1L145.1,193.1z"/>
	<polygon id="XMLID_831_" class="st0" points="137.9,199.3 137.5,200.1 135.1,198.3 135.6,197.2 136.1,196.1 137.9,197.3 
		137.2,197.8 	"/>
	<path id="XMLID_830_" class="st0" d="M53.9,39.3c0.4,0,0.9-0.1,1.2-0.1l0,0l0,0c14-0.7,28.7-1.5,43.1-4.9
		c14.3-3.4,28.2-9.5,40.1-20.6l-2.3-2.5C124.6,21.8,111.3,27.6,97.5,31c-14,3.3-28.6,4.1-42.6,4.9l0,0l0,0c-0.4,0-0.9,0.1-1.2,0.1
		L53.9,39.3L53.9,39.3z"/>
	<path id="XMLID_829_" class="st0" d="M53.2,35.9c0,0.6,0.1,1.2,0.1,1.7l1.7-0.1l-1.7,0.1c2.7,55.7,28.2,107.8,65,145.5l1.2-1.2
		l-1.2,1.2c1.8,2,3.6,3.9,5.5,5.7c1.8,1.9,3.7,3.7,5.6,5.5l0,0l0,0c1.7,1.5,3.3,2.8,5.2,4.1l2-2.8c-1.7-1.2-3.3-2.6-4.9-4l-1.2,1.3
		l1.2-1.2c-1.9-1.8-3.7-3.6-5.5-5.4c-1.8-1.8-3.6-3.7-5.4-5.6l0,0l0,0c-36.3-37.1-61.4-88.5-64-143.3l0,0l0,0c0-0.6-0.1-1.1-0.1-1.7
		L53.2,35.9L53.2,35.9z"/>
	<path id="XMLID_828_" class="st0" d="M222,35.9c-0.4,0-0.8-0.1-1.2-0.1l0,0l0,0c-13.9-0.7-28.5-1.5-42.4-4.9
		c-14-3.3-27.2-9.2-38.5-19.8l-2.3,2.5c11.9,11.1,25.8,17.1,40.1,20.6c14.3,3.4,29.1,4.3,43.1,4.9l0,0l0,0c0.4,0,0.8,0.1,1.2,0.1
		L222,35.9L222,35.9z"/>
	<path id="XMLID_827_" class="st0" d="M219.1,35.8c0,0.6-0.1,1.2-0.1,1.7l0,0l0,0c-2.6,54.8-27.8,106.2-64,143.3l0,0l0,0
		c-1.8,1.9-3.6,3.8-5.4,5.6s-3.7,3.7-5.5,5.4l1.2,1.2l-1.2-1.3c-1.6,1.4-3.2,2.8-4.9,4l2,2.8c1.7-1.3,3.5-2.7,5.2-4.1l0,0l0,0
		c1.9-1.8,3.7-3.6,5.6-5.5c1.9-1.9,3.7-3.8,5.5-5.7l-1.2-1.2l1.2,1.2c36.8-37.7,62.3-89.7,65-145.5l-1.7-0.1l1.7,0.1
		c0-0.6,0.1-1.2,0.1-1.7L219.1,35.8L219.1,35.8z"/>
	<polygon id="XMLID_826_" class="st0" points="137.1,12.3 137.5,12 137,11.4 137.9,10.3 138.7,11.4 138.2,12.1 137.9,12.5 137.5,12 
		137.5,12 137.5,12 137.1,12.3 136.8,12.6 137.9,13.9 138.9,12.6 139.8,11.4 137.9,8.9 135.8,11.4 136.8,12.6 136.8,12.6 	"/>
	<polygon id="XMLID_825_" class="st0" points="138.1,197.7 139.5,196.7 139.7,197.4 139.7,197.4 140.1,198.2 138.4,199.4 
		138.2,199.1 137.5,199.5 137.8,200.2 138,200.7 141.2,198.5 140.5,197 139.8,195.4 137.6,197 	"/>
	<polygon id="XMLID_824_" class="st0" points="137.9,197.3 138.1,197 136,195.4 135.2,197 134.5,198.5 137.7,200.7 138.2,199.5 
		139.1,197.7 138.1,197 138.1,197 137.9,197.3 137.6,197.7 138,198 137.5,199.1 137.3,199.4 135.6,198.2 136,197.4 136.3,196.7 
		137.6,197.7 137.6,197.7 	"/>
	<polygon id="XMLID_823_" class="st0" points="138,200.1 137.6,199.9 137.5,200.1 137.9,200.4 138.2,200.1 138.1,199.9 137.7,200.1 
		138.1,200.4 138.2,200.2 137.9,200 137.5,200.2 137.6,200.4 138,200.1 137.6,199.9 138,200.1 138.4,199.9 138.2,199.7 137.9,199.3 
		137.3,199.9 137.1,200.1 137.5,200.6 137.9,201 138.4,200.4 138.6,200.1 138.4,199.9 	"/>
	<polygon id="XMLID_822_" class="st0" points="185.5,74.2 185.5,114.5 90.2,114.5 90.2,74.2 	"/>
	<polygon id="XMLID_821_" class="st0" points="185.5,74.2 185.1,74.2 185.1,114 90.6,114 90.6,74.6 185.5,74.6 185.5,74.2 
		185.1,74.2 185.5,74.2 185.5,73.7 89.8,73.7 89.8,114.9 186,114.9 186,73.7 185.5,73.7 	"/>
	<polygon id="XMLID_820_" class="st0" points="158.3,143.1 117.9,143.1 117.9,47 158.3,47 	"/>
	<polygon id="XMLID_819_" class="st0" points="158.3,143.1 158.3,142.7 118.4,142.7 118.4,47.4 157.9,47.4 157.9,143.1 158.3,143.1 
		158.3,142.7 158.3,143.1 158.7,143.1 158.7,46.5 117.6,46.5 117.6,143.5 158.7,143.5 158.7,143.1 	"/>
	<path id="XMLID_818_" class="st1" d="M109.3,94.2c0,2.3-1.8,4.1-4,4.1s-4-1.9-4-4.1c0-2.3,1.8-4.1,4-4.1
		C107.6,90,109.3,91.9,109.3,94.2L109.3,94.2z"/>
	<polygon id="XMLID_817_" class="st1" points="174.1,98 166.7,98 166.7,90.4 174.1,90.4 	"/>
	<polygon id="XMLID_816_" class="st1" points="137.9,55.5 143.2,60.7 137.9,66.1 132.6,60.8 	"/>
	<path id="XMLID_507_" class="st0" d="M20.1,230.7c1.7,0,3.3-0.4,4.7-1.3c2.1-1.5,2.6-3.9,2.6-5.1c0-2.5-0.9-4.4-4.5-7.3l-0.9-0.7
		c-3-2.3-3.8-3.4-3.8-5.2c0-2.3,1.7-3.6,3.8-3.6c2.8,0,3.6,1.3,3.9,1.6c0.2,0.4,0.4,1.2,0.4,1.5c0,0.2,0.1,0.4,0.2,0.4
		c0.1,0,0.2-0.2,0.2-0.7c0-2.1,0.1-3.1,0.1-3.3c0-0.1-0.1-0.2-0.3-0.2c-0.2,0-0.5,0-1.1-0.1c-0.8-0.2-1.7-0.3-2.8-0.3
		c-3.9,0-6.4,2.3-6.4,5.5c0,2.1,0.7,4,4,6.7l1.4,1.2c2.6,2.2,3.6,3.4,3.6,5.5c0,2-1.5,4.1-4.4,4.1c-2,0-4.1-0.9-4.6-3.1
		c-0.1-0.4-0.1-0.9-0.1-1.2c0-0.2,0-0.4-0.2-0.4c-0.1,0-0.2,0.1-0.2,0.5c0,0.5-0.1,1.7-0.1,3.3c0,0.8,0,0.9,0.4,1.2
		C17.2,230.5,18.6,230.7,20.1,230.7L20.1,230.7z M32.5,227.4c-0.5,1.3-1,2.3-2.3,2.4c-0.2,0-0.6,0.1-0.8,0.1c-0.1,0-0.2,0.1-0.2,0.2
		s0.2,0.2,0.5,0.2c1.1,0,2.5-0.1,2.8-0.1s1.8,0.1,2.5,0.1c0.2,0,0.4-0.1,0.4-0.2c0-0.1-0.1-0.2-0.3-0.2h-0.2c-0.4,0-0.9-0.2-0.9-0.7
		c0-0.4,0.1-1.1,0.4-1.7l1.5-4.2c0.1-0.1,0.1-0.2,0.3-0.2h6.2c0.1,0,0.2,0,0.2,0.1l2.5,6c0.2,0.4-0.1,0.7-0.2,0.7
		c-0.1,0.1-0.2,0.1-0.2,0.2c0,0.1,0.4,0.1,0.9,0.2c1.9,0.1,3.9,0.1,4.3,0.1c0.3,0,0.7-0.1,0.7-0.2s-0.2-0.2-0.4-0.2
		c-0.3,0-0.7,0-1.1-0.1c-0.6-0.2-1.3-0.5-2.3-2.8c-1.7-4-6-14.8-6.5-15.9c-0.3-0.6-0.4-0.9-0.7-0.9c-0.2,0-0.3,0.1-0.7,1L32.5,227.4
		L32.5,227.4z M36.4,221.9c-0.1,0-0.1-0.1-0.1-0.2l2.5-7.2c0.1-0.4,0.3-0.4,0.4,0l2.7,7.2c0,0.1,0,0.2-0.1,0.2H36.4L36.4,221.9z
		 M54.8,214.4c0.8,0.9,3.9,4.1,7,7.4c2.8,3,6.8,6.8,7,7.1c1.5,1.4,1.8,1.6,2,1.6c0.2,0,0.2-0.1,0.2-1.9l0.1-15.3
		c0-1.6,0.1-2.1,0.9-2.3c0.3-0.1,0.5-0.1,0.7-0.1c0.2,0,0.3-0.1,0.3-0.2c0-0.1-0.2-0.2-0.5-0.2c-1.1,0-2,0.1-2.3,0.1
		s-1.6-0.1-2.8-0.1c-0.3,0-0.5,0-0.5,0.2c0,0.1,0,0.2,0.2,0.2c0.2,0,0.8,0,1.3,0.1c0.8,0.1,1,0.7,1,2.5l0.3,13.2
		c-0.8-0.9-3.7-4-6.4-6.8c-4.2-4.3-8.1-8.5-8.6-8.9c-0.3-0.3-0.7-0.8-1-0.8c-0.2,0-0.4,0.3-0.4,1.3v15c0,2.4-0.1,3.1-0.8,3.3
		c-0.4,0.1-0.9,0.1-1.1,0.1c-0.1,0-0.2,0.1-0.2,0.2c0,0.2,0.1,0.2,0.4,0.2c1.2,0,2.4-0.1,2.6-0.1c0.2,0,1.3,0.1,2.8,0.1
		c0.3,0,0.5-0.1,0.5-0.2c0-0.1-0.1-0.2-0.2-0.2c-0.2,0-0.9,0-1.4-0.1c-0.7-0.2-1-0.8-1-3L54.8,214.4L54.8,214.4z M90.4,221.4
		c0,3,0,5.4-0.1,6.7c-0.1,0.9-0.3,1.6-0.9,1.7c-0.3,0.1-0.7,0.1-0.9,0.1c-0.2,0-0.2,0.1-0.2,0.2c0,0.2,0.1,0.2,0.5,0.2
		c0.9,0,2.8-0.1,3.1-0.1c0.1,0,2.1,0.1,3.8,0.1c0.4,0,0.5-0.1,0.5-0.2c0-0.1-0.1-0.2-0.2-0.2c-0.3,0-0.9-0.1-1.4-0.1
		c-0.9-0.1-1.1-0.8-1.2-1.7c-0.1-1.3-0.1-3.7-0.1-6.7v-2.6c0-0.2,0.1-0.3,0.2-0.3c0.5,0,3.9,0,4.7,0.1c0.9,0.1,1.5,0.7,1.6,1.1
		c0.1,0.4,0.1,0.8,0.2,1.1c0,0.1,0.1,0.3,0.2,0.3c0.2,0,0.2-0.3,0.2-0.6c0-0.2,0.1-1.5,0.1-2c0.1-1,0.2-1.5,0.2-1.7
		c0-0.1,0-0.2-0.1-0.2c-0.1,0-0.2,0.1-0.4,0.3c-0.3,0.4-0.7,0.5-1.5,0.6c-0.4,0-0.9,0-1.4,0h-3.9c-0.2,0-0.2-0.1-0.2-0.3v-8.5
		c0-0.2,0.1-0.4,0.3-0.4l4.7,0.1c1.2,0,1.9,0.6,2.1,1c0.2,0.4,0.3,0.9,0.3,1.2c0,0.2,0.1,0.4,0.2,0.4s0.2-0.2,0.2-0.4
		c0.1-0.4,0.1-1.7,0.1-2c0.1-0.9,0.2-1.2,0.2-1.5c0-0.1-0.1-0.3-0.2-0.3s-0.2,0.1-0.4,0.2c-0.3,0.1-0.8,0.1-1.4,0.1
		c-0.7,0-7,0.1-7.6,0l-1.2-0.1c-0.7,0-1.5,0-2.3,0c-0.4,0-0.5,0.1-0.5,0.2c0,0.1,0.1,0.2,0.2,0.2c0.3,0,0.8,0,1,0.1
		c1,0.2,1.2,0.7,1.3,1.7c0.1,1,0.1,1.8,0.1,6.7L90.4,221.4L90.4,221.4z M107.9,222.7c0,2.5,0,4.6-0.1,5.7c-0.1,0.8-0.2,1.2-0.7,1.4
		c-0.2,0.1-0.6,0.1-0.8,0.1c-0.1,0-0.2,0.1-0.2,0.2c0,0.1,0.1,0.2,0.4,0.2c0.8,0,2.6-0.1,2.7-0.1c0.1,0,1.8,0.1,3.3,0.1
		c0.3,0,0.4-0.1,0.4-0.2c0-0.1,0-0.2-0.2-0.2s-0.8-0.1-1.2-0.1c-0.8-0.1-1-0.6-1.1-1.4c-0.1-1.1-0.1-3.1-0.1-5.7v-0.6
		c0-0.1,0.1-0.2,0.2-0.2l3.5,0.1c0.2,0,0.2,0,0.4,0.1c0.6,0.7,1.8,2.4,2.9,3.9c1.5,2,2.5,3.3,3.7,3.9c0.7,0.4,1.4,0.5,2.9,0.5h1.7
		c0.5,0,0.7-0.1,0.7-0.2c0-0.1-0.1-0.2-0.2-0.2s-0.4,0-0.9-0.1c-0.7-0.1-1.6-0.4-3.1-1.8c-1.6-1.6-3.5-4-5.7-6.8
		c2.5-2.2,3.3-4.1,3.3-6c0-1.8-1.2-3.1-1.9-3.6c-1.5-1-3.3-1.2-5.1-1.2c-0.8,0-3.1,0.1-3.4,0.1c-0.1,0-2-0.1-3.2-0.1
		c-0.3,0-0.4,0.1-0.4,0.2c0,0.1,0.1,0.2,0.2,0.2c0.2,0,0.7,0,0.9,0.1c0.9,0.1,1,0.6,1.1,1.5c0.1,0.8,0.1,1.6,0.1,5.7L107.9,222.7
		L107.9,222.7z M110.3,211.8c0-0.1,0.1-0.2,0.2-0.3c0.3-0.1,1.2-0.1,2-0.1c2.9,0,4.7,1.9,4.7,5.2c0,2-0.7,3.4-1.6,4
		c-0.7,0.4-1.4,0.4-2,0.4c-1.2,0-2.6-0.2-3-0.4c-0.1-0.1-0.2-0.2-0.2-0.4L110.3,211.8L110.3,211.8z M126.6,227.4
		c-0.5,1.3-1,2.3-2.3,2.4c-0.2,0-0.6,0.1-0.8,0.1c-0.1,0-0.2,0.1-0.2,0.2s0.2,0.2,0.5,0.2c1.1,0,2.5-0.1,2.8-0.1
		c0.3,0,1.8,0.1,2.5,0.1c0.2,0,0.4-0.1,0.4-0.2c0-0.1-0.1-0.2-0.3-0.2H129c-0.4,0-0.9-0.2-0.9-0.7c0-0.4,0.1-1.1,0.4-1.7l1.5-4.2
		c0.1-0.1,0.1-0.2,0.3-0.2h6.2c0.1,0,0.2,0,0.2,0.1l2.5,6c0.2,0.4-0.1,0.7-0.2,0.7c-0.1,0.1-0.2,0.1-0.2,0.2c0,0.1,0.4,0.1,0.9,0.2
		c1.9,0.1,3.9,0.1,4.3,0.1c0.3,0,0.6-0.1,0.6-0.2s-0.2-0.2-0.4-0.2c-0.3,0-0.7,0-1.1-0.1c-0.6-0.2-1.3-0.5-2.3-2.8
		c-1.7-4-6-14.8-6.5-15.9c-0.3-0.6-0.4-0.9-0.7-0.9c-0.2,0-0.3,0.1-0.7,1L126.6,227.4L126.6,227.4z M130.5,221.9
		c-0.1,0-0.1-0.1-0.1-0.2l2.5-7.2c0.1-0.4,0.3-0.4,0.4,0l2.7,7.2c0,0.1,0,0.2-0.1,0.2H130.5L130.5,221.9z M148.9,214.4
		c0.8,0.9,3.9,4.1,7,7.4c2.9,3,6.8,6.8,7,7.1c1.5,1.4,1.8,1.6,2,1.6s0.2-0.1,0.2-1.9l0.1-15.3c0-1.6,0.1-2.1,0.9-2.3
		c0.3-0.1,0.5-0.1,0.7-0.1c0.2,0,0.3-0.1,0.3-0.2c0-0.1-0.2-0.2-0.5-0.2c-1.1,0-2,0.1-2.3,0.1s-1.6-0.1-2.8-0.1
		c-0.3,0-0.5,0-0.5,0.2c0,0.1,0,0.2,0.2,0.2s0.8,0,1.3,0.1c0.8,0.1,1,0.7,1,2.5l0.3,13.2c-0.8-0.9-3.7-4-6.4-6.8
		c-4.2-4.3-8.1-8.5-8.6-8.9c-0.3-0.3-0.7-0.8-1-0.8c-0.2,0-0.4,0.3-0.4,1.3v15c0,2.4-0.1,3.1-0.8,3.3c-0.4,0.1-0.9,0.1-1.1,0.1
		c-0.1,0-0.2,0.1-0.2,0.2c0,0.2,0.1,0.2,0.4,0.2c1.2,0,2.4-0.1,2.6-0.1s1.3,0.1,2.8,0.1c0.3,0,0.5-0.1,0.5-0.2
		c0-0.1-0.1-0.2-0.2-0.2c-0.2,0-0.9,0-1.4-0.1c-0.7-0.2-1-0.8-1-3L148.9,214.4L148.9,214.4z M182.5,230.7c1.7,0,3.8-0.1,4.9-0.6
		c0.4-0.2,0.5-0.3,0.7-0.8c0.3-0.9,0.7-3.2,0.7-3.3c0-0.2-0.1-0.4-0.2-0.4c-0.2,0-0.2,0.1-0.3,0.4c-0.1,0.5-0.4,1.6-1,2.2
		c-1.1,1.1-2.5,1.2-4.5,1.2c-5.8,0-9.7-4.5-9.7-9.5c0-2.6,0.4-5,2.5-6.8c0.9-0.9,2.6-1.8,6.1-1.8c2.4,0,4.4,0.7,5.3,1.5
		c0.7,0.6,1.2,1.6,1.2,2.6c0,0.4,0,0.6,0.2,0.6c0.1,0,0.3-0.1,0.3-0.6c0-0.4,0-1.8,0.1-2.7c0.1-0.9,0.1-1.2,0.1-1.5
		c0-0.1-0.1-0.3-0.4-0.3c-0.9,0-1.7-0.2-2.8-0.4c-1.3-0.2-2.8-0.3-3.9-0.3c-4.1,0-6.6,1.2-8.3,2.8c-2.4,2.3-3.1,5.4-3.1,7.1
		c0,2.5,0.7,5.5,3.3,7.8C175.6,229.6,178.4,230.7,182.5,230.7L182.5,230.7z M197.6,218c0-4.1,0-4.8,0-5.7c0.1-0.9,0.2-1.3,0.9-1.5
		c0.3-0.1,0.5-0.1,0.7-0.1c0.1,0,0.2-0.1,0.2-0.2c0-0.1-0.1-0.2-0.4-0.2c-0.9,0-2.6,0.1-2.7,0.1c-0.1,0-1.8-0.1-2.8-0.1
		c-0.3,0-0.4,0.1-0.4,0.2c0,0.1,0.1,0.2,0.2,0.2c0.2,0,0.5,0,0.8,0.1c0.6,0.1,0.8,0.5,0.9,1.4c0.1,0.8,0.1,1.6,0.1,5.7v4.7
		c0,2.5,0,4.6-0.1,5.7c-0.1,0.8-0.2,1.2-0.7,1.4c-0.2,0.1-0.6,0.1-0.8,0.1c-0.1,0-0.2,0.1-0.2,0.2c0,0.1,0.1,0.2,0.4,0.2
		c0.8,0,2.5-0.1,2.7-0.1s1.9,0.1,3.4,0.1c0.3,0,0.4-0.1,0.4-0.2c0-0.1-0.1-0.2-0.2-0.2c-0.2,0-0.8-0.1-1.2-0.1
		c-0.8-0.1-0.9-0.6-1-1.4c-0.1-1.1-0.1-3.1-0.1-5.7L197.6,218L197.6,218z M208.8,230.7c1.5,0,3.2-0.2,4.3-0.9c2-1.2,2.5-2.9,2.5-4.5
		c0-2.3-1.2-4.1-4.4-6.3l-0.8-0.5c-2.7-1.8-3.5-2.8-3.5-4.4c0-1.8,1.6-2.8,3.6-2.8c2.4,0,3.3,1,3.5,1.3c0.1,0.3,0.4,1,0.4,1.3
		c0,0.2,0.1,0.4,0.2,0.4c0.2,0,0.2-0.2,0.2-0.6c0-1.8,0.1-2.6,0.1-2.8c0-0.1-0.1-0.2-0.3-0.2c-0.2,0-0.4,0-0.9-0.1
		c-0.7-0.1-1.7-0.3-2.8-0.3c-3.6,0-6,1.8-6,4.9c0,1.8,0.9,3.4,3.9,5.6l1.2,0.9c2.4,1.8,3.4,2.7,3.4,4.6c0,2-1.4,3.5-4.1,3.5
		c-1.8,0-3.9-0.7-4.3-2.6c-0.1-0.4-0.1-0.7-0.1-0.9c0-0.2-0.1-0.3-0.2-0.3c-0.1,0-0.2,0.1-0.2,0.4c0,0.4-0.1,1.5-0.1,2.8
		c0,0.7,0,0.8,0.4,1C205.9,230.4,207.5,230.7,208.8,230.7L208.8,230.7z M232.5,230.7c1.7,0,3.8-0.1,4.9-0.6c0.4-0.2,0.5-0.3,0.7-0.8
		c0.3-0.9,0.7-3.2,0.7-3.3c0-0.2-0.1-0.4-0.2-0.4c-0.2,0-0.2,0.1-0.3,0.4c-0.1,0.5-0.4,1.6-1,2.2c-1.1,1.1-2.5,1.2-4.5,1.2
		c-5.8,0-9.8-4.5-9.8-9.5c0-2.6,0.4-5,2.5-6.8c0.9-0.9,2.6-1.8,6.1-1.8c2.4,0,4.4,0.7,5.3,1.5c0.7,0.6,1.2,1.6,1.2,2.6
		c0,0.4,0,0.6,0.2,0.6c0.1,0,0.3-0.1,0.3-0.6c0-0.4,0-1.8,0.1-2.7c0.1-0.9,0.1-1.2,0.1-1.5c0-0.1-0.1-0.3-0.4-0.3
		c-0.9,0-1.7-0.2-2.8-0.4c-1.3-0.2-2.8-0.3-3.9-0.3c-4.1,0-6.6,1.2-8.3,2.8c-2.4,2.3-3.1,5.4-3.1,7.1c0,2.5,0.7,5.5,3.3,7.8
		C225.6,229.6,228.4,230.7,232.5,230.7L232.5,230.7z M241.8,220.3c0,4.7,3.2,10.3,10.6,10.3c6.5,0,10.9-4.9,10.9-10.7
		c0-6.1-4.7-9.8-10.8-9.8C245,210.1,241.8,216.1,241.8,220.3L241.8,220.3z M244.6,219.6c0-5.7,3.3-8.6,7.8-8.6
		c4.3,0,8.1,3.3,8.1,9.6c0,7.6-4.9,8.9-7.3,8.9C248.2,229.6,244.6,225.7,244.6,219.6L244.6,219.6z"/>
	<path id="XMLID_462_" class="st1" d="M20.1,230.7v0.2c1.7,0,3.4-0.4,4.8-1.3c2.2-1.6,2.7-4,2.7-5.3c0-2.5-0.9-4.6-4.6-7.4l-0.9-0.7
		c-3-2.3-3.7-3.3-3.7-5c0-2.1,1.5-3.3,3.6-3.3c2.8,0,3.5,1.2,3.6,1.5c0.1,0.3,0.4,1.2,0.4,1.5c0,0.2,0.1,0.6,0.4,0.6
		c0.2,0,0.4-0.1,0.4-0.3c0.1-0.1,0.1-0.4,0.1-0.6c0-2.1,0.1-3.1,0.1-3.3c0-0.1,0-0.2-0.1-0.4c-0.1-0.1-0.2-0.1-0.4-0.1
		c-0.2,0-0.4,0-1-0.1c-0.8-0.2-1.7-0.3-2.9-0.3c-4,0-6.6,2.3-6.6,5.7c0,2.2,0.8,4.1,4.1,6.8l1.4,1.2c2.6,2.2,3.5,3.3,3.5,5.4
		c0,1.9-1.4,3.9-4.2,3.9c-2,0-3.9-0.8-4.4-3c-0.1-0.4-0.1-0.8-0.1-1.1c0-0.1,0-0.2-0.1-0.4c-0.1-0.1-0.2-0.2-0.4-0.2
		c-0.4,0-0.4,0.4-0.4,0.7c0,0.5-0.1,1.7-0.1,3.3c0,0.8,0.1,1.2,0.6,1.4c1.3,0.7,2.8,0.9,4.2,0.9L20.1,230.7l-0.1-0.2
		c-1.5,0-2.8-0.2-4.1-0.8c-0.4-0.2-0.3-0.1-0.4-0.9c0-1.5,0.1-2.8,0.1-3.3c0-0.1,0.1-0.3,0.1-0.3l0,0l0,0v0.1l0,0l0,0v0.1l0,0v-0.1
		h-0.1l0,0v-0.1h-0.1c0,0,0,0.1,0,0.1c0,0.3,0,0.7,0.1,1.2c0.5,2.4,2.7,3.3,4.8,3.3c3.1,0,4.7-2.3,4.7-4.3c0-2.2-0.9-3.6-3.6-5.7
		l-1.4-1.2c-3.3-2.7-3.9-4.5-3.9-6.5c0-3.2,2.3-5.3,6.2-5.3c1.2,0,2,0.1,2.8,0.3c0.6,0.1,0.9,0.1,1.2,0.1c0.1,0,0.1,0,0.1,0l0.1-0.1
		h-0.1l0,0l0.1-0.1h-0.1l0,0c0,0.1-0.1,1.2-0.1,3.3c0,0.2,0,0.4-0.1,0.5v0.1l0.1,0.1V211h-0.1l0.1,0.1V211l0,0l0,0l0,0l0,0l0,0
		c0,0,0-0.1-0.1-0.2c-0.1-0.4-0.2-1.2-0.4-1.6s-1.2-1.7-4.1-1.7c-2.2,0-4,1.5-4,3.8c0,1.8,0.9,3.1,3.9,5.4l0.9,0.7
		c3.6,2.8,4.4,4.7,4.4,7c0,1.2-0.5,3.5-2.5,4.9c-1.3,0.9-2.9,1.2-4.5,1.2v0.3H20.1z M32.5,227.4l-0.2-0.1c-0.5,1.3-1,2.1-2.1,2.3
		c-0.2,0-0.6,0.1-0.8,0.1s-0.4,0.1-0.4,0.4c0.1,0.4,0.4,0.4,0.7,0.4c1.1,0,2.5-0.1,2.8-0.1c0.3,0,1.7,0.1,2.5,0.1
		c0.2,0,0.6-0.1,0.6-0.4c0-0.1,0-0.2-0.1-0.3c-0.1-0.1-0.2-0.1-0.4-0.1h-0.2c-0.4,0-0.7-0.1-0.7-0.5c0-0.4,0.1-1,0.4-1.7l1.5-4.2
		c0.1-0.1,0-0.1,0.1-0.1h6.2h0.1v-0.1v0.1l0,0v-0.1v0.1v0.1l2.4,6c0,0.1,0.1,0.1,0.1,0.2c0,0.1-0.1,0.2-0.1,0.2
		c-0.1,0-0.4,0.1-0.3,0.4c0.1,0.4,0.3,0.3,0.4,0.4c0.2,0,0.4,0,0.7,0.1c1.9,0.1,3.9,0.1,4.3,0.1c0.3,0,0.7,0.1,0.8-0.4
		c0-0.4-0.4-0.4-0.6-0.4c-0.3,0-0.7,0-1-0.1c-0.5-0.1-1.2-0.4-2.2-2.8c-1.7-4-6-14.8-6.5-15.9c-0.3-0.5-0.3-1-0.9-1.1
		c-0.4,0-0.5,0.3-0.9,1.2l-6.4,16.4H32.5l0.2,0.1l6.4-16.4c0.1-0.4,0.3-0.7,0.4-0.8c0.1-0.1,0.1-0.1,0.1-0.1s0.1,0,0.1,0.1
		c0.1,0.1,0.1,0.4,0.3,0.7c0.5,1.1,4.9,11.9,6.5,15.9c0.9,2.3,1.8,2.8,2.5,3c0.4,0.1,0.9,0.1,1.2,0.1h0.1l0,0l0,0h-0.1l0,0l0,0h-0.1
		h0.1l-0.1-0.1v0.1h0.1l-0.1-0.1c0,0-0.2,0.1-0.4,0.1c-0.4,0-2.4,0-4.3-0.1c-0.3,0-0.5,0-0.7-0.1h-0.1l-0.1,0.1h0.1
		c0-0.1-0.1-0.1-0.1-0.1l-0.1,0.1h0.1l0,0l0,0l0,0l0,0l0,0h-0.1l0.1,0.1v-0.1h-0.1l0.1,0.1l0.1-0.1c0.1-0.1,0.4-0.3,0.4-0.7
		c0-0.1,0-0.2-0.1-0.4l-2.5-6c-0.1-0.1-0.3-0.3-0.4-0.3h-6.2c-0.2,0-0.4,0.1-0.5,0.4l-1.5,4.2c-0.2,0.7-0.4,1.3-0.4,1.8
		c0,0.7,0.7,0.9,1.2,0.9h0.2h0.1l0,0l0,0l0,0l0,0l0,0l0,0l0,0l0,0l0,0l0,0c0,0-0.1,0-0.2,0c-0.7,0-2.1-0.1-2.5-0.1
		c-0.3,0-1.7,0.1-2.8,0.1c-0.1,0-0.3,0-0.3,0l0,0h-0.1H29l0,0h-0.1H29l0,0l0,0l0,0l0,0l0,0l0,0c0.2,0,0.6,0,0.8-0.1
		c1.4-0.1,2-1.2,2.5-2.5L32.5,227.4L32.5,227.4z M36.4,221.9v-0.2v0.1l0.1-0.1h-0.1v0.1l0.1-0.1l-0.1,0.1h0.1v-0.1l-0.1,0.1h0.1l0,0
		l2.4-7.2c0-0.1,0.1-0.1,0.1-0.1l0,0l-0.1-0.1v0.1h0.1l-0.1-0.1v0.1v-0.1l-0.1,0.1H39v-0.1l-0.1,0.1c0,0,0.1,0.1,0.1,0.1l2.7,7.2
		l0,0h0.2l-0.1-0.1l-0.1,0.1h0.1l-0.1-0.1l0.1,0.1v-0.1h-0.1l0.1,0.1v-0.1h-5.5V221.9v0.2h5.5c0.1,0,0.1,0,0.2-0.1
		c0.1-0.1,0.1-0.1,0.1-0.2v-0.1l-2.7-7.2c-0.1-0.2-0.1-0.4-0.4-0.4c-0.3,0.1-0.4,0.2-0.4,0.4l-2.5,7.2v0.1l0.1,0.2l0.2,0.1
		L36.4,221.9L36.4,221.9z M54.8,214.4l-0.1,0.1c0.9,0.9,3.9,4.1,7,7.4c2.9,3,6.8,6.8,7,7.1c1.5,1.4,1.7,1.6,2.2,1.7
		c0.2,0,0.4-0.2,0.4-0.5c0-0.3,0.1-0.7,0.1-1.6l0.1-15.3c0-1.6,0-1.9,0.8-2.1c0.3-0.1,0.5-0.1,0.6-0.1c0.3,0,0.5-0.2,0.5-0.4
		c-0.1-0.4-0.4-0.4-0.7-0.4c-1.1,0-2,0.1-2.3,0.1c-0.3,0-1.6-0.1-2.8-0.1c-0.1,0-0.3,0-0.4,0.1c-0.1,0-0.3,0.1-0.3,0.4
		c0,0.1,0.1,0.4,0.4,0.4c0.2,0,0.8,0,1.3,0.1c0.7,0.1,0.8,0.5,0.9,2.3l0.3,13.2h0.2l0.1-0.1c-0.8-0.9-3.7-4-6.4-6.8
		c-4.2-4.3-8.1-8.5-8.6-8.9c-0.3-0.3-0.7-0.8-1.2-0.9c-0.2,0-0.4,0.1-0.4,0.4c-0.1,0.2-0.1,0.6-0.1,1.1v15c0,1.2,0,2-0.1,2.4
		c-0.1,0.4-0.2,0.6-0.5,0.7c-0.4,0.1-0.9,0.1-1.1,0.1c-0.2,0-0.4,0.2-0.4,0.4c0,0.1,0.1,0.4,0.2,0.4c0.1,0.1,0.3,0.1,0.4,0.1
		c1.2,0,2.4-0.1,2.6-0.1c0.2,0,1.3,0.1,2.8,0.1c0.3,0,0.7,0,0.7-0.4c0-0.2-0.2-0.4-0.4-0.4c-0.2,0-0.9,0-1.3-0.1
		c-0.6-0.1-0.8-0.6-0.9-2.8l-0.3-12.4L54.8,214.4l-0.1,0.1L54.8,214.4h-0.2l0.3,12.4c0.1,2.1,0.3,3,1.2,3.2c0.5,0.1,1.2,0.1,1.4,0.1
		l0,0h0.1h-0.1l0,0h0.1h-0.1h-0.1c-0.1,0-0.1,0-0.2,0c-1.5,0-2.6-0.1-2.8-0.1c-0.3,0-1.4,0.1-2.6,0.1c-0.1,0-0.2,0-0.2,0l0,0l0,0
		l0,0l0,0l0,0l0,0l0,0l0,0l0,0l0,0l0,0c0.2,0,0.7,0,1.2-0.1c0.4-0.1,0.7-0.4,0.8-0.9c0.1-0.5,0.1-1.3,0.1-2.5v-15
		c0-0.5,0.1-0.8,0.1-1c0-0.1,0.1-0.1,0.1-0.1l0,0c0.1-0.1,0.7,0.4,0.9,0.7c0.4,0.4,4.4,4.7,8.6,8.9c2.7,2.8,5.6,5.9,6.4,6.8l0.4,0.4
		l-0.3-13.7c0-1.7-0.2-2.5-1.2-2.6c-0.5-0.1-1.2-0.1-1.4-0.1l0,0l0,0l0,0l0,0l0,0v-0.1h-0.1l0.1,0.1v-0.1h-0.1l0.1,0.1h0.1
		c0.1,0,0.1,0,0.3,0c1.2,0,2.5,0.1,2.8,0.1s1.2-0.1,2.3-0.1c0.1,0,0.2,0,0.3,0l0,0l0.1-0.1H73v0.1l0.1-0.1H73l0,0h-0.1
		c-0.1,0-0.4,0-0.7,0.1c-1,0.2-1.2,0.9-1.2,2.5l-0.1,15.3c0,0.9,0,1.3-0.1,1.6c0,0.1,0,0.1,0,0.1l0.1,0.1v-0.1l-0.1,0.1l0.1,0.1
		v-0.1c-0.1,0-0.4-0.1-1.9-1.5c-0.3-0.2-4.2-4.1-7-7c-3.1-3.3-6.2-6.5-7-7.4l-0.4-0.4v0.6L54.8,214.4L54.8,214.4z M90.4,221.4h-0.2
		c0,3,0,5.4-0.1,6.7c-0.1,0.9-0.3,1.5-0.7,1.5c-0.3,0.1-0.7,0.1-0.9,0.1c-0.1,0-0.2,0-0.4,0.1c-0.1,0.1-0.1,0.2-0.1,0.3
		c0,0.1,0.1,0.4,0.2,0.4c0.1,0.1,0.3,0.1,0.4,0.1c0.9,0,2.9-0.1,3.1-0.1s2.1,0.1,3.8,0.1c0.4,0,0.7-0.1,0.7-0.4c0-0.1,0-0.2-0.1-0.3
		c-0.1-0.1-0.2-0.1-0.4-0.1c-0.3,0-0.9-0.1-1.4-0.1c-0.8-0.1-0.9-0.6-1-1.5c-0.1-1.3-0.1-3.7-0.1-6.7v-2.6v-0.1H93l0,0l0,0h-0.1l0,0
		l0,0v0.1l0,0l0,0v0.1l0,0c0.5,0,3.9,0,4.7,0.1c0.9,0.1,1.3,0.6,1.5,0.9c0.1,0.4,0.1,0.7,0.1,1.1c0,0.1,0.1,0.4,0.4,0.4
		c0.2,0,0.4-0.2,0.4-0.4c0-0.1,0-0.3,0-0.4c0-0.2,0.1-1.5,0.1-2c0.1-1,0.2-1.5,0.2-1.7c0-0.1,0-0.1-0.1-0.3
		c-0.1-0.1-0.2-0.2-0.3-0.1c-0.3,0-0.4,0.3-0.5,0.4c-0.2,0.4-0.5,0.4-1.2,0.5c-0.4,0-0.9,0-1.4,0h-3.9l0,0v0.1H93h-0.1v0.1H93v-0.1
		v-8.5c0-0.1,0-0.1,0-0.1h0.1l4.7,0.1c1.2,0,1.7,0.6,1.9,0.9c0.1,0.4,0.3,0.9,0.3,1.1c0,0.2,0.1,0.6,0.4,0.6s0.4-0.4,0.4-0.5
		c0.1-0.4,0.1-1.7,0.1-2c0.1-0.9,0.2-1.2,0.2-1.5c0-0.2-0.1-0.5-0.4-0.5c-0.3,0-0.4,0.1-0.5,0.2c-0.2,0.1-0.7,0.1-1.3,0.1
		c-0.5,0-3.8,0.1-5.9,0.1c-0.9,0-1.5,0-1.7,0l-1.2-0.1c-0.7,0-1.5,0-2.3,0c-0.1,0-0.3,0-0.4,0.1c-0.1,0.1-0.2,0.2-0.2,0.4
		c0,0.3,0.3,0.4,0.4,0.4c0.3,0,0.8,0,1,0.1c0.9,0.2,1.1,0.5,1.2,1.5c0.1,0.9,0.1,1.8,0.1,6.7v5.4h0.4h0.2v-5.4c0-4.8,0-5.7-0.1-6.7
		c0-1.1-0.4-1.7-1.5-2c-0.3-0.1-0.8-0.1-1.1-0.1h-0.1v0.1h0.1v-0.1v0.1H88l0,0l0,0l0,0c0,0,0.1,0,0.3,0c0.7,0,1.5,0,2.2,0l1.2,0.1
		c0.2,0,0.9,0,1.7,0c2.1,0,5.4,0,5.9-0.1c0.6,0,1.1,0,1.4-0.1c0.2-0.1,0.4-0.2,0.4-0.1v-0.1H101h0.1v-0.1H101v0.1
		c0,0.1-0.1,0.6-0.2,1.5c0,0.3-0.1,1.7-0.1,2l-0.1,0.1l0,0l0,0v-0.1l0,0l0,0v-0.1l0,0l0,0l0,0l0,0l0,0c0,0,0-0.1,0-0.1
		c0-0.3-0.1-0.8-0.3-1.2c-0.2-0.5-1-1.1-2.3-1.1l-4.7-0.1c-0.1,0-0.3,0-0.4,0.1c-0.1,0.1-0.1,0.2-0.1,0.4v8.5c0,0.1,0,0.2,0.1,0.3
		c0.1,0.1,0.2,0.1,0.4,0.1h3.9c0.5,0,0.9,0,1.4,0c0.7-0.1,1.2-0.1,1.6-0.7l0.1-0.2l0,0v-0.1v0.1l0,0v-0.1v0.1v-0.1h-0.1l0.1,0.1
		v-0.1h-0.1v0.1c0,0.1-0.1,0.7-0.2,1.7c-0.1,0.7-0.1,1.9-0.1,2.1c0,0.1,0,0.3,0,0.4v0.1l0,0v-0.1l0,0l0,0v-0.1l0,0l0,0l0,0l0,0l0,0
		v-0.1c0-0.3-0.1-0.8-0.2-1.2c-0.1-0.5-0.7-1.1-1.7-1.2c-0.8-0.1-4.1-0.1-4.7-0.1c-0.1,0-0.2,0-0.4,0.1c-0.1,0.1-0.1,0.2-0.1,0.4
		v2.6c0,3,0,5.4,0.1,6.7c0.1,0.9,0.3,1.7,1.4,1.9c0.4,0.1,1.1,0.1,1.4,0.1h0.1l0,0h-0.1l0,0l0,0h-0.1l0,0c0,0-0.1,0.1-0.3,0.1
		c-1.7,0-3.6-0.1-3.8-0.1c-0.1,0-2.1,0.1-3.1,0.1c-0.1,0-0.3,0-0.3,0l0,0l0,0l0,0l0,0l0,0h-0.1l0,0l0,0h-0.1l0,0h0.1
		c0.3,0,0.7-0.1,0.9-0.1c0.8-0.1,0.9-1,1.1-1.9c0.1-1.3,0.1-3.8,0.1-6.7h0.1V221.4z M107.9,222.7h-0.2c0,2.5,0,4.6-0.1,5.7
		c-0.1,0.8-0.2,1.2-0.6,1.2c-0.2,0.1-0.6,0.1-0.8,0.1c-0.3,0-0.4,0.3-0.4,0.4c0,0.4,0.4,0.4,0.7,0.4c0.9,0,2.7-0.1,2.7-0.1
		c0.1,0,1.8,0.1,3.3,0.1c0.3,0,0.7-0.1,0.7-0.4c0-0.1,0-0.1-0.1-0.3c-0.1-0.1-0.2-0.1-0.4-0.1c-0.2,0-0.8-0.1-1.2-0.1
		c-0.7-0.1-0.8-0.4-0.9-1.2c-0.1-1-0.1-3.1-0.1-5.6v-0.6v-0.1h-0.1v0.1l0,0h-0.1v0.1l0,0l0,0l0,0l0,0l0,0l3.4,0.1
		c0.1,0,0.1,0,0.2,0.1c0.6,0.7,1.7,2.4,2.9,3.8c1.5,2,2.5,3.3,3.8,3.9c0.7,0.4,1.5,0.6,3,0.6h1.7c0.3,0,0.4,0,0.6-0.1
		c0.1,0,0.3-0.2,0.3-0.4c0-0.2-0.2-0.4-0.4-0.4c-0.1,0-0.4,0-0.9-0.1c-0.7-0.1-1.5-0.3-2.9-1.7c-1.5-1.6-3.4-4-5.7-6.8l-0.1,0.1
		l0.1,0.1c2.5-2.2,3.4-4.1,3.4-6.2c0-1.9-1.2-3.2-2-3.8c-1.5-1-3.4-1.2-5.2-1.2c-0.9,0-3.1,0.1-3.4,0.1c-0.1,0-2-0.1-3.2-0.1
		c-0.1,0-0.3,0-0.4,0.1c-0.1,0.1-0.2,0.2-0.2,0.4c0.1,0.3,0.1,0.4,0.4,0.4c0.2,0,0.7,0,0.9,0.1c0.8,0.1,0.8,0.4,0.9,1.2
		c0.1,0.8,0.1,1.5,0.1,5.6v4.7h0.4h0.2v-4.7c0-4.1,0-4.8-0.1-5.7c0-0.9-0.3-1.5-1.3-1.7c-0.2,0-0.7-0.1-0.9-0.1l0,0l0,0l0,0l0,0l0,0
		l0,0c0,0,0.1,0,0.2,0c1.2,0,3.1,0.1,3.2,0.1c0.3,0,2.5-0.1,3.4-0.1c1.7,0,3.6,0.1,4.9,1.1c0.7,0.4,1.8,1.7,1.8,3.4
		c0,1.9-0.7,3.7-3.3,5.8l-0.1,0.1l0.1,0.1c2.3,2.8,4.1,5.2,5.7,6.8c1.5,1.5,2.4,1.8,3.1,1.9c0.5,0.1,0.8,0.1,1,0.1l0,0h0.1h-0.1l0,0
		h0.1h-0.1l0,0l0,0l0,0l0,0l0,0c0,0-0.2,0.1-0.4,0.1h-1.7c-1.5,0-2.2-0.1-2.8-0.5c-1.1-0.6-2.1-1.8-3.6-3.8
		c-1.2-1.5-2.3-3.1-2.9-3.9c-0.1-0.1-0.4-0.2-0.5-0.2l-3.4-0.1c-0.1,0-0.2,0-0.3,0.1c-0.1,0.1-0.1,0.2-0.1,0.3v0.6
		c0,2.5,0,4.6,0.1,5.7c0.1,0.8,0.3,1.5,1.2,1.6c0.4,0.1,0.9,0.1,1.2,0.1l0,0l0,0l0,0l0,0l0,0l0,0c0,0-0.1,0-0.2,0
		c-1.5,0-3.2-0.1-3.3-0.1c-0.1,0-1.9,0.1-2.7,0.1c-0.1,0-0.2,0-0.2,0l0,0l0,0l0,0l0,0l0,0l0,0c0.3,0,0.7-0.1,0.9-0.1
		c0.7-0.1,0.7-0.8,0.9-1.5c0.1-1.1,0.1-3.2,0.1-5.7h-0.4V222.7z M110.3,211.8h0.2c0-0.1,0-0.1,0.1-0.1c0.2,0,1.1-0.1,1.8-0.1
		c2.8,0,4.4,1.7,4.5,4.9c0,2-0.7,3.3-1.5,3.9c-0.6,0.4-1.3,0.4-1.9,0.4c-1.2,0-2.6-0.2-2.9-0.4c-0.1-0.1-0.1-0.1-0.1-0.1v-8.4
		L110.3,211.8l-0.2,0v8.4c0,0.2,0.1,0.4,0.3,0.5c0.5,0.3,1.9,0.4,3.1,0.4c0.7,0,1.5,0,2.2-0.5c1-0.7,1.7-2.1,1.7-4.2
		c0-1.7-0.4-3.1-1.3-3.9c-0.9-0.9-2.1-1.5-3.6-1.5c-0.8,0-1.7,0.1-2,0.1C110.4,211.3,110.2,211.6,110.3,211.8L110.3,211.8
		L110.3,211.8z M126.6,227.4l-0.2-0.1c-0.5,1.3-1,2.1-2.1,2.3c-0.2,0-0.6,0.1-0.8,0.1s-0.4,0.1-0.4,0.4c0.1,0.4,0.4,0.4,0.7,0.4
		c1.1,0,2.5-0.1,2.8-0.1c0.3,0,1.7,0.1,2.5,0.1c0.2,0,0.6-0.1,0.6-0.4c0-0.1,0-0.2-0.1-0.3c-0.1-0.1-0.2-0.1-0.4-0.1h-0.2
		c-0.4,0-0.7-0.1-0.7-0.5c0-0.4,0.1-1,0.4-1.7l1.5-4.2c0.1-0.1,0-0.1,0.1-0.1h6.2h0.1v-0.1v0.1l0,0v-0.1v0.1v0.1l2.4,6
		c0,0.1,0.1,0.1,0.1,0.2c0,0.1-0.1,0.2-0.1,0.2s-0.4,0.1-0.3,0.4c0.1,0.4,0.3,0.3,0.4,0.4c0.2,0,0.4,0,0.7,0.1
		c1.9,0.1,3.9,0.1,4.3,0.1c0.3,0,0.7,0.1,0.8-0.4c0-0.4-0.4-0.4-0.6-0.4c-0.3,0-0.7,0-1-0.1c-0.5-0.1-1.2-0.4-2.2-2.8
		c-1.7-4-6-14.8-6.5-15.9c-0.3-0.5-0.3-1-0.9-1.1c-0.4,0-0.5,0.3-0.9,1.2l-6.4,16.4H126.6l0.2,0.1l6.4-16.4c0.1-0.4,0.3-0.7,0.4-0.8
		c0.1-0.1,0.1-0.1,0.1-0.1s0.1,0,0.1,0.1c0.1,0.1,0.1,0.4,0.3,0.7c0.5,1.1,4.9,11.9,6.5,15.9c1,2.3,1.8,2.8,2.5,3
		c0.4,0.1,0.9,0.1,1.2,0.1h0.1l0,0l0,0h-0.1l0,0l0,0h-0.1h0.1l-0.1-0.1v0.1h0.1l-0.1-0.1c0,0-0.2,0.1-0.4,0.1c-0.4,0-2.4,0-4.3-0.1
		c-0.3,0-0.5,0-0.7-0.1h-0.1l-0.1,0.1h0.1c0-0.1-0.1-0.1-0.1-0.1l-0.1,0.1h0.1l0,0l0,0l0,0l0,0l0,0h-0.1l0.1,0.1v-0.1h-0.1l0.1,0.1
		l0.1-0.1c0.1-0.1,0.4-0.3,0.4-0.7c0-0.1,0-0.2-0.1-0.4l-2.4-6c-0.1-0.1-0.3-0.3-0.4-0.3h-6.2c-0.2,0-0.4,0.1-0.5,0.4l-1.5,4.2
		c-0.2,0.7-0.4,1.3-0.4,1.8c0,0.7,0.7,0.9,1.2,0.9h0.2h0.1l0,0l0,0l0,0l0,0l0,0l0,0l0,0l0,0l0,0l0,0c0,0-0.1,0-0.2,0
		c-0.7,0-2.1-0.1-2.5-0.1c-0.3,0-1.7,0.1-2.8,0.1c-0.1,0-0.3,0-0.3,0l0,0h-0.1h0.1l0,0h-0.1h0.1l0,0l0,0l0,0l0,0l0,0l0,0
		c0.2,0,0.6,0,0.8-0.1c1.4-0.1,2-1.2,2.5-2.5L126.6,227.4L126.6,227.4z M130.5,221.9v-0.2v0.1l0.1-0.1h-0.1v0.1l0.1-0.1l-0.1,0.1
		h0.1v-0.1l-0.1,0.1h0.1l0,0l2.5-7.2c0-0.1,0.1-0.1,0.1-0.1l0,0l-0.1-0.1v0.1h0.1l-0.1-0.1v0.1v-0.1l-0.1,0.1h0.1v-0.1l-0.1,0.1
		c0,0,0.1,0.1,0.1,0.1l2.7,7.2l0,0h0.1l-0.1-0.1l-0.1,0.1h0.1l-0.1-0.1l0.1,0.1v-0.1H136l0.1,0.1v-0.1h-5.5L130.5,221.9l0.1,0.2h5.5
		c0.1,0,0.1,0,0.2-0.1s0.1-0.1,0.1-0.2v-0.1l-2.7-7.2c-0.1-0.2-0.1-0.4-0.4-0.4c-0.3,0.1-0.4,0.2-0.4,0.4l-2.5,7.2v0.1l0.1,0.2
		l0.2,0.1L130.5,221.9L130.5,221.9z M148.9,214.4l-0.1,0.1c0.9,0.9,3.9,4.1,7,7.4c2.9,3,6.8,6.8,7,7.1c1.5,1.4,1.7,1.6,2.2,1.7
		c0.2,0,0.4-0.2,0.4-0.5c0-0.3,0.1-0.7,0.1-1.6l0.1-15.3c0-1.6,0-1.9,0.8-2.1c0.3-0.1,0.5-0.1,0.6-0.1c0.3,0,0.5-0.2,0.5-0.4
		c-0.1-0.4-0.4-0.4-0.7-0.4c-1.1,0-2,0.1-2.3,0.1s-1.6-0.1-2.8-0.1c-0.1,0-0.3,0-0.4,0.1c-0.1,0-0.3,0.1-0.3,0.4
		c0,0.1,0.1,0.4,0.4,0.4c0.2,0,0.8,0,1.3,0.1c0.7,0.1,0.8,0.5,0.9,2.3l0.3,13.2h0.2l0.1-0.1c-0.8-0.9-3.7-4-6.4-6.8
		c-4.2-4.3-8.1-8.5-8.6-8.9c-0.3-0.3-0.7-0.8-1.2-0.9c-0.2,0-0.4,0.1-0.4,0.4c-0.1,0.2-0.1,0.6-0.1,1.1v15c0,1.2,0,2-0.1,2.4
		c-0.1,0.4-0.2,0.6-0.5,0.7c-0.4,0.1-0.9,0.1-1,0.1c-0.2,0-0.4,0.2-0.4,0.4c0,0.1,0.1,0.4,0.2,0.4c0.1,0.1,0.3,0.1,0.4,0.1
		c1.2,0,2.4-0.1,2.6-0.1s1.3,0.1,2.8,0.1c0.3,0,0.7-0.1,0.7-0.4c0-0.2-0.2-0.4-0.4-0.4s-0.9,0-1.3-0.1c-0.6-0.1-0.8-0.6-0.9-2.8
		l-0.3-12.4L148.9,214.4l-0.1,0.1L148.9,214.4h-0.2l0.3,12.4c0.1,2.1,0.3,3,1.2,3.2c0.5,0.1,1.2,0.1,1.4,0.1l0,0h0.1h-0.1l0,0h0.1
		h-0.1h-0.1c-0.1,0-0.1,0-0.2,0c-1.5,0-2.6-0.1-2.8-0.1c-0.3,0-1.4,0.1-2.6,0.1c-0.1,0-0.2,0-0.2,0l0,0l0,0l0,0l0,0l0,0l0,0l0,0l0,0
		l0,0l0,0l0,0c0.2,0,0.7,0,1.2-0.1c0.4-0.1,0.7-0.4,0.8-0.9c0.1-0.5,0.1-1.3,0.1-2.5v-15c0-0.5,0.1-0.8,0.1-1c0-0.1,0.1-0.1,0.1-0.1
		l0,0c0.1-0.1,0.7,0.4,0.9,0.7c0.4,0.4,4.4,4.7,8.6,8.9c2.7,2.8,5.6,5.9,6.4,6.8l0.4,0.4l-0.3-13.7c0-1.7-0.2-2.5-1.2-2.6
		c-0.5-0.1-1.2-0.1-1.4-0.1l0,0l0,0l0,0l0,0l0,0v-0.1h-0.1l0.1,0.1v-0.1h-0.1l0.1,0.1h0.1c0.1,0,0.1,0,0.3,0c1.2,0,2.5,0.1,2.8,0.1
		c0.3,0,1.2-0.1,2.3-0.1c0.1,0,0.2,0,0.3,0l0,0l0.1-0.1h-0.1v0.1l0.1-0.1h-0.1l0,0H167c-0.1,0-0.4,0-0.7,0.1c-1,0.2-1.2,0.9-1.2,2.5
		l-0.1,15.3c0,0.9,0,1.3,0,1.6c0,0.1,0,0.1,0,0.1l0.1,0.1v-0.1l-0.1,0.1l0.1,0.1v-0.1c-0.1,0-0.4-0.1-1.9-1.5c-0.3-0.2-4.2-4.1-7-7
		c-3.1-3.3-6.2-6.5-7-7.4l-0.4-0.4v0.6L148.9,214.4L148.9,214.4z M182.5,230.7v0.2c1.7,0,3.8-0.1,5-0.6c0.5-0.1,0.7-0.4,0.8-0.9
		c0.3-0.9,0.7-3.2,0.7-3.4c0-0.3-0.1-0.5-0.4-0.6c-0.3,0-0.4,0.3-0.5,0.5c-0.1,0.4-0.4,1.6-1,2.1c-1,1-2.3,1.2-4.3,1.2
		c-5.7,0-9.6-4.4-9.6-9.3c0-2.6,0.4-4.9,2.4-6.7c0.9-0.9,2.5-1.7,6-1.7c2.4,0,4.3,0.7,5.2,1.4c0.7,0.5,1.1,1.5,1.1,2.5
		c0,0.2,0,0.4,0.1,0.5c0,0.1,0.2,0.3,0.4,0.3c0.4,0,0.5-0.4,0.5-0.7s0-1.8,0.1-2.7c0.1-0.9,0.1-1.2,0.1-1.5c0-0.1,0-0.2-0.1-0.4
		c-0.1-0.1-0.3-0.1-0.4-0.1c-0.9,0-1.7-0.2-2.8-0.4c-1.4-0.2-2.9-0.3-4-0.3c-4.2,0-6.8,1.2-8.4,2.8c-2.5,2.4-3.1,5.5-3.1,7.3
		c0,2.5,0.7,5.6,3.3,7.9c2.2,1.9,5,2.8,9.1,2.8L182.5,230.7l0-0.2c-4.1,0-6.7-0.9-8.8-2.8c-2.6-2.3-3.2-5.2-3.2-7.6
		c0-1.7,0.7-4.7,3-7c1.6-1.5,4-2.8,8.1-2.8c1.1,0,2.6,0.1,3.9,0.3c1,0.2,1.9,0.4,2.8,0.4c0.1,0,0.1,0,0.1,0v0.1
		c0,0.1-0.1,0.5-0.1,1.5c0,0.9,0,2.3-0.1,2.7c0,0.2-0.1,0.3-0.1,0.4l0,0v0.1l0,0l0,0v0.1l0,0l0,0l0,0l0,0l0,0l0,0c0,0,0-0.1,0-0.4
		c0-1.1-0.4-2.2-1.2-2.8c-1-0.9-3.1-1.5-5.4-1.5c-3.5,0-5.2,0.9-6.2,1.9c-2,1.9-2.5,4.4-2.5,7c0,5.2,4.1,9.7,10,9.7
		c2,0,3.5-0.1,4.7-1.3c0.7-0.7,1-1.7,1.1-2.3c0-0.1,0.1-0.2,0.1-0.2h-0.1v0.1l0,0h-0.1v0.1l0,0v-0.1v0.1l0,0v-0.1v0.1l0.1,0.1
		c0,0.1-0.4,2.5-0.7,3.3c-0.1,0.5-0.1,0.4-0.6,0.7C186.2,230.5,184.2,230.7,182.5,230.7L182.5,230.7L182.5,230.7z M197.6,218h0.2
		c0-4.1,0-4.8,0-5.7c0.1-0.9,0.1-1.1,0.8-1.2c0.3-0.1,0.4-0.1,0.7-0.1c0.3-0.1,0.4-0.1,0.4-0.4c0-0.1-0.1-0.3-0.2-0.4
		c-0.1-0.1-0.3-0.1-0.4-0.1c-0.9,0-2.6,0.1-2.7,0.1c-0.1,0-1.8-0.1-2.8-0.1c-0.1,0-0.3,0-0.4,0.1c-0.1,0.1-0.2,0.2-0.2,0.4
		c0,0.2,0.1,0.4,0.4,0.4c0.1,0,0.5,0,0.8,0.1c0.4,0.1,0.6,0.4,0.7,1.2c0.1,0.8,0.1,1.5,0.1,5.6v4.7c0,2.5,0,4.6-0.1,5.7
		c-0.1,0.8-0.2,1.2-0.5,1.2c-0.2,0.1-0.6,0.1-0.8,0.1c-0.3,0-0.4,0.3-0.4,0.4c0,0.4,0.4,0.4,0.7,0.4c0.9,0,2.5-0.1,2.7-0.1
		c0.1,0,1.9,0.1,3.4,0.1c0.3,0,0.7-0.1,0.7-0.4c0-0.1-0.1-0.4-0.4-0.4c-0.2,0-0.8-0.1-1.2-0.1c-0.7-0.1-0.7-0.4-0.8-1.2
		c-0.1-1-0.1-3.1-0.1-5.7V218L197.6,218l-0.2-0.1v4.7c0,2.5,0,4.6,0.1,5.7c0.1,0.7,0.2,1.5,1.2,1.6c0.4,0.1,1,0.1,1.2,0.1l0,0l0,0
		l0,0l0,0l0,0l0,0c0,0-0.1,0-0.2,0c-1.5,0-3.3-0.1-3.4-0.1c-0.1,0-1.9,0.1-2.7,0.1c-0.1,0-0.2,0-0.2,0l0,0l0,0l0,0l0,0l0,0l0,0
		c0.3,0,0.7-0.1,0.9-0.1c0.7-0.1,0.8-0.8,0.9-1.6c0.1-1.1,0.1-3.2,0.1-5.7V218c0-4.1,0-4.8-0.1-5.7c-0.1-0.9-0.4-1.5-1-1.6
		c-0.3-0.1-0.7-0.1-0.9-0.1l0,0l0,0l0,0l0,0l0,0l0,0c0,0,0.1,0,0.2,0c0.9,0,2.5,0.1,2.8,0.1c0.1,0,1.9-0.1,2.7-0.1
		c0.1,0,0.2,0,0.2,0l0,0l0,0l0,0l0,0l0,0l0,0c-0.2,0-0.4,0-0.7,0.1c-0.8,0.1-1.1,0.7-1.2,1.7c0,0.9,0,1.6,0,5.7H197.6L197.6,218z
		 M208.8,230.7v0.2c1.5,0,3.2-0.1,4.4-0.9c2-1.3,2.6-3.1,2.6-4.7c0-2.3-1.2-4.2-4.5-6.5l-0.8-0.6c-2.7-1.8-3.4-2.7-3.4-4.3
		c0-1.7,1.5-2.6,3.4-2.6c2.4,0,3.2,0.9,3.3,1.2c0.1,0.2,0.4,0.9,0.4,1.2c0,0.2,0.1,0.6,0.4,0.5c0.1,0,0.4-0.1,0.4-0.3
		c0.1-0.1,0.1-0.3,0.1-0.5c0-1.8,0.1-2.6,0.1-2.8c0-0.1,0-0.2-0.1-0.4c-0.1-0.1-0.2-0.1-0.4-0.1c-0.2,0-0.4,0-0.9-0.1
		c-0.7-0.1-1.7-0.3-2.8-0.3c-3.6,0-6.2,2-6.2,5.2c0,1.9,1,3.6,4,5.8l1.2,0.9c2.4,1.8,3.3,2.6,3.3,4.4c0,1.9-1.2,3.3-3.9,3.3
		c-1.8,0-3.7-0.7-4.1-2.4c-0.1-0.4-0.1-0.7-0.1-0.9c0-0.1,0-0.3-0.1-0.4c-0.1-0.1-0.2-0.1-0.4-0.1c-0.4,0-0.4,0.4-0.4,0.7
		c0,0.4-0.1,1.5-0.1,2.8c-0.1,0.7,0.1,1,0.5,1.2c1.2,0.6,2.8,0.7,4.1,0.7L208.8,230.7l0.1-0.2c-1.2,0-2.8-0.2-3.9-0.7
		c-0.3-0.2-0.2-0.1-0.3-0.8c0-1.3,0.1-2.3,0.1-2.8c0-0.1,0-0.2,0-0.2l0,0l0,0l0,0l0,0l0,0l0,0c0,0,0,0,0,0.1c0,0.2,0,0.6,0.1,1
		c0.5,2,2.6,2.8,4.5,2.8c2.8,0,4.3-1.6,4.3-3.7c0-2-1.1-3-3.5-4.7l-1.2-0.9c-2.9-2.2-3.8-3.7-3.8-5.4c0-3,2.3-4.7,5.8-4.7
		c1.1,0,2.1,0.1,2.8,0.3c0.5,0.1,0.8,0.1,1,0.1h0.1l0,0l0.1-0.1l-0.1,0.1l0.1,0.1l0.1-0.1l-0.1,0.1l0,0c0,0.1-0.1,1-0.1,2.8
		c0,0.2,0,0.4,0,0.4l0,0l0,0v-0.1l0,0l0,0v-0.1l0,0l0,0l0,0l0,0l0,0c0,0,0-0.1,0-0.1c-0.1-0.4-0.2-1-0.4-1.4
		c-0.2-0.4-1.2-1.4-3.7-1.4c-2,0-3.9,1-3.9,3.1c0,1.7,0.9,2.8,3.6,4.7l0.8,0.5c3.3,2.3,4.4,4,4.4,6.2c0,1.5-0.6,3.1-2.4,4.3
		c-1.1,0.7-2.8,0.9-4.2,0.9v0.2H208.8z M232.5,230.7v0.2c1.7,0,3.8-0.1,5-0.6c0.5-0.1,0.7-0.4,0.8-0.9c0.3-0.9,0.7-3.2,0.7-3.4
		c0-0.3-0.1-0.5-0.4-0.6c-0.3,0-0.4,0.3-0.5,0.5c-0.1,0.4-0.4,1.6-1,2.1c-1,1-2.3,1.2-4.3,1.2c-5.7,0-9.6-4.4-9.6-9.3
		c0-2.6,0.4-4.9,2.4-6.7c0.9-0.9,2.5-1.7,6-1.7c2.4,0,4.3,0.7,5.2,1.4c0.7,0.5,1.1,1.5,1.1,2.5c0,0.2,0,0.4,0.1,0.5
		c0,0.1,0.2,0.3,0.4,0.3c0.4,0,0.5-0.4,0.5-0.7s0-1.8,0.1-2.7c0.1-0.9,0.1-1.2,0.1-1.5c0-0.1,0-0.2-0.1-0.4
		c-0.1-0.1-0.3-0.1-0.4-0.1c-0.9,0-1.7-0.2-2.8-0.4c-1.4-0.2-2.9-0.3-4-0.3c-4.2,0-6.8,1.2-8.4,2.8c-2.5,2.4-3.1,5.5-3.1,7.3
		c0,2.5,0.7,5.6,3.3,7.9c2.2,1.9,5,2.8,9.1,2.8L232.5,230.7l0-0.2c-4.1,0-6.7-0.9-8.8-2.8c-2.6-2.3-3.2-5.2-3.2-7.6
		c0-1.7,0.7-4.7,3-7c1.6-1.5,4-2.8,8.1-2.8c1.1,0,2.6,0.1,3.9,0.3c1,0.2,1.9,0.4,2.8,0.4c0.1,0,0.1,0,0.1,0v0.1
		c0,0.1-0.1,0.5-0.1,1.5c0,0.9,0,2.3-0.1,2.7c0,0.2-0.1,0.3-0.1,0.4l0,0l0,0l0,0l0,0l0,0l0,0l0,0l0,0l0,0l0,0l0,0c0,0,0-0.1,0-0.4
		c0-1.1-0.4-2.2-1.2-2.8c-1-0.9-3.1-1.5-5.4-1.5c-3.5,0-5.2,0.9-6.2,1.9c-2,1.9-2.5,4.4-2.5,7c0,5.2,4.1,9.7,10,9.7
		c2,0,3.5-0.1,4.7-1.3c0.7-0.7,1-1.7,1.1-2.3c0-0.1,0.1-0.2,0.1-0.2h-0.1v0.1l0,0h-0.1v0.1l0,0v-0.1v0.1l0,0v-0.1v0.1l0.1,0.1
		c0,0.1-0.4,2.5-0.7,3.3c-0.1,0.5-0.1,0.4-0.6,0.7c-1,0.4-3.1,0.6-4.8,0.6L232.5,230.7L232.5,230.7z M241.8,220.3h-0.2
		c0,4.8,3.3,10.5,10.8,10.5c6.7,0,11.1-4.9,11.1-10.9c0-6.2-4.7-10-11-10c-7.6,0-11,6.1-11,10.5L241.8,220.3l0.2,0.1
		c0-4.1,3.2-10,10.5-10c6,0,10.5,3.6,10.5,9.6c0,5.7-4.2,10.5-10.7,10.5c-7.3,0-10.4-5.4-10.4-10.1L241.8,220.3L241.8,220.3z
		 M244.6,219.6h0.2c0-5.6,3.1-8.3,7.6-8.4c4.1,0,7.8,3.2,7.9,9.4c0,7.5-4.7,8.6-7.1,8.6c-4.8,0-8.4-3.7-8.4-9.7L244.6,219.6
		l-0.2-0.1c0,6.2,3.8,10.1,8.8,10.2c1.2,0,3.1-0.4,4.7-1.7c1.6-1.3,2.8-3.6,2.8-7.5c0-6.4-3.9-9.8-8.4-9.8c-2.3,0-4.4,0.7-5.7,2.2
		c-1.5,1.5-2.3,3.6-2.3,6.5h0.2V219.6z"/>
	<path id="XMLID_55_" class="st1" d="M92.5,254.2c0,0.5-0.2,0.9-0.7,1.1c-0.8,0.4-2.4,0.7-3.5,0.7c-2.8,0-5.7-0.9-8.1-3.3
		c-1.1-1-3.3-4.2-3.3-8.6c0-3.6,1.2-6.4,3.1-7.8c2.3-1.8,4.7-2,6.6-2c4,0,6.5,1.3,7.3,2.5c0.4,0.7,0.6,1.6,0.7,2
		c0,0.3,0.1,0.4,0.2,0.4c0.2,0,0.3-0.1,0.3-0.7c0-3.1,0.2-3.9,0.2-4.4c0-0.1-0.1-0.2-0.4-0.3c-0.8,0-1.8-0.1-2.5-0.3
		c-0.6-0.1-2.8-0.5-4.7-0.5c-2.4,0-5.4,0.2-8.2,2c-2.8,1.7-5.2,5.2-5.2,10.2c0,3.9,1.8,7.1,3.6,8.8c3.4,3,7.8,3.3,10.2,3.3
		c1.8,0,4.6-0.4,6.5-1.4c0.4-0.2,0.4-0.3,0.4-1.7v-3.5c0-1.3,0-2.3,0.1-3.2c0.1-1.1,0.3-1.6,1.2-1.7c0.4-0.1,0.6-0.1,0.8-0.1
		c0.1,0,0.2-0.1,0.2-0.2c0-0.2-0.1-0.2-0.5-0.2c-0.9,0-2.8,0.1-3.1,0.1c-0.1,0-2.1-0.1-3.5-0.1c-0.4,0-0.5,0.1-0.5,0.2
		s0.1,0.2,0.2,0.2c0.3,0,0.8,0,1,0.1c1.2,0.4,1.4,0.7,1.4,3.2L92.5,254.2L92.5,254.2z M107,242.5c0-4.8,0-5.7,0.1-6.7
		c0.1-1.1,0.3-1.6,1.2-1.7c0.4-0.1,0.8-0.1,1-0.1c0.1,0,0.2-0.1,0.2-0.2c0-0.2-0.1-0.2-0.5-0.2c-0.9,0-3.2,0.1-3.3,0.1
		c-0.1,0-2.1-0.1-3.5-0.1c-0.4,0-0.5,0.1-0.5,0.2s0.1,0.2,0.2,0.2c0.3,0,0.8,0,1,0.1c1,0.2,1.2,0.7,1.3,1.7c0.1,1,0.1,1.8,0.1,6.7
		v5.4c0,3,0,5.4-0.1,6.7c-0.1,0.9-0.3,1.6-0.9,1.7c-0.3,0.1-0.7,0.1-0.9,0.1c-0.2,0-0.2,0.1-0.2,0.2c0,0.2,0.1,0.2,0.5,0.2
		c0.4,0,1.2,0,1.7-0.1c0.7,0,1.2,0,1.2,0c0.9,0,1.8,0,3.1,0.1c1.3,0,2.9,0.1,5.1,0.1c1.6,0,1.7-0.1,2-0.8c0.2-0.9,0.4-2.8,0.4-3.1
		c0-0.4,0-0.4-0.2-0.4c-0.2,0-0.2,0.1-0.3,0.4c-0.1,0.6-0.4,1.4-0.8,1.8c-0.7,0.9-2.1,0.9-3.7,0.9c-2.4,0-3.2-0.2-3.7-0.7
		c-0.6-0.6-0.7-2.5-0.7-7v-5.6H107z M118.4,245.2c0,5.5,3.5,12.1,12,12.1c7.4,0,12.3-5.7,12.3-12.6c0-7.2-5.2-11.6-12.1-11.6
		C122.1,233.1,118.4,240.2,118.4,245.2L118.4,245.2z M121.4,244.3c0-6.8,3.9-10.2,9-10.2c4.9,0,9.4,4,9.4,11.4
		c0,8.9-5.7,10.6-8.5,10.6C125.6,256.1,121.4,251.5,121.4,244.3L121.4,244.3z M149.2,247.9c0,3,0,5.4-0.1,6.7
		c-0.1,0.9-0.3,1.6-0.9,1.7c-0.3,0.1-0.7,0.1-0.9,0.1c-0.2,0-0.2,0.1-0.2,0.2c0,0.2,0.1,0.2,0.5,0.2c0.4,0,1.2-0.1,1.8-0.1
		s1.2,0,1.2,0c0.1,0,1,0,1.9,0.1c0.9,0,1.9,0.1,2.3,0.1c5.3,0,7.8-3.4,7.8-6.7c0-3.6-3.1-5.8-5.3-6.5c1.5-1.5,2.9-3.1,2.9-5.5
		c0-1.5-1.1-4.7-6.2-4.7c-1.5,0-2.6,0.1-3.3,0.1c-0.1,0-2.1-0.1-3.5-0.1c-0.4,0-0.5,0.1-0.5,0.2c0,0.1,0.1,0.2,0.2,0.2
		c0.3,0,0.8,0,1,0.1c1,0.2,1.2,0.7,1.3,1.7c0.1,1,0.1,1.8,0.1,6.7L149.2,247.9L149.2,247.9z M151.7,234.9c0-0.2,0.1-0.3,0.4-0.4
		c0.5-0.1,1.2-0.1,1.5-0.1c3.1,0,4.1,2.8,4.1,5.3c0,1.2-0.4,2.4-1.1,3.1c-0.7,0.7-1.1,0.8-2.8,0.8c-1.2,0-1.7-0.1-1.9-0.1
		c-0.1-0.1-0.2-0.1-0.2-0.4L151.7,234.9L151.7,234.9z M151.7,244.7c0-0.1,0.1-0.2,0.2-0.2c0.4,0,2,0,2.4,0.1
		c0.7,0.1,1.5,0.2,2.5,0.9c2.4,1.6,3,4.3,3,6.2c0,3.5-2.7,4.4-4.4,4.4c-0.6,0-1.9-0.1-2.7-0.4c-0.9-0.4-0.9-0.9-1-2.4
		c0-0.4,0-4.3,0-6.7L151.7,244.7L151.7,244.7z M167.6,253.5c-0.6,1.5-1.2,2.7-2.6,2.9c-0.2,0-0.7,0.1-0.9,0.1
		c-0.1,0-0.3,0.1-0.3,0.2c0,0.2,0.2,0.2,0.6,0.2c1.5,0,3.1-0.1,3.5-0.1s1.7,0.1,2.4,0.1c0.3,0,0.4-0.1,0.4-0.2s-0.1-0.2-0.3-0.2
		h-0.3c-0.5,0-1.2-0.3-1.2-0.9s0.1-1.3,0.4-2l1.8-5.4c0.1-0.1,0.1-0.2,0.3-0.2h6.6c0.1,0,0.2,0.1,0.3,0.2l2.8,7.6
		c0.2,0.5,0,0.8-0.2,0.8c-0.1,0-0.2,0.1-0.2,0.2c0,0.2,0.4,0.2,0.9,0.2c2.1,0.1,4.4,0.1,4.9,0.1c0.4,0,0.6-0.1,0.6-0.2
		s-0.1-0.2-0.3-0.2c-0.3,0-0.8,0-1.2-0.2c-0.7-0.2-1.5-0.7-2.6-3.4c-1.9-4.7-6.7-17.4-7.2-18.6c-0.4-0.9-0.5-1.1-0.7-1.1
		c-0.2,0-0.3,0.2-0.7,1.2L167.6,253.5L167.6,253.5z M172,246.7c-0.1,0-0.1-0.1-0.1-0.2l2.7-8.4c0.1-0.4,0.3-0.4,0.4,0l2.9,8.4
		c0,0.1,0,0.2-0.1,0.2H172L172,246.7z M194.4,242.5c0-4.8,0-5.7,0.1-6.7c0.1-1.1,0.3-1.6,1.2-1.7c0.4-0.1,0.8-0.1,1-0.1
		c0.1,0,0.2-0.1,0.2-0.2c0-0.2-0.1-0.2-0.5-0.2c-0.9,0-3.2,0.1-3.3,0.1c-0.1,0-2.1-0.1-3.5-0.1c-0.4,0-0.5,0.1-0.5,0.2
		s0.1,0.2,0.2,0.2c0.3,0,0.8,0,1,0.1c1,0.2,1.2,0.7,1.3,1.7c0.1,1,0.1,1.8,0.1,6.7v5.4c0,3,0,5.4-0.1,6.7c-0.1,0.9-0.3,1.6-0.9,1.7
		c-0.3,0.1-0.7,0.1-0.9,0.1c-0.2,0-0.2,0.1-0.2,0.2c0,0.2,0.1,0.2,0.5,0.2c0.4,0,1.2,0,1.7-0.1c0.6,0,1.2,0,1.2,0
		c0.9,0,1.8,0,3.1,0.1c1.3,0,2.9,0.1,5.1,0.1c1.6,0,1.7-0.1,2-0.8c0.2-0.9,0.4-2.8,0.4-3.1c0-0.4,0-0.4-0.2-0.4
		c-0.2,0-0.2,0.1-0.3,0.4c-0.1,0.6-0.4,1.4-0.8,1.8c-0.7,0.9-2.1,0.9-3.7,0.9c-2.4,0-3.2-0.2-3.7-0.7c-0.6-0.6-0.7-2.5-0.7-7v-5.6
		H194.4z"/>
</g>
</svg>
