<?xml version="1.0" encoding="utf-8"?>
<!-- Generator: Adobe Illustrator 22.0.0, SVG Export Plug-In . SVG Version: 6.00 Build 0)  -->
<svg version="1.1" id="Layer_1" xmlns="http://www.w3.org/2000/svg" xmlns:xlink="http://www.w3.org/1999/xlink" x="0px" y="0px"
	 viewBox="0 0 280.8 300.9" style="enable-background:new 0 0 280.8 300.9;" xml:space="preserve">
<style type="text/css">
	.st0{fill:#0067B1;}
	.st1{fill:#FFFFFF;}
</style>
<g>
	<rect x="77.5" y="135.2" class="st0" width="59.4" height="59.4"/>
	<path class="st1" d="M120.8,156.3c0,3.6-1.1,6.5-3.2,8.5c-2.8,2.9-7.2,4.4-12.1,4.4c-1.5,0-2.9,0-4.1-0.4v15.9h-5.1v-39.1
		c2.5-0.4,5.7-0.8,9.8-0.8c5.1,0,8.8,1.2,11.2,3.3C119.5,149.8,120.8,152.7,120.8,156.3z M115.7,156.9c0-5.2-3.7-7.9-9.4-7.9
		c-2.2,0-4,0.3-4.8,0.4v15.4c1.1,0.3,2.6,0.4,4.3,0.4C112,165.3,115.7,162.2,115.7,156.9z"/>
	<rect x="140.6" y="135.2" class="st0" width="59.4" height="59.4"/>
	<path class="st1" d="M160.3,184.8v-17c0-6.6,0-11.3-0.4-16.4h0.1c1.9,4.3,4.5,8.8,7.3,13.2l12.5,20.1h5.2v-39.7h-4.8v16.7
		c0,6.1,0.1,10.9,0.6,16.3h-0.1c-1.8-4.1-4.1-8.3-7-12.8l-12.5-20.1h-5.7v39.7H160.3z"/>
	<rect x="77.5" y="197.9" class="st0" width="59.4" height="59.4"/>
	<path class="st1" d="M92.7,207.9v23.4c0,12.4,6.1,17,14.2,17c8.5,0,15-5,15-17.1V208h-5.2v23.6c0,8.7-3.9,12.5-9.6,12.5
		c-5.2,0-9.2-3.7-9.2-12.5V208h-5.1V207.9z"/>
	<rect x="140.6" y="197.9" class="st0" width="59.4" height="59.4"/>
	<path class="st1" d="M188,226.6c0,6.5-2.1,11.7-5.7,15.4c-3.7,3.7-9.9,5.7-17.6,5.7c-3.7,0-6.8-0.1-9.4-0.4v-39
		c3.2-0.4,6.9-0.8,10.9-0.8c7.3,0,12.5,1.7,16.1,4.8C186,215.4,188,220.1,188,226.6z M182.7,226.7c0-9.5-5.2-15.3-16.1-15.3
		c-2.6,0-4.7,0.3-6.1,0.6v31.4c1.2,0.3,3.2,0.3,5.2,0.3C176.7,243.6,182.7,237.5,182.7,226.7z"/>
	<rect x="77.5" y="9" class="st0" width="122.5" height="122.5"/>
	<g>
		<path class="st1" d="M170.1,96.2c-2.8,0.7-5.8,1-8.5,1.9c4.7-4,4.4-10.1,7.4-14.7c1-1.4,1.8-2.8,2.9-4c-1.9,3.7-1.1,8.7-3.2,12.3
			c-0.8,1.5-2.1,2.9-3.3,4c0.4,0,0.8-0.4,1.2-0.7c3.4-3.4,8.1-4.4,11.9-7.3c1.5-1.2,2.9-2.8,3.6-4.5C181.3,89,175.5,94.6,170.1,96.2
			z"/>
		<g>
			<path class="st1" d="M182.7,72.8c-1.7,2.5-3.9,4.7-5.4,7.2c0.1-1.9,0.4-4.4-0.4-6.2c-1.4-4-2.5-8.1-2.9-12.4v-1.7
				c1,4.5,5.4,7.6,5.1,12.7c0.1,1.2-0.3,2.2-0.6,3.3l0.1,0.1l0.1-0.3c0.7-2.5,1-5.1,1.9-7.3c1.5-3.3,3.3-6.6,2.5-10.6
				C185.7,62,185.2,68.4,182.7,72.8z"/>
			<path class="st1" d="M180.1,47.3c2.9,3.9,3.6,10.2,1.4,14.6c-0.8,1.9-1.4,4-1.7,6.1c-0.1-0.4-0.1-0.8-0.3-1.2
				c-1.1-4.4-5.4-7.6-7-11.7c-0.6-1.4-1-2.8-1.2-4.3c1.8,3.4,6.3,5.1,7.6,8.8c0.6,1,0.4,2.1,0.8,3.2c0,0,0.1,0,0.1-0.1
				c-0.6-3.9-0.4-7.9,0.1-11.7c0-2.1-0.3-4-1.4-5.7C179.2,45.9,179.5,46.7,180.1,47.3z"/>
			<path class="st1" d="M178,46.6c0.8,3.4-0.4,6.8,0.4,10.2l0,0c-1.9-3.7-5.8-5.4-8.5-8.4c-1.5-1.8-2.2-3.9-2.6-6.1
				c1.5,3.7,5.8,4.5,8.3,7.7c0.8,0.7,1.1,1.8,1.7,2.6l0.1-0.1c-1.4-3-1.8-6.3-2.8-9.5c-0.6-1.4-1.5-2.8-2.8-3.6
				C174.5,40.2,177.3,43.6,178,46.6z"/>
			<path class="st1" d="M169.4,38.7c2.3,2.2,3.4,5,4.1,7.9l0.4,1c-3.4-2.5-6.6-5.9-8.8-9.4l-2.8-2.8
				C164.9,36.3,167.4,36.9,169.4,38.7z"/>
			<path class="st1" d="M114.6,35.7c-2.3,2.1-4.1,4.8-5.8,7.3c-1.7,1.9-3.6,3.3-5.5,5c1-2.1,1-4.4,2.3-6.3
				C107.6,38.2,111.3,36.9,114.6,35.7z"/>
			<path class="st1" d="M101.4,43c1.1-1.5,2.6-2.5,4.3-2.9c-3.2,2.2-3,6.2-4,9.5c-0.3,1.2-1,2.3-1.2,3.6h0.1
				c0.6-1.4,1.5-2.8,2.6-3.9c2.3-2.1,5.7-3.4,6.9-6.6c0,4.4-3.7,7.9-7.2,10.2c-1.4,1.2-2.8,2.8-3.6,4.3c-0.1-1.1,0.1-2.2,0.1-3.4
				C99,50.2,98.7,45.9,101.4,43z"/>
			<path class="st1" d="M94.9,56.1c-0.1-3.9,1.5-7,3.7-9.9l0.1-0.1c-2.5,3.7-0.4,8.5-0.6,12.8l-0.3,4.4c0,0,0,0.1,0.1,0.1
				c0.1-0.6,0.1-1,0.3-1.5c0.6-3.6,3.7-6.1,6.3-8.5c0.6-0.7,1.1-1.2,1.4-2.1c-0.3,1.8-0.8,3.6-1.5,5.2c-2.1,4.1-5.9,7.4-6.6,12.1
				C97.6,64.2,94.6,60.8,94.9,56.1z"/>
			<path class="st1" d="M92.9,61.6c0.3-1.2,0.6-2.5,1-3.6c-1,5.1,2.5,8.8,3.6,13.2c0.4,1.7,0.6,3.4,1.2,5c0,0,0.1,0,0.1-0.1
				c-1.7-4.7,0.7-9.1,3.2-12.7c0.6-1,1-2.1,1.2-3.3c0.3,2.1-0.3,4.5-0.6,6.8c-0.6,2.8-1.5,5.5-2.2,8.1c-0.6,1.7-0.4,3.6-0.1,5.4
				l-0.3,0c-1.8-3.3-5.4-5.8-6.3-9.5C92.9,68,92.4,64.6,92.9,61.6z"/>
			<path class="st1" d="M92.8,71.5c0.4,5.4,6.2,8.3,9,12.7c0.7,1,1.2,1.9,2.1,2.8c-0.1-0.6-0.7-1.1-0.8-1.7c-1-1.9-1.2-4.1-1.1-6.3
				c0.3-2.8,1.4-5.4,1-8.3c2.3,5.1,1.7,11.4,3,17c0.3,1.2,1.1,2.3,1.5,3.4c-4.8-3.3-11.4-6.5-13.6-12.5
				C92.7,76.5,92.7,73.9,92.8,71.5z"/>
			<path class="st1" d="M95.7,83.9c2.8,6.2,9.5,6.6,14.1,10.3c0.8,0.7,1.7,1.4,2.6,1.8l0,0c-1.1-1-2.2-2.1-3-3.3
				c-2.6-3.7-1.8-9-3.7-13c1.8,2.2,3.4,4.4,4.5,6.9c1.7,4,2.2,8.5,6.1,11.6c-4.1-1.4-8.8-1-12.4-3.4C100,92.6,96.4,88.5,95.7,83.9z"
				/>
			<path class="st1" d="M102.7,95.4c4.4,5,11.4,3.3,17.2,4.5c0.8,0.1,1.5,0.4,2.5,0.3c-0.7-0.4-1.7-0.4-2.3-0.8
				c-4.5-1.7-5.2-6.5-7.7-9.8c3.2,2.1,5.8,5,8.7,7.6c2.1,1.8,4.5,2.6,7.3,3.2c-0.7,0.3-1.5,0.1-2.2,0.3c-4.7,1.2-10.1,3-15.2,1.4
				C107.7,101.2,104.4,98.7,102.7,95.4z"/>
			<path class="st1" d="M161.7,107c-5,1.8-10.1-0.1-13.9-3c-1.5-1-2.9-2.3-5-2.2c-0.7,0-1.4,0-2.1,0.1c3.7,1.8,7.2,4.1,10.3,7.2
				c-0.6,0.6-1.2,1.2-1.9,1.7c-3-3.3-6.5-6.5-10.2-8.3c-0.7,0.1-1.4,0.6-2.1,1c-3,1.9-6.1,4.4-8.4,7.4l-1.8-1.5
				c3.2-3.2,6.6-5.7,10.3-7.4c-3.7-1.2-6.2,1.9-9,3.6c-3.3,2.3-8,3.4-12,1.8c-2.2-0.8-4.3-2.1-5.8-4c3.2,2.2,7.9,2.3,11.4,1
				c4.8-2.1,9.8-4.7,15.6-3.4c1,0,1.8,1,2.6,0.1c4.3-1.1,9.1-0.3,12.8,1.7l3.9,1.5c3.6,1.2,8.1,1,11.2-1.2
				C166.1,104.8,163.9,106.1,161.7,107z"/>
			<path class="st1" d="M167,101.9c-5.5,2.1-11-0.4-16.3-1.4l-1-0.1l0,0c2.5-0.6,5-1.4,7-3.2c2.9-2.9,5.7-5.8,8.8-8
				c-2.5,3.2-2.8,7.6-6.8,9.5c-1,0.7-2.2,0.8-3.3,1.2c1.5,0,2.8-0.6,4.3-0.7c5.4-0.8,11.6,0,15.3-4.5
				C173.7,98,170.3,100.8,167,101.9z"/>
			<path class="st1" d="M177,86.4c-2.2,1.4-4.4,2.8-6.5,4.4v-0.1c3.2-5.4,1.7-12.7,3.6-18.5l0.7-1.9c-0.4,3.6,1.2,6.8,1.1,10.3
				c-0.1,2.2-0.8,4.1-1.9,5.9h0.1c1.5-2.1,2.8-4.3,4.7-6.2c2.9-2.8,5.8-5.5,6.1-9.4C185.8,77.2,182.3,82.8,177,86.4z"/>
		</g>
		<path class="st1" d="M168.3,51.1c-5.4-11.4-17.1-18.6-29.5-18.6c-5.4,0.1-10.3,1.2-14.9,3.6c-8,3.9-14.6,12.1-16.8,20.4
			c-3.6,13.9,1.2,28,13.2,36.2c8.5,6.1,22.3,7.3,32,2.6c8.5-3.6,15.9-12.4,18.2-21.2C172.6,66.7,171.6,57.8,168.3,51.1z M169.9,62.7
			c0.1,0.6,0,1.2,0.3,1.7l-4.7,0.1c-0.1,0.1-0.3,0.1-0.4,0.1l0.1-0.1c-0.1-3.7-1.1-7-2.5-10.2c0-1.4-1.4-2.3-1.9-3.6
			c-1.1-0.7-1.4-1.9-2.5-2.6c-0.3-0.3-0.3-0.7-0.7-0.7l0.6-0.1c1.1-1.1,2.3-2.3,3.3-3.4C166.1,49.2,169.2,55.4,169.9,62.7z
			 M156.5,80.4c-0.4-0.4-0.4-1.1-1.1-1.1c-0.3,0-0.4,0.1-0.4,0.4c0,0.1,0,0.3,0,0.3l-1.5-1.2c0.7-0.4,1.2-1.2,1.8-1.9
			c1.4-1.9,2.2-4,2.9-6.2c0.3,0.1,0.6,0.1,0.7,0c0.3-0.1,0.3-0.6,0.1-0.7l-0.6-0.6c0-1,0.3-1.9,0.3-2.9l0.4,0.1c1.5,0,3,0.1,4.5,0
			l-0.3-0.1c-0.4,5.9-2.5,11.2-6.6,15.6C157,81.5,156.5,81,156.5,80.4z M152.8,85c-0.8-0.8,0.6-1.4,0.8-2.2c-0.1-0.8-1-1.2-1.7-1.4
			c-0.3-0.1-0.3-0.6-0.3-0.8c0.3-0.3,0.6-0.6,0.7-1l0.1,0.3l2.1,2.1c0,0.4,0.1,0.8,0.6,1.1c0.3,0.1,0.4-0.1,0.7,0h-0.1
			c-0.8,1-1.9,1.7-2.9,2.5l-0.3,0.3C152.3,85.6,153,85.5,152.8,85z M143.5,59.8c-0.3,0.1-0.6,0.3-0.8,0.1c-0.3-0.3-0.7-0.7-1.1-0.7
			c-0.3,0.1-0.6,0.4-1,0.3c0.6-0.7,1.7-0.7,2.1-1.7c0.1-0.4,0.3-0.8,0.1-1.2c-0.1-0.1-0.4-0.4-0.7-0.1c-0.3,0.6-1.1,0.7-1.4,1.2
			l-1.2-0.4c-0.1-1.1,0.1-2.5-0.3-3.4c0.7,0.3,1.2,0.3,1.9,0.4c1.7,0.4,3.2,1.2,4.7,2.1c-0.3,0.1-0.7,0.6-1,0.8
			c0,0.3,0.3,0.3,0.4,0.4l0.3-0.1C145.5,58.6,143.7,58.4,143.5,59.8z M144.9,73.3c0,0.6-0.8,0.6-1.2,1c-0.3-0.1,0-0.3,0-0.4
			C144.1,73.5,144.4,73.2,144.9,73.3z M154.1,57.6c0.6,0.1,0.8,0.7,1.4,0.8c0.6,0.7,0.7,1.7,1,2.5c-0.4,0.6-0.4,1.7-1.4,1.4
			c-0.3-0.6,0.4-0.8,0.3-1.4c0.1-0.1,0.4-0.1,0.4-0.4c0-0.6-0.7-0.4-0.7-1c-0.1-0.3-0.6-0.3-0.8-0.3c-0.7-0.3-1.2,1.2-1.4,0
			c0.1-0.1,0.3-0.4,0.1-0.7c-0.6-0.3-0.6-1.1-1.2-1.4c-0.8,0-1.5-0.3-2.3-0.1c-0.6-0.1-1.1-0.4-1.5,0.1c0,0.4-0.3,0.7-0.3,1.1
			c-0.1-0.1-0.4-0.3-0.4-0.4c1.4-1.7,3-3.2,4.5-4.8l0.1-0.1c0.7,1,1.7,1.9,2.2,2.9C154.4,56.7,153.2,57.2,154.1,57.6z M157,66.3
			c-0.3,0.8-0.3,1.9-0.4,2.8c0,0.1,0,0.3-0.1,0.4c-0.3-0.6-0.6-1.2-1.1-1.7c-0.6-0.3-0.1-1-0.7-1.4l-0.6-0.6
			C155,66.4,156.1,66.3,157,66.3z M150.3,52.4c-0.8,1-1.9,1.9-2.8,2.9l-0.1-0.3c-2.2-1.8-4.7-2.6-7.3-3l-0.4,0.1v-4.4l-0.1-0.4
			c1.8,0.3,3.6,0.6,5.2,1.1c2.1,0.7,4.1,1.9,5.9,3.4l0.4,0.1L150.3,52.4z M145.7,76.6c1.4,0.1,2.8,0.4,4.1,1c0.3,0,0.7,0,1-0.3
			c-0.1-0.6,0.6-0.8,0.6-1.4c0.3-0.4,0.1-1.1,0.4-1.5c0-0.6,0-1.2-0.4-1.7c-0.4-0.3-0.7,0-1,0.1c-0.4,0.3-0.3,1.1-1,1
			c-0.1,0.3-0.4,0.3-0.7,0.1c0-0.1-0.1-0.1-0.1-0.1c0.6-0.3,1.4-0.1,1.4-0.8c0.4-0.3,1-0.1,1.2-0.6c0.3-0.4,0.4-0.7,0.7-1.1
			c0-0.1,0.1-0.3,0.1-0.6c0.1,0.3,0.1,0.6,0.4,0.7c0.4,0.1,0.6-0.1,0.7-0.4c0-0.1,0.1-0.3,0.3-0.1c0.4,0.3,1,0,1.5,0.1
			c0.4-0.1,0.8-0.3,1.2-0.3c-0.4,1.8-1.4,3.4-2.3,5.1c-0.4,0.6-0.8,1.1-1.2,1.5c-0.1-0.4-0.1-0.8-0.4-1.2h-0.1
			c-0.3,0.6-0.8,1-0.7,1.5c-0.4,0.6-1.4,0.1-1.9,0.4c-0.7,0.3-1.1-0.4-1.7-0.7c-0.7-0.3-1.4-0.3-1.9-0.6
			C145.6,76.8,145.6,76.6,145.7,76.6z M142.7,34.5c6.5,1,12.4,3.4,17.4,8.1l-0.6,0.3c-1,1-1.9,1.8-2.5,2.9c0-0.3-0.6-0.6-0.7-0.8
			c-0.1-1-1-1.8-1.8-2.2c-0.7-0.1-0.8-1.1-1.5-0.8c-0.7-0.6-1.5-0.1-2.1,0.1v0.1c-3.2-1.8-6.6-2.9-10.3-3.2c-0.1,0-0.3,0.1-0.4,0.1
			c0.1-0.1,0.1-0.6,0.1-0.7c-0.1-0.1-0.3-0.4-0.6-0.3c-0.1,0.1-0.1,0.3-0.1,0.4c0.1-1.5,0.1-3.2,0-4.5
			C140.5,34.5,141.6,34.3,142.7,34.5z M141.5,41.1c2.9,0.3,5.4,1.1,8,2.2c0.4,0.6,1.1,0.8,1.2,1.5c-0.4,1,1.4,1,0.6,1.9
			c0,0.3,0.3,0.6,0.3,0.7c0.1,0.3,0,0.7,0.3,0.8c0.6,0.1,0.8-0.7,1.4-0.4c0.8,0.6,1,1.5,1,2.3c0.1,0.6,0.6,1,1,1.1
			c1-0.3,0.6,0.8,1.2,1.1c0.7,0.1,1.1,1.1,1.9,1c0.7,0.6,1.1,1.4,1.8,1.9c0,0.1,0,0.3,0.1,0.3c0.4,0.1,0.7-0.1,1-0.1
			c1.2,2.6,1.9,5.4,2.1,8.4l0.1,0.3c-1.5,0-3.2,0-4.8,0.1c0-1,0-1.9-0.6-2.6c0.3-0.6,0.3-1.1,0.3-1.7c-0.1-0.3-0.3,0-0.4,0
			c-0.6,0.6-0.6,1.2-0.8,1.8c-0.4,0.7-0.6,1.7-0.3,2.3l0.1,0.1h-1.8c0.4-0.3-0.4-0.8,0-1.2l0.8-0.1c0.3-0.6,1-1.1,1-1.8
			c0.4-0.4,0.7-1,0.4-1.7c-0.4-1,0.7-1.8-0.1-2.6c0.1-0.3-0.1-0.6-0.4-0.6c-0.3-0.1-0.6,0-0.6-0.4c0.1-0.3,0.6-0.4,0.4-0.8
			c-0.1-0.3-0.6,0-0.7,0c0-0.4,0.7-0.8,0-1.2c-0.4-0.1-0.7,0.4-1.1,0.3c-0.1-0.1-0.3-0.4-0.1-0.7l-1-1.2c-0.1-0.1-0.4,0-0.4-0.1
			c0-1-1.1-1.5-1.2-2.5c-0.4-0.3,0-1-0.6-1.2c-0.3-0.1-0.6-0.4-1-0.3c-0.4-0.6-0.8-1.1-1.4-1.7c-0.1,0-0.3,0-0.4,0.1
			c0.1,0.4,0.7,0.7,0.6,1.2c-0.1,0-0.1,0-0.1,0c0,0.4,0.4,0.8,0.7,1.2c-2.6-1.9-5.7-3-8.8-3.6c-0.7,0-1.2-0.3-1.9,0
			c0.1-1.4,0-3,0.1-4.5l-0.1-0.3C140.1,41.1,140.8,40.9,141.5,41.1z M138.7,59.8L139,60c-0.3,0-0.7-0.1-1,0c-0.1,0.1,0,0.4,0,0.6
			c0.6,0.3,0.7,1.2,1.5,0.8c0.3,0,0.7,0.1,0.8,0.6c0.4,0.1,0.6,1,1.2,0.8c0,0.3-0.1,0.8,0.3,1.1c-0.1,0.3-0.4,0.4-0.4,0.7
			c-0.1,0.1-0.1,0.3,0,0.4c0.6,0,0.6,0.7,0.8,1.1c-0.1,0.4,0,1,0.4,1.2c0,0.6-0.3,1-0.6,1.5c-0.7,0.3-1.7-0.4-1.9,0.7
			c-0.4,0.4,0,1.2-0.7,1.2c-1.4,0.1-2.6-0.1-3.6-1c0.7-0.3,1.8,0.1,2.1-0.8c0.1-0.1,0.3-0.4,0.1-0.7c0.3-0.3,0.4-0.7,0.6-1.1
			c-0.3-0.3-0.1-0.4-0.1-0.7c-0.7-0.7-1.5-0.3-2.5-0.3c-0.6,0.3,0,0.8-0.4,1.2c-0.7,0.1-0.7,0.7-1.1,1.1c-0.3-0.1-0.4-0.4-0.4-0.7
			h0.1c0,0.1,0,0.3,0.1,0.3c0.7,0.1,0.4-0.6,0.7-1c0.1-0.4,1-1,0.3-1.2c0-0.1,0.1-0.4-0.1-0.4c-0.3,0.1-0.6,0.1-0.7,0.4
			c0.1,0.3,0,0.6-0.3,0.8h-0.1c0-0.1-0.1-0.3-0.3-0.4c-0.4,0-0.7,0.3-1.1,0.1c-0.6,0.1-1.1,0.3-1.7,0.3c0-0.3,0.4-0.3,0.6-0.6
			c-0.1-0.6,0.3-0.8,0.4-1.1c0.1-0.1,0.4-0.1,0.6,0c0.1,0.1,0.3,0.3,0.4,0.1l0.1-0.3c0.6,0.3,0.3,1.7,1.2,1.1c0.1-0.6,0-1.4,0.3-1.9
			c-0.3-0.6,0.3-0.7,0.6-1.1c0.6,0,0.4-0.6,0.7-0.8c0.8-0.3,1.7-0.4,2.1-1.2c-0.1-0.4,0-1-0.4-1.4C137.9,59.8,138.4,59.5,138.7,59.8
			z M137.9,90.1l-0.4-0.3c-6.1-0.3-11.3-2.8-15.9-6.8c0.7-0.1,1,1,1.8,0.7c0.8-0.1,1.5-0.8,2.5-0.7c0.4,0,1,0,1.4-0.4
			c0.1-0.6-0.4-0.7-0.4-1.1c3,2.3,6.6,3.7,10.5,4l0.4-0.1v4.3L137.9,90.1z M120.8,66.6l-0.3-0.4c0.6,0.4,1,0.3,1.5,0.1
			c-0.8,0.3-0.6,1.2-0.8,1.8c0,0.3,0.4,0.4,0.3,0.7c-0.4,0.1-0.4,0.7-0.7,1C121.2,68.8,120.8,67.7,120.8,66.6z M115.8,72.2
			c-0.4,0-0.3,0.6-0.6,0.8c0-1.1-0.4-2.2-0.7-3.4l-0.3-3l-0.1-0.3c1.4,0.3,3,0.1,4.5,0.1l0.4-0.1c-0.1,0.7-0.1,1.8,0.4,2.3
			c-0.3-0.1-0.6-0.7-1-0.7c-0.8,0-1,1.1-1.8,1.2c-0.7,0.6-0.8,1.4-1,2.2C116.2,71.5,115.7,72,115.8,72.2z M119.1,64.6l-0.4-0.1
			l-4.4,0.1c0.4-5,1.8-9.6,4.7-13.5l1.8-2.2v-0.3c1.1,1.2,2.2,2.3,3.4,3.4c-3.2,3.4-4.8,7.6-5.2,12.3C119,64.4,119,64.6,119.1,64.6z
			 M137.7,45.6c-0.8-0.1-1.7,0.1-2.6,0.1c-3.6,0.7-7,2.3-9.8,5l-0.1-0.3c-1.1-1-2.1-2.3-3.3-3c1.1-0.7,1.9-1.5,3-2.2
			c3.7-2.5,8-4,12.8-4.3C137.6,42.5,137.6,44.1,137.7,45.6z M130.4,70.3c0,0.1,0.3,0.3,0.4,0.1c0.1-0.3-0.4-0.7,0-0.8
			c0.3,0.3,0.1,0.8,0.3,1.1c0.1,0.1,0.1,0.4,0.1,0.7c-0.4,0.6-1.1,1-1.4,1.7c-0.3-0.7-1-1.4-1.2-2.1c-0.4-0.8-0.7-1.8-1.2-2.6
			c0.4,0.6,1.4,0,1.4,0.8c0,0,0.1,0,0.3,0c0.1-0.1,0.1-0.1,0.3-0.1c0.1,0.1,0.4,0.3,0.1,0.4C129.7,69.9,130,70.3,130.4,70.3z
			 M135.3,83.1l0.8,0.4c-2.9-0.7-5.9-1.7-8.4-3.7c-0.4-0.3-0.7-0.8-1.2-0.8c1.1-1,2.3-2.2,3.3-3.3c0.4,0.8,1.4,1.2,2.1,1.8
			c1.2,0.6,2.5,1.7,4,1.4c-0.4,0.1-0.8,0.4-1.2,0.8c-0.1,0.4-0.1,1.1-0.7,1.2C133.9,81.6,134.7,82.4,135.3,83.1z M124.8,77.3
			l-0.1-1.1c-1-0.8-0.7-2.2-0.8-3.3c-0.7-0.6-0.1-1.4-0.6-1.9c0-1-1.5-1.2-1-2.3c-0.1-0.3-0.4-0.6-0.1-1c0.3-0.4,1,0,1.1-0.4
			l0.1-0.8c0.4-0.1,0.8,0.3,1-0.3c0.3-0.8-1.2-1.8,0.1-2.2c0.4,0,1.1-0.1,1.2,0.4c0.1,0.7,0.3,1.2,0,1.9c0.4,0.1,0,0.6,0,0.8
			c-0.3,0.1-0.6,0.4-0.8,0.3c-0.1-0.3-0.4-0.6-0.7-0.6c-0.3,0.3,0.1,0.7,0,1.1c-0.1,0.3,0,0.6-0.1,0.7c-0.1-0.1-0.3-0.1-0.4-0.1
			c-0.3,0.1-0.1,0.4,0,0.7c0.3,0.1,0.6,0.4,0.8,0.4l0.3-0.3c0-0.6,0.3-1,0.3-1.5l0.4,0.3c0.4,2.1,1.4,3.9,2.5,5.7l0.7,0.6
			c-1.5,1.2-2.9,2.9-4.1,4.3l0,0c0,0,0-0.3-0.3-0.3C124,77.7,125.1,78,124.8,77.3z M127.1,57.9c-0.4,0.3-0.8,0.7-1.1,1.1
			c-0.4,0.3-1,0.3-1.2,0.7c0,0.1,0.3,0.4,0,0.6c-0.4,0.4-1.1-0.1-1.4,0.6c-0.1,0.6-0.8,1-0.7,1.7c-0.4,0.3-0.3,0.8-0.3,1.2
			c0.3,0.3-0.1,0.7,0.3,1c-0.7-0.1-1.5-0.1-2.1,0.1c0.3-0.7,0.3-1.7,0.4-2.5c0.6-3.4,2.2-6.3,4.4-9.1c1.1,1.1,2.3,2.3,3.6,3.3
			C128.1,56.7,128.1,58,127.1,57.9z M137.2,75.5c-0.3,0.4,0,1-0.1,1.4c-2.2-0.4-4.1-1.2-5.9-2.8c1-1.1,2.3-2.1,3-3.3
			c0.1,0.6,0.7,0.8,1.1,1c0.8,0.4,1.9,1,2.9,0.6c-0.1,0-0.1,0.1-0.3,0.1c0.3,0.3-0.3,0.6,0.1,0.8c0,0.3-0.3,0.1-0.3,0.3
			c0.1,0.3,0,0.8,0.4,1c0.1,0.1,0,0.4-0.1,0.4C137.7,75.3,137.3,75.3,137.2,75.5z M132,70.7c0.3-0.3,0.6-0.7,0.7-1.1l0.6,0.3
			C132.6,69.9,132.4,70.4,132,70.7L132,70.7z M136.5,57.3c-0.1-0.3,0.1-0.4-0.1-0.7c-0.7,0.3-0.4,1.2-1,1.7c-0.1,0.4-0.7,0.3-1,0.4
			c-0.1-0.3-0.6-0.3-0.8-0.1c-0.4,0-0.4-0.8-0.8-0.4c-0.1,0.1,0,0.4-0.4,0.3c0-0.1-0.1-0.1-0.3-0.1c0-0.3,0.4-0.3,0.3-0.6
			c-0.3-0.6-1-0.4-1.4-0.8h-0.4c1.9-2.1,4.4-2.9,7-3.3c0,1.2-0.1,2.5,0.3,3.6C137.6,56.9,137.1,57.6,136.5,57.3z M137.7,52.1
			c-0.8-0.1-1.7,0.1-2.5,0.3c-1.8,0.4-3.4,1.5-5,2.6c-0.1,0.1-0.1,0.3-0.3,0.4c-1.1-1-2.2-2.3-3.4-3.3c3.2-2.6,6.8-4.3,10.9-4.7
			l0.3-0.1C137.6,48.8,137.6,50.6,137.7,52.1z M120.1,40.5c5.2-3.7,11-5.9,17.6-6.2l-0.1,0.4v3.9l0.1,0.4c-6.3,0.3-12,2.6-16.7,7
			l-0.1,0.3c-1.1-1.2-2.3-2.5-3.6-3.4h-0.1C118.2,42.2,119.1,41.2,120.1,40.5z M108,61.8c0.8-6.8,3.7-12.7,8.4-17.8l0.1,0.4
			c1.1,1.1,2.2,2.2,3.3,3.3c-1,0.7-1.5,1.7-2.2,2.5c-2.9,4.1-4.5,8.8-5,14.1l0.1,0.7c-1.7-0.1-3.4-0.1-5.1,0
			C107.8,63.7,107.7,62.7,108,61.8z M111.7,80.8c-2.3-4.4-3.7-9.1-4-14.3h4.5l0.4-0.1c0,0.3,0,0.6,0,1l0,0c-0.1,0.1,0.1,0.1,0.1,0.3
			c0.1,1.8,0.4,3.3,0.8,5l0.3,0.4c-0.3-0.3-0.4-0.7-0.7-1c-0.4,0-0.8,0.1-1.1,0.4c0.1,0.4-0.3,0.3-0.6,0.4c0-0.1-0.1-0.3-0.3-0.3
			c-0.3,0-0.7,0-0.8,0.4c0,0.3-0.3,0.4-0.3,0.6c-0.1,0.7-0.3,1.7,0.1,2.3c0,0.6,0.3,1,0.7,1.4c0.1,0,0.3-0.1,0.4-0.1
			c0.4,0.3,0.7,1.1,1.4,1c0.1-0.1,0.1-0.3,0.1-0.4c0.3,0.3,0.6,1.1,1.1,1c0.1,0.1,0.3,0.4,0.6,0.4c0.7-0.1,0.4,0.8,1,1.1
			c0.4,0.3,0.6,0.8,1.2,0.6l0.1-0.3c0.1,0.1,0,0.4,0.1,0.7c0.3,0.6,0.8,1,1.4,1.1c0.4,0.6,1,1.2,1.5,1.5l-0.7-0.1l-3.3,3.3
			C114.6,84.9,112.9,83,111.7,80.8z M134.7,96.2c-6.6-1-12.3-3.7-17.4-8.1l3.3-3.4v-0.1c4.7,4.5,10.3,6.8,16.7,7.2l0.6-0.1l-0.1,0.3
			v4.4l0.3,0.4C136.9,96.3,135.8,96.5,134.7,96.2z M138.7,77.7c-0.4,0-0.7,0-1-0.1c-0.1,0-0.1-0.1-0.1-0.3c0.4,0,0.7-0.6,1.2-0.4
			c0.3-0.3,0.4-0.7,0.7-0.8c-0.1-0.4,0.4-0.1,0.6-0.4c0.1-0.1,0.3-0.3,0.6-0.1c0.3,0.4,1,0.3,1.4,0.8c0.1,0,0.3-0.1,0.1-0.3v-0.1
			c0.6,0,0.8,0.7,1.4,0.1c0.1-0.1,0.1-0.4,0-0.4c0,0-0.1,0-0.1-0.1c0.4-0.1,0.6,0.6,1.1,0.3c0.4-0.3,0.7-0.7,1.1-0.7l0.1,0.1
			c0.1,1-0.7,1.5-1.5,2.1c-0.4,0.1-1.4,0.1-1.4,1c-0.6,0.6-1.1-0.3-1.7-0.1c-0.3-0.1,0-0.6-0.4-0.7
			C139.9,77.6,139.1,76.9,138.7,77.7z M139.9,86c0.6,0.3,1.7-0.3,1.9,0.4c-0.1,0.4-0.4,0.7-0.4,1.2c0.3,0.6,0.6,1.4,1.4,1.5
			c0.1,0.3,0.4,0.3,0.7,0.4c-1.4,0.3-2.8,0.1-3.9,0.6c0.1-1.4,0-2.8,0-4l-0.3-0.4C139.7,85.7,139.7,85.9,139.9,86z M139.9,96.5
			l-0.3,0.1c0.1-1.7,0.1-3.4,0-5.1c0.8,0.3,1.7,0,2.5,0l2.5-0.4c1.2,0.3,2.1,2.2,3.4,1c0.4-0.6,1.4-0.6,1.7-1.2
			c0.8-0.3,1-1.1,1.5-1.7c0.6-1.5,2.3-1.8,3.3-2.9c0.8-0.7,1.8-1.2,2.2-2.2l0.1,0.4l3.4,3.3C154.7,93.2,147.8,96.2,139.9,96.5z
			 M170,66.6c-0.3,7.6-3.2,14.2-8.1,20l-0.1,0.3c-1.1-1.2-2.5-2.8-3.7-3.7c0.7-0.6,1.4-1.4,1.9-2.1c3.2-4.3,5-9.1,5.2-14.5l-0.1-0.4
			l0.3,0.1h4.7l0.3-0.1L170,66.6z"/>
		<path class="st1" d="M153.3,40.9c0,0.1,0,0.3,0.1,0.4c0.7,0.3,0.8,1.2,1.7,1c0.3-0.3-0.1-0.6-0.1-1c-0.1-0.3-0.4-0.6-0.7-0.6
			C153.9,41.2,153.6,40.5,153.3,40.9z"/>
		<path class="st1" d="M140.2,38.2c0.8,1.1,2.3,0.6,3.4,0.3c0.8,0.3,1.5,0,2.1-0.6v-0.1c-0.6-0.8-1.7-1-2.6-1l-2.3,1
			c-0.1-0.1-0.6-0.1-0.7,0.1C140.1,37.9,140.2,38,140.2,38.2z"/>
	</g>
</g>
</svg>
