<?xml version="1.0" encoding="utf-8"?>
<!-- Generator: Adobe Illustrator 19.0.0, SVG Export Plug-In . SVG Version: 6.00 Build 0)  -->
<svg version="1.1" id="Layer_1" xmlns="http://www.w3.org/2000/svg" xmlns:xlink="http://www.w3.org/1999/xlink" x="0px" y="0px"
	 viewBox="0 0 201.3 133.3" style="enable-background:new 0 0 201.3 133.3;" xml:space="preserve">
<style type="text/css">
	.st0{fill:#F19220;}
	.st1{fill-rule:evenodd;clip-rule:evenodd;fill:#D85B2E;}
	.st2{fill-rule:evenodd;clip-rule:evenodd;fill:#C73546;}
	.st3{fill-rule:evenodd;clip-rule:evenodd;fill:#ED9122;}
	.st4{fill:#ED9122;}
	.st5{fill-rule:evenodd;clip-rule:evenodd;fill:#812E77;}
	.st6{fill:#4E2561;}
	.st7{fill-rule:evenodd;clip-rule:evenodd;fill:#4E2561;}
</style>
<g id="XMLID_4_">
	<g id="XMLID_70_">
		<g id="XMLID_71_">
			<g id="XMLID_101_">
				<g id="XMLID_102_">
					<g id="XMLID_103_">
						<path id="XMLID_104_" class="st0" d="M69.5,93.6c-0.2,0-0.4-0.2-0.5-0.4c0,0,0-0.1,0-0.2c0-0.3,0-0.8,0.2-1.5
							c0-0.2,0.3-0.4,0.5-0.3c0.3,0,0.4,0.3,0.4,0.5c-0.1,0.6-0.2,1.1-0.2,1.3c0,0.1,0,0.1,0,0.1C70,93.3,69.8,93.5,69.5,93.6
							C69.5,93.6,69.5,93.6,69.5,93.6z M70.1,90.5c-0.1,0-0.1,0-0.2,0c-0.2-0.1-0.4-0.3-0.3-0.5c0.2-0.5,0.5-1,0.8-1.5
							c0.1-0.2,0.4-0.3,0.6-0.1c0.2,0.1,0.3,0.4,0.2,0.6c-0.3,0.4-0.5,0.9-0.7,1.4C70.5,90.4,70.3,90.5,70.1,90.5z M71.9,87.8
							c-0.1,0-0.2,0-0.3-0.1c-0.2-0.2-0.2-0.4,0-0.6c0.4-0.4,0.8-0.8,1.3-1.1c0.2-0.1,0.5-0.1,0.7,0.1c0.2,0.2,0.1,0.4-0.1,0.6
							c-0.4,0.3-0.8,0.7-1.2,1C72.1,87.7,72,87.8,71.9,87.8z M74.5,85.8c-0.2,0-0.3-0.1-0.4-0.2c-0.1-0.2-0.1-0.5,0.2-0.6
							c0.5-0.3,1.1-0.5,1.6-0.7c0.2-0.1,0.5,0,0.6,0.2c0.1,0.2,0,0.5-0.3,0.5c-0.5,0.2-1,0.4-1.5,0.7C74.7,85.8,74.6,85.8,74.5,85.8
							z M77.8,84.6c-0.2,0-0.4-0.1-0.4-0.3c-0.1-0.2,0.1-0.5,0.3-0.5c0.6-0.1,1.1-0.3,1.7-0.4c0.3,0,0.5,0.1,0.5,0.3
							c0,0.2-0.1,0.4-0.4,0.5c-0.6,0.1-1.1,0.2-1.7,0.3C77.8,84.6,77.8,84.6,77.8,84.6z M81.2,84c-0.2,0-0.4-0.2-0.5-0.4
							c0-0.2,0.2-0.4,0.4-0.5c0.6-0.1,1.2-0.1,1.8-0.1c0.3,0,0.5,0.2,0.5,0.4c0,0.2-0.2,0.4-0.4,0.4C82.3,84,81.8,84,81.2,84
							C81.2,84,81.2,84,81.2,84z M88.1,84c-0.3,0-0.5-0.2-0.5-0.4c0-0.2,0.2-0.4,0.5-0.4c0.6,0,1.2,0,1.7,0c0.3,0,0.5,0.2,0.5,0.4
							c0,0.2-0.2,0.4-0.4,0.4C89.3,84,88.7,84,88.1,84C88.1,84,88.1,84,88.1,84z M86.4,84C86.4,84,86.4,84,86.4,84
							c-0.4,0-0.8,0-1.1,0c-0.2,0-0.4,0-0.6,0c-0.3,0-0.5-0.2-0.5-0.4c0-0.2,0.2-0.4,0.5-0.4c0.2,0,0.4,0,0.6,0c0.4,0,0.8,0,1.1,0
							c0.3,0,0.5,0.2,0.5,0.4C86.9,83.8,86.6,84,86.4,84z M91.6,83.8c-0.2,0-0.4-0.2-0.5-0.4c0-0.2,0.2-0.4,0.4-0.5
							c0.6,0,1.2-0.1,1.7-0.2c0.3,0,0.5,0.1,0.5,0.4c0,0.2-0.1,0.4-0.4,0.5C92.8,83.7,92.3,83.8,91.6,83.8
							C91.6,83.8,91.6,83.8,91.6,83.8z M95.1,83.4c-0.2,0-0.4-0.1-0.5-0.3c0-0.2,0.1-0.4,0.4-0.5c0.6-0.1,1.1-0.2,1.7-0.3
							c0.2,0,0.5,0.1,0.6,0.3c0.1,0.2-0.1,0.4-0.4,0.5C96.3,83.2,95.7,83.3,95.1,83.4C95.1,83.4,95.1,83.4,95.1,83.4z M98.5,82.8
							c-0.2,0-0.4-0.1-0.4-0.3c-0.1-0.2,0.1-0.5,0.3-0.5c0.6-0.1,1.1-0.3,1.6-0.5c0.2-0.1,0.5,0,0.6,0.3c0.1,0.2,0,0.5-0.3,0.5
							c-0.5,0.2-1.1,0.3-1.7,0.5C98.6,82.8,98.5,82.8,98.5,82.8z M101.8,81.7c-0.2,0-0.4-0.1-0.4-0.3c-0.1-0.2,0-0.5,0.2-0.5
							c0.5-0.2,1-0.4,1.5-0.7c0.2-0.1,0.5,0,0.6,0.2c0.1,0.2,0,0.5-0.2,0.6c-0.5,0.2-1.1,0.5-1.6,0.7
							C101.9,81.7,101.8,81.7,101.8,81.7z M104.8,80.3c-0.2,0-0.3-0.1-0.4-0.2c-0.1-0.2-0.1-0.5,0.1-0.6c0.5-0.3,1-0.6,1.4-0.9
							c0.2-0.1,0.5-0.1,0.6,0.1c0.2,0.2,0.1,0.4-0.1,0.6c-0.5,0.3-1,0.6-1.5,0.9C105,80.2,104.9,80.3,104.8,80.3z M107.6,78.3
							c-0.1,0-0.2,0-0.3-0.1c-0.2-0.2-0.2-0.4,0-0.6c0.4-0.4,0.8-0.7,1.2-1.1c0.2-0.2,0.5-0.2,0.7-0.1c0.2,0.1,0.2,0.4,0.1,0.6
							c-0.4,0.4-0.8,0.8-1.2,1.2C107.8,78.3,107.7,78.3,107.6,78.3z M109.8,75.9c-0.1,0-0.2,0-0.3-0.1c-0.2-0.1-0.3-0.4-0.1-0.6
							c0.3-0.4,0.6-0.9,0.8-1.3c0.1-0.2,0.4-0.3,0.6-0.2c0.2,0.1,0.3,0.3,0.2,0.6c-0.3,0.5-0.6,1-0.9,1.4
							C110.1,75.9,110,75.9,109.8,75.9z M111.3,73.1c0,0-0.1,0-0.1,0c-0.2-0.1-0.4-0.3-0.3-0.5c0.2-0.5,0.3-1,0.4-1.5
							c0-0.2,0.3-0.4,0.5-0.3c0.3,0,0.4,0.3,0.4,0.5c-0.1,0.5-0.3,1.1-0.5,1.6C111.7,73,111.5,73.1,111.3,73.1z M112,70
							C112,70,112,70,112,70c-0.3,0-0.5-0.2-0.5-0.4c0-0.2,0-0.5,0-0.7c0-0.3,0-0.5,0-0.8c0-0.2,0.2-0.4,0.4-0.4
							c0.3,0,0.5,0.2,0.5,0.4c0,0.3,0,0.6,0,0.8c0,0.3,0,0.5,0,0.8C112.4,69.9,112.2,70,112,70z M111.8,66.9c-0.2,0-0.4-0.1-0.5-0.3
							c-0.1-0.5-0.3-1-0.4-1.5c-0.1-0.2,0.1-0.5,0.3-0.5c0.2-0.1,0.5,0,0.6,0.3c0.2,0.5,0.3,1,0.5,1.6
							C112.3,66.7,112.1,66.9,111.8,66.9C111.8,66.9,111.8,66.9,111.8,66.9z M110.7,63.9c-0.2,0-0.3-0.1-0.4-0.2
							c-0.2-0.5-0.5-0.9-0.8-1.3c-0.1-0.2-0.1-0.5,0.1-0.6c0.2-0.1,0.5-0.1,0.6,0.1c0.3,0.5,0.6,0.9,0.9,1.4c0.1,0.2,0,0.5-0.2,0.6
							C110.8,63.9,110.7,63.9,110.7,63.9z M108.8,61.3c-0.1,0-0.3-0.1-0.4-0.1c-0.4-0.4-0.8-0.8-1.2-1.1c-0.2-0.2-0.2-0.4,0-0.6
							c0.2-0.2,0.5-0.2,0.7,0c0.4,0.4,0.9,0.8,1.3,1.2c0.2,0.2,0.1,0.4-0.1,0.6C109,61.3,108.9,61.3,108.8,61.3z M106.2,59.2
							c-0.1,0-0.2,0-0.3-0.1c-0.5-0.3-0.9-0.5-1.4-0.8c-0.2-0.1-0.3-0.4-0.2-0.6c0.1-0.2,0.4-0.3,0.6-0.2c0.5,0.2,1.1,0.5,1.6,0.8
							c0.2,0.1,0.3,0.4,0.1,0.6C106.5,59.2,106.3,59.2,106.2,59.2z M103.1,57.8c0,0-0.1,0-0.1,0c-0.5-0.2-1.1-0.3-1.6-0.4
							c-0.3,0-0.4-0.3-0.4-0.5c0-0.2,0.3-0.4,0.5-0.3c0.6,0.1,1.2,0.2,1.7,0.4c0.2,0.1,0.4,0.3,0.3,0.5
							C103.5,57.7,103.3,57.8,103.1,57.8z M99.7,57.2C99.7,57.2,99.7,57.2,99.7,57.2c-0.6,0-1.1,0-1.7,0c-0.3,0-0.5-0.2-0.5-0.4
							c0-0.2,0.2-0.4,0.4-0.4c0.6,0,1.2,0,1.8,0c0.3,0,0.4,0.2,0.4,0.4C100.1,57,99.9,57.2,99.7,57.2z"/>
					</g>
				</g>
			</g>
			<g id="XMLID_72_">
				<g id="XMLID_73_">
					<g id="XMLID_74_">
						<path id="XMLID_75_" class="st0" d="M140.4,63.7C140.4,63.7,140.4,63.7,140.4,63.7c-0.6,0-1.2-0.1-1.8-0.2
							c-0.3,0-0.4-0.3-0.4-0.5c0.1-0.2,0.3-0.4,0.5-0.3c0.5,0.1,1.1,0.2,1.7,0.2c0.3,0,0.5,0.2,0.4,0.4
							C140.8,63.5,140.6,63.7,140.4,63.7z M142.1,63.7c-0.2,0-0.4-0.2-0.5-0.4c0-0.2,0.2-0.4,0.4-0.5c0.5-0.1,1.1-0.1,1.7-0.3
							c0.2-0.1,0.5,0.1,0.6,0.3c0.1,0.2-0.1,0.4-0.3,0.5C143.4,63.5,142.8,63.6,142.1,63.7C142.2,63.7,142.1,63.7,142.1,63.7z
							 M137,63.1c-0.1,0-0.1,0-0.2,0c-0.6-0.2-1.1-0.4-1.6-0.7c-0.2-0.1-0.3-0.4-0.2-0.6c0.1-0.2,0.4-0.3,0.6-0.1
							c0.5,0.3,1,0.5,1.5,0.7c0.2,0.1,0.4,0.3,0.3,0.5C137.4,63,137.2,63.1,137,63.1z M145.5,63c-0.2,0-0.4-0.1-0.4-0.3
							c-0.1-0.2,0-0.5,0.3-0.5c0.5-0.2,1.1-0.4,1.6-0.6c0.2-0.1,0.5,0,0.6,0.2c0.1,0.2,0,0.5-0.2,0.6c-0.5,0.2-1.1,0.4-1.7,0.6
							C145.6,63,145.6,63,145.5,63z M148.7,61.7c-0.2,0-0.3-0.1-0.4-0.2c-0.1-0.2,0-0.5,0.2-0.6c0.9-0.5,1.4-0.8,1.4-0.8
							c0.2-0.1,0.5-0.1,0.6,0.1c0.2,0.2,0.1,0.4-0.1,0.6c0,0-0.6,0.4-1.5,0.9C148.9,61.6,148.8,61.7,148.7,61.7z M134,61.5
							c-0.1,0-0.2,0-0.3-0.1c-0.5-0.3-0.9-0.7-1.3-1.1c-0.2-0.2-0.2-0.4,0-0.6c0.2-0.2,0.5-0.2,0.7,0c0.4,0.4,0.8,0.7,1.2,1
							c0.2,0.1,0.2,0.4,0.1,0.6C134.3,61.5,134.1,61.5,134,61.5z M131.6,59.2c-0.1,0-0.3-0.1-0.4-0.2c-0.3-0.4-0.7-0.9-1-1.3
							c-0.1-0.2-0.1-0.5,0.1-0.6c0.2-0.1,0.5-0.1,0.6,0.1c0.3,0.4,0.6,0.9,1,1.3c0.2,0.2,0.1,0.4-0.1,0.6
							C131.8,59.2,131.7,59.2,131.6,59.2z M96.8,57.4c-0.2,0-0.3-0.1-0.4-0.2c-0.3-0.4-0.6-0.8-0.8-1.2c-0.1-0.2,0-0.5,0.2-0.6
							c0.2-0.1,0.5,0,0.6,0.2c0.2,0.4,0.5,0.8,0.7,1.1c0.1,0.2,0.1,0.5-0.1,0.6C97,57.4,96.9,57.4,96.8,57.4z M129.8,56.6
							c-0.2,0-0.3-0.1-0.4-0.2c-0.3-0.5-0.5-0.9-0.8-1.4c-0.1-0.2,0-0.5,0.2-0.6c0.2-0.1,0.5,0,0.6,0.2c0.2,0.5,0.5,0.9,0.7,1.4
							c0.1,0.2,0,0.5-0.2,0.6C129.9,56.6,129.8,56.6,129.8,56.6z M95.4,54.8c-0.2,0-0.4-0.1-0.4-0.3c-0.2-0.5-0.4-1-0.5-1.6
							c-0.1-0.2,0.1-0.4,0.4-0.5c0.2,0,0.5,0.1,0.5,0.3c0.1,0.5,0.3,1,0.5,1.5c0.1,0.2,0,0.5-0.3,0.5C95.5,54.8,95.4,54.8,95.4,54.8
							z M128.3,53.7c-0.2,0-0.4-0.1-0.4-0.3c-0.2-0.5-0.5-1-0.7-1.4c-0.1-0.2,0-0.5,0.2-0.6c0.2-0.1,0.5,0,0.6,0.2
							c0.2,0.5,0.5,1,0.7,1.4c0.1,0.2,0,0.5-0.2,0.5C128.4,53.7,128.4,53.7,128.3,53.7z M94.6,51.7c-0.2,0-0.4-0.2-0.5-0.4
							c0-0.3,0-0.6,0-0.8c0-0.3,0-0.5,0-0.8c0-0.2,0.2-0.4,0.5-0.4c0.3,0,0.4,0.2,0.4,0.4c0,0.2,0,0.5,0,0.7c0,0.3,0,0.5,0,0.8
							C95.1,51.5,94.9,51.7,94.6,51.7C94.7,51.7,94.7,51.7,94.6,51.7z M126.8,50.9c-0.2,0-0.3-0.1-0.4-0.2c-0.3-0.5-0.5-0.9-0.8-1.4
							c-0.1-0.2,0-0.5,0.2-0.6c0.2-0.1,0.5,0,0.6,0.2c0.3,0.5,0.6,0.9,0.8,1.4c0.1,0.2,0,0.5-0.2,0.6
							C127,50.9,126.9,50.9,126.8,50.9z M94.9,48.6C94.8,48.6,94.8,48.6,94.9,48.6c-0.3-0.1-0.5-0.3-0.5-0.5
							c0.1-0.5,0.3-1.1,0.5-1.6c0.1-0.2,0.3-0.3,0.6-0.3c0.2,0.1,0.4,0.3,0.3,0.5c-0.2,0.5-0.3,1-0.4,1.5
							C95.3,48.5,95.1,48.6,94.9,48.6z M125.1,48.1c-0.2,0-0.3-0.1-0.4-0.2c-0.3-0.4-0.6-0.9-0.9-1.3c-0.1-0.2-0.1-0.4,0.1-0.6
							c0.2-0.1,0.5-0.1,0.6,0.1c0.3,0.4,0.6,0.9,1,1.3c0.1,0.2,0.1,0.5-0.2,0.6C125.3,48.1,125.2,48.1,125.1,48.1z M96,45.7
							c-0.1,0-0.1,0-0.2,0c-0.2-0.1-0.3-0.4-0.2-0.6c0.3-0.5,0.6-1,0.9-1.4c0.1-0.2,0.4-0.2,0.6-0.1c0.2,0.1,0.3,0.4,0.1,0.6
							c-0.3,0.4-0.6,0.9-0.8,1.3C96.3,45.6,96.2,45.7,96,45.7z M123.2,45.6c-0.1,0-0.3-0.1-0.4-0.2c-0.4-0.4-0.7-0.8-1.1-1.2
							c-0.2-0.2-0.1-0.4,0-0.6c0.2-0.2,0.5-0.1,0.7,0c0.4,0.4,0.8,0.8,1.1,1.2c0.2,0.2,0.1,0.4-0.1,0.6
							C123.4,45.5,123.3,45.6,123.2,45.6z M120.9,43.2c-0.1,0-0.2,0-0.3-0.1c-0.4-0.4-0.8-0.7-1.2-1.1c-0.2-0.2-0.2-0.4,0-0.6
							c0.2-0.2,0.5-0.2,0.7,0c0.4,0.3,0.9,0.7,1.3,1.1c0.2,0.2,0.2,0.4,0,0.6C121.1,43.1,121,43.2,120.9,43.2z M97.9,43
							c-0.1,0-0.2,0-0.3-0.1c-0.2-0.1-0.2-0.4-0.1-0.6c0.4-0.4,0.8-0.8,1.2-1.2c0.2-0.2,0.5-0.2,0.7,0c0.2,0.2,0.2,0.4,0,0.6
							c-0.4,0.3-0.8,0.7-1.2,1.1C98.2,43,98,43,97.9,43z M118.2,41.1c-0.1,0-0.2,0-0.3-0.1c-0.5-0.3-0.9-0.6-1.4-0.8
							c-0.2-0.1-0.3-0.4-0.2-0.6c0.1-0.2,0.4-0.3,0.6-0.1c0.5,0.3,1,0.6,1.5,0.9c0.2,0.1,0.3,0.4,0.1,0.6
							C118.5,41.1,118.4,41.1,118.2,41.1z M100.4,40.9c-0.1,0-0.3-0.1-0.4-0.2c-0.2-0.2-0.1-0.4,0.1-0.6c0.5-0.3,1-0.6,1.5-0.9
							c0.2-0.1,0.5,0,0.6,0.1c0.1,0.2,0.1,0.5-0.2,0.6c-0.5,0.3-1,0.5-1.4,0.8C100.6,40.9,100.5,40.9,100.4,40.9z M115.3,39.5
							c-0.1,0-0.1,0-0.2,0c-0.5-0.2-1-0.4-1.6-0.6c-0.2-0.1-0.4-0.3-0.3-0.5c0.1-0.2,0.3-0.3,0.6-0.3c0.6,0.2,1.1,0.4,1.7,0.6
							c0.2,0.1,0.3,0.3,0.2,0.6C115.6,39.4,115.4,39.5,115.3,39.5z M103.4,39.3c-0.2,0-0.3-0.1-0.4-0.3c-0.1-0.2,0-0.5,0.2-0.5
							c0.6-0.2,1.1-0.4,1.7-0.6c0.2-0.1,0.5,0.1,0.6,0.3c0.1,0.2-0.1,0.5-0.3,0.5c-0.5,0.1-1.1,0.3-1.6,0.5
							C103.6,39.3,103.5,39.3,103.4,39.3z M112,38.5C111.9,38.5,111.9,38.5,112,38.5c-0.6-0.1-1.2-0.2-1.8-0.2
							c-0.3,0-0.4-0.2-0.4-0.5c0-0.2,0.2-0.4,0.5-0.4c0.6,0,1.2,0.1,1.8,0.2c0.2,0,0.4,0.3,0.4,0.5C112.4,38.4,112.2,38.5,112,38.5z
							 M106.8,38.4c-0.2,0-0.4-0.1-0.5-0.3c0-0.2,0.1-0.4,0.4-0.5c0.6-0.1,1.2-0.1,1.8-0.2c0.2,0,0.5,0.2,0.5,0.4
							c0,0.2-0.2,0.4-0.4,0.4C108,38.3,107.4,38.3,106.8,38.4C106.8,38.4,106.8,38.4,106.8,38.4z"/>
					</g>
				</g>
			</g>
		</g>
	</g>
	<g id="XMLID_8_">
		<g id="XMLID_64_">
			<g id="XMLID_67_">
				<path id="XMLID_69_" class="st1" d="M78.5,78.1c2.2-3.2,9.3-2.8,12.8-0.8c3.5,2,3.1,8.4,0.9,11.5c-2.2,3.2-9.3,2.8-12.8,0.8
					C75.8,87.6,76.3,81.2,78.5,78.1"/>
				<path id="XMLID_68_" class="st2" d="M96.6,79.1c-0.1-1.9,7.1-3.8,9.1-3.9c2.1-0.1,4.2,6.4,4.4,8.2c0.1,1.9-7.1,3.8-9.1,3.9
					C98.9,87.5,96.8,81,96.6,79.1"/>
			</g>
			<g id="XMLID_65_">
				<path id="XMLID_66_" class="st3" d="M149.9,70.8c-6.3-0.4-11-5.3-10.5-10.9c0.4-5.6,5.9-9.9,12.1-9.5c6.3,0.4,11,5.3,10.5,10.9
					C161.6,66.9,156.1,71.2,149.9,70.8"/>
			</g>
		</g>
		<g id="XMLID_9_">
			<g id="XMLID_52_">
				<g id="XMLID_61_">
					<path id="XMLID_63_" class="st4" d="M24,100.3h-7.8v-8.6c0-0.4-0.3-0.7-0.7-0.7H10c-0.4,0-0.7,0.3-0.7,0.7v8.6H4.8
						c-0.4,0-0.7,0.3-0.7,0.7v4.3c0,0.4,0.3,0.7,0.7,0.7h4.5v22.4c0,0.4,0.3,0.7,0.7,0.7h5.5c0.4,0,0.7-0.3,0.7-0.7v-22.4H24
						c0.4,0,0.7-0.3,0.7-0.7v-4.3C24.8,100.6,24.4,100.3,24,100.3z"/>
					<path id="XMLID_62_" class="st4" d="M45.1,99.7c-3.8,0-6.8,1.3-9,3.8V84.6c0-0.4-0.3-0.7-0.7-0.7h-5.5c-0.4,0-0.7,0.3-0.7,0.7
						v43.7c0,0.4,0.3,0.7,0.7,0.7h5.5c0.4,0,0.7-0.3,0.7-0.7v-11.9c0-4.3,3.1-10.4,8.8-10.4c4.8,0,5.5,3.5,5.5,5.5v16.8
						c0,0.4,0.3,0.7,0.7,0.7h5.5c0.4,0,0.7-0.3,0.7-0.7v-17.6C57.3,108.1,56.4,99.7,45.1,99.7z"/>
				</g>
				<g id="XMLID_53_">
					<path id="XMLID_60_" class="st4" d="M98,99.7c-3.8,0-6.8,1.3-9,3.8v-2.6c0-0.4-0.3-0.7-0.7-0.7h-5.5c-0.4,0-0.7,0.3-0.7,0.7
						v27.4c0,0.4,0.3,0.7,0.7,0.7h5.5c0.4,0,0.7-0.3,0.7-0.7v-11.9c0-4.3,3.1-10.4,8.8-10.4c4.8,0,5.5,3.5,5.5,5.5v16.8
						c0,0.4,0.3,0.7,0.7,0.7h5.5c0.4,0,0.7-0.3,0.7-0.7v-17.6c0-1.6-0.3-4.6-2.3-7.1C105.8,101,102.5,99.7,98,99.7z"/>
					<path id="XMLID_59_" class="st4" d="M132.9,112.5l11.4-11.1c0.2-0.2,0.2-0.5,0.1-0.7c-0.1-0.2-0.4-0.4-0.7-0.4h-7.6
						c-0.2,0-0.4,0.1-0.5,0.2l-9.5,9.7V84.6c0-0.4-0.3-0.7-0.7-0.7h-5.5c-0.4,0-0.7,0.3-0.7,0.7v43.7c0,0.4,0.3,0.7,0.7,0.7h5.5
						c0.4,0,0.7-0.3,0.7-0.7v-13.2l11.4,13.6c0.1,0.2,0.4,0.3,0.6,0.3h7.3c0.3,0,0.5-0.1,0.7-0.4c0.1-0.2,0.1-0.5-0.1-0.7
						L132.9,112.5z"/>
					<path id="XMLID_58_" class="st4" d="M155,88.6c-2.3,0-4.2,1.7-4.2,3.7c0,2.1,1.9,3.7,4.2,3.7c2.3,0,4.2-1.7,4.2-3.7
						C159.2,90.3,157.3,88.6,155,88.6z"/>
					<path id="XMLID_57_" class="st4" d="M157.7,100.3h-5.5c-0.4,0-0.7,0.3-0.7,0.7v27.4c0,0.4,0.3,0.7,0.7,0.7h5.5
						c0.4,0,0.7-0.3,0.7-0.7v-27.4C158.5,100.6,158.1,100.3,157.7,100.3z"/>
					<path id="XMLID_54_" class="st4" d="M196.2,100.3h-5.5c-0.4,0-0.7,0.3-0.7,0.7v2c-2.3-2.1-5.3-3.2-9-3.2
						c-9.1,0-16.3,6.6-16.3,14.9c0,8.4,7.1,14.9,16.3,14.9c3.7,0,6.7-1.1,9-3.2v2c0,0.4,0.3,0.7,0.7,0.7h5.5c0.4,0,0.7-0.3,0.7-0.7
						v-27.4C197,100.6,196.6,100.3,196.2,100.3z M190,110.8v7.6c-1.6,3-5,4.9-8.7,4.9c-5.4,0-9.6-3.8-9.6-8.7c0-4.9,4.2-8.7,9.6-8.7
						C185.1,106,188.4,107.8,190,110.8z"/>
				</g>
			</g>
			<g id="XMLID_10_">
				<g id="XMLID_48_">
					<path id="XMLID_51_" class="st1" d="M78.5,78.1c2.2-3.2,9.3-2.8,12.8-0.8c3.5,2,3.1,8.4,0.9,11.5c-2.2,3.2-9.3,2.8-12.8,0.8
						C75.8,87.6,76.3,81.2,78.5,78.1"/>
					<path id="XMLID_50_" class="st2" d="M96.6,79.1c-0.1-1.9,7.1-3.8,9.1-3.9c2.1-0.1,4.2,6.4,4.4,8.2c0.1,1.9-7.1,3.8-9.1,3.9
						C98.9,87.5,96.8,81,96.6,79.1"/>
					<polygon id="XMLID_49_" class="st5" points="107.8,64.6 116.2,64.2 116.7,71.7 108.3,72.2 					"/>
				</g>
				<g id="XMLID_15_">
					<path id="XMLID_47_" class="st3" d="M82.7,9.6c2.8,5,0.6,11.2-5,13.7c-5.6,2.5-12.4,0.5-15.3-4.5c-2.8-5-0.6-11.2,5-13.7
						C73,2.6,79.9,4.6,82.7,9.6"/>
					<g id="XMLID_19_">
						<g id="XMLID_20_">
							<path id="XMLID_21_" class="st0" d="M84.9,64.6c-0.2,0-0.4,0-0.6,0c-0.3,0-0.5-0.2-0.4-0.4c0-0.2,0.2-0.4,0.5-0.4
								c0.6,0,1.1,0,1.7,0c0.3,0,0.5,0.2,0.5,0.4c0,0.2-0.2,0.4-0.4,0.5C85.7,64.6,85.3,64.6,84.9,64.6z M82.6,64.5
								C82.6,64.5,82.6,64.5,82.6,64.5c-0.7-0.1-1.3-0.2-1.8-0.3c-0.2-0.1-0.4-0.3-0.3-0.5c0.1-0.2,0.3-0.4,0.6-0.3
								c0.5,0.1,1.1,0.2,1.7,0.3c0.3,0,0.4,0.2,0.4,0.5C83,64.3,82.8,64.5,82.6,64.5z M87.8,64.4c-0.2,0-0.4-0.1-0.5-0.3
								c-0.1-0.2,0.1-0.4,0.4-0.5c0.6-0.1,1.1-0.2,1.6-0.4c0.2-0.1,0.5,0,0.6,0.3c0.1,0.2,0,0.5-0.3,0.5
								C89.1,64.1,88.5,64.2,87.8,64.4C87.9,64.4,87.9,64.4,87.8,64.4z M79.3,63.6c-0.1,0-0.1,0-0.2,0c-0.6-0.2-1.1-0.4-1.6-0.7
								c-0.2-0.1-0.3-0.4-0.2-0.6c0.1-0.2,0.4-0.3,0.6-0.2c0.5,0.2,1,0.5,1.5,0.7c0.2,0.1,0.4,0.3,0.3,0.5
								C79.6,63.5,79.5,63.6,79.3,63.6z M91.1,63.3c-0.2,0-0.3-0.1-0.4-0.2c-0.1-0.2,0-0.5,0.2-0.6c0.5-0.2,1-0.5,1.4-0.8
								c0.2-0.1,0.5-0.1,0.6,0.1c0.1,0.2,0.1,0.4-0.1,0.6c-0.5,0.3-1,0.6-1.5,0.8C91.2,63.3,91.2,63.3,91.1,63.3z M76.2,62.1
								c-0.1,0-0.2,0-0.3-0.1c-0.5-0.3-1-0.7-1.4-1c-0.2-0.2-0.2-0.4,0-0.6c0.2-0.2,0.5-0.2,0.7,0c0.4,0.3,0.9,0.7,1.3,1
								c0.2,0.1,0.3,0.4,0.1,0.6C76.5,62.1,76.4,62.1,76.2,62.1z M94,61.5c-0.1,0-0.2,0-0.3-0.1c-0.2-0.2-0.2-0.4,0-0.6
								c0.4-0.3,0.8-0.7,1.1-1.1c0.2-0.2,0.5-0.2,0.7-0.1c0.2,0.1,0.2,0.4,0.1,0.6c-0.4,0.4-0.8,0.8-1.2,1.2
								C94.2,61.5,94.1,61.5,94,61.5z M73.7,60c-0.1,0-0.3-0.1-0.4-0.1c-0.4-0.4-0.7-0.8-1.1-1.3c-0.1-0.2-0.1-0.5,0.1-0.6
								c0.2-0.1,0.5-0.1,0.6,0.1c0.3,0.4,0.6,0.8,1,1.2c0.2,0.2,0.1,0.4-0.1,0.6C73.9,60,73.8,60,73.7,60z M96.2,59.1
								c-0.1,0-0.2,0-0.2-0.1c-0.2-0.1-0.3-0.4-0.1-0.6c0.3-0.4,0.5-0.8,0.7-1.2c0.1-0.2,0.4-0.3,0.6-0.2c0.2,0.1,0.3,0.3,0.2,0.6
								c-0.2,0.4-0.5,0.8-0.7,1.2C96.5,59,96.3,59.1,96.2,59.1z M71.8,57.4c-0.2,0-0.3-0.1-0.4-0.2c-0.3-0.5-0.5-1-0.7-1.5
								c-0.1-0.2,0-0.5,0.3-0.5c0.2-0.1,0.5,0,0.6,0.3c0.2,0.5,0.4,1,0.6,1.4c0.1,0.2,0,0.5-0.2,0.6C71.9,57.4,71.8,57.4,71.8,57.4z
								 M70.6,54.4c-0.2,0-0.4-0.1-0.5-0.3c-0.1-0.5-0.2-1.1-0.3-1.6c0-0.2,0.2-0.4,0.4-0.5c0.3,0,0.5,0.1,0.5,0.4
								c0.1,0.5,0.1,1,0.3,1.5C71.1,54.1,71,54.4,70.6,54.4C70.7,54.4,70.7,54.4,70.6,54.4z M70.3,51.3c-0.3,0-0.5-0.2-0.5-0.4
								c0-0.5,0-1.1,0.1-1.6c0-0.2,0.2-0.4,0.5-0.4c0.3,0,0.4,0.2,0.4,0.5c-0.1,0.5-0.1,1-0.1,1.5C70.7,51.1,70.5,51.3,70.3,51.3z
								 M70.6,48.2C70.6,48.2,70.5,48.2,70.6,48.2c-0.3,0-0.5-0.3-0.5-0.5c0.1-0.5,0.2-1,0.4-1.6c0.1-0.2,0.3-0.4,0.6-0.3
								c0.2,0.1,0.4,0.3,0.3,0.5c-0.1,0.5-0.3,1-0.4,1.5C71,48,70.8,48.2,70.6,48.2z M71.4,45.1c0,0-0.1,0-0.1,0
								c-0.2-0.1-0.4-0.3-0.3-0.5c0.2-0.5,0.4-1,0.6-1.5c0.1-0.2,0.4-0.3,0.6-0.2c0.2,0.1,0.4,0.3,0.3,0.5c-0.2,0.5-0.4,1-0.6,1.5
								C71.8,45,71.6,45.1,71.4,45.1z M72.7,42.2c-0.1,0-0.1,0-0.2,0c-0.2-0.1-0.3-0.3-0.2-0.6c0.2-0.5,0.5-0.9,0.8-1.4
								c0.1-0.2,0.4-0.3,0.6-0.2c0.2,0.1,0.3,0.4,0.2,0.6c-0.3,0.5-0.5,0.9-0.8,1.4C73.1,42.1,72.9,42.2,72.7,42.2z M74.3,39.4
								c-0.1,0-0.2,0-0.2-0.1c-0.2-0.1-0.3-0.4-0.2-0.6c0.3-0.4,0.6-0.9,0.9-1.4c0.1-0.2,0.4-0.3,0.6-0.1c0.2,0.1,0.3,0.4,0.1,0.6
								c-0.3,0.4-0.6,0.9-0.9,1.3C74.6,39.4,74.5,39.4,74.3,39.4z M76.2,36.8c-0.1,0-0.2,0-0.3-0.1c-0.2-0.1-0.3-0.4-0.1-0.6
								c0.3-0.4,0.7-0.9,1-1.3c0.2-0.2,0.4-0.2,0.6-0.1c0.2,0.1,0.3,0.4,0.1,0.6c-0.3,0.4-0.7,0.9-1,1.3
								C76.5,36.7,76.3,36.8,76.2,36.8z M78.2,34.2c-0.1,0-0.2,0-0.3-0.1c-0.2-0.1-0.3-0.4-0.1-0.6c0.3-0.4,0.7-0.9,0.9-1.3
								c0.1-0.2,0.4-0.3,0.6-0.1c0.2,0.1,0.3,0.4,0.2,0.6c-0.3,0.4-0.6,0.9-1,1.3C78.5,34.2,78.4,34.2,78.2,34.2z M80,31.6
								c-0.1,0-0.1,0-0.2,0c-0.2-0.1-0.3-0.4-0.2-0.6c0.3-0.5,0.5-0.9,0.7-1.4c0.1-0.2,0.4-0.3,0.6-0.2c0.2,0.1,0.4,0.3,0.3,0.5
								c-0.2,0.5-0.5,1-0.7,1.5C80.4,31.5,80.2,31.6,80,31.6z M81.3,28.6c0,0-0.1,0-0.1,0c-0.2-0.1-0.4-0.3-0.3-0.5
								c0.2-0.5,0.3-1,0.4-1.5c0-0.2,0.3-0.4,0.5-0.4c0.3,0,0.4,0.2,0.4,0.5c-0.1,0.5-0.2,1.1-0.4,1.6
								C81.7,28.5,81.5,28.6,81.3,28.6z M81.8,25.5c-0.3,0-0.5-0.2-0.5-0.4c0-0.5-0.1-1-0.1-1.5c0-0.2,0.1-0.4,0.4-0.5
								c0.3,0,0.5,0.1,0.5,0.3c0.1,0.5,0.2,1.1,0.2,1.6C82.3,25.4,82.1,25.5,81.8,25.5C81.8,25.5,81.8,25.5,81.8,25.5z M81.2,22.5
								c-0.2,0-0.4-0.1-0.4-0.3c-0.2-0.5-0.4-0.9-0.7-1.4c-0.1-0.2,0-0.5,0.2-0.6c0.2-0.1,0.5,0,0.6,0.2c0.3,0.5,0.5,1,0.7,1.5
								c0.1,0.2,0,0.5-0.3,0.5C81.3,22.5,81.3,22.5,81.2,22.5z M79.6,19.7c-0.1,0-0.3-0.1-0.4-0.2c-0.3-0.4-0.7-0.8-1.1-1.2
								c-0.2-0.2-0.2-0.4,0-0.6c0.2-0.2,0.5-0.2,0.7,0c0.4,0.4,0.8,0.8,1.2,1.2c0.2,0.2,0.1,0.4-0.1,0.6
								C79.8,19.7,79.7,19.7,79.6,19.7z M77.2,17.4c-0.1,0-0.2,0-0.3-0.1c-0.4-0.3-0.9-0.6-1.4-0.9c-0.2-0.1-0.3-0.4-0.1-0.6
								c0.1-0.2,0.4-0.2,0.6-0.1c0.5,0.3,1,0.6,1.4,1c0.2,0.1,0.2,0.4,0.1,0.6C77.4,17.4,77.3,17.4,77.2,17.4z M74.3,15.7
								c-0.1,0-0.2,0-0.2-0.1c-0.9-0.5-1.5-0.7-1.5-0.7c-0.2-0.1-0.4-0.3-0.3-0.5c0.1-0.2,0.4-0.3,0.6-0.2c0,0,0.7,0.2,1.6,0.7
								c0.2,0.1,0.3,0.4,0.2,0.6C74.6,15.6,74.5,15.7,74.3,15.7z"/>
						</g>
					</g>
					<path id="XMLID_18_" class="st1" d="M86.6,32c1.9,3.4-2.1,8.6-5.9,10.3C77,44,71.2,40.4,69.3,37c-1.9-3.4,2.1-8.6,5.9-10.3
						C78.9,25.1,84.7,28.7,86.6,32"/>
					<path id="XMLID_17_" class="st2" d="M76.2,45.5c1.9,0.9,0,7.4-1,9.1c-1,1.7-8.2,0-10.1-0.9c-1.9-0.9,0-7.4,1-9.1
						C67.1,42.9,74.4,44.6,76.2,45.5"/>
					<polygon id="XMLID_16_" class="st5" points="84.2,61.6 80.3,68.3 72.9,64.8 76.7,58.1 					"/>
				</g>
				<g id="XMLID_11_">
					<path id="XMLID_14_" class="st1" d="M126.5,62.3c-4.2-0.3-7.1-6.1-6.8-9.8c0.3-3.8,6.7-6.4,10.9-6.1c4.2,0.3,7.1,6.1,6.8,9.8
						C137.1,59.9,130.7,62.5,126.5,62.3"/>
					<path id="XMLID_13_" class="st2" d="M119,47.3c-1.8,1-7.1-3.8-8.2-5.4c-1.1-1.6,4.2-6.4,6-7.4c1.8-1,7.1,3.8,8.2,5.4
						C126.2,41.6,120.8,46.4,119,47.3"/>
					<polygon id="XMLID_12_" class="st5" points="99.6,45.3 95.2,38.8 102.3,34.8 106.8,41.3 					"/>
				</g>
			</g>
		</g>
	</g>
	<path id="XMLID_7_" class="st6" d="M69.6,100.2c-0.5,0-1,0.2-1.6,0.5l-0.1,0c-0.4,0.1-0.6,0.4-0.8,0.7c-0.1,0.3-0.3,1.1-0.4,2.9
		c0,0.7,0,1.7,0,2.9c0,1.2,0,2.6,0,4.2l0,0.2c0,3.8,0.1,10.9,0.1,12.6c0.1,2.2,0.3,2.9,0.4,3.1c0.6,1.2,1.4,1.9,2.3,2.1l0.1,0
		c0.2,0,0.3,0.1,0.4,0.1c0.8,0,1.5-0.4,2.2-1.2c0.2-0.2,0.3-0.4,0.3-0.6c0-0.1,0-0.1,0-0.3c0-0.2,0-0.5-0.1-0.8l0-0.1
		c0-0.4-0.1-1.6-0.1-3.7c0-1.1-0.1-3.5-0.1-5.8c0-2.1-0.1-4.1-0.1-5.2c0-0.5,0-1,0-1.5L72,104c0-1.5-0.5-2.6-1.2-3.3
		C70.4,100.4,70,100.2,69.6,100.2z"/>
	<path id="XMLID_6_" class="st6" d="M70,89c-0.9,0.2-1.8,0.8-2.5,1.8c-0.7,0.8-1,1.6-1,2.4c0,0.1,0,0.2,0,0.3c0.1,0.4,0.2,0.7,0.4,1
		c0.2,0.3,0.5,0.5,0.9,0.8c0.4,0.2,0.8,0.3,1.2,0.3c0.2,0,0.5,0,1.4-0.3c0.3-0.1,1-0.4,1.9-1.7c0.5-0.7,0.7-1.4,0.7-2
		c0-0.4-0.1-0.9-0.3-1.3c-0.2-0.4-0.6-0.7-1.1-1C70.9,89,70.3,88.9,70,89z"/>
	<path id="XMLID_5_" class="st7" d="M100.8,53c2.4,1.9,2.7,5.1,0.6,7.3c-2.1,2.2-5.7,2.4-8.1,0.6c-2.4-1.9-2.7-5.1-0.6-7.3
		C94.7,51.4,98.4,51.2,100.8,53"/>
</g>
</svg>
