<?xml version="1.0" encoding="utf-8"?>
<!-- Generator: Adobe Illustrator 19.0.0, SVG Export Plug-In . SVG Version: 6.00 Build 0)  -->
<svg version="1.1" id="Layer_1" xmlns="http://www.w3.org/2000/svg" xmlns:xlink="http://www.w3.org/1999/xlink" x="0px" y="0px"
	 viewBox="0 0 201.3 166.6" style="enable-background:new 0 0 201.3 166.6;" xml:space="preserve">
<style type="text/css">
	.st0{fill:#FFFFFF;}
	.st1{fill-rule:evenodd;clip-rule:evenodd;fill:#FFFFFF;}
</style>
<path id="XMLID_183_" class="st0" d="M38,160.5c0,0,0-0.1-0.1-0.3c-0.4-0.8-0.6-2.2-0.7-4.2c0-0.8-0.1-1.7-0.1-2.6
	c0-1.4,0-3,0.1-4.7c0-0.7,0.1-1.3,0.1-1.8c0-0.2,0-0.3,0-0.5c0-0.2,0-0.4,0-0.5c0-0.1-0.1-0.2-0.1-0.3c-0.1-0.1-0.1-0.1-0.3-0.2
	c-0.2-0.1-0.3-0.1-0.5-0.1c0,0-0.1,0-0.3,0.1c-0.1,0-0.2,0.1-0.3,0.3c-0.1,0.2-0.2,0.8-0.3,2.6c-0.1,1.5-0.1,3-0.1,4.7v1
	c0,1.2,0,2.2,0.1,2.9c0.1,1.6,0.3,2.8,0.6,3.5c0.2,0.6,0.5,1,0.9,1.1c0.1,0,0.2,0,0.3,0c0.2,0,0.5-0.1,0.8-0.5
	c0-0.1,0.1-0.2,0.1-0.2l0,0C38.1,160.6,38.1,160.5,38,160.5z"/>
<path id="XMLID_155_" class="st0" d="M47.6,158c-0.1-0.4-0.2-1-0.2-1.8c0-0.6-0.1-1-0.1-1.3c0-0.3-0.1-0.5-0.1-0.7
	c0-0.1-0.1-0.3-0.1-0.4c-0.2-0.4-0.5-0.6-1-0.6c-0.1,0-0.3,0-0.4,0c-0.2,0-0.3-0.1-0.4-0.1c-0.3-0.2-0.7-0.3-1.2-0.3H44
	c-0.5,0-1.1,0.2-1.6,0.6c-0.6,0.4-1.1,1-1.5,1.7c-0.5,0.7-0.8,1.6-1.1,2.5c-0.1,0.5-0.2,0.9-0.2,1.4v0.2c0,0.3,0.1,0.6,0.3,0.9
	c0.2,0.3,0.4,0.4,0.7,0.5c0.3,0.1,0.6,0.1,1-0.1c0.8-0.3,1.8-1.4,3-3.1l0.9-1.3l0.1,0.9c0,0.1,0,0.2,0.1,0.4c0,0.2,0.1,0.4,0.1,0.6
	c0.1,0.5,0.2,0.9,0.4,1.3c0.1,0.4,0.3,0.7,0.4,0.8c0.2,0.2,0.4,0.3,0.7,0.3c0,0,0.1,0,0.4,0c0.1,0,0.2-0.1,0.5-0.5
	c0.1-0.1,0.1-0.3,0.1-0.4c0-0.2-0.1-0.4-0.3-0.5C47.8,158.8,47.7,158.5,47.6,158z M43.9,155.6c-0.3,0.5-0.7,1-1.2,1.7
	c-0.2,0.3-0.4,0.5-0.5,0.7c-0.3,0.3-0.3,0.4-0.4,0.4c-0.1,0-0.3-0.1-0.3-0.3c0-0.1,0-0.1,0.1-0.4c0-0.1,0.1-0.4,0.2-0.6
	c0.1-0.3,0.2-0.6,0.4-0.8c0.1-0.3,0.3-0.5,0.4-0.6c0.2-0.3,0.5-0.6,0.7-0.8c0.3-0.3,0.5-0.4,0.8-0.4h0c0.1,0,0.2,0,0.2,0
	c0.2,0.1,0.2,0.2,0.2,0.3C44.4,154.7,44.4,154.8,43.9,155.6z"/>
<path id="XMLID_152_" class="st0" d="M55.8,151.8L55.8,151.8c-0.7,0-1.3,0.3-2,0.8c-0.5,0.4-0.9,0.8-1.2,1.2l-0.9,1.1l-0.1-1.6
	c0-0.3,0-0.6-0.1-1.1c0-0.5,0-0.9,0-1.4c0-0.4,0-0.8,0-1c0-0.3,0-0.4-0.1-0.5c0-0.1-0.1-0.2-0.1-0.2c-0.1-0.2-0.3-0.3-0.5-0.3
	c-0.1,0-0.2,0-0.3,0c-0.1,0-0.2,0-0.3,0.1c-0.1,0-0.3,0.1-0.4,0.3c0,0-0.1,0.1-0.1,0.2c0,0.1,0,0.2,0,0.5v1c0,0.8,0.1,1.9,0.2,3.4
	c0.1,1.5,0.2,2.9,0.3,4.2c0.1,1.3,0.2,2.2,0.3,2.6c0,0.1,0.1,0.2,0.3,0.4c0.3,0.2,0.6,0.3,1,0.1c0.1-0.1,0.2-0.1,0.4-0.1
	c0.1,0,0.3-0.1,0.4-0.1c0.4,0,0.9-0.2,1.5-0.5c0.7-0.3,1.2-0.7,1.8-1.2c1.4-1.3,2.1-2.8,2.1-4.7v-0.3c0-0.8-0.3-1.5-0.7-2.1
	C56.9,152,56.4,151.8,55.8,151.8z M55.8,156.1c-0.3,1.1-1,2-2,2.7c-0.3,0.2-0.6,0.4-0.9,0.5c-0.2,0.1-0.3,0.1-0.4,0.1
	c0,0-0.1,0-0.1,0v-0.1c0-0.1,0-0.2,0.1-0.5c0-0.2,0.1-0.5,0.2-0.9c0.1-0.4,0.2-0.7,0.3-0.9c0.5-1.3,1.2-2.3,2-3
	c0.1-0.1,0.3-0.2,0.4-0.3c0.1-0.1,0.2-0.1,0.2-0.1h0c0.1,0,0.2,0.2,0.3,0.5c0.1,0.3,0.1,0.6,0.1,1C55.9,155.4,55.9,155.7,55.8,156.1
	z"/>
<path id="XMLID_149_" class="st0" d="M72,157.8c-0.1-1.8-0.1-3.8-0.1-5.7c0-0.5,0-1.1,0-1.6c0-0.7,0-1.3,0-1.8c0-0.2,0-0.5,0-0.8
	c0-0.4,0-0.5-0.1-0.5c-0.1-0.2-0.2-0.3-0.4-0.4c-0.1-0.1-0.3-0.1-0.4-0.1c-0.1,0-0.2,0-0.4,0.1c-0.1,0-0.2,0.1-0.3,0.3
	c0,0.1-0.1,0.2-0.1,0.3c0,0.1-0.1,0.3-0.1,0.4c-0.1,0.3-0.2,0.8-0.4,1.4c-0.2,0.6-0.3,1.2-0.5,1.9c-0.2,0.6-0.3,1.1-0.5,1.4
	c0,0.1-0.1,0.2-0.4,0.2c-0.1,0-0.3,0-0.5-0.1c-0.2-0.1-0.5-0.1-0.8-0.1c-0.1,0-0.2,0-0.5,0c-0.2,0-0.5,0.1-0.8,0.2
	c-0.6,0.3-1.2,0.8-1.6,1.5c-0.5,0.8-0.8,1.7-0.9,2.7c0,0.3-0.1,0.5-0.1,0.7c0,0.5,0.1,1,0.3,1.5c0.2,0.5,0.5,0.8,0.9,1
	c0.4,0.2,0.9,0.3,1.4,0.1c1-0.3,2.2-1.8,3.3-4.4l0.9-1.9l0.1,2.8c0.1,1.5,0.1,2.9,0.3,4c0.1,1.4,0.2,1.8,0.3,2
	c0,0.1,0.1,0.1,0.1,0.2c0.1,0.1,0.1,0.1,0.2,0.1c0.1,0.1,0.3,0.1,0.5,0.1c0.2,0,0.3,0,0.3,0c0,0,0.1-0.1,0.2-0.2
	c0.2-0.2,0.3-0.4,0.3-0.7c0-0.1,0-0.2-0.1-0.3C72.2,161.6,72.1,160.2,72,157.8z M67.6,155.6c-0.1,0.3-0.3,0.7-0.5,1.1
	c-0.2,0.4-0.4,0.8-0.6,1.1c-0.1,0.2-0.2,0.3-0.3,0.5c-0.1,0.2-0.2,0.3-0.3,0.4l-0.6,0.6l-0.2-0.8c0-0.2,0-0.3,0-0.5
	c0-0.3,0.1-0.7,0.2-1.2c0.1-0.5,0.3-0.9,0.5-1.4c0.3-0.5,0.5-0.8,0.8-1c0.2-0.1,0.4-0.1,0.5-0.1c0.1,0,0.1,0,0.3,0
	c0.1,0,0.3,0.1,0.4,0.4l0,0.1C67.9,154.9,67.8,155.1,67.6,155.6z"/>
<path id="XMLID_146_" class="st0" d="M79.3,152.3c-0.2-0.1-0.4-0.1-0.6-0.1c-0.5,0-1,0.1-1.6,0.4c-1,0.4-1.7,1.1-2.2,1.8
	c-0.5,0.8-0.8,1.7-0.8,2.7c0,0.9,0.2,1.6,0.7,2.2c0.5,0.6,1.1,1.1,1.8,1.4c0.7,0.3,1.6,0.3,2.5,0.2c0.3-0.1,0.5-0.2,0.6-0.5
	c0-0.1,0.1-0.2,0.1-0.3c0-0.1-0.1-0.3-0.2-0.5c-0.1-0.1-0.3-0.2-0.6-0.3c-0.1,0-0.3,0-0.6,0c-0.4,0-0.7,0-0.9,0
	c-0.2,0-0.3-0.1-0.5-0.2c-0.1-0.1-0.2-0.1-0.3-0.2c-0.1-0.1-0.2-0.1-0.2-0.3l0-0.1c0-0.1,0.1-0.2,0.2-0.3c0.1,0,0.2-0.1,0.3-0.1
	c0.3-0.1,0.7-0.3,1.1-0.6c0.4-0.3,0.9-0.6,1.2-1c0.5-0.5,0.9-1,1.1-1.5c0.2-0.4,0.3-0.8,0.3-1.2c0-0.3-0.1-0.6-0.2-1
	C80.3,152.7,79.9,152.4,79.3,152.3z M78.9,154.3c0,0.1-0.1,0.2-0.1,0.3c-0.1,0.3-0.4,0.6-0.8,1c-0.4,0.4-0.8,0.7-1.2,0.9
	c-0.1,0.1-0.3,0.1-0.4,0.2c-0.2,0.1-0.3,0.1-0.3,0.1l0,0c0,0-0.3-0.1-0.3-0.4c0-0.1,0-0.1,0.1-0.4c0.1-0.2,0.2-0.4,0.4-0.7
	c0.2-0.3,0.4-0.6,0.6-0.8c0.2-0.2,0.5-0.4,0.8-0.5c0.3-0.2,0.5-0.3,0.7-0.3c0.1,0,0.2,0,0.2,0c0.3,0,0.4,0.2,0.4,0.3
	C78.9,154.1,78.9,154.2,78.9,154.3z"/>
<path id="XMLID_145_" class="st0" d="M88,158.8c0-0.6,0-1.2-0.1-1.8c0-0.1,0-0.3,0-0.4l-0.1-1.7c0-0.4-0.1-0.7-0.4-0.9
	c-0.1-0.1-0.2-0.1-0.4-0.1c-0.1,0-0.3,0-0.5,0.1c-0.1,0-0.2,0.1-0.3,0.2c0,0.1-0.1,0.3-0.1,0.8c0,0.2,0,0.5,0,0.8c0,0.3,0,0.7,0,1.2
	c0,1.1,0,1.8,0,2.3c0,0.6,0.1,0.8,0.1,0.9c0.2,0.3,0.4,0.5,0.7,0.6c0.1,0,0.1,0,0.2,0c0.2,0,0.5-0.1,0.7-0.4
	c0.1-0.1,0.1-0.1,0.1-0.2c0,0,0,0,0-0.1c0-0.1,0-0.1,0-0.2C88,159.7,88,159.3,88,158.8z"/>
<path id="XMLID_144_" class="st0" d="M87.7,149.1c-0.1-0.1-0.3-0.1-0.4-0.1c0,0-0.1,0-0.1,0c-0.3,0.1-0.5,0.2-0.8,0.5
	c-0.2,0.2-0.3,0.5-0.3,0.7c0,0,0,0,0,0.1c0,0.1,0.1,0.2,0.1,0.3c0.1,0.1,0.2,0.2,0.3,0.2c0.1,0.1,0.2,0.1,0.4,0.1c0,0,0.2,0,0.4-0.1
	c0.1,0,0.3-0.1,0.6-0.5c0.1-0.2,0.2-0.4,0.2-0.5c0-0.1,0-0.2-0.1-0.4C88,149.2,87.9,149.1,87.7,149.1z"/>
<path id="XMLID_143_" class="st0" d="M98.7,157.8c-0.7-0.1-1.4-0.8-2-2.1c-0.2-0.4-0.4-0.8-0.5-1c-0.1-0.2-0.3-0.4-0.5-0.5
	c-0.6-0.4-1.2-0.4-1.8,0c-0.2,0.1-0.4,0.4-0.7,0.7c-0.3,0.4-0.5,0.7-0.7,1.1c-0.1,0.1-0.1,0.2-0.2,0.3c0,0.1-0.1,0.2-0.3,0.2h-0.3
	v-0.4c0-0.1,0-0.3,0-0.5c0-0.3,0-0.6,0.1-1.1c0-0.5,0-0.9,0-1.3v-0.4c0-0.2,0-0.3-0.1-0.5c-0.1-0.1-0.1-0.2-0.3-0.3
	c-0.2-0.1-0.3-0.2-0.5-0.2c-0.2,0-0.4,0.1-0.5,0.2c-0.1,0.1-0.2,0.1-0.2,0.2c0,0.1-0.1,0.2-0.1,0.5c0,0.3-0.1,0.7-0.1,1.2
	c0,0.5,0,1.2,0,2.1c0,1.1,0,1.9,0,2.5c0,0.5,0.1,0.9,0.1,1.2c0.1,0.2,0.1,0.4,0.2,0.5c0.1,0.1,0.1,0.1,0.2,0.2
	c0.1,0.1,0.2,0.1,0.2,0.2c0.1,0.1,0.3,0.1,0.4,0.1c0,0,0.1,0,0.4-0.1c0.1,0,0.3-0.1,0.5-0.4c0-0.1,0.2-0.2,0.3-0.5
	c0.1-0.3,0.3-0.5,0.5-0.8c0.3-0.7,0.7-1.2,0.9-1.8c0.4-0.7,0.5-0.9,0.6-1c0.1-0.1,0.1-0.1,0.2-0.1c0.2,0,0.3,0.1,0.4,0.3
	c0.1,0.1,0.2,0.4,0.4,0.7c0.2,0.3,0.4,0.6,0.5,0.8c0.2,0.2,0.4,0.4,0.6,0.6c0.7,0.6,1.2,1,1.7,1c0.1,0,0.3,0,0.4-0.1
	c0.4-0.2,0.6-0.4,0.6-0.8c0-0.2-0.1-0.3-0.2-0.4C99.1,157.9,98.9,157.8,98.7,157.8z"/>
<path id="XMLID_142_" class="st0" d="M109.9,157.8c-0.7-0.1-1.4-0.8-2-2.1c-0.2-0.4-0.4-0.8-0.5-1c-0.1-0.2-0.3-0.4-0.5-0.5
	c-0.6-0.4-1.2-0.4-1.8,0c-0.2,0.1-0.4,0.4-0.7,0.7c-0.3,0.4-0.5,0.7-0.7,1.1c-0.1,0.1-0.1,0.2-0.2,0.3c0,0.1-0.1,0.2-0.3,0.2h-0.3
	v-0.4c0-0.1,0-0.3,0-0.5c0-0.3,0-0.6,0.1-1.1c0-0.5,0-0.9,0-1.3v-0.4c0-0.2,0-0.3-0.1-0.5c-0.1-0.1-0.1-0.2-0.3-0.3
	c-0.2-0.1-0.3-0.2-0.5-0.2c-0.2,0-0.4,0.1-0.5,0.2c-0.1,0.1-0.2,0.1-0.2,0.2c0,0.1-0.1,0.2-0.1,0.5c0,0.3-0.1,0.7-0.1,1.2
	c0,0.5,0,1.2,0,2.1c0,1.1,0,1.9,0,2.5c0,0.5,0.1,0.9,0.1,1.2c0.1,0.2,0.1,0.4,0.2,0.5c0.1,0.1,0.1,0.1,0.2,0.2
	c0.1,0.1,0.2,0.1,0.2,0.2c0.1,0.1,0.3,0.1,0.4,0.1c0,0,0.1,0,0.4-0.1c0.1,0,0.3-0.1,0.5-0.4c0-0.1,0.2-0.2,0.3-0.5
	c0.1-0.3,0.3-0.5,0.5-0.8c0.3-0.7,0.7-1.2,0.9-1.8c0.4-0.7,0.5-0.9,0.6-1c0.1-0.1,0.1-0.1,0.2-0.1c0.2,0,0.3,0.1,0.4,0.3
	c0.1,0.1,0.2,0.3,0.4,0.7c0.2,0.3,0.4,0.6,0.5,0.8c0.2,0.2,0.4,0.4,0.6,0.6c0.7,0.6,1.2,1,1.7,1c0.1,0,0.3,0,0.4-0.1
	c0.4-0.2,0.6-0.4,0.6-0.8c0-0.2-0.1-0.3-0.2-0.4C110.2,157.9,110.1,157.8,109.9,157.8z"/>
<path id="XMLID_139_" class="st0" d="M116.3,152.7c-0.3-0.2-0.6-0.3-0.9-0.3c-0.2,0-0.3,0-0.5,0.1c-0.1,0-0.2,0.1-0.3,0.1
	c-0.1,0-0.2,0-0.3,0c-0.1,0-0.2,0-0.5,0.2c-0.2,0.1-0.4,0.3-0.6,0.5c-0.4,0.4-0.7,1-0.9,1.7c-0.1,0.4-0.2,0.9-0.2,1.5v0.1
	c0,0.5,0.1,1,0.2,1.4c0.2,0.7,0.6,1.3,1,1.8c0.4,0.4,0.9,0.7,1.5,0.8c0.7,0.1,1.3-0.1,1.8-0.5c0.5-0.3,0.9-0.9,1.2-1.5
	c0.3-0.7,0.5-1.4,0.5-2.2c0-0.8-0.2-1.6-0.6-2.3C117.3,153.5,116.8,153,116.3,152.7z M116.4,156.9c-0.1,0.8-0.3,1.4-0.7,1.9
	c-0.1,0.1-0.2,0.2-0.3,0.3c-0.1,0.1-0.2,0.1-0.4,0.1c-0.3,0-0.6-0.2-0.8-0.6c-0.2-0.3-0.3-0.8-0.4-1.3c0-0.2-0.1-0.4-0.1-0.7
	c0-0.3,0.1-0.7,0.2-1.2c0.1-0.5,0.4-0.9,0.7-1.2c0.1-0.1,0.2-0.2,0.4-0.2c0.1,0,0.3,0,0.5,0.1c0.3,0.2,0.6,0.5,0.8,1.1
	c0.1,0.4,0.2,0.9,0.2,1.4C116.5,156.7,116.5,156.8,116.4,156.9z"/>
<path id="XMLID_138_" class="st0" d="M128.3,151.7C128.3,151.7,128.3,151.7,128.3,151.7c-0.1-0.3-0.2-0.4-0.4-0.5
	c-0.1-0.1-0.3-0.1-0.4-0.1c-0.4,0-0.7,0.2-0.9,0.5c-0.3,0.6-1.1,2.4-2.4,5.3c-0.3,0.6-0.5,1.1-0.7,1.6c-0.3,0.7-0.3,0.8-0.5,0.8
	c-0.2,0-0.3-0.2-0.5-0.7c-0.1-0.4-0.3-0.9-0.5-1.4c-0.2-0.7-0.3-1.4-0.4-2.1c0-0.5-0.1-0.9-0.2-1.1c-0.1-0.2-0.2-0.4-0.4-0.5
	c-0.2-0.1-0.3-0.2-0.5-0.2c0,0-0.1,0-0.4,0.1c-0.1,0-0.2,0.1-0.4,0.4c0,0.1-0.1,0.2-0.1,0.5c0,0.1,0,0.2,0,0.4
	c0,0.1,0.1,0.5,0.2,1.4c0.5,2.5,1.2,4.2,2.1,5.1c0.3,0.2,0.6,0.4,0.9,0.4l0.1,0c0.3,0,0.5-0.1,0.8-0.2c0.3-0.2,0.5-0.4,0.6-0.7
	c0.3-0.5,0.8-1.6,1.5-3.4c0.3-0.8,0.7-1.6,1-2.3c0.3-0.7,0.5-1.2,0.7-1.5c0.2-0.4,0.3-0.7,0.4-0.9c0.1-0.2,0.2-0.4,0.2-0.5
	C128.3,151.9,128.3,151.8,128.3,151.7L128.3,151.7z"/>
<path id="XMLID_135_" class="st0" d="M135.9,158c-0.1-0.4-0.2-1-0.2-1.8c0-0.6-0.1-1-0.1-1.3c0-0.3-0.1-0.5-0.1-0.7
	c0-0.1-0.1-0.3-0.1-0.4c-0.2-0.4-0.5-0.6-1-0.6c-0.1,0-0.3,0-0.4,0c-0.2,0-0.3-0.1-0.4-0.2c-0.3-0.2-0.7-0.3-1.2-0.3h-0.1
	c-0.5,0-1.1,0.2-1.6,0.6c-0.6,0.4-1.1,1-1.5,1.7c-0.5,0.7-0.8,1.6-1.1,2.5c-0.1,0.5-0.2,0.9-0.2,1.4v0.2c0,0.3,0.1,0.6,0.3,0.9
	c0.2,0.3,0.4,0.4,0.7,0.5c0.3,0.1,0.6,0.1,1-0.1c0.8-0.3,1.8-1.4,3-3.1l0.9-1.3l0.1,0.9c0,0.1,0,0.2,0.1,0.4c0,0.2,0.1,0.4,0.1,0.6
	c0.1,0.5,0.2,0.9,0.4,1.3c0.1,0.4,0.3,0.7,0.4,0.8c0.2,0.2,0.4,0.3,0.7,0.3c0,0,0.1,0,0.4,0c0.1,0,0.2-0.1,0.5-0.5
	c0.1-0.1,0.1-0.3,0.1-0.4c0-0.2-0.1-0.4-0.3-0.5C136.2,158.8,136,158.5,135.9,158z M132.3,155.6c-0.3,0.5-0.7,1-1.2,1.7
	c-0.2,0.3-0.4,0.5-0.5,0.7c-0.3,0.3-0.3,0.4-0.4,0.4c-0.1,0-0.3-0.1-0.3-0.3c0-0.1,0-0.1,0.1-0.4c0-0.1,0.1-0.4,0.2-0.6
	c0.1-0.3,0.2-0.6,0.4-0.8c0.1-0.3,0.3-0.5,0.4-0.6c0.2-0.3,0.5-0.6,0.7-0.8c0.3-0.3,0.5-0.4,0.8-0.4h0c0.1,0,0.2,0,0.2,0
	c0.2,0.1,0.2,0.2,0.2,0.3C132.8,154.7,132.8,154.8,132.3,155.6z"/>
<path id="XMLID_134_" class="st0" d="M142.7,154c0,0.2,0,0.4,0,0.6v0.3c0,0.6,0.1,0.9,0.1,1.1c0.1,0.1,0.2,0.2,0.3,0.3
	c0.2,0.1,0.3,0.1,0.4,0.1c0.1,0,0.2,0,0.4-0.1c0.2-0.1,0.3-0.2,0.4-0.4c0.1-0.2,0.1-0.6,0.1-1.2c0-0.3,0-0.7-0.1-1
	c-0.1-0.3-0.2-0.6-0.3-0.9c-0.3-0.5-0.6-0.8-1.1-0.9c-0.2-0.1-0.5-0.1-0.8-0.1c-0.2,0-0.5,0-0.9,0.1c-0.4,0.1-0.8,0.3-1.2,0.6
	c-0.4,0.3-0.8,0.7-1,1.2c-0.4,0.8-0.7,1.7-0.9,2.7c-0.1,0.4-0.1,0.7-0.1,1.1c0,0.6,0.1,1.1,0.2,1.6c0.1,0.5,0.4,1,0.8,1.4
	c0.3,0.4,0.8,0.7,1.3,0.9c0.5,0.2,1,0.2,1.6,0c0.5-0.2,1-0.4,1.5-0.8c0.5-0.4,0.8-0.7,0.8-1c0,0,0-0.1,0-0.1c0-0.3-0.2-0.5-0.5-0.7
	c-0.3-0.2-0.7-0.1-1.1,0.3c-0.3,0.3-0.6,0.5-0.9,0.7c-0.4,0.2-0.7,0.2-1,0.1c-0.4-0.2-0.7-0.6-0.8-1.2c-0.1-0.4-0.1-0.7-0.1-1.1
	c0-0.2,0-0.4,0-0.8c0-0.4,0.1-0.7,0.2-1c0.5-1.5,1.1-2.3,1.9-2.3c0.2,0,0.4,0.1,0.5,0.2C142.6,153.5,142.7,153.7,142.7,154z"/>
<path id="XMLID_133_" class="st0" d="M147.6,149.1c-0.1-0.1-0.3-0.1-0.4-0.1c0,0-0.1,0-0.1,0c-0.3,0.1-0.5,0.2-0.8,0.5
	c-0.2,0.2-0.3,0.5-0.3,0.7c0,0,0,0,0,0.1c0,0.1,0.1,0.2,0.1,0.3c0.1,0.1,0.2,0.2,0.3,0.2c0.1,0.1,0.2,0.1,0.4,0.1c0,0,0.2,0,0.4-0.1
	c0.1,0,0.3-0.1,0.6-0.5c0.1-0.2,0.2-0.4,0.2-0.5c0-0.1,0-0.2-0.1-0.4C147.9,149.2,147.8,149.1,147.6,149.1z"/>
<path id="XMLID_132_" class="st0" d="M147.9,158.8c0-0.6,0-1.2-0.1-1.8c0-0.1,0-0.3,0-0.4l-0.1-1.7c0-0.4-0.1-0.7-0.4-0.9
	c-0.1-0.1-0.2-0.1-0.4-0.1c-0.1,0-0.3,0-0.5,0.1c-0.1,0-0.2,0.1-0.3,0.2c0,0.1-0.1,0.3-0.1,0.8c0,0.2,0,0.5,0,0.8c0,0.3,0,0.7,0,1.2
	c0,1.1,0,1.8,0,2.3c0,0.6,0.1,0.8,0.1,0.9c0.2,0.3,0.4,0.5,0.7,0.6c0.1,0,0.1,0,0.2,0c0.2,0,0.5-0.1,0.7-0.4
	c0.1-0.1,0.1-0.1,0.1-0.2c0,0,0,0,0-0.1c0-0.1,0-0.1,0-0.2C147.9,159.7,147.9,159.3,147.9,158.8z"/>
<path id="XMLID_129_" class="st0" d="M153.8,152.7c-0.3-0.2-0.6-0.3-0.9-0.3c-0.2,0-0.3,0-0.5,0.1c-0.1,0-0.2,0.1-0.3,0.1
	c-0.1,0-0.2,0-0.3,0c-0.1,0-0.2,0-0.5,0.2c-0.2,0.1-0.4,0.3-0.6,0.5c-0.4,0.4-0.7,1-0.9,1.7c-0.1,0.4-0.2,0.9-0.2,1.5v0.1
	c0,0.5,0.1,1,0.2,1.4c0.2,0.7,0.6,1.3,1,1.8c0.4,0.4,0.9,0.7,1.5,0.8c0.7,0.1,1.3-0.1,1.8-0.5c0.5-0.3,0.9-0.9,1.2-1.5
	c0.3-0.7,0.5-1.4,0.5-2.2c0-0.8-0.2-1.6-0.6-2.3C154.8,153.5,154.4,153,153.8,152.7z M154,156.9c-0.1,0.8-0.3,1.4-0.7,1.9
	c-0.1,0.1-0.2,0.2-0.3,0.3c-0.1,0.1-0.2,0.1-0.4,0.1c-0.3,0-0.6-0.2-0.8-0.6c-0.2-0.3-0.3-0.8-0.4-1.3c0-0.2-0.1-0.4-0.1-0.7
	c0-0.3,0.1-0.7,0.2-1.2c0.1-0.5,0.4-0.9,0.7-1.2c0.1-0.1,0.2-0.2,0.3-0.2c0.1,0,0.3,0,0.5,0.1c0.3,0.2,0.6,0.5,0.8,1.1
	c0.1,0.4,0.2,0.9,0.2,1.4C154,156.7,154,156.8,154,156.9z"/>
<path id="XMLID_128_" class="st0" d="M166.3,157.8c-0.7-0.1-1.4-0.8-2-2.1c-0.2-0.4-0.4-0.8-0.5-1c-0.1-0.2-0.3-0.4-0.5-0.5
	c-0.6-0.4-1.2-0.4-1.8,0c-0.2,0.1-0.4,0.4-0.7,0.7c-0.3,0.4-0.5,0.7-0.7,1.1c-0.1,0.1-0.1,0.2-0.2,0.3c0,0.1-0.1,0.2-0.3,0.2h-0.3
	v-0.4c0-0.1,0-0.3,0-0.5c0-0.3,0-0.6,0.1-1.1c0-0.5,0-0.9,0-1.3v-0.4c0-0.2,0-0.3-0.1-0.5c-0.1-0.1-0.1-0.2-0.3-0.3
	c-0.2-0.1-0.3-0.2-0.5-0.2c-0.2,0-0.4,0.1-0.5,0.2c-0.1,0.1-0.2,0.1-0.2,0.2c0,0.1-0.1,0.2-0.1,0.5c0,0.3-0.1,0.7-0.1,1.2
	c0,0.5,0,1.2,0,2.1c0,1.1,0,1.9,0,2.5c0,0.5,0.1,0.9,0.1,1.2c0.1,0.2,0.1,0.4,0.2,0.5c0.1,0.1,0.1,0.1,0.2,0.2
	c0.1,0.1,0.2,0.1,0.2,0.2c0.1,0.1,0.3,0.1,0.4,0.1c0,0,0.1,0,0.4-0.1c0.1,0,0.3-0.1,0.5-0.4c0.1-0.1,0.2-0.2,0.3-0.5
	c0.1-0.3,0.3-0.5,0.5-0.8c0.3-0.7,0.7-1.2,0.9-1.8c0.4-0.7,0.5-0.9,0.6-1c0.1-0.1,0.1-0.1,0.2-0.1c0.2,0,0.3,0.1,0.4,0.3
	c0.1,0.1,0.2,0.3,0.4,0.7c0.2,0.3,0.4,0.6,0.5,0.8c0.2,0.2,0.4,0.4,0.6,0.6c0.7,0.6,1.2,1,1.7,1c0.1,0,0.3,0,0.4-0.1
	c0.4-0.2,0.6-0.4,0.6-0.8c0-0.2-0.1-0.3-0.2-0.4C166.6,157.9,166.5,157.8,166.3,157.8z"/>
<path id="XMLID_127_" class="st0" d="M155.6,147c-1,0-2,1.6-2.5,2.5c-0.1,0.2-0.2,0.4-0.3,0.5c-0.2,0.2-0.1,0.4,0,0.5
	c0.1,0.2,0.4,0.3,0.6,0.3c0.1,0,0.4,0,0.5-0.3c0.1-0.2,0.4-0.4,0.7-0.8c0.7-0.7,1.9-1.9,1.9-2.4c0-0.1,0-0.1-0.1-0.1
	C156.1,147.1,155.8,147,155.6,147z"/>
<g id="XMLID_69_">
	<g id="XMLID_70_">
		<g id="XMLID_100_">
			<g id="XMLID_101_">
				<g id="XMLID_102_">
					<path id="XMLID_103_" class="st0" d="M69.6,92.5c-0.2,0-0.4-0.2-0.5-0.4c0,0,0-0.1,0-0.2c0-0.3,0-0.8,0.2-1.5
						c0-0.2,0.3-0.4,0.5-0.3c0.3,0,0.4,0.3,0.4,0.5c-0.1,0.6-0.2,1.1-0.2,1.3c0,0.1,0,0.1,0,0.1C70.1,92.3,69.9,92.5,69.6,92.5
						C69.7,92.5,69.6,92.5,69.6,92.5z M70.3,89.4c-0.1,0-0.1,0-0.2,0c-0.2-0.1-0.4-0.3-0.3-0.5c0.2-0.5,0.5-1,0.8-1.5
						c0.1-0.2,0.4-0.3,0.6-0.1c0.2,0.1,0.3,0.4,0.2,0.6c-0.3,0.4-0.5,0.9-0.7,1.4C70.6,89.3,70.4,89.4,70.3,89.4z M72,86.7
						c-0.1,0-0.2,0-0.3-0.1c-0.2-0.2-0.2-0.4,0-0.6c0.4-0.4,0.8-0.8,1.3-1.1c0.2-0.1,0.5-0.1,0.7,0.1c0.2,0.2,0.1,0.4-0.1,0.6
						c-0.4,0.3-0.8,0.7-1.2,1C72.3,86.7,72.2,86.7,72,86.7z M74.7,84.7c-0.2,0-0.3-0.1-0.4-0.2c-0.1-0.2-0.1-0.5,0.2-0.6
						c0.5-0.3,1.1-0.5,1.6-0.7c0.2-0.1,0.5,0,0.6,0.2c0.1,0.2,0,0.5-0.3,0.5c-0.5,0.2-1,0.4-1.5,0.7C74.9,84.7,74.8,84.7,74.7,84.7z
						 M77.9,83.5c-0.2,0-0.4-0.1-0.4-0.3c-0.1-0.2,0.1-0.5,0.3-0.5c0.6-0.1,1.1-0.3,1.7-0.4c0.3,0,0.5,0.1,0.5,0.3
						c0,0.2-0.1,0.4-0.4,0.5c-0.6,0.1-1.1,0.2-1.7,0.3C78,83.5,78,83.5,77.9,83.5z M81.3,83c-0.2,0-0.4-0.2-0.5-0.4
						c0-0.2,0.2-0.4,0.4-0.5c0.6-0.1,1.2-0.1,1.8-0.1c0.3,0,0.5,0.2,0.5,0.4c0,0.2-0.2,0.4-0.4,0.4C82.5,82.9,81.9,82.9,81.3,83
						C81.4,83,81.3,83,81.3,83z M88.3,82.9c-0.3,0-0.5-0.2-0.5-0.4c0-0.2,0.2-0.4,0.5-0.4c0.6,0,1.2,0,1.7,0c0.3,0,0.5,0.2,0.5,0.4
						c0,0.2-0.2,0.4-0.4,0.4C89.5,82.9,88.9,82.9,88.3,82.9C88.3,82.9,88.3,82.9,88.3,82.9z M86.6,82.9
						C86.6,82.9,86.5,82.9,86.6,82.9c-0.4,0-0.8,0-1.1,0c-0.2,0-0.4,0-0.6,0c-0.3,0-0.5-0.2-0.5-0.4c0-0.2,0.2-0.4,0.5-0.4
						c0.2,0,0.4,0,0.6,0c0.4,0,0.8,0,1.1,0c0.3,0,0.5,0.2,0.5,0.4C87,82.7,86.8,82.9,86.6,82.9z M91.8,82.8c-0.2,0-0.4-0.2-0.5-0.4
						c0-0.2,0.2-0.4,0.4-0.5c0.6,0,1.2-0.1,1.7-0.2c0.3,0,0.5,0.1,0.5,0.4c0,0.2-0.1,0.4-0.4,0.5C93,82.7,92.4,82.7,91.8,82.8
						C91.8,82.8,91.8,82.8,91.8,82.8z M95.2,82.4c-0.2,0-0.4-0.1-0.5-0.3c0-0.2,0.1-0.4,0.4-0.5c0.6-0.1,1.1-0.2,1.7-0.3
						c0.2,0,0.5,0.1,0.6,0.3c0.1,0.2-0.1,0.4-0.4,0.5C96.5,82.2,95.9,82.3,95.2,82.4C95.3,82.4,95.3,82.4,95.2,82.4z M98.6,81.7
						c-0.2,0-0.4-0.1-0.4-0.3c-0.1-0.2,0.1-0.5,0.3-0.5c0.6-0.1,1.1-0.3,1.6-0.5c0.2-0.1,0.5,0,0.6,0.3c0.1,0.2,0,0.5-0.3,0.5
						c-0.5,0.2-1.1,0.3-1.7,0.5C98.7,81.7,98.7,81.7,98.6,81.7z M101.9,80.7c-0.2,0-0.4-0.1-0.4-0.3c-0.1-0.2,0-0.5,0.2-0.5
						c0.5-0.2,1-0.4,1.5-0.7c0.2-0.1,0.5,0,0.6,0.2c0.1,0.2,0,0.5-0.2,0.6c-0.5,0.2-1.1,0.5-1.6,0.7C102,80.7,102,80.7,101.9,80.7z
						 M105,79.2c-0.2,0-0.3-0.1-0.4-0.2c-0.1-0.2-0.1-0.5,0.1-0.6c0.5-0.3,1-0.6,1.4-0.9c0.2-0.1,0.5-0.1,0.6,0.1
						c0.2,0.2,0.1,0.4-0.1,0.6c-0.5,0.3-1,0.6-1.5,0.9C105.2,79.2,105.1,79.2,105,79.2z M107.7,77.3c-0.1,0-0.2,0-0.3-0.1
						c-0.2-0.2-0.2-0.4,0-0.6c0.4-0.4,0.8-0.7,1.2-1.1c0.2-0.2,0.5-0.2,0.7-0.1c0.2,0.1,0.2,0.4,0.1,0.6c-0.4,0.4-0.8,0.8-1.2,1.2
						C108,77.2,107.9,77.3,107.7,77.3z M110,74.9c-0.1,0-0.2,0-0.3-0.1c-0.2-0.1-0.3-0.4-0.1-0.6c0.3-0.4,0.6-0.9,0.8-1.3
						c0.1-0.2,0.4-0.3,0.6-0.2c0.2,0.1,0.3,0.3,0.2,0.6c-0.3,0.5-0.6,1-0.9,1.4C110.3,74.8,110.1,74.9,110,74.9z M111.5,72.1
						c0,0-0.1,0-0.1,0c-0.2-0.1-0.4-0.3-0.3-0.5c0.2-0.5,0.3-1,0.4-1.5c0-0.2,0.3-0.4,0.5-0.3c0.3,0,0.4,0.3,0.4,0.5
						c-0.1,0.5-0.3,1.1-0.5,1.6C111.9,72,111.7,72.1,111.5,72.1z M112.2,69C112.1,69,112.1,69,112.2,69c-0.3,0-0.5-0.2-0.5-0.4
						c0-0.2,0-0.5,0-0.7c0-0.3,0-0.5,0-0.8c0-0.2,0.2-0.4,0.4-0.4c0.3,0,0.5,0.2,0.5,0.4c0,0.3,0,0.6,0,0.8c0,0.3,0,0.5,0,0.8
						C112.6,68.8,112.4,69,112.2,69z M111.9,65.9c-0.2,0-0.4-0.1-0.5-0.3c-0.1-0.5-0.3-1-0.4-1.5c-0.1-0.2,0.1-0.5,0.3-0.5
						c0.2-0.1,0.5,0,0.6,0.3c0.2,0.5,0.3,1,0.5,1.6C112.4,65.6,112.3,65.8,111.9,65.9C112,65.9,112,65.9,111.9,65.9z M110.8,62.9
						c-0.2,0-0.3-0.1-0.4-0.2c-0.2-0.5-0.5-0.9-0.8-1.3c-0.1-0.2-0.1-0.5,0.1-0.6c0.2-0.1,0.5-0.1,0.6,0.1c0.3,0.5,0.6,0.9,0.9,1.4
						c0.1,0.2,0,0.5-0.2,0.6C111,62.9,110.9,62.9,110.8,62.9z M108.9,60.3c-0.1,0-0.3-0.1-0.4-0.1c-0.4-0.4-0.8-0.8-1.2-1.1
						c-0.2-0.2-0.2-0.4,0-0.6c0.2-0.2,0.5-0.2,0.7,0c0.4,0.4,0.9,0.8,1.3,1.2c0.2,0.2,0.1,0.4-0.1,0.6
						C109.2,60.2,109,60.3,108.9,60.3z M106.4,58.2c-0.1,0-0.2,0-0.3-0.1c-0.5-0.3-0.9-0.5-1.4-0.8c-0.2-0.1-0.3-0.4-0.2-0.6
						c0.1-0.2,0.4-0.3,0.6-0.2c0.5,0.2,1.1,0.5,1.6,0.8c0.2,0.1,0.3,0.4,0.1,0.6C106.7,58.1,106.5,58.2,106.4,58.2z M103.2,56.8
						c0,0-0.1,0-0.1,0c-0.5-0.2-1.1-0.3-1.6-0.4c-0.3,0-0.4-0.3-0.4-0.5c0-0.2,0.3-0.4,0.5-0.3c0.6,0.1,1.2,0.2,1.7,0.4
						c0.2,0.1,0.4,0.3,0.3,0.5C103.6,56.7,103.4,56.8,103.2,56.8z M99.8,56.2C99.8,56.2,99.8,56.2,99.8,56.2c-0.6,0-1.1,0-1.7,0
						c-0.3,0-0.5-0.2-0.5-0.4c0-0.2,0.2-0.4,0.4-0.4c0.6,0,1.2,0,1.8,0c0.3,0,0.4,0.2,0.4,0.4C100.3,56,100.1,56.2,99.8,56.2z"/>
				</g>
			</g>
		</g>
		<g id="XMLID_71_">
			<g id="XMLID_72_">
				<g id="XMLID_73_">
					<path id="XMLID_74_" class="st0" d="M140.6,62.7C140.5,62.7,140.5,62.7,140.6,62.7c-0.6,0-1.2-0.1-1.8-0.2
						c-0.3,0-0.4-0.3-0.4-0.5c0.1-0.2,0.3-0.4,0.5-0.3c0.5,0.1,1.1,0.2,1.7,0.2c0.3,0,0.5,0.2,0.4,0.4
						C141,62.5,140.8,62.7,140.6,62.7z M142.3,62.6c-0.2,0-0.4-0.2-0.5-0.4c0-0.2,0.2-0.4,0.4-0.5c0.5-0.1,1.1-0.1,1.7-0.3
						c0.2-0.1,0.5,0.1,0.6,0.3c0.1,0.2-0.1,0.4-0.3,0.5C143.5,62.5,142.9,62.5,142.3,62.6C142.3,62.6,142.3,62.6,142.3,62.6z
						 M137.2,62c-0.1,0-0.1,0-0.2,0c-0.6-0.2-1.1-0.4-1.6-0.7c-0.2-0.1-0.3-0.4-0.2-0.6c0.1-0.2,0.4-0.3,0.6-0.1
						c0.5,0.3,1,0.5,1.5,0.7c0.2,0.1,0.4,0.3,0.3,0.5C137.5,61.9,137.3,62,137.2,62z M145.7,61.9c-0.2,0-0.4-0.1-0.4-0.3
						c-0.1-0.2,0-0.5,0.3-0.5c0.5-0.2,1.1-0.4,1.6-0.6c0.2-0.1,0.5,0,0.6,0.2c0.1,0.2,0,0.5-0.2,0.6c-0.5,0.2-1.1,0.4-1.7,0.6
						C145.8,61.9,145.7,61.9,145.7,61.9z M148.9,60.6c-0.2,0-0.3-0.1-0.4-0.2c-0.1-0.2,0-0.5,0.2-0.6c0.9-0.5,1.4-0.8,1.4-0.8
						c0.2-0.1,0.5-0.1,0.6,0.1c0.2,0.2,0.1,0.4-0.1,0.6c0,0-0.6,0.4-1.5,0.9C149,60.6,148.9,60.6,148.9,60.6z M134.2,60.4
						c-0.1,0-0.2,0-0.3-0.1c-0.5-0.3-0.9-0.7-1.3-1.1c-0.2-0.2-0.2-0.4,0-0.6c0.2-0.2,0.5-0.2,0.7,0c0.4,0.4,0.8,0.7,1.2,1
						c0.2,0.1,0.2,0.4,0.1,0.6C134.4,60.4,134.3,60.4,134.2,60.4z M131.8,58.2c-0.1,0-0.3-0.1-0.4-0.2c-0.3-0.4-0.7-0.9-1-1.3
						c-0.1-0.2-0.1-0.5,0.1-0.6c0.2-0.1,0.5-0.1,0.6,0.1c0.3,0.4,0.6,0.9,1,1.3c0.2,0.2,0.1,0.4-0.1,0.6
						C132,58.2,131.9,58.2,131.8,58.2z M97,56.4c-0.2,0-0.3-0.1-0.4-0.2c-0.3-0.4-0.6-0.8-0.8-1.2c-0.1-0.2,0-0.5,0.2-0.6
						c0.2-0.1,0.5,0,0.6,0.2c0.2,0.4,0.5,0.8,0.7,1.1c0.1,0.2,0.1,0.5-0.1,0.6C97.2,56.4,97.1,56.4,97,56.4z M129.9,55.5
						c-0.2,0-0.3-0.1-0.4-0.2c-0.3-0.5-0.5-0.9-0.8-1.4c-0.1-0.2,0-0.5,0.2-0.6c0.2-0.1,0.5,0,0.6,0.2c0.2,0.5,0.5,0.9,0.7,1.4
						c0.1,0.2,0,0.5-0.2,0.6C130.1,55.5,130,55.5,129.9,55.5z M95.5,53.8c-0.2,0-0.4-0.1-0.4-0.3c-0.2-0.5-0.4-1-0.5-1.6
						c-0.1-0.2,0.1-0.4,0.4-0.5c0.2,0,0.5,0.1,0.5,0.3c0.1,0.5,0.3,1,0.5,1.5c0.1,0.2,0,0.5-0.3,0.5C95.6,53.7,95.6,53.8,95.5,53.8z
						 M128.5,52.7c-0.2,0-0.4-0.1-0.4-0.3c-0.2-0.5-0.5-1-0.7-1.4c-0.1-0.2,0-0.5,0.2-0.6c0.2-0.1,0.5,0,0.6,0.2
						c0.2,0.5,0.5,1,0.7,1.4c0.1,0.2,0,0.5-0.2,0.5C128.6,52.7,128.5,52.7,128.5,52.7z M94.8,50.7c-0.2,0-0.4-0.2-0.5-0.4
						c0-0.3,0-0.6,0-0.8c0-0.3,0-0.5,0-0.8c0-0.2,0.2-0.4,0.5-0.4c0.3,0,0.4,0.2,0.4,0.4c0,0.2,0,0.5,0,0.7c0,0.3,0,0.5,0,0.8
						C95.3,50.5,95.1,50.7,94.8,50.7C94.8,50.7,94.8,50.7,94.8,50.7z M127,49.8c-0.2,0-0.3-0.1-0.4-0.2c-0.3-0.5-0.5-0.9-0.8-1.4
						c-0.1-0.2,0-0.5,0.2-0.6c0.2-0.1,0.5,0,0.6,0.2c0.3,0.5,0.6,0.9,0.8,1.4c0.1,0.2,0,0.5-0.2,0.6C127.1,49.8,127.1,49.8,127,49.8
						z M95,47.6C95,47.6,95,47.6,95,47.6c-0.3-0.1-0.5-0.3-0.5-0.5c0.1-0.5,0.3-1.1,0.5-1.6c0.1-0.2,0.3-0.3,0.6-0.3
						c0.2,0.1,0.4,0.3,0.3,0.5c-0.2,0.5-0.3,1-0.4,1.5C95.4,47.4,95.3,47.6,95,47.6z M125.3,47.1c-0.2,0-0.3-0.1-0.4-0.2
						c-0.3-0.4-0.6-0.9-0.9-1.3c-0.1-0.2-0.1-0.4,0.1-0.6c0.2-0.1,0.5-0.1,0.6,0.1c0.3,0.4,0.6,0.9,1,1.3c0.1,0.2,0.1,0.5-0.2,0.6
						C125.5,47.1,125.4,47.1,125.3,47.1z M96.2,44.6c-0.1,0-0.1,0-0.2,0c-0.2-0.1-0.3-0.4-0.2-0.6c0.3-0.5,0.6-1,0.9-1.4
						c0.1-0.2,0.4-0.2,0.6-0.1c0.2,0.1,0.3,0.4,0.1,0.6c-0.3,0.4-0.6,0.9-0.8,1.3C96.5,44.5,96.3,44.6,96.2,44.6z M123.3,44.5
						c-0.1,0-0.3-0.1-0.4-0.2c-0.4-0.4-0.7-0.8-1.1-1.2c-0.2-0.2-0.1-0.4,0-0.6c0.2-0.2,0.5-0.1,0.7,0c0.4,0.4,0.8,0.8,1.1,1.2
						c0.2,0.2,0.1,0.4-0.1,0.6C123.5,44.5,123.4,44.5,123.3,44.5z M121,42.1c-0.1,0-0.2,0-0.3-0.1c-0.4-0.4-0.8-0.7-1.2-1.1
						c-0.2-0.2-0.2-0.4,0-0.6c0.2-0.2,0.5-0.2,0.7,0c0.4,0.3,0.9,0.7,1.3,1.1c0.2,0.2,0.2,0.4,0,0.6C121.3,42.1,121.2,42.1,121,42.1
						z M98.1,42c-0.1,0-0.2,0-0.3-0.1c-0.2-0.1-0.2-0.4-0.1-0.6c0.4-0.4,0.8-0.8,1.2-1.2c0.2-0.2,0.5-0.2,0.7,0
						c0.2,0.2,0.2,0.4,0,0.6c-0.4,0.3-0.8,0.7-1.2,1.1C98.3,41.9,98.2,42,98.1,42z M118.4,40.1c-0.1,0-0.2,0-0.3-0.1
						c-0.5-0.3-0.9-0.6-1.4-0.8c-0.2-0.1-0.3-0.4-0.2-0.6c0.1-0.2,0.4-0.3,0.6-0.1c0.5,0.3,1,0.6,1.5,0.9c0.2,0.1,0.3,0.4,0.1,0.6
						C118.7,40,118.5,40.1,118.4,40.1z M100.6,39.8c-0.1,0-0.3-0.1-0.4-0.2c-0.2-0.2-0.1-0.4,0.1-0.6c0.5-0.3,1-0.6,1.5-0.9
						c0.2-0.1,0.5,0,0.6,0.1c0.1,0.2,0.1,0.5-0.2,0.6c-0.5,0.3-1,0.5-1.4,0.8C100.8,39.8,100.7,39.8,100.6,39.8z M115.4,38.5
						c-0.1,0-0.1,0-0.2,0c-0.5-0.2-1-0.4-1.6-0.6c-0.2-0.1-0.4-0.3-0.3-0.5c0.1-0.2,0.3-0.3,0.6-0.3c0.6,0.2,1.1,0.4,1.7,0.6
						c0.2,0.1,0.3,0.3,0.2,0.6C115.8,38.4,115.6,38.5,115.4,38.5z M103.6,38.2c-0.2,0-0.3-0.1-0.4-0.3c-0.1-0.2,0-0.5,0.2-0.5
						c0.6-0.2,1.1-0.4,1.7-0.6c0.2-0.1,0.5,0.1,0.6,0.3c0.1,0.2-0.1,0.5-0.3,0.5c-0.5,0.1-1.1,0.3-1.6,0.5
						C103.7,38.2,103.6,38.2,103.6,38.2z M112.1,37.5C112.1,37.5,112.1,37.5,112.1,37.5c-0.6-0.1-1.2-0.2-1.8-0.2
						c-0.3,0-0.4-0.2-0.4-0.5c0-0.2,0.2-0.4,0.5-0.4c0.6,0,1.2,0.1,1.8,0.2c0.2,0,0.4,0.3,0.4,0.5C112.5,37.3,112.3,37.5,112.1,37.5
						z M106.9,37.4c-0.2,0-0.4-0.1-0.5-0.3c0-0.2,0.1-0.4,0.4-0.5c0.6-0.1,1.2-0.1,1.8-0.2c0.2,0,0.5,0.2,0.5,0.4
						c0,0.2-0.2,0.4-0.4,0.4C108.1,37.2,107.6,37.3,106.9,37.4C107,37.3,106.9,37.4,106.9,37.4z"/>
				</g>
			</g>
		</g>
	</g>
</g>
<g id="XMLID_7_">
	<g id="XMLID_63_">
		<g id="XMLID_66_">
			<path id="XMLID_68_" class="st1" d="M78.6,77c2.2-3.2,9.3-2.8,12.8-0.8c3.5,2,3.1,8.4,0.9,11.5c-2.2,3.2-9.3,2.8-12.8,0.8
				C76,86.5,76.4,80.2,78.6,77"/>
			<path id="XMLID_67_" class="st1" d="M96.8,78.1c-0.1-1.9,7.1-3.8,9.1-3.9c2.1-0.1,4.2,6.4,4.4,8.2c0.1,1.9-7.1,3.8-9.1,3.9
				C99.1,86.4,96.9,79.9,96.8,78.1"/>
		</g>
		<g id="XMLID_64_">
			<path id="XMLID_65_" class="st1" d="M150,69.7c-6.3-0.4-11-5.3-10.5-10.9c0.4-5.6,5.9-9.9,12.1-9.5c6.3,0.4,11,5.3,10.5,10.9
				C161.7,65.9,156.3,70.1,150,69.7"/>
		</g>
	</g>
	<g id="XMLID_8_">
		<g id="XMLID_51_">
			<g id="XMLID_60_">
				<path id="XMLID_62_" class="st0" d="M24.2,99.2h-7.8v-8.6c0-0.4-0.3-0.7-0.7-0.7h-5.5c-0.4,0-0.7,0.3-0.7,0.7v8.6H5
					c-0.4,0-0.7,0.3-0.7,0.7v4.3c0,0.4,0.3,0.7,0.7,0.7h4.5v22.4c0,0.4,0.3,0.7,0.7,0.7h5.5c0.4,0,0.7-0.3,0.7-0.7v-22.4h7.8
					c0.4,0,0.7-0.3,0.7-0.7v-4.3C24.9,99.5,24.6,99.2,24.2,99.2z"/>
				<path id="XMLID_61_" class="st0" d="M45.2,98.6c-3.8,0-6.8,1.3-9,3.8V83.6c0-0.4-0.3-0.7-0.7-0.7H30c-0.4,0-0.7,0.3-0.7,0.7
					v43.7c0,0.4,0.3,0.7,0.7,0.7h5.5c0.4,0,0.7-0.3,0.7-0.7v-11.9c0-4.3,3.1-10.4,8.8-10.4c4.8,0,5.5,3.5,5.5,5.5v16.8
					c0,0.4,0.3,0.7,0.7,0.7h5.5c0.4,0,0.7-0.3,0.7-0.7v-17.6C57.5,107.1,56.6,98.6,45.2,98.6z"/>
			</g>
			<g id="XMLID_52_">
				<path id="XMLID_59_" class="st0" d="M98.2,98.6c-3.8,0-6.8,1.3-9,3.8v-2.6c0-0.4-0.3-0.7-0.7-0.7h-5.5c-0.4,0-0.7,0.3-0.7,0.7
					v27.4c0,0.4,0.3,0.7,0.7,0.7h5.5c0.4,0,0.7-0.3,0.7-0.7v-11.9c0-4.3,3.1-10.4,8.8-10.4c4.8,0,5.5,3.5,5.5,5.5v16.8
					c0,0.4,0.3,0.7,0.7,0.7h5.5c0.4,0,0.7-0.3,0.7-0.7v-17.6c0-1.6-0.3-4.6-2.3-7.1C106,100,102.6,98.6,98.2,98.6z"/>
				<path id="XMLID_58_" class="st0" d="M133,111.4l11.4-11.1c0.2-0.2,0.2-0.5,0.1-0.7c-0.1-0.2-0.4-0.4-0.7-0.4h-7.6
					c-0.2,0-0.4,0.1-0.5,0.2l-9.5,9.7V83.6c0-0.4-0.3-0.7-0.7-0.7H120c-0.4,0-0.7,0.3-0.7,0.7v43.7c0,0.4,0.3,0.7,0.7,0.7h5.5
					c0.4,0,0.7-0.3,0.7-0.7v-13.2l11.4,13.6c0.1,0.2,0.4,0.3,0.6,0.3h7.3c0.3,0,0.5-0.1,0.7-0.4c0.1-0.2,0.1-0.5-0.1-0.7L133,111.4z
					"/>
				<path id="XMLID_57_" class="st0" d="M155.2,87.6c-2.3,0-4.2,1.7-4.2,3.7c0,2.1,1.9,3.7,4.2,3.7c2.3,0,4.2-1.7,4.2-3.7
					C159.3,89.2,157.5,87.6,155.2,87.6z"/>
				<path id="XMLID_56_" class="st0" d="M157.9,99.2h-5.5c-0.4,0-0.7,0.3-0.7,0.7v27.4c0,0.4,0.3,0.7,0.7,0.7h5.5
					c0.4,0,0.7-0.3,0.7-0.7V99.9C158.6,99.5,158.3,99.2,157.9,99.2z"/>
				<path id="XMLID_53_" class="st0" d="M196.4,99.2h-5.5c-0.4,0-0.7,0.3-0.7,0.7v2c-2.3-2.1-5.3-3.2-9-3.2
					c-9.1,0-16.3,6.6-16.3,14.9c0,8.4,7.1,14.9,16.3,14.9c3.7,0,6.7-1.1,9-3.2v2c0,0.4,0.3,0.7,0.7,0.7h5.5c0.4,0,0.7-0.3,0.7-0.7
					V99.9C197.1,99.5,196.8,99.2,196.4,99.2z M190.2,109.7v7.6c-1.6,3-5,4.9-8.7,4.9c-5.4,0-9.6-3.8-9.6-8.7c0-4.9,4.2-8.7,9.6-8.7
					C185.3,104.9,188.6,106.8,190.2,109.7z"/>
			</g>
		</g>
		<g id="XMLID_9_">
			<g id="XMLID_47_">
				<path id="XMLID_50_" class="st1" d="M78.6,77c2.2-3.2,9.3-2.8,12.8-0.8c3.5,2,3.1,8.4,0.9,11.5c-2.2,3.2-9.3,2.8-12.8,0.8
					C76,86.5,76.4,80.2,78.6,77"/>
				<path id="XMLID_49_" class="st1" d="M96.8,78.1c-0.1-1.9,7.1-3.8,9.1-3.9c2.1-0.1,4.2,6.4,4.4,8.2c0.1,1.9-7.1,3.8-9.1,3.9
					C99.1,86.4,96.9,79.9,96.8,78.1"/>
				<polygon id="XMLID_48_" class="st1" points="107.9,63.6 116.4,63.1 116.9,70.7 108.5,71.2 				"/>
			</g>
			<g id="XMLID_14_">
				<path id="XMLID_46_" class="st1" d="M82.9,8.6c2.8,5,0.6,11.2-5,13.7c-5.6,2.5-12.4,0.5-15.3-4.5c-2.8-5-0.6-11.2,5-13.7
					C73.2,1.5,80,3.5,82.9,8.6"/>
				<g id="XMLID_18_">
					<g id="XMLID_19_">
						<path id="XMLID_20_" class="st0" d="M85.1,63.6c-0.2,0-0.4,0-0.6,0c-0.3,0-0.5-0.2-0.4-0.4c0-0.2,0.2-0.4,0.5-0.4
							c0.6,0,1.1,0,1.7,0c0.3,0,0.5,0.2,0.5,0.4c0,0.2-0.2,0.4-0.4,0.5C85.9,63.6,85.5,63.6,85.1,63.6z M82.8,63.4
							C82.8,63.4,82.7,63.4,82.8,63.4c-0.7-0.1-1.3-0.2-1.8-0.3c-0.2-0.1-0.4-0.3-0.3-0.5c0.1-0.2,0.3-0.4,0.6-0.3
							c0.5,0.1,1.1,0.2,1.7,0.3c0.3,0,0.4,0.2,0.4,0.5C83.2,63.3,83,63.4,82.8,63.4z M88,63.3c-0.2,0-0.4-0.1-0.5-0.3
							c-0.1-0.2,0.1-0.4,0.4-0.5c0.6-0.1,1.1-0.2,1.6-0.4c0.2-0.1,0.5,0,0.6,0.3c0.1,0.2,0,0.5-0.3,0.5C89.3,63,88.7,63.2,88,63.3
							C88,63.3,88,63.3,88,63.3z M79.4,62.6c-0.1,0-0.1,0-0.2,0c-0.6-0.2-1.1-0.4-1.6-0.7c-0.2-0.1-0.3-0.4-0.2-0.6
							c0.1-0.2,0.4-0.3,0.6-0.2c0.5,0.2,1,0.5,1.5,0.7c0.2,0.1,0.4,0.3,0.3,0.5C79.8,62.5,79.6,62.6,79.4,62.6z M91.3,62.3
							c-0.2,0-0.3-0.1-0.4-0.2c-0.1-0.2,0-0.5,0.2-0.6c0.5-0.2,1-0.5,1.4-0.8c0.2-0.1,0.5-0.1,0.6,0.1c0.1,0.2,0.1,0.4-0.1,0.6
							c-0.5,0.3-1,0.6-1.5,0.8C91.4,62.3,91.3,62.3,91.3,62.3z M76.4,61.1c-0.1,0-0.2,0-0.3-0.1c-0.5-0.3-1-0.7-1.4-1
							c-0.2-0.2-0.2-0.4,0-0.6c0.2-0.2,0.5-0.2,0.7,0c0.4,0.3,0.9,0.7,1.3,1c0.2,0.1,0.3,0.4,0.1,0.6C76.7,61,76.5,61.1,76.4,61.1z
							 M94.1,60.5c-0.1,0-0.2,0-0.3-0.1c-0.2-0.2-0.2-0.4,0-0.6c0.4-0.3,0.8-0.7,1.1-1.1c0.2-0.2,0.5-0.2,0.7-0.1
							c0.2,0.1,0.2,0.4,0.1,0.6c-0.4,0.4-0.8,0.8-1.2,1.2C94.3,60.4,94.2,60.5,94.1,60.5z M73.8,59c-0.1,0-0.3-0.1-0.4-0.1
							c-0.4-0.4-0.7-0.8-1.1-1.3c-0.1-0.2-0.1-0.5,0.1-0.6c0.2-0.1,0.5-0.1,0.6,0.1c0.3,0.4,0.6,0.8,1,1.2c0.2,0.2,0.1,0.4-0.1,0.6
							C74,58.9,73.9,59,73.8,59z M96.3,58.1c-0.1,0-0.2,0-0.2-0.1c-0.2-0.1-0.3-0.4-0.1-0.6c0.3-0.4,0.5-0.8,0.7-1.2
							c0.1-0.2,0.4-0.3,0.6-0.2c0.2,0.1,0.3,0.3,0.2,0.6c-0.2,0.4-0.5,0.8-0.7,1.2C96.6,58,96.5,58.1,96.3,58.1z M71.9,56.3
							c-0.2,0-0.3-0.1-0.4-0.2c-0.3-0.5-0.5-1-0.7-1.5c-0.1-0.2,0-0.5,0.3-0.5c0.2-0.1,0.5,0,0.6,0.3c0.2,0.5,0.4,1,0.6,1.4
							c0.1,0.2,0,0.5-0.2,0.6C72.1,56.3,72,56.3,71.9,56.3z M70.8,53.4c-0.2,0-0.4-0.1-0.5-0.3c-0.1-0.5-0.2-1.1-0.3-1.6
							c0-0.2,0.2-0.4,0.4-0.5c0.3,0,0.5,0.1,0.5,0.4c0.1,0.5,0.1,1,0.3,1.5C71.3,53.1,71.1,53.3,70.8,53.4
							C70.9,53.4,70.8,53.4,70.8,53.4z M70.4,50.2c-0.3,0-0.5-0.2-0.5-0.4c0-0.5,0-1.1,0.1-1.6c0-0.2,0.2-0.4,0.5-0.4
							c0.3,0,0.4,0.2,0.4,0.5c-0.1,0.5-0.1,1-0.1,1.5C70.9,50.1,70.7,50.2,70.4,50.2z M70.8,47.1C70.7,47.1,70.7,47.1,70.8,47.1
							c-0.3,0-0.5-0.3-0.5-0.5c0.1-0.5,0.2-1,0.4-1.6c0.1-0.2,0.3-0.4,0.6-0.3c0.2,0.1,0.4,0.3,0.3,0.5c-0.1,0.5-0.3,1-0.4,1.5
							C71.2,47,71,47.1,70.8,47.1z M71.6,44.1c0,0-0.1,0-0.1,0c-0.2-0.1-0.4-0.3-0.3-0.5c0.2-0.5,0.4-1,0.6-1.5
							c0.1-0.2,0.4-0.3,0.6-0.2c0.2,0.1,0.4,0.3,0.3,0.5c-0.2,0.5-0.4,1-0.6,1.5C72,44,71.8,44.1,71.6,44.1z M72.9,41.2
							c-0.1,0-0.1,0-0.2,0c-0.2-0.1-0.3-0.3-0.2-0.6c0.2-0.5,0.5-0.9,0.8-1.4c0.1-0.2,0.4-0.3,0.6-0.2c0.2,0.1,0.3,0.4,0.2,0.6
							c-0.3,0.5-0.5,0.9-0.8,1.4C73.2,41.1,73.1,41.2,72.9,41.2z M74.5,38.4c-0.1,0-0.2,0-0.2-0.1C74,38.2,74,38,74.1,37.8
							c0.3-0.4,0.6-0.9,0.9-1.4c0.1-0.2,0.4-0.3,0.6-0.1c0.2,0.1,0.3,0.4,0.1,0.6c-0.3,0.4-0.6,0.9-0.9,1.3
							C74.8,38.3,74.6,38.4,74.5,38.4z M76.3,35.7c-0.1,0-0.2,0-0.3-0.1c-0.2-0.1-0.3-0.4-0.1-0.6c0.3-0.4,0.7-0.9,1-1.3
							c0.2-0.2,0.4-0.2,0.6-0.1c0.2,0.1,0.3,0.4,0.1,0.6c-0.3,0.4-0.7,0.9-1,1.3C76.6,35.7,76.5,35.7,76.3,35.7z M78.4,33.2
							c-0.1,0-0.2,0-0.3-0.1c-0.2-0.1-0.3-0.4-0.1-0.6c0.3-0.4,0.7-0.9,0.9-1.3c0.1-0.2,0.4-0.3,0.6-0.1c0.2,0.1,0.3,0.4,0.2,0.6
							c-0.3,0.4-0.6,0.9-1,1.3C78.7,33.1,78.5,33.2,78.4,33.2z M80.2,30.5c-0.1,0-0.1,0-0.2,0c-0.2-0.1-0.3-0.4-0.2-0.6
							c0.3-0.5,0.5-0.9,0.7-1.4c0.1-0.2,0.4-0.3,0.6-0.2c0.2,0.1,0.4,0.3,0.3,0.5c-0.2,0.5-0.5,1-0.7,1.5
							C80.5,30.4,80.4,30.5,80.2,30.5z M81.5,27.6c0,0-0.1,0-0.1,0c-0.2-0.1-0.4-0.3-0.3-0.5c0.2-0.5,0.3-1,0.4-1.5
							c0-0.2,0.3-0.4,0.5-0.4c0.3,0,0.4,0.2,0.4,0.5c-0.1,0.5-0.2,1.1-0.4,1.6C81.9,27.5,81.7,27.6,81.5,27.6z M82,24.5
							c-0.3,0-0.5-0.2-0.5-0.4c0-0.5-0.1-1-0.1-1.5c0-0.2,0.1-0.4,0.4-0.5c0.3,0,0.5,0.1,0.5,0.3c0.1,0.5,0.2,1.1,0.2,1.6
							C82.4,24.3,82.2,24.5,82,24.5C82,24.5,82,24.5,82,24.5z M81.4,21.4c-0.2,0-0.4-0.1-0.4-0.3c-0.2-0.5-0.4-0.9-0.7-1.4
							c-0.1-0.2,0-0.5,0.2-0.6c0.2-0.1,0.5,0,0.6,0.2c0.3,0.5,0.5,1,0.7,1.5c0.1,0.2,0,0.5-0.3,0.5C81.5,21.4,81.4,21.4,81.4,21.4z
							 M79.7,18.7c-0.1,0-0.3-0.1-0.4-0.2c-0.3-0.4-0.7-0.8-1.1-1.2c-0.2-0.2-0.2-0.4,0-0.6c0.2-0.2,0.5-0.2,0.7,0
							c0.4,0.4,0.8,0.8,1.2,1.2c0.2,0.2,0.1,0.4-0.1,0.6C79.9,18.6,79.8,18.7,79.7,18.7z M77.3,16.4c-0.1,0-0.2,0-0.3-0.1
							c-0.4-0.3-0.9-0.6-1.4-0.9c-0.2-0.1-0.3-0.4-0.1-0.6c0.1-0.2,0.4-0.2,0.6-0.1c0.5,0.3,1,0.6,1.4,1c0.2,0.1,0.2,0.4,0.1,0.6
							C77.6,16.3,77.5,16.4,77.3,16.4z M74.5,14.6c-0.1,0-0.2,0-0.2-0.1c-0.9-0.5-1.5-0.7-1.5-0.7c-0.2-0.1-0.4-0.3-0.3-0.5
							c0.1-0.2,0.4-0.3,0.6-0.2c0,0,0.7,0.2,1.6,0.7c0.2,0.1,0.3,0.4,0.2,0.6C74.8,14.5,74.6,14.6,74.5,14.6z"/>
					</g>
				</g>
				<path id="XMLID_17_" class="st1" d="M86.7,31c1.9,3.4-2.1,8.6-5.9,10.3c-3.7,1.7-9.6-1.9-11.4-5.3c-1.9-3.4,2.1-8.6,5.9-10.3
					C79,24,84.9,27.6,86.7,31"/>
				<path id="XMLID_16_" class="st1" d="M76.4,44.4c1.9,0.9,0,7.4-1,9.1c-1,1.7-8.2,0-10.1-0.9c-1.9-0.9,0-7.4,1-9.1
					C67.2,41.9,74.5,43.6,76.4,44.4"/>
				<polygon id="XMLID_15_" class="st1" points="84.4,60.5 80.5,67.2 73,63.7 76.9,57 				"/>
			</g>
			<g id="XMLID_10_">
				<path id="XMLID_13_" class="st1" d="M126.7,61.2c-4.2-0.3-7.1-6.1-6.8-9.8c0.3-3.8,6.7-6.4,10.9-6.1c4.2,0.3,7.1,6.1,6.8,9.8
					C137.3,58.8,130.9,61.5,126.7,61.2"/>
				<path id="XMLID_12_" class="st1" d="M119.2,46.3c-1.8,1-7.1-3.8-8.2-5.4c-1.1-1.6,4.2-6.4,6-7.4c1.8-1,7.1,3.8,8.2,5.4
					C126.3,40.5,121,45.3,119.2,46.3"/>
				<polygon id="XMLID_11_" class="st1" points="99.8,44.2 95.3,37.8 102.5,33.8 106.9,40.2 				"/>
			</g>
		</g>
	</g>
</g>
<path id="XMLID_6_" class="st0" d="M69.8,99.2c-0.5,0-1,0.2-1.6,0.5l-0.1,0c-0.4,0.1-0.6,0.4-0.8,0.7c-0.1,0.3-0.3,1.1-0.4,2.9
	c0,0.7,0,1.7,0,2.9c0,1.2,0,2.6,0,4.2l0,0.2c0,3.8,0.1,10.9,0.1,12.6c0.1,2.2,0.3,2.9,0.4,3.1c0.6,1.2,1.4,1.9,2.3,2.1l0.1,0
	c0.2,0,0.3,0.1,0.4,0.1c0.8,0,1.5-0.4,2.2-1.2c0.2-0.2,0.3-0.4,0.3-0.6c0-0.1,0-0.1,0-0.3c0-0.2,0-0.5-0.1-0.8l0-0.1
	c0-0.4-0.1-1.6-0.1-3.7c0-1.1-0.1-3.5-0.1-5.8c0-2.1-0.1-4.1-0.1-5.2c0-0.5,0-1,0-1.5l-0.2-6.1c0-1.5-0.5-2.6-1.2-3.3
	C70.6,99.3,70.2,99.2,69.8,99.2z"/>
<path id="XMLID_5_" class="st0" d="M70.1,87.9c-0.9,0.2-1.8,0.8-2.5,1.8c-0.7,0.8-1,1.6-1,2.4c0,0.1,0,0.2,0,0.3
	c0.1,0.4,0.2,0.7,0.4,1c0.2,0.3,0.5,0.5,0.9,0.8c0.4,0.2,0.8,0.3,1.2,0.3c0.2,0,0.5,0,1.4-0.3c0.3-0.1,1-0.4,1.9-1.7
	c0.5-0.7,0.7-1.4,0.7-2c0-0.4-0.1-0.9-0.3-1.3c-0.2-0.4-0.6-0.7-1.1-1C71.1,87.9,70.5,87.9,70.1,87.9z"/>
<path id="XMLID_4_" class="st1" d="M100.9,52c2.4,1.9,2.7,5.1,0.6,7.3c-2.1,2.2-5.7,2.4-8.1,0.6c-2.4-1.9-2.7-5.1-0.6-7.3
	C94.9,50.3,98.5,50.1,100.9,52"/>
</svg>
