<?xml version="1.0" encoding="utf-8"?>
<!-- Generator: Adobe Illustrator 19.0.0, SVG Export Plug-In . SVG Version: 6.00 Build 0)  -->
<svg version="1.1" id="Layer_1" xmlns="http://www.w3.org/2000/svg" xmlns:xlink="http://www.w3.org/1999/xlink" x="0px" y="0px"
	 viewBox="0 0 67.8 59.4" style="enable-background:new 0 0 67.8 59.4;" xml:space="preserve">
<style type="text/css">
	.st0{fill:#FFFFFF;}
	.st1{fill:#FFFFFF;stroke:#FFFFFF;stroke-width:0.1923;stroke-miterlimit:10;}
	.st2{fill:#ED9122;}
	.st3{fill:#F19220;}
	.st4{fill-rule:evenodd;clip-rule:evenodd;fill:#FFFFFF;stroke:#FFFFFF;stroke-width:0.1923;stroke-miterlimit:10;}
</style>
<path id="XMLID_124_" class="st0" d="M13.1,56.2C13.1,56.2,13.1,56.1,13.1,56.2c-0.2-0.4-0.2-0.9-0.3-1.6c0-0.3,0-0.6,0-1
	c0-0.5,0-1.1,0-1.7c0-0.3,0-0.5,0-0.6c0-0.1,0-0.1,0-0.2c0-0.1,0-0.1,0-0.2c0-0.1,0-0.1,0-0.1c0,0,0-0.1-0.1-0.1
	c-0.1,0-0.1-0.1-0.2-0.1c0,0,0,0-0.1,0c0,0-0.1,0-0.1,0.1c0,0.1-0.1,0.3-0.1,0.9c0,0.5,0,1.1,0,1.7v0.3c0,0.4,0,0.8,0,1.1
	c0,0.6,0.1,1,0.2,1.3c0.1,0.2,0.2,0.4,0.3,0.4c0,0,0.1,0,0.1,0c0.1,0,0.2,0,0.3-0.2C13.1,56.3,13.1,56.3,13.1,56.2L13.1,56.2
	C13.1,56.2,13.1,56.2,13.1,56.2z"/>
<path id="XMLID_297_" class="st0" d="M16.3,55.3c0-0.1-0.1-0.4-0.1-0.7c0-0.2,0-0.4,0-0.5c0-0.1,0-0.2,0-0.3c0-0.1,0-0.1,0-0.1
	c-0.1-0.1-0.2-0.2-0.3-0.2c0,0-0.1,0-0.1,0c-0.1,0-0.1,0-0.1-0.1c-0.1-0.1-0.2-0.1-0.4-0.1h0c-0.2,0-0.4,0.1-0.5,0.2
	c-0.2,0.1-0.4,0.4-0.5,0.6c-0.1,0.3-0.3,0.6-0.4,0.9c0,0.2-0.1,0.3-0.1,0.5v0.1c0,0.1,0,0.2,0.1,0.3c0.1,0.1,0.1,0.2,0.2,0.2
	c0.1,0,0.2,0,0.3,0c0.3-0.1,0.6-0.5,1-1.1l0.3-0.5l0,0.3c0,0,0,0.1,0,0.1c0,0.1,0,0.1,0,0.2c0,0.2,0.1,0.3,0.1,0.5
	c0,0.1,0.1,0.2,0.1,0.3c0.1,0.1,0.1,0.1,0.2,0.1c0,0,0,0,0.1,0c0,0,0.1,0,0.2-0.2c0-0.1,0-0.1,0-0.1c0-0.1,0-0.1-0.1-0.2
	C16.4,55.6,16.3,55.5,16.3,55.3z M15.1,54.4c-0.1,0.2-0.2,0.4-0.4,0.6c-0.1,0.1-0.1,0.2-0.2,0.3c-0.1,0.1-0.1,0.1-0.1,0.1
	c0,0-0.1,0-0.1-0.1c0,0,0,0,0-0.1c0-0.1,0-0.1,0.1-0.2c0-0.1,0.1-0.2,0.1-0.3c0-0.1,0.1-0.2,0.1-0.2c0.1-0.1,0.2-0.2,0.2-0.3
	c0.1-0.1,0.2-0.1,0.3-0.2h0c0,0,0.1,0,0.1,0c0.1,0,0.1,0.1,0.1,0.1C15.2,54.1,15.2,54.1,15.1,54.4z"/>
<path id="XMLID_294_" class="st0" d="M19,53L19,53c-0.2,0-0.4,0.1-0.7,0.3c-0.2,0.1-0.3,0.3-0.4,0.4l-0.3,0.4l0-0.6
	c0-0.1,0-0.2,0-0.4c0-0.2,0-0.3,0-0.5c0-0.2,0-0.3,0-0.4c0-0.1,0-0.2,0-0.2c0,0,0-0.1,0-0.1c0-0.1-0.1-0.1-0.2-0.1c0,0-0.1,0-0.1,0
	c0,0-0.1,0-0.1,0c0,0-0.1,0.1-0.1,0.1c0,0,0,0,0,0.1c0,0,0,0.1,0,0.2v0.4c0,0.3,0,0.7,0.1,1.2c0,0.5,0.1,1.1,0.1,1.5
	c0,0.5,0.1,0.8,0.1,0.9c0,0,0,0.1,0.1,0.1c0.1,0.1,0.2,0.1,0.3,0c0,0,0.1,0,0.1-0.1c0,0,0.1,0,0.1,0c0.1,0,0.3-0.1,0.5-0.2
	c0.2-0.1,0.4-0.3,0.6-0.4c0.5-0.5,0.7-1,0.7-1.7V54c0-0.3-0.1-0.6-0.2-0.8C19.4,53.1,19.2,53,19,53z M19,54.6
	c-0.1,0.4-0.3,0.7-0.7,1c-0.1,0.1-0.2,0.1-0.3,0.2c-0.1,0-0.1,0-0.1,0c0,0,0,0,0,0v0c0,0,0-0.1,0-0.2c0-0.1,0-0.2,0.1-0.3
	c0-0.1,0.1-0.2,0.1-0.3c0.2-0.5,0.4-0.8,0.7-1.1c0,0,0.1-0.1,0.1-0.1c0,0,0.1,0,0.1,0h0c0,0,0.1,0.1,0.1,0.2c0,0.1,0,0.2,0,0.4
	C19.1,54.3,19,54.4,19,54.6z"/>
<path id="XMLID_291_" class="st0" d="M24.4,55.2c0-0.7,0-1.4,0-2.1c0-0.2,0-0.4,0-0.6c0-0.3,0-0.5,0-0.6c0-0.1,0-0.2,0-0.3
	c0-0.2,0-0.2,0-0.2c0-0.1-0.1-0.1-0.1-0.2c0,0-0.1,0-0.1,0c0,0-0.1,0-0.1,0c0,0-0.1,0.1-0.1,0.1c0,0,0,0.1,0,0.1c0,0.1,0,0.1,0,0.2
	c0,0.1-0.1,0.3-0.1,0.5c-0.1,0.2-0.1,0.5-0.2,0.7c-0.1,0.2-0.1,0.4-0.1,0.5c0,0,0,0.1-0.1,0.1c0,0-0.1,0-0.2,0c-0.1,0-0.2,0-0.3,0
	c0,0-0.1,0-0.2,0c-0.1,0-0.2,0-0.3,0.1c-0.2,0.1-0.4,0.3-0.5,0.6c-0.2,0.3-0.3,0.6-0.3,1c0,0.1,0,0.2,0,0.3c0,0.2,0,0.4,0.1,0.5
	c0.1,0.2,0.2,0.3,0.3,0.4c0.1,0.1,0.3,0.1,0.5,0c0.3-0.1,0.7-0.7,1.1-1.6l0.3-0.7l0,1c0,0.6,0,1.1,0.1,1.5c0,0.5,0.1,0.7,0.1,0.7
	c0,0,0,0,0,0.1c0,0,0,0,0.1,0.1c0,0,0.1,0,0.2,0c0.1,0,0.1,0,0.1,0c0,0,0,0,0.1-0.1c0.1-0.1,0.1-0.2,0.1-0.2c0,0,0-0.1,0-0.1
	C24.4,56.6,24.4,56.1,24.4,55.2z M22.9,54.4c0,0.1-0.1,0.3-0.2,0.4c-0.1,0.2-0.1,0.3-0.2,0.4c0,0.1-0.1,0.1-0.1,0.2
	c0,0.1-0.1,0.1-0.1,0.1l-0.2,0.2l-0.1-0.3c0-0.1,0-0.1,0-0.2c0-0.1,0-0.3,0.1-0.4c0-0.2,0.1-0.3,0.2-0.5c0.1-0.2,0.2-0.3,0.3-0.4
	c0.1,0,0.1,0,0.2,0c0,0,0,0,0.1,0c0,0,0.1,0,0.1,0.1l0,0C23,54.2,23,54.2,22.9,54.4z"/>
<path id="XMLID_288_" class="st0" d="M26.8,53.2c-0.1,0-0.1,0-0.2,0c-0.2,0-0.3,0-0.5,0.1c-0.3,0.2-0.6,0.4-0.7,0.7
	c-0.2,0.3-0.3,0.6-0.3,1c0,0.3,0.1,0.6,0.2,0.8c0.2,0.2,0.4,0.4,0.6,0.5c0.2,0.1,0.5,0.1,0.8,0.1c0.1,0,0.2-0.1,0.2-0.2
	c0,0,0-0.1,0-0.1c0,0,0-0.1-0.1-0.2c0-0.1-0.1-0.1-0.2-0.1c0,0-0.1,0-0.2,0c-0.1,0-0.2,0-0.3,0c-0.1,0-0.1,0-0.2-0.1
	c0,0-0.1,0-0.1-0.1c0,0-0.1-0.1-0.1-0.1l0,0c0,0,0-0.1,0.1-0.1c0,0,0.1,0,0.1,0c0.1,0,0.2-0.1,0.4-0.2c0.1-0.1,0.3-0.2,0.4-0.4
	c0.2-0.2,0.3-0.4,0.4-0.6c0.1-0.2,0.1-0.3,0.1-0.4c0-0.1,0-0.2-0.1-0.4C27.1,53.3,27,53.2,26.8,53.2z M26.6,53.9c0,0,0,0.1,0,0.1
	c0,0.1-0.1,0.2-0.3,0.4c-0.1,0.1-0.3,0.3-0.4,0.3c0,0-0.1,0.1-0.1,0.1c-0.1,0-0.1,0-0.1,0l0,0c0,0-0.1,0-0.1-0.1c0,0,0-0.1,0-0.1
	c0-0.1,0.1-0.2,0.1-0.3c0.1-0.1,0.1-0.2,0.2-0.3c0.1-0.1,0.2-0.1,0.3-0.2c0.1-0.1,0.2-0.1,0.2-0.1c0,0,0.1,0,0.1,0
	C26.6,53.7,26.7,53.8,26.6,53.9C26.7,53.9,26.7,53.9,26.6,53.9z"/>
<path id="XMLID_114_" class="st0" d="M29.7,55.6c0-0.2,0-0.4,0-0.7c0-0.1,0-0.1,0-0.2l0-0.6c0-0.2,0-0.3-0.1-0.3
	c0,0-0.1-0.1-0.1-0.1c0,0-0.1,0-0.2,0c0,0-0.1,0-0.1,0.1c0,0,0,0.1,0,0.3c0,0.1,0,0.2,0,0.3c0,0.1,0,0.3,0,0.4c0,0.4,0,0.7,0,0.9
	c0,0.2,0,0.3,0,0.3c0.1,0.1,0.1,0.2,0.2,0.2c0,0,0,0,0.1,0c0.1,0,0.2,0,0.2-0.1c0,0,0,0,0-0.1c0,0,0,0,0,0c0,0,0,0,0-0.1
	C29.7,55.9,29.7,55.8,29.7,55.6z"/>
<path id="XMLID_113_" class="st0" d="M29.6,52c0,0-0.1,0-0.1,0c0,0,0,0,0,0c-0.1,0-0.2,0.1-0.3,0.2c-0.1,0.1-0.1,0.2-0.1,0.2
	c0,0,0,0,0,0c0,0,0,0.1,0,0.1c0,0,0.1,0.1,0.1,0.1c0,0,0.1,0,0.1,0c0,0,0.1,0,0.1,0c0,0,0.1-0.1,0.2-0.2c0-0.1,0.1-0.1,0.1-0.2
	c0,0,0-0.1,0-0.1C29.7,52.1,29.6,52,29.6,52z"/>
<path id="XMLID_112_" class="st0" d="M33.2,55.2c-0.2,0-0.5-0.3-0.6-0.8c-0.1-0.2-0.1-0.3-0.2-0.4c0-0.1-0.1-0.1-0.2-0.2
	c-0.2-0.2-0.4-0.2-0.6,0c-0.1,0-0.1,0.1-0.2,0.3c-0.1,0.1-0.2,0.3-0.2,0.4c0,0,0,0.1-0.1,0.1c0,0,0,0.1-0.1,0.1h-0.1v-0.1
	c0,0,0-0.1,0-0.2c0-0.1,0-0.2,0-0.4c0-0.2,0-0.3,0-0.5v-0.2c0-0.1,0-0.1,0-0.2c0,0,0-0.1-0.1-0.1c-0.1,0-0.1-0.1-0.2-0.1
	c-0.1,0-0.1,0-0.2,0.1c0,0-0.1,0.1-0.1,0.1c0,0,0,0.1,0,0.2c0,0.1,0,0.2,0,0.4c0,0.2,0,0.4,0,0.8c0,0.4,0,0.7,0,0.9
	c0,0.2,0,0.3,0,0.4c0,0.1,0,0.1,0.1,0.2c0,0,0,0,0.1,0.1c0,0,0.1,0,0.1,0.1c0,0,0.1,0,0.1,0c0,0,0,0,0.1,0c0,0,0.1,0,0.2-0.1
	c0,0,0.1-0.1,0.1-0.2c0-0.1,0.1-0.2,0.1-0.3c0.1-0.2,0.2-0.5,0.3-0.7c0.1-0.3,0.2-0.3,0.2-0.4c0,0,0,0,0.1,0c0.1,0,0.1,0.1,0.1,0.1
	c0,0,0.1,0.1,0.1,0.3c0.1,0.1,0.1,0.2,0.2,0.3c0.1,0.1,0.1,0.2,0.2,0.2c0.2,0.2,0.4,0.4,0.6,0.4c0,0,0.1,0,0.1,0
	c0.1-0.1,0.2-0.2,0.2-0.3c0-0.1,0-0.1-0.1-0.2C33.3,55.3,33.3,55.2,33.2,55.2z"/>
<path id="XMLID_111_" class="st0" d="M36.9,55.2c-0.2,0-0.5-0.3-0.6-0.8c-0.1-0.2-0.1-0.3-0.2-0.4c0-0.1-0.1-0.1-0.2-0.2
	c-0.2-0.2-0.4-0.2-0.6,0c-0.1,0-0.1,0.1-0.2,0.3c-0.1,0.1-0.2,0.3-0.2,0.4c0,0,0,0.1-0.1,0.1c0,0,0,0.1-0.1,0.1h-0.1v-0.1
	c0,0,0-0.1,0-0.2c0-0.1,0-0.2,0-0.4c0-0.2,0-0.3,0-0.5v-0.2c0-0.1,0-0.1,0-0.2c0,0,0-0.1-0.1-0.1c-0.1,0-0.1-0.1-0.2-0.1
	c-0.1,0-0.1,0-0.2,0.1c0,0-0.1,0.1-0.1,0.1c0,0,0,0.1,0,0.2c0,0.1,0,0.2,0,0.4c0,0.2,0,0.4,0,0.8c0,0.4,0,0.7,0,0.9
	c0,0.2,0,0.3,0,0.4c0,0.1,0,0.1,0.1,0.2c0,0,0,0,0.1,0.1c0,0,0.1,0,0.1,0.1c0,0,0.1,0,0.1,0c0,0,0,0,0.1,0c0,0,0.1,0,0.2-0.1
	c0,0,0.1-0.1,0.1-0.2c0-0.1,0.1-0.2,0.1-0.3c0.1-0.2,0.2-0.5,0.3-0.7c0.1-0.3,0.2-0.3,0.2-0.4c0,0,0,0,0.1,0c0.1,0,0.1,0.1,0.1,0.1
	c0,0,0.1,0.1,0.1,0.3c0.1,0.1,0.1,0.2,0.2,0.3c0.1,0.1,0.1,0.2,0.2,0.2c0.2,0.2,0.4,0.4,0.6,0.4c0,0,0.1,0,0.1,0
	c0.1-0.1,0.2-0.2,0.2-0.3c0-0.1,0-0.1-0.1-0.2C37,55.3,37,55.2,36.9,55.2z"/>
<path id="XMLID_281_" class="st0" d="M39,53.3c-0.1-0.1-0.2-0.1-0.3-0.1c-0.1,0-0.1,0-0.2,0c0,0-0.1,0-0.1,0c0,0-0.1,0-0.1,0
	c0,0-0.1,0-0.2,0.1c-0.1,0.1-0.1,0.1-0.2,0.2c-0.1,0.2-0.2,0.4-0.3,0.6c0,0.2-0.1,0.3-0.1,0.6v0c0,0.2,0,0.4,0.1,0.5
	c0.1,0.3,0.2,0.5,0.3,0.7c0.1,0.2,0.3,0.3,0.5,0.3c0.2,0,0.4,0,0.6-0.2c0.2-0.1,0.3-0.3,0.4-0.6c0.1-0.2,0.2-0.5,0.2-0.8
	c0-0.3-0.1-0.6-0.2-0.9C39.3,53.6,39.2,53.4,39,53.3z M39.1,54.9c0,0.3-0.1,0.5-0.2,0.7c0,0-0.1,0.1-0.1,0.1c0,0-0.1,0-0.1,0
	c-0.1,0-0.2-0.1-0.3-0.2c-0.1-0.1-0.1-0.3-0.1-0.5c0-0.1,0-0.2,0-0.2c0-0.1,0-0.3,0.1-0.4c0-0.2,0.1-0.3,0.2-0.4
	c0,0,0.1-0.1,0.1-0.1c0,0,0.1,0,0.1,0c0.1,0.1,0.2,0.2,0.3,0.4c0,0.2,0.1,0.3,0.1,0.5C39.1,54.8,39.1,54.8,39.1,54.9z"/>
<path id="XMLID_108_" class="st0" d="M43,53C43,53,43,53,43,53c0-0.1-0.1-0.1-0.1-0.2c0,0-0.1-0.1-0.1-0.1c-0.1,0-0.2,0.1-0.3,0.2
	c-0.1,0.2-0.4,0.9-0.8,2c-0.1,0.2-0.2,0.4-0.2,0.6c-0.1,0.3-0.1,0.3-0.2,0.3c-0.1,0-0.1-0.1-0.2-0.3c0-0.1-0.1-0.3-0.2-0.5
	c-0.1-0.3-0.1-0.5-0.1-0.8c0-0.2,0-0.3-0.1-0.4c0-0.1-0.1-0.1-0.1-0.2c-0.1,0-0.1-0.1-0.2-0.1c0,0,0,0-0.1,0c0,0-0.1,0-0.1,0.1
	c0,0,0,0.1,0,0.2c0,0,0,0.1,0,0.1c0,0.1,0,0.2,0.1,0.5c0.2,0.9,0.4,1.6,0.7,1.9c0.1,0.1,0.2,0.1,0.3,0.1l0,0c0.1,0,0.2,0,0.3-0.1
	c0.1-0.1,0.2-0.1,0.2-0.3c0.1-0.2,0.3-0.6,0.5-1.3c0.1-0.3,0.2-0.6,0.3-0.8c0.1-0.3,0.2-0.5,0.2-0.6c0.1-0.1,0.1-0.2,0.1-0.3
	C42.9,53.2,43,53.1,43,53C43,53,43,53,43,53L43,53z"/>
<path id="XMLID_277_" class="st0" d="M45.5,55.3c0-0.1-0.1-0.4-0.1-0.7c0-0.2,0-0.4,0-0.5c0-0.1,0-0.2,0-0.3c0-0.1,0-0.1,0-0.1
	c-0.1-0.1-0.2-0.2-0.3-0.2c0,0-0.1,0-0.1,0c-0.1,0-0.1,0-0.1-0.1c-0.1-0.1-0.2-0.1-0.4-0.1h0c-0.2,0-0.4,0.1-0.5,0.2
	c-0.2,0.1-0.4,0.4-0.5,0.6c-0.1,0.3-0.3,0.6-0.4,0.9c0,0.2-0.1,0.3-0.1,0.5v0.1c0,0.1,0,0.2,0.1,0.3c0.1,0.1,0.1,0.2,0.2,0.2
	c0.1,0,0.2,0,0.3,0c0.3-0.1,0.6-0.5,1-1.1l0.3-0.5l0,0.3c0,0,0,0.1,0,0.1c0,0.1,0,0.1,0,0.2c0,0.2,0.1,0.3,0.1,0.5
	c0,0.1,0.1,0.2,0.1,0.3c0.1,0.1,0.1,0.1,0.2,0.1c0,0,0,0,0.1,0c0,0,0.1,0,0.2-0.2c0-0.1,0-0.1,0-0.1c0-0.1,0-0.1-0.1-0.2
	C45.6,55.6,45.6,55.5,45.5,55.3z M44.3,54.4c-0.1,0.2-0.2,0.4-0.4,0.6c-0.1,0.1-0.1,0.2-0.2,0.3c-0.1,0.1-0.1,0.1-0.1,0.1
	c0,0-0.1,0-0.1-0.1c0,0,0,0,0-0.1c0-0.1,0-0.1,0.1-0.2c0-0.1,0.1-0.2,0.1-0.3c0-0.1,0.1-0.2,0.1-0.2c0.1-0.1,0.2-0.2,0.2-0.3
	c0.1-0.1,0.2-0.1,0.3-0.2h0c0,0,0.1,0,0.1,0c0.1,0,0.1,0.1,0.1,0.1C44.5,54.1,44.5,54.1,44.3,54.4z"/>
<path id="XMLID_105_" class="st0" d="M47.8,53.8c0,0.1,0,0.1,0,0.2v0.1c0,0.2,0,0.3,0,0.4c0,0.1,0.1,0.1,0.1,0.1c0.1,0,0.1,0,0.1,0
	c0,0,0.1,0,0.1,0c0.1,0,0.1-0.1,0.1-0.1c0-0.1,0-0.2,0-0.4c0-0.1,0-0.3,0-0.4c0-0.1-0.1-0.2-0.1-0.3c-0.1-0.2-0.2-0.3-0.4-0.3
	c-0.1,0-0.2,0-0.3,0c-0.1,0-0.2,0-0.3,0c-0.1,0-0.3,0.1-0.4,0.2c-0.1,0.1-0.3,0.3-0.3,0.4c-0.1,0.3-0.2,0.6-0.3,1c0,0.1,0,0.3,0,0.4
	c0,0.2,0,0.4,0.1,0.6c0,0.2,0.1,0.4,0.3,0.5c0.1,0.1,0.3,0.3,0.4,0.3c0.2,0.1,0.3,0.1,0.5,0c0.2-0.1,0.3-0.2,0.5-0.3
	c0.2-0.1,0.3-0.3,0.3-0.4c0,0,0,0,0,0c0-0.1-0.1-0.2-0.2-0.3c-0.1-0.1-0.2,0-0.3,0.1c-0.1,0.1-0.2,0.2-0.3,0.2
	c-0.1,0.1-0.2,0.1-0.3,0c-0.1-0.1-0.2-0.2-0.3-0.4c0-0.1,0-0.3,0-0.4c0-0.1,0-0.2,0-0.3c0-0.1,0-0.3,0.1-0.4
	c0.2-0.6,0.4-0.8,0.6-0.8c0.1,0,0.1,0,0.2,0.1C47.7,53.6,47.8,53.7,47.8,53.8z"/>
<path id="XMLID_104_" class="st0" d="M49.4,52c0,0-0.1,0-0.1,0c0,0,0,0,0,0c-0.1,0-0.2,0.1-0.3,0.2c-0.1,0.1-0.1,0.2-0.1,0.2
	c0,0,0,0,0,0c0,0,0,0.1,0,0.1c0,0,0.1,0.1,0.1,0.1c0,0,0.1,0,0.1,0c0,0,0.1,0,0.1,0c0,0,0.1-0.1,0.2-0.2c0-0.1,0.1-0.1,0.1-0.2
	c0,0,0-0.1,0-0.1C49.5,52.1,49.5,52,49.4,52z"/>
<path id="XMLID_103_" class="st0" d="M49.5,55.6c0-0.2,0-0.4,0-0.7c0-0.1,0-0.1,0-0.2l0-0.6c0-0.2,0-0.3-0.1-0.3
	c0,0-0.1-0.1-0.1-0.1c0,0-0.1,0-0.2,0c0,0-0.1,0-0.1,0.1c0,0,0,0.1,0,0.3c0,0.1,0,0.2,0,0.3c0,0.1,0,0.3,0,0.4c0,0.4,0,0.7,0,0.9
	c0,0.2,0,0.3,0,0.3c0.1,0.1,0.1,0.2,0.2,0.2c0,0,0,0,0.1,0c0.1,0,0.2,0,0.2-0.1c0,0,0,0,0-0.1c0,0,0,0,0,0c0,0,0,0,0-0.1
	C49.5,55.9,49.5,55.8,49.5,55.6z"/>
<path id="XMLID_271_" class="st0" d="M51.4,53.3c-0.1-0.1-0.2-0.1-0.3-0.1c-0.1,0-0.1,0-0.2,0c0,0-0.1,0-0.1,0c0,0-0.1,0-0.1,0
	c0,0-0.1,0-0.2,0.1c-0.1,0.1-0.1,0.1-0.2,0.2c-0.1,0.2-0.2,0.4-0.3,0.6c0,0.2-0.1,0.3-0.1,0.6v0c0,0.2,0,0.4,0.1,0.5
	c0.1,0.3,0.2,0.5,0.3,0.7c0.1,0.2,0.3,0.3,0.5,0.3c0.2,0,0.4,0,0.6-0.2c0.2-0.1,0.3-0.3,0.4-0.6c0.1-0.2,0.2-0.5,0.2-0.8
	c0-0.3-0.1-0.6-0.2-0.9C51.8,53.6,51.6,53.4,51.4,53.3z M51.5,54.9c0,0.3-0.1,0.5-0.2,0.7c0,0-0.1,0.1-0.1,0.1c0,0-0.1,0-0.1,0
	c-0.1,0-0.2-0.1-0.3-0.2c-0.1-0.1-0.1-0.3-0.1-0.5c0-0.1,0-0.2,0-0.2c0-0.1,0-0.3,0.1-0.4c0-0.2,0.1-0.3,0.2-0.4
	c0,0,0.1-0.1,0.1-0.1c0,0,0.1,0,0.1,0c0.1,0.1,0.2,0.2,0.3,0.4c0,0.2,0.1,0.3,0.1,0.5C51.5,54.8,51.5,54.8,51.5,54.9z"/>
<path id="XMLID_100_" class="st0" d="M55.6,55.2c-0.2,0-0.5-0.3-0.6-0.8c-0.1-0.2-0.1-0.3-0.2-0.4c0-0.1-0.1-0.1-0.2-0.2
	c-0.2-0.2-0.4-0.2-0.6,0c-0.1,0-0.1,0.1-0.2,0.3c-0.1,0.1-0.2,0.3-0.2,0.4c0,0,0,0.1-0.1,0.1c0,0,0,0.1-0.1,0.1h-0.1v-0.1
	c0,0,0-0.1,0-0.2c0-0.1,0-0.2,0-0.4c0-0.2,0-0.3,0-0.5v-0.2c0-0.1,0-0.1,0-0.2c0,0,0-0.1-0.1-0.1c-0.1,0-0.1-0.1-0.2-0.1
	c-0.1,0-0.1,0-0.2,0.1c0,0-0.1,0.1-0.1,0.1c0,0,0,0.1,0,0.2c0,0.1,0,0.2,0,0.4c0,0.2,0,0.4,0,0.8c0,0.4,0,0.7,0,0.9
	c0,0.2,0,0.3,0,0.4c0,0.1,0,0.1,0.1,0.2c0,0,0,0,0.1,0.1c0,0,0.1,0,0.1,0.1c0,0,0.1,0,0.1,0c0,0,0,0,0.1,0c0,0,0.1,0,0.2-0.1
	c0,0,0.1-0.1,0.1-0.2c0-0.1,0.1-0.2,0.1-0.3c0.1-0.2,0.2-0.5,0.3-0.7c0.1-0.3,0.2-0.3,0.2-0.4c0,0,0,0,0.1,0c0.1,0,0.1,0.1,0.1,0.1
	c0,0,0.1,0.1,0.1,0.3c0.1,0.1,0.1,0.2,0.2,0.3c0.1,0.1,0.1,0.2,0.2,0.2c0.2,0.2,0.4,0.4,0.6,0.4c0,0,0.1,0,0.1,0
	c0.1-0.1,0.2-0.2,0.2-0.3c0-0.1,0-0.1-0.1-0.2C55.7,55.3,55.6,55.2,55.6,55.2z"/>
<path id="XMLID_99_" class="st0" d="M52,51.2c-0.3,0-0.7,0.6-0.8,0.9c0,0.1-0.1,0.1-0.1,0.2c0,0.1,0,0.2,0,0.2
	c0,0.1,0.1,0.1,0.2,0.1c0,0,0.1,0,0.2-0.1c0-0.1,0.1-0.2,0.2-0.3c0.2-0.3,0.6-0.7,0.6-0.9c0,0,0,0,0-0.1
	C52.2,51.3,52.1,51.2,52,51.2z"/>
<g id="XMLID_257_">
	<g id="XMLID_266_">
		<path id="XMLID_98_" class="st1" d="M8.5,36.7H6v-3.2c0-0.1-0.1-0.2-0.2-0.2H3.9c-0.1,0-0.2,0.1-0.2,0.2v3.2H2.2
			c-0.1,0-0.2,0.1-0.2,0.2v1.6c0,0.1,0.1,0.2,0.2,0.2h1.5V47c0,0.1,0.1,0.2,0.2,0.2h1.8C5.8,47.2,6,47.1,6,47v-8.2h2.6
			c0.1,0,0.2-0.1,0.2-0.2v-1.6C8.8,36.8,8.7,36.7,8.5,36.7z"/>
		<path id="XMLID_97_" class="st1" d="M15.5,36.5c-1.3,0-2.3,0.5-3,1.4v-6.9c0-0.1-0.1-0.2-0.2-0.2h-1.8c-0.1,0-0.2,0.1-0.2,0.2V47
			c0,0.1,0.1,0.2,0.2,0.2h1.8c0.1,0,0.2-0.1,0.2-0.2v-4.4c0-1.6,1-3.8,2.9-3.8c1.6,0,1.8,1.3,1.8,2V47c0,0.1,0.1,0.2,0.2,0.2h1.8
			c0.1,0,0.2-0.1,0.2-0.2v-6.5C19.6,39.6,19.3,36.5,15.5,36.5z"/>
	</g>
	<g id="XMLID_258_">
		<path id="XMLID_96_" class="st1" d="M33,36.5c-1.3,0-2.3,0.5-3,1.4v-1c0-0.1-0.1-0.2-0.2-0.2H28c-0.1,0-0.2,0.1-0.2,0.2V47
			c0,0.1,0.1,0.2,0.2,0.2h1.8c0.1,0,0.2-0.1,0.2-0.2v-4.4c0-1.6,1-3.8,2.9-3.8c1.6,0,1.8,1.3,1.8,2V47c0,0.1,0.1,0.2,0.2,0.2h1.8
			c0.1,0,0.2-0.1,0.2-0.2v-6.5c0-0.6-0.1-1.7-0.8-2.6C35.6,36.9,34.5,36.5,33,36.5z"/>
		<path id="XMLID_95_" class="st1" d="M44.6,41.2l3.8-4.1c0.1-0.1,0.1-0.2,0-0.3c0-0.1-0.1-0.1-0.2-0.1h-2.5c-0.1,0-0.1,0-0.2,0.1
			l-3.1,3.6v-9.4c0-0.1-0.1-0.2-0.2-0.2h-1.8c-0.1,0-0.2,0.1-0.2,0.2V47c0,0.1,0.1,0.2,0.2,0.2h1.8c0.1,0,0.2-0.1,0.2-0.2v-4.9
			l3.8,5c0,0.1,0.1,0.1,0.2,0.1h2.4c0.1,0,0.2-0.1,0.2-0.1c0-0.1,0-0.2,0-0.3L44.6,41.2z"/>
		<circle id="XMLID_94_" class="st1" cx="51.9" cy="33.8" r="1.4"/>
		<path id="XMLID_93_" class="st1" d="M52.8,36.7H51c-0.1,0-0.2,0.1-0.2,0.2V47c0,0.1,0.1,0.2,0.2,0.2h1.8c0.1,0,0.2-0.1,0.2-0.2
			V36.9C53,36.8,52.9,36.7,52.8,36.7z"/>
		<path id="XMLID_90_" class="st1" d="M65.5,36.7h-1.8c-0.1,0-0.2,0.1-0.2,0.2v0.7c-0.8-0.8-1.8-1.2-3-1.2c-3,0-5.4,2.4-5.4,5.5
			c0,3.1,2.4,5.5,5.4,5.5c1.2,0,2.2-0.4,3-1.2V47c0,0.1,0.1,0.2,0.2,0.2h1.8c0.1,0,0.2-0.1,0.2-0.2V36.9
			C65.8,36.8,65.7,36.7,65.5,36.7z M63.5,40.5v2.8c-0.5,1.1-1.6,1.8-2.9,1.8c-1.8,0-3.2-1.4-3.2-3.2c0-1.8,1.4-3.2,3.2-3.2
			C61.9,38.8,63,39.4,63.5,40.5z"/>
	</g>
</g>
<path id="XMLID_89_" class="st2" d="M23.6,36.7c-0.1,0-0.3,0.1-0.5,0.2l0,0c-0.1,0.1-0.2,0.1-0.3,0.3c0,0.1-0.1,0.4-0.1,1
	c0,0.3,0,0.6,0,1c0,0.4,0,0.9,0,1.5l0,0.1c0,1.4,0,4,0,4.6c0,0.8,0.1,1.1,0.1,1.1c0.2,0.5,0.5,0.7,0.8,0.8l0,0c0.1,0,0.1,0,0.1,0
	c0.3,0,0.5-0.1,0.7-0.5c0.1-0.1,0.1-0.2,0.1-0.2c0,0,0,0,0-0.1c0-0.1,0-0.2,0-0.3l0,0c0-0.2,0-0.6,0-1.4c0-0.4,0-1.3,0-2.1
	c0-0.8,0-1.5,0-1.9c0-0.2,0-0.4,0-0.6L24.4,38c0-0.5-0.2-0.9-0.4-1.2C23.9,36.7,23.8,36.7,23.6,36.7z"/>
<path id="XMLID_88_" class="st2" d="M23.7,32.5c-0.3,0.1-0.6,0.3-0.8,0.7c-0.2,0.3-0.3,0.6-0.3,0.9c0,0,0,0.1,0,0.1
	c0,0.2,0.1,0.3,0.1,0.4c0.1,0.1,0.2,0.2,0.3,0.3c0.1,0.1,0.3,0.1,0.4,0.1c0.1,0,0.2,0,0.4-0.1c0.1,0,0.3-0.2,0.6-0.6
	c0.2-0.3,0.2-0.5,0.2-0.7c0-0.2,0-0.3-0.1-0.5c-0.1-0.1-0.2-0.3-0.4-0.4C24.1,32.5,23.9,32.5,23.7,32.5z"/>
<g id="XMLID_197_">
	<g id="XMLID_198_">
		<g id="XMLID_228_">
			<g id="XMLID_229_">
				<g id="XMLID_230_">
					<path id="XMLID_231_" class="st3" d="M23.6,34c-0.1,0-0.2,0-0.2-0.1c0,0,0,0,0-0.1c0-0.1,0-0.3,0-0.5c0-0.1,0.1-0.1,0.2-0.1
						c0.1,0,0.1,0.1,0.1,0.2c0,0.2,0,0.4,0,0.5c0,0,0,0,0,0C23.7,33.9,23.7,34,23.6,34C23.6,34,23.6,34,23.6,34z M23.7,32.9
						C23.6,32.9,23.6,32.9,23.7,32.9c-0.1,0-0.2-0.1-0.2-0.2c0-0.2,0.1-0.4,0.2-0.6c0-0.1,0.1-0.1,0.2-0.1c0.1,0,0.1,0.1,0.1,0.2
						c-0.1,0.2-0.1,0.3-0.2,0.5C23.8,32.8,23.7,32.9,23.7,32.9z M24.1,31.9c0,0-0.1,0-0.1,0c-0.1,0-0.1-0.1,0-0.2
						c0.1-0.2,0.2-0.3,0.4-0.5c0.1-0.1,0.2-0.1,0.2,0c0.1,0.1,0.1,0.2,0,0.2c-0.1,0.1-0.2,0.3-0.3,0.4
						C24.2,31.8,24.2,31.9,24.1,31.9z M24.9,31.1c-0.1,0-0.1,0-0.1-0.1c0-0.1,0-0.2,0-0.2c0.2-0.1,0.3-0.2,0.5-0.3
						c0.1,0,0.2,0,0.2,0.1c0,0.1,0,0.2-0.1,0.2C25.3,30.8,25.1,30.9,24.9,31.1C24.9,31.1,24.9,31.1,24.9,31.1z M25.9,30.5
						c-0.1,0-0.1,0-0.2-0.1c0-0.1,0-0.2,0.1-0.2c0.2-0.1,0.4-0.1,0.5-0.2c0.1,0,0.2,0,0.2,0.1c0,0.1,0,0.2-0.1,0.2
						C26.3,30.4,26.1,30.4,25.9,30.5C25.9,30.5,25.9,30.5,25.9,30.5z M27,30.2c-0.1,0-0.1,0-0.2-0.1c0-0.1,0-0.2,0.1-0.2
						c0.2,0,0.4-0.1,0.6-0.1c0.1,0,0.2,0,0.2,0.1c0,0.1,0,0.2-0.1,0.2C27.3,30.1,27.1,30.2,27,30.2C27,30.2,27,30.2,27,30.2z
						 M29.2,29.9c-0.1,0-0.2,0-0.2-0.1c0-0.1,0-0.2,0.1-0.2c0.2,0,0.4,0,0.6-0.1c0.1,0,0.2,0,0.2,0.1c0,0.1,0,0.2-0.1,0.2
						C29.6,29.9,29.4,29.9,29.2,29.9C29.2,29.9,29.2,29.9,29.2,29.9z M28.6,30C28.6,30,28.6,30,28.6,30c-0.1,0-0.2,0-0.4,0
						c-0.1,0-0.1,0-0.2,0c-0.1,0-0.2-0.1-0.2-0.1c0-0.1,0.1-0.2,0.1-0.2c0.1,0,0.1,0,0.2,0c0.1,0,0.2,0,0.4,0c0.1,0,0.2,0.1,0.2,0.1
						C28.8,29.9,28.7,30,28.6,30z M30.3,29.8c-0.1,0-0.1,0-0.2-0.1c0-0.1,0-0.2,0.1-0.2c0.2,0,0.4-0.1,0.5-0.1c0.1,0,0.2,0,0.2,0.1
						c0,0.1,0,0.2-0.1,0.2C30.7,29.7,30.5,29.7,30.3,29.8C30.3,29.8,30.3,29.8,30.3,29.8z M31.4,29.5c-0.1,0-0.1,0-0.2-0.1
						c0-0.1,0-0.2,0.1-0.2c0.2-0.1,0.4-0.1,0.5-0.2c0.1,0,0.2,0,0.2,0.1c0,0.1,0,0.2-0.1,0.2C31.8,29.4,31.6,29.4,31.4,29.5
						C31.4,29.5,31.4,29.5,31.4,29.5z M32.4,29.1c-0.1,0-0.1,0-0.2-0.1c0-0.1,0-0.2,0.1-0.2c0.2-0.1,0.3-0.1,0.5-0.2
						c0.1,0,0.2,0,0.2,0.1c0,0.1,0,0.2-0.1,0.2C32.8,29,32.7,29,32.4,29.1C32.5,29.1,32.5,29.1,32.4,29.1z M33.5,28.6
						c-0.1,0-0.1,0-0.1-0.1c0-0.1,0-0.2,0.1-0.2c0.2-0.1,0.3-0.2,0.5-0.3c0.1,0,0.2,0,0.2,0c0,0.1,0,0.2,0,0.2
						C33.8,28.4,33.7,28.5,33.5,28.6C33.5,28.6,33.5,28.6,33.5,28.6z M34.4,28c0,0-0.1,0-0.1-0.1c-0.1-0.1,0-0.2,0-0.2
						c0.1-0.1,0.3-0.2,0.4-0.4c0.1-0.1,0.2-0.1,0.2,0c0.1,0.1,0.1,0.2,0,0.2C34.8,27.7,34.6,27.9,34.4,28C34.4,28,34.4,28,34.4,28z
						 M35.2,27.2c0,0-0.1,0-0.1,0c-0.1-0.1-0.1-0.1,0-0.2c0.1-0.1,0.2-0.3,0.3-0.4c0-0.1,0.1-0.1,0.2,0c0.1,0,0.1,0.1,0,0.2
						C35.5,26.9,35.4,27,35.2,27.2C35.3,27.2,35.2,27.2,35.2,27.2z M35.8,26.3C35.8,26.3,35.8,26.3,35.8,26.3
						c-0.2-0.1-0.2-0.1-0.1-0.2c0.1-0.2,0.2-0.3,0.2-0.5c0-0.1,0.1-0.1,0.2-0.1c0.1,0,0.1,0.1,0.1,0.2c-0.1,0.2-0.1,0.4-0.2,0.5
						C35.9,26.3,35.9,26.3,35.8,26.3z M36.2,25.2C36.2,25.2,36.2,25.2,36.2,25.2c-0.1,0-0.2-0.1-0.2-0.2c0-0.2,0.1-0.4,0.1-0.5
						c0-0.1,0.1-0.1,0.2-0.1c0.1,0,0.1,0.1,0.1,0.2c0,0.2,0,0.4-0.1,0.6C36.3,25.2,36.2,25.2,36.2,25.2z M36.3,24.1
						C36.3,24.1,36.3,24.1,36.3,24.1c-0.1,0-0.2-0.1-0.2-0.1c0-0.1,0-0.2,0-0.3c0-0.1,0-0.2,0-0.3c0-0.1,0-0.2,0.1-0.2
						c0.1,0,0.2,0,0.2,0.1c0,0.1,0,0.2,0,0.3c0,0.1,0,0.2,0,0.3C36.4,24,36.4,24.1,36.3,24.1z M36.1,23c-0.1,0-0.1,0-0.2-0.1
						c-0.1-0.2-0.1-0.3-0.2-0.5c0-0.1,0-0.2,0.1-0.2c0.1,0,0.2,0,0.2,0.1c0.1,0.2,0.2,0.4,0.2,0.5C36.2,22.9,36.2,23,36.1,23
						C36.1,23,36.1,23,36.1,23z M35.6,22c-0.1,0-0.1,0-0.1-0.1c-0.1-0.2-0.2-0.3-0.3-0.4c-0.1-0.1,0-0.2,0-0.2c0.1-0.1,0.2,0,0.2,0
						c0.1,0.1,0.2,0.3,0.3,0.5C35.8,21.8,35.7,21.9,35.6,22C35.7,22,35.6,22,35.6,22z M34.9,21.1c0,0-0.1,0-0.1,0
						c-0.1-0.1-0.3-0.2-0.4-0.3c-0.1,0-0.1-0.1,0-0.2c0-0.1,0.1-0.1,0.2,0c0.2,0.1,0.3,0.2,0.4,0.4C35.1,20.9,35.1,21,34.9,21.1
						C35,21.1,34.9,21.1,34.9,21.1z M34,20.5C34,20.5,33.9,20.5,34,20.5c-0.2-0.1-0.4-0.2-0.6-0.2c-0.1,0-0.1-0.1-0.1-0.2
						c0-0.1,0.1-0.1,0.2-0.1c0.2,0.1,0.4,0.1,0.5,0.2c0.1,0,0.1,0.1,0.1,0.2C34.1,20.4,34,20.5,34,20.5z M32.9,20.1
						C32.9,20.1,32.9,20.1,32.9,20.1c-0.2,0-0.4-0.1-0.6-0.1c-0.1,0-0.1-0.1-0.1-0.2c0-0.1,0.1-0.1,0.2-0.1c0.2,0,0.4,0,0.6,0.1
						c0.1,0,0.1,0.1,0.1,0.2C33.1,20,33,20.1,32.9,20.1z M31.8,20C31.8,20,31.8,20,31.8,20c-0.2,0-0.4,0-0.6,0.1
						c-0.1,0-0.2,0-0.2-0.1c0-0.1,0-0.2,0.1-0.2c0.2,0,0.4-0.1,0.6-0.1c0.1,0,0.2,0.1,0.2,0.1C32,19.9,31.9,20,31.8,20z"/>
				</g>
			</g>
		</g>
		<g id="XMLID_199_">
			<g id="XMLID_200_">
				<g id="XMLID_201_">
					<path id="XMLID_202_" class="st3" d="M45.1,20.9C45.1,20.9,45.1,20.9,45.1,20.9c-0.2,0-0.4,0-0.6,0c-0.1,0-0.1-0.1-0.1-0.2
						c0-0.1,0.1-0.1,0.2-0.1c0.2,0,0.4,0,0.5,0c0.1,0,0.2,0.1,0.2,0.1C45.3,20.8,45.2,20.9,45.1,20.9z M45.7,20.8
						c-0.1,0-0.1,0-0.2-0.1c0-0.1,0-0.2,0.1-0.2c0.2,0,0.3-0.1,0.5-0.1c0.1,0,0.2,0,0.2,0.1c0,0.1,0,0.2-0.1,0.2
						C46.1,20.7,45.9,20.7,45.7,20.8C45.7,20.8,45.7,20.8,45.7,20.8z M44,20.8C44,20.8,44,20.8,44,20.8c-0.2-0.1-0.4-0.1-0.6-0.2
						c-0.1,0-0.1-0.1-0.1-0.2c0-0.1,0.1-0.1,0.2-0.1c0.2,0.1,0.3,0.1,0.5,0.2c0.1,0,0.1,0.1,0.1,0.2C44.1,20.7,44.1,20.8,44,20.8z
						 M46.7,20.4c-0.1,0-0.1,0-0.2-0.1c0-0.1,0-0.2,0.1-0.2c0.2-0.1,0.3-0.2,0.5-0.3c0.1,0,0.2,0,0.2,0.1c0,0.1,0,0.2-0.1,0.2
						C47.1,20.2,47,20.3,46.7,20.4C46.8,20.4,46.8,20.4,46.7,20.4z M47.7,19.8c-0.1,0-0.1,0-0.1-0.1c0-0.1,0-0.2,0-0.2
						c0.3-0.2,0.4-0.3,0.4-0.3c0.1-0.1,0.2-0.1,0.2,0c0.1,0.1,0.1,0.2,0,0.2C48.2,19.4,48.1,19.6,47.7,19.8
						C47.8,19.8,47.7,19.8,47.7,19.8z M43,20.3C43,20.3,42.9,20.3,43,20.3c-0.3-0.1-0.4-0.2-0.6-0.4c-0.1-0.1-0.1-0.1,0-0.2
						c0.1-0.1,0.1-0.1,0.2,0c0.1,0.1,0.3,0.2,0.4,0.3c0.1,0,0.1,0.1,0,0.2C43.1,20.3,43,20.3,43,20.3z M42.1,19.6c0,0-0.1,0-0.1,0
						c-0.1-0.1-0.3-0.3-0.4-0.4c-0.1-0.1,0-0.2,0-0.2c0.1-0.1,0.2,0,0.2,0c0.1,0.1,0.2,0.3,0.4,0.4C42.3,19.4,42.3,19.5,42.1,19.6
						C42.2,19.6,42.2,19.6,42.1,19.6z M30.9,20.2c0,0-0.1,0-0.1-0.1c-0.1-0.1-0.2-0.3-0.3-0.4c0-0.1,0-0.2,0-0.2c0.1,0,0.2,0,0.2,0
						c0.1,0.1,0.2,0.3,0.3,0.4C31.1,20,31.1,20.1,30.9,20.2C31,20.2,30.9,20.2,30.9,20.2z M41.4,18.7c-0.1,0-0.1,0-0.1-0.1
						c-0.1-0.2-0.2-0.3-0.3-0.5c0-0.1,0-0.2,0.1-0.2c0.1,0,0.2,0,0.2,0.1c0.1,0.2,0.2,0.3,0.3,0.5C41.6,18.5,41.6,18.6,41.4,18.7
						C41.5,18.7,41.5,18.7,41.4,18.7z M30.3,19.3c-0.1,0-0.1,0-0.2-0.1C30.1,19,30,18.9,30,18.7c0-0.1,0-0.2,0.1-0.2
						c0.1,0,0.2,0,0.2,0.1c0.1,0.2,0.1,0.3,0.2,0.5C30.5,19.2,30.5,19.2,30.3,19.3C30.4,19.3,30.4,19.3,30.3,19.3z M40.9,17.7
						c-0.1,0-0.1,0-0.1-0.1c-0.1-0.2-0.2-0.3-0.3-0.5c0-0.1,0-0.2,0.1-0.2c0.1,0,0.2,0,0.2,0.1c0.1,0.2,0.2,0.3,0.3,0.5
						C41,17.6,41,17.7,40.9,17.7C40.9,17.7,40.9,17.7,40.9,17.7z M30,18.2c-0.1,0-0.1,0-0.2-0.1c0-0.1,0-0.2,0-0.3
						c0-0.1,0-0.2,0-0.3c0-0.1,0.1-0.1,0.1-0.2c0.1,0,0.2,0.1,0.2,0.1c0,0.1,0,0.2,0,0.3c0,0.1,0,0.2,0,0.3
						C30.1,18.1,30.1,18.2,30,18.2C30,18.2,30,18.2,30,18.2z M40.3,16.8c-0.1,0-0.1,0-0.1-0.1c-0.1-0.2-0.2-0.3-0.3-0.5
						c0-0.1,0-0.2,0-0.2c0.1,0,0.2,0,0.2,0c0.1,0.2,0.2,0.3,0.3,0.5C40.4,16.6,40.4,16.7,40.3,16.8C40.3,16.8,40.3,16.8,40.3,16.8z
						 M29.9,17.1C29.9,17.1,29.9,17.1,29.9,17.1c-0.1,0-0.2-0.1-0.2-0.2c0-0.2,0-0.4,0.1-0.6c0-0.1,0.1-0.1,0.2-0.1
						c0.1,0,0.1,0.1,0.1,0.2c0,0.2-0.1,0.4-0.1,0.5C30.1,17,30,17.1,29.9,17.1z M39.6,15.9c0,0-0.1,0-0.1-0.1
						c-0.1-0.1-0.2-0.3-0.4-0.4c-0.1-0.1,0-0.2,0-0.2c0.1-0.1,0.2,0,0.2,0c0.1,0.1,0.2,0.3,0.4,0.4C39.8,15.7,39.8,15.8,39.6,15.9
						C39.7,15.8,39.7,15.9,39.6,15.9z M30.2,16C30.2,16,30.1,16,30.2,16C30,16,30,15.9,30,15.8c0.1-0.2,0.1-0.4,0.2-0.5
						c0-0.1,0.1-0.1,0.2-0.1c0.1,0,0.1,0.1,0.1,0.2c-0.1,0.2-0.2,0.3-0.2,0.5C30.3,16,30.2,16,30.2,16z M38.9,15c0,0-0.1,0-0.1,0
						c-0.1-0.1-0.3-0.3-0.4-0.4c-0.1-0.1-0.1-0.2,0-0.2c0.1-0.1,0.2-0.1,0.2,0c0.1,0.1,0.3,0.3,0.4,0.4C39,14.8,39,14.9,38.9,15
						C39,15,38.9,15,38.9,15z M38.1,14.3c0,0-0.1,0-0.1,0c-0.1-0.1-0.3-0.2-0.4-0.3c-0.1,0-0.1-0.1,0-0.2c0-0.1,0.1-0.1,0.2,0
						c0.2,0.1,0.3,0.2,0.5,0.3C38.2,14,38.2,14.1,38.1,14.3C38.1,14.2,38.1,14.2,38.1,14.3z M30.7,15C30.7,15,30.6,15,30.7,15
						c-0.2-0.1-0.2-0.2-0.1-0.2c0.1-0.2,0.2-0.3,0.3-0.5c0.1-0.1,0.1-0.1,0.2,0c0.1,0.1,0.1,0.1,0,0.2c-0.1,0.1-0.2,0.3-0.3,0.4
						C30.8,15,30.7,15,30.7,15z M37.1,13.6C37.1,13.6,37.1,13.6,37.1,13.6c-0.3-0.1-0.4-0.2-0.6-0.3c-0.1,0-0.1-0.1-0.1-0.2
						c0-0.1,0.1-0.1,0.2-0.1c0.2,0.1,0.3,0.2,0.5,0.3c0.1,0,0.1,0.1,0.1,0.2C37.2,13.6,37.2,13.6,37.1,13.6z M31.4,14.2
						c0,0-0.1,0-0.1,0c-0.1-0.1-0.1-0.2,0-0.2c0.1-0.1,0.3-0.3,0.4-0.4c0.1,0,0.2,0,0.2,0c0,0.1,0,0.2,0,0.2
						C31.8,13.9,31.6,14,31.4,14.2C31.5,14.1,31.5,14.2,31.4,14.2z M36.1,13.1C36.1,13.2,36.1,13.1,36.1,13.1
						c-0.2-0.1-0.4-0.1-0.6-0.2c-0.1,0-0.1-0.1-0.1-0.2c0-0.1,0.1-0.1,0.2-0.1c0.2,0,0.4,0.1,0.6,0.2c0.1,0,0.1,0.1,0.1,0.2
						C36.2,13.1,36.2,13.1,36.1,13.1z M32.3,13.5c-0.1,0-0.1,0-0.1-0.1c0-0.1,0-0.2,0.1-0.2c0.2-0.1,0.3-0.2,0.5-0.3
						c0.1,0,0.2,0,0.2,0.1c0,0.1,0,0.2-0.1,0.2C32.7,13.3,32.5,13.4,32.3,13.5C32.4,13.5,32.3,13.5,32.3,13.5z M35,12.9
						C35,12.9,35,12.9,35,12.9c-0.2,0-0.4,0-0.6,0c-0.1,0-0.2-0.1-0.2-0.1c0-0.1,0.1-0.2,0.1-0.2c0.2,0,0.4,0,0.6,0
						c0.1,0,0.1,0.1,0.1,0.2C35.2,12.8,35.1,12.9,35,12.9z M33.4,13.1c-0.1,0-0.1,0-0.2-0.1c0-0.1,0-0.2,0.1-0.2
						c0.2-0.1,0.4-0.1,0.6-0.1c0.1,0,0.2,0,0.2,0.1c0,0.1,0,0.2-0.1,0.2C33.7,13,33.6,13,33.4,13.1C33.4,13,33.4,13.1,33.4,13.1z"/>
				</g>
			</g>
		</g>
	</g>
</g>
<g id="XMLID_191_">
	<g id="XMLID_194_">
		<path id="XMLID_39_" class="st4" d="M25.9,28.2c0.6-1.2,2.9-1.3,4.1-0.7c1.2,0.6,1.3,2.9,0.7,4.1c-0.6,1.2-2.9,1.3-4.1,0.7
			C25.4,31.7,25.3,29.4,25.9,28.2"/>
		<path id="XMLID_38_" class="st4" d="M31.7,27.9c-0.1-0.7,2.1-1.6,2.8-1.7c0.7-0.1,1.6,2.1,1.7,2.8c0.1,0.7-2.1,1.6-2.8,1.7
			C32.8,30.8,31.8,28.6,31.7,27.9"/>
	</g>
	<g id="XMLID_192_">
		<path id="XMLID_37_" class="st4" d="M48.4,23c-2,0.1-3.7-1.5-3.8-3.5c-0.1-2,1.5-3.7,3.5-3.8c2-0.1,3.7,1.5,3.8,3.5
			C52,21.3,50.5,23,48.4,23"/>
	</g>
</g>
<path id="XMLID_36_" class="st4" d="M25.9,28.2c0.6-1.2,2.9-1.3,4.1-0.7c1.2,0.6,1.3,2.9,0.7,4.1c-0.6,1.2-2.9,1.3-4.1,0.7
	C25.4,31.7,25.3,29.4,25.9,28.2"/>
<path id="XMLID_35_" class="st4" d="M31.7,27.9c-0.1-0.7,2.1-1.6,2.8-1.7c0.7-0.1,1.6,2.1,1.7,2.8c0.1,0.7-2.1,1.6-2.8,1.7
	C32.8,30.8,31.8,28.6,31.7,27.9"/>
<rect id="XMLID_34_" x="34.9" y="22.1" transform="matrix(-0.9848 0.1735 -0.1735 -0.9848 76.1029 40.2534)" class="st4" width="2.7" height="2.7"/>
<g id="XMLID_160_">
	<g id="XMLID_161_">
		<path id="XMLID_162_" class="st3" d="M27.4,23.2c-0.1,0-0.1,0-0.2,0c-0.1,0-0.2-0.1-0.2-0.1c0-0.1,0.1-0.2,0.1-0.2
			c0.2,0,0.4,0,0.5-0.1c0.1,0,0.2,0,0.2,0.1c0,0.1,0,0.2-0.1,0.2C27.6,23.1,27.5,23.1,27.4,23.2z M26.6,23.2
			C26.6,23.2,26.6,23.2,26.6,23.2c-0.2,0-0.4,0-0.6-0.1c-0.1,0-0.1-0.1-0.1-0.2c0-0.1,0.1-0.1,0.2-0.1c0.2,0,0.4,0,0.5,0.1
			c0.1,0,0.1,0.1,0.1,0.2C26.8,23.1,26.7,23.2,26.6,23.2z M28.3,23c-0.1,0-0.1,0-0.2-0.1c0-0.1,0-0.2,0.1-0.2
			c0.2-0.1,0.3-0.1,0.5-0.2c0.1,0,0.2,0,0.2,0.1c0,0.1,0,0.2-0.1,0.2C28.7,22.8,28.5,22.9,28.3,23C28.3,23,28.3,23,28.3,23z
			 M25.5,23C25.5,23,25.5,23,25.5,23c-0.2-0.1-0.4-0.1-0.6-0.2c-0.1,0-0.1-0.1-0.1-0.2c0-0.1,0.1-0.1,0.2-0.1
			c0.2,0.1,0.3,0.1,0.5,0.2c0.1,0,0.1,0.1,0.1,0.2C25.6,23,25.6,23,25.5,23z M29.3,22.5c-0.1,0-0.1,0-0.1-0.1c0-0.1,0-0.2,0-0.2
			c0.2-0.1,0.3-0.2,0.4-0.3c0.1-0.1,0.2,0,0.2,0c0.1,0.1,0,0.2,0,0.2C29.7,22.2,29.5,22.3,29.3,22.5C29.4,22.5,29.3,22.5,29.3,22.5z
			 M24.5,22.6C24.5,22.6,24.4,22.6,24.5,22.6c-0.3-0.1-0.4-0.2-0.6-0.3c-0.1,0-0.1-0.1,0-0.2c0-0.1,0.1-0.1,0.2,0
			c0.1,0.1,0.3,0.2,0.5,0.3c0.1,0,0.1,0.1,0.1,0.2C24.6,22.5,24.5,22.6,24.5,22.6z M30.2,21.7c0,0-0.1,0-0.1,0
			c-0.1-0.1-0.1-0.1,0-0.2c0.1-0.1,0.2-0.3,0.3-0.4c0-0.1,0.1-0.1,0.2,0c0.1,0,0.1,0.1,0,0.2C30.5,21.4,30.4,21.5,30.2,21.7
			C30.2,21.7,30.2,21.7,30.2,21.7z M23.6,21.9c0,0-0.1,0-0.1,0c-0.1-0.1-0.3-0.3-0.4-0.4c-0.1-0.1,0-0.2,0-0.2c0.1-0.1,0.2,0,0.2,0
			c0.1,0.1,0.2,0.3,0.4,0.4C23.7,21.7,23.7,21.8,23.6,21.9C23.7,21.9,23.6,21.9,23.6,21.9z M30.8,20.8
			C30.7,20.8,30.7,20.8,30.8,20.8c-0.2,0-0.2-0.1-0.2-0.2c0.1-0.1,0.1-0.3,0.2-0.4c0-0.1,0.1-0.1,0.2-0.1c0.1,0,0.1,0.1,0.1,0.2
			c-0.1,0.2-0.1,0.3-0.2,0.5C30.9,20.8,30.8,20.8,30.8,20.8z M22.9,21c-0.1,0-0.1,0-0.1-0.1c-0.1-0.2-0.2-0.3-0.3-0.5
			c0-0.1,0-0.2,0.1-0.2c0.1,0,0.2,0,0.2,0.1c0.1,0.2,0.2,0.3,0.3,0.5C23,20.9,23,21,22.9,21C22.9,21,22.9,21,22.9,21z M22.4,20
			c-0.1,0-0.1,0-0.2-0.1c-0.1-0.2-0.1-0.4-0.2-0.6c0-0.1,0-0.2,0.1-0.2c0.1,0,0.2,0,0.2,0.1c0,0.2,0.1,0.4,0.1,0.5
			C22.6,19.9,22.5,20,22.4,20C22.4,20,22.4,20,22.4,20z M22.2,18.9c-0.1,0-0.2,0-0.2-0.1c0-0.2,0-0.4,0-0.6c0-0.1,0.1-0.2,0.1-0.2
			c0.1,0,0.2,0.1,0.2,0.1c0,0.2,0,0.4,0,0.5C22.3,18.9,22.3,18.9,22.2,18.9z M22.1,17.8C22.1,17.8,22.1,17.8,22.1,17.8
			c-0.1,0-0.2-0.1-0.2-0.2c0-0.2,0-0.4,0.1-0.6c0-0.1,0.1-0.1,0.2-0.1c0.1,0,0.1,0.1,0.1,0.2c0,0.2,0,0.4-0.1,0.5
			C22.3,17.7,22.2,17.8,22.1,17.8z M22.3,16.7C22.3,16.7,22.3,16.7,22.3,16.7c-0.1,0-0.2-0.1-0.2-0.2c0-0.2,0.1-0.4,0.1-0.6
			c0-0.1,0.1-0.1,0.2-0.1c0.1,0,0.1,0.1,0.1,0.2c0,0.2-0.1,0.4-0.1,0.5C22.4,16.6,22.4,16.7,22.3,16.7z M22.6,15.6
			C22.6,15.6,22.6,15.6,22.6,15.6c-0.1,0-0.2-0.1-0.2-0.2c0.1-0.2,0.1-0.4,0.2-0.5c0-0.1,0.1-0.1,0.2-0.1c0.1,0,0.1,0.1,0.1,0.2
			c-0.1,0.2-0.1,0.4-0.2,0.5C22.7,15.6,22.7,15.6,22.6,15.6z M23,14.6C23,14.6,22.9,14.6,23,14.6c-0.2,0-0.2-0.1-0.2-0.2
			c0.1-0.2,0.2-0.3,0.2-0.5c0-0.1,0.1-0.1,0.2-0.1c0.1,0,0.1,0.1,0.1,0.2c-0.1,0.2-0.2,0.3-0.2,0.5C23.1,14.5,23,14.6,23,14.6z
			 M23.5,13.6C23.5,13.6,23.4,13.6,23.5,13.6c-0.2-0.1-0.2-0.1-0.1-0.2c0.1-0.2,0.2-0.3,0.3-0.5c0-0.1,0.1-0.1,0.2-0.1
			c0.1,0,0.1,0.1,0.1,0.2c-0.1,0.2-0.2,0.3-0.3,0.5C23.6,13.5,23.5,13.6,23.5,13.6z M24,12.6C24,12.6,24,12.6,24,12.6
			c-0.2-0.1-0.2-0.1-0.1-0.2c0.1-0.2,0.2-0.3,0.3-0.5c0-0.1,0.1-0.1,0.2-0.1c0.1,0,0.1,0.1,0.1,0.2c-0.1,0.2-0.2,0.3-0.3,0.5
			C24.1,12.5,24.1,12.6,24,12.6z M24.5,11.6C24.5,11.6,24.5,11.6,24.5,11.6c-0.1,0-0.2-0.1-0.2-0.2c0.1-0.2,0.1-0.4,0.2-0.5
			c0-0.1,0.1-0.1,0.2-0.1c0.1,0,0.1,0.1,0.1,0.2c-0.1,0.2-0.1,0.4-0.2,0.5C24.6,11.5,24.6,11.6,24.5,11.6z M24.8,10.5
			C24.8,10.5,24.8,10.5,24.8,10.5c-0.1,0-0.2-0.1-0.2-0.2c0-0.2,0-0.4,0.1-0.5c0-0.1,0.1-0.1,0.2-0.1c0.1,0,0.1,0.1,0.1,0.2
			c0,0.2,0,0.4-0.1,0.6C24.9,10.4,24.9,10.5,24.8,10.5z M24.8,9.4c-0.1,0-0.2,0-0.2-0.1c0-0.2-0.1-0.4-0.1-0.5c0-0.1,0-0.2,0.1-0.2
			c0.1,0,0.2,0,0.2,0.1C24.9,8.8,25,9,25,9.2C25,9.3,24.9,9.3,24.8,9.4C24.8,9.4,24.8,9.4,24.8,9.4z M24.5,8.3c-0.1,0-0.1,0-0.2-0.1
			c-0.1-0.2-0.2-0.3-0.3-0.5c0-0.1,0-0.2,0-0.2c0.1,0,0.2,0,0.2,0c0.1,0.2,0.2,0.3,0.3,0.5C24.7,8.1,24.7,8.2,24.5,8.3
			C24.6,8.3,24.6,8.3,24.5,8.3z M23.9,7.4c0,0-0.1,0-0.1,0c-0.1-0.1-0.3-0.3-0.4-0.4c-0.1-0.1-0.1-0.1,0-0.2c0.1-0.1,0.1-0.1,0.2,0
			C23.7,6.8,23.9,7,24,7.1C24.1,7.2,24,7.3,23.9,7.4C24,7.3,23.9,7.4,23.9,7.4z M23,6.6C23,6.6,23,6.6,23,6.6
			c-0.2-0.1-0.4-0.2-0.6-0.3c-0.1,0-0.1-0.1-0.1-0.2c0-0.1,0.1-0.1,0.2-0.1c0.2,0.1,0.3,0.2,0.5,0.3c0.1,0,0.1,0.1,0,0.2
			C23.1,6.6,23.1,6.6,23,6.6z M22.1,6.1C22,6.1,22,6.1,22.1,6.1c-0.4-0.1-0.6-0.2-0.6-0.2c-0.1,0-0.1-0.1-0.1-0.2
			c0-0.1,0.1-0.1,0.2-0.1c0,0,0.2,0.1,0.5,0.2c0.1,0,0.1,0.1,0.1,0.2C22.2,6.1,22.1,6.1,22.1,6.1z"/>
	</g>
</g>
<path id="XMLID_8_" class="st4" d="M26.6,11.5c0.7,1.1-0.3,3.1-1.5,3.9C24,16.1,22,15,21.3,13.9c-0.7-1.1,0.3-3.1,1.5-3.9
	C23.9,9.3,25.9,10.4,26.6,11.5"/>
<path id="XMLID_7_" class="st4" d="M23.8,16.7c0.6,0.2,0.3,2.6,0,3.3c-0.2,0.6-2.6,0.3-3.3,0c-0.6-0.2-0.3-2.6,0-3.3
	C20.8,16.1,23.2,16.4,23.8,16.7"/>
<rect id="XMLID_6_" x="23.9" y="21.5" transform="matrix(0.3595 -0.9332 0.9332 0.3595 -5.1457 38.2431)" class="st4" width="2.7" height="2.7"/>
<path id="XMLID_5_" class="st4" d="M40.6,20.8c-1.3,0.1-2.5-1.9-2.6-3.3C38,16.2,40,15.1,41.3,15c1.3-0.1,2.5,1.9,2.6,3.3
	C43.9,19.6,42,20.8,40.6,20.8"/>
<path id="XMLID_4_" class="st4" d="M37.6,15.8c-0.5,0.4-2.4-1.1-2.8-1.6c-0.4-0.5,1.1-2.4,1.6-2.8c0.5-0.4,2.4,1.1,2.8,1.6
	C39.7,13.5,38.2,15.4,37.6,15.8"/>
<rect id="XMLID_3_" x="30.2" y="12.5" transform="matrix(0.6163 0.7875 -0.7875 0.6163 23.0125 -19.5456)" class="st4" width="2.7" height="2.7"/>
<path id="XMLID_2_" class="st4" d="M32,18.5c0.8,0.6,1.1,1.7,0.5,2.6c-0.6,0.8-1.7,1.1-2.6,0.5c-0.8-0.6-1.1-1.7-0.5-2.6
	C30,18.1,31.2,17.9,32,18.5"/>
<path id="XMLID_1_" class="st4" d="M24.5,3.7c1.1,1.7,0.6,4-1.1,5.1c-1.7,1.1-4,0.6-5.1-1.1c-1.1-1.7-0.6-4,1.1-5.1
	C21.1,1.5,23.4,2,24.5,3.7"/>
</svg>
