<?xml version="1.0" encoding="utf-8"?>
<!-- Generator: Adobe Illustrator 19.0.0, SVG Export Plug-In . SVG Version: 6.00 Build 0)  -->
<svg version="1.1" id="Layer_1" xmlns="http://www.w3.org/2000/svg" xmlns:xlink="http://www.w3.org/1999/xlink" x="0px" y="0px"
	 viewBox="0 0 201.3 166.6" style="enable-background:new 0 0 201.3 166.6;" xml:space="preserve">
<style type="text/css">
	.st0{fill:#4E2561;}
	.st1{fill:#F19220;}
	.st2{fill-rule:evenodd;clip-rule:evenodd;fill:#D85B2E;}
	.st3{fill-rule:evenodd;clip-rule:evenodd;fill:#C73546;}
	.st4{fill-rule:evenodd;clip-rule:evenodd;fill:#ED9122;}
	.st5{fill:#ED9122;}
	.st6{fill-rule:evenodd;clip-rule:evenodd;fill:#812E77;}
	.st7{fill-rule:evenodd;clip-rule:evenodd;fill:#4E2561;}
</style>
<path id="XMLID_157_" class="st0" d="M37.7,160.4c0,0,0-0.1-0.1-0.3c-0.4-0.8-0.6-2.2-0.7-4.2c0-0.8-0.1-1.7-0.1-2.6
	c0-1.4,0-3,0.1-4.7c0-0.7,0.1-1.3,0.1-1.8c0-0.2,0-0.3,0-0.5c0-0.2,0-0.4,0-0.5c0-0.1-0.1-0.2-0.1-0.3c-0.1-0.1-0.1-0.1-0.3-0.2
	c-0.2-0.1-0.3-0.1-0.5-0.1c0,0-0.1,0-0.3,0.1c-0.1,0-0.2,0.1-0.3,0.3c-0.1,0.2-0.2,0.8-0.3,2.6c-0.1,1.5-0.1,3-0.1,4.7v1
	c0,1.2,0,2.2,0.1,2.9c0.1,1.6,0.3,2.8,0.6,3.5c0.2,0.6,0.5,1,0.9,1.1c0.1,0,0.2,0,0.3,0c0.2,0,0.5-0.1,0.8-0.5
	c0-0.1,0.1-0.2,0.1-0.2l0,0C37.7,160.5,37.7,160.5,37.7,160.4z"/>
<path id="XMLID_154_" class="st0" d="M47.2,158c-0.1-0.4-0.2-1-0.2-1.8c0-0.6-0.1-1-0.1-1.3c0-0.3-0.1-0.5-0.1-0.7
	c0-0.1-0.1-0.3-0.1-0.4c-0.2-0.4-0.5-0.6-1-0.6c-0.1,0-0.3,0-0.4,0c-0.2,0-0.3-0.1-0.4-0.1c-0.3-0.2-0.7-0.3-1.2-0.3h-0.1
	c-0.5,0-1.1,0.2-1.6,0.6c-0.6,0.4-1.1,1-1.5,1.7c-0.5,0.7-0.8,1.6-1.1,2.5c-0.1,0.5-0.2,0.9-0.2,1.4v0.2c0,0.3,0.1,0.6,0.3,0.9
	c0.2,0.3,0.4,0.4,0.7,0.5c0.3,0.1,0.6,0.1,1-0.1c0.8-0.3,1.8-1.4,3-3.1l0.9-1.3l0.1,0.9c0,0.1,0,0.2,0.1,0.4c0,0.2,0.1,0.4,0.1,0.6
	c0.1,0.5,0.2,0.9,0.4,1.3c0.1,0.4,0.3,0.7,0.4,0.8c0.2,0.2,0.4,0.3,0.7,0.3c0,0,0.1,0,0.4,0c0.1,0,0.2-0.1,0.5-0.5
	c0.1-0.1,0.1-0.3,0.1-0.4c0-0.2-0.1-0.4-0.3-0.5C47.4,158.7,47.3,158.4,47.2,158z M43.5,155.5c-0.3,0.5-0.7,1-1.2,1.7
	c-0.2,0.3-0.4,0.5-0.5,0.7c-0.3,0.3-0.3,0.4-0.4,0.4c-0.1,0-0.3-0.1-0.3-0.3c0-0.1,0-0.1,0.1-0.4c0-0.1,0.1-0.4,0.2-0.6
	c0.1-0.3,0.2-0.6,0.4-0.8c0.1-0.3,0.3-0.5,0.4-0.6c0.2-0.3,0.5-0.6,0.7-0.8c0.3-0.3,0.5-0.4,0.8-0.4h0c0.1,0,0.2,0,0.2,0
	c0.2,0.1,0.2,0.2,0.2,0.3C44,154.7,44,154.7,43.5,155.5z"/>
<path id="XMLID_151_" class="st0" d="M55.4,151.7L55.4,151.7c-0.7,0-1.3,0.3-2,0.8c-0.5,0.4-0.9,0.8-1.2,1.2l-0.9,1.1l-0.1-1.6
	c0-0.3,0-0.6-0.1-1.1c0-0.5,0-0.9,0-1.4c0-0.4,0-0.8,0-1c0-0.3,0-0.4-0.1-0.5c0-0.1-0.1-0.2-0.1-0.2c-0.1-0.2-0.3-0.3-0.5-0.3
	c-0.1,0-0.2,0-0.3,0c-0.1,0-0.2,0-0.3,0.1c-0.1,0-0.3,0.1-0.4,0.3c0,0-0.1,0.1-0.1,0.2c0,0.1,0,0.2,0,0.5v1c0,0.8,0.1,1.9,0.2,3.4
	c0.1,1.5,0.2,2.9,0.3,4.2c0.1,1.3,0.2,2.2,0.3,2.6c0,0.1,0.1,0.2,0.3,0.4c0.3,0.2,0.6,0.3,1,0.1c0.1-0.1,0.2-0.1,0.4-0.1
	c0.1,0,0.3-0.1,0.4-0.1c0.4,0,0.9-0.2,1.5-0.5c0.7-0.3,1.2-0.7,1.8-1.2c1.4-1.3,2.1-2.8,2.1-4.7v-0.3c0-0.8-0.3-1.5-0.7-2.1
	C56.5,152,56,151.7,55.4,151.7z M55.4,156c-0.3,1.1-1,2-2,2.7c-0.3,0.2-0.6,0.4-0.9,0.5c-0.2,0.1-0.3,0.1-0.4,0.1c0,0-0.1,0-0.1,0
	v-0.1c0-0.1,0-0.2,0.1-0.5c0-0.2,0.1-0.5,0.2-0.9c0.1-0.4,0.2-0.7,0.3-0.9c0.5-1.3,1.2-2.3,2-3c0.1-0.1,0.3-0.2,0.4-0.3
	c0.1-0.1,0.2-0.1,0.2-0.1h0c0.1,0,0.2,0.2,0.3,0.5c0.1,0.3,0.1,0.6,0.1,1C55.6,155.3,55.5,155.7,55.4,156z"/>
<path id="XMLID_148_" class="st0" d="M71.6,157.7c-0.1-1.8-0.1-3.8-0.1-5.7c0-0.5,0-1.1,0-1.6c0-0.7,0-1.3,0-1.8c0-0.2,0-0.5,0-0.8
	c0-0.4,0-0.5-0.1-0.5c-0.1-0.2-0.2-0.3-0.4-0.4c-0.1-0.1-0.3-0.1-0.4-0.1c-0.1,0-0.2,0-0.4,0.1c-0.1,0-0.2,0.1-0.3,0.3
	c0,0.1-0.1,0.2-0.1,0.3c0,0.1-0.1,0.3-0.1,0.4c-0.1,0.3-0.2,0.8-0.4,1.4c-0.2,0.6-0.3,1.2-0.5,1.9c-0.2,0.6-0.3,1.1-0.5,1.4
	c0,0.1-0.1,0.2-0.4,0.2c-0.1,0-0.3,0-0.5-0.1c-0.2-0.1-0.5-0.1-0.8-0.1c-0.1,0-0.2,0-0.5,0c-0.2,0-0.5,0.1-0.8,0.2
	c-0.6,0.3-1.2,0.8-1.6,1.5c-0.5,0.8-0.8,1.7-0.9,2.7c0,0.3-0.1,0.5-0.1,0.7c0,0.5,0.1,1,0.3,1.5c0.2,0.5,0.5,0.8,0.9,1
	c0.4,0.2,0.9,0.3,1.4,0.1c1-0.3,2.2-1.8,3.3-4.4l0.9-1.9l0.1,2.8c0.1,1.5,0.1,2.9,0.3,4c0.1,1.4,0.2,1.8,0.3,2
	c0,0.1,0.1,0.1,0.1,0.2c0.1,0.1,0.1,0.1,0.2,0.1c0.1,0.1,0.3,0.1,0.5,0.1c0.2,0,0.3,0,0.3,0c0,0,0.1-0.1,0.2-0.2
	c0.2-0.2,0.3-0.4,0.3-0.7c0-0.1,0-0.2-0.1-0.3C71.9,161.6,71.7,160.1,71.6,157.7z M67.3,155.5c-0.1,0.3-0.3,0.7-0.5,1.1
	c-0.2,0.4-0.4,0.8-0.6,1.1c-0.1,0.2-0.2,0.3-0.3,0.5c-0.1,0.2-0.2,0.3-0.3,0.4l-0.6,0.6l-0.2-0.8c0-0.2,0-0.3,0-0.5
	c0-0.3,0.1-0.7,0.2-1.2c0.1-0.5,0.3-0.9,0.5-1.4c0.3-0.5,0.5-0.8,0.8-1c0.2-0.1,0.4-0.1,0.5-0.1c0.1,0,0.1,0,0.3,0
	c0.1,0,0.3,0.1,0.4,0.4l0,0.1C67.5,154.9,67.4,155,67.3,155.5z"/>
<path id="XMLID_145_" class="st0" d="M78.9,152.2c-0.2-0.1-0.4-0.1-0.6-0.1c-0.5,0-1,0.1-1.6,0.4c-1,0.4-1.7,1.1-2.2,1.8
	c-0.5,0.8-0.8,1.7-0.8,2.7c0,0.9,0.2,1.6,0.7,2.2c0.5,0.6,1.1,1.1,1.8,1.4c0.7,0.3,1.6,0.3,2.5,0.2c0.3-0.1,0.5-0.2,0.6-0.5
	c0-0.1,0.1-0.2,0.1-0.3c0-0.1-0.1-0.3-0.2-0.5c-0.1-0.1-0.3-0.2-0.6-0.3c-0.1,0-0.3,0-0.6,0c-0.4,0-0.7,0-0.9,0
	c-0.2,0-0.3-0.1-0.5-0.2c-0.1-0.1-0.2-0.1-0.3-0.2c-0.1-0.1-0.2-0.1-0.2-0.3l0-0.1c0-0.1,0.1-0.2,0.2-0.3c0.1,0,0.2-0.1,0.3-0.1
	c0.3-0.1,0.7-0.3,1.1-0.6c0.4-0.3,0.9-0.6,1.2-1c0.5-0.5,0.9-1,1.1-1.5c0.2-0.4,0.3-0.8,0.3-1.2c0-0.3-0.1-0.6-0.2-1
	C79.9,152.6,79.5,152.4,78.9,152.2z M78.5,154.3c0,0.1-0.1,0.2-0.1,0.3c-0.1,0.3-0.4,0.6-0.8,1c-0.4,0.4-0.8,0.7-1.2,0.9
	c-0.1,0.1-0.3,0.1-0.4,0.2c-0.2,0.1-0.3,0.1-0.3,0.1l0,0c0,0-0.3-0.1-0.3-0.4c0-0.1,0-0.1,0.1-0.4c0.1-0.2,0.2-0.4,0.4-0.7
	c0.2-0.3,0.4-0.6,0.6-0.8c0.2-0.2,0.5-0.4,0.8-0.5c0.3-0.2,0.5-0.3,0.7-0.3c0.1,0,0.2,0,0.2,0c0.3,0,0.4,0.2,0.4,0.3
	C78.5,154.1,78.5,154.1,78.5,154.3z"/>
<path id="XMLID_144_" class="st0" d="M87.6,158.7c0-0.6,0-1.2-0.1-1.8c0-0.1,0-0.3,0-0.4l-0.1-1.7c0-0.4-0.1-0.7-0.4-0.9
	c-0.1-0.1-0.2-0.1-0.4-0.1c-0.1,0-0.3,0-0.5,0.1c-0.1,0-0.2,0.1-0.3,0.2c0,0.1-0.1,0.3-0.1,0.8c0,0.2,0,0.5,0,0.8c0,0.3,0,0.7,0,1.2
	c0,1.1,0,1.8,0,2.3c0,0.6,0.1,0.8,0.1,0.9c0.2,0.3,0.4,0.5,0.7,0.6c0.1,0,0.1,0,0.2,0c0.2,0,0.5-0.1,0.7-0.4
	c0.1-0.1,0.1-0.1,0.1-0.2c0,0,0,0,0-0.1c0-0.1,0-0.1,0-0.2C87.6,159.6,87.6,159.3,87.6,158.7z"/>
<path id="XMLID_143_" class="st0" d="M87.3,149c-0.1-0.1-0.3-0.1-0.4-0.1c0,0-0.1,0-0.1,0c-0.3,0.1-0.5,0.2-0.8,0.5
	c-0.2,0.2-0.3,0.5-0.3,0.7c0,0,0,0,0,0.1c0,0.1,0.1,0.2,0.1,0.3c0.1,0.1,0.2,0.2,0.3,0.2c0.1,0.1,0.2,0.1,0.4,0.1c0,0,0.2,0,0.4-0.1
	c0.1,0,0.3-0.1,0.6-0.5c0.1-0.2,0.2-0.4,0.2-0.5c0-0.1,0-0.2-0.1-0.4C87.6,149.1,87.5,149.1,87.3,149z"/>
<path id="XMLID_142_" class="st0" d="M98.3,157.7c-0.7-0.1-1.4-0.8-2-2.1c-0.2-0.4-0.4-0.8-0.5-1c-0.1-0.2-0.3-0.4-0.5-0.5
	c-0.6-0.4-1.2-0.4-1.8,0c-0.2,0.1-0.4,0.4-0.7,0.7c-0.3,0.4-0.5,0.7-0.7,1.1c-0.1,0.1-0.1,0.2-0.2,0.3c0,0.1-0.1,0.2-0.3,0.2h-0.3
	v-0.4c0-0.1,0-0.3,0-0.5c0-0.3,0-0.6,0.1-1.1c0-0.5,0-0.9,0-1.3v-0.4c0-0.2,0-0.3-0.1-0.5c-0.1-0.1-0.1-0.2-0.3-0.3
	c-0.2-0.1-0.3-0.2-0.5-0.2c-0.2,0-0.4,0.1-0.5,0.2c-0.1,0.1-0.2,0.1-0.2,0.2c0,0.1-0.1,0.2-0.1,0.5c0,0.3-0.1,0.7-0.1,1.2
	c0,0.5,0,1.2,0,2.1c0,1.1,0,1.9,0,2.5c0,0.5,0.1,0.9,0.1,1.2c0.1,0.2,0.1,0.4,0.2,0.5c0.1,0.1,0.1,0.1,0.2,0.2
	c0.1,0.1,0.2,0.1,0.2,0.2c0.1,0.1,0.3,0.1,0.4,0.1c0,0,0.1,0,0.4-0.1c0.1,0,0.3-0.1,0.5-0.4c0-0.1,0.2-0.2,0.3-0.5
	c0.1-0.3,0.3-0.5,0.5-0.8c0.3-0.7,0.7-1.2,0.9-1.8c0.4-0.7,0.5-0.9,0.6-1c0.1-0.1,0.1-0.1,0.2-0.1c0.2,0,0.3,0.1,0.4,0.3
	c0.1,0.1,0.2,0.4,0.4,0.7c0.2,0.3,0.4,0.6,0.5,0.8c0.2,0.2,0.4,0.4,0.6,0.6c0.7,0.6,1.2,1,1.7,1c0.1,0,0.3,0,0.4-0.1
	c0.4-0.2,0.6-0.4,0.6-0.8c0-0.2-0.1-0.3-0.2-0.4C98.7,157.9,98.5,157.8,98.3,157.7z"/>
<path id="XMLID_141_" class="st0" d="M109.5,157.7c-0.7-0.1-1.4-0.8-2-2.1c-0.2-0.4-0.4-0.8-0.5-1c-0.1-0.2-0.3-0.4-0.5-0.5
	c-0.6-0.4-1.2-0.4-1.8,0c-0.2,0.1-0.4,0.4-0.7,0.7c-0.3,0.4-0.5,0.7-0.7,1.1c-0.1,0.1-0.1,0.2-0.2,0.3c0,0.1-0.1,0.2-0.3,0.2h-0.3
	v-0.4c0-0.1,0-0.3,0-0.5c0-0.3,0-0.6,0.1-1.1c0-0.5,0-0.9,0-1.3v-0.4c0-0.2,0-0.3-0.1-0.5c-0.1-0.1-0.1-0.2-0.3-0.3
	c-0.2-0.1-0.3-0.2-0.5-0.2c-0.2,0-0.4,0.1-0.5,0.2c-0.1,0.1-0.2,0.1-0.2,0.2c0,0.1-0.1,0.2-0.1,0.5c0,0.3-0.1,0.7-0.1,1.2
	c0,0.5,0,1.2,0,2.1c0,1.1,0,1.9,0,2.5c0,0.5,0.1,0.9,0.1,1.2c0.1,0.2,0.1,0.4,0.2,0.5c0.1,0.1,0.1,0.1,0.2,0.2
	c0.1,0.1,0.2,0.1,0.2,0.2c0.1,0.1,0.3,0.1,0.4,0.1c0,0,0.1,0,0.4-0.1c0.1,0,0.3-0.1,0.5-0.4c0-0.1,0.2-0.2,0.3-0.5
	c0.1-0.3,0.3-0.5,0.5-0.8c0.3-0.7,0.7-1.2,0.9-1.8c0.4-0.7,0.5-0.9,0.6-1c0.1-0.1,0.1-0.1,0.2-0.1c0.2,0,0.3,0.1,0.4,0.3
	c0.1,0.1,0.2,0.3,0.4,0.7c0.2,0.3,0.4,0.6,0.5,0.8c0.2,0.2,0.4,0.4,0.6,0.6c0.7,0.6,1.2,1,1.7,1c0.1,0,0.3,0,0.4-0.1
	c0.4-0.2,0.6-0.4,0.6-0.8c0-0.2-0.1-0.3-0.2-0.4C109.8,157.9,109.7,157.8,109.5,157.7z"/>
<path id="XMLID_138_" class="st0" d="M115.9,152.6c-0.3-0.2-0.6-0.3-0.9-0.3c-0.2,0-0.3,0-0.5,0.1c-0.1,0-0.2,0.1-0.3,0.1
	c-0.1,0-0.2,0-0.3,0c-0.1,0-0.2,0-0.5,0.2c-0.2,0.1-0.4,0.3-0.6,0.5c-0.4,0.4-0.7,1-0.9,1.7c-0.1,0.4-0.2,0.9-0.2,1.5v0.1
	c0,0.5,0.1,1,0.2,1.4c0.2,0.7,0.6,1.3,1,1.8c0.4,0.4,0.9,0.7,1.5,0.8c0.7,0.1,1.3-0.1,1.8-0.5c0.5-0.3,0.9-0.9,1.2-1.5
	c0.3-0.7,0.5-1.4,0.5-2.2c0-0.8-0.2-1.6-0.6-2.3C116.9,153.4,116.4,152.9,115.9,152.6z M116.1,156.8c-0.1,0.8-0.3,1.4-0.7,1.9
	c-0.1,0.1-0.2,0.2-0.3,0.3c-0.1,0.1-0.2,0.1-0.4,0.1c-0.3,0-0.6-0.2-0.8-0.6c-0.2-0.3-0.3-0.8-0.4-1.3c0-0.2-0.1-0.4-0.1-0.7
	c0-0.3,0.1-0.7,0.2-1.2c0.1-0.5,0.4-0.9,0.7-1.2c0.1-0.1,0.2-0.2,0.4-0.2c0.1,0,0.3,0,0.5,0.1c0.3,0.2,0.6,0.5,0.8,1.1
	c0.1,0.4,0.2,0.9,0.2,1.4C116.1,156.6,116.1,156.7,116.1,156.8z"/>
<path id="XMLID_137_" class="st0" d="M127.9,151.6C127.9,151.6,127.9,151.6,127.9,151.6c-0.1-0.3-0.2-0.4-0.4-0.5
	c-0.1-0.1-0.3-0.1-0.4-0.1c-0.4,0-0.7,0.2-0.9,0.5c-0.3,0.6-1.1,2.4-2.4,5.3c-0.3,0.6-0.5,1.1-0.7,1.6c-0.3,0.7-0.3,0.8-0.5,0.8
	c-0.2,0-0.3-0.2-0.5-0.7c-0.1-0.4-0.3-0.9-0.5-1.4c-0.2-0.7-0.3-1.4-0.4-2.1c0-0.5-0.1-0.9-0.2-1.1c-0.1-0.2-0.2-0.4-0.4-0.5
	c-0.2-0.1-0.3-0.2-0.5-0.2c0,0-0.1,0-0.4,0.1c-0.1,0-0.2,0.1-0.4,0.4c0,0.1-0.1,0.2-0.1,0.5c0,0.1,0,0.2,0,0.4
	c0,0.1,0.1,0.5,0.2,1.4c0.5,2.5,1.2,4.2,2.1,5.1c0.3,0.2,0.6,0.4,0.9,0.4l0.1,0c0.3,0,0.5-0.1,0.8-0.2c0.3-0.2,0.5-0.4,0.6-0.7
	c0.3-0.5,0.8-1.6,1.5-3.4c0.3-0.8,0.7-1.6,1-2.3c0.3-0.7,0.5-1.2,0.7-1.5c0.2-0.4,0.3-0.7,0.4-0.9c0.1-0.2,0.2-0.4,0.2-0.5
	C127.9,151.8,127.9,151.7,127.9,151.6L127.9,151.6z"/>
<path id="XMLID_134_" class="st0" d="M135.6,158c-0.1-0.4-0.2-1-0.2-1.8c0-0.6-0.1-1-0.1-1.3c0-0.3-0.1-0.5-0.1-0.7
	c0-0.1-0.1-0.3-0.1-0.4c-0.2-0.4-0.5-0.6-1-0.6c-0.1,0-0.3,0-0.4,0c-0.2,0-0.3-0.1-0.4-0.2c-0.3-0.2-0.7-0.3-1.2-0.3H132
	c-0.5,0-1.1,0.2-1.6,0.6c-0.6,0.4-1.1,1-1.5,1.7c-0.5,0.7-0.8,1.6-1.1,2.5c-0.1,0.5-0.2,0.9-0.2,1.4v0.2c0,0.3,0.1,0.6,0.3,0.9
	c0.2,0.3,0.4,0.4,0.7,0.5c0.3,0.1,0.6,0.1,1-0.1c0.8-0.3,1.8-1.4,3-3.1l0.9-1.3l0.1,0.9c0,0.1,0,0.2,0.1,0.4c0,0.2,0.1,0.4,0.1,0.6
	c0.1,0.5,0.2,0.9,0.4,1.3c0.1,0.4,0.3,0.7,0.4,0.8c0.2,0.2,0.4,0.3,0.7,0.3c0,0,0.1,0,0.4,0c0.1,0,0.2-0.1,0.5-0.5
	c0.1-0.1,0.1-0.3,0.1-0.4c0-0.2-0.1-0.4-0.3-0.5C135.8,158.7,135.7,158.4,135.6,158z M131.9,155.5c-0.3,0.5-0.7,1-1.2,1.7
	c-0.2,0.3-0.4,0.5-0.5,0.7c-0.3,0.3-0.3,0.4-0.4,0.4c-0.1,0-0.3-0.1-0.3-0.3c0-0.1,0-0.1,0.1-0.4c0-0.1,0.1-0.4,0.2-0.6
	c0.1-0.3,0.2-0.6,0.4-0.8c0.1-0.3,0.3-0.5,0.4-0.6c0.2-0.3,0.5-0.6,0.7-0.8c0.3-0.3,0.5-0.4,0.8-0.4h0c0.1,0,0.2,0,0.2,0
	c0.2,0.1,0.2,0.2,0.2,0.3C132.4,154.7,132.4,154.7,131.9,155.5z"/>
<path id="XMLID_133_" class="st0" d="M142.4,153.9c0,0.2,0,0.4,0,0.6v0.3c0,0.6,0.1,0.9,0.1,1.1c0.1,0.1,0.2,0.2,0.3,0.3
	c0.2,0.1,0.3,0.1,0.4,0.1c0.1,0,0.2,0,0.4-0.1c0.2-0.1,0.3-0.2,0.4-0.4c0.1-0.2,0.1-0.6,0.1-1.2c0-0.3,0-0.7-0.1-1
	c-0.1-0.3-0.2-0.6-0.3-0.9c-0.3-0.5-0.6-0.8-1.1-0.9c-0.2-0.1-0.5-0.1-0.8-0.1c-0.2,0-0.5,0-0.9,0.1c-0.4,0.1-0.8,0.3-1.2,0.6
	c-0.4,0.3-0.8,0.7-1,1.2c-0.4,0.8-0.7,1.7-0.9,2.7c-0.1,0.4-0.1,0.7-0.1,1.1c0,0.6,0.1,1.1,0.2,1.6c0.1,0.5,0.4,1,0.8,1.4
	c0.3,0.4,0.8,0.7,1.3,0.9c0.5,0.2,1,0.2,1.6,0c0.5-0.2,1-0.4,1.5-0.8c0.5-0.4,0.8-0.7,0.8-1c0,0,0-0.1,0-0.1c0-0.3-0.2-0.5-0.5-0.7
	c-0.3-0.2-0.7-0.1-1.1,0.3c-0.3,0.3-0.6,0.5-0.9,0.7c-0.4,0.2-0.7,0.2-1,0.1c-0.4-0.2-0.7-0.6-0.8-1.2c-0.1-0.4-0.1-0.7-0.1-1.1
	c0-0.2,0-0.4,0-0.8c0-0.4,0.1-0.7,0.2-1c0.5-1.5,1.1-2.3,1.9-2.3c0.2,0,0.4,0.1,0.5,0.2C142.3,153.5,142.3,153.6,142.4,153.9z"/>
<path id="XMLID_132_" class="st0" d="M147.3,149c-0.1-0.1-0.3-0.1-0.4-0.1c0,0-0.1,0-0.1,0c-0.3,0.1-0.5,0.2-0.8,0.5
	c-0.2,0.2-0.3,0.5-0.3,0.7c0,0,0,0,0,0.1c0,0.1,0.1,0.2,0.1,0.3c0.1,0.1,0.2,0.2,0.3,0.2c0.1,0.1,0.2,0.1,0.4,0.1c0,0,0.2,0,0.4-0.1
	c0.1,0,0.3-0.1,0.6-0.5c0.1-0.2,0.2-0.4,0.2-0.5c0-0.1,0-0.2-0.1-0.4C147.5,149.1,147.4,149.1,147.3,149z"/>
<path id="XMLID_131_" class="st0" d="M147.5,158.7c0-0.6,0-1.2-0.1-1.8c0-0.1,0-0.3,0-0.4l-0.1-1.7c0-0.4-0.1-0.7-0.4-0.9
	c-0.1-0.1-0.2-0.1-0.4-0.1c-0.1,0-0.3,0-0.5,0.1c-0.1,0-0.2,0.1-0.3,0.2c0,0.1-0.1,0.3-0.1,0.8c0,0.2,0,0.5,0,0.8c0,0.3,0,0.7,0,1.2
	c0,1.1,0,1.8,0,2.3c0,0.6,0.1,0.8,0.1,0.9c0.2,0.3,0.4,0.5,0.7,0.6c0.1,0,0.1,0,0.2,0c0.2,0,0.5-0.1,0.7-0.4
	c0.1-0.1,0.1-0.1,0.1-0.2c0,0,0,0,0-0.1c0-0.1,0-0.1,0-0.2C147.5,159.6,147.5,159.3,147.5,158.7z"/>
<path id="XMLID_128_" class="st0" d="M153.4,152.6c-0.3-0.2-0.6-0.3-0.9-0.3c-0.2,0-0.3,0-0.5,0.1c-0.1,0-0.2,0.1-0.3,0.1
	c-0.1,0-0.2,0-0.3,0c-0.1,0-0.2,0-0.5,0.2c-0.2,0.1-0.4,0.3-0.6,0.5c-0.4,0.4-0.7,1-0.9,1.7c-0.1,0.4-0.2,0.9-0.2,1.5v0.1
	c0,0.5,0.1,1,0.2,1.4c0.2,0.7,0.6,1.3,1,1.8c0.4,0.4,0.9,0.7,1.5,0.8c0.7,0.1,1.3-0.1,1.8-0.5c0.5-0.3,0.9-0.9,1.2-1.5
	c0.3-0.7,0.5-1.4,0.5-2.2c0-0.8-0.2-1.6-0.6-2.3C154.4,153.4,154,152.9,153.4,152.6z M153.6,156.8c-0.1,0.8-0.3,1.4-0.7,1.9
	c-0.1,0.1-0.2,0.2-0.3,0.3c-0.1,0.1-0.2,0.1-0.4,0.1c-0.3,0-0.6-0.2-0.8-0.6c-0.2-0.3-0.3-0.8-0.4-1.3c0-0.2-0.1-0.4-0.1-0.7
	c0-0.3,0.1-0.7,0.2-1.2c0.1-0.5,0.4-0.9,0.7-1.2c0.1-0.1,0.2-0.2,0.3-0.2c0.1,0,0.3,0,0.5,0.1c0.3,0.2,0.6,0.5,0.8,1.1
	c0.1,0.4,0.2,0.9,0.2,1.4C153.6,156.6,153.6,156.7,153.6,156.8z"/>
<path id="XMLID_127_" class="st0" d="M165.9,157.7c-0.7-0.1-1.4-0.8-2-2.1c-0.2-0.4-0.4-0.8-0.5-1c-0.1-0.2-0.3-0.4-0.5-0.5
	c-0.6-0.4-1.2-0.4-1.8,0c-0.2,0.1-0.4,0.4-0.7,0.7c-0.3,0.4-0.5,0.7-0.7,1.1c-0.1,0.1-0.1,0.2-0.2,0.3c0,0.1-0.1,0.2-0.3,0.2h-0.3
	v-0.4c0-0.1,0-0.3,0-0.5c0-0.3,0-0.6,0.1-1.1c0-0.5,0-0.9,0-1.3v-0.4c0-0.2,0-0.3-0.1-0.5c-0.1-0.1-0.1-0.2-0.3-0.3
	c-0.2-0.1-0.3-0.2-0.5-0.2c-0.2,0-0.4,0.1-0.5,0.2c-0.1,0.1-0.2,0.1-0.2,0.2c0,0.1-0.1,0.2-0.1,0.5c0,0.3-0.1,0.7-0.1,1.2
	c0,0.5,0,1.2,0,2.1c0,1.1,0,1.9,0,2.5c0,0.5,0.1,0.9,0.1,1.2c0.1,0.2,0.1,0.4,0.2,0.5c0.1,0.1,0.1,0.1,0.2,0.2
	c0.1,0.1,0.2,0.1,0.2,0.2c0.1,0.1,0.3,0.1,0.4,0.1c0,0,0.1,0,0.4-0.1c0.1,0,0.3-0.1,0.5-0.4c0.1-0.1,0.2-0.2,0.3-0.5
	c0.1-0.3,0.3-0.5,0.5-0.8c0.3-0.7,0.7-1.2,0.9-1.8c0.4-0.7,0.5-0.9,0.6-1c0.1-0.1,0.1-0.1,0.2-0.1c0.2,0,0.3,0.1,0.4,0.3
	c0.1,0.1,0.2,0.3,0.4,0.7c0.2,0.3,0.4,0.6,0.5,0.8c0.2,0.2,0.4,0.4,0.6,0.6c0.7,0.6,1.2,1,1.7,1c0.1,0,0.3,0,0.4-0.1
	c0.4-0.2,0.6-0.4,0.6-0.8c0-0.2-0.1-0.3-0.2-0.4C166.3,157.9,166.1,157.8,165.9,157.7z"/>
<path id="XMLID_126_" class="st0" d="M155.2,146.9c-1,0-2,1.6-2.5,2.5c-0.1,0.2-0.2,0.4-0.3,0.5c-0.2,0.2-0.1,0.4,0,0.5
	c0.1,0.2,0.4,0.3,0.6,0.3c0.1,0,0.4,0,0.5-0.3c0.1-0.2,0.4-0.4,0.7-0.8c0.7-0.7,1.9-1.9,1.9-2.4c0-0.1,0-0.1-0.1-0.1
	C155.7,147,155.4,146.9,155.2,146.9z"/>
<g id="XMLID_2_">
	<g id="XMLID_68_">
		<g id="XMLID_69_">
			<g id="XMLID_99_">
				<g id="XMLID_100_">
					<g id="XMLID_101_">
						<path id="XMLID_102_" class="st1" d="M69.3,92.4c-0.2,0-0.4-0.2-0.5-0.4c0,0,0-0.1,0-0.2c0-0.3,0-0.8,0.2-1.5
							c0-0.2,0.3-0.4,0.5-0.3c0.3,0,0.4,0.3,0.4,0.5c-0.1,0.6-0.2,1.1-0.2,1.3c0,0.1,0,0.1,0,0.1C69.7,92.2,69.5,92.4,69.3,92.4
							C69.3,92.4,69.3,92.4,69.3,92.4z M69.9,89.4c-0.1,0-0.1,0-0.2,0c-0.2-0.1-0.4-0.3-0.3-0.5c0.2-0.5,0.5-1,0.8-1.5
							c0.1-0.2,0.4-0.3,0.6-0.1c0.2,0.1,0.3,0.4,0.2,0.6c-0.3,0.4-0.5,0.9-0.7,1.4C70.2,89.2,70.1,89.4,69.9,89.4z M71.6,86.7
							c-0.1,0-0.2,0-0.3-0.1c-0.2-0.2-0.2-0.4,0-0.6c0.4-0.4,0.8-0.8,1.3-1.1c0.2-0.1,0.5-0.1,0.7,0.1c0.2,0.2,0.1,0.4-0.1,0.6
							c-0.4,0.3-0.8,0.7-1.2,1C71.9,86.6,71.8,86.7,71.6,86.7z M74.3,84.7c-0.2,0-0.3-0.1-0.4-0.2c-0.1-0.2-0.1-0.5,0.2-0.6
							c0.5-0.3,1.1-0.5,1.6-0.7c0.2-0.1,0.5,0,0.6,0.2c0.1,0.2,0,0.5-0.3,0.5c-0.5,0.2-1,0.4-1.5,0.7C74.5,84.7,74.4,84.7,74.3,84.7
							z M77.5,83.5c-0.2,0-0.4-0.1-0.4-0.3c-0.1-0.2,0.1-0.5,0.3-0.5c0.6-0.1,1.1-0.3,1.7-0.4c0.3,0,0.5,0.1,0.5,0.3
							c0,0.2-0.1,0.4-0.4,0.5c-0.6,0.1-1.1,0.2-1.7,0.3C77.6,83.5,77.6,83.5,77.5,83.5z M80.9,82.9c-0.2,0-0.4-0.2-0.5-0.4
							c0-0.2,0.2-0.4,0.4-0.5c0.6-0.1,1.2-0.1,1.8-0.1c0.3,0,0.5,0.2,0.5,0.4c0,0.2-0.2,0.4-0.4,0.4C82.1,82.8,81.5,82.9,80.9,82.9
							C81,82.9,81,82.9,80.9,82.9z M87.9,82.9c-0.3,0-0.5-0.2-0.5-0.4c0-0.2,0.2-0.4,0.5-0.4c0.6,0,1.2,0,1.7,0
							c0.3,0,0.5,0.2,0.5,0.4c0,0.2-0.2,0.4-0.4,0.4C89.1,82.8,88.5,82.9,87.9,82.9C87.9,82.9,87.9,82.9,87.9,82.9z M86.2,82.9
							C86.2,82.9,86.2,82.9,86.2,82.9c-0.4,0-0.8,0-1.1,0c-0.2,0-0.4,0-0.6,0c-0.3,0-0.5-0.2-0.5-0.4c0-0.2,0.2-0.4,0.5-0.4
							c0.2,0,0.4,0,0.6,0c0.4,0,0.8,0,1.1,0c0.3,0,0.5,0.2,0.5,0.4C86.6,82.7,86.4,82.9,86.2,82.9z M91.4,82.7
							c-0.2,0-0.4-0.2-0.5-0.4c0-0.2,0.2-0.4,0.4-0.5c0.6,0,1.2-0.1,1.7-0.2c0.3,0,0.5,0.1,0.5,0.4c0,0.2-0.1,0.4-0.4,0.5
							C92.6,82.6,92,82.7,91.4,82.7C91.4,82.7,91.4,82.7,91.4,82.7z M94.8,82.3c-0.2,0-0.4-0.1-0.5-0.3c0-0.2,0.1-0.4,0.4-0.5
							c0.6-0.1,1.1-0.2,1.7-0.3c0.2,0,0.5,0.1,0.6,0.3c0.1,0.2-0.1,0.4-0.4,0.5C96.1,82.1,95.5,82.2,94.8,82.3
							C94.9,82.3,94.9,82.3,94.8,82.3z M98.2,81.6c-0.2,0-0.4-0.1-0.4-0.3c-0.1-0.2,0.1-0.5,0.3-0.5c0.6-0.1,1.1-0.3,1.6-0.5
							c0.2-0.1,0.5,0,0.6,0.3c0.1,0.2,0,0.5-0.3,0.5c-0.5,0.2-1.1,0.3-1.7,0.5C98.3,81.6,98.3,81.6,98.2,81.6z M101.5,80.6
							c-0.2,0-0.4-0.1-0.4-0.3c-0.1-0.2,0-0.5,0.2-0.5c0.5-0.2,1-0.4,1.5-0.7c0.2-0.1,0.5,0,0.6,0.2c0.1,0.2,0,0.5-0.2,0.6
							c-0.5,0.2-1.1,0.5-1.6,0.7C101.7,80.6,101.6,80.6,101.5,80.6z M104.6,79.1c-0.2,0-0.3-0.1-0.4-0.2c-0.1-0.2-0.1-0.5,0.1-0.6
							c0.5-0.3,1-0.6,1.4-0.9c0.2-0.1,0.5-0.1,0.6,0.1c0.2,0.2,0.1,0.4-0.1,0.6c-0.5,0.3-1,0.6-1.5,0.9
							C104.8,79.1,104.7,79.1,104.6,79.1z M107.4,77.2c-0.1,0-0.2,0-0.3-0.1c-0.2-0.2-0.2-0.4,0-0.6c0.4-0.4,0.8-0.7,1.2-1.1
							c0.2-0.2,0.5-0.2,0.7-0.1c0.2,0.1,0.2,0.4,0.1,0.6c-0.4,0.4-0.8,0.8-1.2,1.2C107.6,77.2,107.5,77.2,107.4,77.2z M109.6,74.8
							c-0.1,0-0.2,0-0.3-0.1c-0.2-0.1-0.3-0.4-0.1-0.6c0.3-0.4,0.6-0.9,0.8-1.3c0.1-0.2,0.4-0.3,0.6-0.2c0.2,0.1,0.3,0.3,0.2,0.6
							c-0.3,0.5-0.6,1-0.9,1.4C109.9,74.7,109.7,74.8,109.6,74.8z M111.1,72c0,0-0.1,0-0.1,0c-0.2-0.1-0.4-0.3-0.3-0.5
							c0.2-0.5,0.3-1,0.4-1.5c0-0.2,0.3-0.4,0.5-0.3c0.3,0,0.4,0.3,0.4,0.5c-0.1,0.5-0.3,1.1-0.5,1.6C111.5,71.9,111.3,72,111.1,72z
							 M111.8,68.9C111.8,68.9,111.7,68.9,111.8,68.9c-0.3,0-0.5-0.2-0.5-0.4c0-0.2,0-0.5,0-0.7c0-0.3,0-0.5,0-0.8
							c0-0.2,0.2-0.4,0.4-0.4c0.3,0,0.5,0.2,0.5,0.4c0,0.3,0,0.6,0,0.8c0,0.3,0,0.5,0,0.8C112.2,68.8,112,68.9,111.8,68.9z
							 M111.5,65.8c-0.2,0-0.4-0.1-0.5-0.3c-0.1-0.5-0.3-1-0.4-1.5c-0.1-0.2,0.1-0.5,0.3-0.5c0.2-0.1,0.5,0,0.6,0.3
							c0.2,0.5,0.3,1,0.5,1.6C112,65.5,111.9,65.7,111.5,65.8C111.6,65.8,111.6,65.8,111.5,65.8z M110.4,62.8
							c-0.2,0-0.3-0.1-0.4-0.2c-0.2-0.5-0.5-0.9-0.8-1.3c-0.1-0.2-0.1-0.5,0.1-0.6c0.2-0.1,0.5-0.1,0.6,0.1c0.3,0.5,0.6,0.9,0.9,1.4
							c0.1,0.2,0,0.5-0.2,0.6C110.6,62.8,110.5,62.8,110.4,62.8z M108.6,60.2c-0.1,0-0.3-0.1-0.4-0.1c-0.4-0.4-0.8-0.8-1.2-1.1
							c-0.2-0.2-0.2-0.4,0-0.6c0.2-0.2,0.5-0.2,0.7,0c0.4,0.4,0.9,0.8,1.3,1.2c0.2,0.2,0.1,0.4-0.1,0.6
							C108.8,60.2,108.7,60.2,108.6,60.2z M106,58.1c-0.1,0-0.2,0-0.3-0.1c-0.5-0.3-0.9-0.5-1.4-0.8c-0.2-0.1-0.3-0.4-0.2-0.6
							c0.1-0.2,0.4-0.3,0.6-0.2c0.5,0.2,1.1,0.5,1.6,0.8c0.2,0.1,0.3,0.4,0.1,0.6C106.3,58,106.1,58.1,106,58.1z M102.9,56.7
							c0,0-0.1,0-0.1,0c-0.5-0.2-1.1-0.3-1.6-0.4c-0.3,0-0.4-0.3-0.4-0.5c0-0.2,0.3-0.4,0.5-0.3c0.6,0.1,1.2,0.2,1.7,0.4
							c0.2,0.1,0.4,0.3,0.3,0.5C103.2,56.6,103.1,56.7,102.9,56.7z M99.5,56.1C99.4,56.1,99.4,56.1,99.5,56.1c-0.6,0-1.1,0-1.7,0
							c-0.3,0-0.5-0.2-0.5-0.4c0-0.2,0.2-0.4,0.4-0.4c0.6,0,1.2,0,1.8,0c0.3,0,0.4,0.2,0.4,0.4C99.9,55.9,99.7,56.1,99.5,56.1z"/>
					</g>
				</g>
			</g>
			<g id="XMLID_70_">
				<g id="XMLID_71_">
					<g id="XMLID_72_">
						<path id="XMLID_73_" class="st1" d="M140.2,62.6C140.2,62.6,140.2,62.6,140.2,62.6c-0.6,0-1.2-0.1-1.8-0.2
							c-0.3,0-0.4-0.3-0.4-0.5c0.1-0.2,0.3-0.4,0.5-0.3c0.5,0.1,1.1,0.2,1.7,0.2c0.3,0,0.5,0.2,0.4,0.4
							C140.6,62.4,140.4,62.6,140.2,62.6z M141.9,62.5c-0.2,0-0.4-0.2-0.5-0.4c0-0.2,0.2-0.4,0.4-0.5c0.5-0.1,1.1-0.1,1.7-0.3
							c0.2-0.1,0.5,0.1,0.6,0.3c0.1,0.2-0.1,0.4-0.3,0.5C143.1,62.4,142.5,62.5,141.9,62.5C141.9,62.5,141.9,62.5,141.9,62.5z
							 M136.8,62c-0.1,0-0.1,0-0.2,0c-0.6-0.2-1.1-0.4-1.6-0.7c-0.2-0.1-0.3-0.4-0.2-0.6c0.1-0.2,0.4-0.3,0.6-0.1
							c0.5,0.3,1,0.5,1.5,0.7c0.2,0.1,0.4,0.3,0.3,0.5C137.1,61.9,136.9,62,136.8,62z M145.3,61.8c-0.2,0-0.4-0.1-0.4-0.3
							c-0.1-0.2,0-0.5,0.3-0.5c0.5-0.2,1.1-0.4,1.6-0.6c0.2-0.1,0.5,0,0.6,0.2c0.1,0.2,0,0.5-0.2,0.6c-0.5,0.2-1.1,0.4-1.7,0.6
							C145.4,61.8,145.3,61.8,145.3,61.8z M148.5,60.5c-0.2,0-0.3-0.1-0.4-0.2c-0.1-0.2,0-0.5,0.2-0.6c0.9-0.5,1.4-0.8,1.4-0.8
							c0.2-0.1,0.5-0.1,0.6,0.1c0.2,0.2,0.1,0.4-0.1,0.6c0,0-0.6,0.4-1.5,0.9C148.6,60.5,148.5,60.5,148.5,60.5z M133.8,60.4
							c-0.1,0-0.2,0-0.3-0.1c-0.5-0.3-0.9-0.7-1.3-1.1c-0.2-0.2-0.2-0.4,0-0.6c0.2-0.2,0.5-0.2,0.7,0c0.4,0.4,0.8,0.7,1.2,1
							c0.2,0.1,0.2,0.4,0.1,0.6C134,60.3,133.9,60.4,133.8,60.4z M131.4,58.1c-0.1,0-0.3-0.1-0.4-0.2c-0.3-0.4-0.7-0.9-1-1.3
							c-0.1-0.2-0.1-0.5,0.1-0.6c0.2-0.1,0.5-0.1,0.6,0.1c0.3,0.4,0.6,0.9,1,1.3c0.2,0.2,0.1,0.4-0.1,0.6
							C131.6,58.1,131.5,58.1,131.4,58.1z M96.6,56.3c-0.2,0-0.3-0.1-0.4-0.2c-0.3-0.4-0.6-0.8-0.8-1.2c-0.1-0.2,0-0.5,0.2-0.6
							c0.2-0.1,0.5,0,0.6,0.2c0.2,0.4,0.5,0.8,0.7,1.1c0.1,0.2,0.1,0.5-0.1,0.6C96.8,56.3,96.7,56.3,96.6,56.3z M129.5,55.5
							c-0.2,0-0.3-0.1-0.4-0.2c-0.3-0.5-0.5-0.9-0.8-1.4c-0.1-0.2,0-0.5,0.2-0.6c0.2-0.1,0.5,0,0.6,0.2c0.2,0.5,0.5,0.9,0.7,1.4
							c0.1,0.2,0,0.5-0.2,0.6C129.7,55.4,129.6,55.5,129.5,55.5z M95.1,53.7c-0.2,0-0.4-0.1-0.4-0.3c-0.2-0.5-0.4-1-0.5-1.6
							c-0.1-0.2,0.1-0.4,0.4-0.5c0.2,0,0.5,0.1,0.5,0.3c0.1,0.5,0.3,1,0.5,1.5c0.1,0.2,0,0.5-0.3,0.5C95.2,53.7,95.2,53.7,95.1,53.7
							z M128.1,52.6c-0.2,0-0.4-0.1-0.4-0.3c-0.2-0.5-0.5-1-0.7-1.4c-0.1-0.2,0-0.5,0.2-0.6c0.2-0.1,0.5,0,0.6,0.2
							c0.2,0.5,0.5,1,0.7,1.4c0.1,0.2,0,0.5-0.2,0.5C128.2,52.6,128.1,52.6,128.1,52.6z M94.4,50.6c-0.2,0-0.4-0.2-0.5-0.4
							c0-0.3,0-0.6,0-0.8c0-0.3,0-0.5,0-0.8c0-0.2,0.2-0.4,0.5-0.4c0.3,0,0.4,0.2,0.4,0.4c0,0.2,0,0.5,0,0.7c0,0.3,0,0.5,0,0.8
							C94.9,50.4,94.7,50.6,94.4,50.6C94.4,50.6,94.4,50.6,94.4,50.6z M126.6,49.8c-0.2,0-0.3-0.1-0.4-0.2c-0.3-0.5-0.5-0.9-0.8-1.4
							c-0.1-0.2,0-0.5,0.2-0.6c0.2-0.1,0.5,0,0.6,0.2c0.3,0.5,0.6,0.9,0.8,1.4c0.1,0.2,0,0.5-0.2,0.6
							C126.8,49.7,126.7,49.8,126.6,49.8z M94.6,47.5C94.6,47.5,94.6,47.5,94.6,47.5c-0.3-0.1-0.5-0.3-0.5-0.5
							c0.1-0.5,0.3-1.1,0.5-1.6c0.1-0.2,0.3-0.3,0.6-0.3c0.2,0.1,0.4,0.3,0.3,0.5c-0.2,0.5-0.3,1-0.4,1.5
							C95.1,47.4,94.9,47.5,94.6,47.5z M124.9,47c-0.2,0-0.3-0.1-0.4-0.2c-0.3-0.4-0.6-0.9-0.9-1.3c-0.1-0.2-0.1-0.4,0.1-0.6
							c0.2-0.1,0.5-0.1,0.6,0.1c0.3,0.4,0.6,0.9,1,1.3c0.1,0.2,0.1,0.5-0.2,0.6C125.1,47,125,47,124.9,47z M95.8,44.5
							c-0.1,0-0.1,0-0.2,0c-0.2-0.1-0.3-0.4-0.2-0.6c0.3-0.5,0.6-1,0.9-1.4c0.1-0.2,0.4-0.2,0.6-0.1c0.2,0.1,0.3,0.4,0.1,0.6
							c-0.3,0.4-0.6,0.9-0.8,1.3C96.1,44.5,95.9,44.5,95.8,44.5z M122.9,44.4c-0.1,0-0.3-0.1-0.4-0.2c-0.4-0.4-0.7-0.8-1.1-1.2
							c-0.2-0.2-0.1-0.4,0-0.6c0.2-0.2,0.5-0.1,0.7,0c0.4,0.4,0.8,0.8,1.1,1.2c0.2,0.2,0.1,0.4-0.1,0.6
							C123.1,44.4,123,44.4,122.9,44.4z M120.6,42.1c-0.1,0-0.2,0-0.3-0.1c-0.4-0.4-0.8-0.7-1.2-1.1c-0.2-0.2-0.2-0.4,0-0.6
							c0.2-0.2,0.5-0.2,0.7,0c0.4,0.3,0.9,0.7,1.3,1.1c0.2,0.2,0.2,0.4,0,0.6C120.9,42,120.8,42.1,120.6,42.1z M97.7,41.9
							c-0.1,0-0.2,0-0.3-0.1c-0.2-0.1-0.2-0.4-0.1-0.6c0.4-0.4,0.8-0.8,1.2-1.2c0.2-0.2,0.5-0.2,0.7,0c0.2,0.2,0.2,0.4,0,0.6
							c-0.4,0.3-0.8,0.7-1.2,1.1C97.9,41.9,97.8,41.9,97.7,41.9z M118,40c-0.1,0-0.2,0-0.3-0.1c-0.5-0.3-0.9-0.6-1.4-0.8
							c-0.2-0.1-0.3-0.4-0.2-0.6c0.1-0.2,0.4-0.3,0.6-0.1c0.5,0.3,1,0.6,1.5,0.9c0.2,0.1,0.3,0.4,0.1,0.6C118.3,40,118.2,40,118,40z
							 M100.2,39.8c-0.1,0-0.3-0.1-0.4-0.2c-0.2-0.2-0.1-0.4,0.1-0.6c0.5-0.3,1-0.6,1.5-0.9c0.2-0.1,0.5,0,0.6,0.1
							c0.1,0.2,0.1,0.5-0.2,0.6c-0.5,0.3-1,0.5-1.4,0.8C100.4,39.7,100.3,39.8,100.2,39.8z M115,38.4c-0.1,0-0.1,0-0.2,0
							c-0.5-0.2-1-0.4-1.6-0.6c-0.2-0.1-0.4-0.3-0.3-0.5c0.1-0.2,0.3-0.3,0.6-0.3c0.6,0.2,1.1,0.4,1.7,0.6c0.2,0.1,0.3,0.3,0.2,0.6
							C115.4,38.3,115.2,38.4,115,38.4z M103.2,38.2c-0.2,0-0.3-0.1-0.4-0.3c-0.1-0.2,0-0.5,0.2-0.5c0.6-0.2,1.1-0.4,1.7-0.6
							c0.2-0.1,0.5,0.1,0.6,0.3c0.1,0.2-0.1,0.5-0.3,0.5c-0.5,0.1-1.1,0.3-1.6,0.5C103.3,38.2,103.3,38.2,103.2,38.2z M111.7,37.4
							C111.7,37.4,111.7,37.4,111.7,37.4c-0.6-0.1-1.2-0.2-1.8-0.2c-0.3,0-0.4-0.2-0.4-0.5c0-0.2,0.2-0.4,0.5-0.4
							c0.6,0,1.2,0.1,1.8,0.2c0.2,0,0.4,0.3,0.4,0.5C112.1,37.3,111.9,37.4,111.7,37.4z M106.5,37.3c-0.2,0-0.4-0.1-0.5-0.3
							c0-0.2,0.1-0.4,0.4-0.5c0.6-0.1,1.2-0.1,1.8-0.2c0.2,0,0.5,0.2,0.5,0.4c0,0.2-0.2,0.4-0.4,0.4
							C107.7,37.1,107.2,37.2,106.5,37.3C106.6,37.3,106.6,37.3,106.5,37.3z"/>
					</g>
				</g>
			</g>
		</g>
	</g>
	<g id="XMLID_6_">
		<g id="XMLID_62_">
			<g id="XMLID_65_">
				<path id="XMLID_67_" class="st2" d="M78.3,76.9c2.2-3.2,9.3-2.8,12.8-0.8c3.5,2,3.1,8.4,0.9,11.5c-2.2,3.2-9.3,2.8-12.8,0.8
					C75.6,86.5,76,80.1,78.3,76.9"/>
				<path id="XMLID_66_" class="st3" d="M96.4,78c-0.1-1.9,7.1-3.8,9.1-3.9c2.1-0.1,4.2,6.4,4.4,8.2c0.1,1.9-7.1,3.8-9.1,3.9
					C98.7,86.4,96.5,79.9,96.4,78"/>
			</g>
			<g id="XMLID_63_">
				<path id="XMLID_64_" class="st4" d="M149.6,69.6c-6.3-0.4-11-5.3-10.5-10.9c0.4-5.6,5.9-9.9,12.1-9.5c6.3,0.4,11,5.3,10.5,10.9
					C161.3,65.8,155.9,70,149.6,69.6"/>
			</g>
		</g>
		<g id="XMLID_7_">
			<g id="XMLID_50_">
				<g id="XMLID_59_">
					<path id="XMLID_61_" class="st5" d="M23.8,99.2H16v-8.6c0-0.4-0.3-0.7-0.7-0.7H9.8c-0.4,0-0.7,0.3-0.7,0.7v8.6H4.6
						c-0.4,0-0.7,0.3-0.7,0.7v4.3c0,0.4,0.3,0.7,0.7,0.7H9v22.4c0,0.4,0.3,0.7,0.7,0.7h5.5c0.4,0,0.7-0.3,0.7-0.7v-22.4h7.8
						c0.4,0,0.7-0.3,0.7-0.7v-4.3C24.5,99.4,24.2,99.2,23.8,99.2z"/>
					<path id="XMLID_60_" class="st5" d="M44.8,98.6c-3.8,0-6.8,1.3-9,3.8V83.5c0-0.4-0.3-0.7-0.7-0.7h-5.5c-0.4,0-0.7,0.3-0.7,0.7
						v43.7c0,0.4,0.3,0.7,0.7,0.7h5.5c0.4,0,0.7-0.3,0.7-0.7v-11.9c0-4.3,3.1-10.4,8.8-10.4c4.8,0,5.5,3.5,5.5,5.5v16.8
						c0,0.4,0.3,0.7,0.7,0.7h5.5c0.4,0,0.7-0.3,0.7-0.7v-17.6C57.1,107,56.2,98.6,44.8,98.6z"/>
				</g>
				<g id="XMLID_51_">
					<path id="XMLID_58_" class="st5" d="M97.8,98.6c-3.8,0-6.8,1.3-9,3.8v-2.6c0-0.4-0.3-0.7-0.7-0.7h-5.5c-0.4,0-0.7,0.3-0.7,0.7
						v27.4c0,0.4,0.3,0.7,0.7,0.7h5.5c0.4,0,0.7-0.3,0.7-0.7v-11.9c0-4.3,3.1-10.4,8.8-10.4c4.8,0,5.5,3.5,5.5,5.5v16.8
						c0,0.4,0.3,0.7,0.7,0.7h5.5c0.4,0,0.7-0.3,0.7-0.7v-17.6c0-1.6-0.3-4.6-2.3-7.1C105.6,99.9,102.2,98.6,97.8,98.6z"/>
					<path id="XMLID_57_" class="st5" d="M132.6,111.4l11.4-11.1c0.2-0.2,0.2-0.5,0.1-0.7c-0.1-0.2-0.4-0.4-0.7-0.4h-7.6
						c-0.2,0-0.4,0.1-0.5,0.2l-9.5,9.7V83.5c0-0.4-0.3-0.7-0.7-0.7h-5.5c-0.4,0-0.7,0.3-0.7,0.7v43.7c0,0.4,0.3,0.7,0.7,0.7h5.5
						c0.4,0,0.7-0.3,0.7-0.7V114l11.4,13.6c0.1,0.2,0.4,0.3,0.6,0.3h7.3c0.3,0,0.5-0.1,0.7-0.4c0.1-0.2,0.1-0.5-0.1-0.7L132.6,111.4
						z"/>
					<path id="XMLID_56_" class="st5" d="M154.8,87.5c-2.3,0-4.2,1.7-4.2,3.7c0,2.1,1.9,3.7,4.2,3.7c2.3,0,4.2-1.7,4.2-3.7
						C158.9,89.2,157.1,87.5,154.8,87.5z"/>
					<path id="XMLID_55_" class="st5" d="M157.5,99.2H152c-0.4,0-0.7,0.3-0.7,0.7v27.4c0,0.4,0.3,0.7,0.7,0.7h5.5
						c0.4,0,0.7-0.3,0.7-0.7V99.8C158.2,99.4,157.9,99.2,157.5,99.2z"/>
					<path id="XMLID_52_" class="st5" d="M196,99.2h-5.5c-0.4,0-0.7,0.3-0.7,0.7v2c-2.3-2.1-5.3-3.2-9-3.2
						c-9.1,0-16.3,6.6-16.3,14.9c0,8.4,7.1,14.9,16.3,14.9c3.7,0,6.7-1.1,9-3.2v2c0,0.4,0.3,0.7,0.7,0.7h5.5c0.4,0,0.7-0.3,0.7-0.7
						V99.8C196.7,99.4,196.4,99.2,196,99.2z M189.8,109.7v7.6c-1.6,3-5,4.9-8.7,4.9c-5.4,0-9.6-3.8-9.6-8.7c0-4.9,4.2-8.7,9.6-8.7
						C184.9,104.8,188.2,106.7,189.8,109.7z"/>
				</g>
			</g>
			<g id="XMLID_8_">
				<g id="XMLID_46_">
					<path id="XMLID_49_" class="st2" d="M78.3,76.9c2.2-3.2,9.3-2.8,12.8-0.8c3.5,2,3.1,8.4,0.9,11.5c-2.2,3.2-9.3,2.8-12.8,0.8
						C75.6,86.5,76,80.1,78.3,76.9"/>
					<path id="XMLID_48_" class="st3" d="M96.4,78c-0.1-1.9,7.1-3.8,9.1-3.9c2.1-0.1,4.2,6.4,4.4,8.2c0.1,1.9-7.1,3.8-9.1,3.9
						C98.7,86.4,96.5,79.9,96.4,78"/>
					<polygon id="XMLID_47_" class="st6" points="107.6,63.5 116,63 116.5,70.6 108.1,71.1 					"/>
				</g>
				<g id="XMLID_13_">
					<path id="XMLID_45_" class="st4" d="M82.5,8.5c2.8,5,0.6,11.2-5,13.7c-5.6,2.5-12.4,0.5-15.3-4.5c-2.8-5-0.6-11.2,5-13.7
						C72.8,1.4,79.6,3.5,82.5,8.5"/>
					<g id="XMLID_17_">
						<g id="XMLID_18_">
							<path id="XMLID_19_" class="st1" d="M84.7,63.5c-0.2,0-0.4,0-0.6,0c-0.3,0-0.5-0.2-0.4-0.4c0-0.2,0.2-0.4,0.5-0.4
								c0.6,0,1.1,0,1.7,0c0.3,0,0.5,0.2,0.5,0.4c0,0.2-0.2,0.4-0.4,0.5C85.5,63.5,85.1,63.5,84.7,63.5z M82.4,63.4
								C82.4,63.4,82.3,63.4,82.4,63.4c-0.7-0.1-1.3-0.2-1.8-0.3c-0.2-0.1-0.4-0.3-0.3-0.5c0.1-0.2,0.3-0.4,0.6-0.3
								c0.5,0.1,1.1,0.2,1.7,0.3c0.3,0,0.4,0.2,0.4,0.5C82.8,63.2,82.6,63.4,82.4,63.4z M87.6,63.2c-0.2,0-0.4-0.1-0.5-0.3
								c-0.1-0.2,0.1-0.4,0.4-0.5c0.6-0.1,1.1-0.2,1.6-0.4c0.2-0.1,0.5,0,0.6,0.3c0.1,0.2,0,0.5-0.3,0.5
								C88.9,63,88.3,63.1,87.6,63.2C87.7,63.2,87.6,63.2,87.6,63.2z M79,62.5c-0.1,0-0.1,0-0.2,0c-0.6-0.2-1.1-0.4-1.6-0.7
								c-0.2-0.1-0.3-0.4-0.2-0.6c0.1-0.2,0.4-0.3,0.6-0.2c0.5,0.2,1,0.5,1.5,0.7c0.2,0.1,0.4,0.3,0.3,0.5
								C79.4,62.4,79.2,62.5,79,62.5z M90.9,62.2c-0.2,0-0.3-0.1-0.4-0.2c-0.1-0.2,0-0.5,0.2-0.6c0.5-0.2,1-0.5,1.4-0.8
								c0.2-0.1,0.5-0.1,0.6,0.1c0.1,0.2,0.1,0.4-0.1,0.6c-0.5,0.3-1,0.6-1.5,0.8C91,62.2,90.9,62.2,90.9,62.2z M76,61
								c-0.1,0-0.2,0-0.3-0.1c-0.5-0.3-1-0.7-1.4-1c-0.2-0.2-0.2-0.4,0-0.6c0.2-0.2,0.5-0.2,0.7,0c0.4,0.3,0.9,0.7,1.3,1
								c0.2,0.1,0.3,0.4,0.1,0.6C76.3,60.9,76.1,61,76,61z M93.7,60.4c-0.1,0-0.2,0-0.3-0.1c-0.2-0.2-0.2-0.4,0-0.6
								c0.4-0.3,0.8-0.7,1.1-1.1c0.2-0.2,0.5-0.2,0.7-0.1c0.2,0.1,0.2,0.4,0.1,0.6c-0.4,0.4-0.8,0.8-1.2,1.2
								C93.9,60.4,93.8,60.4,93.7,60.4z M73.4,58.9c-0.1,0-0.3-0.1-0.4-0.1c-0.4-0.4-0.7-0.8-1.1-1.3c-0.1-0.2-0.1-0.5,0.1-0.6
								c0.2-0.1,0.5-0.1,0.6,0.1c0.3,0.4,0.6,0.8,1,1.2c0.2,0.2,0.1,0.4-0.1,0.6C73.6,58.9,73.5,58.9,73.4,58.9z M95.9,58
								c-0.1,0-0.2,0-0.2-0.1c-0.2-0.1-0.3-0.4-0.1-0.6c0.3-0.4,0.5-0.8,0.7-1.2c0.1-0.2,0.4-0.3,0.6-0.2c0.2,0.1,0.3,0.3,0.2,0.6
								c-0.2,0.4-0.5,0.8-0.7,1.2C96.2,57.9,96.1,58,95.9,58z M71.5,56.3c-0.2,0-0.3-0.1-0.4-0.2c-0.3-0.5-0.5-1-0.7-1.5
								c-0.1-0.2,0-0.5,0.3-0.5c0.2-0.1,0.5,0,0.6,0.3c0.2,0.5,0.4,1,0.6,1.4c0.1,0.2,0,0.5-0.2,0.6C71.7,56.3,71.6,56.3,71.5,56.3z
								 M70.4,53.3c-0.2,0-0.4-0.1-0.5-0.3c-0.1-0.5-0.2-1.1-0.3-1.6c0-0.2,0.2-0.4,0.4-0.5c0.3,0,0.5,0.1,0.5,0.4
								c0.1,0.5,0.1,1,0.3,1.5C70.9,53,70.8,53.2,70.4,53.3C70.5,53.3,70.4,53.3,70.4,53.3z M70,50.2c-0.3,0-0.5-0.2-0.5-0.4
								c0-0.5,0-1.1,0.1-1.6c0-0.2,0.2-0.4,0.5-0.4c0.3,0,0.4,0.2,0.4,0.5c-0.1,0.5-0.1,1-0.1,1.5C70.5,50,70.3,50.2,70,50.2z
								 M70.4,47.1C70.3,47.1,70.3,47.1,70.4,47.1c-0.3,0-0.5-0.3-0.5-0.5c0.1-0.5,0.2-1,0.4-1.6c0.1-0.2,0.3-0.4,0.6-0.3
								c0.2,0.1,0.4,0.3,0.3,0.5c-0.1,0.5-0.3,1-0.4,1.5C70.8,46.9,70.6,47.1,70.4,47.1z M71.2,44c0,0-0.1,0-0.1,0
								c-0.2-0.1-0.4-0.3-0.3-0.5c0.2-0.5,0.4-1,0.6-1.5c0.1-0.2,0.4-0.3,0.6-0.2c0.2,0.1,0.4,0.3,0.3,0.5c-0.2,0.5-0.4,1-0.6,1.5
								C71.6,43.9,71.4,44,71.2,44z M72.5,41.1c-0.1,0-0.1,0-0.2,0c-0.2-0.1-0.3-0.3-0.2-0.6c0.2-0.5,0.5-0.9,0.8-1.4
								c0.1-0.2,0.4-0.3,0.6-0.2c0.2,0.1,0.3,0.4,0.2,0.6c-0.3,0.5-0.5,0.9-0.8,1.4C72.8,41,72.7,41.1,72.5,41.1z M74.1,38.3
								c-0.1,0-0.2,0-0.2-0.1c-0.2-0.1-0.3-0.4-0.2-0.6c0.3-0.4,0.6-0.9,0.9-1.4c0.1-0.2,0.4-0.3,0.6-0.1c0.2,0.1,0.3,0.4,0.1,0.6
								c-0.3,0.4-0.6,0.9-0.9,1.3C74.4,38.2,74.3,38.3,74.1,38.3z M75.9,35.7c-0.1,0-0.2,0-0.3-0.1c-0.2-0.1-0.3-0.4-0.1-0.6
								c0.3-0.4,0.7-0.9,1-1.3c0.2-0.2,0.4-0.2,0.6-0.1c0.2,0.1,0.3,0.4,0.1,0.6c-0.3,0.4-0.7,0.9-1,1.3
								C76.2,35.6,76.1,35.7,75.9,35.7z M78,33.1c-0.1,0-0.2,0-0.3-0.1c-0.2-0.1-0.3-0.4-0.1-0.6c0.3-0.4,0.7-0.9,0.9-1.3
								c0.1-0.2,0.4-0.3,0.6-0.1c0.2,0.1,0.3,0.4,0.2,0.6c-0.3,0.4-0.6,0.9-1,1.3C78.3,33,78.1,33.1,78,33.1z M79.8,30.4
								c-0.1,0-0.1,0-0.2,0c-0.2-0.1-0.3-0.4-0.2-0.6c0.3-0.5,0.5-0.9,0.7-1.4c0.1-0.2,0.4-0.3,0.6-0.2c0.2,0.1,0.4,0.3,0.3,0.5
								c-0.2,0.5-0.5,1-0.7,1.5C80.1,30.3,80,30.4,79.8,30.4z M81.1,27.5c0,0-0.1,0-0.1,0c-0.2-0.1-0.4-0.3-0.3-0.5
								c0.2-0.5,0.3-1,0.4-1.5c0-0.2,0.3-0.4,0.5-0.4c0.3,0,0.4,0.2,0.4,0.5c-0.1,0.5-0.2,1.1-0.4,1.6
								C81.5,27.4,81.3,27.5,81.1,27.5z M81.6,24.4c-0.3,0-0.5-0.2-0.5-0.4c0-0.5-0.1-1-0.1-1.5c0-0.2,0.1-0.4,0.4-0.5
								c0.3,0,0.5,0.1,0.5,0.3C82,22.9,82,23.5,82,24C82,24.2,81.8,24.4,81.6,24.4C81.6,24.4,81.6,24.4,81.6,24.4z M81,21.3
								c-0.2,0-0.4-0.1-0.4-0.3c-0.2-0.5-0.4-0.9-0.7-1.4c-0.1-0.2,0-0.5,0.2-0.6c0.2-0.1,0.5,0,0.6,0.2c0.3,0.5,0.5,1,0.7,1.5
								c0.1,0.2,0,0.5-0.3,0.5C81.1,21.3,81,21.3,81,21.3z M79.3,18.6c-0.1,0-0.3-0.1-0.4-0.2c-0.3-0.4-0.7-0.8-1.1-1.2
								c-0.2-0.2-0.2-0.4,0-0.6c0.2-0.2,0.5-0.2,0.7,0c0.4,0.4,0.8,0.8,1.2,1.2c0.2,0.2,0.1,0.4-0.1,0.6
								C79.5,18.6,79.4,18.6,79.3,18.6z M76.9,16.3c-0.1,0-0.2,0-0.3-0.1c-0.4-0.3-0.9-0.6-1.4-0.9c-0.2-0.1-0.3-0.4-0.1-0.6
								c0.1-0.2,0.4-0.2,0.6-0.1c0.5,0.3,1,0.6,1.4,1c0.2,0.1,0.2,0.4,0.1,0.6C77.2,16.3,77.1,16.3,76.9,16.3z M74.1,14.5
								c-0.1,0-0.2,0-0.2-0.1c-0.9-0.5-1.5-0.7-1.5-0.7c-0.2-0.1-0.4-0.3-0.3-0.5c0.1-0.2,0.4-0.3,0.6-0.2c0,0,0.7,0.2,1.6,0.7
								c0.2,0.1,0.3,0.4,0.2,0.6C74.4,14.5,74.2,14.5,74.1,14.5z"/>
						</g>
					</g>
					<path id="XMLID_16_" class="st2" d="M86.4,30.9c1.9,3.4-2.1,8.6-5.9,10.3c-3.7,1.7-9.6-1.9-11.4-5.3c-1.9-3.4,2.1-8.6,5.9-10.3
						C78.7,23.9,84.5,27.5,86.4,30.9"/>
					<path id="XMLID_15_" class="st3" d="M76,44.4c1.9,0.9,0,7.4-1,9.1c-1,1.7-8.2,0-10.1-0.9c-1.9-0.9,0-7.4,1-9.1
						C66.8,41.8,74.1,43.5,76,44.4"/>
					<polygon id="XMLID_14_" class="st6" points="84,60.4 80.1,67.2 72.6,63.7 76.5,56.9 					"/>
				</g>
				<g id="XMLID_9_">
					<path id="XMLID_12_" class="st2" d="M126.3,61.2c-4.2-0.3-7.1-6.1-6.8-9.8c0.3-3.8,6.7-6.4,10.9-6.1c4.2,0.3,7.1,6.1,6.8,9.8
						C136.9,58.8,130.5,61.4,126.3,61.2"/>
					<path id="XMLID_11_" class="st3" d="M118.8,46.2c-1.8,1-7.1-3.8-8.2-5.4c-1.1-1.6,4.2-6.4,6-7.4c1.8-1,7.1,3.8,8.2,5.4
						C125.9,40.5,120.6,45.2,118.8,46.2"/>
					<polygon id="XMLID_10_" class="st6" points="99.4,44.2 94.9,37.7 102.1,33.7 106.6,40.2 					"/>
				</g>
			</g>
		</g>
	</g>
	<path id="XMLID_5_" class="st0" d="M69.4,99.1c-0.5,0-1,0.2-1.6,0.5l-0.1,0c-0.4,0.1-0.6,0.4-0.8,0.7c-0.1,0.3-0.3,1.1-0.4,2.9
		c0,0.7,0,1.7,0,2.9c0,1.2,0,2.6,0,4.2l0,0.2c0,3.8,0.1,10.9,0.1,12.6c0.1,2.2,0.3,2.9,0.4,3.1c0.6,1.2,1.4,1.9,2.3,2.1l0.1,0
		c0.2,0,0.3,0.1,0.4,0.1c0.8,0,1.5-0.4,2.2-1.2c0.2-0.2,0.3-0.4,0.3-0.6c0-0.1,0-0.1,0-0.3c0-0.2,0-0.5-0.1-0.8l0-0.1
		c0-0.4-0.1-1.6-0.1-3.7c0-1.1-0.1-3.5-0.1-5.8c0-2.1-0.1-4.1-0.1-5.2c0-0.5,0-1,0-1.5l-0.2-6.1c0-1.5-0.5-2.6-1.2-3.3
		C70.2,99.2,69.8,99.1,69.4,99.1z"/>
	<path id="XMLID_4_" class="st0" d="M69.7,87.9c-0.9,0.2-1.8,0.8-2.5,1.8c-0.7,0.8-1,1.6-1,2.4c0,0.1,0,0.2,0,0.3
		c0.1,0.4,0.2,0.7,0.4,1c0.2,0.3,0.5,0.5,0.9,0.8c0.4,0.2,0.8,0.3,1.2,0.3c0.2,0,0.5,0,1.4-0.3c0.3-0.1,1-0.4,1.9-1.7
		c0.5-0.7,0.7-1.4,0.7-2c0-0.4-0.1-0.9-0.3-1.3c-0.2-0.4-0.6-0.7-1.1-1C70.7,87.9,70.1,87.8,69.7,87.9z"/>
	<path id="XMLID_3_" class="st7" d="M100.5,51.9c2.4,1.9,2.7,5.1,0.6,7.3c-2.1,2.2-5.7,2.4-8.1,0.6c-2.4-1.9-2.7-5.1-0.6-7.3
		C94.5,50.3,98.1,50,100.5,51.9"/>
</g>
</svg>
