<?xml version="1.0" encoding="utf-8"?>
<!-- Generator: Adobe Illustrator 19.0.0, SVG Export Plug-In . SVG Version: 6.00 Build 0)  -->
<svg version="1.1" id="Layer_1" xmlns="http://www.w3.org/2000/svg" xmlns:xlink="http://www.w3.org/1999/xlink" x="0px" y="0px"
	 viewBox="0 0 198.6 79.8" style="enable-background:new 0 0 198.6 79.8;" xml:space="preserve">
<style type="text/css">
	.st0{fill:#F19220;}
	.st1{fill-rule:evenodd;clip-rule:evenodd;fill:#D85B2E;}
	.st2{fill-rule:evenodd;clip-rule:evenodd;fill:#C73546;}
	.st3{fill-rule:evenodd;clip-rule:evenodd;fill:#ED9122;}
	.st4{fill-rule:evenodd;clip-rule:evenodd;fill:#812E77;}
	.st5{fill:#ED9122;}
	.st6{fill:#4E2561;}
</style>
<g id="XMLID_172_">
	<g id="XMLID_224_">
		<g id="XMLID_225_">
			<g id="XMLID_255_">
				<g id="XMLID_256_">
					<g id="XMLID_257_">
						<path id="XMLID_258_" class="st0" d="M43.7,32.9c0.1,0.1,0,0.2-0.1,0.3c0,0,0,0-0.1,0c-0.1,0.1-0.4,0.2-0.7,0.3
							c-0.1,0-0.2,0-0.3-0.1c0-0.1,0-0.2,0.1-0.3c0.3-0.1,0.5-0.2,0.6-0.3c0,0,0.1,0,0.1,0C43.5,32.8,43.6,32.8,43.7,32.9
							C43.7,32.9,43.7,32.9,43.7,32.9z M42.2,33.4C42.2,33.4,42.2,33.4,42.2,33.4c0,0.2,0,0.3-0.2,0.3c-0.3,0-0.5,0-0.8,0
							c-0.1,0-0.2-0.1-0.2-0.2c0-0.1,0.1-0.2,0.2-0.2c0.2,0,0.5,0,0.7,0C42.1,33.3,42.2,33.3,42.2,33.4z M40.7,33.3c0,0,0,0.1,0,0.1
							c0,0.1-0.1,0.2-0.2,0.2c-0.3-0.1-0.5-0.1-0.8-0.2c-0.1,0-0.2-0.2-0.1-0.3c0-0.1,0.2-0.2,0.3-0.1c0.2,0.1,0.5,0.2,0.7,0.2
							C40.6,33.2,40.6,33.3,40.7,33.3z M39.2,32.7c0,0.1,0,0.1,0,0.2C39.2,33,39.1,33.1,39,33c-0.2-0.1-0.4-0.3-0.6-0.5
							c-0.1-0.1-0.1-0.2,0-0.3c0.1-0.1,0.2-0.1,0.3,0C38.8,32.4,39,32.5,39.2,32.7C39.2,32.7,39.2,32.7,39.2,32.7z M38.1,31.7
							c0,0.1,0,0.2,0,0.2c-0.1,0.1-0.2,0.1-0.3,0c-0.2-0.2-0.4-0.4-0.5-0.6c-0.1-0.1-0.1-0.2,0-0.3c0.1-0.1,0.2-0.1,0.3,0
							C37.7,31.3,37.9,31.5,38.1,31.7C38,31.7,38,31.7,38.1,31.7z M37.1,30.5c0,0.1,0,0.2-0.1,0.3c-0.1,0.1-0.2,0-0.3-0.1
							c-0.1-0.2-0.3-0.4-0.4-0.7c-0.1-0.1,0-0.2,0.1-0.3c0.1-0.1,0.2,0,0.3,0.1C36.8,30.1,36.9,30.3,37.1,30.5
							C37.1,30.5,37.1,30.5,37.1,30.5z M35.6,27.8c0.1,0.1,0,0.2-0.1,0.3c-0.1,0.1-0.2,0-0.3-0.1c-0.1-0.2-0.3-0.5-0.4-0.7
							c-0.1-0.1,0-0.2,0.1-0.3c0.1-0.1,0.2,0,0.3,0.1C35.4,27.4,35.5,27.6,35.6,27.8C35.6,27.8,35.6,27.8,35.6,27.8z M36,28.5
							C36,28.5,36,28.5,36,28.5c0.1,0.2,0.2,0.3,0.2,0.5c0,0.1,0.1,0.2,0.1,0.2c0.1,0.1,0,0.2-0.1,0.3c-0.1,0.1-0.2,0-0.3-0.1
							c0-0.1-0.1-0.2-0.1-0.2c-0.1-0.2-0.1-0.3-0.2-0.4c-0.1-0.1,0-0.2,0.1-0.3C35.8,28.4,35.9,28.4,36,28.5z M34.8,26.5
							c0,0.1,0,0.2-0.1,0.3c-0.1,0.1-0.2,0-0.3-0.1c-0.1-0.2-0.3-0.4-0.4-0.6c-0.1-0.1,0-0.2,0-0.3c0.1-0.1,0.2,0,0.3,0
							C34.5,26,34.7,26.3,34.8,26.5C34.8,26.5,34.8,26.5,34.8,26.5z M33.9,25.2c0,0.1,0,0.2-0.1,0.3c-0.1,0.1-0.2,0.1-0.3,0
							c-0.2-0.2-0.3-0.4-0.5-0.6c-0.1-0.1-0.1-0.2,0-0.3c0.1-0.1,0.2-0.1,0.3,0C33.6,24.8,33.7,25,33.9,25.2
							C33.9,25.2,33.9,25.2,33.9,25.2z M32.9,24.1c0,0.1,0,0.2,0,0.2c-0.1,0.1-0.2,0.1-0.3,0c-0.2-0.2-0.4-0.4-0.5-0.5
							c-0.1-0.1-0.1-0.2,0-0.3c0.1-0.1,0.2-0.1,0.3,0C32.5,23.6,32.7,23.8,32.9,24.1C32.9,24,32.9,24,32.9,24.1z M31.8,23
							c0,0.1,0,0.2,0,0.2c-0.1,0.1-0.2,0.1-0.3,0c-0.2-0.2-0.4-0.3-0.6-0.5c-0.1-0.1-0.1-0.2-0.1-0.3c0.1-0.1,0.2-0.1,0.3-0.1
							C31.3,22.6,31.5,22.8,31.8,23C31.8,23,31.8,23,31.8,23z M30.5,22.1c0,0.1,0,0.1,0,0.2c-0.1,0.1-0.2,0.1-0.3,0.1
							c-0.2-0.1-0.4-0.2-0.7-0.3c-0.1,0-0.1-0.2-0.1-0.3c0-0.1,0.2-0.2,0.3-0.1C30,21.8,30.2,21.9,30.5,22.1
							C30.5,22.1,30.5,22.1,30.5,22.1z M29.1,21.5c0,0,0,0.1,0,0.2c0,0.1-0.2,0.2-0.3,0.1c-0.2-0.1-0.5-0.1-0.7-0.2
							c-0.1,0-0.2-0.1-0.2-0.2c0-0.1,0.1-0.2,0.2-0.2c0.3,0.1,0.5,0.1,0.8,0.2C29,21.4,29.1,21.5,29.1,21.5z M27.6,21.2
							c0,0,0,0.1,0,0.1c0,0.1-0.1,0.2-0.2,0.2c-0.2,0-0.5,0-0.7,0c-0.1,0-0.2-0.1-0.2-0.2c0-0.1,0.1-0.2,0.2-0.2c0.3,0,0.5,0,0.8,0
							C27.5,21.1,27.6,21.1,27.6,21.2z M26,21.3C26.1,21.3,26.1,21.3,26,21.3c0,0.2,0,0.3-0.1,0.3c-0.2,0-0.5,0.1-0.7,0.2
							c-0.1,0-0.2,0-0.3-0.1c0-0.1,0-0.2,0.1-0.3c0.3-0.1,0.5-0.1,0.8-0.2C25.9,21.1,26,21.2,26,21.3z M24.6,21.7
							C24.6,21.7,24.6,21.7,24.6,21.7c0.1,0.1,0,0.2-0.1,0.3c-0.1,0.1-0.2,0.1-0.3,0.2c-0.1,0.1-0.2,0.1-0.3,0.2
							c-0.1,0.1-0.2,0-0.3-0.1c-0.1-0.1,0-0.2,0.1-0.3c0.1-0.1,0.2-0.1,0.4-0.2c0.1-0.1,0.2-0.1,0.4-0.2
							C24.4,21.6,24.5,21.6,24.6,21.7z M23.3,22.5c0,0.1,0,0.2-0.1,0.3c-0.2,0.2-0.4,0.3-0.5,0.5c-0.1,0.1-0.2,0.1-0.3,0
							c-0.1-0.1-0.1-0.2,0-0.3c0.2-0.2,0.4-0.4,0.6-0.5C23,22.4,23.2,22.4,23.3,22.5C23.2,22.5,23.3,22.5,23.3,22.5z M22.2,23.7
							c0,0.1,0,0.2,0,0.2c-0.1,0.2-0.3,0.4-0.4,0.6c-0.1,0.1-0.2,0.1-0.3,0.1c-0.1-0.1-0.1-0.2-0.1-0.3c0.1-0.2,0.3-0.5,0.4-0.7
							C21.9,23.5,22,23.5,22.2,23.7C22.2,23.6,22.2,23.6,22.2,23.7z M21.4,25c0,0.1,0,0.1,0,0.2c-0.1,0.2-0.2,0.5-0.2,0.7
							c0,0.1-0.1,0.2-0.2,0.1c-0.1,0-0.2-0.1-0.1-0.2c0.1-0.3,0.1-0.5,0.2-0.8c0-0.1,0.2-0.2,0.3-0.1C21.4,24.9,21.4,25,21.4,25z
							 M21.1,26.5c0,0,0,0.1,0,0.1c0,0.2,0,0.5,0,0.7c0,0.1-0.1,0.2-0.2,0.2c-0.1,0-0.2-0.1-0.2-0.2c0-0.3,0-0.5,0-0.8
							c0-0.1,0.1-0.2,0.2-0.2C21,26.4,21,26.4,21.1,26.5z M21.1,28C21.1,28.1,21.1,28.1,21.1,28c0.1,0.3,0.1,0.6,0.2,0.8
							c0,0.1,0,0.2-0.1,0.3c-0.1,0-0.2,0-0.3-0.1c-0.1-0.3-0.1-0.5-0.2-0.8c0-0.1,0.1-0.2,0.2-0.2C21,27.9,21.1,28,21.1,28z
							 M21.6,29.5C21.6,29.5,21.6,29.5,21.6,29.5c0.1,0.2,0.2,0.5,0.4,0.7c0.1,0.1,0,0.2-0.1,0.3c-0.1,0.1-0.2,0-0.3-0.1
							c-0.1-0.2-0.3-0.5-0.4-0.7c0-0.1,0-0.2,0.1-0.3C21.4,29.4,21.5,29.4,21.6,29.5z"/>
					</g>
				</g>
			</g>
			<g id="XMLID_226_">
				<g id="XMLID_227_">
					<g id="XMLID_228_">
						<path id="XMLID_229_" class="st0" d="M15.9,12.1C15.9,12.1,15.9,12.1,15.9,12.1c0.1,0.3,0.2,0.5,0.3,0.8c0,0.1,0,0.2-0.1,0.3
							c-0.1,0-0.2,0-0.3-0.1c-0.1-0.2-0.2-0.5-0.3-0.7c0-0.1,0-0.2,0.1-0.3C15.7,11.9,15.8,12,15.9,12.1z M15.5,11.4
							c0,0.1,0,0.2-0.1,0.3c-0.1,0.1-0.2,0-0.3-0.1c-0.1-0.2-0.3-0.4-0.5-0.6c-0.1-0.1-0.1-0.2,0-0.3c0.1-0.1,0.2-0.1,0.3,0
							C15.2,11,15.3,11.2,15.5,11.4C15.5,11.4,15.5,11.4,15.5,11.4z M16.3,13.5C16.3,13.6,16.3,13.6,16.3,13.5
							c0.1,0.3,0.1,0.6,0.1,0.9c0,0.1-0.1,0.2-0.2,0.2c-0.1,0-0.2-0.1-0.2-0.2c0-0.2,0-0.5,0-0.7c0-0.1,0.1-0.2,0.2-0.2
							C16.2,13.4,16.3,13.5,16.3,13.5z M14.5,10.2c0,0.1,0,0.2,0,0.2c-0.1,0.1-0.2,0.1-0.3,0c-0.2-0.2-0.4-0.3-0.6-0.5
							c-0.1-0.1-0.1-0.2,0-0.3c0.1-0.1,0.2-0.1,0.3,0C14,9.8,14.2,10,14.5,10.2C14.5,10.2,14.5,10.2,14.5,10.2z M13.3,9.3
							c0,0.1,0,0.1,0,0.2c-0.1,0.1-0.2,0.1-0.3,0.1c-0.4-0.2-0.7-0.4-0.7-0.4c-0.1,0-0.1-0.2-0.1-0.3c0-0.1,0.2-0.1,0.3-0.1
							C12.5,8.8,12.8,9,13.3,9.3C13.2,9.2,13.2,9.3,13.3,9.3z M16.3,15.1c0,0,0,0.1,0,0.1c0,0.3-0.1,0.5-0.2,0.8
							c0,0.1-0.2,0.2-0.3,0.1c-0.1,0-0.2-0.2-0.1-0.3c0.1-0.2,0.1-0.5,0.2-0.7c0-0.1,0.1-0.2,0.2-0.2C16.2,15,16.2,15,16.3,15.1z
							 M15.8,16.6c0,0.1,0,0.1,0,0.2c-0.1,0.2-0.2,0.5-0.4,0.7c-0.1,0.1-0.2,0.1-0.3,0.1c-0.1-0.1-0.1-0.2-0.1-0.3
							c0.1-0.2,0.2-0.4,0.3-0.7C15.5,16.5,15.6,16.4,15.8,16.6C15.7,16.5,15.8,16.5,15.8,16.6z M22.3,30.6c0,0.1,0,0.1,0,0.2
							c-0.1,0.2-0.2,0.4-0.4,0.6c-0.1,0.1-0.2,0.1-0.3,0.1c-0.1-0.1-0.1-0.2-0.1-0.3c0.1-0.2,0.2-0.4,0.3-0.6
							C21.9,30.5,22.1,30.4,22.3,30.6C22.2,30.5,22.2,30.5,22.3,30.6z M15,17.9c0,0.1,0,0.1,0,0.2c-0.1,0.2-0.3,0.4-0.5,0.6
							c-0.1,0.1-0.2,0.1-0.3,0c-0.1-0.1-0.1-0.2,0-0.3c0.2-0.2,0.3-0.4,0.4-0.6C14.7,17.8,14.8,17.8,15,17.9
							C15,17.8,15,17.9,15,17.9z M21.4,31.8c0,0.1,0,0.2,0,0.2c-0.2,0.2-0.4,0.4-0.6,0.6c-0.1,0.1-0.2,0.1-0.3,0
							c-0.1-0.1-0.1-0.2,0-0.3c0.2-0.2,0.4-0.3,0.5-0.5C21.2,31.6,21.3,31.6,21.4,31.8C21.4,31.7,21.4,31.7,21.4,31.8z M14.1,19.1
							c0,0.1,0,0.2,0,0.2c-0.2,0.2-0.3,0.4-0.5,0.6c-0.1,0.1-0.2,0.1-0.3,0c-0.1-0.1-0.1-0.2,0-0.3c0.2-0.2,0.3-0.4,0.5-0.6
							C13.8,19,13.9,19,14.1,19.1C14,19.1,14,19.1,14.1,19.1z M20.2,32.8c0.1,0.1,0,0.2-0.1,0.3c-0.1,0.1-0.2,0.1-0.4,0.2
							c-0.1,0.1-0.2,0.1-0.4,0.2c-0.1,0-0.2,0-0.3-0.1c0-0.1,0-0.2,0.1-0.3c0.1,0,0.2-0.1,0.3-0.2c0.1-0.1,0.2-0.1,0.3-0.2
							C20,32.6,20.2,32.7,20.2,32.8C20.2,32.8,20.2,32.8,20.2,32.8z M13.1,20.4c0,0.1,0,0.1,0,0.2c-0.1,0.2-0.3,0.4-0.4,0.6
							c-0.1,0.1-0.2,0.1-0.3,0.1c-0.1-0.1-0.1-0.2-0.1-0.3c0.1-0.2,0.3-0.4,0.4-0.6C12.8,20.2,13,20.2,13.1,20.4
							C13.1,20.3,13.1,20.3,13.1,20.4z M18.8,33.4C18.8,33.4,18.8,33.4,18.8,33.4c0,0.1,0,0.3-0.1,0.3c-0.3,0.1-0.5,0.1-0.8,0.2
							c-0.1,0-0.2-0.1-0.2-0.2c0-0.1,0.1-0.2,0.2-0.2c0.2,0,0.5-0.1,0.7-0.2C18.7,33.3,18.8,33.3,18.8,33.4z M12.3,21.7
							c0,0.1,0,0.1,0,0.2c-0.1,0.2-0.3,0.4-0.4,0.7c-0.1,0.1-0.2,0.1-0.3,0.1c-0.1-0.1-0.1-0.2-0.1-0.3c0.1-0.2,0.2-0.5,0.4-0.7
							C12,21.6,12.1,21.5,12.3,21.7C12.3,21.6,12.3,21.6,12.3,21.7z M17.3,33.6C17.3,33.7,17.3,33.7,17.3,33.6
							c0,0.2-0.1,0.3-0.2,0.3c-0.3,0-0.5,0-0.8,0c-0.1,0-0.2-0.1-0.2-0.2c0-0.1,0.1-0.2,0.2-0.2c0.2,0,0.5,0,0.7,0
							C17.2,33.5,17.3,33.6,17.3,33.6z M11.6,23c0,0.1,0,0.1,0,0.2c-0.1,0.2-0.2,0.5-0.3,0.7c0,0.1-0.2,0.2-0.3,0.1
							c-0.1,0-0.2-0.2-0.1-0.3c0.1-0.2,0.2-0.5,0.3-0.7C11.3,22.9,11.4,22.9,11.6,23C11.5,23,11.6,23,11.6,23z M11,24.5
							c0,0,0,0.1,0,0.2c-0.1,0.2-0.1,0.5-0.2,0.7c0,0.1-0.1,0.2-0.2,0.2c-0.1,0-0.2-0.1-0.2-0.2c0.1-0.2,0.1-0.5,0.2-0.8
							c0-0.1,0.1-0.2,0.3-0.1C11,24.4,11,24.4,11,24.5z M15.8,33.5c0,0,0,0.1,0,0.1c0,0.1-0.1,0.2-0.2,0.2c-0.3-0.1-0.5-0.1-0.8-0.2
							c-0.1,0-0.2-0.2-0.1-0.3c0-0.1,0.2-0.2,0.3-0.1c0.2,0.1,0.5,0.1,0.7,0.2C15.7,33.4,15.7,33.5,15.8,33.5z M10.7,26
							c0,0,0,0.1,0,0.1c0,0.3-0.1,0.5-0.1,0.8c0,0.1-0.1,0.2-0.2,0.2c-0.1,0-0.2-0.1-0.2-0.2c0-0.3,0-0.5,0.1-0.8
							c0-0.1,0.1-0.2,0.2-0.2C10.6,25.9,10.7,25.9,10.7,26z M14.3,33c0,0.1,0,0.1,0,0.2c0,0.1-0.2,0.1-0.3,0.1
							c-0.2-0.1-0.5-0.2-0.7-0.4c-0.1-0.1-0.1-0.2-0.1-0.3c0.1-0.1,0.2-0.1,0.3-0.1C13.8,32.7,14,32.8,14.3,33
							C14.3,32.9,14.3,33,14.3,33z M10.6,27.5C10.6,27.5,10.6,27.6,10.6,27.5c0,0.3,0.1,0.6,0.1,0.8c0,0.1-0.1,0.2-0.2,0.2
							c-0.1,0-0.2-0.1-0.2-0.2c0-0.3-0.1-0.5-0.1-0.8c0-0.1,0.1-0.2,0.2-0.2C10.5,27.4,10.6,27.5,10.6,27.5z M13,32.2
							c0,0.1,0,0.2,0,0.2c-0.1,0.1-0.2,0.1-0.3,0c-0.2-0.2-0.4-0.3-0.6-0.5c-0.1-0.1-0.1-0.2,0-0.3c0.1-0.1,0.2-0.1,0.3,0
							C12.6,31.8,12.7,32,13,32.2C13,32.2,13,32.2,13,32.2z M10.9,29C10.9,29.1,10.9,29.1,10.9,29c0.1,0.3,0.2,0.5,0.3,0.7
							c0,0.1,0,0.2-0.1,0.3c-0.1,0-0.2,0-0.3-0.1c-0.1-0.2-0.2-0.5-0.3-0.8c0-0.1,0-0.2,0.1-0.3C10.7,28.9,10.8,29,10.9,29z
							 M11.9,31.1c0,0.1,0,0.2-0.1,0.3c-0.1,0.1-0.2,0.1-0.3,0c-0.2-0.2-0.3-0.4-0.4-0.7c-0.1-0.1,0-0.2,0.1-0.3
							c0.1-0.1,0.2,0,0.3,0.1C11.6,30.7,11.7,30.9,11.9,31.1C11.9,31.1,11.9,31.1,11.9,31.1z"/>
					</g>
				</g>
			</g>
		</g>
	</g>
	<g id="XMLID_174_">
		<g id="XMLID_218_">
			<g id="XMLID_221_">
				<path id="XMLID_74_" class="st1" d="M35.1,33c-1.9-0.1-3.2-3-3-4.8c0.1-1.9,3-3.2,4.8-3c1.9,0.1,3.2,3,3,4.8
					C39.8,31.8,36.9,33.1,35.1,33"/>
				<path id="XMLID_73_" class="st2" d="M31.7,25.6c-0.8,0.5-3.1-1.9-3.6-2.7c-0.5-0.8,1.9-3.1,2.7-3.6c0.8-0.5,3.1,1.9,3.6,2.7
					C34.9,22.8,32.5,25.1,31.7,25.6"/>
			</g>
			<g id="XMLID_219_">
				<path id="XMLID_72_" class="st3" d="M17,6.7c1.1,2.5,0,5.5-2.6,6.7c-2.5,1.1-5.5,0-6.7-2.6c-1.1-2.5,0-5.5,2.6-6.7
					C12.9,3,15.8,4.2,17,6.7"/>
			</g>
		</g>
		<g id="XMLID_175_">
			<g id="XMLID_176_">
				<g id="XMLID_214_">
					<path id="XMLID_71_" class="st1" d="M35.1,33c-1.9-0.1-3.2-3-3-4.8c0.1-1.9,3-3.2,4.8-3c1.9,0.1,3.2,3,3,4.8
						C39.8,31.8,36.9,33.1,35.1,33"/>
					<path id="XMLID_70_" class="st2" d="M31.7,25.6c-0.8,0.5-3.1-1.9-3.6-2.7c-0.5-0.8,1.9-3.1,2.7-3.6c0.8-0.5,3.1,1.9,3.6,2.7
						C34.9,22.8,32.5,25.1,31.7,25.6"/>
					
						<rect id="XMLID_69_" x="21.8" y="20.2" transform="matrix(0.5264 0.8503 -0.8503 0.5264 29.9714 -9.7107)" class="st4" width="3.7" height="3.7"/>
				</g>
				<g id="XMLID_181_">
					<path id="XMLID_68_" class="st3" d="M4.4,47.2c1.6-2.3,4.7-2.8,7-1.2c2.3,1.6,2.8,4.7,1.2,7c-1.6,2.3-4.7,2.8-7,1.2
						C3.4,52.6,2.8,49.5,4.4,47.2"/>
					<g id="XMLID_185_">
						<g id="XMLID_186_">
							<path id="XMLID_187_" class="st0" d="M27.9,33.6c0,0.1,0.1,0.1,0.1,0.2c0,0.1,0,0.2-0.1,0.3c-0.1,0-0.2,0-0.3-0.1
								c-0.1-0.2-0.2-0.4-0.4-0.7c-0.1-0.1,0-0.2,0.1-0.3c0.1-0.1,0.2,0,0.3,0.1C27.7,33.3,27.8,33.4,27.9,33.6z M28.3,34.5
								C28.3,34.5,28.3,34.5,28.3,34.5c0.1,0.3,0.2,0.5,0.2,0.8c0,0.1,0,0.2-0.2,0.2c-0.1,0-0.2,0-0.2-0.2c-0.1-0.2-0.1-0.5-0.2-0.7
								c0-0.1,0-0.2,0.1-0.3C28.1,34.4,28.2,34.4,28.3,34.5z M27.1,32.5c0,0.1,0,0.2,0,0.3c-0.1,0.1-0.2,0.1-0.3,0
								c-0.2-0.2-0.3-0.4-0.5-0.5c-0.1-0.1-0.1-0.2,0-0.3c0.1-0.1,0.2-0.1,0.3,0C26.8,32.1,27,32.3,27.1,32.5
								C27.1,32.5,27.1,32.5,27.1,32.5z M28.6,36C28.6,36,28.6,36.1,28.6,36c0.1,0.3,0.1,0.6,0.1,0.9c0,0.1-0.1,0.2-0.2,0.2
								c-0.1,0-0.2-0.1-0.2-0.2c0-0.2,0-0.5,0-0.7c0-0.1,0.1-0.2,0.2-0.2C28.5,35.9,28.6,35.9,28.6,36z M26,31.5c0,0.1,0,0.1,0,0.2
								c-0.1,0.1-0.2,0.1-0.3,0.1c-0.2-0.1-0.4-0.3-0.6-0.4c-0.1-0.1-0.1-0.2-0.1-0.3c0.1-0.1,0.2-0.1,0.3-0.1
								C25.5,31.1,25.7,31.2,26,31.5C26,31.4,26,31.4,26,31.5z M28.6,37.6c0,0,0,0.1,0,0.1c0,0.3-0.1,0.5-0.2,0.8
								c0,0.1-0.1,0.2-0.3,0.1c-0.1,0-0.2-0.1-0.1-0.3c0.1-0.2,0.1-0.5,0.1-0.7c0-0.1,0.1-0.2,0.2-0.2
								C28.5,37.5,28.6,37.5,28.6,37.6z M24.6,30.8c0,0,0,0.1,0,0.2c0,0.1-0.2,0.2-0.3,0.1c-0.2-0.1-0.5-0.1-0.7-0.2
								c-0.1,0-0.2-0.1-0.2-0.2c0-0.1,0.1-0.2,0.2-0.2c0.3,0.1,0.5,0.1,0.8,0.2C24.6,30.7,24.6,30.7,24.6,30.8z M28.2,39.1
								c0,0.1,0,0.1,0,0.2c-0.1,0.2-0.2,0.5-0.3,0.7c-0.1,0.1-0.2,0.1-0.3,0.1c-0.1-0.1-0.1-0.2-0.1-0.3c0.1-0.2,0.2-0.4,0.3-0.7
								c0-0.1,0.2-0.2,0.3-0.1C28.2,39,28.2,39,28.2,39.1z M23.1,30.5c0,0,0,0.1,0,0.1c0,0.1-0.1,0.2-0.2,0.2c-0.2,0-0.4,0-0.6,0
								c-0.1,0-0.2-0.1-0.2-0.2c0-0.1,0.1-0.2,0.2-0.2c0.2,0,0.5,0,0.7,0C23,30.4,23.1,30.4,23.1,30.5z M27.5,40.4
								c0,0.1,0,0.2,0,0.2c-0.2,0.2-0.3,0.4-0.5,0.6c-0.1,0.1-0.2,0.1-0.3,0c-0.1-0.1-0.1-0.2,0-0.3c0.2-0.2,0.3-0.4,0.5-0.6
								C27.2,40.3,27.3,40.3,27.5,40.4C27.4,40.4,27.5,40.4,27.5,40.4z M26.4,41.5c0,0.1,0,0.2,0,0.3c-0.2,0.2-0.4,0.3-0.6,0.5
								c-0.1,0.1-0.2,0-0.3-0.1c-0.1-0.1,0-0.2,0.1-0.3c0.2-0.1,0.4-0.3,0.6-0.5C26.2,41.4,26.3,41.4,26.4,41.5
								C26.4,41.5,26.4,41.5,26.4,41.5z M25.1,42.4c0.1,0.1,0,0.2-0.1,0.3c-0.2,0.1-0.5,0.2-0.7,0.3c-0.1,0-0.2,0-0.3-0.1
								c0-0.1,0-0.2,0.1-0.3c0.2-0.1,0.5-0.2,0.7-0.3C25,42.3,25.1,42.3,25.1,42.4z M23.7,43C23.7,43,23.7,43,23.7,43
								c0,0.1,0,0.3-0.1,0.3c-0.2,0.1-0.5,0.2-0.8,0.2c-0.1,0-0.2,0-0.2-0.2c0-0.1,0-0.2,0.2-0.2c0.2-0.1,0.5-0.1,0.7-0.2
								C23.6,42.9,23.7,42.9,23.7,43z M22.2,43.4C22.2,43.4,22.2,43.4,22.2,43.4c0,0.2,0,0.3-0.1,0.3c-0.3,0-0.5,0.1-0.8,0.1
								c-0.1,0-0.2-0.1-0.2-0.2c0-0.1,0.1-0.2,0.2-0.2c0.3,0,0.5-0.1,0.8-0.1C22.1,43.3,22.2,43.3,22.2,43.4z M20.7,43.5
								C20.7,43.6,20.7,43.6,20.7,43.5c0,0.2-0.1,0.3-0.2,0.3c-0.3,0-0.5,0-0.8,0c-0.1,0-0.2-0.1-0.2-0.2c0-0.1,0.1-0.2,0.2-0.2
								c0.3,0,0.5,0,0.8,0C20.6,43.4,20.6,43.5,20.7,43.5z M19.1,43.6c0,0,0,0.1,0,0.1c0,0.1-0.1,0.2-0.2,0.2c-0.3,0-0.5,0-0.8,0
								c-0.1,0-0.2-0.1-0.2-0.2c0-0.1,0.1-0.2,0.2-0.2c0.3,0,0.5,0,0.8,0C19,43.5,19.1,43.5,19.1,43.6z M17.6,43.5c0,0,0,0.1,0,0.1
								c0,0.1-0.1,0.2-0.2,0.2c-0.3,0-0.5-0.1-0.8-0.1c-0.1,0-0.2-0.1-0.2-0.2c0-0.1,0.1-0.2,0.2-0.2c0.3,0,0.5,0.1,0.8,0.1
								C17.5,43.4,17.6,43.4,17.6,43.5z M16.1,43.3c0,0,0,0.1,0,0.1c0,0.1-0.1,0.2-0.2,0.2c-0.3,0-0.5-0.1-0.8-0.1
								c-0.1,0-0.2-0.1-0.2-0.2c0-0.1,0.1-0.2,0.2-0.2c0.3,0,0.5,0,0.8,0.1C16,43.2,16,43.2,16.1,43.3z M14.5,43.2
								C14.5,43.2,14.5,43.2,14.5,43.2c0,0.2-0.1,0.3-0.2,0.3c-0.3,0-0.5,0-0.8,0c-0.1,0-0.2-0.1-0.2-0.2c0-0.1,0.1-0.2,0.2-0.2
								c0.3,0,0.5,0,0.8,0C14.4,43.1,14.5,43.1,14.5,43.2z M13,43.3C13,43.4,13,43.4,13,43.3c0,0.2,0,0.3-0.1,0.3
								c-0.2,0.1-0.5,0.1-0.7,0.2c-0.1,0-0.2,0-0.3-0.1c0-0.1,0-0.2,0.1-0.3c0.2-0.1,0.5-0.2,0.8-0.2C12.8,43.2,12.9,43.3,13,43.3z
								 M11.5,43.9c0.1,0.1,0,0.2-0.1,0.3c-0.2,0.1-0.4,0.3-0.6,0.4c-0.1,0.1-0.2,0.1-0.3,0c-0.1-0.1-0.1-0.2,0-0.3
								c0.2-0.2,0.4-0.3,0.7-0.4C11.3,43.7,11.5,43.8,11.5,43.9C11.5,43.9,11.5,43.9,11.5,43.9z M10.3,44.8c0,0.1,0,0.2,0,0.2
								c-0.2,0.2-0.3,0.4-0.5,0.6c-0.1,0.1-0.2,0.1-0.3,0.1c-0.1-0.1-0.1-0.2-0.1-0.3c0.1-0.2,0.3-0.4,0.5-0.6
								C10.1,44.7,10.2,44.7,10.3,44.8C10.3,44.8,10.3,44.8,10.3,44.8z M9.5,46.1c0,0.1,0,0.1,0,0.2c-0.1,0.2-0.2,0.5-0.3,0.7
								c0,0.1-0.2,0.2-0.3,0.1c-0.1,0-0.2-0.2-0.1-0.3c0.1-0.3,0.2-0.5,0.3-0.7C9.1,46,9.3,46,9.5,46.1C9.4,46,9.4,46.1,9.5,46.1z
								 M9,47.6c0,0,0,0.1,0,0.1c-0.1,0.2-0.1,0.5-0.1,0.7c0,0.1-0.1,0.2-0.2,0.2c-0.1,0-0.2-0.1-0.2-0.2c0-0.3,0.1-0.5,0.1-0.8
								c0-0.1,0.1-0.2,0.2-0.2C8.9,47.5,9,47.5,9,47.6z M8.8,49.1c0,0,0,0.1,0,0.1c0,0.5,0,0.7,0,0.7c0,0.1-0.1,0.2-0.2,0.2
								c-0.1,0-0.2-0.1-0.2-0.2c0,0,0-0.3,0-0.8c0-0.1,0.1-0.2,0.2-0.2C8.7,49,8.8,49,8.8,49.1z"/>
						</g>
					</g>
					<path id="XMLID_42_" class="st1" d="M13.4,40.5c1.1-1.5,4.2-1.2,5.7-0.1c1.5,1.1,1.2,4.2,0.1,5.7c-1.1,1.5-4.2,1.2-5.7,0.1
						C11.9,45.1,12.3,42,13.4,40.5"/>
					<path id="XMLID_41_" class="st2" d="M21.4,41.4c0-0.9,3.2-1.7,4.2-1.7c0.9,0,1.7,3.2,1.7,4.2c0,0.9-3.2,1.7-4.2,1.7
						C22.2,45.6,21.4,42.4,21.4,41.4"/>
					
						<rect id="XMLID_40_" x="26.7" y="34.5" transform="matrix(-0.9999 1.224079e-002 -1.224079e-002 -0.9999 57.5929 72.4709)" class="st4" width="3.7" height="3.7"/>
				</g>
				<g id="XMLID_177_">
					<path id="XMLID_39_" class="st1" d="M18.2,17.8c0.8,1.7-1.2,4.2-2.8,4.9c-1.7,0.8-4.2-1.1-4.9-2.8c-0.8-1.7,1.1-4.2,2.8-4.9
						C14.9,14.2,17.4,16.1,18.2,17.8"/>
					<path id="XMLID_38_" class="st2" d="M13.2,24.2c0.8,0.5-0.2,3.7-0.6,4.5c-0.5,0.8-3.7-0.2-4.5-0.6c-0.8-0.5,0.2-3.7,0.6-4.5
						C9.2,22.8,12.4,23.8,13.2,24.2"/>
					
						<rect id="XMLID_37_" x="12" y="31.1" transform="matrix(0.5027 -0.8644 0.8644 0.5027 -21.6388 28.3651)" class="st4" width="3.7" height="3.7"/>
				</g>
			</g>
		</g>
	</g>
	<path id="XMLID_36_" class="st3" d="M19.5,30.1c0.3-1.4,1.7-2.2,3-1.9c1.4,0.3,2.2,1.7,1.9,3c-0.3,1.4-1.7,2.2-3,1.9
		C20.1,32.8,19.2,31.4,19.5,30.1"/>
</g>
<g id="XMLID_157_">
	<g id="XMLID_160_">
		<g id="XMLID_169_">
			<path id="XMLID_35_" class="st5" d="M57.7,30.1h-6.2v-7.6c0-0.3-0.3-0.6-0.6-0.6h-4.3c-0.3,0-0.6,0.3-0.6,0.6v7.6h-3.5
				c-0.3,0-0.6,0.3-0.6,0.6v3.8c0,0.3,0.3,0.6,0.6,0.6H46v19.7c0,0.3,0.3,0.6,0.6,0.6H51c0.3,0,0.6-0.3,0.6-0.6V35h6.2
				c0.3,0,0.6-0.3,0.6-0.6v-3.8C58.3,30.4,58,30.1,57.7,30.1z"/>
			<path id="XMLID_34_" class="st5" d="M74.3,29.6c-3,0-5.4,1.1-7.1,3.4V16.4c0-0.3-0.3-0.6-0.6-0.6h-4.3c-0.3,0-0.6,0.3-0.6,0.6
				v38.4c0,0.3,0.3,0.6,0.6,0.6h4.3c0.3,0,0.6-0.3,0.6-0.6V44.2c0-3.7,2.5-9.1,6.9-9.1c3.8,0,4.3,3,4.3,4.8v14.8
				c0,0.3,0.3,0.6,0.6,0.6h4.3c0.3,0,0.6-0.3,0.6-0.6V39.3C84,37,83.3,29.6,74.3,29.6z"/>
		</g>
		<g id="XMLID_161_">
			<path id="XMLID_33_" class="st5" d="M116.2,29.6c-3,0-5.4,1.1-7.1,3.4v-2.3c0-0.3-0.3-0.6-0.6-0.6h-4.3c-0.3,0-0.6,0.3-0.6,0.6
				v24c0,0.3,0.3,0.6,0.6,0.6h4.3c0.3,0,0.6-0.3,0.6-0.6V44.2c0-3.7,2.5-9.1,6.9-9.1c3.8,0,4.3,3,4.3,4.8v14.8
				c0,0.3,0.3,0.6,0.6,0.6h4.3c0.3,0,0.6-0.3,0.6-0.6V39.3c0-1.4-0.2-4-1.8-6.2C122.3,30.8,119.7,29.6,116.2,29.6z"/>
			<path id="XMLID_32_" class="st5" d="M143.7,40.8l9-9.8c0.2-0.2,0.2-0.4,0.1-0.6c-0.1-0.2-0.3-0.3-0.5-0.3h-6
				c-0.2,0-0.3,0.1-0.4,0.2l-7.5,8.5V16.4c0-0.3-0.3-0.6-0.6-0.6h-4.3c-0.3,0-0.6,0.3-0.6,0.6v38.4c0,0.3,0.3,0.6,0.6,0.6h4.3
				c0.3,0,0.6-0.3,0.6-0.6V43.1l9,11.9c0.1,0.1,0.3,0.2,0.5,0.2h5.8c0.2,0,0.4-0.1,0.5-0.3c0.1-0.2,0.1-0.4-0.1-0.6L143.7,40.8z"/>
			<path id="XMLID_31_" class="st5" d="M161.2,19.9c-1.8,0-3.3,1.5-3.3,3.3c0,1.8,1.5,3.3,3.3,3.3c1.8,0,3.3-1.5,3.3-3.3
				C164.5,21.3,163,19.9,161.2,19.9z"/>
			<path id="XMLID_30_" class="st5" d="M163.4,30.1H159c-0.3,0-0.6,0.3-0.6,0.6v24c0,0.3,0.3,0.6,0.6,0.6h4.3c0.3,0,0.6-0.3,0.6-0.6
				v-24C164,30.4,163.7,30.1,163.4,30.1z"/>
			<path id="XMLID_162_" class="st5" d="M193.8,30.1h-4.3c-0.3,0-0.6,0.3-0.6,0.6v1.7c-1.8-1.9-4.2-2.8-7.1-2.8
				c-7.2,0-12.8,5.8-12.8,13.1c0,7.3,5.6,13.1,12.8,13.1c2.9,0,5.3-0.9,7.1-2.8v1.7c0,0.3,0.3,0.6,0.6,0.6h4.3
				c0.3,0,0.6-0.3,0.6-0.6v-24C194.4,30.4,194.1,30.1,193.8,30.1z M188.9,39.3V46c-1.3,2.6-3.9,4.3-6.8,4.3c-4.3,0-7.6-3.3-7.6-7.6
				c0-4.3,3.3-7.6,7.6-7.6C185,35.1,187.7,36.7,188.9,39.3z"/>
		</g>
	</g>
	<path id="XMLID_27_" class="st6" d="M93.7,30c-0.4,0-0.8,0.1-1.3,0.4l-0.1,0c-0.3,0.1-0.5,0.3-0.6,0.7c-0.1,0.3-0.3,0.9-0.3,2.5
		c0,0.6,0,1.5,0,2.5c0,1,0,2.2,0,3.7l0,0.2c0,3.3,0.1,9.6,0.1,11.1c0.1,2,0.2,2.5,0.3,2.7c0.5,1.1,1.1,1.7,1.9,1.8l0,0
		c0.1,0,0.2,0.1,0.3,0.1c0.6,0,1.2-0.4,1.7-1.1c0.2-0.2,0.2-0.4,0.3-0.5c0,0,0-0.1,0-0.3c0-0.2,0-0.4-0.1-0.7l0-0.1
		c0-0.4-0.1-1.4-0.1-3.3c0-0.9,0-3.1-0.1-5.1c0-1.8,0-3.6-0.1-4.5c0-0.4,0-0.9,0-1.3l-0.1-5.4c0-1.3-0.4-2.2-1-2.9
		C94.4,30.2,94.1,30,93.7,30z"/>
	<path id="XMLID_26_" class="st6" d="M94,20.2c-0.7,0.2-1.4,0.7-2,1.6c-0.5,0.7-0.8,1.4-0.8,2.1c0,0.1,0,0.2,0,0.2
		c0.1,0.4,0.2,0.6,0.3,0.8c0.2,0.2,0.4,0.5,0.7,0.7c0.3,0.2,0.6,0.3,1,0.3c0.1,0,0.4,0,1.1-0.3c0.2-0.1,0.8-0.4,1.5-1.5
		c0.4-0.6,0.6-1.2,0.6-1.7c0-0.4-0.1-0.8-0.3-1.2c-0.2-0.4-0.5-0.6-0.9-0.8C94.8,20.2,94.3,20.2,94,20.2z"/>
</g>
<g id="XMLID_124_">
	<path id="XMLID_25_" class="st6" d="M92.5,74.1c0,0,0-0.1-0.1-0.2c-0.3-0.7-0.5-1.9-0.6-3.7c0-0.7-0.1-1.5-0.1-2.3
		c0-1.2,0-2.6,0.1-4.1c0-0.7,0.1-1.2,0.1-1.5c0-0.1,0-0.3,0-0.4c0-0.2,0-0.3,0-0.5c0-0.1,0-0.2-0.1-0.3c0-0.1-0.1-0.1-0.2-0.2
		c-0.1-0.1-0.3-0.1-0.4-0.1c0,0-0.1,0-0.3,0c-0.1,0-0.2,0.1-0.3,0.3c-0.1,0.2-0.1,0.7-0.2,2.2c-0.1,1.3-0.1,2.7-0.1,4.1v0.8
		c0,1,0,1.9,0.1,2.5c0.1,1.4,0.3,2.4,0.5,3.1c0.2,0.6,0.4,0.9,0.7,1c0.1,0,0.2,0,0.2,0c0.2,0,0.4,0,0.6-0.5c0-0.1,0-0.1,0-0.2
		L92.5,74.1C92.5,74.2,92.5,74.2,92.5,74.1z"/>
	<path id="XMLID_153_" class="st6" d="M100,72c-0.1-0.4-0.1-0.9-0.2-1.6c0-0.5-0.1-0.9-0.1-1.2c0-0.3,0-0.5-0.1-0.6
		c0-0.1-0.1-0.2-0.1-0.3c-0.2-0.3-0.4-0.5-0.8-0.5c-0.1,0-0.2,0-0.3,0c-0.1,0-0.2-0.1-0.3-0.1c-0.3-0.2-0.6-0.3-1-0.3h0
		c-0.4,0-0.9,0.2-1.3,0.5c-0.4,0.4-0.8,0.9-1.2,1.5c-0.4,0.6-0.6,1.4-0.8,2.2c-0.1,0.4-0.1,0.8-0.1,1.2V73c0,0.3,0.1,0.6,0.3,0.8
		c0.1,0.2,0.3,0.4,0.6,0.4c0.2,0.1,0.5,0,0.8-0.1c0.6-0.3,1.4-1.2,2.3-2.7l0.7-1.1l0.1,0.8c0,0.1,0,0.2,0.1,0.3c0,0.2,0,0.3,0.1,0.5
		c0.1,0.4,0.2,0.8,0.3,1.2c0.1,0.3,0.2,0.6,0.4,0.7c0.2,0.2,0.3,0.2,0.5,0.2c0,0,0.1,0,0.3,0c0,0,0.2-0.1,0.4-0.4
		c0.1-0.1,0.1-0.2,0.1-0.3c0-0.1-0.1-0.3-0.2-0.5C100.2,72.6,100.1,72.4,100,72z M97.1,69.8c-0.3,0.4-0.6,0.9-1,1.5
		c-0.2,0.2-0.3,0.5-0.4,0.6c-0.2,0.3-0.2,0.3-0.3,0.3c-0.1,0-0.2-0.1-0.2-0.2c0,0,0-0.1,0.1-0.3c0-0.1,0.1-0.3,0.2-0.6
		c0.1-0.2,0.2-0.5,0.3-0.7c0.1-0.2,0.2-0.4,0.3-0.6c0.2-0.3,0.4-0.5,0.6-0.7c0.2-0.2,0.4-0.4,0.6-0.4h0c0.1,0,0.1,0,0.2,0
		c0.1,0.1,0.2,0.2,0.2,0.2C97.6,69.1,97.6,69.1,97.1,69.8z"/>
	<path id="XMLID_150_" class="st6" d="M106.5,66.5L106.5,66.5c-0.5,0-1,0.2-1.6,0.7c-0.4,0.3-0.7,0.7-0.9,1.1l-0.7,1l-0.1-1.4
		c0-0.2,0-0.6,0-1c0-0.4,0-0.8,0-1.2c0-0.4,0-0.7,0-0.9c0-0.2,0-0.4,0-0.4c0-0.1,0-0.1-0.1-0.2c-0.1-0.1-0.2-0.2-0.4-0.3
		c-0.1,0-0.1,0-0.2,0c0,0-0.1,0-0.3,0.1c-0.1,0-0.2,0.1-0.3,0.3c0,0,0,0.1-0.1,0.1c0,0.1,0,0.2,0,0.4v0.9c0,0.7,0.1,1.7,0.1,3
		c0.1,1.3,0.2,2.5,0.2,3.7c0.1,1.2,0.2,1.9,0.2,2.3c0,0.1,0.1,0.2,0.2,0.3c0.3,0.2,0.5,0.2,0.8,0.1c0.1,0,0.2-0.1,0.3-0.1
		c0.1,0,0.2-0.1,0.3-0.1c0.3,0,0.7-0.1,1.2-0.4c0.5-0.3,1-0.6,1.4-1c1.1-1.1,1.6-2.5,1.6-4.1v-0.3c0-0.7-0.2-1.4-0.5-1.8
		C107.4,66.7,107,66.5,106.5,66.5z M106.6,70.2c-0.3,1-0.8,1.8-1.6,2.4c-0.3,0.2-0.5,0.3-0.7,0.4c-0.1,0.1-0.2,0.1-0.3,0.1
		c0,0-0.1,0-0.1,0v-0.1c0-0.1,0-0.2,0.1-0.4c0-0.2,0.1-0.5,0.2-0.8c0.1-0.3,0.1-0.6,0.2-0.8c0.4-1.1,0.9-2,1.6-2.6
		c0.1-0.1,0.2-0.2,0.3-0.2c0.1-0.1,0.1-0.1,0.2-0.1h0c0.1,0,0.2,0.2,0.2,0.4c0,0.2,0.1,0.5,0.1,0.8C106.7,69.6,106.6,70,106.6,70.2z
		"/>
	<path id="XMLID_147_" class="st6" d="M119.4,71.7c-0.1-1.6-0.1-3.3-0.1-5c0-0.5,0-0.9,0-1.4c0-0.6,0-1.1,0-1.5c0-0.2,0-0.4,0-0.7
		c0-0.4,0-0.5,0-0.5c-0.1-0.2-0.2-0.3-0.3-0.4c-0.1,0-0.2-0.1-0.3-0.1c0,0-0.1,0-0.3,0.1c-0.1,0-0.2,0.1-0.3,0.3
		c0,0-0.1,0.1-0.1,0.3c0,0.1-0.1,0.2-0.1,0.4c-0.1,0.3-0.2,0.7-0.3,1.3c-0.1,0.5-0.3,1.1-0.4,1.6c-0.1,0.5-0.3,0.9-0.4,1.3
		c0,0.1-0.1,0.2-0.3,0.2c-0.1,0-0.2,0-0.4-0.1c-0.2-0.1-0.4-0.1-0.6-0.1c-0.1,0-0.2,0-0.4,0c-0.2,0-0.4,0.1-0.6,0.2
		c-0.5,0.2-0.9,0.7-1.3,1.3c-0.4,0.7-0.6,1.5-0.7,2.3c0,0.2,0,0.4,0,0.6c0,0.4,0.1,0.9,0.2,1.3c0.1,0.4,0.4,0.7,0.7,0.9
		c0.3,0.2,0.7,0.2,1.1,0.1c0.8-0.3,1.7-1.6,2.6-3.9l0.7-1.7l0.1,2.5c0,1.3,0.1,2.5,0.2,3.5c0.1,1.2,0.2,1.6,0.2,1.8
		c0,0,0.1,0.1,0.1,0.1c0,0.1,0.1,0.1,0.1,0.1c0.1,0.1,0.2,0.1,0.4,0.1c0.1,0,0.2,0,0.2,0c0,0,0.1,0,0.2-0.1c0.2-0.2,0.3-0.4,0.3-0.6
		c0-0.1,0-0.2,0-0.3C119.5,75.1,119.4,73.8,119.4,71.7z M115.9,69.8c-0.1,0.3-0.2,0.6-0.4,1c-0.2,0.4-0.3,0.7-0.5,1
		c-0.1,0.2-0.2,0.3-0.3,0.4c-0.1,0.1-0.2,0.3-0.2,0.3l-0.4,0.5l-0.1-0.7c0-0.1,0-0.3,0-0.4c0-0.3,0-0.6,0.1-1
		c0.1-0.4,0.2-0.8,0.4-1.2c0.2-0.4,0.4-0.7,0.7-0.8c0.2-0.1,0.3-0.1,0.4-0.1c0,0,0.1,0,0.2,0c0.1,0,0.3,0.1,0.3,0.4l0,0.1
		C116.1,69.3,116.1,69.4,115.9,69.8z"/>
	<path id="XMLID_144_" class="st6" d="M125.1,66.9c-0.1,0-0.3-0.1-0.5-0.1c-0.4,0-0.8,0.1-1.3,0.3c-0.8,0.4-1.4,0.9-1.8,1.6
		c-0.4,0.7-0.6,1.5-0.6,2.4c0,0.8,0.2,1.4,0.6,2c0.4,0.5,0.8,0.9,1.4,1.2c0.6,0.2,1.3,0.3,2,0.1c0.3-0.1,0.4-0.2,0.5-0.4
		c0-0.1,0.1-0.2,0.1-0.3c0-0.1,0-0.3-0.1-0.4c-0.1-0.1-0.2-0.2-0.5-0.2c-0.1,0-0.2,0-0.4,0c-0.3,0-0.5,0-0.7,0
		c-0.1,0-0.3-0.1-0.4-0.2c-0.1,0-0.2-0.1-0.3-0.1c-0.1-0.1-0.2-0.1-0.2-0.2l0,0c0-0.1,0.1-0.2,0.2-0.3c0.1,0,0.1-0.1,0.2-0.1
		c0.2-0.1,0.5-0.2,0.9-0.5c0.4-0.3,0.7-0.5,1-0.9c0.4-0.4,0.7-0.9,0.9-1.3c0.2-0.4,0.2-0.7,0.2-1.1c0-0.2-0.1-0.5-0.2-0.9
		C125.9,67.3,125.6,67.1,125.1,66.9z M124.8,68.7c0,0.1-0.1,0.2-0.1,0.3c-0.1,0.3-0.3,0.6-0.6,0.9c-0.3,0.3-0.6,0.6-0.9,0.8
		c-0.1,0.1-0.2,0.1-0.3,0.2c-0.1,0.1-0.2,0.1-0.3,0.1l0,0c0,0-0.2-0.1-0.2-0.3c0,0,0-0.1,0.1-0.3c0-0.2,0.1-0.4,0.3-0.6
		c0.1-0.3,0.3-0.5,0.5-0.7c0.2-0.2,0.4-0.3,0.6-0.5c0.2-0.1,0.4-0.2,0.6-0.3c0.1,0,0.1,0,0.2,0c0.2,0,0.3,0.1,0.3,0.3
		C124.8,68.6,124.8,68.6,124.8,68.7z"/>
	<path id="XMLID_16_" class="st6" d="M132,72.6c0-0.5,0-1,0-1.6c0-0.1,0-0.2,0-0.4l0-1.5c0-0.4-0.1-0.6-0.3-0.8
		c-0.1-0.1-0.2-0.1-0.3-0.1c-0.1,0-0.3,0-0.4,0.1c-0.1,0-0.2,0.1-0.2,0.2c0,0.1-0.1,0.2-0.1,0.7c0,0.2,0,0.4,0,0.7c0,0.3,0,0.6,0,1
		c0,0.9,0,1.6,0,2c0,0.6,0.1,0.7,0.1,0.7c0.1,0.3,0.3,0.5,0.6,0.5c0.1,0,0.1,0,0.1,0c0.2,0,0.4-0.1,0.5-0.3c0.1-0.1,0.1-0.1,0.1-0.1
		c0,0,0,0,0-0.1c0-0.1,0-0.1,0-0.2C132,73.4,132,73.1,132,72.6z"/>
	<path id="XMLID_15_" class="st6" d="M131.8,64.1c-0.1-0.1-0.2-0.1-0.3-0.1c0,0-0.1,0-0.1,0c-0.2,0.1-0.4,0.2-0.6,0.4
		c-0.2,0.2-0.2,0.4-0.2,0.6c0,0,0,0,0,0.1c0,0.1,0,0.2,0.1,0.2c0,0.1,0.1,0.1,0.2,0.2c0.1,0.1,0.2,0.1,0.3,0.1c0,0,0.1,0,0.3-0.1
		c0.1,0,0.2-0.1,0.5-0.4c0.1-0.2,0.2-0.3,0.2-0.5c0-0.1,0-0.2-0.1-0.3C132,64.2,131.9,64.2,131.8,64.1z"/>
	<path id="XMLID_14_" class="st6" d="M140.4,71.8c-0.6-0.1-1.1-0.7-1.5-1.8c-0.2-0.4-0.3-0.7-0.4-0.9c-0.1-0.2-0.2-0.3-0.4-0.4
		c-0.5-0.4-0.9-0.4-1.5,0c-0.1,0.1-0.3,0.3-0.6,0.6c-0.2,0.3-0.4,0.6-0.6,0.9c-0.1,0.1-0.1,0.2-0.2,0.3c0,0.1-0.1,0.2-0.2,0.2h-0.2
		v-0.3c0-0.1,0-0.2,0-0.5c0-0.2,0-0.6,0-1c0-0.5,0-0.8,0-1.1v-0.4c0-0.2,0-0.3-0.1-0.4c0-0.1-0.1-0.2-0.2-0.3
		c-0.1-0.1-0.3-0.2-0.4-0.2c-0.2,0-0.3,0.1-0.4,0.2c-0.1,0.1-0.1,0.1-0.2,0.2c0,0.1-0.1,0.2-0.1,0.5c0,0.2,0,0.6-0.1,1
		c0,0.5,0,1.1,0,1.8c0,1,0,1.7,0,2.2c0,0.5,0,0.8,0.1,1c0,0.2,0.1,0.3,0.2,0.4c0,0,0.1,0.1,0.2,0.2c0.1,0.1,0.1,0.1,0.2,0.1
		c0.1,0.1,0.2,0.1,0.4,0.1c0,0,0.1,0,0.3-0.1c0.1,0,0.2-0.1,0.4-0.3c0-0.1,0.1-0.2,0.2-0.4c0.1-0.2,0.2-0.5,0.4-0.7
		c0.3-0.6,0.5-1.1,0.7-1.6c0.3-0.6,0.4-0.8,0.5-0.9c0-0.1,0.1-0.1,0.2-0.1c0.1,0,0.2,0.1,0.3,0.2c0.1,0.1,0.2,0.3,0.3,0.6
		c0.1,0.3,0.3,0.5,0.4,0.7c0.1,0.2,0.3,0.4,0.5,0.6c0.5,0.6,1,0.8,1.4,0.8c0.1,0,0.2,0,0.3-0.1c0.3-0.1,0.5-0.4,0.5-0.7
		c0-0.1,0-0.3-0.1-0.4C140.7,71.9,140.6,71.8,140.4,71.8z"/>
	<path id="XMLID_13_" class="st6" d="M149.3,71.8c-0.6-0.1-1.1-0.7-1.5-1.8c-0.2-0.4-0.3-0.7-0.4-0.9c-0.1-0.2-0.2-0.3-0.4-0.4
		c-0.5-0.4-0.9-0.4-1.5,0c-0.1,0.1-0.3,0.3-0.6,0.6c-0.2,0.3-0.4,0.6-0.6,0.9c-0.1,0.1-0.1,0.2-0.2,0.3c0,0.1-0.1,0.2-0.2,0.2h-0.2
		v-0.3c0-0.1,0-0.2,0-0.5c0-0.2,0-0.6,0-1c0-0.5,0-0.8,0-1.1v-0.4c0-0.2,0-0.3-0.1-0.4c0-0.1-0.1-0.2-0.2-0.3
		c-0.1-0.1-0.3-0.2-0.4-0.2c-0.2,0-0.3,0-0.4,0.2c-0.1,0.1-0.1,0.1-0.2,0.2c0,0.1-0.1,0.2-0.1,0.5c0,0.2,0,0.6-0.1,1
		c0,0.5,0,1.1,0,1.8c0,1,0,1.7,0,2.2c0,0.5,0,0.8,0.1,1c0,0.2,0.1,0.3,0.2,0.4c0,0,0.1,0.1,0.2,0.2c0.1,0.1,0.1,0.1,0.2,0.1
		c0.1,0.1,0.2,0.1,0.4,0.1c0,0,0.1,0,0.3-0.1c0.1,0,0.2-0.1,0.4-0.3c0-0.1,0.1-0.2,0.2-0.4c0.1-0.2,0.2-0.5,0.4-0.7
		c0.3-0.6,0.5-1.1,0.7-1.6c0.3-0.6,0.4-0.8,0.5-0.9c0-0.1,0.1-0.1,0.2-0.1c0.1,0,0.2,0.1,0.3,0.2c0.1,0.1,0.2,0.3,0.3,0.6
		c0.1,0.3,0.3,0.5,0.4,0.7c0.1,0.2,0.3,0.4,0.5,0.6c0.5,0.6,1,0.8,1.4,0.8c0.1,0,0.2,0,0.3-0.1c0.3-0.1,0.5-0.4,0.5-0.7
		c0-0.1,0-0.3-0.1-0.4C149.6,71.9,149.4,71.8,149.3,71.8z"/>
	<path id="XMLID_137_" class="st6" d="M154.3,67.3c-0.2-0.2-0.5-0.2-0.7-0.2c-0.1,0-0.3,0-0.4,0.1c-0.1,0-0.1,0.1-0.2,0.1
		c-0.1,0-0.2,0-0.3,0c0,0-0.2,0-0.4,0.2c-0.2,0.1-0.3,0.3-0.5,0.4c-0.3,0.4-0.5,0.9-0.7,1.5c-0.1,0.4-0.2,0.8-0.2,1.3v0.1
		c0,0.5,0,0.9,0.1,1.2c0.2,0.6,0.4,1.2,0.8,1.6c0.3,0.4,0.7,0.6,1.2,0.7c0.5,0.1,1-0.1,1.4-0.4c0.4-0.3,0.7-0.8,0.9-1.3
		c0.2-0.6,0.4-1.3,0.4-2c0-0.7-0.2-1.4-0.5-2C155.1,68,154.8,67.6,154.3,67.3z M154.5,71c0,0.7-0.2,1.3-0.5,1.6
		c-0.1,0.1-0.2,0.2-0.2,0.2c-0.1,0.1-0.2,0.1-0.3,0.1c-0.2,0-0.5-0.2-0.6-0.5c-0.2-0.3-0.3-0.7-0.3-1.1c0-0.2,0-0.4,0-0.6
		c0-0.3,0-0.7,0.1-1c0.1-0.4,0.3-0.8,0.5-1c0.1-0.1,0.2-0.2,0.3-0.2c0.1,0,0.2,0,0.4,0c0.3,0.1,0.5,0.5,0.6,1
		c0.1,0.4,0.2,0.8,0.2,1.2C154.5,70.8,154.5,70.9,154.5,71z"/>
	<path id="XMLID_10_" class="st6" d="M163.8,66.4C163.8,66.4,163.8,66.4,163.8,66.4c-0.1-0.2-0.2-0.3-0.3-0.4
		c-0.1-0.1-0.2-0.1-0.3-0.1c-0.3,0-0.5,0.1-0.7,0.4c-0.3,0.5-0.9,2.1-1.9,4.7c-0.2,0.5-0.4,1-0.5,1.4c-0.3,0.6-0.3,0.7-0.4,0.7
		c-0.2,0-0.3-0.2-0.4-0.6c-0.1-0.3-0.2-0.7-0.4-1.2c-0.2-0.6-0.3-1.2-0.3-1.8c0-0.5-0.1-0.8-0.1-1c-0.1-0.2-0.2-0.3-0.3-0.4
		c-0.1-0.1-0.3-0.2-0.4-0.2c0,0-0.1,0-0.3,0c-0.1,0-0.2,0.1-0.3,0.3c0,0.1-0.1,0.2-0.1,0.4c0,0,0,0.2,0,0.3c0,0.1,0,0.4,0.2,1.3
		c0.4,2.2,0.9,3.7,1.6,4.4c0.2,0.2,0.5,0.3,0.7,0.4l0.1,0c0.2,0,0.4-0.1,0.6-0.2c0.2-0.1,0.4-0.3,0.5-0.6c0.2-0.4,0.6-1.4,1.2-3
		c0.3-0.7,0.5-1.4,0.8-2c0.3-0.6,0.4-1.1,0.5-1.3c0.1-0.3,0.2-0.6,0.3-0.8c0.1-0.2,0.1-0.3,0.2-0.4
		C163.8,66.6,163.8,66.5,163.8,66.4L163.8,66.4z"/>
	<path id="XMLID_133_" class="st6" d="M169.9,72c-0.1-0.4-0.1-0.9-0.2-1.6c0-0.5-0.1-0.9-0.1-1.2c0-0.3-0.1-0.5-0.1-0.6
		c0-0.1-0.1-0.2-0.1-0.3c-0.2-0.3-0.4-0.5-0.8-0.5c-0.1,0-0.2,0-0.3,0c-0.1,0-0.2-0.1-0.3-0.1c-0.3-0.2-0.6-0.3-1-0.3h0
		c-0.4,0-0.9,0.2-1.3,0.5c-0.4,0.4-0.8,0.9-1.2,1.5c-0.4,0.6-0.6,1.4-0.8,2.2c-0.1,0.4-0.1,0.8-0.1,1.2V73c0,0.3,0.1,0.6,0.3,0.8
		c0.1,0.2,0.3,0.4,0.6,0.4c0.2,0.1,0.5,0,0.8-0.1c0.6-0.3,1.4-1.2,2.3-2.7l0.7-1.1l0.1,0.8c0,0.1,0,0.2,0.1,0.3c0,0.2,0,0.3,0.1,0.5
		c0.1,0.4,0.2,0.8,0.3,1.2c0.1,0.3,0.2,0.6,0.4,0.7c0.2,0.2,0.3,0.2,0.5,0.2c0,0,0.1,0,0.3,0c0,0,0.2-0.1,0.4-0.4
		c0.1-0.1,0.1-0.2,0.1-0.3c0-0.1-0.1-0.3-0.2-0.5C170.1,72.6,170,72.4,169.9,72z M167,69.8c-0.3,0.4-0.6,0.9-1,1.5
		c-0.2,0.2-0.3,0.5-0.4,0.6c-0.2,0.3-0.2,0.3-0.3,0.3c-0.1,0-0.2-0.1-0.2-0.2c0,0,0-0.1,0.1-0.3c0-0.1,0.1-0.3,0.2-0.6
		c0.1-0.2,0.2-0.5,0.3-0.7c0.1-0.2,0.2-0.4,0.3-0.6c0.2-0.3,0.4-0.5,0.6-0.7c0.2-0.2,0.4-0.4,0.6-0.4h0c0.1,0,0.1,0,0.2,0
		c0.1,0.1,0.2,0.2,0.2,0.2C167.4,69.1,167.4,69.1,167,69.8z"/>
	<path id="XMLID_7_" class="st6" d="M175.3,68.4c0,0.1,0,0.3,0,0.6v0.2c0,0.6,0,0.8,0.1,0.9c0,0.1,0.1,0.2,0.3,0.3
		c0.2,0.1,0.3,0.1,0.3,0.1c0,0,0.1,0,0.3-0.1c0.2-0.1,0.3-0.2,0.3-0.4c0.1-0.2,0.1-0.6,0.1-1c0-0.3,0-0.6-0.1-0.9
		c0-0.3-0.1-0.6-0.3-0.8c-0.2-0.4-0.5-0.7-0.9-0.8c-0.2-0.1-0.4-0.1-0.6-0.1c-0.2,0-0.4,0-0.7,0.1c-0.3,0.1-0.6,0.3-0.9,0.5
		c-0.3,0.3-0.6,0.6-0.8,1c-0.3,0.7-0.6,1.5-0.7,2.4c0,0.3-0.1,0.6-0.1,0.9c0,0.5,0.1,1,0.2,1.4c0.1,0.4,0.3,0.9,0.6,1.2
		c0.3,0.4,0.6,0.6,1,0.8c0.4,0.2,0.8,0.2,1.3,0c0.4-0.1,0.8-0.4,1.2-0.7c0.4-0.3,0.6-0.6,0.7-0.9c0,0,0-0.1,0-0.1
		c0-0.3-0.1-0.5-0.4-0.6c-0.3-0.1-0.5-0.1-0.8,0.2c-0.3,0.2-0.5,0.4-0.7,0.6c-0.3,0.2-0.6,0.2-0.8,0.1c-0.3-0.2-0.6-0.5-0.6-1
		c-0.1-0.3-0.1-0.7-0.1-1c0-0.2,0-0.4,0-0.7c0-0.3,0.1-0.6,0.1-0.9c0.4-1.4,0.9-2,1.5-2c0.2,0,0.3,0.1,0.4,0.2
		C175.2,68,175.2,68.2,175.3,68.4z"/>
	<path id="XMLID_6_" class="st6" d="M179.1,64.1c-0.1-0.1-0.2-0.1-0.3-0.1c0,0-0.1,0-0.1,0c-0.2,0.1-0.4,0.2-0.6,0.4
		c-0.2,0.2-0.2,0.4-0.2,0.6c0,0,0,0,0,0.1c0,0.1,0,0.2,0.1,0.2c0,0.1,0.1,0.1,0.2,0.2c0.1,0.1,0.2,0.1,0.3,0.1c0,0,0.1,0,0.3-0.1
		c0.1,0,0.2-0.1,0.5-0.4c0.1-0.2,0.2-0.3,0.2-0.5c0-0.1,0-0.2-0.1-0.3C179.4,64.2,179.3,64.2,179.1,64.1z"/>
	<path id="XMLID_5_" class="st6" d="M179.3,72.6c0-0.5,0-1,0-1.6c0-0.1,0-0.2,0-0.4l0-1.5c0-0.4-0.1-0.6-0.3-0.8
		c-0.1-0.1-0.2-0.1-0.3-0.1s-0.3,0-0.4,0.1c-0.1,0-0.2,0.1-0.2,0.2c0,0.1-0.1,0.2-0.1,0.7c0,0.2,0,0.4,0,0.7c0,0.3,0,0.6,0,1
		c0,0.9,0,1.6,0,2c0,0.6,0.1,0.7,0.1,0.7c0.1,0.3,0.3,0.5,0.6,0.5c0.1,0,0.1,0,0.1,0c0.2,0,0.4-0.1,0.5-0.3c0.1-0.1,0.1-0.1,0.1-0.1
		c0,0,0,0,0-0.1c0-0.1,0-0.1,0-0.2C179.4,73.4,179.4,73.1,179.3,72.6z"/>
	<path id="XMLID_127_" class="st6" d="M184,67.3c-0.2-0.2-0.5-0.2-0.7-0.2c-0.1,0-0.3,0-0.4,0.1c-0.1,0-0.1,0.1-0.2,0.1
		c-0.1,0-0.2,0-0.3,0c0,0-0.2,0-0.4,0.2c-0.2,0.1-0.3,0.3-0.5,0.4c-0.3,0.4-0.5,0.9-0.7,1.5c-0.1,0.4-0.2,0.8-0.2,1.3v0.1
		c0,0.5,0,0.9,0.1,1.2c0.2,0.6,0.4,1.2,0.8,1.6c0.3,0.4,0.7,0.6,1.2,0.7c0.5,0.1,1-0.1,1.4-0.4c0.4-0.3,0.7-0.8,0.9-1.3
		c0.2-0.6,0.4-1.3,0.4-2c0-0.7-0.2-1.4-0.5-2C184.8,68,184.4,67.6,184,67.3z M184.2,71c0,0.7-0.2,1.3-0.5,1.6
		c-0.1,0.1-0.2,0.2-0.2,0.2c-0.1,0.1-0.2,0.1-0.3,0.1c-0.2,0-0.5-0.2-0.6-0.5c-0.2-0.3-0.3-0.7-0.3-1.1c0-0.2,0-0.4,0-0.6
		c0-0.3,0-0.7,0.1-1c0.1-0.4,0.3-0.8,0.5-1c0.1-0.1,0.2-0.2,0.3-0.2c0.1,0,0.2,0,0.4,0c0.3,0.1,0.5,0.5,0.6,1
		c0.1,0.4,0.2,0.8,0.2,1.2C184.2,70.8,184.2,70.9,184.2,71z"/>
	<path id="XMLID_2_" class="st6" d="M193.9,71.8c-0.6-0.1-1.1-0.7-1.5-1.8c-0.2-0.4-0.3-0.7-0.4-0.9c-0.1-0.2-0.2-0.3-0.4-0.4
		c-0.5-0.4-0.9-0.4-1.5,0c-0.1,0.1-0.3,0.3-0.6,0.6c-0.2,0.3-0.4,0.6-0.6,0.9c-0.1,0.1-0.1,0.2-0.2,0.3c0,0.1-0.1,0.2-0.2,0.2h-0.2
		v-0.3c0-0.1,0-0.2,0-0.5c0-0.2,0-0.6,0-1c0-0.5,0-0.8,0-1.1v-0.4c0-0.2,0-0.3-0.1-0.4c0-0.1-0.1-0.2-0.2-0.3
		c-0.1-0.1-0.3-0.2-0.4-0.2c-0.2,0-0.3,0.1-0.4,0.2c-0.1,0.1-0.1,0.1-0.2,0.2c0,0.1-0.1,0.2-0.1,0.5c0,0.2,0,0.6-0.1,1
		c0,0.5,0,1.1,0,1.8c0,1,0,1.7,0,2.2c0,0.5,0,0.8,0.1,1c0,0.2,0.1,0.3,0.2,0.4c0,0,0.1,0.1,0.2,0.2c0.1,0.1,0.1,0.1,0.2,0.1
		c0.1,0.1,0.2,0.1,0.4,0.1c0,0,0.1,0,0.3-0.1c0.1,0,0.2-0.1,0.4-0.3c0-0.1,0.1-0.2,0.2-0.4c0.1-0.2,0.2-0.5,0.4-0.7
		c0.3-0.6,0.5-1.1,0.7-1.6c0.3-0.6,0.4-0.8,0.5-0.9c0-0.1,0.1-0.1,0.2-0.1c0.1,0,0.2,0.1,0.3,0.2c0.1,0.1,0.2,0.3,0.3,0.6
		c0.1,0.3,0.3,0.5,0.4,0.7c0.1,0.2,0.3,0.4,0.5,0.6c0.5,0.6,1,0.8,1.4,0.8c0.1,0,0.2,0,0.3-0.1c0.3-0.1,0.5-0.4,0.5-0.7
		c0-0.1,0-0.3-0.1-0.4C194.2,71.9,194,71.8,193.9,71.8z"/>
	<path id="XMLID_1_" class="st6" d="M185.4,62.3c-0.8,0-1.6,1.4-2,2.2c-0.1,0.2-0.2,0.3-0.2,0.4c-0.1,0.2-0.1,0.4,0,0.5
		c0.1,0.2,0.3,0.3,0.5,0.3c0.1,0,0.3,0,0.4-0.2c0.1-0.1,0.3-0.4,0.6-0.7c0.6-0.6,1.5-1.6,1.5-2.1c0-0.1,0-0.1-0.1-0.1
		C185.8,62.4,185.6,62.3,185.4,62.3z"/>
</g>
</svg>
