<?xml version="1.0" encoding="utf-8"?>
<!-- Generator: Adobe Illustrator 19.0.0, SVG Export Plug-In . SVG Version: 6.00 Build 0)  -->
<svg version="1.1" id="Layer_1" xmlns="http://www.w3.org/2000/svg" xmlns:xlink="http://www.w3.org/1999/xlink" x="0px" y="0px"
	 viewBox="0 0 489 173.6" style="enable-background:new 0 0 489 173.6;" xml:space="preserve">
<style type="text/css">
	.st0{fill:#ED9122;}
	.st1{fill:#4E2561;}
	.st2{fill:#F19220;}
	.st3{fill-rule:evenodd;clip-rule:evenodd;fill:#D85B2E;}
	.st4{fill-rule:evenodd;clip-rule:evenodd;fill:#C73546;}
	.st5{fill-rule:evenodd;clip-rule:evenodd;fill:#ED9122;}
	.st6{fill-rule:evenodd;clip-rule:evenodd;fill:#812E77;}
	.st7{fill-rule:evenodd;clip-rule:evenodd;fill:#4E2561;}
</style>
<g id="XMLID_243_">
	<g id="XMLID_246_">
		<g id="XMLID_255_">
			<path id="XMLID_257_" class="st0" d="M159.3,56.6h-13.4V40.2c0-0.7-0.6-1.3-1.3-1.3h-9.5c-0.7,0-1.3,0.6-1.3,1.3v16.5h-7.7
				c-0.7,0-1.3,0.6-1.3,1.3v8.2c0,0.7,0.6,1.3,1.3,1.3h7.7v42.8c0,0.7,0.6,1.3,1.3,1.3h9.5c0.7,0,1.3-0.6,1.3-1.3V67.4h13.4
				c0.7,0,1.3-0.6,1.3-1.3v-8.2C160.5,57.2,160,56.6,159.3,56.6z"/>
			<path id="XMLID_256_" class="st0" d="M195.5,55.5c-6.5,0-11.7,2.5-15.5,7.3V26.7c0-0.7-0.6-1.3-1.3-1.3h-9.5
				c-0.7,0-1.3,0.6-1.3,1.3v83.5c0,0.7,0.6,1.3,1.3,1.3h9.5c0.7,0,1.3-0.6,1.3-1.3V87.4c0-8.1,5.4-19.9,15.1-19.9
				c8.2,0,9.4,6.6,9.4,10.6v32.2c0,0.7,0.6,1.3,1.3,1.3h9.5c0.7,0,1.3-0.6,1.3-1.3V76.6C216.5,71.6,215,55.5,195.5,55.5z"/>
		</g>
		<g id="XMLID_247_">
			<path id="XMLID_254_" class="st0" d="M286.6,55.5c-6.5,0-11.7,2.5-15.5,7.3v-4.9c0-0.7-0.6-1.3-1.3-1.3h-9.5
				c-0.7,0-1.3,0.6-1.3,1.3v52.3c0,0.7,0.6,1.3,1.3,1.3h9.5c0.7,0,1.3-0.6,1.3-1.3V87.4c0-8.1,5.4-19.9,15.1-19.9
				c8.2,0,9.4,6.6,9.4,10.6v32.2c0,0.7,0.6,1.3,1.3,1.3h9.5c0.7,0,1.3-0.6,1.3-1.3V76.6c0-3-0.5-8.8-4-13.6
				C300,58,294.2,55.5,286.6,55.5z"/>
			<path id="XMLID_253_" class="st0" d="M346.5,80l19.6-21.3c0.3-0.4,0.4-0.9,0.2-1.3c-0.2-0.5-0.6-0.7-1.1-0.7h-13
				c-0.4,0-0.7,0.2-0.9,0.4l-16.3,18.5V26.7c0-0.7-0.6-1.3-1.3-1.3h-9.5c-0.7,0-1.3,0.6-1.3,1.3v83.5c0,0.7,0.6,1.3,1.3,1.3h9.5
				c0.7,0,1.3-0.6,1.3-1.3V85l19.7,26c0.2,0.3,0.6,0.5,1,0.5h12.6c0.5,0,0.9-0.3,1.1-0.7c0.2-0.4,0.2-0.9-0.1-1.3L346.5,80z"/>
			<path id="XMLID_252_" class="st0" d="M384.7,34.4c-3.9,0-7.2,3.2-7.2,7.2c0,3.9,3.2,7.2,7.2,7.2c3.9,0,7.2-3.2,7.2-7.2
				C391.8,37.6,388.6,34.4,384.7,34.4z"/>
			<path id="XMLID_251_" class="st0" d="M389.3,56.6h-9.5c-0.7,0-1.3,0.6-1.3,1.3v52.3c0,0.7,0.6,1.3,1.3,1.3h9.5
				c0.7,0,1.3-0.6,1.3-1.3V57.9C390.6,57.2,390,56.6,389.3,56.6z"/>
			<path id="XMLID_248_" class="st0" d="M455.6,56.6h-9.5c-0.7,0-1.3,0.6-1.3,1.3v3.7c-3.9-4.1-9.1-6.1-15.5-6.1
				c-15.7,0-28,12.5-28,28.5c0,16,12.3,28.5,28,28.5c6.3,0,11.5-2.1,15.5-6.1v3.7c0,0.7,0.6,1.3,1.3,1.3h9.5c0.7,0,1.3-0.6,1.3-1.3
				V57.9C456.8,57.2,456.3,56.6,455.6,56.6z M444.9,76.7v14.6c-2.7,5.6-8.5,9.3-14.9,9.3c-9.3,0-16.6-7.3-16.6-16.6
				c0-9.3,7.3-16.6,16.6-16.6C436.5,67.5,442.2,71,444.9,76.7z"/>
		</g>
	</g>
	<path id="XMLID_245_" class="st1" d="M237.7,56.5c-0.8,0-1.7,0.3-2.8,0.9l-0.1,0.1c-0.7,0.3-1.1,0.7-1.4,1.4
		c-0.2,0.6-0.6,2-0.7,5.5c0,1.4-0.1,3.2-0.1,5.5c0,2.2,0,4.9,0.1,8l0,0.5c0,7.3,0.1,20.8,0.3,24.1c0.2,4.3,0.5,5.5,0.6,5.8
		c1,2.4,2.3,3.7,4,4l0.1,0c0.3,0.1,0.5,0.1,0.7,0.1c1.3,0,2.6-0.8,3.8-2.4c0.3-0.4,0.5-0.8,0.6-1.2c0-0.1,0-0.2,0-0.6
		c0-0.4,0-1-0.1-1.5l0-0.1c0-0.9-0.1-3-0.2-7.1c-0.1-2-0.1-6.7-0.2-11.1c0-3.9-0.1-7.8-0.1-9.9c0-0.9-0.1-1.9-0.1-2.9l-0.3-11.7
		c-0.1-2.8-0.8-4.9-2.1-6.3C239.1,56.8,238.4,56.5,237.7,56.5z"/>
	<path id="XMLID_244_" class="st1" d="M238.3,35.1c-1.6,0.4-3,1.6-4.3,3.5c-1.2,1.6-1.8,3.1-1.8,4.6c0,0.2,0,0.4,0,0.5
		c0.1,0.8,0.3,1.4,0.6,1.8c0.4,0.5,0.9,1,1.6,1.6c0.6,0.4,1.3,0.6,2.1,0.6c0.3,0,0.9-0.1,2.3-0.6c0.5-0.2,1.6-0.8,3.3-3.3
		c0.8-1.3,1.3-2.6,1.3-3.8c0-0.9-0.2-1.7-0.6-2.6c-0.4-0.8-1-1.4-1.9-1.8C240,35.1,239,34.9,238.3,35.1z"/>
</g>
<g id="XMLID_210_">
	<path id="XMLID_242_" class="st1" d="M235,152.4c0-0.1-0.1-0.2-0.2-0.5c-0.6-1.6-1-4.2-1.2-8.1c-0.1-1.5-0.1-3.2-0.1-5
		c0-2.7,0.1-5.7,0.2-8.9c0.1-1.4,0.1-2.5,0.2-3.4c0-0.3,0-0.6,0-0.9c0-0.4,0-0.7-0.1-1c0-0.3-0.1-0.5-0.2-0.6
		c-0.1-0.1-0.2-0.3-0.4-0.4c-0.3-0.2-0.6-0.3-0.8-0.3c-0.1,0-0.2,0-0.6,0.1c-0.2,0-0.4,0.3-0.5,0.6c-0.1,0.4-0.3,1.6-0.4,4.9
		c-0.1,2.8-0.2,5.8-0.2,9v1.8c0,2.3,0,4.1,0.1,5.5c0.3,3.1,0.6,5.3,1,6.7c0.4,1.2,0.9,1.9,1.5,2.1c0.2,0,0.3,0.1,0.5,0.1
		c0.4,0,0.9-0.1,1.3-1c0.1-0.2,0.1-0.3,0.1-0.4l0-0.1C235.1,152.6,235.1,152.5,235,152.4z"/>
	<path id="XMLID_239_" class="st1" d="M251.4,147.8c-0.2-0.8-0.3-1.9-0.4-3.4c-0.1-1.1-0.1-2-0.2-2.6c-0.1-0.6-0.1-1-0.2-1.3
		c-0.1-0.3-0.1-0.5-0.2-0.7c-0.3-0.7-0.9-1.1-1.7-1.1c-0.2,0-0.5,0-0.7-0.1c-0.3-0.1-0.5-0.2-0.6-0.3c-0.6-0.4-1.3-0.6-2.1-0.6h-0.1
		c-0.9,0-1.9,0.4-2.8,1.1c-1,0.8-1.8,1.9-2.6,3.2c-0.8,1.4-1.4,3-1.8,4.8c-0.2,0.9-0.3,1.8-0.3,2.7v0.5c0,0.6,0.2,1.2,0.6,1.7
		c0.3,0.5,0.7,0.8,1.2,1c0.5,0.2,1.1,0.1,1.7-0.2c1.3-0.6,3-2.6,5.1-5.8l1.6-2.5l0.2,1.7c0,0.1,0.1,0.4,0.1,0.7
		c0.1,0.4,0.1,0.7,0.1,1.1c0.1,0.9,0.3,1.8,0.6,2.6c0.3,0.7,0.5,1.3,0.8,1.6c0.3,0.3,0.7,0.5,1.2,0.5c0,0,0.2,0,0.6-0.1
		c0.1,0,0.4-0.1,0.8-0.9c0.1-0.3,0.2-0.5,0.2-0.7c0-0.3-0.1-0.7-0.4-1C251.8,149.2,251.6,148.6,251.4,147.8z M245.1,143
		c-0.6,0.9-1.3,2-2.1,3.2c-0.4,0.5-0.7,1-0.9,1.4c-0.5,0.6-0.5,0.7-0.8,0.7c-0.2,0-0.5-0.2-0.5-0.5c0-0.1,0-0.3,0.1-0.7
		c0.1-0.3,0.2-0.7,0.4-1.2c0.2-0.5,0.4-1.1,0.6-1.5c0.2-0.5,0.4-0.9,0.6-1.2c0.4-0.6,0.8-1.1,1.2-1.6c0.5-0.5,0.9-0.8,1.3-0.8h0
		c0.2,0,0.3,0,0.4,0.1c0.3,0.2,0.3,0.4,0.3,0.5C246,141.5,246,141.6,245.1,143z"/>
	<path id="XMLID_236_" class="st1" d="M265.6,135.8h-0.1c-1,0-2.1,0.5-3.4,1.6c-0.8,0.7-1.5,1.5-2,2.3l-1.5,2.2l-0.2-3
		c0-0.5-0.1-1.2-0.1-2.1c0-0.9-0.1-1.8-0.1-2.7c0-0.8,0-1.5-0.1-2c0-0.5-0.1-0.8-0.1-0.9c0-0.2-0.1-0.3-0.1-0.4
		c-0.2-0.3-0.5-0.5-0.8-0.6c-0.2-0.1-0.3-0.1-0.5-0.1c-0.1,0-0.3,0-0.6,0.1c-0.2,0.1-0.4,0.3-0.7,0.6c-0.1,0.1-0.1,0.2-0.1,0.3
		c0,0.1,0,0.4,0,0.9v2c0,1.5,0.1,3.6,0.3,6.4c0.2,2.8,0.3,5.5,0.5,8c0.2,2.5,0.3,4.2,0.4,4.9c0,0.2,0.2,0.5,0.5,0.7
		c0.5,0.5,1.1,0.5,1.8,0.1c0.2-0.1,0.4-0.2,0.6-0.3c0.2-0.1,0.5-0.1,0.7-0.1c0.6,0,1.5-0.3,2.6-0.9c1.1-0.6,2.1-1.4,3-2.2
		c2.4-2.4,3.6-5.4,3.6-8.9v-0.6c-0.1-1.6-0.5-2.9-1.1-3.9C267.4,136.3,266.6,135.8,265.6,135.8z M265.6,144
		c-0.6,2.2-1.7,3.9-3.5,5.2c-0.6,0.4-1.1,0.7-1.5,0.9c-0.3,0.1-0.5,0.2-0.6,0.2c-0.1,0-0.1,0-0.2,0v-0.1c0-0.1,0-0.5,0.1-0.9
		c0.1-0.5,0.2-1,0.3-1.7c0.2-0.7,0.3-1.3,0.5-1.8c0.8-2.4,2-4.4,3.4-5.7c0.2-0.2,0.4-0.4,0.6-0.5c0.2-0.1,0.3-0.2,0.4-0.2h0
		c0.2,0.1,0.3,0.4,0.4,0.9c0.1,0.5,0.1,1.1,0.1,1.8C265.8,142.7,265.8,143.4,265.6,144z"/>
	<path id="XMLID_233_" class="st1" d="M293.5,147.3c-0.1-3.5-0.2-7.2-0.2-10.9c0-1,0-2,0-3c0-1.4,0-2.5,0-3.4c0-0.4,0-1,0-1.6
		c0-0.8-0.1-1-0.1-1c-0.1-0.4-0.4-0.7-0.7-0.8c-0.2-0.1-0.4-0.1-0.7-0.1c-0.1,0-0.3,0-0.7,0.1c-0.2,0.1-0.4,0.3-0.6,0.6
		c0,0.1-0.1,0.3-0.2,0.6c-0.1,0.3-0.1,0.5-0.2,0.8c-0.1,0.6-0.3,1.5-0.6,2.7c-0.3,1.2-0.6,2.4-0.9,3.6c-0.3,1.1-0.6,2.1-0.8,2.7
		c0,0.2-0.2,0.5-0.6,0.5c-0.2,0-0.4-0.1-0.8-0.2c-0.4-0.1-0.8-0.2-1.3-0.2c-0.1,0-0.4,0-0.8,0.1c-0.4,0-0.8,0.2-1.3,0.4
		c-1,0.5-2,1.5-2.7,2.9c-0.8,1.4-1.3,3.2-1.6,5.1c-0.1,0.5-0.1,1-0.1,1.4c0,1,0.2,1.9,0.5,2.8c0.3,0.9,0.8,1.5,1.5,2
		c0.7,0.4,1.5,0.5,2.4,0.2c1.8-0.6,3.7-3.5,5.8-8.4l1.5-3.7l0.2,5.3c0.1,2.9,0.3,5.5,0.4,7.7c0.2,2.6,0.4,3.5,0.5,3.8
		c0.1,0.1,0.1,0.2,0.2,0.3c0.1,0.1,0.2,0.2,0.3,0.3c0.2,0.2,0.5,0.3,0.9,0.3c0.3,0,0.5,0,0.5-0.1c0.1,0,0.2-0.1,0.4-0.3
		c0.4-0.4,0.5-0.8,0.5-1.3c0-0.2,0-0.4-0.1-0.6C293.9,154.6,293.7,151.8,293.5,147.3z M286,143.1c-0.2,0.6-0.5,1.3-0.9,2.1
		c-0.4,0.8-0.7,1.5-1.1,2.1c-0.2,0.3-0.4,0.6-0.6,0.9c-0.2,0.3-0.4,0.5-0.5,0.7l-1,1.2l-0.3-1.6c0-0.3-0.1-0.6-0.1-0.9
		c0-0.6,0.1-1.4,0.3-2.2c0.2-0.9,0.5-1.8,0.9-2.6c0.4-0.9,0.9-1.5,1.5-1.8c0.4-0.2,0.7-0.2,0.9-0.2c0.1,0,0.2,0,0.5,0.1
		c0.2,0.1,0.6,0.2,0.7,0.8l0,0.2C286.3,141.9,286.3,142.2,286,143.1z"/>
	<path id="XMLID_230_" class="st1" d="M306.1,136.8c-0.3-0.1-0.7-0.2-1.1-0.2c-0.8,0-1.8,0.2-2.8,0.7c-1.7,0.8-3,2-3.9,3.5
		c-0.9,1.5-1.4,3.2-1.4,5.2c0,1.6,0.4,3.1,1.2,4.2c0.8,1.2,1.8,2,3.1,2.6c1.3,0.5,2.7,0.7,4.4,0.3c0.6-0.2,0.9-0.5,1.1-0.9
		c0.1-0.2,0.1-0.4,0.1-0.6c0-0.3-0.1-0.6-0.3-0.9c-0.2-0.3-0.5-0.4-1.1-0.5c-0.2,0-0.5,0-1,0c-0.7,0-1.2,0-1.6,0
		c-0.3,0-0.6-0.2-0.9-0.3c-0.2-0.1-0.4-0.2-0.6-0.3c-0.2-0.1-0.4-0.3-0.4-0.5l0-0.1c0-0.2,0.1-0.4,0.4-0.6c0.1-0.1,0.3-0.1,0.5-0.2
		c0.5-0.2,1.1-0.5,1.9-1.1c0.8-0.5,1.5-1.2,2.1-1.9c0.9-0.9,1.5-1.9,1.9-2.9c0.3-0.8,0.5-1.6,0.5-2.3c0-0.5-0.1-1.1-0.4-1.9
		C307.7,137.6,307.1,137.1,306.1,136.8z M305.3,140.7c-0.1,0.2-0.1,0.4-0.2,0.6c-0.2,0.6-0.7,1.2-1.3,2c-0.7,0.7-1.3,1.3-2,1.7
		c-0.2,0.1-0.5,0.3-0.7,0.4c-0.3,0.1-0.5,0.2-0.6,0.2l-0.1,0c-0.1,0-0.5-0.1-0.5-0.7c0-0.1,0-0.3,0.2-0.8c0.1-0.4,0.3-0.8,0.6-1.4
		c0.3-0.6,0.6-1.1,1-1.4c0.4-0.4,0.9-0.8,1.3-1c0.5-0.3,0.9-0.5,1.3-0.6c0.2,0,0.3,0,0.4,0c0.5,0,0.7,0.3,0.7,0.6
		C305.4,140.3,305.4,140.5,305.3,140.7z"/>
	<path id="XMLID_229_" class="st1" d="M321,149.2c0-1.1-0.1-2.2-0.1-3.5c0-0.3,0-0.5,0-0.8l-0.1-3.3c0-0.8-0.2-1.4-0.6-1.7
		c-0.2-0.2-0.4-0.3-0.6-0.3c-0.2,0-0.5,0.1-0.9,0.3c-0.2,0.1-0.4,0.2-0.5,0.4c-0.1,0.1-0.2,0.5-0.2,1.5c0,0.4,0,0.9,0,1.5
		c0,0.6,0,1.4,0,2.2c0,2.1,0,3.5,0.1,4.5c0,1.2,0.2,1.5,0.2,1.6c0.3,0.7,0.7,1,1.3,1.1c0.1,0,0.2,0,0.3,0c0.4,0,0.8-0.2,1.2-0.7
		c0.1-0.1,0.2-0.3,0.2-0.3c0,0,0-0.1,0-0.2c0-0.1,0-0.3,0-0.4C321,150.9,321,150.3,321,149.2z"/>
	<path id="XMLID_228_" class="st1" d="M320.5,130.6c-0.2-0.1-0.5-0.2-0.7-0.2c-0.1,0-0.2,0-0.2,0c-0.5,0.1-0.9,0.4-1.3,1
		c-0.4,0.5-0.5,0.9-0.5,1.3c0,0,0,0.1,0,0.1c0,0.2,0.1,0.4,0.2,0.5c0.1,0.1,0.3,0.3,0.5,0.4c0.2,0.1,0.4,0.2,0.7,0.2
		c0.1,0,0.3,0,0.7-0.2c0.2-0.1,0.5-0.3,1-0.9c0.3-0.4,0.4-0.7,0.4-1c0-0.2-0.1-0.5-0.2-0.7C321,130.9,320.8,130.8,320.5,130.6z"/>
	<path id="XMLID_227_" class="st1" d="M339.4,147.4c-1.3-0.2-2.4-1.5-3.4-4c-0.3-0.8-0.6-1.5-0.9-1.9c-0.2-0.4-0.5-0.7-0.8-1
		c-1-0.8-2-0.8-3.2,0.1c-0.3,0.2-0.7,0.7-1.2,1.4c-0.5,0.7-0.9,1.4-1.3,2.1c-0.1,0.2-0.2,0.5-0.4,0.6c-0.1,0.1-0.2,0.4-0.5,0.4h-0.4
		v-0.7c0-0.2,0-0.5,0-1c0-0.5,0-1.2,0.1-2.2c0-1,0.1-1.8,0.1-2.4v-0.8c0-0.3-0.1-0.6-0.1-0.9c-0.1-0.2-0.2-0.4-0.4-0.5
		c-0.3-0.2-0.6-0.3-0.9-0.3c-0.3,0-0.6,0.1-0.9,0.3c-0.2,0.1-0.3,0.3-0.4,0.5c-0.1,0.1-0.2,0.4-0.2,1c-0.1,0.5-0.1,1.3-0.1,2.2
		c0,1,0,2.3,0,4c0,2.1,0,3.7,0.1,4.7c0,1,0.1,1.8,0.2,2.2c0.1,0.4,0.2,0.7,0.4,0.9c0.1,0.1,0.2,0.2,0.3,0.3c0.1,0.1,0.3,0.2,0.4,0.3
		c0.2,0.1,0.5,0.2,0.8,0.2c0.1,0,0.3,0,0.7-0.1c0.2,0,0.5-0.2,0.9-0.7c0.1-0.1,0.3-0.5,0.5-0.9c0.2-0.5,0.5-1,0.8-1.6
		c0.6-1.3,1.1-2.4,1.6-3.4c0.6-1.3,0.9-1.7,1-1.9c0.1-0.1,0.3-0.2,0.4-0.2c0.3,0,0.5,0.3,0.7,0.5c0.1,0.2,0.4,0.7,0.7,1.3
		c0.3,0.7,0.6,1.2,0.9,1.6c0.3,0.4,0.6,0.8,1,1.2c1.1,1.2,2.1,1.9,3,1.9c0.3,0,0.5-0.1,0.7-0.2c0.7-0.3,1.1-0.8,1.1-1.6
		c0-0.3-0.1-0.6-0.3-0.8C340,147.6,339.7,147.4,339.4,147.4z"/>
	<path id="XMLID_226_" class="st1" d="M358.6,147.4c-1.3-0.2-2.4-1.5-3.4-4c-0.3-0.8-0.6-1.5-0.9-1.9c-0.2-0.4-0.5-0.7-0.8-1
		c-1-0.8-2-0.8-3.2,0.1c-0.3,0.2-0.7,0.7-1.2,1.4c-0.5,0.7-0.9,1.4-1.3,2.1c-0.1,0.3-0.3,0.5-0.4,0.6c-0.1,0.1-0.2,0.4-0.5,0.4h-0.4
		v-0.7c0-0.2,0-0.5,0-1c0-0.5,0-1.2,0.1-2.2c0-1,0.1-1.8,0.1-2.4v-0.8c0-0.3,0-0.6-0.1-0.9c-0.1-0.2-0.2-0.4-0.4-0.5
		c-0.3-0.2-0.6-0.3-0.9-0.3c-0.3,0-0.6,0.1-0.9,0.3c-0.2,0.1-0.3,0.3-0.4,0.5c-0.1,0.1-0.2,0.4-0.2,1c-0.1,0.5-0.1,1.3-0.1,2.2
		c0,1,0,2.3,0,4c0,2.1,0,3.7,0.1,4.7c0,1,0.1,1.8,0.2,2.2c0.1,0.4,0.2,0.7,0.4,0.9c0.1,0.1,0.2,0.2,0.3,0.3c0.1,0.1,0.3,0.2,0.4,0.3
		c0.2,0.1,0.5,0.2,0.8,0.2c0.1,0,0.3,0,0.7-0.1c0.2,0,0.5-0.2,0.9-0.7c0.1-0.1,0.3-0.5,0.5-0.9c0.2-0.5,0.5-1,0.8-1.6
		c0.6-1.3,1.1-2.4,1.6-3.4c0.6-1.3,0.9-1.7,1-1.9c0.1-0.1,0.3-0.2,0.4-0.2c0.3,0,0.5,0.3,0.7,0.5c0.1,0.2,0.4,0.7,0.7,1.3
		c0.3,0.7,0.6,1.2,0.9,1.6c0.3,0.4,0.6,0.8,1,1.2c1.1,1.2,2.1,1.8,3,1.8c0.3,0,0.5-0.1,0.7-0.2c0.7-0.3,1.1-0.8,1.1-1.6
		c0-0.3-0.1-0.6-0.3-0.8C359.3,147.6,359,147.4,358.6,147.4z"/>
	<path id="XMLID_223_" class="st1" d="M369.6,137.6c-0.5-0.3-1-0.5-1.5-0.5c-0.3,0-0.6,0.1-0.8,0.2c-0.1,0.1-0.3,0.1-0.5,0.2
		c-0.2,0.1-0.4,0.1-0.6,0.1c-0.1,0-0.3,0-0.8,0.4c-0.4,0.3-0.8,0.6-1.1,1c-0.7,0.8-1.2,1.9-1.5,3.2c-0.2,0.8-0.3,1.8-0.3,2.9v0.2
		c0,1,0.1,1.9,0.3,2.6c0.4,1.4,1,2.6,1.7,3.4c0.7,0.8,1.6,1.3,2.6,1.5c1.1,0.1,2.2-0.1,3.1-0.9c0.8-0.7,1.5-1.6,2-2.9
		c0.5-1.3,0.8-2.7,0.8-4.3c0-1.5-0.3-3-1-4.4C371.3,139,370.6,138.1,369.6,137.6z M369.9,145.6c-0.1,1.5-0.5,2.7-1.2,3.5
		c-0.2,0.2-0.4,0.4-0.5,0.5c-0.2,0.2-0.4,0.3-0.6,0.3c-0.5,0-1-0.4-1.4-1.1c-0.3-0.6-0.6-1.4-0.8-2.4c-0.1-0.4-0.1-0.8-0.1-1.3
		c0-0.7,0.1-1.4,0.3-2.3c0.2-0.9,0.6-1.6,1.2-2.2c0.2-0.2,0.4-0.4,0.6-0.4c0.2-0.1,0.5-0.1,0.8,0.1c0.6,0.3,1,1,1.3,2.1
		c0.3,0.8,0.4,1.7,0.4,2.7C370,145.2,370,145.4,369.9,145.6z"/>
	<path id="XMLID_222_" class="st1" d="M390.3,135.7c0,0,0,0-0.1-0.1c-0.1-0.3-0.3-0.6-0.6-0.8c-0.2-0.2-0.5-0.3-0.7-0.3
		c-0.6,0-1.1,0.3-1.5,1c-0.6,1.1-2,4.5-4.1,10.2c-0.4,1.2-0.8,2.2-1.2,3c-0.5,1.4-0.6,1.5-0.9,1.5c-0.4,0-0.6-0.3-0.9-1.4
		c-0.3-0.7-0.5-1.6-0.8-2.7c-0.3-1.3-0.5-2.6-0.6-3.9c-0.1-1-0.2-1.7-0.3-2.2c-0.1-0.4-0.3-0.7-0.6-1c-0.3-0.2-0.6-0.3-0.9-0.3
		c-0.1,0-0.2,0-0.6,0.1c-0.1,0-0.4,0.2-0.7,0.7c-0.1,0.1-0.1,0.4-0.1,1c0,0.1,0,0.3,0,0.7c0,0.3,0.1,1,0.4,2.7
		c0.8,4.8,2.1,8.1,3.6,9.7c0.5,0.5,1,0.7,1.5,0.8l0.1,0c0.5,0,0.9-0.1,1.4-0.5c0.4-0.3,0.8-0.8,1.1-1.3c0.5-0.9,1.3-3.1,2.6-6.5
		c0.6-1.5,1.1-3,1.7-4.4c0.6-1.4,0.9-2.4,1.2-2.9c0.3-0.7,0.5-1.3,0.7-1.7c0.2-0.4,0.3-0.7,0.3-0.9c0.1-0.2,0.1-0.3,0.1-0.4V135.7z"
		/>
	<path id="XMLID_219_" class="st1" d="M403.5,147.8c-0.2-0.8-0.3-1.9-0.4-3.4c-0.1-1.1-0.1-2-0.2-2.6c-0.1-0.6-0.1-1-0.2-1.3
		c-0.1-0.3-0.1-0.5-0.2-0.7c-0.3-0.7-0.9-1.1-1.7-1.1c-0.2,0-0.5,0-0.7-0.1c-0.3-0.1-0.5-0.2-0.7-0.3c-0.6-0.4-1.3-0.6-2.1-0.6h-0.1
		c-0.9,0-1.9,0.4-2.8,1.1c-1,0.8-1.8,1.9-2.6,3.2c-0.8,1.4-1.4,3-1.8,4.8c-0.2,0.9-0.3,1.8-0.3,2.7v0.5c0,0.6,0.2,1.2,0.6,1.7
		c0.3,0.5,0.7,0.8,1.2,1c0.5,0.2,1.1,0.1,1.7-0.2c1.3-0.6,3-2.6,5.1-5.8l1.6-2.5l0.2,1.7c0,0.1,0.1,0.4,0.1,0.7
		c0.1,0.3,0.1,0.7,0.1,1.1c0.1,0.9,0.3,1.8,0.6,2.6c0.3,0.7,0.5,1.3,0.8,1.6c0.3,0.3,0.7,0.5,1.2,0.5c0,0,0.2,0,0.6-0.1
		c0.1,0,0.4-0.1,0.8-0.9c0.1-0.3,0.2-0.5,0.2-0.7c0-0.3-0.1-0.7-0.4-1C403.9,149.2,403.7,148.6,403.5,147.8z M397.2,143
		c-0.6,0.9-1.3,2-2.1,3.2c-0.4,0.5-0.7,1-0.9,1.4c-0.5,0.6-0.5,0.7-0.8,0.7c-0.2,0-0.5-0.2-0.5-0.5c0-0.1,0-0.3,0.1-0.7
		c0.1-0.3,0.2-0.7,0.4-1.2c0.2-0.5,0.4-1.1,0.6-1.5c0.2-0.5,0.4-0.9,0.6-1.2c0.4-0.6,0.8-1.1,1.2-1.6c0.5-0.5,0.9-0.8,1.3-0.8h0
		c0.2,0,0.3,0,0.4,0.1c0.3,0.2,0.3,0.4,0.3,0.5C398.1,141.5,398.1,141.6,397.2,143z"/>
	<path id="XMLID_218_" class="st1" d="M415.2,140c0,0.3,0,0.7,0,1.2v0.5c0,1.2,0.1,1.8,0.2,2c0.1,0.3,0.3,0.5,0.6,0.6
		c0.4,0.2,0.5,0.2,0.7,0.2c0.1,0,0.3,0,0.6-0.2c0.3-0.1,0.6-0.4,0.7-0.8c0.2-0.5,0.2-1.2,0.2-2.3c0-0.6-0.1-1.3-0.2-2
		c-0.1-0.6-0.3-1.2-0.6-1.8c-0.5-0.9-1.1-1.5-1.9-1.7c-0.4-0.1-0.9-0.2-1.3-0.2c-0.4,0-0.9,0.1-1.5,0.3c-0.6,0.2-1.3,0.6-2.1,1.2
		c-0.8,0.6-1.4,1.4-1.8,2.3c-0.7,1.6-1.2,3.3-1.5,5.1c-0.1,0.7-0.1,1.4-0.1,2c0,1.1,0.1,2.1,0.3,3c0.3,1,0.7,1.9,1.3,2.6
		c0.6,0.8,1.3,1.4,2.2,1.7c0.8,0.3,1.7,0.4,2.8,0.1c0.8-0.3,1.7-0.8,2.6-1.5c0.8-0.7,1.3-1.3,1.5-1.9c0,0,0-0.1,0-0.2
		c0-0.6-0.3-1-0.9-1.3c-0.6-0.3-1.2-0.1-1.8,0.5c-0.6,0.5-1.1,1-1.6,1.2c-0.6,0.3-1.2,0.4-1.7,0.1c-0.7-0.4-1.2-1.2-1.4-2.3
		c-0.1-0.7-0.2-1.4-0.2-2.1c0-0.3,0-0.8,0.1-1.5c0.1-0.7,0.2-1.4,0.3-2c0.8-3,1.9-4.4,3.2-4.4c0.4,0,0.7,0.1,0.9,0.3
		C415,139.2,415.1,139.5,415.2,140z"/>
	<path id="XMLID_217_" class="st1" d="M423.6,130.6c-0.2-0.1-0.5-0.2-0.7-0.2c-0.1,0-0.2,0-0.2,0c-0.5,0.1-0.9,0.4-1.3,1
		c-0.4,0.5-0.5,0.9-0.5,1.3c0,0,0,0.1,0,0.1c0,0.2,0.1,0.4,0.2,0.5c0.1,0.1,0.3,0.3,0.5,0.4c0.2,0.1,0.4,0.2,0.7,0.2
		c0.1,0,0.3,0,0.7-0.2c0.2-0.1,0.5-0.3,1-0.9c0.3-0.4,0.4-0.7,0.4-1c0-0.2-0.1-0.5-0.2-0.7C424.1,130.9,423.9,130.8,423.6,130.6z"/>
	<path id="XMLID_216_" class="st1" d="M424.1,149.2c0-1.1-0.1-2.2-0.1-3.5c0-0.3,0-0.5,0-0.8l-0.1-3.3c0-0.8-0.2-1.4-0.6-1.7
		c-0.2-0.2-0.4-0.3-0.6-0.3c-0.2,0-0.5,0.1-0.9,0.3c-0.2,0.1-0.4,0.2-0.5,0.4c-0.1,0.1-0.2,0.5-0.2,1.5c0,0.4,0,0.9,0,1.5
		c0,0.6,0,1.4,0,2.2c0,2.1,0,3.5,0.1,4.5c0,1.2,0.2,1.5,0.2,1.6c0.3,0.7,0.7,1,1.3,1.1c0.1,0,0.2,0,0.3,0c0.4,0,0.8-0.2,1.2-0.7
		c0.1-0.2,0.2-0.3,0.2-0.3c0,0,0-0.1,0-0.2c0-0.1,0-0.3,0-0.4C424.1,150.9,424.1,150.3,424.1,149.2z"/>
	<path id="XMLID_213_" class="st1" d="M434.2,137.6c-0.5-0.3-1-0.5-1.5-0.5c-0.3,0-0.6,0.1-0.8,0.2c-0.1,0.1-0.3,0.1-0.5,0.2
		c-0.2,0.1-0.4,0.1-0.6,0.1c-0.1,0-0.3,0-0.8,0.4c-0.4,0.3-0.8,0.6-1.1,1c-0.7,0.8-1.2,1.9-1.5,3.2c-0.2,0.8-0.3,1.8-0.3,2.9v0.2
		c0,1,0.1,1.9,0.3,2.6c0.4,1.4,1,2.6,1.7,3.4c0.7,0.8,1.6,1.3,2.6,1.5c1.1,0.1,2.2-0.1,3.1-0.9c0.8-0.7,1.5-1.6,2-2.9
		c0.5-1.3,0.8-2.7,0.8-4.3c0-1.5-0.3-3-1-4.4C436,139,435.2,138.1,434.2,137.6z M434.6,145.6c-0.1,1.5-0.5,2.7-1.2,3.5
		c-0.2,0.2-0.4,0.4-0.5,0.5c-0.2,0.2-0.4,0.3-0.6,0.3c-0.5,0-1-0.4-1.4-1.1c-0.3-0.6-0.6-1.4-0.8-2.4c-0.1-0.4-0.1-0.8-0.1-1.3
		c0-0.7,0.1-1.4,0.3-2.3c0.2-0.9,0.6-1.6,1.2-2.2c0.2-0.2,0.4-0.4,0.6-0.4c0.2-0.1,0.5-0.1,0.8,0.1c0.6,0.3,1,1,1.3,2.1
		c0.3,0.8,0.4,1.7,0.4,2.7C434.6,145.2,434.6,145.4,434.6,145.6z"/>
	<path id="XMLID_212_" class="st1" d="M455.7,147.4c-1.3-0.2-2.4-1.5-3.4-4c-0.3-0.8-0.6-1.5-0.9-1.9c-0.2-0.4-0.5-0.7-0.8-1
		c-1-0.8-2-0.8-3.2,0.1c-0.3,0.2-0.7,0.7-1.2,1.4c-0.5,0.7-0.9,1.4-1.3,2.1c-0.1,0.2-0.2,0.5-0.4,0.6c-0.1,0.1-0.2,0.4-0.5,0.4h-0.4
		v-0.7c0-0.2,0-0.5,0-1c0-0.5,0-1.2,0.1-2.2c0-1,0.1-1.8,0.1-2.4v-0.8c0-0.3,0-0.6-0.1-0.9c-0.1-0.2-0.2-0.4-0.4-0.5
		c-0.3-0.2-0.6-0.3-0.9-0.3c-0.3,0-0.6,0.1-0.9,0.3c-0.2,0.1-0.3,0.3-0.4,0.5c-0.1,0.1-0.2,0.4-0.2,1c-0.1,0.5-0.1,1.3-0.1,2.2
		c0,1,0,2.3,0,4c0,2.1,0,3.7,0.1,4.7c0,1,0.1,1.8,0.2,2.2c0.1,0.4,0.2,0.7,0.4,0.9c0.1,0.1,0.2,0.2,0.3,0.3c0.1,0.1,0.3,0.2,0.4,0.3
		c0.2,0.1,0.5,0.2,0.8,0.2c0.1,0,0.3,0,0.7-0.1c0.2,0,0.5-0.2,0.9-0.7c0.1-0.1,0.3-0.5,0.5-0.9c0.3-0.5,0.5-1,0.8-1.6
		c0.6-1.3,1.1-2.4,1.6-3.4c0.6-1.3,0.9-1.7,1-1.9c0.1-0.1,0.3-0.2,0.4-0.2c0.3,0,0.5,0.3,0.7,0.5c0.1,0.2,0.4,0.7,0.7,1.3
		c0.3,0.7,0.6,1.2,0.9,1.6c0.3,0.4,0.6,0.8,1,1.2c1.1,1.2,2.1,1.9,3,1.9c0.3,0,0.5-0.1,0.7-0.2c0.7-0.3,1.1-0.8,1.1-1.6
		c0-0.3-0.1-0.6-0.3-0.8C456.3,147.6,456,147.4,455.7,147.4z"/>
	<path id="XMLID_211_" class="st1" d="M437.3,126.7c-1.8,0-3.4,3-4.4,4.8c-0.2,0.4-0.4,0.7-0.5,1c-0.3,0.4-0.2,0.8,0,1
		c0.2,0.4,0.6,0.6,1.1,0.6c0.3,0,0.6-0.1,0.9-0.5c0.2-0.3,0.6-0.8,1.2-1.4c1.2-1.3,3.3-3.6,3.2-4.6c0-0.1,0-0.2-0.1-0.3
		C438.1,126.9,437.7,126.7,437.3,126.7z"/>
</g>
<g id="XMLID_3_">
	<path id="XMLID_152_" class="st2" d="M108.4,29.9c0.1,0,0.1,0,0.2,0c0.3,0.1,0.4,0.3,0.3,0.6c-0.2,0.6-0.4,1.2-0.7,1.8
		c-0.1,0.2-0.4,0.3-0.6,0.2c-0.2-0.1-0.3-0.4-0.2-0.6c0.2-0.5,0.4-1.1,0.6-1.6C108,30,108.2,29.9,108.4,29.9z"/>
	<path id="XMLID_151_" class="st2" d="M106.8,33.2c0.1,0,0.2,0,0.3,0.1c0.2,0.2,0.3,0.5,0.1,0.7c-0.4,0.5-0.8,1-1.2,1.4
		c-0.2,0.2-0.5,0.2-0.7,0c-0.2-0.2-0.2-0.5,0-0.7c0.4-0.4,0.8-0.9,1.1-1.3C106.5,33.2,106.7,33.2,106.8,33.2z"/>
	<path id="XMLID_150_" class="st2" d="M104.2,35.7c0.2,0,0.3,0.1,0.4,0.2c0.2,0.2,0.1,0.5-0.1,0.7c-0.5,0.4-1,0.7-1.6,1
		c-0.2,0.1-0.5,0-0.7-0.2c-0.1-0.2,0-0.5,0.2-0.7c0.5-0.3,1-0.6,1.5-0.9C104.1,35.7,104.2,35.7,104.2,35.7z"/>
	<path id="XMLID_101_" class="st2" d="M101,37.4c0.2,0,0.4,0.1,0.5,0.3c0.1,0.2,0,0.5-0.3,0.6c-0.6,0.2-1.2,0.4-1.8,0.6
		c-0.3,0.1-0.5-0.1-0.6-0.3C98.8,38.3,99,38,99.2,38c0.6-0.2,1.1-0.3,1.7-0.6C100.9,37.4,101,37.4,101,37.4z"/>
	<path id="XMLID_100_" class="st2" d="M97.5,38.4c0.2,0,0.5,0.1,0.5,0.4c0.1,0.3-0.1,0.5-0.4,0.6c-0.6,0.1-1.2,0.2-1.8,0.3
		c-0.3,0-0.5-0.2-0.5-0.4c0-0.3,0.2-0.5,0.4-0.5C96.3,38.6,96.9,38.5,97.5,38.4C97.5,38.4,97.5,38.4,97.5,38.4z"/>
	<path id="XMLID_99_" class="st2" d="M90.3,39.1c0.3,0,0.5,0.2,0.5,0.4c0,0.3-0.2,0.5-0.4,0.5c-0.6,0.1-1.2,0.1-1.8,0.2
		c-0.3,0-0.5-0.1-0.5-0.4c0-0.3,0.1-0.5,0.4-0.5C89.1,39.2,89.7,39.2,90.3,39.1C90.3,39.1,90.3,39.1,90.3,39.1z"/>
	<path id="XMLID_98_" class="st2" d="M92.1,38.9C92.1,38.9,92.1,38.9,92.1,38.9c0.4,0,0.8-0.1,1.2-0.1c0.2,0,0.4,0,0.6,0
		c0.3,0,0.5,0.2,0.5,0.4c0,0.3-0.2,0.5-0.4,0.5c-0.2,0-0.4,0-0.6,0c-0.4,0-0.8,0-1.2,0.1c-0.3,0-0.5-0.2-0.5-0.4
		C91.7,39.2,91.9,39,92.1,38.9z"/>
	<path id="XMLID_97_" class="st2" d="M86.7,39.6c0.2,0,0.5,0.1,0.5,0.4c0,0.3-0.1,0.5-0.4,0.6c-0.6,0.1-1.2,0.2-1.8,0.3
		c-0.3,0.1-0.5-0.1-0.6-0.4c-0.1-0.3,0.1-0.5,0.4-0.6C85.5,39.8,86.1,39.7,86.7,39.6C86.7,39.6,86.7,39.6,86.7,39.6z"/>
	<path id="XMLID_96_" class="st2" d="M83.2,40.4c0.2,0,0.4,0.1,0.5,0.4c0.1,0.3-0.1,0.5-0.3,0.6c-0.6,0.2-1.2,0.3-1.7,0.5
		c-0.3,0.1-0.5-0.1-0.6-0.3c-0.1-0.3,0.1-0.5,0.3-0.6C81.9,40.7,82.5,40.5,83.2,40.4C83.1,40.4,83.2,40.4,83.2,40.4z"/>
	<path id="XMLID_95_" class="st2" d="M79.7,41.5c0.2,0,0.4,0.1,0.5,0.3c0.1,0.2,0,0.5-0.3,0.6c-0.6,0.2-1.1,0.4-1.6,0.7
		c-0.2,0.1-0.5,0-0.6-0.2c-0.1-0.2,0-0.5,0.2-0.6c0.5-0.3,1.1-0.5,1.7-0.7C79.6,41.5,79.7,41.5,79.7,41.5z"/>
	<path id="XMLID_94_" class="st2" d="M76.4,43c0.2,0,0.4,0.1,0.5,0.3c0.1,0.2,0,0.5-0.2,0.7c-0.5,0.3-1,0.6-1.5,0.9
		c-0.2,0.1-0.5,0.1-0.7-0.1c-0.1-0.2-0.1-0.5,0.1-0.7c0.5-0.3,1-0.6,1.6-0.9C76.3,43,76.4,43,76.4,43z"/>
	<path id="XMLID_93_" class="st2" d="M73.4,45c0.2,0,0.3,0.1,0.4,0.2c0.2,0.2,0.1,0.5-0.1,0.7c-0.5,0.4-0.9,0.8-1.3,1.1
		c-0.2,0.2-0.5,0.2-0.7,0c-0.2-0.2-0.2-0.5,0-0.7c0.4-0.4,0.9-0.8,1.4-1.2C73.2,45,73.3,45,73.4,45z"/>
	<path id="XMLID_92_" class="st2" d="M70.7,47.4c0.1,0,0.3,0,0.4,0.1c0.2,0.2,0.2,0.5,0,0.7c-0.4,0.4-0.8,0.9-1.1,1.4
		c-0.2,0.2-0.5,0.3-0.7,0.1c-0.2-0.2-0.3-0.5-0.1-0.7c0.3-0.5,0.7-1,1.1-1.5C70.5,47.5,70.6,47.5,70.7,47.4z"/>
	<path id="XMLID_91_" class="st2" d="M68.7,50.4c0.1,0,0.2,0,0.3,0.1c0.2,0.1,0.3,0.4,0.2,0.7c-0.3,0.5-0.5,1.1-0.7,1.6
		c-0.1,0.2-0.4,0.4-0.6,0.3c-0.2-0.1-0.4-0.4-0.3-0.6c0.2-0.6,0.5-1.2,0.8-1.7C68.4,50.5,68.5,50.4,68.7,50.4z"/>
	<path id="XMLID_90_" class="st2" d="M67.4,53.8c0.1,0,0.1,0,0.2,0c0.3,0.1,0.4,0.3,0.4,0.6c-0.1,0.6-0.2,1.2-0.3,1.7
		c0,0.3-0.3,0.5-0.5,0.4c-0.3,0-0.5-0.3-0.4-0.5c0.1-0.6,0.2-1.2,0.3-1.9C67,54,67.2,53.8,67.4,53.8z"/>
	<path id="XMLID_89_" class="st2" d="M67,57.4C67,57.4,67.1,57.4,67,57.4c0.3,0,0.5,0.2,0.5,0.5c0,0.3,0,0.6,0.1,0.9
		c0,0.3,0.1,0.6,0.1,0.9c0,0.3-0.1,0.5-0.4,0.6c-0.3,0-0.5-0.1-0.6-0.4c-0.1-0.3-0.1-0.6-0.1-1c0-0.3,0-0.6-0.1-0.9
		C66.6,57.7,66.8,57.4,67,57.4z"/>
	<path id="XMLID_88_" class="st2" d="M67.6,61c0.2,0,0.4,0.1,0.5,0.3c0.2,0.6,0.4,1.1,0.6,1.6c0.1,0.2,0,0.5-0.3,0.6
		c-0.2,0.1-0.5,0-0.6-0.2c-0.3-0.6-0.5-1.2-0.6-1.8C67.1,61.4,67.3,61.1,67.6,61C67.5,61,67.6,61,67.6,61z"/>
	<path id="XMLID_87_" class="st2" d="M69.1,64.3c0.2,0,0.4,0.1,0.5,0.2c0.3,0.5,0.6,1,1,1.4c0.2,0.2,0.1,0.5-0.1,0.7
		c-0.2,0.2-0.5,0.1-0.7-0.1c-0.4-0.5-0.7-1-1.1-1.5c-0.1-0.2-0.1-0.5,0.2-0.7C68.9,64.4,69,64.3,69.1,64.3z"/>
	<path id="XMLID_86_" class="st2" d="M71.3,67.2c0.1,0,0.3,0,0.4,0.1c0.4,0.4,0.9,0.8,1.3,1.1c0.2,0.2,0.3,0.5,0.1,0.7
		c-0.2,0.2-0.5,0.3-0.7,0.1c-0.5-0.4-1-0.8-1.4-1.2c-0.2-0.2-0.2-0.5,0-0.7C71.1,67.2,71.2,67.2,71.3,67.2z"/>
	<path id="XMLID_85_" class="st2" d="M74.2,69.3c0.1,0,0.2,0,0.3,0.1c0.5,0.3,1,0.5,1.6,0.7c0.2,0.1,0.4,0.4,0.3,0.6
		C76.2,71,76,71.1,75.7,71c-0.6-0.2-1.2-0.5-1.7-0.8c-0.2-0.1-0.3-0.4-0.2-0.7C73.9,69.4,74,69.4,74.2,69.3z"/>
	<path id="XMLID_84_" class="st2" d="M77.6,70.7c0.1,0,0.1,0,0.2,0c0.6,0.1,1.1,0.2,1.7,0.3c0.3,0,0.5,0.3,0.4,0.5
		c0,0.3-0.3,0.5-0.5,0.4c-0.6-0.1-1.2-0.2-1.9-0.3c-0.3-0.1-0.4-0.3-0.4-0.6C77.2,70.8,77.4,70.7,77.6,70.7z"/>
	<path id="XMLID_83_" class="st2" d="M81.2,71C81.2,71,81.2,71,81.2,71c0.6,0,1.2-0.1,1.8-0.1c0.3,0,0.5,0.1,0.5,0.4
		c0,0.3-0.1,0.5-0.4,0.5c-0.6,0.1-1.3,0.1-1.9,0.2c-0.3,0-0.5-0.2-0.5-0.5C80.7,71.3,80.9,71.1,81.2,71z"/>
	<g id="XMLID_54_">
		<g id="XMLID_55_">
			<g id="XMLID_56_">
				<path id="XMLID_57_" class="st2" d="M38.2,67.4C38.2,67.4,38.2,67.4,38.2,67.4c0.7,0,1.3,0,1.9,0.1c0.3,0,0.5,0.3,0.4,0.5
					c0,0.3-0.3,0.5-0.5,0.4c-0.6-0.1-1.2-0.1-1.7,0c-0.3,0-0.5-0.2-0.5-0.5C37.8,67.7,38,67.5,38.2,67.4z M36.4,67.7
					c0.2,0,0.5,0.1,0.5,0.4c0.1,0.3-0.1,0.5-0.4,0.6c-0.6,0.1-1.1,0.3-1.7,0.4c-0.3,0.1-0.5-0.1-0.6-0.3c-0.1-0.3,0.1-0.5,0.3-0.6
					C35.2,67.9,35.8,67.8,36.4,67.7C36.4,67.7,36.4,67.7,36.4,67.7z M41.8,67.8c0.1,0,0.1,0,0.2,0c0.6,0.2,1.2,0.4,1.8,0.7
					c0.2,0.1,0.3,0.4,0.2,0.6c-0.1,0.2-0.4,0.3-0.6,0.2c-0.5-0.2-1.1-0.5-1.6-0.6c-0.3-0.1-0.4-0.3-0.3-0.6
					C41.5,68,41.6,67.9,41.8,67.8z M33,68.8c0.2,0,0.4,0.1,0.5,0.3c0.1,0.2,0,0.5-0.2,0.6c-0.5,0.2-1.1,0.5-1.6,0.8
					c-0.2,0.1-0.5,0.1-0.7-0.2c-0.1-0.2-0.1-0.5,0.2-0.7c0.5-0.3,1.1-0.6,1.7-0.9C32.9,68.8,32.9,68.8,33,68.8z M29.8,70.6
					c0.2,0,0.3,0.1,0.4,0.2c0.2,0.2,0.1,0.5-0.1,0.7c-0.9,0.6-1.4,1.1-1.4,1.1c-0.2,0.2-0.5,0.2-0.7,0c-0.2-0.2-0.2-0.5,0-0.7
					c0,0,0.6-0.5,1.5-1.2C29.7,70.6,29.8,70.6,29.8,70.6z M45.1,69.4c0.1,0,0.2,0,0.3,0.1c0.5,0.3,1,0.7,1.5,1.1
					c0.2,0.2,0.2,0.5,0,0.7c-0.2,0.2-0.5,0.2-0.7,0c-0.4-0.4-0.9-0.8-1.4-1.1c-0.2-0.1-0.3-0.4-0.1-0.7C44.8,69.5,45,69.4,45.1,69.4
					z M47.8,71.8c0.1,0,0.3,0,0.4,0.2c0.4,0.4,0.8,0.9,1.2,1.4c0.2,0.2,0.1,0.5-0.1,0.7c-0.2,0.2-0.5,0.1-0.7-0.1
					c-0.4-0.5-0.7-0.9-1.1-1.4c-0.2-0.2-0.2-0.5,0-0.7C47.6,71.8,47.7,71.8,47.8,71.8z M84.1,70.5c0.2,0,0.3,0,0.4,0.2
					c0.3,0.4,0.7,0.9,1,1.3c0.1,0.2,0.1,0.5-0.1,0.7c-0.2,0.1-0.5,0.1-0.7-0.1c-0.3-0.4-0.6-0.8-0.9-1.2c-0.2-0.2-0.1-0.5,0.1-0.7
					C83.9,70.6,84,70.5,84.1,70.5z M50,74.6c0.2,0,0.3,0.1,0.5,0.2c0.3,0.5,0.6,1,1,1.6c0.1,0.2,0,0.5-0.2,0.7
					c-0.2,0.1-0.5,0-0.7-0.2c-0.3-0.5-0.6-1-0.9-1.5c-0.1-0.2-0.1-0.5,0.1-0.7C49.9,74.7,50,74.6,50,74.6z M85.9,73.4
					c0.2,0,0.4,0.1,0.5,0.3c0.3,0.6,0.5,1.2,0.7,1.8c0.1,0.3-0.1,0.5-0.3,0.6c-0.3,0.1-0.5-0.1-0.6-0.3c-0.2-0.6-0.4-1.1-0.6-1.6
					c-0.1-0.2,0-0.5,0.2-0.6C85.8,73.4,85.9,73.4,85.9,73.4z M51.8,77.8c0.2,0,0.4,0.1,0.5,0.3c0.3,0.5,0.6,1.1,0.9,1.6
					c0.1,0.2,0.1,0.5-0.2,0.7c-0.2,0.1-0.5,0.1-0.7-0.2c-0.3-0.5-0.6-1-0.9-1.6c-0.1-0.2,0-0.5,0.2-0.7
					C51.7,77.8,51.8,77.8,51.8,77.8z M87,76.9c0.2,0,0.5,0.2,0.5,0.4c0.1,0.3,0.1,0.6,0.1,1c0,0.3,0,0.6,0.1,0.9
					c0,0.3-0.2,0.5-0.5,0.5c-0.3,0-0.5-0.2-0.5-0.5c0-0.3,0-0.6,0-0.9c0-0.3-0.1-0.6-0.1-0.9C86.5,77.2,86.7,76.9,87,76.9
					C87,76.9,87,76.9,87,76.9z M53.7,80.9c0.2,0,0.4,0.1,0.5,0.2c0.3,0.5,0.7,1,1,1.5c0.2,0.2,0.1,0.5-0.1,0.7
					c-0.2,0.2-0.5,0.1-0.7-0.1c-0.3-0.5-0.7-1-1-1.5c-0.1-0.2-0.1-0.5,0.2-0.7C53.5,81,53.6,80.9,53.7,80.9z M87.1,80.5
					C87.1,80.5,87.1,80.5,87.1,80.5c0.4,0,0.6,0.3,0.5,0.5c-0.1,0.6-0.2,1.2-0.3,1.8c-0.1,0.3-0.3,0.4-0.6,0.4
					c-0.3-0.1-0.4-0.3-0.4-0.6c0.1-0.6,0.2-1.2,0.3-1.7C86.7,80.7,86.8,80.5,87.1,80.5z M55.7,83.9c0.2,0,0.3,0.1,0.4,0.2
					c0.4,0.5,0.7,1,1.1,1.4c0.2,0.2,0.1,0.5-0.1,0.7c-0.2,0.2-0.5,0.1-0.7-0.1c-0.4-0.5-0.8-0.9-1.1-1.4c-0.2-0.2-0.1-0.5,0.1-0.7
					C55.5,84,55.6,83.9,55.7,83.9z M86.2,84c0.1,0,0.1,0,0.2,0c0.2,0.1,0.4,0.4,0.3,0.6c-0.2,0.6-0.5,1.2-0.8,1.7
					c-0.1,0.2-0.4,0.3-0.7,0.2c-0.2-0.1-0.3-0.4-0.2-0.7c0.3-0.5,0.5-1.1,0.7-1.6C85.9,84.1,86,84,86.2,84z M58,86.7
					c0.1,0,0.3,0,0.4,0.2c0.4,0.4,0.8,0.9,1.3,1.3c0.2,0.2,0.2,0.5,0,0.7c-0.2,0.2-0.5,0.2-0.7,0c-0.4-0.4-0.9-0.9-1.3-1.3
					c-0.2-0.2-0.2-0.5,0-0.7C57.8,86.8,57.9,86.7,58,86.7z M60.7,89.2c0.1,0,0.3,0,0.4,0.1c0.5,0.4,0.9,0.8,1.4,1.1
					c0.2,0.2,0.3,0.5,0.1,0.7c-0.2,0.2-0.5,0.3-0.7,0.1c-0.5-0.3-1-0.7-1.5-1.1c-0.2-0.2-0.2-0.5-0.1-0.7
					C60.4,89.3,60.5,89.2,60.7,89.2z M84.5,87.2c0.1,0,0.2,0,0.3,0.1c0.2,0.2,0.3,0.5,0.1,0.7c-0.4,0.5-0.7,1-1.1,1.5
					c-0.2,0.2-0.5,0.2-0.7,0c-0.2-0.2-0.2-0.5,0-0.7c0.4-0.4,0.7-0.9,1.1-1.4C84.3,87.3,84.4,87.2,84.5,87.2z M63.6,91.3
					c0.1,0,0.2,0,0.3,0.1c0.5,0.3,1,0.6,1.6,0.8c0.2,0.1,0.3,0.4,0.2,0.6c-0.1,0.2-0.4,0.3-0.6,0.2c-0.5-0.3-1.1-0.6-1.6-0.9
					c-0.2-0.1-0.3-0.4-0.2-0.7C63.3,91.4,63.5,91.4,63.6,91.3z M82.1,89.9c0.1,0,0.3,0,0.4,0.2c0.2,0.2,0.2,0.5,0,0.7
					c-0.5,0.4-1,0.8-1.5,1.2c-0.2,0.2-0.5,0.1-0.7-0.1c-0.2-0.2-0.1-0.5,0.1-0.7c0.5-0.3,0.9-0.7,1.4-1.1C81.9,90,82,89.9,82.1,89.9
					z M66.9,92.9c0.1,0,0.1,0,0.2,0c0.6,0.2,1.1,0.4,1.7,0.5c0.3,0.1,0.4,0.3,0.4,0.6c-0.1,0.3-0.3,0.4-0.6,0.4
					c-0.6-0.1-1.2-0.3-1.8-0.5c-0.3-0.1-0.4-0.4-0.3-0.6C66.5,93,66.7,92.9,66.9,92.9z M79.2,92c0.2,0,0.4,0.1,0.5,0.2
					c0.1,0.2,0,0.5-0.2,0.7c-0.5,0.3-1.1,0.6-1.7,0.8c-0.2,0.1-0.5,0-0.6-0.3c-0.1-0.2,0-0.5,0.3-0.6c0.5-0.2,1.1-0.5,1.6-0.7
					C79.1,92.1,79.1,92.1,79.2,92z M70.4,93.8c0,0,0.1,0,0.1,0c0.6,0.1,1.2,0.1,1.8,0.1c0.3,0,0.5,0.2,0.5,0.5
					c0,0.3-0.2,0.5-0.5,0.5c-0.6,0-1.3,0-1.9-0.1c-0.3,0-0.5-0.3-0.4-0.5C70,93.9,70.2,93.8,70.4,93.8z M75.8,93.4
					c0.2,0,0.5,0.1,0.5,0.4c0.1,0.3-0.1,0.5-0.3,0.6c-0.6,0.2-1.2,0.3-1.8,0.4c-0.2,0-0.5-0.2-0.5-0.4c0-0.3,0.2-0.5,0.4-0.5
					C74.6,93.7,75.2,93.6,75.8,93.4C75.8,93.4,75.8,93.4,75.8,93.4z"/>
			</g>
		</g>
	</g>
	<g id="XMLID_48_">
		<g id="XMLID_51_">
			<path id="XMLID_53_" class="st3" d="M101,45c-2,3.9-9.3,4.1-13.2,2.1c-3.9-2-4.1-9.3-2.1-13.2c2-3.9,9.3-4.1,13.2-2.1
				C102.7,33.8,102.9,41.1,101,45"/>
			<path id="XMLID_52_" class="st4" d="M82,45.5c0.3,2.1-6.9,5.1-9.1,5.4c-2.2,0.3-5.1-6.9-5.4-9.1c-0.3-2.2,6.9-5.1,9.1-5.4
				C78.8,36.1,81.7,43.4,82,45.5"/>
		</g>
		<g id="XMLID_49_">
			<path id="XMLID_50_" class="st5" d="M27.6,60.2c6.5-0.1,11.9,5.1,12.1,11.6c0.1,6.5-5.1,11.9-11.6,12.1
				C21.6,84,16.2,78.8,16,72.3C15.9,65.8,21.1,60.4,27.6,60.2"/>
		</g>
	</g>
	<g id="XMLID_4_">
		<g id="XMLID_44_">
			<path id="XMLID_47_" class="st3" d="M101,45c-2,3.9-9.3,4.1-13.2,2.1c-3.9-2-4.1-9.3-2.1-13.2c2-3.9,9.3-4.1,13.2-2.1
				C102.7,33.8,102.9,41.1,101,45"/>
			<path id="XMLID_46_" class="st4" d="M82,45.5c0.3,2.1-6.9,5.1-9.1,5.4c-2.2,0.3-5.1-6.9-5.4-9.1c-0.3-2.2,6.9-5.1,9.1-5.4
				C78.8,36.1,81.7,43.4,82,45.5"/>
			
				<rect id="XMLID_45_" x="62.6" y="55.2" transform="matrix(0.9879 -0.1551 0.1551 0.9879 -8.4318 11.1027)" class="st6" width="8.8" height="8.8"/>
		</g>
		<g id="XMLID_11_">
			<path id="XMLID_43_" class="st5" d="M103.8,124.3c-3.5-5.5-1.8-12.8,3.8-16.3c5.5-3.5,12.8-1.8,16.3,3.8
				c3.5,5.5,1.8,12.8-3.8,16.3C114.6,131.5,107.3,129.8,103.8,124.3"/>
			<path id="XMLID_6_" class="st5" d="M104.2,31.1c-3.5-5.5-1.8-12.8,3.8-16.3c5.5-3.5,12.8-1.8,16.3,3.8c3.5,5.5,1.8,12.8-3.8,16.3
				C114.9,38.3,107.6,36.6,104.2,31.1"/>
			<g id="XMLID_15_">
				<g id="XMLID_16_">
					<path id="XMLID_17_" class="st2" d="M95.7,61.1c0.2,0,0.4,0,0.6,0c0.3,0,0.5,0.2,0.5,0.5c0,0.3-0.2,0.5-0.5,0.5
						c-0.6,0-1.2,0.1-1.7,0.2c-0.3,0-0.5-0.1-0.6-0.4c0-0.3,0.1-0.5,0.4-0.6C94.9,61.2,95.3,61.1,95.7,61.1z M98.1,61
						C98.1,61,98.2,61,98.1,61c0.7,0,1.3,0.1,1.9,0.2c0.3,0,0.4,0.3,0.4,0.6c0,0.3-0.3,0.4-0.6,0.4c-0.6-0.1-1.2-0.2-1.7-0.2
						c-0.3,0-0.5-0.2-0.5-0.5C97.7,61.3,97.9,61.1,98.1,61z M92.7,61.7c0.2,0,0.4,0.1,0.5,0.3c0.1,0.3-0.1,0.5-0.3,0.6
						c-0.6,0.2-1.1,0.4-1.6,0.6c-0.2,0.1-0.5,0-0.6-0.2c-0.1-0.2,0-0.5,0.2-0.6C91.4,62.1,92,61.9,92.7,61.7
						C92.7,61.7,92.7,61.7,92.7,61.7z M101.7,61.7c0.1,0,0.1,0,0.2,0c0.6,0.2,1.2,0.4,1.8,0.6c0.2,0.1,0.4,0.4,0.3,0.6
						c-0.1,0.2-0.4,0.4-0.6,0.2c-0.5-0.2-1.1-0.4-1.7-0.6c-0.3-0.1-0.4-0.3-0.3-0.6C101.3,61.8,101.5,61.7,101.7,61.7z M89.4,63.2
						c0.2,0,0.4,0.1,0.5,0.2c0.1,0.2,0.1,0.5-0.1,0.7c-0.5,0.3-1,0.7-1.4,1c-0.2,0.2-0.5,0.1-0.7-0.1c-0.2-0.2-0.1-0.5,0.1-0.7
						c0.5-0.4,1-0.8,1.5-1.1C89.3,63.2,89.4,63.2,89.4,63.2z M105,63.1c0.1,0,0.2,0,0.3,0.1c0.5,0.3,1.1,0.7,1.6,1
						c0.2,0.2,0.3,0.5,0.1,0.7c-0.2,0.2-0.5,0.3-0.7,0.1c-0.5-0.4-1-0.7-1.5-1c-0.2-0.1-0.3-0.4-0.2-0.7
						C104.7,63.2,104.9,63.2,105,63.1z M86.7,65.5c0.1,0,0.3,0,0.4,0.1c0.2,0.2,0.2,0.5,0,0.7c-0.4,0.4-0.7,0.9-1.1,1.4
						c-0.1,0.2-0.4,0.3-0.7,0.1c-0.2-0.1-0.3-0.4-0.1-0.7c0.4-0.5,0.7-1,1.2-1.5C86.4,65.6,86.5,65.5,86.7,65.5z M107.9,65.3
						c0.1,0,0.3,0,0.4,0.1c0.4,0.4,0.9,0.9,1.3,1.4c0.2,0.2,0.1,0.5-0.1,0.7c-0.2,0.2-0.5,0.1-0.7-0.1c-0.4-0.5-0.8-0.9-1.2-1.3
						c-0.2-0.2-0.2-0.5,0-0.7C107.7,65.4,107.8,65.3,107.9,65.3z M84.6,68.5c0.1,0,0.2,0,0.3,0c0.2,0.1,0.3,0.4,0.2,0.6
						c-0.2,0.4-0.4,0.9-0.6,1.4c-0.1,0.2-0.4,0.4-0.6,0.3c-0.2-0.1-0.4-0.4-0.3-0.6c0.2-0.5,0.4-1,0.6-1.5
						C84.3,68.6,84.5,68.5,84.6,68.5z M110.1,68.2c0.2,0,0.4,0.1,0.5,0.2c0.3,0.5,0.6,1.1,0.9,1.7c0.1,0.2,0,0.5-0.2,0.6
						c-0.2,0.1-0.5,0-0.6-0.2c-0.2-0.5-0.5-1.1-0.8-1.6c-0.1-0.2-0.1-0.5,0.2-0.7C110,68.2,110.1,68.2,110.1,68.2z M111.6,71.5
						c0.2,0,0.4,0.1,0.5,0.3c0.2,0.6,0.3,1.2,0.5,1.8c0.1,0.3-0.1,0.5-0.4,0.6c-0.3,0.1-0.5-0.1-0.6-0.4c-0.1-0.6-0.3-1.2-0.4-1.7
						c-0.1-0.3,0.1-0.5,0.3-0.6C111.5,71.5,111.6,71.5,111.6,71.5z M112.3,75c0.3,0,0.5,0.2,0.5,0.4c0.1,0.6,0.1,1.2,0.1,1.9
						c0,0.3-0.2,0.5-0.5,0.5c-0.3,0-0.5-0.2-0.5-0.5c0-0.6,0-1.2-0.1-1.8C111.9,75.3,112.1,75.1,112.3,75z M112.3,78.7
						C112.4,78.7,112.4,78.7,112.3,78.7c0.4,0,0.5,0.3,0.5,0.5c-0.1,0.6-0.1,1.2-0.2,1.8c0,0.3-0.3,0.4-0.6,0.4
						c-0.3,0-0.4-0.3-0.4-0.6c0.1-0.6,0.2-1.2,0.2-1.8C111.9,78.9,112.1,78.7,112.3,78.7z M111.8,82.3c0,0,0.1,0,0.2,0
						c0.3,0.1,0.4,0.3,0.4,0.6c-0.1,0.6-0.3,1.2-0.5,1.8c-0.1,0.3-0.3,0.4-0.6,0.3c-0.3-0.1-0.4-0.3-0.3-0.6
						c0.2-0.6,0.3-1.2,0.5-1.7C111.4,82.4,111.6,82.3,111.8,82.3z M110.7,85.7c0.1,0,0.1,0,0.2,0c0.3,0.1,0.4,0.4,0.3,0.6
						c-0.2,0.6-0.4,1.1-0.7,1.7c-0.1,0.2-0.4,0.4-0.6,0.3c-0.2-0.1-0.4-0.4-0.3-0.6c0.2-0.6,0.4-1.1,0.6-1.7
						C110.4,85.9,110.6,85.8,110.7,85.7z M109.4,89.1c0.1,0,0.2,0,0.2,0c0.2,0.1,0.3,0.4,0.2,0.6c-0.2,0.5-0.5,1.1-0.8,1.7
						c-0.1,0.2-0.4,0.3-0.6,0.2c-0.2-0.1-0.3-0.4-0.2-0.6c0.3-0.5,0.5-1.1,0.8-1.6C109.1,89.2,109.2,89.1,109.4,89.1z M107.7,92.4
						c0.1,0,0.2,0,0.3,0.1c0.2,0.1,0.3,0.4,0.2,0.7c-0.3,0.5-0.6,1.1-0.9,1.6c-0.1,0.2-0.4,0.3-0.7,0.2c-0.2-0.1-0.3-0.4-0.2-0.7
						c0.3-0.5,0.6-1,0.9-1.6C107.4,92.5,107.6,92.4,107.7,92.4z M105.9,95.5c0.1,0,0.2,0,0.3,0.1c0.2,0.1,0.3,0.4,0.2,0.7
						c-0.3,0.5-0.6,1.1-0.8,1.6c-0.1,0.2-0.4,0.3-0.6,0.2c-0.2-0.1-0.3-0.4-0.2-0.6c0.3-0.5,0.6-1.1,0.9-1.6
						C105.6,95.6,105.7,95.5,105.9,95.5z M104.3,98.7c0.1,0,0.2,0,0.2,0c0.2,0.1,0.4,0.4,0.3,0.6c-0.2,0.6-0.4,1.1-0.6,1.7
						c-0.1,0.3-0.3,0.4-0.6,0.3c-0.3-0.1-0.4-0.3-0.3-0.6c0.2-0.6,0.4-1.2,0.6-1.8C104,98.9,104.1,98.8,104.3,98.7z M103.3,102.2
						c0,0,0.1,0,0.1,0c0.3,0,0.4,0.3,0.4,0.6c-0.1,0.6-0.2,1.2-0.2,1.7c0,0.3-0.2,0.5-0.5,0.5c-0.3,0-0.5-0.2-0.5-0.5
						c0-0.6,0.1-1.2,0.2-1.9C102.9,102.4,103,102.2,103.3,102.2z M103.1,105.8c0.3,0,0.5,0.2,0.5,0.4c0.1,0.6,0.2,1.2,0.3,1.7
						c0.1,0.3-0.1,0.5-0.3,0.6c-0.3,0.1-0.5-0.1-0.6-0.3c-0.2-0.6-0.3-1.2-0.3-1.9C102.6,106.1,102.8,105.9,103.1,105.8
						C103.1,105.8,103.1,105.8,103.1,105.8z M104,109.3c0.2,0,0.4,0.1,0.5,0.3c0.2,0.5,0.5,1,0.8,1.5c0.1,0.2,0.1,0.5-0.1,0.7
						c-0.2,0.1-0.5,0.1-0.7-0.1c-0.4-0.5-0.7-1.1-0.9-1.7c-0.1-0.2,0-0.5,0.2-0.6C103.9,109.3,104,109.3,104,109.3z M106,112.3
						c0.1,0,0.3,0,0.4,0.2c0.4,0.4,0.8,0.8,1.3,1.2c0.2,0.2,0.2,0.5,0,0.7c-0.2,0.2-0.5,0.2-0.7,0c-0.5-0.4-0.9-0.9-1.3-1.3
						c-0.2-0.2-0.2-0.5,0-0.7C105.8,112.4,105.9,112.4,106,112.3z M108.8,114.7c0.1,0,0.2,0,0.3,0.1c0.5,0.3,1,0.6,1.5,0.9
						c0.2,0.1,0.3,0.4,0.2,0.7c-0.1,0.2-0.4,0.3-0.7,0.2c-0.5-0.3-1.1-0.6-1.6-1c-0.2-0.2-0.3-0.5-0.1-0.7
						C108.5,114.8,108.6,114.7,108.8,114.7z M111.9,116.5c0.1,0,0.2,0,0.2,0c1,0.4,1.6,0.6,1.6,0.6c0.3,0.1,0.4,0.3,0.3,0.6
						c-0.1,0.3-0.3,0.4-0.6,0.3c0,0-0.7-0.2-1.8-0.7c-0.2-0.1-0.4-0.4-0.2-0.6C111.6,116.6,111.8,116.5,111.9,116.5z"/>
				</g>
			</g>
			<path id="XMLID_14_" class="st3" d="M97.4,98.8c-2.3-3.7,1.3-10.1,5-12.4c3.7-2.3,10.1,1.3,12.4,5c2.3,3.7-1.3,10.1-5,12.4
				C106.2,106.1,99.7,102.5,97.4,98.8"/>
			<path id="XMLID_13_" class="st4" d="M106.8,82.3c-2-0.8-0.8-8.6,0-10.6c0.8-2,8.6-0.8,10.6,0c2,0.8,0.8,8.6,0,10.6
				C116.5,84.4,108.8,83.2,106.8,82.3"/>
			
				<rect id="XMLID_12_" x="98.1" y="57.8" transform="matrix(-0.3769 0.9263 -0.9263 -0.3769 198.68 -9.3617)" class="st6" width="8.8" height="8.8"/>
		</g>
		<g id="XMLID_7_">
			<path id="XMLID_10_" class="st3" d="M52.8,67.8c4.4-0.1,8,6.3,8.1,10.7c0.1,4.4-6.3,8-10.7,8.1c-4.4,0.1-8-6.3-8.1-10.7
				C42,71.5,48.4,67.9,52.8,67.8"/>
			<path id="XMLID_9_" class="st4" d="M62.1,84.3c1.7-1.3,7.7,3.7,9,5.5c1.3,1.7-3.7,7.7-5.5,9.1c-1.7,1.3-7.7-3.7-9-5.5
				C55.4,91.6,60.4,85.6,62.1,84.3"/>
			
				<rect id="XMLID_8_" x="77.3" y="86.5" transform="matrix(-0.6015 -0.7989 0.7989 -0.6015 58.1143 210.8567)" class="st6" width="8.8" height="8.8"/>
		</g>
	</g>
	<path id="XMLID_5_" class="st7" d="M80.5,76c-2.7-1.9-3.3-5.7-1.4-8.4c1.9-2.7,5.7-3.3,8.4-1.4c2.7,1.9,3.3,5.7,1.4,8.4
		C86.9,77.3,83.2,77.9,80.5,76"/>
</g>
</svg>
