<?xml version="1.0" standalone="no"?>
<!DOCTYPE svg PUBLIC "-//W3C//DTD SVG 20010904//EN"
 "http://www.w3.org/TR/2001/REC-SVG-20010904/DTD/svg10.dtd">
<svg version="1.0" xmlns="http://www.w3.org/2000/svg"
 width="832.000000pt" height="832.000000pt" viewBox="0 0 832.000000 832.000000"
 preserveAspectRatio="xMidYMid meet">
<metadata>
Created by potrace 1.11, written by Peter Selinger 2001-2013
</metadata>
<g transform="translate(0.000000,832.000000) scale(0.100000,-0.100000)"
fill="#000000" stroke="none">
<path d="M6737 7954 c-1 -1 -22 -5 -47 -8 -71 -9 -179 -43 -250 -78 -36 -18
-67 -35 -70 -38 -3 -3 -25 -18 -50 -34 -54 -35 -186 -168 -195 -196 -3 -11
-10 -20 -14 -20 -8 0 -110 -192 -111 -208 0 -4 -5 -25 -11 -47 -85 -313 -3
-621 226 -850 98 -99 283 -202 391 -219 20 -4 40 -9 45 -12 5 -2 27 -7 50 -9
23 -2 44 -6 46 -9 3 -2 -2 -17 -11 -34 -24 -46 -1 -94 35 -71 8 4 25 29 39 55
14 26 32 48 40 49 8 2 42 5 75 9 58 5 94 13 162 34 37 12 156 64 163 72 3 3
31 23 63 44 111 75 218 200 286 334 12 23 18 42 15 42 -4 0 1 9 11 20 10 11
15 20 12 20 -3 0 0 18 8 40 12 35 24 92 29 140 1 9 5 21 9 27 4 6 3 14 -2 18
-6 3 -7 16 -3 28 13 41 -4 199 -29 264 -6 16 -9 28 -8 28 9 0 -60 155 -94 210
-55 92 -194 230 -272 271 -11 6 -41 22 -67 36 -54 31 -190 75 -256 84 -45 6
-210 12 -215 8z"/>
<path d="M5908 6285 c-2 -3 -49 -7 -104 -9 -152 -7 -294 -43 -394 -102 -61
-36 -140 -105 -140 -123 0 -6 -4 -11 -9 -11 -8 0 -45 -82 -46 -100 0 -3 -4
-11 -8 -17 -5 -7 -6 -13 -3 -13 3 0 1 -11 -4 -24 -14 -37 -24 -142 -22 -235 0
-46 -1 -81 -4 -78 -3 3 -31 -5 -62 -17 -60 -23 -78 -51 -48 -75 13 -11 24 -10
63 3 25 9 50 16 53 16 4 0 12 -26 19 -57 31 -143 84 -248 166 -328 55 -53 112
-86 180 -102 6 -1 21 -5 35 -8 104 -26 294 -26 417 -1 257 53 409 177 448 363
2 10 8 38 14 63 9 42 10 318 0 349 -2 8 10 23 28 35 38 25 48 44 31 63 -11 14
-34 14 -69 -1 -12 -5 -18 4 -27 41 -17 65 -78 172 -129 226 -41 43 -124 93
-171 102 -12 2 -26 6 -30 9 -8 5 -41 10 -129 21 -18 2 -36 6 -41 9 -5 3 -11 3
-14 1z"/>
<path d="M6671 6073 c-8 -3 -28 -22 -45 -41 -17 -20 -42 -45 -55 -58 -19 -18
-21 -25 -12 -43 7 -11 20 -21 30 -21 17 0 131 113 131 131 0 7 -29 40 -33 38
-1 0 -8 -3 -16 -6z"/>
<path d="M4533 5709 c-23 -9 -44 -15 -47 -12 -3 4 -6 1 -6 -5 0 -7 -6 -12 -12
-12 -7 0 -25 -6 -40 -14 -124 -65 -164 -88 -238 -138 -132 -88 -213 -172 -226
-235 -7 -35 79 -232 154 -355 37 -60 39 -68 23 -73 -20 -6 -81 -131 -81 -164
0 -11 9 -23 22 -27 25 -8 54 21 65 65 3 14 11 29 17 33 5 4 10 22 10 41 l0 34
40 -51 c49 -63 112 -123 149 -142 28 -15 71 -13 118 5 41 15 212 100 251 124
20 12 57 35 83 51 59 35 85 56 156 126 64 63 79 87 79 128 0 34 -43 143 -98
246 l-39 73 37 17 c21 9 41 23 44 31 8 22 -23 48 -48 40 -12 -3 -25 -7 -31 -8
-5 -2 -16 -6 -23 -11 -7 -4 -15 -6 -16 -5 -2 2 -28 38 -59 79 -75 100 -85 111
-136 148 -49 36 -84 38 -148 11z"/>
<path d="M4012 4593 c-6 -10 -13 -38 -17 -63 -4 -25 -9 -53 -11 -64 -7 -40 23
-67 54 -47 16 10 37 130 28 165 -7 30 -40 35 -54 9z"/>
<path d="M6339 4474 c-1 -8 -2 -17 -3 -21 -1 -5 -8 -35 -16 -68 -7 -33 -15
-64 -16 -70 -4 -14 -59 -249 -84 -359 -12 -49 -17 -93 -13 -97 4 -4 22 -10 38
-13 38 -6 72 -14 93 -20 9 -3 33 -8 52 -12 42 -7 50 -9 70 -17 8 -3 42 -11 75
-18 33 -7 65 -14 70 -15 15 -4 58 -15 80 -20 11 -2 46 -10 78 -18 58 -14 58
-13 67 10 5 13 11 36 14 51 2 15 5 29 6 31 3 2 4 6 13 55 5 22 14 37 22 37 8
0 15 -4 15 -10 0 -16 46 -12 61 6 10 13 9 19 -12 38 -13 12 -32 25 -41 28 -20
8 -19 13 21 183 45 187 44 181 24 190 -10 4 -27 9 -38 11 -11 2 -87 20 -170
39 -82 20 -159 38 -170 40 -28 6 -154 35 -185 42 -47 11 -50 11 -51 -3z"/>
<path d="M4230 4351 c-12 -7 -70 -23 -132 -37 -5 -1 -9 -2 -10 -3 -2 -2 -13
-4 -25 -7 -15 -2 -23 1 -23 11 0 20 -39 40 -52 27 -6 -6 -11 -22 -11 -36 -1
-14 -4 -26 -7 -27 -16 -2 -41 -9 -95 -23 -77 -22 -208 -56 -210 -56 -2 0 6
-31 16 -70 11 -38 27 -101 38 -140 10 -38 16 -70 14 -70 -3 0 -1 -6 4 -12 9
-11 21 -60 25 -95 0 -5 5 -19 10 -33 5 -14 11 -32 13 -40 2 -8 12 -48 22 -88
l18 -73 38 5 c21 3 43 8 48 11 5 4 19 8 32 11 32 6 54 11 137 33 41 12 89 21
105 21 17 0 36 5 43 12 6 6 17 13 24 14 7 2 38 10 68 19 30 9 64 17 75 19 11
2 21 5 23 6 1 1 6 3 11 4 26 3 27 -1 -86 421 -25 94 -46 177 -47 185 -3 16
-43 23 -66 11z"/>
<path d="M6089 4125 c-59 -16 -82 -29 -85 -49 -5 -34 36 -37 146 -11 8 2 23 4
32 4 20 1 34 39 19 54 -15 15 -58 16 -112 2z"/>
<path d="M5860 4043 c-99 -55 -106 -65 -74 -97 14 -14 22 -12 85 19 48 25 73
44 79 61 20 51 -18 58 -90 17z"/>
<path d="M5624 3865 c-66 -63 -67 -65 -49 -85 10 -11 22 -20 27 -20 17 0 128
114 128 131 0 10 -9 23 -20 29 -16 9 -29 1 -86 -55z"/>
<path d="M7012 3868 c-20 -20 -15 -31 48 -98 51 -56 62 -63 77 -54 32 20 18
61 -38 114 -55 52 -67 58 -87 38z"/>
<path d="M5476 3709 c-14 -20 -19 -21 -64 -12 -136 27 -285 -20 -386 -121 -46
-46 -103 -139 -111 -184 -2 -9 -4 -17 -5 -17 -6 0 -10 -51 -10 -115 -1 -196
121 -356 318 -415 96 -30 234 -14 325 37 24 14 52 23 62 22 21 -3 43 16 37 34
-2 7 15 34 37 61 23 27 41 56 41 65 0 9 3 16 8 16 4 0 15 28 25 63 53 185 -24
392 -183 492 -39 25 -49 40 -31 47 5 2 5 13 0 26 -11 28 -43 29 -63 1z"/>
<path d="M7175 3654 c-14 -15 -14 -19 4 -49 l20 -34 -32 -7 c-77 -16 -157 -66
-164 -100 -23 -124 -22 -348 1 -519 12 -84 37 -162 69 -211 22 -33 33 -37 127
-51 42 -7 322 -6 385 0 136 14 264 62 294 109 18 28 25 113 23 273 -1 203 -9
278 -37 376 -29 103 -57 133 -135 147 -48 9 -393 9 -443 0 -11 -2 -24 8 -35
27 -34 58 -49 66 -77 39z"/>
<path d="M4255 3590 c-18 -20 -18 -21 11 -51 94 -101 112 -111 131 -79 11 17
6 27 -49 85 -34 36 -64 65 -68 65 -4 0 -15 -9 -25 -20z"/>
<path d="M4447 3413 c-21 -24 -9 -39 70 -87 52 -31 66 -35 83 -26 11 6 20 17
20 24 0 13 -131 106 -148 106 -5 0 -16 -8 -25 -17z"/>
<path d="M1317 3404 c-1 -1 -29 -4 -63 -7 -212 -20 -431 -134 -564 -294 -51
-61 -142 -204 -135 -211 3 -3 -2 -14 -12 -24 -9 -10 -13 -18 -10 -18 3 0 -1
-16 -9 -36 -8 -20 -17 -48 -19 -63 -3 -14 -9 -44 -15 -66 -13 -49 -16 -178 -6
-260 45 -379 331 -674 715 -740 70 -12 218 -8 298 9 82 17 177 47 190 59 3 4
15 7 25 7 10 0 18 4 18 8 0 4 19 18 43 30 23 12 51 28 61 34 27 18 116 99 140
127 12 14 28 32 36 40 26 28 96 144 111 184 7 20 17 37 23 37 5 0 7 3 3 6 -3
3 -1 18 5 33 10 26 14 44 24 91 3 14 9 43 14 64 8 39 6 242 -3 281 -3 11 -8
34 -12 50 -13 55 -45 146 -61 171 -15 22 -15 24 2 25 73 3 95 20 66 52 -13 15
-26 17 -64 13 -44 -6 -48 -4 -70 27 -156 222 -406 356 -691 371 -21 1 -39 1
-40 0z"/>
<path d="M4686 3295 c-23 -23 -9 -45 43 -67 64 -27 114 -33 130 -14 18 21 -2
54 -37 62 -15 3 -34 8 -42 11 -8 4 -18 7 -22 7 -3 1 -10 4 -14 9 -12 12 -42 8
-58 -8z"/>
<path d="M3070 3114 c-132 -27 -319 -123 -413 -210 -8 -8 -23 -5 -56 12 -54
29 -67 30 -81 4 -13 -25 -7 -36 31 -55 35 -19 36 -27 7 -58 -37 -38 -58 -66
-80 -105 -11 -21 -24 -41 -28 -47 -26 -32 -59 -235 -39 -235 4 0 6 -8 5 -17
-7 -43 72 -219 148 -333 54 -81 185 -222 198 -214 4 3 8 1 8 -4 0 -11 82 -63
135 -85 94 -39 175 -41 288 -7 69 21 226 98 258 126 23 21 35 18 80 -23 32
-29 44 -35 57 -26 29 18 25 40 -13 75 l-37 34 69 69 c119 120 178 230 187 350
2 33 -1 58 -17 140 -11 52 -75 184 -133 272 -49 77 -203 243 -223 243 -5 0
-16 6 -24 14 -15 16 -137 79 -137 71 0 -2 -12 0 -27 6 -43 16 -92 17 -163 3z"/>
<path d="M2278 2999 c-38 -21 -15 -60 38 -65 22 -2 59 -9 82 -16 45 -11 61 -4
62 29 0 17 -46 39 -97 47 -23 3 -47 8 -55 11 -7 2 -21 0 -30 -6z"/>
<path d="M5641 2851 c-14 -14 -20 -29 -16 -39 3 -9 12 -43 20 -74 16 -68 19
-74 44 -81 15 -4 22 2 28 22 9 29 9 38 -2 100 -4 24 -18 55 -30 69 l-22 25
-22 -22z"/>
<path d="M7396 2637 c-17 -12 -21 -30 -30 -119 -3 -40 -1 -49 18 -61 35 -23
54 10 63 106 6 76 -12 102 -51 74z"/>
<path d="M5684 2591 c-16 -14 -19 -31 -18 -100 0 -60 5 -85 15 -92 18 -11 21
-11 39 1 22 14 22 158 0 187 -16 21 -18 21 -36 4z"/>
<path d="M7020 2433 c-35 -7 -69 -18 -74 -23 -6 -6 -16 -10 -23 -10 -16 0 -21
-4 -86 -61 -63 -55 -144 -166 -190 -259 -39 -80 -67 -145 -72 -170 -1 -8 -8
-33 -13 -55 -23 -89 -30 -194 -18 -271 8 -46 45 -141 62 -158 8 -8 14 -17 14
-20 0 -9 90 -89 139 -123 25 -18 51 -37 58 -43 30 -25 230 -114 286 -126 4 -1
9 -2 12 -3 3 0 -4 -10 -15 -21 -10 -10 -18 -27 -16 -37 2 -10 7 -38 12 -63 4
-25 9 -48 10 -52 1 -5 2 -14 3 -22 0 -7 13 -16 27 -19 32 -6 46 24 35 74 -4
19 -8 37 -9 42 -1 4 -2 18 -2 31 0 14 -7 32 -16 41 -22 22 -13 28 22 15 42
-16 191 -19 259 -5 82 18 142 54 210 127 150 161 251 389 262 593 10 190 -36
287 -204 425 -32 27 -129 83 -194 113 -171 80 -339 108 -479 80z"/>
<path d="M5643 2318 c-14 -20 -43 -156 -37 -173 3 -8 17 -15 31 -15 28 0 53
48 60 116 7 64 -27 108 -54 72z"/>
<path d="M5398 2200 c-7 -11 -16 -20 -20 -20 -4 0 -27 -21 -52 -47 -24 -27
-114 -120 -200 -208 l-155 -159 85 -82 c48 -47 81 -85 75 -89 -15 -8 -14 -48
0 -62 9 -9 19 -9 38 2 26 13 29 11 145 -103 l119 -117 111 113 c61 63 162 165
224 228 61 63 112 117 112 120 0 3 -55 60 -123 127 -67 67 -128 134 -135 150
-6 15 -17 26 -23 25 -14 -4 -147 113 -148 130 -1 19 -40 14 -53 -8z"/>
<path d="M3975 2051 c-23 -10 -75 -66 -75 -81 0 -5 -3 -10 -7 -10 -5 0 -21
-21 -38 -48 -16 -26 -32 -49 -35 -52 -3 -3 -11 -15 -17 -27 -7 -13 -19 -33
-25 -45 -7 -13 -14 -25 -15 -27 -3 -6 -71 39 -75 49 -5 14 -46 0 -53 -17 -7
-19 16 -46 61 -74 l32 -20 -34 -78 c-18 -42 -40 -104 -49 -136 -27 -105 -18
-155 36 -190 16 -11 29 -23 29 -27 0 -5 6 -8 14 -8 8 0 16 -3 18 -7 5 -13 113
-83 127 -83 6 0 14 -7 17 -15 4 -8 12 -15 20 -15 8 0 32 -11 54 -25 22 -14 42
-25 44 -25 3 0 33 -13 68 -30 80 -37 200 -70 234 -64 15 3 32 6 38 7 25 5 176
205 176 234 0 7 3 13 8 13 6 0 57 87 57 100 0 15 34 50 40 41 4 -7 27 -9 63
-5 120 12 134 19 113 58 -14 25 -24 26 -118 12 -18 -2 -35 -1 -37 3 -3 4 6 37
18 73 14 40 23 90 24 127 0 59 -1 62 -42 97 -108 93 -358 234 -486 275 -74 23
-156 32 -185 20z"/>
<path d="M4965 1504 c-82 -30 -89 -35 -80 -63 7 -25 38 -27 77 -7 14 8 42 19
61 25 37 13 50 31 41 56 -8 19 -15 18 -99 -11z"/>
<path d="M7156 824 c-9 -8 -15 -19 -13 -22 1 -4 18 -37 37 -74 30 -59 38 -68
62 -68 24 0 28 4 28 29 0 17 -4 32 -9 35 -5 3 -20 30 -35 61 -27 57 -43 66
-70 39z"/>
<path d="M7292 608 c-21 -21 -13 -38 44 -94 59 -57 95 -68 113 -36 8 14 -2 28
-57 79 -70 65 -80 71 -100 51z"/>
<path d="M7513 442 c-6 -4 -13 -16 -15 -27 -6 -37 157 -100 182 -70 15 18 6
43 -17 52 -10 3 -38 15 -63 26 -55 24 -72 28 -87 19z"/>
</g>
</svg>
